solid OpenSCAD_Model
  facet normal 0.707107 0.707107 0
    outer loop
      vertex 10.8253 6.25 0
      vertex 6.25 10.8253 -3
      vertex 6.25 10.8253 0
    endloop
  endfacet
  facet normal 0.707107 0.707107 0
    outer loop
      vertex 6.25 10.8253 -3
      vertex 10.8253 6.25 0
      vertex 10.8253 6.25 -3
    endloop
  endfacet
  facet normal 0.965925 0.258822 0
    outer loop
      vertex 12.5 0 0
      vertex 10.8253 6.25 -3
      vertex 10.8253 6.25 0
    endloop
  endfacet
  facet normal 0.965925 0.258822 0
    outer loop
      vertex 10.8253 6.25 -3
      vertex 12.5 0 0
      vertex 12.5 0 -3
    endloop
  endfacet
  facet normal 0.258822 0.965925 -0
    outer loop
      vertex 6.25 10.8253 -3
      vertex 0 12.5 0
      vertex 6.25 10.8253 0
    endloop
  endfacet
  facet normal 0.258822 0.965925 0
    outer loop
      vertex 0 12.5 0
      vertex 6.25 10.8253 -3
      vertex 0 12.5 -3
    endloop
  endfacet
  facet normal -0.965925 -0.258822 0
    outer loop
      vertex -10.8253 -6.25 -3
      vertex -12.5 0 0
      vertex -12.5 0 -3
    endloop
  endfacet
  facet normal -0.965925 -0.258822 0
    outer loop
      vertex -12.5 0 0
      vertex -10.8253 -6.25 -3
      vertex -10.8253 -6.25 0
    endloop
  endfacet
  facet normal 0.965925 -0.258822 0
    outer loop
      vertex 10.8253 -6.25 0
      vertex 12.5 0 -3
      vertex 12.5 0 0
    endloop
  endfacet
  facet normal 0.965925 -0.258822 0
    outer loop
      vertex 12.5 0 -3
      vertex 10.8253 -6.25 0
      vertex 10.8253 -6.25 -3
    endloop
  endfacet
  facet normal -0.258822 0.965925 0
    outer loop
      vertex 0 12.5 -3
      vertex -6.25 10.8253 0
      vertex 0 12.5 0
    endloop
  endfacet
  facet normal -0.258822 0.965925 0
    outer loop
      vertex -6.25 10.8253 0
      vertex 0 12.5 -3
      vertex -6.25 10.8253 -3
    endloop
  endfacet
  facet normal 0.258822 -0.965925 0
    outer loop
      vertex 0 -12.5 -3
      vertex 6.25 -10.8253 0
      vertex 0 -12.5 0
    endloop
  endfacet
  facet normal 0.258822 -0.965925 0
    outer loop
      vertex 6.25 -10.8253 0
      vertex 0 -12.5 -3
      vertex 6.25 -10.8253 -3
    endloop
  endfacet
  facet normal -0.707107 0.707107 0
    outer loop
      vertex -10.8253 6.25 -3
      vertex -6.25 10.8253 0
      vertex -6.25 10.8253 -3
    endloop
  endfacet
  facet normal -0.707107 0.707107 0
    outer loop
      vertex -6.25 10.8253 0
      vertex -10.8253 6.25 -3
      vertex -10.8253 6.25 0
    endloop
  endfacet
  facet normal 0 0 -1
    outer loop
      vertex 3.5 8.3 -3
      vertex 12.5 0 -3
      vertex 10.8253 -6.25 -3
    endloop
  endfacet
  facet normal 0 0 -1
    outer loop
      vertex 3.5 8.3 -3
      vertex 10.8253 -6.25 -3
      vertex 6.25 -10.8253 -3
    endloop
  endfacet
  facet normal 0 0 -1
    outer loop
      vertex 12.5 0 -3
      vertex 3.5 8.3 -3
      vertex 10.8253 6.25 -3
    endloop
  endfacet
  facet normal 0 0 -1
    outer loop
      vertex 10.8253 6.25 -3
      vertex 3.5 8.3 -3
      vertex 6.25 10.8253 -3
    endloop
  endfacet
  facet normal 0 0 -1
    outer loop
      vertex 0 -12.5 -3
      vertex 3.5 8.3 -3
      vertex 6.25 -10.8253 -3
    endloop
  endfacet
  facet normal 0 0 -1
    outer loop
      vertex 0 -12.5 -3
      vertex -3.5 8.3 -3
      vertex 3.5 8.3 -3
    endloop
  endfacet
  facet normal 0 -0 -1
    outer loop
      vertex -3.5 8.3 -3
      vertex 0 -12.5 -3
      vertex -6.25 -10.8253 -3
    endloop
  endfacet
  facet normal 0 0 -1
    outer loop
      vertex 0 11.8 -3
      vertex 6.25 10.8253 -3
      vertex 3.5 8.3 -3
    endloop
  endfacet
  facet normal 0 0 -1
    outer loop
      vertex 0 11.8 -3
      vertex 0 12.5 -3
      vertex 6.25 10.8253 -3
    endloop
  endfacet
  facet normal 0 0 -1
    outer loop
      vertex -6.25 10.8253 -3
      vertex 0 11.8 -3
      vertex -3.5 8.3 -3
    endloop
  endfacet
  facet normal -0 0 -1
    outer loop
      vertex 0 11.8 -3
      vertex -6.25 10.8253 -3
      vertex 0 12.5 -3
    endloop
  endfacet
  facet normal 0 0 -1
    outer loop
      vertex -10.8253 -6.25 -3
      vertex -3.5 8.3 -3
      vertex -6.25 -10.8253 -3
    endloop
  endfacet
  facet normal 0 0 -1
    outer loop
      vertex -12.5 0 -3
      vertex -3.5 8.3 -3
      vertex -10.8253 -6.25 -3
    endloop
  endfacet
  facet normal -0 0 -1
    outer loop
      vertex -3.5 8.3 -3
      vertex -10.8253 6.25 -3
      vertex -6.25 10.8253 -3
    endloop
  endfacet
  facet normal 0 0 -1
    outer loop
      vertex -3.5 8.3 -3
      vertex -12.5 0 -3
      vertex -10.8253 6.25 -3
    endloop
  endfacet
  facet normal 0.707107 -0.707107 0
    outer loop
      vertex 6.25 -10.8253 0
      vertex 10.8253 -6.25 -3
      vertex 10.8253 -6.25 0
    endloop
  endfacet
  facet normal 0.707107 -0.707107 0
    outer loop
      vertex 10.8253 -6.25 -3
      vertex 6.25 -10.8253 0
      vertex 6.25 -10.8253 -3
    endloop
  endfacet
  facet normal -0.258822 -0.965925 0
    outer loop
      vertex -6.25 -10.8253 -3
      vertex 0 -12.5 0
      vertex -6.25 -10.8253 0
    endloop
  endfacet
  facet normal -0.258822 -0.965925 -0
    outer loop
      vertex 0 -12.5 0
      vertex -6.25 -10.8253 -3
      vertex 0 -12.5 -3
    endloop
  endfacet
  facet normal -0.707107 -0.707107 0
    outer loop
      vertex -6.25 -10.8253 -3
      vertex -10.8253 -6.25 0
      vertex -10.8253 -6.25 -3
    endloop
  endfacet
  facet normal -0.707107 -0.707107 0
    outer loop
      vertex -10.8253 -6.25 0
      vertex -6.25 -10.8253 -3
      vertex -6.25 -10.8253 0
    endloop
  endfacet
  facet normal -0.965925 0.258822 0
    outer loop
      vertex -12.5 0 -3
      vertex -10.8253 6.25 0
      vertex -10.8253 6.25 -3
    endloop
  endfacet
  facet normal -0.965925 0.258822 0
    outer loop
      vertex -10.8253 6.25 0
      vertex -12.5 0 -3
      vertex -12.5 0 0
    endloop
  endfacet
  facet normal -0 0 1
    outer loop
      vertex 5.31259 1.4235 0
      vertex 12.5 0 0
      vertex 10.8253 6.25 0
    endloop
  endfacet
  facet normal -0 0 1
    outer loop
      vertex 3.5 8.3 0
      vertex 10.8253 6.25 0
      vertex 6.25 10.8253 0
    endloop
  endfacet
  facet normal 0 0 1
    outer loop
      vertex 12.5 0 0
      vertex 5.31259 1.4235 0
      vertex 5.5 0 0
    endloop
  endfacet
  facet normal 0 0 1
    outer loop
      vertex 12.5 0 0
      vertex 5.31259 -1.4235 0
      vertex 10.8253 -6.25 0
    endloop
  endfacet
  facet normal 0 0 1
    outer loop
      vertex 5.31259 -1.4235 0
      vertex 12.5 0 0
      vertex 5.5 0 0
    endloop
  endfacet
  facet normal 0 0 1
    outer loop
      vertex 10.8253 6.25 0
      vertex 4.76314 2.75 0
      vertex 5.31259 1.4235 0
    endloop
  endfacet
  facet normal 0 0 1
    outer loop
      vertex 10.8253 6.25 0
      vertex 3.88909 3.88909 0
      vertex 4.76314 2.75 0
    endloop
  endfacet
  facet normal 0 0 1
    outer loop
      vertex 10.8253 6.25 0
      vertex 3.5 8.3 0
      vertex 3.88909 3.88909 0
    endloop
  endfacet
  facet normal -0 0 1
    outer loop
      vertex 0 11.8 0
      vertex 6.25 10.8253 0
      vertex 0 12.5 0
    endloop
  endfacet
  facet normal 0 0 1
    outer loop
      vertex 6.25 10.8253 0
      vertex 0 11.8 0
      vertex 3.5 8.3 0
    endloop
  endfacet
  facet normal 0 0 1
    outer loop
      vertex -6.25 10.8253 0
      vertex 0 11.8 0
      vertex 0 12.5 0
    endloop
  endfacet
  facet normal -0 0 1
    outer loop
      vertex -10.8253 6.25 0
      vertex -3.88909 3.88909 0
      vertex -3.5 8.3 0
    endloop
  endfacet
  facet normal 0 0 1
    outer loop
      vertex -3.88909 3.88909 0
      vertex -10.8253 6.25 0
      vertex -4.76314 2.75 0
    endloop
  endfacet
  facet normal 0 0 1
    outer loop
      vertex -4.76314 2.75 0
      vertex -10.8253 6.25 0
      vertex -5.31259 1.4235 0
    endloop
  endfacet
  facet normal 0 0 1
    outer loop
      vertex -10.8253 6.25 0
      vertex -3.5 8.3 0
      vertex -6.25 10.8253 0
    endloop
  endfacet
  facet normal 0 0 1
    outer loop
      vertex 0 11.8 0
      vertex -6.25 10.8253 0
      vertex -3.5 8.3 0
    endloop
  endfacet
  facet normal -0 0 1
    outer loop
      vertex 4.76314 -2.75 0
      vertex 10.8253 -6.25 0
      vertex 5.31259 -1.4235 0
    endloop
  endfacet
  facet normal -0 0 1
    outer loop
      vertex 3.88909 -3.88909 0
      vertex 10.8253 -6.25 0
      vertex 4.76314 -2.75 0
    endloop
  endfacet
  facet normal 0 0 1
    outer loop
      vertex 10.8253 -6.25 0
      vertex 3.88909 -3.88909 0
      vertex 6.25 -10.8253 0
    endloop
  endfacet
  facet normal -0 0 1
    outer loop
      vertex 2.75 -4.76314 0
      vertex 6.25 -10.8253 0
      vertex 3.88909 -3.88909 0
    endloop
  endfacet
  facet normal -0 0 1
    outer loop
      vertex 1.4235 -5.31259 0
      vertex 6.25 -10.8253 0
      vertex 2.75 -4.76314 0
    endloop
  endfacet
  facet normal 0 0 1
    outer loop
      vertex 0 -12.5 0
      vertex 1.4235 -5.31259 0
      vertex 0 -5.5 0
    endloop
  endfacet
  facet normal 0 0 1
    outer loop
      vertex 1.4235 -5.31259 0
      vertex 0 -12.5 0
      vertex 6.25 -10.8253 0
    endloop
  endfacet
  facet normal 0 0 1
    outer loop
      vertex -1.4235 -5.31259 0
      vertex 0 -12.5 0
      vertex 0 -5.5 0
    endloop
  endfacet
  facet normal 0 0 1
    outer loop
      vertex -6.25 -10.8253 0
      vertex -1.4235 -5.31259 0
      vertex -2.75 -4.76314 0
    endloop
  endfacet
  facet normal 0 0 1
    outer loop
      vertex -6.25 -10.8253 0
      vertex -2.75 -4.76314 0
      vertex -3.88909 -3.88909 0
    endloop
  endfacet
  facet normal 0 0 1
    outer loop
      vertex -10.8253 -6.25 0
      vertex -3.88909 -3.88909 0
      vertex -4.76314 -2.75 0
    endloop
  endfacet
  facet normal 0 0 1
    outer loop
      vertex -1.4235 -5.31259 0
      vertex -6.25 -10.8253 0
      vertex 0 -12.5 0
    endloop
  endfacet
  facet normal 0 0 1
    outer loop
      vertex -10.8253 -6.25 0
      vertex -4.76314 -2.75 0
      vertex -5.31259 -1.4235 0
    endloop
  endfacet
  facet normal -0 0 1
    outer loop
      vertex -12.5 0 0
      vertex -5.31259 -1.4235 0
      vertex -5.5 0 0
    endloop
  endfacet
  facet normal 0 0 1
    outer loop
      vertex -12.5 0 0
      vertex -5.31259 1.4235 0
      vertex -10.8253 6.25 0
    endloop
  endfacet
  facet normal 0 0 1
    outer loop
      vertex -5.31259 1.4235 0
      vertex -12.5 0 0
      vertex -5.5 0 0
    endloop
  endfacet
  facet normal 0 0 1
    outer loop
      vertex -3.88909 -3.88909 0
      vertex -10.8253 -6.25 0
      vertex -6.25 -10.8253 0
    endloop
  endfacet
  facet normal 0 0 1
    outer loop
      vertex -5.31259 -1.4235 0
      vertex -12.5 0 0
      vertex -10.8253 -6.25 0
    endloop
  endfacet
  facet normal 0 0 1
    outer loop
      vertex 3.5 8.3 0
      vertex 2.75 4.76314 0
      vertex 3.88909 3.88909 0
    endloop
  endfacet
  facet normal 0 0 1
    outer loop
      vertex 3.5 8.3 0
      vertex 1.4235 5.31259 0
      vertex 2.75 4.76314 0
    endloop
  endfacet
  facet normal 0 0 1
    outer loop
      vertex 3.5 8.3 0
      vertex 0 5.5 0
      vertex 1.4235 5.31259 0
    endloop
  endfacet
  facet normal -0 0 1
    outer loop
      vertex -3.5 8.3 0
      vertex 0 5.5 0
      vertex 3.5 8.3 0
    endloop
  endfacet
  facet normal 0 0 1
    outer loop
      vertex 0 5.5 0
      vertex -3.5 8.3 0
      vertex -1.4235 5.31259 0
    endloop
  endfacet
  facet normal 0 0 1
    outer loop
      vertex -1.4235 5.31259 0
      vertex -3.5 8.3 0
      vertex -2.75 4.76314 0
    endloop
  endfacet
  facet normal 0 0 1
    outer loop
      vertex -2.75 4.76314 0
      vertex -3.5 8.3 0
      vertex -3.88909 3.88909 0
    endloop
  endfacet
  facet normal 0 1 -0
    outer loop
      vertex 3.5 8.3 -3
      vertex -3.5 8.3 0
      vertex 3.5 8.3 0
    endloop
  endfacet
  facet normal 0 1 0
    outer loop
      vertex -3.5 8.3 0
      vertex 3.5 8.3 -3
      vertex -3.5 8.3 -3
    endloop
  endfacet
  facet normal -0.707107 -0.707107 0
    outer loop
      vertex 3.5 8.3 -3
      vertex 0 11.8 0
      vertex 0 11.8 -3
    endloop
  endfacet
  facet normal -0.707107 -0.707107 0
    outer loop
      vertex 0 11.8 0
      vertex 3.5 8.3 -3
      vertex 3.5 8.3 0
    endloop
  endfacet
  facet normal 0.707107 -0.707107 0
    outer loop
      vertex -3.5 8.3 0
      vertex 0 11.8 -3
      vertex 0 11.8 0
    endloop
  endfacet
  facet normal 0.707107 -0.707107 0
    outer loop
      vertex 0 11.8 -3
      vertex -3.5 8.3 0
      vertex -3.5 8.3 -3
    endloop
  endfacet
  facet normal 0.923881 0.382681 0
    outer loop
      vertex 5.31259 1.4235 35
      vertex 4.76314 2.75 0
      vertex 4.76314 2.75 35
    endloop
  endfacet
  facet normal 0.923881 0.382681 0
    outer loop
      vertex 4.76314 2.75 0
      vertex 5.31259 1.4235 35
      vertex 5.31259 1.4235 0
    endloop
  endfacet
  facet normal 0.991445 0.130528 0
    outer loop
      vertex 5.5 0 35
      vertex 5.31259 1.4235 0
      vertex 5.31259 1.4235 35
    endloop
  endfacet
  facet normal 0.991445 0.130528 0
    outer loop
      vertex 5.31259 1.4235 0
      vertex 5.5 0 35
      vertex 5.5 0 0
    endloop
  endfacet
  facet normal 0.793355 0.608759 0
    outer loop
      vertex 4.76314 2.75 35
      vertex 3.88909 3.88909 0
      vertex 3.88909 3.88909 35
    endloop
  endfacet
  facet normal 0.793355 0.608759 0
    outer loop
      vertex 3.88909 3.88909 0
      vertex 4.76314 2.75 35
      vertex 4.76314 2.75 0
    endloop
  endfacet
  facet normal -0.608759 0.793355 0
    outer loop
      vertex -2.75 4.76314 0
      vertex -3.88909 3.88909 35
      vertex -2.75 4.76314 35
    endloop
  endfacet
  facet normal -0.608759 0.793355 0
    outer loop
      vertex -3.88909 3.88909 35
      vertex -2.75 4.76314 0
      vertex -3.88909 3.88909 0
    endloop
  endfacet
  facet normal 0.991445 -0.130528 0
    outer loop
      vertex 5.31259 -1.4235 35
      vertex 5.5 0 0
      vertex 5.5 0 35
    endloop
  endfacet
  facet normal 0.991445 -0.130528 0
    outer loop
      vertex 5.5 0 0
      vertex 5.31259 -1.4235 35
      vertex 5.31259 -1.4235 0
    endloop
  endfacet
  facet normal 0.608759 -0.793355 0
    outer loop
      vertex 2.75 -4.76314 0
      vertex 3.88909 -3.88909 35
      vertex 2.75 -4.76314 35
    endloop
  endfacet
  facet normal 0.608759 -0.793355 0
    outer loop
      vertex 3.88909 -3.88909 35
      vertex 2.75 -4.76314 0
      vertex 3.88909 -3.88909 0
    endloop
  endfacet
  facet normal 0.793355 -0.608759 0
    outer loop
      vertex 3.88909 -3.88909 35
      vertex 4.76314 -2.75 0
      vertex 4.76314 -2.75 35
    endloop
  endfacet
  facet normal 0.793355 -0.608759 0
    outer loop
      vertex 4.76314 -2.75 0
      vertex 3.88909 -3.88909 35
      vertex 3.88909 -3.88909 0
    endloop
  endfacet
  facet normal -0.608759 -0.793355 0
    outer loop
      vertex -3.88909 -3.88909 0
      vertex -2.75 -4.76314 35
      vertex -3.88909 -3.88909 35
    endloop
  endfacet
  facet normal -0.608759 -0.793355 -0
    outer loop
      vertex -2.75 -4.76314 35
      vertex -3.88909 -3.88909 0
      vertex -2.75 -4.76314 0
    endloop
  endfacet
  facet normal 0.608759 0.793355 -0
    outer loop
      vertex 3.88909 3.88909 0
      vertex 2.75 4.76314 35
      vertex 3.88909 3.88909 35
    endloop
  endfacet
  facet normal 0.608759 0.793355 0
    outer loop
      vertex 2.75 4.76314 35
      vertex 3.88909 3.88909 0
      vertex 2.75 4.76314 0
    endloop
  endfacet
  facet normal -0.382681 0.923881 0
    outer loop
      vertex -1.4235 5.31259 0
      vertex -2.75 4.76314 35
      vertex -1.4235 5.31259 35
    endloop
  endfacet
  facet normal -0.382681 0.923881 0
    outer loop
      vertex -2.75 4.76314 35
      vertex -1.4235 5.31259 0
      vertex -2.75 4.76314 0
    endloop
  endfacet
  facet normal -0.793355 -0.608759 0
    outer loop
      vertex -3.88909 -3.88909 0
      vertex -4.76314 -2.75 35
      vertex -4.76314 -2.75 0
    endloop
  endfacet
  facet normal -0.793355 -0.608759 0
    outer loop
      vertex -4.76314 -2.75 35
      vertex -3.88909 -3.88909 0
      vertex -3.88909 -3.88909 35
    endloop
  endfacet
  facet normal -0.923881 0.382681 0
    outer loop
      vertex -5.31259 1.4235 0
      vertex -4.76314 2.75 35
      vertex -4.76314 2.75 0
    endloop
  endfacet
  facet normal -0.923881 0.382681 0
    outer loop
      vertex -4.76314 2.75 35
      vertex -5.31259 1.4235 0
      vertex -5.31259 1.4235 35
    endloop
  endfacet
  facet normal 0.130528 -0.991445 0
    outer loop
      vertex 0 -5.5 0
      vertex 1.4235 -5.31259 35
      vertex 0 -5.5 35
    endloop
  endfacet
  facet normal 0.130528 -0.991445 0
    outer loop
      vertex 1.4235 -5.31259 35
      vertex 0 -5.5 0
      vertex 1.4235 -5.31259 0
    endloop
  endfacet
  facet normal -0.130528 0.991445 0
    outer loop
      vertex 0 5.5 0
      vertex -1.4235 5.31259 35
      vertex 0 5.5 35
    endloop
  endfacet
  facet normal -0.130528 0.991445 0
    outer loop
      vertex -1.4235 5.31259 35
      vertex 0 5.5 0
      vertex -1.4235 5.31259 0
    endloop
  endfacet
  facet normal -0.793355 0.608759 0
    outer loop
      vertex -4.76314 2.75 0
      vertex -3.88909 3.88909 35
      vertex -3.88909 3.88909 0
    endloop
  endfacet
  facet normal -0.793355 0.608759 0
    outer loop
      vertex -3.88909 3.88909 35
      vertex -4.76314 2.75 0
      vertex -4.76314 2.75 35
    endloop
  endfacet
  facet normal 0.923881 -0.382681 0
    outer loop
      vertex 4.76314 -2.75 35
      vertex 5.31259 -1.4235 0
      vertex 5.31259 -1.4235 35
    endloop
  endfacet
  facet normal 0.923881 -0.382681 0
    outer loop
      vertex 5.31259 -1.4235 0
      vertex 4.76314 -2.75 35
      vertex 4.76314 -2.75 0
    endloop
  endfacet
  facet normal -0.130528 -0.991445 0
    outer loop
      vertex -1.4235 -5.31259 0
      vertex 0 -5.5 35
      vertex -1.4235 -5.31259 35
    endloop
  endfacet
  facet normal -0.130528 -0.991445 -0
    outer loop
      vertex 0 -5.5 35
      vertex -1.4235 -5.31259 0
      vertex 0 -5.5 0
    endloop
  endfacet
  facet normal -0.923881 -0.382681 0
    outer loop
      vertex -4.76314 -2.75 0
      vertex -5.31259 -1.4235 35
      vertex -5.31259 -1.4235 0
    endloop
  endfacet
  facet normal -0.923881 -0.382681 0
    outer loop
      vertex -5.31259 -1.4235 35
      vertex -4.76314 -2.75 0
      vertex -4.76314 -2.75 35
    endloop
  endfacet
  facet normal -0.991445 -0.130528 0
    outer loop
      vertex -5.31259 -1.4235 0
      vertex -5.5 0 35
      vertex -5.5 0 0
    endloop
  endfacet
  facet normal -0.991445 -0.130528 0
    outer loop
      vertex -5.5 0 35
      vertex -5.31259 -1.4235 0
      vertex -5.31259 -1.4235 35
    endloop
  endfacet
  facet normal 0.382681 -0.923881 0
    outer loop
      vertex 1.4235 -5.31259 0
      vertex 2.75 -4.76314 35
      vertex 1.4235 -5.31259 35
    endloop
  endfacet
  facet normal 0.382681 -0.923881 0
    outer loop
      vertex 2.75 -4.76314 35
      vertex 1.4235 -5.31259 0
      vertex 2.75 -4.76314 0
    endloop
  endfacet
  facet normal 0.130528 0.991445 -0
    outer loop
      vertex 1.4235 5.31259 0
      vertex 0 5.5 35
      vertex 1.4235 5.31259 35
    endloop
  endfacet
  facet normal 0.130528 0.991445 0
    outer loop
      vertex 0 5.5 35
      vertex 1.4235 5.31259 0
      vertex 0 5.5 0
    endloop
  endfacet
  facet normal -0.991445 0.130528 0
    outer loop
      vertex -5.5 0 0
      vertex -5.31259 1.4235 35
      vertex -5.31259 1.4235 0
    endloop
  endfacet
  facet normal -0.991445 0.130528 0
    outer loop
      vertex -5.31259 1.4235 35
      vertex -5.5 0 0
      vertex -5.5 0 35
    endloop
  endfacet
  facet normal 0.382681 0.923881 -0
    outer loop
      vertex 2.75 4.76314 0
      vertex 1.4235 5.31259 35
      vertex 2.75 4.76314 35
    endloop
  endfacet
  facet normal 0.382681 0.923881 0
    outer loop
      vertex 1.4235 5.31259 35
      vertex 2.75 4.76314 0
      vertex 1.4235 5.31259 0
    endloop
  endfacet
  facet normal -0.382681 -0.923881 0
    outer loop
      vertex -2.75 -4.76314 0
      vertex -1.4235 -5.31259 35
      vertex -2.75 -4.76314 35
    endloop
  endfacet
  facet normal -0.382681 -0.923881 -0
    outer loop
      vertex -1.4235 -5.31259 35
      vertex -2.75 -4.76314 0
      vertex -1.4235 -5.31259 0
    endloop
  endfacet
  facet normal 0 0 1
    outer loop
      vertex 5.31259 1.4235 35
      vertex 5.31259 -1.4235 35
      vertex 5.5 0 35
    endloop
  endfacet
  facet normal 0 0 1
    outer loop
      vertex 4.76314 2.75 35
      vertex 5.31259 -1.4235 35
      vertex 5.31259 1.4235 35
    endloop
  endfacet
  facet normal 0 0 1
    outer loop
      vertex 4.76314 2.75 35
      vertex 4.76314 -2.75 35
      vertex 5.31259 -1.4235 35
    endloop
  endfacet
  facet normal 0 0 1
    outer loop
      vertex 3.88909 3.88909 35
      vertex 4.76314 -2.75 35
      vertex 4.76314 2.75 35
    endloop
  endfacet
  facet normal 0 0 1
    outer loop
      vertex 3.88909 3.88909 35
      vertex 3.88909 -3.88909 35
      vertex 4.76314 -2.75 35
    endloop
  endfacet
  facet normal 0 0 1
    outer loop
      vertex 2.75 4.76314 35
      vertex 3.88909 -3.88909 35
      vertex 3.88909 3.88909 35
    endloop
  endfacet
  facet normal 0 0 1
    outer loop
      vertex 2.75 4.76314 35
      vertex 2.75 -4.76314 35
      vertex 3.88909 -3.88909 35
    endloop
  endfacet
  facet normal 0 0 1
    outer loop
      vertex 1.4235 5.31259 35
      vertex 2.75 -4.76314 35
      vertex 2.75 4.76314 35
    endloop
  endfacet
  facet normal 0 0 1
    outer loop
      vertex 1.4235 5.31259 35
      vertex 1.4235 -5.31259 35
      vertex 2.75 -4.76314 35
    endloop
  endfacet
  facet normal 0 0 1
    outer loop
      vertex 0 5.5 35
      vertex 1.4235 -5.31259 35
      vertex 1.4235 5.31259 35
    endloop
  endfacet
  facet normal 0 0 1
    outer loop
      vertex 0 5.5 35
      vertex 0 -5.5 35
      vertex 1.4235 -5.31259 35
    endloop
  endfacet
  facet normal -0 0 1
    outer loop
      vertex -1.4235 5.31259 35
      vertex 0 -5.5 35
      vertex 0 5.5 35
    endloop
  endfacet
  facet normal 0 0 1
    outer loop
      vertex -1.4235 5.31259 35
      vertex -1.4235 -5.31259 35
      vertex 0 -5.5 35
    endloop
  endfacet
  facet normal -0 0 1
    outer loop
      vertex -2.75 4.76314 35
      vertex -1.4235 -5.31259 35
      vertex -1.4235 5.31259 35
    endloop
  endfacet
  facet normal 0 0 1
    outer loop
      vertex -2.75 4.76314 35
      vertex -2.75 -4.76314 35
      vertex -1.4235 -5.31259 35
    endloop
  endfacet
  facet normal -0 0 1
    outer loop
      vertex -3.88909 3.88909 35
      vertex -2.75 -4.76314 35
      vertex -2.75 4.76314 35
    endloop
  endfacet
  facet normal 0 0 1
    outer loop
      vertex -3.88909 3.88909 35
      vertex -3.88909 -3.88909 35
      vertex -2.75 -4.76314 35
    endloop
  endfacet
  facet normal -0 0 1
    outer loop
      vertex -4.76314 2.75 35
      vertex -3.88909 -3.88909 35
      vertex -3.88909 3.88909 35
    endloop
  endfacet
  facet normal 0 0 1
    outer loop
      vertex -4.76314 2.75 35
      vertex -4.76314 -2.75 35
      vertex -3.88909 -3.88909 35
    endloop
  endfacet
  facet normal -0 0 1
    outer loop
      vertex -5.31259 1.4235 35
      vertex -4.76314 -2.75 35
      vertex -4.76314 2.75 35
    endloop
  endfacet
  facet normal 0 0 1
    outer loop
      vertex -5.31259 1.4235 35
      vertex -5.31259 -1.4235 35
      vertex -4.76314 -2.75 35
    endloop
  endfacet
  facet normal 0 -0 1
    outer loop
      vertex -5.31259 -1.4235 35
      vertex -5.31259 1.4235 35
      vertex -5.5 0 35
    endloop
  endfacet
endsolid OpenSCAD_Model
