solid OpenSCAD_Model
  facet normal 0 0.894427 0.447214
    outer loop
      vertex 81.12 45.27 0
      vertex 54.08 39.862 10.816
      vertex 81.12 39.862 10.816
    endloop
  endfacet
  facet normal 0 0.894427 0.447214
    outer loop
      vertex 54.08 39.862 10.816
      vertex 81.12 45.27 0
      vertex 54.08 45.27 0
    endloop
  endfacet
  facet normal 0 0.894427 0.447214
    outer loop
      vertex 81.12 39.862 10.816
      vertex 6 39.27 12
      vertex 129.2 39.27 12
    endloop
  endfacet
  facet normal -0 0.894427 0.447214
    outer loop
      vertex 81.12 39.862 10.816
      vertex 129.2 39.27 12
      vertex 108.16 39.862 10.816
    endloop
  endfacet
  facet normal -0 0.894427 0.447214
    outer loop
      vertex 108.16 45.27 0
      vertex 129.2 39.27 12
      vertex 135.2 45.27 0
    endloop
  endfacet
  facet normal -4.18904e-17 0.894427 0.447214
    outer loop
      vertex 129.2 39.27 12
      vertex 108.16 45.27 0
      vertex 108.16 39.862 10.816
    endloop
  endfacet
  facet normal -0 0.894427 0.447214
    outer loop
      vertex 54.08 39.862 10.816
      vertex 6 39.27 12
      vertex 81.12 39.862 10.816
    endloop
  endfacet
  facet normal -0 0.894427 0.447214
    outer loop
      vertex 27.04 39.862 10.816
      vertex 6 39.27 12
      vertex 54.08 39.862 10.816
    endloop
  endfacet
  facet normal 2.74837e-08 0.894427 0.447214
    outer loop
      vertex 7.16142 43.8811 2.77781
      vertex 6 39.27 12
      vertex 27.04 39.862 10.816
    endloop
  endfacet
  facet normal -0.000104759 0.894432 0.447203
    outer loop
      vertex 6 39.27 12
      vertex 7.16142 43.8811 2.77781
      vertex 5.65645 39.6135 11.3129
    endloop
  endfacet
  facet normal -0 0.894428 0.447212
    outer loop
      vertex 0 45.27 0
      vertex 7.16142 43.8811 2.77781
      vertex 27.04 45.27 0
    endloop
  endfacet
  facet normal 2.24973e-07 0.894427 0.447214
    outer loop
      vertex 27.04 45.27 0
      vertex 7.16142 43.8811 2.77781
      vertex 27.04 39.862 10.816
    endloop
  endfacet
  facet normal -2.50254e-07 0.894427 0.447214
    outer loop
      vertex 6.07813 43.9766 2.5868
      vertex 0 45.27 0
      vertex 4.83069 40.4393 9.66139
    endloop
  endfacet
  facet normal -7.04846e-06 0.894421 0.447227
    outer loop
      vertex 7.16142 43.8811 2.77781
      vertex 0 45.27 0
      vertex 6.07813 43.9766 2.5868
    endloop
  endfacet
  facet normal 0 -0.894427 0.447214
    outer loop
      vertex 81.12 0 0
      vertex 108.16 5.408 10.816
      vertex 81.12 5.408 10.816
    endloop
  endfacet
  facet normal 0 -0.894427 0.447214
    outer loop
      vertex 108.16 5.408 10.816
      vertex 81.12 0 0
      vertex 108.16 0 0
    endloop
  endfacet
  facet normal 0 -0.894427 0.447214
    outer loop
      vertex 27.04 0 0
      vertex 54.08 5.408 10.816
      vertex 27.04 5.408 10.816
    endloop
  endfacet
  facet normal 0 -0.894427 0.447214
    outer loop
      vertex 54.08 5.408 10.816
      vertex 27.04 0 0
      vertex 54.08 0 0
    endloop
  endfacet
  facet normal 0 -0.894427 0.447214
    outer loop
      vertex 5.74407 5.408 10.816
      vertex 6 6 12
      vertex 5.65645 5.65645 11.3129
    endloop
  endfacet
  facet normal 0 -0.894427 0.447214
    outer loop
      vertex 6 6 12
      vertex 5.74407 5.408 10.816
      vertex 27.04 5.408 10.816
    endloop
  endfacet
  facet normal 0 -0.894427 0.447214
    outer loop
      vertex 6 6 12
      vertex 27.04 5.408 10.816
      vertex 54.08 5.408 10.816
    endloop
  endfacet
  facet normal 0 -0.894427 0.447214
    outer loop
      vertex 6 6 12
      vertex 54.08 5.408 10.816
      vertex 129.2 6 12
    endloop
  endfacet
  facet normal 0 -0.894427 0.447214
    outer loop
      vertex 81.12 5.408 10.816
      vertex 129.2 6 12
      vertex 54.08 5.408 10.816
    endloop
  endfacet
  facet normal 0 -0.894427 0.447214
    outer loop
      vertex 108.16 5.408 10.816
      vertex 129.2 6 12
      vertex 81.12 5.408 10.816
    endloop
  endfacet
  facet normal 0 -0.894427 0.447214
    outer loop
      vertex 129.2 6 12
      vertex 108.16 5.408 10.816
      vertex 129.792 5.408 10.816
    endloop
  endfacet
  facet normal -0.894427 0 0.447214
    outer loop
      vertex 5.65645 39.6135 11.3129
      vertex 6 6 12
      vertex 6 39.27 12
    endloop
  endfacet
  facet normal -0.894427 0 0.447214
    outer loop
      vertex 6 6 12
      vertex 5.65645 39.6135 11.3129
      vertex 5.65645 5.65645 11.3129
    endloop
  endfacet
  facet normal -0.894427 0 0.447213
    outer loop
      vertex 0 5.408 0
      vertex 4.83069 40.4393 9.66139
      vertex 0 45.27 0
    endloop
  endfacet
  facet normal -0.894427 0 0.447213
    outer loop
      vertex 4.83069 40.4393 9.66139
      vertex 0 5.408 0
      vertex 4.83069 5.408 9.66139
    endloop
  endfacet
  facet normal 0 0 1
    outer loop
      vertex 33.2 18.3962 12
      vertex 51 18.3962 12
      vertex 33.2 26.8738 12
    endloop
  endfacet
  facet normal 0 0 1
    outer loop
      vertex 51 18.3962 12
      vertex 33.2 18.3962 12
      vertex 36.2 13.2 12
    endloop
  endfacet
  facet normal -0 0 1
    outer loop
      vertex 27.2 26.8738 12
      vertex 33.2 18.3962 12
      vertex 33.2 26.8738 12
    endloop
  endfacet
  facet normal 0 0 1
    outer loop
      vertex 27.2 26.8738 12
      vertex 27.2 18.3962 12
      vertex 33.2 18.3962 12
    endloop
  endfacet
  facet normal 0 0 1
    outer loop
      vertex 16.2 26.8738 12
      vertex 27.2 26.8738 12
      vertex 25.3836 30.02 12
    endloop
  endfacet
  facet normal 0 0 1
    outer loop
      vertex 27.2 26.8738 12
      vertex 16.2 26.8738 12
      vertex 27.2 18.3962 12
    endloop
  endfacet
  facet normal 0 0 1
    outer loop
      vertex 16.2 26.8738 12
      vertex 25.3836 30.02 12
      vertex 18.0164 30.02 12
    endloop
  endfacet
  facet normal 0 0 1
    outer loop
      vertex 16.2 18.3962 12
      vertex 27.2 18.3962 12
      vertex 16.2 26.8738 12
    endloop
  endfacet
  facet normal 0 0 1
    outer loop
      vertex 27.2 18.3962 12
      vertex 16.2 18.3962 12
      vertex 25.3836 15.25 12
    endloop
  endfacet
  facet normal 0 0 1
    outer loop
      vertex 25.3836 15.25 12
      vertex 16.2 18.3962 12
      vertex 18.0164 15.25 12
    endloop
  endfacet
  facet normal -0 0 1
    outer loop
      vertex 10.2 26.8738 12
      vertex 16.2 18.3962 12
      vertex 16.2 26.8738 12
    endloop
  endfacet
  facet normal 0 0 1
    outer loop
      vertex 10.2 26.8738 12
      vertex 10.2 18.3962 12
      vertex 16.2 18.3962 12
    endloop
  endfacet
  facet normal 0 0 1
    outer loop
      vertex 7.2 32.07 12
      vertex 10.2 18.3962 12
      vertex 10.2 26.8738 12
    endloop
  endfacet
  facet normal 0 0 1
    outer loop
      vertex 10.2 18.3962 12
      vertex 7.2 32.07 12
      vertex 7.2 13.2 12
    endloop
  endfacet
  facet normal -0 0 1
    outer loop
      vertex 125 26.8738 12
      vertex 128 13.2 12
      vertex 128 32.07 12
    endloop
  endfacet
  facet normal 0 0 1
    outer loop
      vertex 125 26.8738 12
      vertex 125 18.3962 12
      vertex 128 13.2 12
    endloop
  endfacet
  facet normal -0 0 1
    outer loop
      vertex 119 26.8738 12
      vertex 125 18.3962 12
      vertex 125 26.8738 12
    endloop
  endfacet
  facet normal 0 0 1
    outer loop
      vertex 119 26.8738 12
      vertex 119 18.3962 12
      vertex 125 18.3962 12
    endloop
  endfacet
  facet normal 0 0 1
    outer loop
      vertex 108 26.8738 12
      vertex 119 26.8738 12
      vertex 117.184 30.02 12
    endloop
  endfacet
  facet normal 0 0 1
    outer loop
      vertex 119 26.8738 12
      vertex 108 26.8738 12
      vertex 119 18.3962 12
    endloop
  endfacet
  facet normal 0 0 1
    outer loop
      vertex 108 26.8738 12
      vertex 117.184 30.02 12
      vertex 109.816 30.02 12
    endloop
  endfacet
  facet normal 0 0 1
    outer loop
      vertex 108 18.3962 12
      vertex 119 18.3962 12
      vertex 108 26.8738 12
    endloop
  endfacet
  facet normal 0 0 1
    outer loop
      vertex 119 18.3962 12
      vertex 108 18.3962 12
      vertex 117.184 15.25 12
    endloop
  endfacet
  facet normal 0 0 1
    outer loop
      vertex 117.184 15.25 12
      vertex 108 18.3962 12
      vertex 109.816 15.25 12
    endloop
  endfacet
  facet normal -0 0 1
    outer loop
      vertex 102 26.8738 12
      vertex 108 18.3962 12
      vertex 108 26.8738 12
    endloop
  endfacet
  facet normal 0 0 1
    outer loop
      vertex 102 26.8738 12
      vertex 102 18.3962 12
      vertex 108 18.3962 12
    endloop
  endfacet
  facet normal 0 0 1
    outer loop
      vertex 91 26.8738 12
      vertex 102 26.8738 12
      vertex 100.184 30.02 12
    endloop
  endfacet
  facet normal 0 0 1
    outer loop
      vertex 102 26.8738 12
      vertex 91 26.8738 12
      vertex 102 18.3962 12
    endloop
  endfacet
  facet normal 0 0 1
    outer loop
      vertex 91 26.8738 12
      vertex 100.184 30.02 12
      vertex 92.8164 30.02 12
    endloop
  endfacet
  facet normal 0 0 1
    outer loop
      vertex 91 18.3962 12
      vertex 102 18.3962 12
      vertex 91 26.8738 12
    endloop
  endfacet
  facet normal 0 0 1
    outer loop
      vertex 102 18.3962 12
      vertex 91 18.3962 12
      vertex 100.184 15.25 12
    endloop
  endfacet
  facet normal 0 0 1
    outer loop
      vertex 100.184 15.25 12
      vertex 91 18.3962 12
      vertex 92.8164 15.25 12
    endloop
  endfacet
  facet normal -0 0 1
    outer loop
      vertex 85 26.8738 12
      vertex 91 18.3962 12
      vertex 91 26.8738 12
    endloop
  endfacet
  facet normal 0 0 1
    outer loop
      vertex 85 26.8738 12
      vertex 85 18.3962 12
      vertex 91 18.3962 12
    endloop
  endfacet
  facet normal 0 0 1
    outer loop
      vertex 74 26.8738 12
      vertex 85 26.8738 12
      vertex 83.1836 30.02 12
    endloop
  endfacet
  facet normal 0 0 1
    outer loop
      vertex 85 26.8738 12
      vertex 74 26.8738 12
      vertex 85 18.3962 12
    endloop
  endfacet
  facet normal 0 0 1
    outer loop
      vertex 74 26.8738 12
      vertex 83.1836 30.02 12
      vertex 75.8164 30.02 12
    endloop
  endfacet
  facet normal 0 0 1
    outer loop
      vertex 74 18.3962 12
      vertex 85 18.3962 12
      vertex 74 26.8738 12
    endloop
  endfacet
  facet normal 0 0 1
    outer loop
      vertex 85 18.3962 12
      vertex 74 18.3962 12
      vertex 83.1836 15.25 12
    endloop
  endfacet
  facet normal 0 0 1
    outer loop
      vertex 83.1836 15.25 12
      vertex 74 18.3962 12
      vertex 75.8164 15.25 12
    endloop
  endfacet
  facet normal -0 0 1
    outer loop
      vertex 68 26.8738 12
      vertex 74 18.3962 12
      vertex 74 26.8738 12
    endloop
  endfacet
  facet normal 0 0 1
    outer loop
      vertex 68 26.8738 12
      vertex 68 18.3962 12
      vertex 74 18.3962 12
    endloop
  endfacet
  facet normal 0 0 1
    outer loop
      vertex 57 26.8738 12
      vertex 68 26.8738 12
      vertex 66.1836 30.02 12
    endloop
  endfacet
  facet normal 0 0 1
    outer loop
      vertex 68 26.8738 12
      vertex 57 26.8738 12
      vertex 68 18.3962 12
    endloop
  endfacet
  facet normal 0 0 1
    outer loop
      vertex 57 26.8738 12
      vertex 66.1836 30.02 12
      vertex 58.8164 30.02 12
    endloop
  endfacet
  facet normal 0 0 1
    outer loop
      vertex 57 18.3962 12
      vertex 68 18.3962 12
      vertex 57 26.8738 12
    endloop
  endfacet
  facet normal 0 0 1
    outer loop
      vertex 68 18.3962 12
      vertex 57 18.3962 12
      vertex 66.1836 15.25 12
    endloop
  endfacet
  facet normal 0 0 1
    outer loop
      vertex 66.1836 15.25 12
      vertex 57 18.3962 12
      vertex 58.8164 15.25 12
    endloop
  endfacet
  facet normal -0 0 1
    outer loop
      vertex 51 26.8738 12
      vertex 57 18.3962 12
      vertex 57 26.8738 12
    endloop
  endfacet
  facet normal 0 0 1
    outer loop
      vertex 51 26.8738 12
      vertex 51 18.3962 12
      vertex 57 18.3962 12
    endloop
  endfacet
  facet normal -0 0 1
    outer loop
      vertex 36.2 32.07 12
      vertex 51 26.8738 12
      vertex 48 32.07 12
    endloop
  endfacet
  facet normal 0 0 1
    outer loop
      vertex 33.2 26.8738 12
      vertex 51 26.8738 12
      vertex 36.2 32.07 12
    endloop
  endfacet
  facet normal 0 0 1
    outer loop
      vertex 129.2 39.27 12
      vertex 128 32.07 12
      vertex 129.2 6 12
    endloop
  endfacet
  facet normal 0 0 1
    outer loop
      vertex 129.2 39.27 12
      vertex 125 37.2662 12
      vertex 128 32.07 12
    endloop
  endfacet
  facet normal 0 0 1
    outer loop
      vertex 129.2 39.27 12
      vertex 119 37.2662 12
      vertex 125 37.2662 12
    endloop
  endfacet
  facet normal 0 0 1
    outer loop
      vertex 119 37.2662 12
      vertex 109.816 34.12 12
      vertex 117.184 34.12 12
    endloop
  endfacet
  facet normal 0 0 1
    outer loop
      vertex 119 37.2662 12
      vertex 108 37.2662 12
      vertex 109.816 34.12 12
    endloop
  endfacet
  facet normal 0 0 1
    outer loop
      vertex 129.2 39.27 12
      vertex 108 37.2662 12
      vertex 119 37.2662 12
    endloop
  endfacet
  facet normal 0 0 1
    outer loop
      vertex 129.2 39.27 12
      vertex 102 37.2662 12
      vertex 108 37.2662 12
    endloop
  endfacet
  facet normal 0 0 1
    outer loop
      vertex 102 37.2662 12
      vertex 92.8164 34.12 12
      vertex 100.184 34.12 12
    endloop
  endfacet
  facet normal 0 0 1
    outer loop
      vertex 102 37.2662 12
      vertex 91 37.2662 12
      vertex 92.8164 34.12 12
    endloop
  endfacet
  facet normal 0 0 1
    outer loop
      vertex 129.2 39.27 12
      vertex 91 37.2662 12
      vertex 102 37.2662 12
    endloop
  endfacet
  facet normal 0 0 1
    outer loop
      vertex 129.2 39.27 12
      vertex 85 37.2662 12
      vertex 91 37.2662 12
    endloop
  endfacet
  facet normal 0 0 1
    outer loop
      vertex 85 37.2662 12
      vertex 75.8164 34.12 12
      vertex 83.1836 34.12 12
    endloop
  endfacet
  facet normal 0 0 1
    outer loop
      vertex 85 37.2662 12
      vertex 74 37.2662 12
      vertex 75.8164 34.12 12
    endloop
  endfacet
  facet normal 0 0 1
    outer loop
      vertex 129.2 39.27 12
      vertex 74 37.2662 12
      vertex 85 37.2662 12
    endloop
  endfacet
  facet normal 0 0 1
    outer loop
      vertex 129.2 39.27 12
      vertex 68 37.2662 12
      vertex 74 37.2662 12
    endloop
  endfacet
  facet normal 0 0 1
    outer loop
      vertex 68 37.2662 12
      vertex 58.8164 34.12 12
      vertex 66.1836 34.12 12
    endloop
  endfacet
  facet normal 0 0 1
    outer loop
      vertex 68 37.2662 12
      vertex 57 37.2662 12
      vertex 58.8164 34.12 12
    endloop
  endfacet
  facet normal 0 0 1
    outer loop
      vertex 129.2 39.27 12
      vertex 57 37.2662 12
      vertex 68 37.2662 12
    endloop
  endfacet
  facet normal -0 0 1
    outer loop
      vertex 6 39.27 12
      vertex 57 37.2662 12
      vertex 129.2 39.27 12
    endloop
  endfacet
  facet normal 0 0 1
    outer loop
      vertex 51 26.8738 12
      vertex 33.2 26.8738 12
      vertex 51 18.3962 12
    endloop
  endfacet
  facet normal 0 0 1
    outer loop
      vertex 51 37.2662 12
      vertex 36.2 32.07 12
      vertex 48 32.07 12
    endloop
  endfacet
  facet normal 0 0 1
    outer loop
      vertex 51 37.2662 12
      vertex 33.2 37.2662 12
      vertex 36.2 32.07 12
    endloop
  endfacet
  facet normal 0 0 1
    outer loop
      vertex 57 37.2662 12
      vertex 6 39.27 12
      vertex 51 37.2662 12
    endloop
  endfacet
  facet normal 0 0 1
    outer loop
      vertex 51 37.2662 12
      vertex 6 39.27 12
      vertex 33.2 37.2662 12
    endloop
  endfacet
  facet normal 0 0 1
    outer loop
      vertex 27.2 37.2662 12
      vertex 18.0164 34.12 12
      vertex 25.3836 34.12 12
    endloop
  endfacet
  facet normal 0 0 1
    outer loop
      vertex 27.2 37.2662 12
      vertex 16.2 37.2662 12
      vertex 18.0164 34.12 12
    endloop
  endfacet
  facet normal 0 0 1
    outer loop
      vertex 33.2 37.2662 12
      vertex 6 39.27 12
      vertex 27.2 37.2662 12
    endloop
  endfacet
  facet normal 0 0 1
    outer loop
      vertex 27.2 37.2662 12
      vertex 6 39.27 12
      vertex 16.2 37.2662 12
    endloop
  endfacet
  facet normal 0 0 1
    outer loop
      vertex 7.2 32.07 12
      vertex 6 39.27 12
      vertex 7.2 13.2 12
    endloop
  endfacet
  facet normal 0 0 1
    outer loop
      vertex 10.2 37.2662 12
      vertex 6 39.27 12
      vertex 7.2 32.07 12
    endloop
  endfacet
  facet normal 0 0 1
    outer loop
      vertex 16.2 37.2662 12
      vertex 6 39.27 12
      vertex 10.2 37.2662 12
    endloop
  endfacet
  facet normal -0 0 1
    outer loop
      vertex 128 13.2 12
      vertex 129.2 6 12
      vertex 128 32.07 12
    endloop
  endfacet
  facet normal -0 0 1
    outer loop
      vertex 125 8.00385 12
      vertex 129.2 6 12
      vertex 128 13.2 12
    endloop
  endfacet
  facet normal -0 0 1
    outer loop
      vertex 119 8.00385 12
      vertex 129.2 6 12
      vertex 125 8.00385 12
    endloop
  endfacet
  facet normal -0 0 1
    outer loop
      vertex 109.816 11.15 12
      vertex 119 8.00385 12
      vertex 117.184 11.15 12
    endloop
  endfacet
  facet normal 0 0 1
    outer loop
      vertex 108 8.00385 12
      vertex 119 8.00385 12
      vertex 109.816 11.15 12
    endloop
  endfacet
  facet normal -0 0 1
    outer loop
      vertex 108 8.00385 12
      vertex 129.2 6 12
      vertex 119 8.00385 12
    endloop
  endfacet
  facet normal -0 0 1
    outer loop
      vertex 102 8.00385 12
      vertex 129.2 6 12
      vertex 108 8.00385 12
    endloop
  endfacet
  facet normal -0 0 1
    outer loop
      vertex 92.8164 11.15 12
      vertex 102 8.00385 12
      vertex 100.184 11.15 12
    endloop
  endfacet
  facet normal 0 0 1
    outer loop
      vertex 91 8.00385 12
      vertex 102 8.00385 12
      vertex 92.8164 11.15 12
    endloop
  endfacet
  facet normal -0 0 1
    outer loop
      vertex 91 8.00385 12
      vertex 129.2 6 12
      vertex 102 8.00385 12
    endloop
  endfacet
  facet normal -0 0 1
    outer loop
      vertex 85 8.00385 12
      vertex 129.2 6 12
      vertex 91 8.00385 12
    endloop
  endfacet
  facet normal -0 0 1
    outer loop
      vertex 75.8164 11.15 12
      vertex 85 8.00385 12
      vertex 83.1836 11.15 12
    endloop
  endfacet
  facet normal 0 0 1
    outer loop
      vertex 74 8.00385 12
      vertex 85 8.00385 12
      vertex 75.8164 11.15 12
    endloop
  endfacet
  facet normal -0 0 1
    outer loop
      vertex 74 8.00385 12
      vertex 129.2 6 12
      vertex 85 8.00385 12
    endloop
  endfacet
  facet normal -0 0 1
    outer loop
      vertex 68 8.00385 12
      vertex 129.2 6 12
      vertex 74 8.00385 12
    endloop
  endfacet
  facet normal -0 0 1
    outer loop
      vertex 58.8164 11.15 12
      vertex 68 8.00385 12
      vertex 66.1836 11.15 12
    endloop
  endfacet
  facet normal 0 0 1
    outer loop
      vertex 57 8.00385 12
      vertex 68 8.00385 12
      vertex 58.8164 11.15 12
    endloop
  endfacet
  facet normal -0 0 1
    outer loop
      vertex 57 8.00385 12
      vertex 129.2 6 12
      vertex 68 8.00385 12
    endloop
  endfacet
  facet normal 0 0 1
    outer loop
      vertex 6 6 12
      vertex 57 8.00385 12
      vertex 51 8.00385 12
    endloop
  endfacet
  facet normal 0 0 1
    outer loop
      vertex 51 18.3962 12
      vertex 36.2 13.2 12
      vertex 48 13.2 12
    endloop
  endfacet
  facet normal 0 0 1
    outer loop
      vertex 48 13.2 12
      vertex 36.2 13.2 12
      vertex 51 8.00385 12
    endloop
  endfacet
  facet normal 0 0 1
    outer loop
      vertex 33.2 8.00385 12
      vertex 51 8.00385 12
      vertex 36.2 13.2 12
    endloop
  endfacet
  facet normal 0 0 1
    outer loop
      vertex 6 6 12
      vertex 51 8.00385 12
      vertex 33.2 8.00385 12
    endloop
  endfacet
  facet normal 0 0 1
    outer loop
      vertex 6 6 12
      vertex 33.2 8.00385 12
      vertex 27.2 8.00385 12
    endloop
  endfacet
  facet normal -0 0 1
    outer loop
      vertex 18.0164 11.15 12
      vertex 27.2 8.00385 12
      vertex 25.3836 11.15 12
    endloop
  endfacet
  facet normal 0 0 1
    outer loop
      vertex 16.2 8.00385 12
      vertex 27.2 8.00385 12
      vertex 18.0164 11.15 12
    endloop
  endfacet
  facet normal 0 0 1
    outer loop
      vertex 6 6 12
      vertex 27.2 8.00385 12
      vertex 16.2 8.00385 12
    endloop
  endfacet
  facet normal 0 0 1
    outer loop
      vertex 6 6 12
      vertex 16.2 8.00385 12
      vertex 10.2 8.00385 12
    endloop
  endfacet
  facet normal 0 0 1
    outer loop
      vertex 57 8.00385 12
      vertex 6 6 12
      vertex 129.2 6 12
    endloop
  endfacet
  facet normal 0 0 1
    outer loop
      vertex 7.2 13.2 12
      vertex 6 6 12
      vertex 10.2 8.00385 12
    endloop
  endfacet
  facet normal 0 0 1
    outer loop
      vertex 6 6 12
      vertex 7.2 13.2 12
      vertex 6 39.27 12
    endloop
  endfacet
  facet normal 0.894427 0 0.447214
    outer loop
      vertex 135.2 5.408 0
      vertex 129.2 39.27 12
      vertex 129.2 6 12
    endloop
  endfacet
  facet normal 0.894427 2.18358e-14 0.447214
    outer loop
      vertex 135.2 5.408 0
      vertex 129.2 6 12
      vertex 129.792 5.408 10.816
    endloop
  endfacet
  facet normal 0.894427 0 0.447214
    outer loop
      vertex 129.2 39.27 12
      vertex 135.2 5.408 0
      vertex 135.2 45.27 0
    endloop
  endfacet
  facet normal 0 0 -1
    outer loop
      vertex 1.25 5.408 0
      vertex 0 5.408 0
      vertex 1.25 44.02 0
    endloop
  endfacet
  facet normal 0 0 -1
    outer loop
      vertex 1.25 44.02 0
      vertex 27.04 45.27 0
      vertex 27.04 44.02 0
    endloop
  endfacet
  facet normal 0 0 -1
    outer loop
      vertex 1.25 44.02 0
      vertex 0 45.27 0
      vertex 27.04 45.27 0
    endloop
  endfacet
  facet normal 0 0 -1
    outer loop
      vertex 0 45.27 0
      vertex 1.25 44.02 0
      vertex 0 5.408 0
    endloop
  endfacet
  facet normal 0 0 -1
    outer loop
      vertex 133.95 44.02 0
      vertex 135.2 5.408 0
      vertex 133.95 5.408 0
    endloop
  endfacet
  facet normal 0 0 -1
    outer loop
      vertex 135.2 5.408 0
      vertex 133.95 44.02 0
      vertex 135.2 45.27 0
    endloop
  endfacet
  facet normal 0 0 -1
    outer loop
      vertex 108.16 45.27 0
      vertex 133.95 44.02 0
      vertex 108.16 44.02 0
    endloop
  endfacet
  facet normal 0 0 -1
    outer loop
      vertex 133.95 44.02 0
      vertex 108.16 45.27 0
      vertex 135.2 45.27 0
    endloop
  endfacet
  facet normal 0 0 -1
    outer loop
      vertex 27.04 0 0
      vertex 54.08 1.25 0
      vertex 54.08 0 0
    endloop
  endfacet
  facet normal -0 0 -1
    outer loop
      vertex 54.08 1.25 0
      vertex 27.04 0 0
      vertex 27.04 1.25 0
    endloop
  endfacet
  facet normal 0 0 -1
    outer loop
      vertex 81.12 0 0
      vertex 108.16 1.25 0
      vertex 108.16 0 0
    endloop
  endfacet
  facet normal -0 0 -1
    outer loop
      vertex 108.16 1.25 0
      vertex 81.12 0 0
      vertex 81.12 1.25 0
    endloop
  endfacet
  facet normal 0 0 -1
    outer loop
      vertex 54.08 44.02 0
      vertex 81.12 45.27 0
      vertex 81.12 44.02 0
    endloop
  endfacet
  facet normal -0 0 -1
    outer loop
      vertex 81.12 45.27 0
      vertex 54.08 44.02 0
      vertex 54.08 45.27 0
    endloop
  endfacet
  facet normal 1.25665e-06 -0.894426 -0.447215
    outer loop
      vertex 5.15658 40.1134 7.81317
      vertex 1.25 44.02 0
      vertex 6.07813 42.7266 2.5868
    endloop
  endfacet
  facet normal 0 -0.894427 -0.447214
    outer loop
      vertex 54.08 44.02 0
      vertex 81.12 39.862 8.316
      vertex 54.08 39.862 8.316
    endloop
  endfacet
  facet normal 0 -0.894427 -0.447214
    outer loop
      vertex 81.12 39.862 8.316
      vertex 54.08 44.02 0
      vertex 81.12 44.02 0
    endloop
  endfacet
  facet normal -3.78053e-08 -0.894427 -0.447214
    outer loop
      vertex 6 39.27 9.5
      vertex 7.16142 42.6311 2.77781
      vertex 27.04 39.862 8.316
    endloop
  endfacet
  facet normal 6.15333e-06 -0.894423 -0.447223
    outer loop
      vertex 1.25 44.02 0
      vertex 7.16142 42.6311 2.77781
      vertex 6.07813 42.7266 2.5868
    endloop
  endfacet
  facet normal -0 -0.894428 -0.447212
    outer loop
      vertex 27.04 44.02 0
      vertex 7.16142 42.6311 2.77781
      vertex 1.25 44.02 0
    endloop
  endfacet
  facet normal -2.24973e-07 -0.894427 -0.447214
    outer loop
      vertex 7.16142 42.6311 2.77781
      vertex 27.04 44.02 0
      vertex 27.04 39.862 8.316
    endloop
  endfacet
  facet normal -0.00169344 -0.894309 -0.447448
    outer loop
      vertex 7.16142 42.6311 2.77781
      vertex 6 39.27 9.5
      vertex 5.98235 39.2877 9.46469
    endloop
  endfacet
  facet normal 0 -0.894427 -0.447214
    outer loop
      vertex 6 39.27 9.5
      vertex 27.04 39.862 8.316
      vertex 54.08 39.862 8.316
    endloop
  endfacet
  facet normal 0 -0.894427 -0.447214
    outer loop
      vertex 6 39.27 9.5
      vertex 54.08 39.862 8.316
      vertex 129.2 39.27 9.5
    endloop
  endfacet
  facet normal -0 -0.894427 -0.447214
    outer loop
      vertex 81.12 39.862 8.316
      vertex 129.2 39.27 9.5
      vertex 54.08 39.862 8.316
    endloop
  endfacet
  facet normal -0 -0.894427 -0.447214
    outer loop
      vertex 108.16 39.862 8.316
      vertex 129.2 39.27 9.5
      vertex 81.12 39.862 8.316
    endloop
  endfacet
  facet normal 3.63224e-17 -0.894427 -0.447214
    outer loop
      vertex 108.16 44.02 0
      vertex 129.2 39.27 9.5
      vertex 108.16 39.862 8.316
    endloop
  endfacet
  facet normal 0 -0.894427 -0.447214
    outer loop
      vertex 129.2 39.27 9.5
      vertex 108.16 44.02 0
      vertex 133.95 44.02 0
    endloop
  endfacet
  facet normal 0 0.894427 -0.447214
    outer loop
      vertex 54.08 1.25 0
      vertex 27.04 5.408 8.316
      vertex 54.08 5.408 8.316
    endloop
  endfacet
  facet normal 0 0.894427 -0.447214
    outer loop
      vertex 27.04 5.408 8.316
      vertex 54.08 1.25 0
      vertex 27.04 1.25 0
    endloop
  endfacet
  facet normal 0 0.894427 -0.447214
    outer loop
      vertex 108.16 1.25 0
      vertex 81.12 5.408 8.316
      vertex 108.16 5.408 8.316
    endloop
  endfacet
  facet normal 0 0.894427 -0.447214
    outer loop
      vertex 81.12 5.408 8.316
      vertex 108.16 1.25 0
      vertex 81.12 1.25 0
    endloop
  endfacet
  facet normal 0 0.894427 -0.447214
    outer loop
      vertex 81.12 5.408 8.316
      vertex 6 6 9.5
      vertex 129.2 6 9.5
    endloop
  endfacet
  facet normal 0 0.894427 -0.447214
    outer loop
      vertex 108.16 5.408 8.316
      vertex 129.2 6 9.5
      vertex 129.792 5.408 8.316
    endloop
  endfacet
  facet normal 0 0.894427 -0.447214
    outer loop
      vertex 81.12 5.408 8.316
      vertex 129.2 6 9.5
      vertex 108.16 5.408 8.316
    endloop
  endfacet
  facet normal 0 0.894427 -0.447214
    outer loop
      vertex 54.08 5.408 8.316
      vertex 6 6 9.5
      vertex 81.12 5.408 8.316
    endloop
  endfacet
  facet normal 0 0.894427 -0.447214
    outer loop
      vertex 27.04 5.408 8.316
      vertex 6 6 9.5
      vertex 54.08 5.408 8.316
    endloop
  endfacet
  facet normal 0 0.894427 -0.447214
    outer loop
      vertex 6.18489 5.408 8.316
      vertex 6 6 9.5
      vertex 27.04 5.408 8.316
    endloop
  endfacet
  facet normal 0.000193067 0.894439 -0.447189
    outer loop
      vertex 6 6 9.5
      vertex 6.18489 5.408 8.316
      vertex 5.98235 5.98235 9.46469
    endloop
  endfacet
  facet normal 0.894478 0 -0.447112
    outer loop
      vertex 6 6 9.5
      vertex 5.98235 39.2877 9.46469
      vertex 6 39.27 9.5
    endloop
  endfacet
  facet normal 0.894478 0 -0.447112
    outer loop
      vertex 5.98235 39.2877 9.46469
      vertex 6 6 9.5
      vertex 5.98235 5.98235 9.46469
    endloop
  endfacet
  facet normal 0.894427 0 -0.447213
    outer loop
      vertex 1.25 5.408 0
      vertex 5.15658 40.1134 7.81317
      vertex 5.15658 5.408 7.81317
    endloop
  endfacet
  facet normal 0.894427 0 -0.447213
    outer loop
      vertex 5.15658 40.1134 7.81317
      vertex 1.25 5.408 0
      vertex 1.25 44.02 0
    endloop
  endfacet
  facet normal 0 0 -1
    outer loop
      vertex 33.2 26.8738 9.5
      vertex 51 26.8738 9.5
      vertex 33.2 18.3962 9.5
    endloop
  endfacet
  facet normal 0 0 -1
    outer loop
      vertex 51 26.8738 9.5
      vertex 33.2 26.8738 9.5
      vertex 36.2 32.07 9.5
    endloop
  endfacet
  facet normal 0 0 -1
    outer loop
      vertex 27.2 18.3962 9.5
      vertex 33.2 26.8738 9.5
      vertex 33.2 18.3962 9.5
    endloop
  endfacet
  facet normal 0 0 -1
    outer loop
      vertex 27.2 18.3962 9.5
      vertex 27.2 26.8738 9.5
      vertex 33.2 26.8738 9.5
    endloop
  endfacet
  facet normal 0 0 -1
    outer loop
      vertex 16.2 18.3962 9.5
      vertex 27.2 18.3962 9.5
      vertex 25.3836 15.25 9.5
    endloop
  endfacet
  facet normal 0 0 -1
    outer loop
      vertex 27.2 18.3962 9.5
      vertex 16.2 18.3962 9.5
      vertex 27.2 26.8738 9.5
    endloop
  endfacet
  facet normal 0 0 -1
    outer loop
      vertex 16.2 18.3962 9.5
      vertex 25.3836 15.25 9.5
      vertex 18.0164 15.25 9.5
    endloop
  endfacet
  facet normal 0 0 -1
    outer loop
      vertex 16.2 26.8738 9.5
      vertex 27.2 26.8738 9.5
      vertex 16.2 18.3962 9.5
    endloop
  endfacet
  facet normal 0 0 -1
    outer loop
      vertex 27.2 26.8738 9.5
      vertex 16.2 26.8738 9.5
      vertex 25.3836 30.02 9.5
    endloop
  endfacet
  facet normal -0 0 -1
    outer loop
      vertex 25.3836 30.02 9.5
      vertex 16.2 26.8738 9.5
      vertex 18.0164 30.02 9.5
    endloop
  endfacet
  facet normal 0 0 -1
    outer loop
      vertex 10.2 18.3962 9.5
      vertex 16.2 26.8738 9.5
      vertex 16.2 18.3962 9.5
    endloop
  endfacet
  facet normal 0 0 -1
    outer loop
      vertex 10.2 18.3962 9.5
      vertex 10.2 26.8738 9.5
      vertex 16.2 26.8738 9.5
    endloop
  endfacet
  facet normal 0 0 -1
    outer loop
      vertex 7.2 13.2 9.5
      vertex 10.2 26.8738 9.5
      vertex 10.2 18.3962 9.5
    endloop
  endfacet
  facet normal -0 0 -1
    outer loop
      vertex 10.2 26.8738 9.5
      vertex 7.2 13.2 9.5
      vertex 7.2 32.07 9.5
    endloop
  endfacet
  facet normal 0 0 -1
    outer loop
      vertex 125 18.3962 9.5
      vertex 128 32.07 9.5
      vertex 128 13.2 9.5
    endloop
  endfacet
  facet normal 0 0 -1
    outer loop
      vertex 125 18.3962 9.5
      vertex 125 26.8738 9.5
      vertex 128 32.07 9.5
    endloop
  endfacet
  facet normal 0 0 -1
    outer loop
      vertex 119 18.3962 9.5
      vertex 125 26.8738 9.5
      vertex 125 18.3962 9.5
    endloop
  endfacet
  facet normal 0 0 -1
    outer loop
      vertex 119 18.3962 9.5
      vertex 119 26.8738 9.5
      vertex 125 26.8738 9.5
    endloop
  endfacet
  facet normal 0 0 -1
    outer loop
      vertex 108 18.3962 9.5
      vertex 119 18.3962 9.5
      vertex 117.184 15.25 9.5
    endloop
  endfacet
  facet normal 0 0 -1
    outer loop
      vertex 119 18.3962 9.5
      vertex 108 18.3962 9.5
      vertex 119 26.8738 9.5
    endloop
  endfacet
  facet normal 0 0 -1
    outer loop
      vertex 108 18.3962 9.5
      vertex 117.184 15.25 9.5
      vertex 109.816 15.25 9.5
    endloop
  endfacet
  facet normal 0 0 -1
    outer loop
      vertex 108 26.8738 9.5
      vertex 119 26.8738 9.5
      vertex 108 18.3962 9.5
    endloop
  endfacet
  facet normal 0 0 -1
    outer loop
      vertex 119 26.8738 9.5
      vertex 108 26.8738 9.5
      vertex 117.184 30.02 9.5
    endloop
  endfacet
  facet normal -0 0 -1
    outer loop
      vertex 117.184 30.02 9.5
      vertex 108 26.8738 9.5
      vertex 109.816 30.02 9.5
    endloop
  endfacet
  facet normal 0 0 -1
    outer loop
      vertex 102 18.3962 9.5
      vertex 108 26.8738 9.5
      vertex 108 18.3962 9.5
    endloop
  endfacet
  facet normal 0 0 -1
    outer loop
      vertex 102 18.3962 9.5
      vertex 102 26.8738 9.5
      vertex 108 26.8738 9.5
    endloop
  endfacet
  facet normal 0 0 -1
    outer loop
      vertex 91 18.3962 9.5
      vertex 102 18.3962 9.5
      vertex 100.184 15.25 9.5
    endloop
  endfacet
  facet normal 0 0 -1
    outer loop
      vertex 102 18.3962 9.5
      vertex 91 18.3962 9.5
      vertex 102 26.8738 9.5
    endloop
  endfacet
  facet normal 0 0 -1
    outer loop
      vertex 91 18.3962 9.5
      vertex 100.184 15.25 9.5
      vertex 92.8164 15.25 9.5
    endloop
  endfacet
  facet normal 0 0 -1
    outer loop
      vertex 91 26.8738 9.5
      vertex 102 26.8738 9.5
      vertex 91 18.3962 9.5
    endloop
  endfacet
  facet normal 0 0 -1
    outer loop
      vertex 102 26.8738 9.5
      vertex 91 26.8738 9.5
      vertex 100.184 30.02 9.5
    endloop
  endfacet
  facet normal -0 0 -1
    outer loop
      vertex 100.184 30.02 9.5
      vertex 91 26.8738 9.5
      vertex 92.8164 30.02 9.5
    endloop
  endfacet
  facet normal 0 0 -1
    outer loop
      vertex 85 18.3962 9.5
      vertex 91 26.8738 9.5
      vertex 91 18.3962 9.5
    endloop
  endfacet
  facet normal 0 0 -1
    outer loop
      vertex 85 18.3962 9.5
      vertex 85 26.8738 9.5
      vertex 91 26.8738 9.5
    endloop
  endfacet
  facet normal 0 0 -1
    outer loop
      vertex 74 18.3962 9.5
      vertex 85 18.3962 9.5
      vertex 83.1836 15.25 9.5
    endloop
  endfacet
  facet normal 0 0 -1
    outer loop
      vertex 85 18.3962 9.5
      vertex 74 18.3962 9.5
      vertex 85 26.8738 9.5
    endloop
  endfacet
  facet normal 0 0 -1
    outer loop
      vertex 74 18.3962 9.5
      vertex 83.1836 15.25 9.5
      vertex 75.8164 15.25 9.5
    endloop
  endfacet
  facet normal 0 0 -1
    outer loop
      vertex 74 26.8738 9.5
      vertex 85 26.8738 9.5
      vertex 74 18.3962 9.5
    endloop
  endfacet
  facet normal 0 0 -1
    outer loop
      vertex 85 26.8738 9.5
      vertex 74 26.8738 9.5
      vertex 83.1836 30.02 9.5
    endloop
  endfacet
  facet normal -0 0 -1
    outer loop
      vertex 83.1836 30.02 9.5
      vertex 74 26.8738 9.5
      vertex 75.8164 30.02 9.5
    endloop
  endfacet
  facet normal 0 0 -1
    outer loop
      vertex 68 18.3962 9.5
      vertex 74 26.8738 9.5
      vertex 74 18.3962 9.5
    endloop
  endfacet
  facet normal 0 0 -1
    outer loop
      vertex 68 18.3962 9.5
      vertex 68 26.8738 9.5
      vertex 74 26.8738 9.5
    endloop
  endfacet
  facet normal 0 0 -1
    outer loop
      vertex 57 18.3962 9.5
      vertex 68 18.3962 9.5
      vertex 66.1836 15.25 9.5
    endloop
  endfacet
  facet normal 0 0 -1
    outer loop
      vertex 68 18.3962 9.5
      vertex 57 18.3962 9.5
      vertex 68 26.8738 9.5
    endloop
  endfacet
  facet normal 0 0 -1
    outer loop
      vertex 57 18.3962 9.5
      vertex 66.1836 15.25 9.5
      vertex 58.8164 15.25 9.5
    endloop
  endfacet
  facet normal 0 0 -1
    outer loop
      vertex 57 26.8738 9.5
      vertex 68 26.8738 9.5
      vertex 57 18.3962 9.5
    endloop
  endfacet
  facet normal 0 0 -1
    outer loop
      vertex 68 26.8738 9.5
      vertex 57 26.8738 9.5
      vertex 66.1836 30.02 9.5
    endloop
  endfacet
  facet normal -0 0 -1
    outer loop
      vertex 66.1836 30.02 9.5
      vertex 57 26.8738 9.5
      vertex 58.8164 30.02 9.5
    endloop
  endfacet
  facet normal 0 0 -1
    outer loop
      vertex 51 18.3962 9.5
      vertex 57 26.8738 9.5
      vertex 57 18.3962 9.5
    endloop
  endfacet
  facet normal 0 0 -1
    outer loop
      vertex 51 18.3962 9.5
      vertex 51 26.8738 9.5
      vertex 57 26.8738 9.5
    endloop
  endfacet
  facet normal 0 0 -1
    outer loop
      vertex 36.2 13.2 9.5
      vertex 51 18.3962 9.5
      vertex 48 13.2 9.5
    endloop
  endfacet
  facet normal 0 0 -1
    outer loop
      vertex 33.2 18.3962 9.5
      vertex 51 18.3962 9.5
      vertex 36.2 13.2 9.5
    endloop
  endfacet
  facet normal 0 0 -1
    outer loop
      vertex 129.2 6 9.5
      vertex 128 13.2 9.5
      vertex 129.2 39.27 9.5
    endloop
  endfacet
  facet normal 0 0 -1
    outer loop
      vertex 129.2 6 9.5
      vertex 125 8.00385 9.5
      vertex 128 13.2 9.5
    endloop
  endfacet
  facet normal 0 0 -1
    outer loop
      vertex 129.2 6 9.5
      vertex 119 8.00385 9.5
      vertex 125 8.00385 9.5
    endloop
  endfacet
  facet normal 0 0 -1
    outer loop
      vertex 119 8.00385 9.5
      vertex 109.816 11.15 9.5
      vertex 117.184 11.15 9.5
    endloop
  endfacet
  facet normal 0 0 -1
    outer loop
      vertex 119 8.00385 9.5
      vertex 108 8.00385 9.5
      vertex 109.816 11.15 9.5
    endloop
  endfacet
  facet normal 0 0 -1
    outer loop
      vertex 129.2 6 9.5
      vertex 108 8.00385 9.5
      vertex 119 8.00385 9.5
    endloop
  endfacet
  facet normal 0 0 -1
    outer loop
      vertex 129.2 6 9.5
      vertex 102 8.00385 9.5
      vertex 108 8.00385 9.5
    endloop
  endfacet
  facet normal 0 0 -1
    outer loop
      vertex 102 8.00385 9.5
      vertex 92.8164 11.15 9.5
      vertex 100.184 11.15 9.5
    endloop
  endfacet
  facet normal 0 0 -1
    outer loop
      vertex 102 8.00385 9.5
      vertex 91 8.00385 9.5
      vertex 92.8164 11.15 9.5
    endloop
  endfacet
  facet normal 0 0 -1
    outer loop
      vertex 129.2 6 9.5
      vertex 91 8.00385 9.5
      vertex 102 8.00385 9.5
    endloop
  endfacet
  facet normal 0 0 -1
    outer loop
      vertex 129.2 6 9.5
      vertex 85 8.00385 9.5
      vertex 91 8.00385 9.5
    endloop
  endfacet
  facet normal 0 0 -1
    outer loop
      vertex 85 8.00385 9.5
      vertex 75.8164 11.15 9.5
      vertex 83.1836 11.15 9.5
    endloop
  endfacet
  facet normal 0 0 -1
    outer loop
      vertex 85 8.00385 9.5
      vertex 74 8.00385 9.5
      vertex 75.8164 11.15 9.5
    endloop
  endfacet
  facet normal 0 0 -1
    outer loop
      vertex 129.2 6 9.5
      vertex 74 8.00385 9.5
      vertex 85 8.00385 9.5
    endloop
  endfacet
  facet normal 0 0 -1
    outer loop
      vertex 129.2 6 9.5
      vertex 68 8.00385 9.5
      vertex 74 8.00385 9.5
    endloop
  endfacet
  facet normal 0 0 -1
    outer loop
      vertex 68 8.00385 9.5
      vertex 58.8164 11.15 9.5
      vertex 66.1836 11.15 9.5
    endloop
  endfacet
  facet normal 0 0 -1
    outer loop
      vertex 68 8.00385 9.5
      vertex 57 8.00385 9.5
      vertex 58.8164 11.15 9.5
    endloop
  endfacet
  facet normal 0 0 -1
    outer loop
      vertex 129.2 6 9.5
      vertex 57 8.00385 9.5
      vertex 68 8.00385 9.5
    endloop
  endfacet
  facet normal 0 0 -1
    outer loop
      vertex 6 6 9.5
      vertex 57 8.00385 9.5
      vertex 129.2 6 9.5
    endloop
  endfacet
  facet normal 0 0 -1
    outer loop
      vertex 51 18.3962 9.5
      vertex 33.2 18.3962 9.5
      vertex 51 26.8738 9.5
    endloop
  endfacet
  facet normal 0 0 -1
    outer loop
      vertex 51 8.00385 9.5
      vertex 36.2 13.2 9.5
      vertex 48 13.2 9.5
    endloop
  endfacet
  facet normal 0 0 -1
    outer loop
      vertex 51 8.00385 9.5
      vertex 33.2 8.00385 9.5
      vertex 36.2 13.2 9.5
    endloop
  endfacet
  facet normal -0 0 -1
    outer loop
      vertex 57 8.00385 9.5
      vertex 6 6 9.5
      vertex 51 8.00385 9.5
    endloop
  endfacet
  facet normal -0 0 -1
    outer loop
      vertex 51 8.00385 9.5
      vertex 6 6 9.5
      vertex 33.2 8.00385 9.5
    endloop
  endfacet
  facet normal 0 0 -1
    outer loop
      vertex 27.2 8.00385 9.5
      vertex 18.0164 11.15 9.5
      vertex 25.3836 11.15 9.5
    endloop
  endfacet
  facet normal 0 0 -1
    outer loop
      vertex 27.2 8.00385 9.5
      vertex 16.2 8.00385 9.5
      vertex 18.0164 11.15 9.5
    endloop
  endfacet
  facet normal -0 0 -1
    outer loop
      vertex 33.2 8.00385 9.5
      vertex 6 6 9.5
      vertex 27.2 8.00385 9.5
    endloop
  endfacet
  facet normal -0 0 -1
    outer loop
      vertex 27.2 8.00385 9.5
      vertex 6 6 9.5
      vertex 16.2 8.00385 9.5
    endloop
  endfacet
  facet normal -0 0 -1
    outer loop
      vertex 7.2 13.2 9.5
      vertex 6 6 9.5
      vertex 7.2 32.07 9.5
    endloop
  endfacet
  facet normal -0 0 -1
    outer loop
      vertex 10.2 8.00385 9.5
      vertex 6 6 9.5
      vertex 7.2 13.2 9.5
    endloop
  endfacet
  facet normal -0 0 -1
    outer loop
      vertex 16.2 8.00385 9.5
      vertex 6 6 9.5
      vertex 10.2 8.00385 9.5
    endloop
  endfacet
  facet normal 0 0 -1
    outer loop
      vertex 128 32.07 9.5
      vertex 129.2 39.27 9.5
      vertex 128 13.2 9.5
    endloop
  endfacet
  facet normal 0 0 -1
    outer loop
      vertex 125 37.2662 9.5
      vertex 129.2 39.27 9.5
      vertex 128 32.07 9.5
    endloop
  endfacet
  facet normal 0 0 -1
    outer loop
      vertex 119 37.2662 9.5
      vertex 129.2 39.27 9.5
      vertex 125 37.2662 9.5
    endloop
  endfacet
  facet normal 0 0 -1
    outer loop
      vertex 109.816 34.12 9.5
      vertex 119 37.2662 9.5
      vertex 117.184 34.12 9.5
    endloop
  endfacet
  facet normal 0 0 -1
    outer loop
      vertex 108 37.2662 9.5
      vertex 119 37.2662 9.5
      vertex 109.816 34.12 9.5
    endloop
  endfacet
  facet normal 0 0 -1
    outer loop
      vertex 108 37.2662 9.5
      vertex 129.2 39.27 9.5
      vertex 119 37.2662 9.5
    endloop
  endfacet
  facet normal 0 0 -1
    outer loop
      vertex 102 37.2662 9.5
      vertex 129.2 39.27 9.5
      vertex 108 37.2662 9.5
    endloop
  endfacet
  facet normal 0 0 -1
    outer loop
      vertex 92.8164 34.12 9.5
      vertex 102 37.2662 9.5
      vertex 100.184 34.12 9.5
    endloop
  endfacet
  facet normal 0 0 -1
    outer loop
      vertex 91 37.2662 9.5
      vertex 102 37.2662 9.5
      vertex 92.8164 34.12 9.5
    endloop
  endfacet
  facet normal 0 0 -1
    outer loop
      vertex 91 37.2662 9.5
      vertex 129.2 39.27 9.5
      vertex 102 37.2662 9.5
    endloop
  endfacet
  facet normal 0 0 -1
    outer loop
      vertex 85 37.2662 9.5
      vertex 129.2 39.27 9.5
      vertex 91 37.2662 9.5
    endloop
  endfacet
  facet normal 0 0 -1
    outer loop
      vertex 75.8164 34.12 9.5
      vertex 85 37.2662 9.5
      vertex 83.1836 34.12 9.5
    endloop
  endfacet
  facet normal 0 0 -1
    outer loop
      vertex 74 37.2662 9.5
      vertex 85 37.2662 9.5
      vertex 75.8164 34.12 9.5
    endloop
  endfacet
  facet normal 0 0 -1
    outer loop
      vertex 74 37.2662 9.5
      vertex 129.2 39.27 9.5
      vertex 85 37.2662 9.5
    endloop
  endfacet
  facet normal 0 0 -1
    outer loop
      vertex 68 37.2662 9.5
      vertex 129.2 39.27 9.5
      vertex 74 37.2662 9.5
    endloop
  endfacet
  facet normal 0 0 -1
    outer loop
      vertex 58.8164 34.12 9.5
      vertex 68 37.2662 9.5
      vertex 66.1836 34.12 9.5
    endloop
  endfacet
  facet normal 0 0 -1
    outer loop
      vertex 57 37.2662 9.5
      vertex 68 37.2662 9.5
      vertex 58.8164 34.12 9.5
    endloop
  endfacet
  facet normal 0 0 -1
    outer loop
      vertex 57 37.2662 9.5
      vertex 129.2 39.27 9.5
      vertex 68 37.2662 9.5
    endloop
  endfacet
  facet normal 0 0 -1
    outer loop
      vertex 6 39.27 9.5
      vertex 57 37.2662 9.5
      vertex 51 37.2662 9.5
    endloop
  endfacet
  facet normal 0 0 -1
    outer loop
      vertex 51 26.8738 9.5
      vertex 36.2 32.07 9.5
      vertex 48 32.07 9.5
    endloop
  endfacet
  facet normal 0 0 -1
    outer loop
      vertex 48 32.07 9.5
      vertex 36.2 32.07 9.5
      vertex 51 37.2662 9.5
    endloop
  endfacet
  facet normal 0 0 -1
    outer loop
      vertex 33.2 37.2662 9.5
      vertex 51 37.2662 9.5
      vertex 36.2 32.07 9.5
    endloop
  endfacet
  facet normal 0 0 -1
    outer loop
      vertex 6 39.27 9.5
      vertex 51 37.2662 9.5
      vertex 33.2 37.2662 9.5
    endloop
  endfacet
  facet normal 0 0 -1
    outer loop
      vertex 6 39.27 9.5
      vertex 33.2 37.2662 9.5
      vertex 27.2 37.2662 9.5
    endloop
  endfacet
  facet normal 0 0 -1
    outer loop
      vertex 18.0164 34.12 9.5
      vertex 27.2 37.2662 9.5
      vertex 25.3836 34.12 9.5
    endloop
  endfacet
  facet normal 0 0 -1
    outer loop
      vertex 16.2 37.2662 9.5
      vertex 27.2 37.2662 9.5
      vertex 18.0164 34.12 9.5
    endloop
  endfacet
  facet normal 0 0 -1
    outer loop
      vertex 6 39.27 9.5
      vertex 27.2 37.2662 9.5
      vertex 16.2 37.2662 9.5
    endloop
  endfacet
  facet normal 0 0 -1
    outer loop
      vertex 6 39.27 9.5
      vertex 16.2 37.2662 9.5
      vertex 10.2 37.2662 9.5
    endloop
  endfacet
  facet normal 0 0 -1
    outer loop
      vertex 57 37.2662 9.5
      vertex 6 39.27 9.5
      vertex 129.2 39.27 9.5
    endloop
  endfacet
  facet normal 0 0 -1
    outer loop
      vertex 7.2 32.07 9.5
      vertex 6 39.27 9.5
      vertex 10.2 37.2662 9.5
    endloop
  endfacet
  facet normal 0 0 -1
    outer loop
      vertex 6 39.27 9.5
      vertex 7.2 32.07 9.5
      vertex 6 6 9.5
    endloop
  endfacet
  facet normal -0.894427 0 -0.447214
    outer loop
      vertex 133.95 5.408 0
      vertex 129.2 39.27 9.5
      vertex 133.95 44.02 0
    endloop
  endfacet
  facet normal -0.894427 -0 -0.447214
    outer loop
      vertex 129.2 39.27 9.5
      vertex 133.95 5.408 0
      vertex 129.2 6 9.5
    endloop
  endfacet
  facet normal -0.894427 -2.29138e-14 -0.447214
    outer loop
      vertex 129.2 6 9.5
      vertex 133.95 5.408 0
      vertex 129.792 5.408 8.316
    endloop
  endfacet
  facet normal -0.984808 0 -0.173647
    outer loop
      vertex 5.98235 39.2877 9.46469
      vertex 7.16142 43.8811 2.77781
      vertex 7.16142 42.6311 2.77781
    endloop
  endfacet
  facet normal -0.984807 -7.86757e-06 -0.173652
    outer loop
      vertex 7.16142 43.8811 2.77781
      vertex 5.98235 39.2877 9.46469
      vertex 5.65645 39.6135 11.3129
    endloop
  endfacet
  facet normal -0.984807 0 -0.173654
    outer loop
      vertex 5.98235 5.98235 9.46469
      vertex 5.65645 39.6135 11.3129
      vertex 5.98235 39.2877 9.46469
    endloop
  endfacet
  facet normal -0.984807 0 -0.173654
    outer loop
      vertex 5.98235 5.98235 9.46469
      vertex 5.65645 5.65645 11.3129
      vertex 5.65645 39.6135 11.3129
    endloop
  endfacet
  facet normal -0.984808 1.06485e-05 -0.173649
    outer loop
      vertex 5.74407 5.408 10.816
      vertex 5.98235 5.98235 9.46469
      vertex 6.18489 5.408 8.316
    endloop
  endfacet
  facet normal -0.984807 -7.13799e-07 -0.173654
    outer loop
      vertex 5.98235 5.98235 9.46469
      vertex 5.74407 5.408 10.816
      vertex 5.65645 5.65645 11.3129
    endloop
  endfacet
  facet normal 0.984808 -6.0377e-07 0.173648
    outer loop
      vertex 5.15658 40.1134 7.81317
      vertex 6.07813 43.9766 2.5868
      vertex 4.83069 40.4393 9.66139
    endloop
  endfacet
  facet normal 0.984808 0 0.173648
    outer loop
      vertex 6.07813 43.9766 2.5868
      vertex 5.15658 40.1134 7.81317
      vertex 6.07813 42.7266 2.5868
    endloop
  endfacet
  facet normal 0.984808 -0 0.173648
    outer loop
      vertex 4.83069 5.408 9.66139
      vertex 5.15658 40.1134 7.81317
      vertex 4.83069 40.4393 9.66139
    endloop
  endfacet
  facet normal 0.984808 0 0.173648
    outer loop
      vertex 5.15658 40.1134 7.81317
      vertex 4.83069 5.408 9.66139
      vertex 5.15658 5.408 7.81317
    endloop
  endfacet
  facet normal -0.173645 0 0.984808
    outer loop
      vertex 6.07813 42.7266 2.5868
      vertex 7.16142 43.8811 2.77781
      vertex 6.07813 43.9766 2.5868
    endloop
  endfacet
  facet normal -0.173645 0 0.984808
    outer loop
      vertex 7.16142 43.8811 2.77781
      vertex 6.07813 42.7266 2.5868
      vertex 7.16142 42.6311 2.77781
    endloop
  endfacet
  facet normal 0 -1 0
    outer loop
      vertex 10.2 18.3962 9.5
      vertex 16.2 18.3962 12
      vertex 10.2 18.3962 12
    endloop
  endfacet
  facet normal 0 -1 -0
    outer loop
      vertex 16.2 18.3962 12
      vertex 10.2 18.3962 9.5
      vertex 16.2 18.3962 9.5
    endloop
  endfacet
  facet normal -0.866032 -0.499988 0
    outer loop
      vertex 18.0164 15.25 9.5
      vertex 16.2 18.3962 12
      vertex 16.2 18.3962 9.5
    endloop
  endfacet
  facet normal -0.866032 -0.499988 0
    outer loop
      vertex 16.2 18.3962 12
      vertex 18.0164 15.25 9.5
      vertex 18.0164 15.25 12
    endloop
  endfacet
  facet normal 0.866027 -0.499997 0
    outer loop
      vertex 7.2 13.2 12
      vertex 10.2 18.3962 9.5
      vertex 10.2 18.3962 12
    endloop
  endfacet
  facet normal 0.866027 -0.499997 0
    outer loop
      vertex 10.2 18.3962 9.5
      vertex 7.2 13.2 12
      vertex 7.2 13.2 9.5
    endloop
  endfacet
  facet normal 0.866025 0.5 0
    outer loop
      vertex 10.2 8.00385 12
      vertex 7.2 13.2 9.5
      vertex 7.2 13.2 12
    endloop
  endfacet
  facet normal 0.866025 0.5 0
    outer loop
      vertex 7.2 13.2 9.5
      vertex 10.2 8.00385 12
      vertex 10.2 8.00385 9.5
    endloop
  endfacet
  facet normal 0 1 -0
    outer loop
      vertex 16.2 8.00385 9.5
      vertex 10.2 8.00385 12
      vertex 16.2 8.00385 12
    endloop
  endfacet
  facet normal 0 1 0
    outer loop
      vertex 10.2 8.00385 12
      vertex 16.2 8.00385 9.5
      vertex 10.2 8.00385 9.5
    endloop
  endfacet
  facet normal -0.866029 0.499994 0
    outer loop
      vertex 16.2 8.00385 9.5
      vertex 18.0164 11.15 12
      vertex 18.0164 11.15 9.5
    endloop
  endfacet
  facet normal -0.866029 0.499994 0
    outer loop
      vertex 18.0164 11.15 12
      vertex 16.2 8.00385 9.5
      vertex 16.2 8.00385 12
    endloop
  endfacet
  facet normal 0 -1 0
    outer loop
      vertex 27.2 18.3962 9.5
      vertex 33.2 18.3962 12
      vertex 27.2 18.3962 12
    endloop
  endfacet
  facet normal 0 -1 -0
    outer loop
      vertex 33.2 18.3962 12
      vertex 27.2 18.3962 9.5
      vertex 33.2 18.3962 9.5
    endloop
  endfacet
  facet normal -0.866027 -0.499997 0
    outer loop
      vertex 36.2 13.2 9.5
      vertex 33.2 18.3962 12
      vertex 33.2 18.3962 9.5
    endloop
  endfacet
  facet normal -0.866027 -0.499997 0
    outer loop
      vertex 33.2 18.3962 12
      vertex 36.2 13.2 9.5
      vertex 36.2 13.2 12
    endloop
  endfacet
  facet normal 0.866032 -0.499988 0
    outer loop
      vertex 25.3836 15.25 12
      vertex 27.2 18.3962 9.5
      vertex 27.2 18.3962 12
    endloop
  endfacet
  facet normal 0.866032 -0.499988 0
    outer loop
      vertex 27.2 18.3962 9.5
      vertex 25.3836 15.25 12
      vertex 25.3836 15.25 9.5
    endloop
  endfacet
  facet normal 0.866029 0.499994 0
    outer loop
      vertex 27.2 8.00385 12
      vertex 25.3836 11.15 9.5
      vertex 25.3836 11.15 12
    endloop
  endfacet
  facet normal 0.866029 0.499994 0
    outer loop
      vertex 25.3836 11.15 9.5
      vertex 27.2 8.00385 12
      vertex 27.2 8.00385 9.5
    endloop
  endfacet
  facet normal 0 1 -0
    outer loop
      vertex 33.2 8.00385 9.5
      vertex 27.2 8.00385 12
      vertex 33.2 8.00385 12
    endloop
  endfacet
  facet normal 0 1 0
    outer loop
      vertex 27.2 8.00385 12
      vertex 33.2 8.00385 9.5
      vertex 27.2 8.00385 9.5
    endloop
  endfacet
  facet normal -0.866025 0.5 0
    outer loop
      vertex 33.2 8.00385 9.5
      vertex 36.2 13.2 12
      vertex 36.2 13.2 9.5
    endloop
  endfacet
  facet normal -0.866025 0.5 0
    outer loop
      vertex 36.2 13.2 12
      vertex 33.2 8.00385 9.5
      vertex 33.2 8.00385 12
    endloop
  endfacet
  facet normal 0 1 -0
    outer loop
      vertex 57 8.00385 9.5
      vertex 51 8.00385 12
      vertex 57 8.00385 12
    endloop
  endfacet
  facet normal 0 1 0
    outer loop
      vertex 51 8.00385 12
      vertex 57 8.00385 9.5
      vertex 51 8.00385 9.5
    endloop
  endfacet
  facet normal 0 -1 0
    outer loop
      vertex 51 18.3962 9.5
      vertex 57 18.3962 12
      vertex 51 18.3962 12
    endloop
  endfacet
  facet normal 0 -1 -0
    outer loop
      vertex 57 18.3962 12
      vertex 51 18.3962 9.5
      vertex 57 18.3962 9.5
    endloop
  endfacet
  facet normal -0.866032 -0.499988 0
    outer loop
      vertex 58.8164 15.25 9.5
      vertex 57 18.3962 12
      vertex 57 18.3962 9.5
    endloop
  endfacet
  facet normal -0.866032 -0.499988 0
    outer loop
      vertex 57 18.3962 12
      vertex 58.8164 15.25 9.5
      vertex 58.8164 15.25 12
    endloop
  endfacet
  facet normal 0.866027 -0.499997 0
    outer loop
      vertex 48 13.2 12
      vertex 51 18.3962 9.5
      vertex 51 18.3962 12
    endloop
  endfacet
  facet normal 0.866027 -0.499997 0
    outer loop
      vertex 51 18.3962 9.5
      vertex 48 13.2 12
      vertex 48 13.2 9.5
    endloop
  endfacet
  facet normal 0.866025 0.5 0
    outer loop
      vertex 51 8.00385 12
      vertex 48 13.2 9.5
      vertex 48 13.2 12
    endloop
  endfacet
  facet normal 0.866025 0.5 0
    outer loop
      vertex 48 13.2 9.5
      vertex 51 8.00385 12
      vertex 51 8.00385 9.5
    endloop
  endfacet
  facet normal -0.866029 0.499994 0
    outer loop
      vertex 57 8.00385 9.5
      vertex 58.8164 11.15 12
      vertex 58.8164 11.15 9.5
    endloop
  endfacet
  facet normal -0.866029 0.499994 0
    outer loop
      vertex 58.8164 11.15 12
      vertex 57 8.00385 9.5
      vertex 57 8.00385 12
    endloop
  endfacet
  facet normal 0 -1 0
    outer loop
      vertex 68 18.3962 9.5
      vertex 74 18.3962 12
      vertex 68 18.3962 12
    endloop
  endfacet
  facet normal 0 -1 -0
    outer loop
      vertex 74 18.3962 12
      vertex 68 18.3962 9.5
      vertex 74 18.3962 9.5
    endloop
  endfacet
  facet normal -0.866032 -0.499988 0
    outer loop
      vertex 75.8164 15.25 9.5
      vertex 74 18.3962 12
      vertex 74 18.3962 9.5
    endloop
  endfacet
  facet normal -0.866032 -0.499988 0
    outer loop
      vertex 74 18.3962 12
      vertex 75.8164 15.25 9.5
      vertex 75.8164 15.25 12
    endloop
  endfacet
  facet normal 0.866032 -0.499988 0
    outer loop
      vertex 66.1836 15.25 12
      vertex 68 18.3962 9.5
      vertex 68 18.3962 12
    endloop
  endfacet
  facet normal 0.866032 -0.499988 0
    outer loop
      vertex 68 18.3962 9.5
      vertex 66.1836 15.25 12
      vertex 66.1836 15.25 9.5
    endloop
  endfacet
  facet normal 0.866029 0.499994 0
    outer loop
      vertex 68 8.00385 12
      vertex 66.1836 11.15 9.5
      vertex 66.1836 11.15 12
    endloop
  endfacet
  facet normal 0.866029 0.499994 0
    outer loop
      vertex 66.1836 11.15 9.5
      vertex 68 8.00385 12
      vertex 68 8.00385 9.5
    endloop
  endfacet
  facet normal 0 1 -0
    outer loop
      vertex 74 8.00385 9.5
      vertex 68 8.00385 12
      vertex 74 8.00385 12
    endloop
  endfacet
  facet normal 0 1 0
    outer loop
      vertex 68 8.00385 12
      vertex 74 8.00385 9.5
      vertex 68 8.00385 9.5
    endloop
  endfacet
  facet normal -0.866029 0.499994 0
    outer loop
      vertex 74 8.00385 9.5
      vertex 75.8164 11.15 12
      vertex 75.8164 11.15 9.5
    endloop
  endfacet
  facet normal -0.866029 0.499994 0
    outer loop
      vertex 75.8164 11.15 12
      vertex 74 8.00385 9.5
      vertex 74 8.00385 12
    endloop
  endfacet
  facet normal 0 -1 0
    outer loop
      vertex 85 18.3962 9.5
      vertex 91 18.3962 12
      vertex 85 18.3962 12
    endloop
  endfacet
  facet normal 0 -1 -0
    outer loop
      vertex 91 18.3962 12
      vertex 85 18.3962 9.5
      vertex 91 18.3962 9.5
    endloop
  endfacet
  facet normal -0.866032 -0.499988 0
    outer loop
      vertex 92.8164 15.25 9.5
      vertex 91 18.3962 12
      vertex 91 18.3962 9.5
    endloop
  endfacet
  facet normal -0.866032 -0.499988 0
    outer loop
      vertex 91 18.3962 12
      vertex 92.8164 15.25 9.5
      vertex 92.8164 15.25 12
    endloop
  endfacet
  facet normal 0.866032 -0.499988 0
    outer loop
      vertex 83.1836 15.25 12
      vertex 85 18.3962 9.5
      vertex 85 18.3962 12
    endloop
  endfacet
  facet normal 0.866032 -0.499988 0
    outer loop
      vertex 85 18.3962 9.5
      vertex 83.1836 15.25 12
      vertex 83.1836 15.25 9.5
    endloop
  endfacet
  facet normal 0.866029 0.499994 0
    outer loop
      vertex 85 8.00385 12
      vertex 83.1836 11.15 9.5
      vertex 83.1836 11.15 12
    endloop
  endfacet
  facet normal 0.866029 0.499994 0
    outer loop
      vertex 83.1836 11.15 9.5
      vertex 85 8.00385 12
      vertex 85 8.00385 9.5
    endloop
  endfacet
  facet normal 0 1 -0
    outer loop
      vertex 91 8.00385 9.5
      vertex 85 8.00385 12
      vertex 91 8.00385 12
    endloop
  endfacet
  facet normal 0 1 0
    outer loop
      vertex 85 8.00385 12
      vertex 91 8.00385 9.5
      vertex 85 8.00385 9.5
    endloop
  endfacet
  facet normal -0.866029 0.499994 0
    outer loop
      vertex 91 8.00385 9.5
      vertex 92.8164 11.15 12
      vertex 92.8164 11.15 9.5
    endloop
  endfacet
  facet normal -0.866029 0.499994 0
    outer loop
      vertex 92.8164 11.15 12
      vertex 91 8.00385 9.5
      vertex 91 8.00385 12
    endloop
  endfacet
  facet normal 0 1 -0
    outer loop
      vertex 108 8.00385 9.5
      vertex 102 8.00385 12
      vertex 108 8.00385 12
    endloop
  endfacet
  facet normal 0 1 0
    outer loop
      vertex 102 8.00385 12
      vertex 108 8.00385 9.5
      vertex 102 8.00385 9.5
    endloop
  endfacet
  facet normal 0 -1 0
    outer loop
      vertex 102 18.3962 9.5
      vertex 108 18.3962 12
      vertex 102 18.3962 12
    endloop
  endfacet
  facet normal 0 -1 -0
    outer loop
      vertex 108 18.3962 12
      vertex 102 18.3962 9.5
      vertex 108 18.3962 9.5
    endloop
  endfacet
  facet normal -0.86608 -0.499905 0
    outer loop
      vertex 109.816 15.25 9.5
      vertex 108 18.3962 12
      vertex 108 18.3962 9.5
    endloop
  endfacet
  facet normal -0.86608 -0.499905 0
    outer loop
      vertex 108 18.3962 12
      vertex 109.816 15.25 9.5
      vertex 109.816 15.25 12
    endloop
  endfacet
  facet normal 0.86608 -0.499905 0
    outer loop
      vertex 100.184 15.25 12
      vertex 102 18.3962 9.5
      vertex 102 18.3962 12
    endloop
  endfacet
  facet normal 0.86608 -0.499905 0
    outer loop
      vertex 102 18.3962 9.5
      vertex 100.184 15.25 12
      vertex 100.184 15.25 9.5
    endloop
  endfacet
  facet normal 0.866077 0.499911 0
    outer loop
      vertex 102 8.00385 12
      vertex 100.184 11.15 9.5
      vertex 100.184 11.15 12
    endloop
  endfacet
  facet normal 0.866077 0.499911 0
    outer loop
      vertex 100.184 11.15 9.5
      vertex 102 8.00385 12
      vertex 102 8.00385 9.5
    endloop
  endfacet
  facet normal -0.866077 0.499911 0
    outer loop
      vertex 108 8.00385 9.5
      vertex 109.816 11.15 12
      vertex 109.816 11.15 9.5
    endloop
  endfacet
  facet normal -0.866077 0.499911 0
    outer loop
      vertex 109.816 11.15 12
      vertex 108 8.00385 9.5
      vertex 108 8.00385 12
    endloop
  endfacet
  facet normal 0 1 -0
    outer loop
      vertex 125 8.00385 9.5
      vertex 119 8.00385 12
      vertex 125 8.00385 12
    endloop
  endfacet
  facet normal 0 1 0
    outer loop
      vertex 119 8.00385 12
      vertex 125 8.00385 9.5
      vertex 119 8.00385 9.5
    endloop
  endfacet
  facet normal 0 -1 0
    outer loop
      vertex 119 18.3962 9.5
      vertex 125 18.3962 12
      vertex 119 18.3962 12
    endloop
  endfacet
  facet normal 0 -1 -0
    outer loop
      vertex 125 18.3962 12
      vertex 119 18.3962 9.5
      vertex 125 18.3962 9.5
    endloop
  endfacet
  facet normal -0.866027 -0.499997 0
    outer loop
      vertex 128 13.2 9.5
      vertex 125 18.3962 12
      vertex 125 18.3962 9.5
    endloop
  endfacet
  facet normal -0.866027 -0.499997 0
    outer loop
      vertex 125 18.3962 12
      vertex 128 13.2 9.5
      vertex 128 13.2 12
    endloop
  endfacet
  facet normal 0.86608 -0.499905 0
    outer loop
      vertex 117.184 15.25 12
      vertex 119 18.3962 9.5
      vertex 119 18.3962 12
    endloop
  endfacet
  facet normal 0.86608 -0.499905 0
    outer loop
      vertex 119 18.3962 9.5
      vertex 117.184 15.25 12
      vertex 117.184 15.25 9.5
    endloop
  endfacet
  facet normal 0.866077 0.499911 0
    outer loop
      vertex 119 8.00385 12
      vertex 117.184 11.15 9.5
      vertex 117.184 11.15 12
    endloop
  endfacet
  facet normal 0.866077 0.499911 0
    outer loop
      vertex 117.184 11.15 9.5
      vertex 119 8.00385 12
      vertex 119 8.00385 9.5
    endloop
  endfacet
  facet normal -0.866025 0.5 0
    outer loop
      vertex 125 8.00385 9.5
      vertex 128 13.2 12
      vertex 128 13.2 9.5
    endloop
  endfacet
  facet normal -0.866025 0.5 0
    outer loop
      vertex 128 13.2 12
      vertex 125 8.00385 9.5
      vertex 125 8.00385 12
    endloop
  endfacet
  facet normal 0 1 -0
    outer loop
      vertex 16.2 26.8738 9.5
      vertex 10.2 26.8738 12
      vertex 16.2 26.8738 12
    endloop
  endfacet
  facet normal 0 1 0
    outer loop
      vertex 10.2 26.8738 12
      vertex 16.2 26.8738 9.5
      vertex 10.2 26.8738 9.5
    endloop
  endfacet
  facet normal -0.866032 0.499988 0
    outer loop
      vertex 16.2 26.8738 9.5
      vertex 18.0164 30.02 12
      vertex 18.0164 30.02 9.5
    endloop
  endfacet
  facet normal -0.866032 0.499988 0
    outer loop
      vertex 18.0164 30.02 12
      vertex 16.2 26.8738 9.5
      vertex 16.2 26.8738 12
    endloop
  endfacet
  facet normal 0 -1 0
    outer loop
      vertex 10.2 37.2662 9.5
      vertex 16.2 37.2662 12
      vertex 10.2 37.2662 12
    endloop
  endfacet
  facet normal 0 -1 -0
    outer loop
      vertex 16.2 37.2662 12
      vertex 10.2 37.2662 9.5
      vertex 16.2 37.2662 9.5
    endloop
  endfacet
  facet normal -0.866032 -0.499988 0
    outer loop
      vertex 18.0164 34.12 9.5
      vertex 16.2 37.2662 12
      vertex 16.2 37.2662 9.5
    endloop
  endfacet
  facet normal -0.866032 -0.499988 0
    outer loop
      vertex 16.2 37.2662 12
      vertex 18.0164 34.12 9.5
      vertex 18.0164 34.12 12
    endloop
  endfacet
  facet normal 0.866027 -0.499997 0
    outer loop
      vertex 7.2 32.07 12
      vertex 10.2 37.2662 9.5
      vertex 10.2 37.2662 12
    endloop
  endfacet
  facet normal 0.866027 -0.499997 0
    outer loop
      vertex 10.2 37.2662 9.5
      vertex 7.2 32.07 12
      vertex 7.2 32.07 9.5
    endloop
  endfacet
  facet normal 0.866027 0.499997 0
    outer loop
      vertex 10.2 26.8738 12
      vertex 7.2 32.07 9.5
      vertex 7.2 32.07 12
    endloop
  endfacet
  facet normal 0.866027 0.499997 0
    outer loop
      vertex 7.2 32.07 9.5
      vertex 10.2 26.8738 12
      vertex 10.2 26.8738 9.5
    endloop
  endfacet
  facet normal 0 1 -0
    outer loop
      vertex 33.2 26.8738 9.5
      vertex 27.2 26.8738 12
      vertex 33.2 26.8738 12
    endloop
  endfacet
  facet normal 0 1 0
    outer loop
      vertex 27.2 26.8738 12
      vertex 33.2 26.8738 9.5
      vertex 27.2 26.8738 9.5
    endloop
  endfacet
  facet normal -0.866027 0.499997 0
    outer loop
      vertex 33.2 26.8738 9.5
      vertex 36.2 32.07 12
      vertex 36.2 32.07 9.5
    endloop
  endfacet
  facet normal -0.866027 0.499997 0
    outer loop
      vertex 36.2 32.07 12
      vertex 33.2 26.8738 9.5
      vertex 33.2 26.8738 12
    endloop
  endfacet
  facet normal 0 -1 0
    outer loop
      vertex 27.2 37.2662 9.5
      vertex 33.2 37.2662 12
      vertex 27.2 37.2662 12
    endloop
  endfacet
  facet normal 0 -1 -0
    outer loop
      vertex 33.2 37.2662 12
      vertex 27.2 37.2662 9.5
      vertex 33.2 37.2662 9.5
    endloop
  endfacet
  facet normal -0.866027 -0.499997 0
    outer loop
      vertex 36.2 32.07 9.5
      vertex 33.2 37.2662 12
      vertex 33.2 37.2662 9.5
    endloop
  endfacet
  facet normal -0.866027 -0.499997 0
    outer loop
      vertex 33.2 37.2662 12
      vertex 36.2 32.07 9.5
      vertex 36.2 32.07 12
    endloop
  endfacet
  facet normal 0.866032 -0.499988 0
    outer loop
      vertex 25.3836 34.12 12
      vertex 27.2 37.2662 9.5
      vertex 27.2 37.2662 12
    endloop
  endfacet
  facet normal 0.866032 -0.499988 0
    outer loop
      vertex 27.2 37.2662 9.5
      vertex 25.3836 34.12 12
      vertex 25.3836 34.12 9.5
    endloop
  endfacet
  facet normal 0.866032 0.499988 0
    outer loop
      vertex 27.2 26.8738 12
      vertex 25.3836 30.02 9.5
      vertex 25.3836 30.02 12
    endloop
  endfacet
  facet normal 0.866032 0.499988 0
    outer loop
      vertex 25.3836 30.02 9.5
      vertex 27.2 26.8738 12
      vertex 27.2 26.8738 9.5
    endloop
  endfacet
  facet normal 0 1 -0
    outer loop
      vertex 57 26.8738 9.5
      vertex 51 26.8738 12
      vertex 57 26.8738 12
    endloop
  endfacet
  facet normal 0 1 0
    outer loop
      vertex 51 26.8738 12
      vertex 57 26.8738 9.5
      vertex 51 26.8738 9.5
    endloop
  endfacet
  facet normal -0.866032 0.499988 0
    outer loop
      vertex 57 26.8738 9.5
      vertex 58.8164 30.02 12
      vertex 58.8164 30.02 9.5
    endloop
  endfacet
  facet normal -0.866032 0.499988 0
    outer loop
      vertex 58.8164 30.02 12
      vertex 57 26.8738 9.5
      vertex 57 26.8738 12
    endloop
  endfacet
  facet normal 0 -1 0
    outer loop
      vertex 51 37.2662 9.5
      vertex 57 37.2662 12
      vertex 51 37.2662 12
    endloop
  endfacet
  facet normal 0 -1 -0
    outer loop
      vertex 57 37.2662 12
      vertex 51 37.2662 9.5
      vertex 57 37.2662 9.5
    endloop
  endfacet
  facet normal -0.866032 -0.499988 0
    outer loop
      vertex 58.8164 34.12 9.5
      vertex 57 37.2662 12
      vertex 57 37.2662 9.5
    endloop
  endfacet
  facet normal -0.866032 -0.499988 0
    outer loop
      vertex 57 37.2662 12
      vertex 58.8164 34.12 9.5
      vertex 58.8164 34.12 12
    endloop
  endfacet
  facet normal 0.866027 -0.499997 0
    outer loop
      vertex 48 32.07 12
      vertex 51 37.2662 9.5
      vertex 51 37.2662 12
    endloop
  endfacet
  facet normal 0.866027 -0.499997 0
    outer loop
      vertex 51 37.2662 9.5
      vertex 48 32.07 12
      vertex 48 32.07 9.5
    endloop
  endfacet
  facet normal 0.866027 0.499997 0
    outer loop
      vertex 51 26.8738 12
      vertex 48 32.07 9.5
      vertex 48 32.07 12
    endloop
  endfacet
  facet normal 0.866027 0.499997 0
    outer loop
      vertex 48 32.07 9.5
      vertex 51 26.8738 12
      vertex 51 26.8738 9.5
    endloop
  endfacet
  facet normal 0 1 -0
    outer loop
      vertex 74 26.8738 9.5
      vertex 68 26.8738 12
      vertex 74 26.8738 12
    endloop
  endfacet
  facet normal 0 1 0
    outer loop
      vertex 68 26.8738 12
      vertex 74 26.8738 9.5
      vertex 68 26.8738 9.5
    endloop
  endfacet
  facet normal -0.866032 0.499988 0
    outer loop
      vertex 74 26.8738 9.5
      vertex 75.8164 30.02 12
      vertex 75.8164 30.02 9.5
    endloop
  endfacet
  facet normal -0.866032 0.499988 0
    outer loop
      vertex 75.8164 30.02 12
      vertex 74 26.8738 9.5
      vertex 74 26.8738 12
    endloop
  endfacet
  facet normal 0 -1 0
    outer loop
      vertex 68 37.2662 9.5
      vertex 74 37.2662 12
      vertex 68 37.2662 12
    endloop
  endfacet
  facet normal 0 -1 -0
    outer loop
      vertex 74 37.2662 12
      vertex 68 37.2662 9.5
      vertex 74 37.2662 9.5
    endloop
  endfacet
  facet normal -0.866032 -0.499988 0
    outer loop
      vertex 75.8164 34.12 9.5
      vertex 74 37.2662 12
      vertex 74 37.2662 9.5
    endloop
  endfacet
  facet normal -0.866032 -0.499988 0
    outer loop
      vertex 74 37.2662 12
      vertex 75.8164 34.12 9.5
      vertex 75.8164 34.12 12
    endloop
  endfacet
  facet normal 0.866032 -0.499988 0
    outer loop
      vertex 66.1836 34.12 12
      vertex 68 37.2662 9.5
      vertex 68 37.2662 12
    endloop
  endfacet
  facet normal 0.866032 -0.499988 0
    outer loop
      vertex 68 37.2662 9.5
      vertex 66.1836 34.12 12
      vertex 66.1836 34.12 9.5
    endloop
  endfacet
  facet normal 0.866032 0.499988 0
    outer loop
      vertex 68 26.8738 12
      vertex 66.1836 30.02 9.5
      vertex 66.1836 30.02 12
    endloop
  endfacet
  facet normal 0.866032 0.499988 0
    outer loop
      vertex 66.1836 30.02 9.5
      vertex 68 26.8738 12
      vertex 68 26.8738 9.5
    endloop
  endfacet
  facet normal 0 1 -0
    outer loop
      vertex 91 26.8738 9.5
      vertex 85 26.8738 12
      vertex 91 26.8738 12
    endloop
  endfacet
  facet normal 0 1 0
    outer loop
      vertex 85 26.8738 12
      vertex 91 26.8738 9.5
      vertex 85 26.8738 9.5
    endloop
  endfacet
  facet normal -0.866032 0.499988 0
    outer loop
      vertex 91 26.8738 9.5
      vertex 92.8164 30.02 12
      vertex 92.8164 30.02 9.5
    endloop
  endfacet
  facet normal -0.866032 0.499988 0
    outer loop
      vertex 92.8164 30.02 12
      vertex 91 26.8738 9.5
      vertex 91 26.8738 12
    endloop
  endfacet
  facet normal 0 -1 0
    outer loop
      vertex 85 37.2662 9.5
      vertex 91 37.2662 12
      vertex 85 37.2662 12
    endloop
  endfacet
  facet normal 0 -1 -0
    outer loop
      vertex 91 37.2662 12
      vertex 85 37.2662 9.5
      vertex 91 37.2662 9.5
    endloop
  endfacet
  facet normal -0.866032 -0.499988 0
    outer loop
      vertex 92.8164 34.12 9.5
      vertex 91 37.2662 12
      vertex 91 37.2662 9.5
    endloop
  endfacet
  facet normal -0.866032 -0.499988 0
    outer loop
      vertex 91 37.2662 12
      vertex 92.8164 34.12 9.5
      vertex 92.8164 34.12 12
    endloop
  endfacet
  facet normal 0.866032 -0.499988 0
    outer loop
      vertex 83.1836 34.12 12
      vertex 85 37.2662 9.5
      vertex 85 37.2662 12
    endloop
  endfacet
  facet normal 0.866032 -0.499988 0
    outer loop
      vertex 85 37.2662 9.5
      vertex 83.1836 34.12 12
      vertex 83.1836 34.12 9.5
    endloop
  endfacet
  facet normal 0.866032 0.499988 0
    outer loop
      vertex 85 26.8738 12
      vertex 83.1836 30.02 9.5
      vertex 83.1836 30.02 12
    endloop
  endfacet
  facet normal 0.866032 0.499988 0
    outer loop
      vertex 83.1836 30.02 9.5
      vertex 85 26.8738 12
      vertex 85 26.8738 9.5
    endloop
  endfacet
  facet normal 0 1 -0
    outer loop
      vertex 108 26.8738 9.5
      vertex 102 26.8738 12
      vertex 108 26.8738 12
    endloop
  endfacet
  facet normal 0 1 0
    outer loop
      vertex 102 26.8738 12
      vertex 108 26.8738 9.5
      vertex 102 26.8738 9.5
    endloop
  endfacet
  facet normal -0.86608 0.499905 0
    outer loop
      vertex 108 26.8738 9.5
      vertex 109.816 30.02 12
      vertex 109.816 30.02 9.5
    endloop
  endfacet
  facet normal -0.86608 0.499905 0
    outer loop
      vertex 109.816 30.02 12
      vertex 108 26.8738 9.5
      vertex 108 26.8738 12
    endloop
  endfacet
  facet normal 0 -1 0
    outer loop
      vertex 102 37.2662 9.5
      vertex 108 37.2662 12
      vertex 102 37.2662 12
    endloop
  endfacet
  facet normal 0 -1 -0
    outer loop
      vertex 108 37.2662 12
      vertex 102 37.2662 9.5
      vertex 108 37.2662 9.5
    endloop
  endfacet
  facet normal -0.86608 -0.499905 0
    outer loop
      vertex 109.816 34.12 9.5
      vertex 108 37.2662 12
      vertex 108 37.2662 9.5
    endloop
  endfacet
  facet normal -0.86608 -0.499905 0
    outer loop
      vertex 108 37.2662 12
      vertex 109.816 34.12 9.5
      vertex 109.816 34.12 12
    endloop
  endfacet
  facet normal 0.86608 -0.499905 0
    outer loop
      vertex 100.184 34.12 12
      vertex 102 37.2662 9.5
      vertex 102 37.2662 12
    endloop
  endfacet
  facet normal 0.86608 -0.499905 0
    outer loop
      vertex 102 37.2662 9.5
      vertex 100.184 34.12 12
      vertex 100.184 34.12 9.5
    endloop
  endfacet
  facet normal 0.86608 0.499905 0
    outer loop
      vertex 102 26.8738 12
      vertex 100.184 30.02 9.5
      vertex 100.184 30.02 12
    endloop
  endfacet
  facet normal 0.86608 0.499905 0
    outer loop
      vertex 100.184 30.02 9.5
      vertex 102 26.8738 12
      vertex 102 26.8738 9.5
    endloop
  endfacet
  facet normal 0 1 -0
    outer loop
      vertex 125 26.8738 9.5
      vertex 119 26.8738 12
      vertex 125 26.8738 12
    endloop
  endfacet
  facet normal 0 1 0
    outer loop
      vertex 119 26.8738 12
      vertex 125 26.8738 9.5
      vertex 119 26.8738 9.5
    endloop
  endfacet
  facet normal -0.866027 0.499997 0
    outer loop
      vertex 125 26.8738 9.5
      vertex 128 32.07 12
      vertex 128 32.07 9.5
    endloop
  endfacet
  facet normal -0.866027 0.499997 0
    outer loop
      vertex 128 32.07 12
      vertex 125 26.8738 9.5
      vertex 125 26.8738 12
    endloop
  endfacet
  facet normal 0 -1 0
    outer loop
      vertex 119 37.2662 9.5
      vertex 125 37.2662 12
      vertex 119 37.2662 12
    endloop
  endfacet
  facet normal 0 -1 -0
    outer loop
      vertex 125 37.2662 12
      vertex 119 37.2662 9.5
      vertex 125 37.2662 9.5
    endloop
  endfacet
  facet normal -0.866027 -0.499997 0
    outer loop
      vertex 128 32.07 9.5
      vertex 125 37.2662 12
      vertex 125 37.2662 9.5
    endloop
  endfacet
  facet normal -0.866027 -0.499997 0
    outer loop
      vertex 125 37.2662 12
      vertex 128 32.07 9.5
      vertex 128 32.07 12
    endloop
  endfacet
  facet normal 0.86608 -0.499905 0
    outer loop
      vertex 117.184 34.12 12
      vertex 119 37.2662 9.5
      vertex 119 37.2662 12
    endloop
  endfacet
  facet normal 0.86608 -0.499905 0
    outer loop
      vertex 119 37.2662 9.5
      vertex 117.184 34.12 12
      vertex 117.184 34.12 9.5
    endloop
  endfacet
  facet normal 0.86608 0.499905 0
    outer loop
      vertex 119 26.8738 12
      vertex 117.184 30.02 9.5
      vertex 117.184 30.02 12
    endloop
  endfacet
  facet normal 0.86608 0.499905 0
    outer loop
      vertex 117.184 30.02 9.5
      vertex 119 26.8738 12
      vertex 119 26.8738 9.5
    endloop
  endfacet
  facet normal 0 -1 0
    outer loop
      vertex 18.0164 15.25 9.5
      vertex 25.3836 15.25 12
      vertex 18.0164 15.25 12
    endloop
  endfacet
  facet normal 0 -1 -0
    outer loop
      vertex 25.3836 15.25 12
      vertex 18.0164 15.25 9.5
      vertex 25.3836 15.25 9.5
    endloop
  endfacet
  facet normal 0 1 -0
    outer loop
      vertex 25.3836 11.15 9.5
      vertex 18.0164 11.15 12
      vertex 25.3836 11.15 12
    endloop
  endfacet
  facet normal 0 1 0
    outer loop
      vertex 18.0164 11.15 12
      vertex 25.3836 11.15 9.5
      vertex 18.0164 11.15 9.5
    endloop
  endfacet
  facet normal 0 -1 0
    outer loop
      vertex 18.0164 34.12 9.5
      vertex 25.3836 34.12 12
      vertex 18.0164 34.12 12
    endloop
  endfacet
  facet normal 0 -1 -0
    outer loop
      vertex 25.3836 34.12 12
      vertex 18.0164 34.12 9.5
      vertex 25.3836 34.12 9.5
    endloop
  endfacet
  facet normal 0 1 -0
    outer loop
      vertex 25.3836 30.02 9.5
      vertex 18.0164 30.02 12
      vertex 25.3836 30.02 12
    endloop
  endfacet
  facet normal 0 1 0
    outer loop
      vertex 18.0164 30.02 12
      vertex 25.3836 30.02 9.5
      vertex 18.0164 30.02 9.5
    endloop
  endfacet
  facet normal 0 -1 0
    outer loop
      vertex 58.8164 15.25 9.5
      vertex 66.1836 15.25 12
      vertex 58.8164 15.25 12
    endloop
  endfacet
  facet normal 0 -1 -0
    outer loop
      vertex 66.1836 15.25 12
      vertex 58.8164 15.25 9.5
      vertex 66.1836 15.25 9.5
    endloop
  endfacet
  facet normal 0 1 -0
    outer loop
      vertex 66.1836 11.15 9.5
      vertex 58.8164 11.15 12
      vertex 66.1836 11.15 12
    endloop
  endfacet
  facet normal 0 1 0
    outer loop
      vertex 58.8164 11.15 12
      vertex 66.1836 11.15 9.5
      vertex 58.8164 11.15 9.5
    endloop
  endfacet
  facet normal 0 -1 0
    outer loop
      vertex 75.8164 15.25 9.5
      vertex 83.1836 15.25 12
      vertex 75.8164 15.25 12
    endloop
  endfacet
  facet normal 0 -1 -0
    outer loop
      vertex 83.1836 15.25 12
      vertex 75.8164 15.25 9.5
      vertex 83.1836 15.25 9.5
    endloop
  endfacet
  facet normal 0 1 -0
    outer loop
      vertex 83.1836 11.15 9.5
      vertex 75.8164 11.15 12
      vertex 83.1836 11.15 12
    endloop
  endfacet
  facet normal 0 1 0
    outer loop
      vertex 75.8164 11.15 12
      vertex 83.1836 11.15 9.5
      vertex 75.8164 11.15 9.5
    endloop
  endfacet
  facet normal 0 -1 0
    outer loop
      vertex 92.8164 15.25 9.5
      vertex 100.184 15.25 12
      vertex 92.8164 15.25 12
    endloop
  endfacet
  facet normal 0 -1 -0
    outer loop
      vertex 100.184 15.25 12
      vertex 92.8164 15.25 9.5
      vertex 100.184 15.25 9.5
    endloop
  endfacet
  facet normal 0 1 -0
    outer loop
      vertex 100.184 11.15 9.5
      vertex 92.8164 11.15 12
      vertex 100.184 11.15 12
    endloop
  endfacet
  facet normal 0 1 0
    outer loop
      vertex 92.8164 11.15 12
      vertex 100.184 11.15 9.5
      vertex 92.8164 11.15 9.5
    endloop
  endfacet
  facet normal 0 -1 0
    outer loop
      vertex 109.816 15.25 9.5
      vertex 117.184 15.25 12
      vertex 109.816 15.25 12
    endloop
  endfacet
  facet normal 0 -1 -0
    outer loop
      vertex 117.184 15.25 12
      vertex 109.816 15.25 9.5
      vertex 117.184 15.25 9.5
    endloop
  endfacet
  facet normal 0 1 -0
    outer loop
      vertex 117.184 11.15 9.5
      vertex 109.816 11.15 12
      vertex 117.184 11.15 12
    endloop
  endfacet
  facet normal 0 1 0
    outer loop
      vertex 109.816 11.15 12
      vertex 117.184 11.15 9.5
      vertex 109.816 11.15 9.5
    endloop
  endfacet
  facet normal 0 -1 0
    outer loop
      vertex 58.8164 34.12 9.5
      vertex 66.1836 34.12 12
      vertex 58.8164 34.12 12
    endloop
  endfacet
  facet normal 0 -1 -0
    outer loop
      vertex 66.1836 34.12 12
      vertex 58.8164 34.12 9.5
      vertex 66.1836 34.12 9.5
    endloop
  endfacet
  facet normal 0 1 -0
    outer loop
      vertex 66.1836 30.02 9.5
      vertex 58.8164 30.02 12
      vertex 66.1836 30.02 12
    endloop
  endfacet
  facet normal 0 1 0
    outer loop
      vertex 58.8164 30.02 12
      vertex 66.1836 30.02 9.5
      vertex 58.8164 30.02 9.5
    endloop
  endfacet
  facet normal 0 -1 0
    outer loop
      vertex 75.8164 34.12 9.5
      vertex 83.1836 34.12 12
      vertex 75.8164 34.12 12
    endloop
  endfacet
  facet normal 0 -1 -0
    outer loop
      vertex 83.1836 34.12 12
      vertex 75.8164 34.12 9.5
      vertex 83.1836 34.12 9.5
    endloop
  endfacet
  facet normal 0 1 -0
    outer loop
      vertex 83.1836 30.02 9.5
      vertex 75.8164 30.02 12
      vertex 83.1836 30.02 12
    endloop
  endfacet
  facet normal 0 1 0
    outer loop
      vertex 75.8164 30.02 12
      vertex 83.1836 30.02 9.5
      vertex 75.8164 30.02 9.5
    endloop
  endfacet
  facet normal 0 -1 0
    outer loop
      vertex 92.8164 34.12 9.5
      vertex 100.184 34.12 12
      vertex 92.8164 34.12 12
    endloop
  endfacet
  facet normal 0 -1 -0
    outer loop
      vertex 100.184 34.12 12
      vertex 92.8164 34.12 9.5
      vertex 100.184 34.12 9.5
    endloop
  endfacet
  facet normal 0 1 -0
    outer loop
      vertex 100.184 30.02 9.5
      vertex 92.8164 30.02 12
      vertex 100.184 30.02 12
    endloop
  endfacet
  facet normal 0 1 0
    outer loop
      vertex 92.8164 30.02 12
      vertex 100.184 30.02 9.5
      vertex 92.8164 30.02 9.5
    endloop
  endfacet
  facet normal 0 -1 0
    outer loop
      vertex 109.816 34.12 9.5
      vertex 117.184 34.12 12
      vertex 109.816 34.12 12
    endloop
  endfacet
  facet normal 0 -1 -0
    outer loop
      vertex 117.184 34.12 12
      vertex 109.816 34.12 9.5
      vertex 117.184 34.12 9.5
    endloop
  endfacet
  facet normal 0 1 -0
    outer loop
      vertex 117.184 30.02 9.5
      vertex 109.816 30.02 12
      vertex 117.184 30.02 12
    endloop
  endfacet
  facet normal 0 1 0
    outer loop
      vertex 109.816 30.02 12
      vertex 117.184 30.02 9.5
      vertex 109.816 30.02 9.5
    endloop
  endfacet
  facet normal -1 0 0
    outer loop
      vertex 27.04 0 0
      vertex 27.04 5.408 8.316
      vertex 27.04 1.25 0
    endloop
  endfacet
  facet normal -1 -0 0
    outer loop
      vertex 27.04 5.408 8.316
      vertex 27.04 0 0
      vertex 27.04 5.408 10.816
    endloop
  endfacet
  facet normal 0 -1 0
    outer loop
      vertex 0 5.408 0
      vertex 5.15658 5.408 7.81317
      vertex 4.83069 5.408 9.66139
    endloop
  endfacet
  facet normal 0 -1 0
    outer loop
      vertex 5.15658 5.408 7.81317
      vertex 0 5.408 0
      vertex 1.25 5.408 0
    endloop
  endfacet
  facet normal 0 -1 0
    outer loop
      vertex 6.18489 5.408 8.316
      vertex 27.04 5.408 10.816
      vertex 5.74407 5.408 10.816
    endloop
  endfacet
  facet normal 0 -1 -0
    outer loop
      vertex 27.04 5.408 10.816
      vertex 6.18489 5.408 8.316
      vertex 27.04 5.408 8.316
    endloop
  endfacet
  facet normal -1 0 0
    outer loop
      vertex 81.12 0 0
      vertex 81.12 5.408 8.316
      vertex 81.12 1.25 0
    endloop
  endfacet
  facet normal -1 -0 0
    outer loop
      vertex 81.12 5.408 8.316
      vertex 81.12 0 0
      vertex 81.12 5.408 10.816
    endloop
  endfacet
  facet normal 1 0 0
    outer loop
      vertex 54.08 0 0
      vertex 54.08 5.408 8.316
      vertex 54.08 5.408 10.816
    endloop
  endfacet
  facet normal 1 0 0
    outer loop
      vertex 54.08 5.408 8.316
      vertex 54.08 0 0
      vertex 54.08 1.25 0
    endloop
  endfacet
  facet normal 0 -1 0
    outer loop
      vertex 54.08 5.408 8.316
      vertex 81.12 5.408 10.816
      vertex 54.08 5.408 10.816
    endloop
  endfacet
  facet normal 0 -1 -0
    outer loop
      vertex 81.12 5.408 10.816
      vertex 54.08 5.408 8.316
      vertex 81.12 5.408 8.316
    endloop
  endfacet
  facet normal 1 0 0
    outer loop
      vertex 108.16 0 0
      vertex 108.16 5.408 8.316
      vertex 108.16 5.408 10.816
    endloop
  endfacet
  facet normal 1 0 0
    outer loop
      vertex 108.16 5.408 8.316
      vertex 108.16 0 0
      vertex 108.16 1.25 0
    endloop
  endfacet
  facet normal 0 -1 0
    outer loop
      vertex 108.16 5.408 8.316
      vertex 129.792 5.408 10.816
      vertex 108.16 5.408 10.816
    endloop
  endfacet
  facet normal 0 -1 0
    outer loop
      vertex 129.792 5.408 8.316
      vertex 129.792 5.408 10.816
      vertex 108.16 5.408 8.316
    endloop
  endfacet
  facet normal 0 -1 0
    outer loop
      vertex 135.2 5.408 0
      vertex 129.792 5.408 8.316
      vertex 133.95 5.408 0
    endloop
  endfacet
  facet normal 0 -1 0
    outer loop
      vertex 129.792 5.408 8.316
      vertex 135.2 5.408 0
      vertex 129.792 5.408 10.816
    endloop
  endfacet
  facet normal -1 0 0
    outer loop
      vertex 54.08 39.862 8.316
      vertex 54.08 45.27 0
      vertex 54.08 44.02 0
    endloop
  endfacet
  facet normal -1 0 0
    outer loop
      vertex 54.08 45.27 0
      vertex 54.08 39.862 8.316
      vertex 54.08 39.862 10.816
    endloop
  endfacet
  facet normal 1 -0 0
    outer loop
      vertex 27.04 39.862 8.316
      vertex 27.04 45.27 0
      vertex 27.04 39.862 10.816
    endloop
  endfacet
  facet normal 1 0 0
    outer loop
      vertex 27.04 45.27 0
      vertex 27.04 39.862 8.316
      vertex 27.04 44.02 0
    endloop
  endfacet
  facet normal 0 1 -0
    outer loop
      vertex 54.08 39.862 8.316
      vertex 27.04 39.862 10.816
      vertex 54.08 39.862 10.816
    endloop
  endfacet
  facet normal 0 1 0
    outer loop
      vertex 27.04 39.862 10.816
      vertex 54.08 39.862 8.316
      vertex 27.04 39.862 8.316
    endloop
  endfacet
  facet normal -1 0 0
    outer loop
      vertex 108.16 39.862 8.316
      vertex 108.16 45.27 0
      vertex 108.16 44.02 0
    endloop
  endfacet
  facet normal -1 0 0
    outer loop
      vertex 108.16 45.27 0
      vertex 108.16 39.862 8.316
      vertex 108.16 39.862 10.816
    endloop
  endfacet
  facet normal 1 -0 0
    outer loop
      vertex 81.12 39.862 8.316
      vertex 81.12 45.27 0
      vertex 81.12 39.862 10.816
    endloop
  endfacet
  facet normal 1 0 0
    outer loop
      vertex 81.12 45.27 0
      vertex 81.12 39.862 8.316
      vertex 81.12 44.02 0
    endloop
  endfacet
  facet normal 0 1 -0
    outer loop
      vertex 108.16 39.862 8.316
      vertex 81.12 39.862 10.816
      vertex 108.16 39.862 10.816
    endloop
  endfacet
  facet normal 0 1 0
    outer loop
      vertex 81.12 39.862 10.816
      vertex 108.16 39.862 8.316
      vertex 81.12 39.862 8.316
    endloop
  endfacet
endsolid OpenSCAD_Model
