solid OpenSCAD_Model
  facet normal 0 0.894427 0.447214
    outer loop
      vertex 57.6 36 0
      vertex 38.4 32.16 7.68
      vertex 57.6 32.16 7.68
    endloop
  endfacet
  facet normal 0 0.894427 0.447214
    outer loop
      vertex 38.4 32.16 7.68
      vertex 57.6 36 0
      vertex 38.4 36 0
    endloop
  endfacet
  facet normal 0 0.894427 0.447214
    outer loop
      vertex 57.6 32.16 7.68
      vertex 5 31 10
      vertex 91 31 10
    endloop
  endfacet
  facet normal -0 0.894427 0.447214
    outer loop
      vertex 57.6 32.16 7.68
      vertex 91 31 10
      vertex 76.8 32.16 7.68
    endloop
  endfacet
  facet normal -0 0.894427 0.447214
    outer loop
      vertex 76.8 36 0
      vertex 91 31 10
      vertex 96 36 0
    endloop
  endfacet
  facet normal -2.91377e-16 0.894427 0.447214
    outer loop
      vertex 91 31 10
      vertex 76.8 36 0
      vertex 76.8 32.16 7.68
    endloop
  endfacet
  facet normal -0 0.894427 0.447214
    outer loop
      vertex 38.4 32.16 7.68
      vertex 5 31 10
      vertex 57.6 32.16 7.68
    endloop
  endfacet
  facet normal -0 0.894427 0.447214
    outer loop
      vertex 19.2 32.16 7.68
      vertex 5 31 10
      vertex 38.4 32.16 7.68
    endloop
  endfacet
  facet normal 1.00272e-06 0.894425 0.447219
    outer loop
      vertex 6.73288 34.785 2.4301
      vertex 5 31 10
      vertex 19.2 32.16 7.68
    endloop
  endfacet
  facet normal 2.16499e-05 0.894423 0.447222
    outer loop
      vertex 5 31 10
      vertex 6.73288 34.785 2.4301
      vertex 4.8969 31.1031 9.79381
    endloop
  endfacet
  facet normal -1.82108e-05 0.894472 0.447124
    outer loop
      vertex 6.73288 34.785 2.4301
      vertex 19.2 36 0
      vertex 5.66556 34.918 2.16399
    endloop
  endfacet
  facet normal 3.58714e-06 0.894427 0.447214
    outer loop
      vertex 19.2 36 0
      vertex 6.73288 34.785 2.4301
      vertex 19.2 32.16 7.68
    endloop
  endfacet
  facet normal 3.01546e-06 0.89443 0.447209
    outer loop
      vertex 5.66556 34.918 2.16399
      vertex 0 36 0
      vertex 4.14044 31.8596 8.28088
    endloop
  endfacet
  facet normal -0 0.894426 0.447215
    outer loop
      vertex 0 36 0
      vertex 5.66556 34.918 2.16399
      vertex 19.2 36 0
    endloop
  endfacet
  facet normal 0 -0.894427 0.447214
    outer loop
      vertex 57.6 0 0
      vertex 76.8 3.84 7.68
      vertex 57.6 3.84 7.68
    endloop
  endfacet
  facet normal 0 -0.894427 0.447214
    outer loop
      vertex 76.8 3.84 7.68
      vertex 57.6 0 0
      vertex 76.8 0 0
    endloop
  endfacet
  facet normal 0 -0.894427 0.447214
    outer loop
      vertex 19.2 0 0
      vertex 38.4 3.84 7.68
      vertex 19.2 3.84 7.68
    endloop
  endfacet
  facet normal 0 -0.894427 0.447214
    outer loop
      vertex 38.4 3.84 7.68
      vertex 19.2 0 0
      vertex 38.4 0 0
    endloop
  endfacet
  facet normal 3.17675e-05 -0.894425 0.447218
    outer loop
      vertex 5.42393 3.84 7.68
      vertex 5 5 10
      vertex 4.8969 4.8969 9.79381
    endloop
  endfacet
  facet normal 0 -0.894427 0.447214
    outer loop
      vertex 5 5 10
      vertex 5.42393 3.84 7.68
      vertex 19.2 3.84 7.68
    endloop
  endfacet
  facet normal 0 -0.894427 0.447214
    outer loop
      vertex 5 5 10
      vertex 19.2 3.84 7.68
      vertex 38.4 3.84 7.68
    endloop
  endfacet
  facet normal 0 -0.894427 0.447214
    outer loop
      vertex 5 5 10
      vertex 38.4 3.84 7.68
      vertex 91 5 10
    endloop
  endfacet
  facet normal 0 -0.894427 0.447214
    outer loop
      vertex 57.6 3.84 7.68
      vertex 91 5 10
      vertex 38.4 3.84 7.68
    endloop
  endfacet
  facet normal 0 -0.894427 0.447214
    outer loop
      vertex 76.8 3.84 7.68
      vertex 91 5 10
      vertex 57.6 3.84 7.68
    endloop
  endfacet
  facet normal 0 -0.894427 0.447214
    outer loop
      vertex 91 5 10
      vertex 76.8 3.84 7.68
      vertex 92.16 3.84 7.68
    endloop
  endfacet
  facet normal 0 -0.894427 0.447214
    outer loop
      vertex 4.14044 4.14044 8.28088
      vertex 3.84 3.84 7.68
      vertex 4.29026 3.84 7.68
    endloop
  endfacet
  facet normal -0.894419 0 0.447231
    outer loop
      vertex 4.8969 31.1031 9.79381
      vertex 5 5 10
      vertex 5 31 10
    endloop
  endfacet
  facet normal -0.894419 0 0.447231
    outer loop
      vertex 5 5 10
      vertex 4.8969 31.1031 9.79381
      vertex 4.8969 4.8969 9.79381
    endloop
  endfacet
  facet normal -0.894427 0 0.447214
    outer loop
      vertex 0 3.84 0
      vertex 4.14044 31.8596 8.28088
      vertex 0 36 0
    endloop
  endfacet
  facet normal -0.894427 0 0.447214
    outer loop
      vertex 4.14044 31.8596 8.28088
      vertex 0 3.84 0
      vertex 4.14044 4.14044 8.28088
    endloop
  endfacet
  facet normal -0.894427 0 0.447214
    outer loop
      vertex 4.14044 4.14044 8.28088
      vertex 0 3.84 0
      vertex 3.84 3.84 7.68
    endloop
  endfacet
  facet normal 0 0 1
    outer loop
      vertex 25.5 15.3301 10
      vertex 34.5 15.3301 10
      vertex 25.5 20.6699 10
    endloop
  endfacet
  facet normal 0 0 1
    outer loop
      vertex 34.5 15.3301 10
      vertex 25.5 15.3301 10
      vertex 28 11 10
    endloop
  endfacet
  facet normal -0 0 1
    outer loop
      vertex 20.5 20.6699 10
      vertex 25.5 15.3301 10
      vertex 25.5 20.6699 10
    endloop
  endfacet
  facet normal 0 0 1
    outer loop
      vertex 20.5 20.6699 10
      vertex 20.5 15.3301 10
      vertex 25.5 15.3301 10
    endloop
  endfacet
  facet normal 0 0 1
    outer loop
      vertex 13.5 20.6699 10
      vertex 20.5 20.6699 10
      vertex 19.1547 23 10
    endloop
  endfacet
  facet normal 0 0 1
    outer loop
      vertex 20.5 20.6699 10
      vertex 13.5 20.6699 10
      vertex 20.5 15.3301 10
    endloop
  endfacet
  facet normal 0 0 1
    outer loop
      vertex 13.5 20.6699 10
      vertex 19.1547 23 10
      vertex 14.8453 23 10
    endloop
  endfacet
  facet normal 0 0 1
    outer loop
      vertex 13.5 15.3301 10
      vertex 20.5 15.3301 10
      vertex 13.5 20.6699 10
    endloop
  endfacet
  facet normal 0 0 1
    outer loop
      vertex 20.5 15.3301 10
      vertex 13.5 15.3301 10
      vertex 19.1547 13 10
    endloop
  endfacet
  facet normal 0 0 1
    outer loop
      vertex 19.1547 13 10
      vertex 13.5 15.3301 10
      vertex 14.8453 13 10
    endloop
  endfacet
  facet normal -0 0 1
    outer loop
      vertex 8.5 20.6699 10
      vertex 13.5 15.3301 10
      vertex 13.5 20.6699 10
    endloop
  endfacet
  facet normal 0 0 1
    outer loop
      vertex 8.5 20.6699 10
      vertex 8.5 15.3301 10
      vertex 13.5 15.3301 10
    endloop
  endfacet
  facet normal 0 0 1
    outer loop
      vertex 6 25 10
      vertex 8.5 15.3301 10
      vertex 8.5 20.6699 10
    endloop
  endfacet
  facet normal 0 0 1
    outer loop
      vertex 8.5 15.3301 10
      vertex 6 25 10
      vertex 6 11 10
    endloop
  endfacet
  facet normal -0 0 1
    outer loop
      vertex 87.5 20.6699 10
      vertex 90 11 10
      vertex 90 25 10
    endloop
  endfacet
  facet normal 0 0 1
    outer loop
      vertex 87.5 20.6699 10
      vertex 87.5 15.3301 10
      vertex 90 11 10
    endloop
  endfacet
  facet normal -0 0 1
    outer loop
      vertex 82.5 20.6699 10
      vertex 87.5 15.3301 10
      vertex 87.5 20.6699 10
    endloop
  endfacet
  facet normal 0 0 1
    outer loop
      vertex 82.5 20.6699 10
      vertex 82.5 15.3301 10
      vertex 87.5 15.3301 10
    endloop
  endfacet
  facet normal 0 0 1
    outer loop
      vertex 75.5 20.6699 10
      vertex 82.5 20.6699 10
      vertex 81.1547 23 10
    endloop
  endfacet
  facet normal 0 0 1
    outer loop
      vertex 82.5 20.6699 10
      vertex 75.5 20.6699 10
      vertex 82.5 15.3301 10
    endloop
  endfacet
  facet normal 0 0 1
    outer loop
      vertex 75.5 20.6699 10
      vertex 81.1547 23 10
      vertex 76.8453 23 10
    endloop
  endfacet
  facet normal 0 0 1
    outer loop
      vertex 75.5 15.3301 10
      vertex 82.5 15.3301 10
      vertex 75.5 20.6699 10
    endloop
  endfacet
  facet normal 0 0 1
    outer loop
      vertex 82.5 15.3301 10
      vertex 75.5 15.3301 10
      vertex 81.1547 13 10
    endloop
  endfacet
  facet normal 0 0 1
    outer loop
      vertex 81.1547 13 10
      vertex 75.5 15.3301 10
      vertex 76.8453 13 10
    endloop
  endfacet
  facet normal -0 0 1
    outer loop
      vertex 70.5 20.6699 10
      vertex 75.5 15.3301 10
      vertex 75.5 20.6699 10
    endloop
  endfacet
  facet normal 0 0 1
    outer loop
      vertex 70.5 20.6699 10
      vertex 70.5 15.3301 10
      vertex 75.5 15.3301 10
    endloop
  endfacet
  facet normal 0 0 1
    outer loop
      vertex 63.5 20.6699 10
      vertex 70.5 20.6699 10
      vertex 69.1547 23 10
    endloop
  endfacet
  facet normal 0 0 1
    outer loop
      vertex 70.5 20.6699 10
      vertex 63.5 20.6699 10
      vertex 70.5 15.3301 10
    endloop
  endfacet
  facet normal 0 0 1
    outer loop
      vertex 63.5 20.6699 10
      vertex 69.1547 23 10
      vertex 64.8453 23 10
    endloop
  endfacet
  facet normal 0 0 1
    outer loop
      vertex 63.5 15.3301 10
      vertex 70.5 15.3301 10
      vertex 63.5 20.6699 10
    endloop
  endfacet
  facet normal 0 0 1
    outer loop
      vertex 70.5 15.3301 10
      vertex 63.5 15.3301 10
      vertex 69.1547 13 10
    endloop
  endfacet
  facet normal 0 0 1
    outer loop
      vertex 69.1547 13 10
      vertex 63.5 15.3301 10
      vertex 64.8453 13 10
    endloop
  endfacet
  facet normal -0 0 1
    outer loop
      vertex 58.5 20.6699 10
      vertex 63.5 15.3301 10
      vertex 63.5 20.6699 10
    endloop
  endfacet
  facet normal 0 0 1
    outer loop
      vertex 58.5 20.6699 10
      vertex 58.5 15.3301 10
      vertex 63.5 15.3301 10
    endloop
  endfacet
  facet normal 0 0 1
    outer loop
      vertex 51.5 20.6699 10
      vertex 58.5 20.6699 10
      vertex 57.1547 23 10
    endloop
  endfacet
  facet normal 0 0 1
    outer loop
      vertex 58.5 20.6699 10
      vertex 51.5 20.6699 10
      vertex 58.5 15.3301 10
    endloop
  endfacet
  facet normal 0 0 1
    outer loop
      vertex 51.5 20.6699 10
      vertex 57.1547 23 10
      vertex 52.8453 23 10
    endloop
  endfacet
  facet normal 0 0 1
    outer loop
      vertex 51.5 15.3301 10
      vertex 58.5 15.3301 10
      vertex 51.5 20.6699 10
    endloop
  endfacet
  facet normal 0 0 1
    outer loop
      vertex 58.5 15.3301 10
      vertex 51.5 15.3301 10
      vertex 57.1547 13 10
    endloop
  endfacet
  facet normal 0 0 1
    outer loop
      vertex 57.1547 13 10
      vertex 51.5 15.3301 10
      vertex 52.8453 13 10
    endloop
  endfacet
  facet normal -0 0 1
    outer loop
      vertex 46.5 20.6699 10
      vertex 51.5 15.3301 10
      vertex 51.5 20.6699 10
    endloop
  endfacet
  facet normal 0 0 1
    outer loop
      vertex 46.5 20.6699 10
      vertex 46.5 15.3301 10
      vertex 51.5 15.3301 10
    endloop
  endfacet
  facet normal 0 0 1
    outer loop
      vertex 39.5 20.6699 10
      vertex 46.5 20.6699 10
      vertex 45.1547 23 10
    endloop
  endfacet
  facet normal 0 0 1
    outer loop
      vertex 46.5 20.6699 10
      vertex 39.5 20.6699 10
      vertex 46.5 15.3301 10
    endloop
  endfacet
  facet normal 0 0 1
    outer loop
      vertex 39.5 20.6699 10
      vertex 45.1547 23 10
      vertex 40.8453 23 10
    endloop
  endfacet
  facet normal 0 0 1
    outer loop
      vertex 39.5 15.3301 10
      vertex 46.5 15.3301 10
      vertex 39.5 20.6699 10
    endloop
  endfacet
  facet normal 0 0 1
    outer loop
      vertex 46.5 15.3301 10
      vertex 39.5 15.3301 10
      vertex 45.1547 13 10
    endloop
  endfacet
  facet normal 0 0 1
    outer loop
      vertex 45.1547 13 10
      vertex 39.5 15.3301 10
      vertex 40.8453 13 10
    endloop
  endfacet
  facet normal -0 0 1
    outer loop
      vertex 34.5 20.6699 10
      vertex 39.5 15.3301 10
      vertex 39.5 20.6699 10
    endloop
  endfacet
  facet normal 0 0 1
    outer loop
      vertex 34.5 20.6699 10
      vertex 34.5 15.3301 10
      vertex 39.5 15.3301 10
    endloop
  endfacet
  facet normal -0 0 1
    outer loop
      vertex 28 25 10
      vertex 34.5 20.6699 10
      vertex 32 25 10
    endloop
  endfacet
  facet normal 0 0 1
    outer loop
      vertex 25.5 20.6699 10
      vertex 34.5 20.6699 10
      vertex 28 25 10
    endloop
  endfacet
  facet normal 0 0 1
    outer loop
      vertex 91 31 10
      vertex 90 25 10
      vertex 91 5 10
    endloop
  endfacet
  facet normal 0 0 1
    outer loop
      vertex 91 31 10
      vertex 87.5 29.3301 10
      vertex 90 25 10
    endloop
  endfacet
  facet normal 0 0 1
    outer loop
      vertex 91 31 10
      vertex 82.5 29.3301 10
      vertex 87.5 29.3301 10
    endloop
  endfacet
  facet normal 0 0 1
    outer loop
      vertex 82.5 29.3301 10
      vertex 76.8453 27 10
      vertex 81.1547 27 10
    endloop
  endfacet
  facet normal 0 0 1
    outer loop
      vertex 82.5 29.3301 10
      vertex 75.5 29.3301 10
      vertex 76.8453 27 10
    endloop
  endfacet
  facet normal 0 0 1
    outer loop
      vertex 91 31 10
      vertex 75.5 29.3301 10
      vertex 82.5 29.3301 10
    endloop
  endfacet
  facet normal 0 0 1
    outer loop
      vertex 91 31 10
      vertex 70.5 29.3301 10
      vertex 75.5 29.3301 10
    endloop
  endfacet
  facet normal 0 0 1
    outer loop
      vertex 70.5 29.3301 10
      vertex 64.8453 27 10
      vertex 69.1547 27 10
    endloop
  endfacet
  facet normal 0 0 1
    outer loop
      vertex 70.5 29.3301 10
      vertex 63.5 29.3301 10
      vertex 64.8453 27 10
    endloop
  endfacet
  facet normal 0 0 1
    outer loop
      vertex 91 31 10
      vertex 63.5 29.3301 10
      vertex 70.5 29.3301 10
    endloop
  endfacet
  facet normal 0 0 1
    outer loop
      vertex 91 31 10
      vertex 58.5 29.3301 10
      vertex 63.5 29.3301 10
    endloop
  endfacet
  facet normal 0 0 1
    outer loop
      vertex 58.5 29.3301 10
      vertex 52.8453 27 10
      vertex 57.1547 27 10
    endloop
  endfacet
  facet normal 0 0 1
    outer loop
      vertex 58.5 29.3301 10
      vertex 51.5 29.3301 10
      vertex 52.8453 27 10
    endloop
  endfacet
  facet normal 0 0 1
    outer loop
      vertex 91 31 10
      vertex 51.5 29.3301 10
      vertex 58.5 29.3301 10
    endloop
  endfacet
  facet normal 0 0 1
    outer loop
      vertex 91 31 10
      vertex 46.5 29.3301 10
      vertex 51.5 29.3301 10
    endloop
  endfacet
  facet normal 0 0 1
    outer loop
      vertex 46.5 29.3301 10
      vertex 40.8453 27 10
      vertex 45.1547 27 10
    endloop
  endfacet
  facet normal 0 0 1
    outer loop
      vertex 46.5 29.3301 10
      vertex 39.5 29.3301 10
      vertex 40.8453 27 10
    endloop
  endfacet
  facet normal -0 0 1
    outer loop
      vertex 5 31 10
      vertex 46.5 29.3301 10
      vertex 91 31 10
    endloop
  endfacet
  facet normal 0 0 1
    outer loop
      vertex 46.5 29.3301 10
      vertex 5 31 10
      vertex 39.5 29.3301 10
    endloop
  endfacet
  facet normal 0 0 1
    outer loop
      vertex 34.5 20.6699 10
      vertex 25.5 20.6699 10
      vertex 34.5 15.3301 10
    endloop
  endfacet
  facet normal 0 0 1
    outer loop
      vertex 34.5 29.3301 10
      vertex 28 25 10
      vertex 32 25 10
    endloop
  endfacet
  facet normal 0 0 1
    outer loop
      vertex 34.5 29.3301 10
      vertex 25.5 29.3301 10
      vertex 28 25 10
    endloop
  endfacet
  facet normal 0 0 1
    outer loop
      vertex 39.5 29.3301 10
      vertex 5 31 10
      vertex 34.5 29.3301 10
    endloop
  endfacet
  facet normal 0 0 1
    outer loop
      vertex 34.5 29.3301 10
      vertex 5 31 10
      vertex 25.5 29.3301 10
    endloop
  endfacet
  facet normal 0 0 1
    outer loop
      vertex 20.5 29.3301 10
      vertex 14.8453 27 10
      vertex 19.1547 27 10
    endloop
  endfacet
  facet normal 0 0 1
    outer loop
      vertex 20.5 29.3301 10
      vertex 13.5 29.3301 10
      vertex 14.8453 27 10
    endloop
  endfacet
  facet normal 0 0 1
    outer loop
      vertex 25.5 29.3301 10
      vertex 5 31 10
      vertex 20.5 29.3301 10
    endloop
  endfacet
  facet normal 0 0 1
    outer loop
      vertex 20.5 29.3301 10
      vertex 5 31 10
      vertex 13.5 29.3301 10
    endloop
  endfacet
  facet normal 0 0 1
    outer loop
      vertex 6 25 10
      vertex 5 31 10
      vertex 6 11 10
    endloop
  endfacet
  facet normal 0 0 1
    outer loop
      vertex 8.5 29.3301 10
      vertex 5 31 10
      vertex 6 25 10
    endloop
  endfacet
  facet normal 0 0 1
    outer loop
      vertex 13.5 29.3301 10
      vertex 5 31 10
      vertex 8.5 29.3301 10
    endloop
  endfacet
  facet normal -0 0 1
    outer loop
      vertex 90 11 10
      vertex 91 5 10
      vertex 90 25 10
    endloop
  endfacet
  facet normal -0 0 1
    outer loop
      vertex 87.5 6.66987 10
      vertex 91 5 10
      vertex 90 11 10
    endloop
  endfacet
  facet normal -0 0 1
    outer loop
      vertex 82.5 6.66987 10
      vertex 91 5 10
      vertex 87.5 6.66987 10
    endloop
  endfacet
  facet normal -0 0 1
    outer loop
      vertex 76.8453 9 10
      vertex 82.5 6.66987 10
      vertex 81.1547 9 10
    endloop
  endfacet
  facet normal 0 0 1
    outer loop
      vertex 75.5 6.66987 10
      vertex 82.5 6.66987 10
      vertex 76.8453 9 10
    endloop
  endfacet
  facet normal -0 0 1
    outer loop
      vertex 75.5 6.66987 10
      vertex 91 5 10
      vertex 82.5 6.66987 10
    endloop
  endfacet
  facet normal -0 0 1
    outer loop
      vertex 70.5 6.66987 10
      vertex 91 5 10
      vertex 75.5 6.66987 10
    endloop
  endfacet
  facet normal -0 0 1
    outer loop
      vertex 64.8453 9 10
      vertex 70.5 6.66987 10
      vertex 69.1547 9 10
    endloop
  endfacet
  facet normal 0 0 1
    outer loop
      vertex 63.5 6.66987 10
      vertex 70.5 6.66987 10
      vertex 64.8453 9 10
    endloop
  endfacet
  facet normal -0 0 1
    outer loop
      vertex 63.5 6.66987 10
      vertex 91 5 10
      vertex 70.5 6.66987 10
    endloop
  endfacet
  facet normal -0 0 1
    outer loop
      vertex 58.5 6.66987 10
      vertex 91 5 10
      vertex 63.5 6.66987 10
    endloop
  endfacet
  facet normal -0 0 1
    outer loop
      vertex 52.8453 9 10
      vertex 58.5 6.66987 10
      vertex 57.1547 9 10
    endloop
  endfacet
  facet normal 0 0 1
    outer loop
      vertex 51.5 6.66987 10
      vertex 58.5 6.66987 10
      vertex 52.8453 9 10
    endloop
  endfacet
  facet normal -0 0 1
    outer loop
      vertex 51.5 6.66987 10
      vertex 91 5 10
      vertex 58.5 6.66987 10
    endloop
  endfacet
  facet normal -0 0 1
    outer loop
      vertex 46.5 6.66987 10
      vertex 91 5 10
      vertex 51.5 6.66987 10
    endloop
  endfacet
  facet normal -0 0 1
    outer loop
      vertex 40.8453 9 10
      vertex 46.5 6.66987 10
      vertex 45.1547 9 10
    endloop
  endfacet
  facet normal 0 0 1
    outer loop
      vertex 39.5 6.66987 10
      vertex 46.5 6.66987 10
      vertex 40.8453 9 10
    endloop
  endfacet
  facet normal 0 0 1
    outer loop
      vertex 5 5 10
      vertex 46.5 6.66987 10
      vertex 39.5 6.66987 10
    endloop
  endfacet
  facet normal 0 0 1
    outer loop
      vertex 5 5 10
      vertex 39.5 6.66987 10
      vertex 34.5 6.66987 10
    endloop
  endfacet
  facet normal 0 0 1
    outer loop
      vertex 34.5 15.3301 10
      vertex 28 11 10
      vertex 32 11 10
    endloop
  endfacet
  facet normal -0 0 1
    outer loop
      vertex 28 11 10
      vertex 34.5 6.66987 10
      vertex 32 11 10
    endloop
  endfacet
  facet normal 0 0 1
    outer loop
      vertex 25.5 6.66987 10
      vertex 34.5 6.66987 10
      vertex 28 11 10
    endloop
  endfacet
  facet normal 0 0 1
    outer loop
      vertex 5 5 10
      vertex 34.5 6.66987 10
      vertex 25.5 6.66987 10
    endloop
  endfacet
  facet normal 0 0 1
    outer loop
      vertex 5 5 10
      vertex 25.5 6.66987 10
      vertex 20.5 6.66987 10
    endloop
  endfacet
  facet normal -0 0 1
    outer loop
      vertex 14.8453 9 10
      vertex 20.5 6.66987 10
      vertex 19.1547 9 10
    endloop
  endfacet
  facet normal 0 0 1
    outer loop
      vertex 13.5 6.66987 10
      vertex 20.5 6.66987 10
      vertex 14.8453 9 10
    endloop
  endfacet
  facet normal 0 0 1
    outer loop
      vertex 5 5 10
      vertex 20.5 6.66987 10
      vertex 13.5 6.66987 10
    endloop
  endfacet
  facet normal 0 0 1
    outer loop
      vertex 5 5 10
      vertex 13.5 6.66987 10
      vertex 8.5 6.66987 10
    endloop
  endfacet
  facet normal 0 0 1
    outer loop
      vertex 46.5 6.66987 10
      vertex 5 5 10
      vertex 91 5 10
    endloop
  endfacet
  facet normal 0 0 1
    outer loop
      vertex 6 11 10
      vertex 5 5 10
      vertex 8.5 6.66987 10
    endloop
  endfacet
  facet normal 0 0 1
    outer loop
      vertex 5 5 10
      vertex 6 11 10
      vertex 5 31 10
    endloop
  endfacet
  facet normal 0.894427 0 0.447214
    outer loop
      vertex 96 3.84 0
      vertex 91 31 10
      vertex 91 5 10
    endloop
  endfacet
  facet normal 0.894427 -3.56686e-15 0.447214
    outer loop
      vertex 96 3.84 0
      vertex 91 5 10
      vertex 92.16 3.84 7.68
    endloop
  endfacet
  facet normal 0.894427 0 0.447214
    outer loop
      vertex 91 31 10
      vertex 96 3.84 0
      vertex 96 36 0
    endloop
  endfacet
  facet normal 0 0 -1
    outer loop
      vertex 1 3.84 0
      vertex 0 3.84 0
      vertex 1 35 0
    endloop
  endfacet
  facet normal 0 0 -1
    outer loop
      vertex 1 35 0
      vertex 19.2 36 0
      vertex 19.2 35 0
    endloop
  endfacet
  facet normal 0 0 -1
    outer loop
      vertex 1 35 0
      vertex 0 36 0
      vertex 19.2 36 0
    endloop
  endfacet
  facet normal 0 0 -1
    outer loop
      vertex 0 36 0
      vertex 1 35 0
      vertex 0 3.84 0
    endloop
  endfacet
  facet normal 0 0 -1
    outer loop
      vertex 95 35 0
      vertex 96 3.84 0
      vertex 95 3.84 0
    endloop
  endfacet
  facet normal 0 0 -1
    outer loop
      vertex 96 3.84 0
      vertex 95 35 0
      vertex 96 36 0
    endloop
  endfacet
  facet normal 0 0 -1
    outer loop
      vertex 76.8 36 0
      vertex 95 35 0
      vertex 76.8 35 0
    endloop
  endfacet
  facet normal 0 0 -1
    outer loop
      vertex 95 35 0
      vertex 76.8 36 0
      vertex 96 36 0
    endloop
  endfacet
  facet normal 0 0 -1
    outer loop
      vertex 19.2 0 0
      vertex 38.4 1 0
      vertex 38.4 0 0
    endloop
  endfacet
  facet normal -0 0 -1
    outer loop
      vertex 38.4 1 0
      vertex 19.2 0 0
      vertex 19.2 1 0
    endloop
  endfacet
  facet normal 0 0 -1
    outer loop
      vertex 57.6 0 0
      vertex 76.8 1 0
      vertex 76.8 0 0
    endloop
  endfacet
  facet normal -0 0 -1
    outer loop
      vertex 76.8 1 0
      vertex 57.6 0 0
      vertex 57.6 1 0
    endloop
  endfacet
  facet normal 0 0 -1
    outer loop
      vertex 38.4 35 0
      vertex 57.6 36 0
      vertex 57.6 35 0
    endloop
  endfacet
  facet normal -0 0 -1
    outer loop
      vertex 57.6 36 0
      vertex 38.4 35 0
      vertex 38.4 36 0
    endloop
  endfacet
  facet normal 6.95917e-07 -0.894426 -0.447216
    outer loop
      vertex 4.47318 31.5268 6.94635
      vertex 1 35 0
      vertex 5.66556 33.918 2.16399
    endloop
  endfacet
  facet normal 0 -0.894427 -0.447214
    outer loop
      vertex 38.4 35 0
      vertex 57.6 32.16 5.68
      vertex 38.4 32.16 5.68
    endloop
  endfacet
  facet normal 0 -0.894427 -0.447214
    outer loop
      vertex 57.6 32.16 5.68
      vertex 38.4 35 0
      vertex 57.6 35 0
    endloop
  endfacet
  facet normal -0 -0.894427 -0.447214
    outer loop
      vertex 38.4 32.16 5.68
      vertex 5.34415 31 8
      vertex 19.2 32.16 5.68
    endloop
  endfacet
  facet normal -1.40294e-06 -0.894424 -0.44722
    outer loop
      vertex 6.73288 33.785 2.4301
      vertex 19.2 32.16 5.68
      vertex 5.34415 31 8
    endloop
  endfacet
  facet normal 0.00010077 -0.894339 -0.447389
    outer loop
      vertex 1 35 0
      vertex 6.73288 33.785 2.4301
      vertex 5.66556 33.918 2.16399
    endloop
  endfacet
  facet normal -0 -0.894435 -0.447199
    outer loop
      vertex 19.2 35 0
      vertex 6.73288 33.785 2.4301
      vertex 1 35 0
    endloop
  endfacet
  facet normal -3.58714e-06 -0.894427 -0.447214
    outer loop
      vertex 6.73288 33.785 2.4301
      vertex 19.2 35 0
      vertex 19.2 32.16 5.68
    endloop
  endfacet
  facet normal 0 -0.894427 -0.447214
    outer loop
      vertex 5.34415 31 8
      vertex 38.4 32.16 5.68
      vertex 91 31 8
    endloop
  endfacet
  facet normal -0 -0.894427 -0.447214
    outer loop
      vertex 57.6 32.16 5.68
      vertex 91 31 8
      vertex 38.4 32.16 5.68
    endloop
  endfacet
  facet normal -0 -0.894427 -0.447214
    outer loop
      vertex 76.8 32.16 5.68
      vertex 91 31 8
      vertex 57.6 32.16 5.68
    endloop
  endfacet
  facet normal 3.1518e-16 -0.894427 -0.447214
    outer loop
      vertex 76.8 35 0
      vertex 91 31 8
      vertex 76.8 32.16 5.68
    endloop
  endfacet
  facet normal 0 -0.894427 -0.447214
    outer loop
      vertex 91 31 8
      vertex 76.8 35 0
      vertex 95 35 0
    endloop
  endfacet
  facet normal 0 0.894427 -0.447214
    outer loop
      vertex 38.4 1 0
      vertex 19.2 3.84 5.68
      vertex 38.4 3.84 5.68
    endloop
  endfacet
  facet normal 0 0.894427 -0.447214
    outer loop
      vertex 19.2 3.84 5.68
      vertex 38.4 1 0
      vertex 19.2 1 0
    endloop
  endfacet
  facet normal 0 0.894427 -0.447214
    outer loop
      vertex 76.8 1 0
      vertex 57.6 3.84 5.68
      vertex 76.8 3.84 5.68
    endloop
  endfacet
  facet normal 0 0.894427 -0.447214
    outer loop
      vertex 57.6 3.84 5.68
      vertex 76.8 1 0
      vertex 57.6 1 0
    endloop
  endfacet
  facet normal 0 0.894427 -0.447214
    outer loop
      vertex 76.8 3.84 5.68
      vertex 91 5 8
      vertex 92.16 3.84 5.68
    endloop
  endfacet
  facet normal 0 0.894427 -0.447214
    outer loop
      vertex 57.6 3.84 5.68
      vertex 91 5 8
      vertex 76.8 3.84 5.68
    endloop
  endfacet
  facet normal 0 0.894427 -0.447214
    outer loop
      vertex 91 5 8
      vertex 57.6 3.84 5.68
      vertex 5.34415 5 8
    endloop
  endfacet
  facet normal 0 0.894427 -0.447214
    outer loop
      vertex 38.4 3.84 5.68
      vertex 5.34415 5 8
      vertex 57.6 3.84 5.68
    endloop
  endfacet
  facet normal 0 0.894427 -0.447214
    outer loop
      vertex 19.2 3.84 5.68
      vertex 5.34415 5 8
      vertex 38.4 3.84 5.68
    endloop
  endfacet
  facet normal 0 0.894427 -0.447214
    outer loop
      vertex 5.34415 5 8
      vertex 19.2 3.84 5.68
      vertex 5.92259 3.84 5.68
    endloop
  endfacet
  facet normal 0 0.894426 -0.447216
    outer loop
      vertex 4.47318 4.47318 6.94635
      vertex 4.78892 3.84 5.68
      vertex 3.84 3.84 5.68
    endloop
  endfacet
  facet normal 0.894427 0 -0.447214
    outer loop
      vertex 1 3.84 0
      vertex 4.47318 31.5268 6.94635
      vertex 4.47318 4.47318 6.94635
    endloop
  endfacet
  facet normal 0.894427 -7.06298e-06 -0.447214
    outer loop
      vertex 1 3.84 0
      vertex 4.47318 4.47318 6.94635
      vertex 3.84 3.84 5.68
    endloop
  endfacet
  facet normal 0.894427 0 -0.447214
    outer loop
      vertex 4.47318 31.5268 6.94635
      vertex 1 3.84 0
      vertex 1 35 0
    endloop
  endfacet
  facet normal 0 0 -1
    outer loop
      vertex 25.5 20.6699 8
      vertex 34.5 20.6699 8
      vertex 25.5 15.3301 8
    endloop
  endfacet
  facet normal 0 0 -1
    outer loop
      vertex 34.5 20.6699 8
      vertex 25.5 20.6699 8
      vertex 28 25 8
    endloop
  endfacet
  facet normal 0 0 -1
    outer loop
      vertex 20.5 15.3301 8
      vertex 25.5 20.6699 8
      vertex 25.5 15.3301 8
    endloop
  endfacet
  facet normal 0 0 -1
    outer loop
      vertex 20.5 15.3301 8
      vertex 20.5 20.6699 8
      vertex 25.5 20.6699 8
    endloop
  endfacet
  facet normal 0 0 -1
    outer loop
      vertex 13.5 15.3301 8
      vertex 20.5 15.3301 8
      vertex 19.1547 13 8
    endloop
  endfacet
  facet normal 0 0 -1
    outer loop
      vertex 20.5 15.3301 8
      vertex 13.5 15.3301 8
      vertex 20.5 20.6699 8
    endloop
  endfacet
  facet normal 0 0 -1
    outer loop
      vertex 13.5 15.3301 8
      vertex 19.1547 13 8
      vertex 14.8453 13 8
    endloop
  endfacet
  facet normal 0 0 -1
    outer loop
      vertex 13.5 20.6699 8
      vertex 20.5 20.6699 8
      vertex 13.5 15.3301 8
    endloop
  endfacet
  facet normal 0 0 -1
    outer loop
      vertex 20.5 20.6699 8
      vertex 13.5 20.6699 8
      vertex 19.1547 23 8
    endloop
  endfacet
  facet normal -0 0 -1
    outer loop
      vertex 19.1547 23 8
      vertex 13.5 20.6699 8
      vertex 14.8453 23 8
    endloop
  endfacet
  facet normal 0 0 -1
    outer loop
      vertex 8.5 15.3301 8
      vertex 13.5 20.6699 8
      vertex 13.5 15.3301 8
    endloop
  endfacet
  facet normal 0 0 -1
    outer loop
      vertex 8.5 15.3301 8
      vertex 8.5 20.6699 8
      vertex 13.5 20.6699 8
    endloop
  endfacet
  facet normal 0 0 -1
    outer loop
      vertex 6 11 8
      vertex 8.5 20.6699 8
      vertex 8.5 15.3301 8
    endloop
  endfacet
  facet normal -0 0 -1
    outer loop
      vertex 8.5 20.6699 8
      vertex 6 11 8
      vertex 6 25 8
    endloop
  endfacet
  facet normal 0 0 -1
    outer loop
      vertex 87.5 15.3301 8
      vertex 90 25 8
      vertex 90 11 8
    endloop
  endfacet
  facet normal 0 0 -1
    outer loop
      vertex 87.5 15.3301 8
      vertex 87.5 20.6699 8
      vertex 90 25 8
    endloop
  endfacet
  facet normal 0 0 -1
    outer loop
      vertex 82.5 15.3301 8
      vertex 87.5 20.6699 8
      vertex 87.5 15.3301 8
    endloop
  endfacet
  facet normal 0 0 -1
    outer loop
      vertex 82.5 15.3301 8
      vertex 82.5 20.6699 8
      vertex 87.5 20.6699 8
    endloop
  endfacet
  facet normal 0 0 -1
    outer loop
      vertex 75.5 15.3301 8
      vertex 82.5 15.3301 8
      vertex 81.1547 13 8
    endloop
  endfacet
  facet normal 0 0 -1
    outer loop
      vertex 82.5 15.3301 8
      vertex 75.5 15.3301 8
      vertex 82.5 20.6699 8
    endloop
  endfacet
  facet normal 0 0 -1
    outer loop
      vertex 75.5 15.3301 8
      vertex 81.1547 13 8
      vertex 76.8453 13 8
    endloop
  endfacet
  facet normal 0 0 -1
    outer loop
      vertex 75.5 20.6699 8
      vertex 82.5 20.6699 8
      vertex 75.5 15.3301 8
    endloop
  endfacet
  facet normal 0 0 -1
    outer loop
      vertex 82.5 20.6699 8
      vertex 75.5 20.6699 8
      vertex 81.1547 23 8
    endloop
  endfacet
  facet normal -0 0 -1
    outer loop
      vertex 81.1547 23 8
      vertex 75.5 20.6699 8
      vertex 76.8453 23 8
    endloop
  endfacet
  facet normal 0 0 -1
    outer loop
      vertex 70.5 15.3301 8
      vertex 75.5 20.6699 8
      vertex 75.5 15.3301 8
    endloop
  endfacet
  facet normal 0 0 -1
    outer loop
      vertex 70.5 15.3301 8
      vertex 70.5 20.6699 8
      vertex 75.5 20.6699 8
    endloop
  endfacet
  facet normal 0 0 -1
    outer loop
      vertex 63.5 15.3301 8
      vertex 70.5 15.3301 8
      vertex 69.1547 13 8
    endloop
  endfacet
  facet normal 0 0 -1
    outer loop
      vertex 70.5 15.3301 8
      vertex 63.5 15.3301 8
      vertex 70.5 20.6699 8
    endloop
  endfacet
  facet normal 0 0 -1
    outer loop
      vertex 63.5 15.3301 8
      vertex 69.1547 13 8
      vertex 64.8453 13 8
    endloop
  endfacet
  facet normal 0 0 -1
    outer loop
      vertex 63.5 20.6699 8
      vertex 70.5 20.6699 8
      vertex 63.5 15.3301 8
    endloop
  endfacet
  facet normal 0 0 -1
    outer loop
      vertex 70.5 20.6699 8
      vertex 63.5 20.6699 8
      vertex 69.1547 23 8
    endloop
  endfacet
  facet normal -0 0 -1
    outer loop
      vertex 69.1547 23 8
      vertex 63.5 20.6699 8
      vertex 64.8453 23 8
    endloop
  endfacet
  facet normal 0 0 -1
    outer loop
      vertex 58.5 15.3301 8
      vertex 63.5 20.6699 8
      vertex 63.5 15.3301 8
    endloop
  endfacet
  facet normal 0 0 -1
    outer loop
      vertex 58.5 15.3301 8
      vertex 58.5 20.6699 8
      vertex 63.5 20.6699 8
    endloop
  endfacet
  facet normal 0 0 -1
    outer loop
      vertex 51.5 15.3301 8
      vertex 58.5 15.3301 8
      vertex 57.1547 13 8
    endloop
  endfacet
  facet normal 0 0 -1
    outer loop
      vertex 58.5 15.3301 8
      vertex 51.5 15.3301 8
      vertex 58.5 20.6699 8
    endloop
  endfacet
  facet normal 0 0 -1
    outer loop
      vertex 51.5 15.3301 8
      vertex 57.1547 13 8
      vertex 52.8453 13 8
    endloop
  endfacet
  facet normal 0 0 -1
    outer loop
      vertex 51.5 20.6699 8
      vertex 58.5 20.6699 8
      vertex 51.5 15.3301 8
    endloop
  endfacet
  facet normal 0 0 -1
    outer loop
      vertex 58.5 20.6699 8
      vertex 51.5 20.6699 8
      vertex 57.1547 23 8
    endloop
  endfacet
  facet normal -0 0 -1
    outer loop
      vertex 57.1547 23 8
      vertex 51.5 20.6699 8
      vertex 52.8453 23 8
    endloop
  endfacet
  facet normal 0 0 -1
    outer loop
      vertex 46.5 15.3301 8
      vertex 51.5 20.6699 8
      vertex 51.5 15.3301 8
    endloop
  endfacet
  facet normal 0 0 -1
    outer loop
      vertex 46.5 15.3301 8
      vertex 46.5 20.6699 8
      vertex 51.5 20.6699 8
    endloop
  endfacet
  facet normal 0 0 -1
    outer loop
      vertex 39.5 15.3301 8
      vertex 46.5 15.3301 8
      vertex 45.1547 13 8
    endloop
  endfacet
  facet normal 0 0 -1
    outer loop
      vertex 46.5 15.3301 8
      vertex 39.5 15.3301 8
      vertex 46.5 20.6699 8
    endloop
  endfacet
  facet normal 0 0 -1
    outer loop
      vertex 39.5 15.3301 8
      vertex 45.1547 13 8
      vertex 40.8453 13 8
    endloop
  endfacet
  facet normal 0 0 -1
    outer loop
      vertex 39.5 20.6699 8
      vertex 46.5 20.6699 8
      vertex 39.5 15.3301 8
    endloop
  endfacet
  facet normal 0 0 -1
    outer loop
      vertex 46.5 20.6699 8
      vertex 39.5 20.6699 8
      vertex 45.1547 23 8
    endloop
  endfacet
  facet normal -0 0 -1
    outer loop
      vertex 45.1547 23 8
      vertex 39.5 20.6699 8
      vertex 40.8453 23 8
    endloop
  endfacet
  facet normal 0 0 -1
    outer loop
      vertex 34.5 15.3301 8
      vertex 39.5 20.6699 8
      vertex 39.5 15.3301 8
    endloop
  endfacet
  facet normal 0 0 -1
    outer loop
      vertex 34.5 15.3301 8
      vertex 34.5 20.6699 8
      vertex 39.5 20.6699 8
    endloop
  endfacet
  facet normal 0 0 -1
    outer loop
      vertex 28 11 8
      vertex 34.5 15.3301 8
      vertex 32 11 8
    endloop
  endfacet
  facet normal 0 0 -1
    outer loop
      vertex 25.5 15.3301 8
      vertex 34.5 15.3301 8
      vertex 28 11 8
    endloop
  endfacet
  facet normal 0 0 -1
    outer loop
      vertex 91 5 8
      vertex 90 11 8
      vertex 91 31 8
    endloop
  endfacet
  facet normal 0 0 -1
    outer loop
      vertex 91 5 8
      vertex 87.5 6.66987 8
      vertex 90 11 8
    endloop
  endfacet
  facet normal 0 0 -1
    outer loop
      vertex 91 5 8
      vertex 82.5 6.66987 8
      vertex 87.5 6.66987 8
    endloop
  endfacet
  facet normal 0 0 -1
    outer loop
      vertex 82.5 6.66987 8
      vertex 76.8453 9 8
      vertex 81.1547 9 8
    endloop
  endfacet
  facet normal 0 0 -1
    outer loop
      vertex 82.5 6.66987 8
      vertex 75.5 6.66987 8
      vertex 76.8453 9 8
    endloop
  endfacet
  facet normal 0 0 -1
    outer loop
      vertex 91 5 8
      vertex 75.5 6.66987 8
      vertex 82.5 6.66987 8
    endloop
  endfacet
  facet normal 0 0 -1
    outer loop
      vertex 91 5 8
      vertex 70.5 6.66987 8
      vertex 75.5 6.66987 8
    endloop
  endfacet
  facet normal 0 0 -1
    outer loop
      vertex 70.5 6.66987 8
      vertex 64.8453 9 8
      vertex 69.1547 9 8
    endloop
  endfacet
  facet normal 0 0 -1
    outer loop
      vertex 70.5 6.66987 8
      vertex 63.5 6.66987 8
      vertex 64.8453 9 8
    endloop
  endfacet
  facet normal 0 0 -1
    outer loop
      vertex 91 5 8
      vertex 63.5 6.66987 8
      vertex 70.5 6.66987 8
    endloop
  endfacet
  facet normal 0 0 -1
    outer loop
      vertex 91 5 8
      vertex 58.5 6.66987 8
      vertex 63.5 6.66987 8
    endloop
  endfacet
  facet normal 0 0 -1
    outer loop
      vertex 58.5 6.66987 8
      vertex 52.8453 9 8
      vertex 57.1547 9 8
    endloop
  endfacet
  facet normal 0 0 -1
    outer loop
      vertex 58.5 6.66987 8
      vertex 51.5 6.66987 8
      vertex 52.8453 9 8
    endloop
  endfacet
  facet normal 0 0 -1
    outer loop
      vertex 91 5 8
      vertex 51.5 6.66987 8
      vertex 58.5 6.66987 8
    endloop
  endfacet
  facet normal 0 0 -1
    outer loop
      vertex 91 5 8
      vertex 46.5 6.66987 8
      vertex 51.5 6.66987 8
    endloop
  endfacet
  facet normal 0 0 -1
    outer loop
      vertex 46.5 6.66987 8
      vertex 40.8453 9 8
      vertex 45.1547 9 8
    endloop
  endfacet
  facet normal 0 0 -1
    outer loop
      vertex 46.5 6.66987 8
      vertex 39.5 6.66987 8
      vertex 40.8453 9 8
    endloop
  endfacet
  facet normal 0 0 -1
    outer loop
      vertex 5.34415 5 8
      vertex 46.5 6.66987 8
      vertex 91 5 8
    endloop
  endfacet
  facet normal -0 0 -1
    outer loop
      vertex 46.5 6.66987 8
      vertex 5.34415 5 8
      vertex 39.5 6.66987 8
    endloop
  endfacet
  facet normal 0 0 -1
    outer loop
      vertex 34.5 15.3301 8
      vertex 25.5 15.3301 8
      vertex 34.5 20.6699 8
    endloop
  endfacet
  facet normal 0 0 -1
    outer loop
      vertex 34.5 6.66987 8
      vertex 28 11 8
      vertex 32 11 8
    endloop
  endfacet
  facet normal 0 0 -1
    outer loop
      vertex 34.5 6.66987 8
      vertex 25.5 6.66987 8
      vertex 28 11 8
    endloop
  endfacet
  facet normal -0 0 -1
    outer loop
      vertex 39.5 6.66987 8
      vertex 5.34415 5 8
      vertex 34.5 6.66987 8
    endloop
  endfacet
  facet normal -0 0 -1
    outer loop
      vertex 34.5 6.66987 8
      vertex 5.34415 5 8
      vertex 25.5 6.66987 8
    endloop
  endfacet
  facet normal 0 0 -1
    outer loop
      vertex 20.5 6.66987 8
      vertex 14.8453 9 8
      vertex 19.1547 9 8
    endloop
  endfacet
  facet normal 0 0 -1
    outer loop
      vertex 20.5 6.66987 8
      vertex 13.5 6.66987 8
      vertex 14.8453 9 8
    endloop
  endfacet
  facet normal -0 0 -1
    outer loop
      vertex 25.5 6.66987 8
      vertex 5.34415 5 8
      vertex 20.5 6.66987 8
    endloop
  endfacet
  facet normal -0 0 -1
    outer loop
      vertex 20.5 6.66987 8
      vertex 5.34415 5 8
      vertex 13.5 6.66987 8
    endloop
  endfacet
  facet normal -0 0 -1
    outer loop
      vertex 6 11 8
      vertex 5.34415 5 8
      vertex 6 25 8
    endloop
  endfacet
  facet normal -0 0 -1
    outer loop
      vertex 8.5 6.66987 8
      vertex 5.34415 5 8
      vertex 6 11 8
    endloop
  endfacet
  facet normal -0 0 -1
    outer loop
      vertex 13.5 6.66987 8
      vertex 5.34415 5 8
      vertex 8.5 6.66987 8
    endloop
  endfacet
  facet normal 0 0 -1
    outer loop
      vertex 90 25 8
      vertex 91 31 8
      vertex 90 11 8
    endloop
  endfacet
  facet normal 0 0 -1
    outer loop
      vertex 87.5 29.3301 8
      vertex 91 31 8
      vertex 90 25 8
    endloop
  endfacet
  facet normal 0 0 -1
    outer loop
      vertex 82.5 29.3301 8
      vertex 91 31 8
      vertex 87.5 29.3301 8
    endloop
  endfacet
  facet normal 0 0 -1
    outer loop
      vertex 76.8453 27 8
      vertex 82.5 29.3301 8
      vertex 81.1547 27 8
    endloop
  endfacet
  facet normal 0 0 -1
    outer loop
      vertex 75.5 29.3301 8
      vertex 82.5 29.3301 8
      vertex 76.8453 27 8
    endloop
  endfacet
  facet normal 0 0 -1
    outer loop
      vertex 75.5 29.3301 8
      vertex 91 31 8
      vertex 82.5 29.3301 8
    endloop
  endfacet
  facet normal 0 0 -1
    outer loop
      vertex 70.5 29.3301 8
      vertex 91 31 8
      vertex 75.5 29.3301 8
    endloop
  endfacet
  facet normal 0 0 -1
    outer loop
      vertex 64.8453 27 8
      vertex 70.5 29.3301 8
      vertex 69.1547 27 8
    endloop
  endfacet
  facet normal 0 0 -1
    outer loop
      vertex 63.5 29.3301 8
      vertex 70.5 29.3301 8
      vertex 64.8453 27 8
    endloop
  endfacet
  facet normal 0 0 -1
    outer loop
      vertex 63.5 29.3301 8
      vertex 91 31 8
      vertex 70.5 29.3301 8
    endloop
  endfacet
  facet normal 0 0 -1
    outer loop
      vertex 58.5 29.3301 8
      vertex 91 31 8
      vertex 63.5 29.3301 8
    endloop
  endfacet
  facet normal 0 0 -1
    outer loop
      vertex 52.8453 27 8
      vertex 58.5 29.3301 8
      vertex 57.1547 27 8
    endloop
  endfacet
  facet normal 0 0 -1
    outer loop
      vertex 51.5 29.3301 8
      vertex 58.5 29.3301 8
      vertex 52.8453 27 8
    endloop
  endfacet
  facet normal 0 0 -1
    outer loop
      vertex 51.5 29.3301 8
      vertex 91 31 8
      vertex 58.5 29.3301 8
    endloop
  endfacet
  facet normal 0 0 -1
    outer loop
      vertex 46.5 29.3301 8
      vertex 91 31 8
      vertex 51.5 29.3301 8
    endloop
  endfacet
  facet normal 0 0 -1
    outer loop
      vertex 40.8453 27 8
      vertex 46.5 29.3301 8
      vertex 45.1547 27 8
    endloop
  endfacet
  facet normal 0 0 -1
    outer loop
      vertex 39.5 29.3301 8
      vertex 46.5 29.3301 8
      vertex 40.8453 27 8
    endloop
  endfacet
  facet normal 0 0 -1
    outer loop
      vertex 5.34415 31 8
      vertex 46.5 29.3301 8
      vertex 39.5 29.3301 8
    endloop
  endfacet
  facet normal 0 0 -1
    outer loop
      vertex 5.34415 31 8
      vertex 39.5 29.3301 8
      vertex 34.5 29.3301 8
    endloop
  endfacet
  facet normal 0 0 -1
    outer loop
      vertex 34.5 20.6699 8
      vertex 28 25 8
      vertex 32 25 8
    endloop
  endfacet
  facet normal 0 0 -1
    outer loop
      vertex 28 25 8
      vertex 34.5 29.3301 8
      vertex 32 25 8
    endloop
  endfacet
  facet normal 0 0 -1
    outer loop
      vertex 25.5 29.3301 8
      vertex 34.5 29.3301 8
      vertex 28 25 8
    endloop
  endfacet
  facet normal 0 0 -1
    outer loop
      vertex 5.34415 31 8
      vertex 34.5 29.3301 8
      vertex 25.5 29.3301 8
    endloop
  endfacet
  facet normal 0 0 -1
    outer loop
      vertex 5.34415 31 8
      vertex 25.5 29.3301 8
      vertex 20.5 29.3301 8
    endloop
  endfacet
  facet normal 0 0 -1
    outer loop
      vertex 14.8453 27 8
      vertex 20.5 29.3301 8
      vertex 19.1547 27 8
    endloop
  endfacet
  facet normal 0 0 -1
    outer loop
      vertex 13.5 29.3301 8
      vertex 20.5 29.3301 8
      vertex 14.8453 27 8
    endloop
  endfacet
  facet normal 0 0 -1
    outer loop
      vertex 5.34415 31 8
      vertex 20.5 29.3301 8
      vertex 13.5 29.3301 8
    endloop
  endfacet
  facet normal 0 0 -1
    outer loop
      vertex 5.34415 31 8
      vertex 13.5 29.3301 8
      vertex 8.5 29.3301 8
    endloop
  endfacet
  facet normal 0 0 -1
    outer loop
      vertex 46.5 29.3301 8
      vertex 5.34415 31 8
      vertex 91 31 8
    endloop
  endfacet
  facet normal 0 0 -1
    outer loop
      vertex 6 25 8
      vertex 5.34415 31 8
      vertex 8.5 29.3301 8
    endloop
  endfacet
  facet normal 0 0 -1
    outer loop
      vertex 5.34415 31 8
      vertex 6 25 8
      vertex 5.34415 5 8
    endloop
  endfacet
  facet normal -0.894427 0 -0.447214
    outer loop
      vertex 95 3.84 0
      vertex 91 31 8
      vertex 95 35 0
    endloop
  endfacet
  facet normal -0.894427 -0 -0.447214
    outer loop
      vertex 91 31 8
      vertex 95 3.84 0
      vertex 91 5 8
    endloop
  endfacet
  facet normal -0.894427 3.85824e-15 -0.447214
    outer loop
      vertex 91 5 8
      vertex 95 3.84 0
      vertex 92.16 3.84 5.68
    endloop
  endfacet
  facet normal 0.970295 2.47204e-06 0.241924
    outer loop
      vertex 4.47318 31.5268 6.94635
      vertex 5.66556 34.918 2.16399
      vertex 4.14044 31.8596 8.28088
    endloop
  endfacet
  facet normal 0.970296 0 0.241923
    outer loop
      vertex 5.66556 34.918 2.16399
      vertex 4.47318 31.5268 6.94635
      vertex 5.66556 33.918 2.16399
    endloop
  endfacet
  facet normal 0.970295 0 0.241925
    outer loop
      vertex 4.14044 31.8596 8.28088
      vertex 4.47318 4.47318 6.94635
      vertex 4.47318 31.5268 6.94635
    endloop
  endfacet
  facet normal 0.970295 -0 0.241925
    outer loop
      vertex 4.14044 4.14044 8.28088
      vertex 4.47318 4.47318 6.94635
      vertex 4.14044 31.8596 8.28088
    endloop
  endfacet
  facet normal 0.970295 3.994e-06 0.241926
    outer loop
      vertex 4.29026 3.84 7.68
      vertex 4.47318 4.47318 6.94635
      vertex 4.14044 4.14044 8.28088
    endloop
  endfacet
  facet normal 0.970295 1.46269e-06 0.241924
    outer loop
      vertex 4.47318 4.47318 6.94635
      vertex 4.29026 3.84 7.68
      vertex 4.78892 3.84 5.68
    endloop
  endfacet
  facet normal -0.970296 0 -0.241922
    outer loop
      vertex 5.34415 31 8
      vertex 6.73288 34.785 2.4301
      vertex 6.73288 33.785 2.4301
    endloop
  endfacet
  facet normal -0.970295 -2.63711e-06 -0.241923
    outer loop
      vertex 6.73288 34.785 2.4301
      vertex 5.34415 31 8
      vertex 4.8969 31.1031 9.79381
    endloop
  endfacet
  facet normal -0.970295 0 -0.241923
    outer loop
      vertex 5.34415 5 8
      vertex 4.8969 31.1031 9.79381
      vertex 5.34415 31 8
    endloop
  endfacet
  facet normal -0.970295 0 -0.241923
    outer loop
      vertex 5.34415 5 8
      vertex 4.8969 4.8969 9.79381
      vertex 4.8969 31.1031 9.79381
    endloop
  endfacet
  facet normal -0.970295 4.68418e-06 -0.241924
    outer loop
      vertex 5.42393 3.84 7.68
      vertex 5.34415 5 8
      vertex 5.92259 3.84 5.68
    endloop
  endfacet
  facet normal -0.970295 4.51599e-06 -0.241923
    outer loop
      vertex 5.34415 5 8
      vertex 5.42393 3.84 7.68
      vertex 4.8969 4.8969 9.79381
    endloop
  endfacet
  facet normal -0.24192 0 0.970296
    outer loop
      vertex 5.66556 33.918 2.16399
      vertex 6.73288 34.785 2.4301
      vertex 5.66556 34.918 2.16399
    endloop
  endfacet
  facet normal -0.24192 0 0.970296
    outer loop
      vertex 6.73288 34.785 2.4301
      vertex 5.66556 33.918 2.16399
      vertex 6.73288 33.785 2.4301
    endloop
  endfacet
  facet normal 0 -1 0
    outer loop
      vertex 8.5 15.3301 8
      vertex 13.5 15.3301 10
      vertex 8.5 15.3301 10
    endloop
  endfacet
  facet normal 0 -1 -0
    outer loop
      vertex 13.5 15.3301 10
      vertex 8.5 15.3301 8
      vertex 13.5 15.3301 8
    endloop
  endfacet
  facet normal -0.866023 -0.500004 0
    outer loop
      vertex 14.8453 13 8
      vertex 13.5 15.3301 10
      vertex 13.5 15.3301 8
    endloop
  endfacet
  facet normal -0.866023 -0.500004 0
    outer loop
      vertex 13.5 15.3301 10
      vertex 14.8453 13 8
      vertex 14.8453 13 10
    endloop
  endfacet
  facet normal 0.866024 -0.500002 0
    outer loop
      vertex 6 11 10
      vertex 8.5 15.3301 8
      vertex 8.5 15.3301 10
    endloop
  endfacet
  facet normal 0.866024 -0.500002 0
    outer loop
      vertex 8.5 15.3301 8
      vertex 6 11 10
      vertex 6 11 8
    endloop
  endfacet
  facet normal 0.866026 0.5 0
    outer loop
      vertex 8.5 6.66987 10
      vertex 6 11 8
      vertex 6 11 10
    endloop
  endfacet
  facet normal 0.866026 0.5 0
    outer loop
      vertex 6 11 8
      vertex 8.5 6.66987 10
      vertex 8.5 6.66987 8
    endloop
  endfacet
  facet normal 0 1 -0
    outer loop
      vertex 13.5 6.66987 8
      vertex 8.5 6.66987 10
      vertex 13.5 6.66987 10
    endloop
  endfacet
  facet normal 0 1 0
    outer loop
      vertex 8.5 6.66987 10
      vertex 13.5 6.66987 8
      vertex 8.5 6.66987 8
    endloop
  endfacet
  facet normal -0.866026 0.5 0
    outer loop
      vertex 13.5 6.66987 8
      vertex 14.8453 9 10
      vertex 14.8453 9 8
    endloop
  endfacet
  facet normal -0.866026 0.5 0
    outer loop
      vertex 14.8453 9 10
      vertex 13.5 6.66987 8
      vertex 13.5 6.66987 10
    endloop
  endfacet
  facet normal 0 1 -0
    outer loop
      vertex 25.5 6.66987 8
      vertex 20.5 6.66987 10
      vertex 25.5 6.66987 10
    endloop
  endfacet
  facet normal 0 1 0
    outer loop
      vertex 20.5 6.66987 10
      vertex 25.5 6.66987 8
      vertex 20.5 6.66987 8
    endloop
  endfacet
  facet normal 0 -1 0
    outer loop
      vertex 20.5 15.3301 8
      vertex 25.5 15.3301 10
      vertex 20.5 15.3301 10
    endloop
  endfacet
  facet normal 0 -1 -0
    outer loop
      vertex 25.5 15.3301 10
      vertex 20.5 15.3301 8
      vertex 25.5 15.3301 8
    endloop
  endfacet
  facet normal -0.866024 -0.500002 0
    outer loop
      vertex 28 11 8
      vertex 25.5 15.3301 10
      vertex 25.5 15.3301 8
    endloop
  endfacet
  facet normal -0.866024 -0.500002 0
    outer loop
      vertex 25.5 15.3301 10
      vertex 28 11 8
      vertex 28 11 10
    endloop
  endfacet
  facet normal 0.866023 -0.500004 0
    outer loop
      vertex 19.1547 13 10
      vertex 20.5 15.3301 8
      vertex 20.5 15.3301 10
    endloop
  endfacet
  facet normal 0.866023 -0.500004 0
    outer loop
      vertex 20.5 15.3301 8
      vertex 19.1547 13 10
      vertex 19.1547 13 8
    endloop
  endfacet
  facet normal 0.866026 0.5 0
    outer loop
      vertex 20.5 6.66987 10
      vertex 19.1547 9 8
      vertex 19.1547 9 10
    endloop
  endfacet
  facet normal 0.866026 0.5 0
    outer loop
      vertex 19.1547 9 8
      vertex 20.5 6.66987 10
      vertex 20.5 6.66987 8
    endloop
  endfacet
  facet normal -0.866026 0.5 0
    outer loop
      vertex 25.5 6.66987 8
      vertex 28 11 10
      vertex 28 11 8
    endloop
  endfacet
  facet normal -0.866026 0.5 0
    outer loop
      vertex 28 11 10
      vertex 25.5 6.66987 8
      vertex 25.5 6.66987 10
    endloop
  endfacet
  facet normal 0 1 -0
    outer loop
      vertex 39.5 6.66987 8
      vertex 34.5 6.66987 10
      vertex 39.5 6.66987 10
    endloop
  endfacet
  facet normal 0 1 0
    outer loop
      vertex 34.5 6.66987 10
      vertex 39.5 6.66987 8
      vertex 34.5 6.66987 8
    endloop
  endfacet
  facet normal 0 -1 0
    outer loop
      vertex 34.5 15.3301 8
      vertex 39.5 15.3301 10
      vertex 34.5 15.3301 10
    endloop
  endfacet
  facet normal 0 -1 -0
    outer loop
      vertex 39.5 15.3301 10
      vertex 34.5 15.3301 8
      vertex 39.5 15.3301 8
    endloop
  endfacet
  facet normal -0.866023 -0.500004 0
    outer loop
      vertex 40.8453 13 8
      vertex 39.5 15.3301 10
      vertex 39.5 15.3301 8
    endloop
  endfacet
  facet normal -0.866023 -0.500004 0
    outer loop
      vertex 39.5 15.3301 10
      vertex 40.8453 13 8
      vertex 40.8453 13 10
    endloop
  endfacet
  facet normal 0.866024 -0.500002 0
    outer loop
      vertex 32 11 10
      vertex 34.5 15.3301 8
      vertex 34.5 15.3301 10
    endloop
  endfacet
  facet normal 0.866024 -0.500002 0
    outer loop
      vertex 34.5 15.3301 8
      vertex 32 11 10
      vertex 32 11 8
    endloop
  endfacet
  facet normal 0.866026 0.5 0
    outer loop
      vertex 34.5 6.66987 10
      vertex 32 11 8
      vertex 32 11 10
    endloop
  endfacet
  facet normal 0.866026 0.5 0
    outer loop
      vertex 32 11 8
      vertex 34.5 6.66987 10
      vertex 34.5 6.66987 8
    endloop
  endfacet
  facet normal -0.866026 0.5 0
    outer loop
      vertex 39.5 6.66987 8
      vertex 40.8453 9 10
      vertex 40.8453 9 8
    endloop
  endfacet
  facet normal -0.866026 0.5 0
    outer loop
      vertex 40.8453 9 10
      vertex 39.5 6.66987 8
      vertex 39.5 6.66987 10
    endloop
  endfacet
  facet normal 0 -1 0
    outer loop
      vertex 46.5 15.3301 8
      vertex 51.5 15.3301 10
      vertex 46.5 15.3301 10
    endloop
  endfacet
  facet normal 0 -1 -0
    outer loop
      vertex 51.5 15.3301 10
      vertex 46.5 15.3301 8
      vertex 51.5 15.3301 8
    endloop
  endfacet
  facet normal -0.866023 -0.500004 0
    outer loop
      vertex 52.8453 13 8
      vertex 51.5 15.3301 10
      vertex 51.5 15.3301 8
    endloop
  endfacet
  facet normal -0.866023 -0.500004 0
    outer loop
      vertex 51.5 15.3301 10
      vertex 52.8453 13 8
      vertex 52.8453 13 10
    endloop
  endfacet
  facet normal 0.866023 -0.500004 0
    outer loop
      vertex 45.1547 13 10
      vertex 46.5 15.3301 8
      vertex 46.5 15.3301 10
    endloop
  endfacet
  facet normal 0.866023 -0.500004 0
    outer loop
      vertex 46.5 15.3301 8
      vertex 45.1547 13 10
      vertex 45.1547 13 8
    endloop
  endfacet
  facet normal 0.866026 0.5 0
    outer loop
      vertex 46.5 6.66987 10
      vertex 45.1547 9 8
      vertex 45.1547 9 10
    endloop
  endfacet
  facet normal 0.866026 0.5 0
    outer loop
      vertex 45.1547 9 8
      vertex 46.5 6.66987 10
      vertex 46.5 6.66987 8
    endloop
  endfacet
  facet normal 0 1 -0
    outer loop
      vertex 51.5 6.66987 8
      vertex 46.5 6.66987 10
      vertex 51.5 6.66987 10
    endloop
  endfacet
  facet normal 0 1 0
    outer loop
      vertex 46.5 6.66987 10
      vertex 51.5 6.66987 8
      vertex 46.5 6.66987 8
    endloop
  endfacet
  facet normal -0.866026 0.5 0
    outer loop
      vertex 51.5 6.66987 8
      vertex 52.8453 9 10
      vertex 52.8453 9 8
    endloop
  endfacet
  facet normal -0.866026 0.5 0
    outer loop
      vertex 52.8453 9 10
      vertex 51.5 6.66987 8
      vertex 51.5 6.66987 10
    endloop
  endfacet
  facet normal 0 -1 0
    outer loop
      vertex 58.5 15.3301 8
      vertex 63.5 15.3301 10
      vertex 58.5 15.3301 10
    endloop
  endfacet
  facet normal 0 -1 -0
    outer loop
      vertex 63.5 15.3301 10
      vertex 58.5 15.3301 8
      vertex 63.5 15.3301 8
    endloop
  endfacet
  facet normal -0.866023 -0.500004 0
    outer loop
      vertex 64.8453 13 8
      vertex 63.5 15.3301 10
      vertex 63.5 15.3301 8
    endloop
  endfacet
  facet normal -0.866023 -0.500004 0
    outer loop
      vertex 63.5 15.3301 10
      vertex 64.8453 13 8
      vertex 64.8453 13 10
    endloop
  endfacet
  facet normal 0.866023 -0.500004 0
    outer loop
      vertex 57.1547 13 10
      vertex 58.5 15.3301 8
      vertex 58.5 15.3301 10
    endloop
  endfacet
  facet normal 0.866023 -0.500004 0
    outer loop
      vertex 58.5 15.3301 8
      vertex 57.1547 13 10
      vertex 57.1547 13 8
    endloop
  endfacet
  facet normal 0.866026 0.5 0
    outer loop
      vertex 58.5 6.66987 10
      vertex 57.1547 9 8
      vertex 57.1547 9 10
    endloop
  endfacet
  facet normal 0.866026 0.5 0
    outer loop
      vertex 57.1547 9 8
      vertex 58.5 6.66987 10
      vertex 58.5 6.66987 8
    endloop
  endfacet
  facet normal 0 1 -0
    outer loop
      vertex 63.5 6.66987 8
      vertex 58.5 6.66987 10
      vertex 63.5 6.66987 10
    endloop
  endfacet
  facet normal 0 1 0
    outer loop
      vertex 58.5 6.66987 10
      vertex 63.5 6.66987 8
      vertex 58.5 6.66987 8
    endloop
  endfacet
  facet normal -0.866026 0.5 0
    outer loop
      vertex 63.5 6.66987 8
      vertex 64.8453 9 10
      vertex 64.8453 9 8
    endloop
  endfacet
  facet normal -0.866026 0.5 0
    outer loop
      vertex 64.8453 9 10
      vertex 63.5 6.66987 8
      vertex 63.5 6.66987 10
    endloop
  endfacet
  facet normal 0 -1 0
    outer loop
      vertex 70.5 15.3301 8
      vertex 75.5 15.3301 10
      vertex 70.5 15.3301 10
    endloop
  endfacet
  facet normal 0 -1 -0
    outer loop
      vertex 75.5 15.3301 10
      vertex 70.5 15.3301 8
      vertex 75.5 15.3301 8
    endloop
  endfacet
  facet normal -0.866023 -0.500004 0
    outer loop
      vertex 76.8453 13 8
      vertex 75.5 15.3301 10
      vertex 75.5 15.3301 8
    endloop
  endfacet
  facet normal -0.866023 -0.500004 0
    outer loop
      vertex 75.5 15.3301 10
      vertex 76.8453 13 8
      vertex 76.8453 13 10
    endloop
  endfacet
  facet normal 0.866023 -0.500004 0
    outer loop
      vertex 69.1547 13 10
      vertex 70.5 15.3301 8
      vertex 70.5 15.3301 10
    endloop
  endfacet
  facet normal 0.866023 -0.500004 0
    outer loop
      vertex 70.5 15.3301 8
      vertex 69.1547 13 10
      vertex 69.1547 13 8
    endloop
  endfacet
  facet normal 0.866026 0.5 0
    outer loop
      vertex 70.5 6.66987 10
      vertex 69.1547 9 8
      vertex 69.1547 9 10
    endloop
  endfacet
  facet normal 0.866026 0.5 0
    outer loop
      vertex 69.1547 9 8
      vertex 70.5 6.66987 10
      vertex 70.5 6.66987 8
    endloop
  endfacet
  facet normal 0 1 -0
    outer loop
      vertex 75.5 6.66987 8
      vertex 70.5 6.66987 10
      vertex 75.5 6.66987 10
    endloop
  endfacet
  facet normal 0 1 0
    outer loop
      vertex 70.5 6.66987 10
      vertex 75.5 6.66987 8
      vertex 70.5 6.66987 8
    endloop
  endfacet
  facet normal -0.866026 0.5 0
    outer loop
      vertex 75.5 6.66987 8
      vertex 76.8453 9 10
      vertex 76.8453 9 8
    endloop
  endfacet
  facet normal -0.866026 0.5 0
    outer loop
      vertex 76.8453 9 10
      vertex 75.5 6.66987 8
      vertex 75.5 6.66987 10
    endloop
  endfacet
  facet normal 0 -1 0
    outer loop
      vertex 82.5 15.3301 8
      vertex 87.5 15.3301 10
      vertex 82.5 15.3301 10
    endloop
  endfacet
  facet normal 0 -1 -0
    outer loop
      vertex 87.5 15.3301 10
      vertex 82.5 15.3301 8
      vertex 87.5 15.3301 8
    endloop
  endfacet
  facet normal -0.866024 -0.500002 0
    outer loop
      vertex 90 11 8
      vertex 87.5 15.3301 10
      vertex 87.5 15.3301 8
    endloop
  endfacet
  facet normal -0.866024 -0.500002 0
    outer loop
      vertex 87.5 15.3301 10
      vertex 90 11 8
      vertex 90 11 10
    endloop
  endfacet
  facet normal 0.866023 -0.500004 0
    outer loop
      vertex 81.1547 13 10
      vertex 82.5 15.3301 8
      vertex 82.5 15.3301 10
    endloop
  endfacet
  facet normal 0.866023 -0.500004 0
    outer loop
      vertex 82.5 15.3301 8
      vertex 81.1547 13 10
      vertex 81.1547 13 8
    endloop
  endfacet
  facet normal 0.866026 0.5 0
    outer loop
      vertex 82.5 6.66987 10
      vertex 81.1547 9 8
      vertex 81.1547 9 10
    endloop
  endfacet
  facet normal 0.866026 0.5 0
    outer loop
      vertex 81.1547 9 8
      vertex 82.5 6.66987 10
      vertex 82.5 6.66987 8
    endloop
  endfacet
  facet normal 0 1 -0
    outer loop
      vertex 87.5 6.66987 8
      vertex 82.5 6.66987 10
      vertex 87.5 6.66987 10
    endloop
  endfacet
  facet normal 0 1 0
    outer loop
      vertex 82.5 6.66987 10
      vertex 87.5 6.66987 8
      vertex 82.5 6.66987 8
    endloop
  endfacet
  facet normal -0.866026 0.5 0
    outer loop
      vertex 87.5 6.66987 8
      vertex 90 11 10
      vertex 90 11 8
    endloop
  endfacet
  facet normal -0.866026 0.5 0
    outer loop
      vertex 90 11 10
      vertex 87.5 6.66987 8
      vertex 87.5 6.66987 10
    endloop
  endfacet
  facet normal 0 -1 0
    outer loop
      vertex 8.5 29.3301 8
      vertex 13.5 29.3301 10
      vertex 8.5 29.3301 10
    endloop
  endfacet
  facet normal 0 -1 -0
    outer loop
      vertex 13.5 29.3301 10
      vertex 8.5 29.3301 8
      vertex 13.5 29.3301 8
    endloop
  endfacet
  facet normal -0.866023 -0.500004 0
    outer loop
      vertex 14.8453 27 8
      vertex 13.5 29.3301 10
      vertex 13.5 29.3301 8
    endloop
  endfacet
  facet normal -0.866023 -0.500004 0
    outer loop
      vertex 13.5 29.3301 10
      vertex 14.8453 27 8
      vertex 14.8453 27 10
    endloop
  endfacet
  facet normal 0.866024 -0.500002 0
    outer loop
      vertex 6 25 10
      vertex 8.5 29.3301 8
      vertex 8.5 29.3301 10
    endloop
  endfacet
  facet normal 0.866024 -0.500002 0
    outer loop
      vertex 8.5 29.3301 8
      vertex 6 25 10
      vertex 6 25 8
    endloop
  endfacet
  facet normal 0.866024 0.500002 0
    outer loop
      vertex 8.5 20.6699 10
      vertex 6 25 8
      vertex 6 25 10
    endloop
  endfacet
  facet normal 0.866024 0.500002 0
    outer loop
      vertex 6 25 8
      vertex 8.5 20.6699 10
      vertex 8.5 20.6699 8
    endloop
  endfacet
  facet normal 0 1 -0
    outer loop
      vertex 13.5 20.6699 8
      vertex 8.5 20.6699 10
      vertex 13.5 20.6699 10
    endloop
  endfacet
  facet normal 0 1 0
    outer loop
      vertex 8.5 20.6699 10
      vertex 13.5 20.6699 8
      vertex 8.5 20.6699 8
    endloop
  endfacet
  facet normal -0.866023 0.500004 0
    outer loop
      vertex 13.5 20.6699 8
      vertex 14.8453 23 10
      vertex 14.8453 23 8
    endloop
  endfacet
  facet normal -0.866023 0.500004 0
    outer loop
      vertex 14.8453 23 10
      vertex 13.5 20.6699 8
      vertex 13.5 20.6699 10
    endloop
  endfacet
  facet normal 0 1 -0
    outer loop
      vertex 25.5 20.6699 8
      vertex 20.5 20.6699 10
      vertex 25.5 20.6699 10
    endloop
  endfacet
  facet normal 0 1 0
    outer loop
      vertex 20.5 20.6699 10
      vertex 25.5 20.6699 8
      vertex 20.5 20.6699 8
    endloop
  endfacet
  facet normal 0 -1 0
    outer loop
      vertex 20.5 29.3301 8
      vertex 25.5 29.3301 10
      vertex 20.5 29.3301 10
    endloop
  endfacet
  facet normal 0 -1 -0
    outer loop
      vertex 25.5 29.3301 10
      vertex 20.5 29.3301 8
      vertex 25.5 29.3301 8
    endloop
  endfacet
  facet normal -0.866024 -0.500002 0
    outer loop
      vertex 28 25 8
      vertex 25.5 29.3301 10
      vertex 25.5 29.3301 8
    endloop
  endfacet
  facet normal -0.866024 -0.500002 0
    outer loop
      vertex 25.5 29.3301 10
      vertex 28 25 8
      vertex 28 25 10
    endloop
  endfacet
  facet normal 0.866023 -0.500004 0
    outer loop
      vertex 19.1547 27 10
      vertex 20.5 29.3301 8
      vertex 20.5 29.3301 10
    endloop
  endfacet
  facet normal 0.866023 -0.500004 0
    outer loop
      vertex 20.5 29.3301 8
      vertex 19.1547 27 10
      vertex 19.1547 27 8
    endloop
  endfacet
  facet normal 0.866023 0.500004 0
    outer loop
      vertex 20.5 20.6699 10
      vertex 19.1547 23 8
      vertex 19.1547 23 10
    endloop
  endfacet
  facet normal 0.866023 0.500004 0
    outer loop
      vertex 19.1547 23 8
      vertex 20.5 20.6699 10
      vertex 20.5 20.6699 8
    endloop
  endfacet
  facet normal -0.866024 0.500002 0
    outer loop
      vertex 25.5 20.6699 8
      vertex 28 25 10
      vertex 28 25 8
    endloop
  endfacet
  facet normal -0.866024 0.500002 0
    outer loop
      vertex 28 25 10
      vertex 25.5 20.6699 8
      vertex 25.5 20.6699 10
    endloop
  endfacet
  facet normal 0 1 -0
    outer loop
      vertex 39.5 20.6699 8
      vertex 34.5 20.6699 10
      vertex 39.5 20.6699 10
    endloop
  endfacet
  facet normal 0 1 0
    outer loop
      vertex 34.5 20.6699 10
      vertex 39.5 20.6699 8
      vertex 34.5 20.6699 8
    endloop
  endfacet
  facet normal 0 -1 0
    outer loop
      vertex 34.5 29.3301 8
      vertex 39.5 29.3301 10
      vertex 34.5 29.3301 10
    endloop
  endfacet
  facet normal 0 -1 -0
    outer loop
      vertex 39.5 29.3301 10
      vertex 34.5 29.3301 8
      vertex 39.5 29.3301 8
    endloop
  endfacet
  facet normal -0.866023 -0.500004 0
    outer loop
      vertex 40.8453 27 8
      vertex 39.5 29.3301 10
      vertex 39.5 29.3301 8
    endloop
  endfacet
  facet normal -0.866023 -0.500004 0
    outer loop
      vertex 39.5 29.3301 10
      vertex 40.8453 27 8
      vertex 40.8453 27 10
    endloop
  endfacet
  facet normal 0.866024 -0.500002 0
    outer loop
      vertex 32 25 10
      vertex 34.5 29.3301 8
      vertex 34.5 29.3301 10
    endloop
  endfacet
  facet normal 0.866024 -0.500002 0
    outer loop
      vertex 34.5 29.3301 8
      vertex 32 25 10
      vertex 32 25 8
    endloop
  endfacet
  facet normal 0.866024 0.500002 0
    outer loop
      vertex 34.5 20.6699 10
      vertex 32 25 8
      vertex 32 25 10
    endloop
  endfacet
  facet normal 0.866024 0.500002 0
    outer loop
      vertex 32 25 8
      vertex 34.5 20.6699 10
      vertex 34.5 20.6699 8
    endloop
  endfacet
  facet normal -0.866023 0.500004 0
    outer loop
      vertex 39.5 20.6699 8
      vertex 40.8453 23 10
      vertex 40.8453 23 8
    endloop
  endfacet
  facet normal -0.866023 0.500004 0
    outer loop
      vertex 40.8453 23 10
      vertex 39.5 20.6699 8
      vertex 39.5 20.6699 10
    endloop
  endfacet
  facet normal 0 1 -0
    outer loop
      vertex 51.5 20.6699 8
      vertex 46.5 20.6699 10
      vertex 51.5 20.6699 10
    endloop
  endfacet
  facet normal 0 1 0
    outer loop
      vertex 46.5 20.6699 10
      vertex 51.5 20.6699 8
      vertex 46.5 20.6699 8
    endloop
  endfacet
  facet normal 0 -1 0
    outer loop
      vertex 46.5 29.3301 8
      vertex 51.5 29.3301 10
      vertex 46.5 29.3301 10
    endloop
  endfacet
  facet normal 0 -1 -0
    outer loop
      vertex 51.5 29.3301 10
      vertex 46.5 29.3301 8
      vertex 51.5 29.3301 8
    endloop
  endfacet
  facet normal -0.866023 -0.500004 0
    outer loop
      vertex 52.8453 27 8
      vertex 51.5 29.3301 10
      vertex 51.5 29.3301 8
    endloop
  endfacet
  facet normal -0.866023 -0.500004 0
    outer loop
      vertex 51.5 29.3301 10
      vertex 52.8453 27 8
      vertex 52.8453 27 10
    endloop
  endfacet
  facet normal 0.866023 -0.500004 0
    outer loop
      vertex 45.1547 27 10
      vertex 46.5 29.3301 8
      vertex 46.5 29.3301 10
    endloop
  endfacet
  facet normal 0.866023 -0.500004 0
    outer loop
      vertex 46.5 29.3301 8
      vertex 45.1547 27 10
      vertex 45.1547 27 8
    endloop
  endfacet
  facet normal 0.866023 0.500004 0
    outer loop
      vertex 46.5 20.6699 10
      vertex 45.1547 23 8
      vertex 45.1547 23 10
    endloop
  endfacet
  facet normal 0.866023 0.500004 0
    outer loop
      vertex 45.1547 23 8
      vertex 46.5 20.6699 10
      vertex 46.5 20.6699 8
    endloop
  endfacet
  facet normal -0.866023 0.500004 0
    outer loop
      vertex 51.5 20.6699 8
      vertex 52.8453 23 10
      vertex 52.8453 23 8
    endloop
  endfacet
  facet normal -0.866023 0.500004 0
    outer loop
      vertex 52.8453 23 10
      vertex 51.5 20.6699 8
      vertex 51.5 20.6699 10
    endloop
  endfacet
  facet normal 0 -1 0
    outer loop
      vertex 58.5 29.3301 8
      vertex 63.5 29.3301 10
      vertex 58.5 29.3301 10
    endloop
  endfacet
  facet normal 0 -1 -0
    outer loop
      vertex 63.5 29.3301 10
      vertex 58.5 29.3301 8
      vertex 63.5 29.3301 8
    endloop
  endfacet
  facet normal -0.866023 -0.500004 0
    outer loop
      vertex 64.8453 27 8
      vertex 63.5 29.3301 10
      vertex 63.5 29.3301 8
    endloop
  endfacet
  facet normal -0.866023 -0.500004 0
    outer loop
      vertex 63.5 29.3301 10
      vertex 64.8453 27 8
      vertex 64.8453 27 10
    endloop
  endfacet
  facet normal 0.866023 -0.500004 0
    outer loop
      vertex 57.1547 27 10
      vertex 58.5 29.3301 8
      vertex 58.5 29.3301 10
    endloop
  endfacet
  facet normal 0.866023 -0.500004 0
    outer loop
      vertex 58.5 29.3301 8
      vertex 57.1547 27 10
      vertex 57.1547 27 8
    endloop
  endfacet
  facet normal 0.866023 0.500004 0
    outer loop
      vertex 58.5 20.6699 10
      vertex 57.1547 23 8
      vertex 57.1547 23 10
    endloop
  endfacet
  facet normal 0.866023 0.500004 0
    outer loop
      vertex 57.1547 23 8
      vertex 58.5 20.6699 10
      vertex 58.5 20.6699 8
    endloop
  endfacet
  facet normal 0 1 -0
    outer loop
      vertex 63.5 20.6699 8
      vertex 58.5 20.6699 10
      vertex 63.5 20.6699 10
    endloop
  endfacet
  facet normal 0 1 0
    outer loop
      vertex 58.5 20.6699 10
      vertex 63.5 20.6699 8
      vertex 58.5 20.6699 8
    endloop
  endfacet
  facet normal -0.866023 0.500004 0
    outer loop
      vertex 63.5 20.6699 8
      vertex 64.8453 23 10
      vertex 64.8453 23 8
    endloop
  endfacet
  facet normal -0.866023 0.500004 0
    outer loop
      vertex 64.8453 23 10
      vertex 63.5 20.6699 8
      vertex 63.5 20.6699 10
    endloop
  endfacet
  facet normal 0 -1 0
    outer loop
      vertex 70.5 29.3301 8
      vertex 75.5 29.3301 10
      vertex 70.5 29.3301 10
    endloop
  endfacet
  facet normal 0 -1 -0
    outer loop
      vertex 75.5 29.3301 10
      vertex 70.5 29.3301 8
      vertex 75.5 29.3301 8
    endloop
  endfacet
  facet normal -0.866023 -0.500004 0
    outer loop
      vertex 76.8453 27 8
      vertex 75.5 29.3301 10
      vertex 75.5 29.3301 8
    endloop
  endfacet
  facet normal -0.866023 -0.500004 0
    outer loop
      vertex 75.5 29.3301 10
      vertex 76.8453 27 8
      vertex 76.8453 27 10
    endloop
  endfacet
  facet normal 0.866023 -0.500004 0
    outer loop
      vertex 69.1547 27 10
      vertex 70.5 29.3301 8
      vertex 70.5 29.3301 10
    endloop
  endfacet
  facet normal 0.866023 -0.500004 0
    outer loop
      vertex 70.5 29.3301 8
      vertex 69.1547 27 10
      vertex 69.1547 27 8
    endloop
  endfacet
  facet normal 0.866023 0.500004 0
    outer loop
      vertex 70.5 20.6699 10
      vertex 69.1547 23 8
      vertex 69.1547 23 10
    endloop
  endfacet
  facet normal 0.866023 0.500004 0
    outer loop
      vertex 69.1547 23 8
      vertex 70.5 20.6699 10
      vertex 70.5 20.6699 8
    endloop
  endfacet
  facet normal 0 1 -0
    outer loop
      vertex 75.5 20.6699 8
      vertex 70.5 20.6699 10
      vertex 75.5 20.6699 10
    endloop
  endfacet
  facet normal 0 1 0
    outer loop
      vertex 70.5 20.6699 10
      vertex 75.5 20.6699 8
      vertex 70.5 20.6699 8
    endloop
  endfacet
  facet normal -0.866023 0.500004 0
    outer loop
      vertex 75.5 20.6699 8
      vertex 76.8453 23 10
      vertex 76.8453 23 8
    endloop
  endfacet
  facet normal -0.866023 0.500004 0
    outer loop
      vertex 76.8453 23 10
      vertex 75.5 20.6699 8
      vertex 75.5 20.6699 10
    endloop
  endfacet
  facet normal 0 -1 0
    outer loop
      vertex 82.5 29.3301 8
      vertex 87.5 29.3301 10
      vertex 82.5 29.3301 10
    endloop
  endfacet
  facet normal 0 -1 -0
    outer loop
      vertex 87.5 29.3301 10
      vertex 82.5 29.3301 8
      vertex 87.5 29.3301 8
    endloop
  endfacet
  facet normal -0.866024 -0.500002 0
    outer loop
      vertex 90 25 8
      vertex 87.5 29.3301 10
      vertex 87.5 29.3301 8
    endloop
  endfacet
  facet normal -0.866024 -0.500002 0
    outer loop
      vertex 87.5 29.3301 10
      vertex 90 25 8
      vertex 90 25 10
    endloop
  endfacet
  facet normal 0.866023 -0.500004 0
    outer loop
      vertex 81.1547 27 10
      vertex 82.5 29.3301 8
      vertex 82.5 29.3301 10
    endloop
  endfacet
  facet normal 0.866023 -0.500004 0
    outer loop
      vertex 82.5 29.3301 8
      vertex 81.1547 27 10
      vertex 81.1547 27 8
    endloop
  endfacet
  facet normal 0.866023 0.500004 0
    outer loop
      vertex 82.5 20.6699 10
      vertex 81.1547 23 8
      vertex 81.1547 23 10
    endloop
  endfacet
  facet normal 0.866023 0.500004 0
    outer loop
      vertex 81.1547 23 8
      vertex 82.5 20.6699 10
      vertex 82.5 20.6699 8
    endloop
  endfacet
  facet normal 0 1 -0
    outer loop
      vertex 87.5 20.6699 8
      vertex 82.5 20.6699 10
      vertex 87.5 20.6699 10
    endloop
  endfacet
  facet normal 0 1 0
    outer loop
      vertex 82.5 20.6699 10
      vertex 87.5 20.6699 8
      vertex 82.5 20.6699 8
    endloop
  endfacet
  facet normal -0.866024 0.500002 0
    outer loop
      vertex 87.5 20.6699 8
      vertex 90 25 10
      vertex 90 25 8
    endloop
  endfacet
  facet normal -0.866024 0.500002 0
    outer loop
      vertex 90 25 10
      vertex 87.5 20.6699 8
      vertex 87.5 20.6699 10
    endloop
  endfacet
  facet normal 0 -1 0
    outer loop
      vertex 14.8453 13 8
      vertex 19.1547 13 10
      vertex 14.8453 13 10
    endloop
  endfacet
  facet normal 0 -1 -0
    outer loop
      vertex 19.1547 13 10
      vertex 14.8453 13 8
      vertex 19.1547 13 8
    endloop
  endfacet
  facet normal 0 1 -0
    outer loop
      vertex 19.1547 9 8
      vertex 14.8453 9 10
      vertex 19.1547 9 10
    endloop
  endfacet
  facet normal 0 1 0
    outer loop
      vertex 14.8453 9 10
      vertex 19.1547 9 8
      vertex 14.8453 9 8
    endloop
  endfacet
  facet normal 0 -1 0
    outer loop
      vertex 14.8453 27 8
      vertex 19.1547 27 10
      vertex 14.8453 27 10
    endloop
  endfacet
  facet normal 0 -1 -0
    outer loop
      vertex 19.1547 27 10
      vertex 14.8453 27 8
      vertex 19.1547 27 8
    endloop
  endfacet
  facet normal 0 1 -0
    outer loop
      vertex 19.1547 23 8
      vertex 14.8453 23 10
      vertex 19.1547 23 10
    endloop
  endfacet
  facet normal 0 1 0
    outer loop
      vertex 14.8453 23 10
      vertex 19.1547 23 8
      vertex 14.8453 23 8
    endloop
  endfacet
  facet normal 0 -1 0
    outer loop
      vertex 40.8453 13 8
      vertex 45.1547 13 10
      vertex 40.8453 13 10
    endloop
  endfacet
  facet normal 0 -1 -0
    outer loop
      vertex 45.1547 13 10
      vertex 40.8453 13 8
      vertex 45.1547 13 8
    endloop
  endfacet
  facet normal 0 1 -0
    outer loop
      vertex 45.1547 9 8
      vertex 40.8453 9 10
      vertex 45.1547 9 10
    endloop
  endfacet
  facet normal 0 1 0
    outer loop
      vertex 40.8453 9 10
      vertex 45.1547 9 8
      vertex 40.8453 9 8
    endloop
  endfacet
  facet normal 0 -1 0
    outer loop
      vertex 52.8453 13 8
      vertex 57.1547 13 10
      vertex 52.8453 13 10
    endloop
  endfacet
  facet normal 0 -1 -0
    outer loop
      vertex 57.1547 13 10
      vertex 52.8453 13 8
      vertex 57.1547 13 8
    endloop
  endfacet
  facet normal 0 1 -0
    outer loop
      vertex 57.1547 9 8
      vertex 52.8453 9 10
      vertex 57.1547 9 10
    endloop
  endfacet
  facet normal 0 1 0
    outer loop
      vertex 52.8453 9 10
      vertex 57.1547 9 8
      vertex 52.8453 9 8
    endloop
  endfacet
  facet normal 0 -1 0
    outer loop
      vertex 64.8453 13 8
      vertex 69.1547 13 10
      vertex 64.8453 13 10
    endloop
  endfacet
  facet normal 0 -1 -0
    outer loop
      vertex 69.1547 13 10
      vertex 64.8453 13 8
      vertex 69.1547 13 8
    endloop
  endfacet
  facet normal 0 1 -0
    outer loop
      vertex 69.1547 9 8
      vertex 64.8453 9 10
      vertex 69.1547 9 10
    endloop
  endfacet
  facet normal 0 1 0
    outer loop
      vertex 64.8453 9 10
      vertex 69.1547 9 8
      vertex 64.8453 9 8
    endloop
  endfacet
  facet normal 0 -1 0
    outer loop
      vertex 76.8453 13 8
      vertex 81.1547 13 10
      vertex 76.8453 13 10
    endloop
  endfacet
  facet normal 0 -1 -0
    outer loop
      vertex 81.1547 13 10
      vertex 76.8453 13 8
      vertex 81.1547 13 8
    endloop
  endfacet
  facet normal 0 1 -0
    outer loop
      vertex 81.1547 9 8
      vertex 76.8453 9 10
      vertex 81.1547 9 10
    endloop
  endfacet
  facet normal 0 1 0
    outer loop
      vertex 76.8453 9 10
      vertex 81.1547 9 8
      vertex 76.8453 9 8
    endloop
  endfacet
  facet normal 0 -1 0
    outer loop
      vertex 40.8453 27 8
      vertex 45.1547 27 10
      vertex 40.8453 27 10
    endloop
  endfacet
  facet normal 0 -1 -0
    outer loop
      vertex 45.1547 27 10
      vertex 40.8453 27 8
      vertex 45.1547 27 8
    endloop
  endfacet
  facet normal 0 1 -0
    outer loop
      vertex 45.1547 23 8
      vertex 40.8453 23 10
      vertex 45.1547 23 10
    endloop
  endfacet
  facet normal 0 1 0
    outer loop
      vertex 40.8453 23 10
      vertex 45.1547 23 8
      vertex 40.8453 23 8
    endloop
  endfacet
  facet normal 0 -1 0
    outer loop
      vertex 52.8453 27 8
      vertex 57.1547 27 10
      vertex 52.8453 27 10
    endloop
  endfacet
  facet normal 0 -1 -0
    outer loop
      vertex 57.1547 27 10
      vertex 52.8453 27 8
      vertex 57.1547 27 8
    endloop
  endfacet
  facet normal 0 1 -0
    outer loop
      vertex 57.1547 23 8
      vertex 52.8453 23 10
      vertex 57.1547 23 10
    endloop
  endfacet
  facet normal 0 1 0
    outer loop
      vertex 52.8453 23 10
      vertex 57.1547 23 8
      vertex 52.8453 23 8
    endloop
  endfacet
  facet normal 0 -1 0
    outer loop
      vertex 64.8453 27 8
      vertex 69.1547 27 10
      vertex 64.8453 27 10
    endloop
  endfacet
  facet normal 0 -1 -0
    outer loop
      vertex 69.1547 27 10
      vertex 64.8453 27 8
      vertex 69.1547 27 8
    endloop
  endfacet
  facet normal 0 1 -0
    outer loop
      vertex 69.1547 23 8
      vertex 64.8453 23 10
      vertex 69.1547 23 10
    endloop
  endfacet
  facet normal 0 1 0
    outer loop
      vertex 64.8453 23 10
      vertex 69.1547 23 8
      vertex 64.8453 23 8
    endloop
  endfacet
  facet normal 0 -1 0
    outer loop
      vertex 76.8453 27 8
      vertex 81.1547 27 10
      vertex 76.8453 27 10
    endloop
  endfacet
  facet normal 0 -1 -0
    outer loop
      vertex 81.1547 27 10
      vertex 76.8453 27 8
      vertex 81.1547 27 8
    endloop
  endfacet
  facet normal 0 1 -0
    outer loop
      vertex 81.1547 23 8
      vertex 76.8453 23 10
      vertex 81.1547 23 10
    endloop
  endfacet
  facet normal 0 1 0
    outer loop
      vertex 76.8453 23 10
      vertex 81.1547 23 8
      vertex 76.8453 23 8
    endloop
  endfacet
  facet normal -1 0 0
    outer loop
      vertex 19.2 0 0
      vertex 19.2 3.84 5.68
      vertex 19.2 1 0
    endloop
  endfacet
  facet normal -1 -0 0
    outer loop
      vertex 19.2 3.84 5.68
      vertex 19.2 0 0
      vertex 19.2 3.84 7.68
    endloop
  endfacet
  facet normal 0 -1 0
    outer loop
      vertex 3.84 3.84 7.68
      vertex 3.84 3.84 5.68
      vertex 4.29026 3.84 7.68
    endloop
  endfacet
  facet normal 0 -1 0
    outer loop
      vertex 0 3.84 0
      vertex 3.84 3.84 5.68
      vertex 3.84 3.84 7.68
    endloop
  endfacet
  facet normal 0 -1 0
    outer loop
      vertex 3.84 3.84 5.68
      vertex 0 3.84 0
      vertex 1 3.84 0
    endloop
  endfacet
  facet normal 0 -1 -0
    outer loop
      vertex 4.29026 3.84 7.68
      vertex 3.84 3.84 5.68
      vertex 4.78892 3.84 5.68
    endloop
  endfacet
  facet normal 0 -1 0
    outer loop
      vertex 5.92259 3.84 5.68
      vertex 19.2 3.84 7.68
      vertex 5.42393 3.84 7.68
    endloop
  endfacet
  facet normal 0 -1 -0
    outer loop
      vertex 19.2 3.84 7.68
      vertex 5.92259 3.84 5.68
      vertex 19.2 3.84 5.68
    endloop
  endfacet
  facet normal -1 0 0
    outer loop
      vertex 57.6 0 0
      vertex 57.6 3.84 5.68
      vertex 57.6 1 0
    endloop
  endfacet
  facet normal -1 -0 0
    outer loop
      vertex 57.6 3.84 5.68
      vertex 57.6 0 0
      vertex 57.6 3.84 7.68
    endloop
  endfacet
  facet normal 1 0 0
    outer loop
      vertex 38.4 0 0
      vertex 38.4 3.84 5.68
      vertex 38.4 3.84 7.68
    endloop
  endfacet
  facet normal 1 0 0
    outer loop
      vertex 38.4 3.84 5.68
      vertex 38.4 0 0
      vertex 38.4 1 0
    endloop
  endfacet
  facet normal 0 -1 0
    outer loop
      vertex 38.4 3.84 5.68
      vertex 57.6 3.84 7.68
      vertex 38.4 3.84 7.68
    endloop
  endfacet
  facet normal 0 -1 -0
    outer loop
      vertex 57.6 3.84 7.68
      vertex 38.4 3.84 5.68
      vertex 57.6 3.84 5.68
    endloop
  endfacet
  facet normal 1 0 0
    outer loop
      vertex 76.8 0 0
      vertex 76.8 3.84 5.68
      vertex 76.8 3.84 7.68
    endloop
  endfacet
  facet normal 1 0 0
    outer loop
      vertex 76.8 3.84 5.68
      vertex 76.8 0 0
      vertex 76.8 1 0
    endloop
  endfacet
  facet normal 0 -1 0
    outer loop
      vertex 76.8 3.84 5.68
      vertex 92.16 3.84 7.68
      vertex 76.8 3.84 7.68
    endloop
  endfacet
  facet normal 0 -1 0
    outer loop
      vertex 92.16 3.84 5.68
      vertex 92.16 3.84 7.68
      vertex 76.8 3.84 5.68
    endloop
  endfacet
  facet normal 0 -1 0
    outer loop
      vertex 96 3.84 0
      vertex 92.16 3.84 5.68
      vertex 95 3.84 0
    endloop
  endfacet
  facet normal 0 -1 0
    outer loop
      vertex 92.16 3.84 5.68
      vertex 96 3.84 0
      vertex 92.16 3.84 7.68
    endloop
  endfacet
  facet normal -1 0 0
    outer loop
      vertex 38.4 32.16 5.68
      vertex 38.4 36 0
      vertex 38.4 35 0
    endloop
  endfacet
  facet normal -1 0 0
    outer loop
      vertex 38.4 36 0
      vertex 38.4 32.16 5.68
      vertex 38.4 32.16 7.68
    endloop
  endfacet
  facet normal 1 -0 0
    outer loop
      vertex 19.2 32.16 5.68
      vertex 19.2 36 0
      vertex 19.2 32.16 7.68
    endloop
  endfacet
  facet normal 1 0 0
    outer loop
      vertex 19.2 36 0
      vertex 19.2 32.16 5.68
      vertex 19.2 35 0
    endloop
  endfacet
  facet normal 0 1 -0
    outer loop
      vertex 38.4 32.16 5.68
      vertex 19.2 32.16 7.68
      vertex 38.4 32.16 7.68
    endloop
  endfacet
  facet normal 0 1 0
    outer loop
      vertex 19.2 32.16 7.68
      vertex 38.4 32.16 5.68
      vertex 19.2 32.16 5.68
    endloop
  endfacet
  facet normal -1 0 0
    outer loop
      vertex 76.8 32.16 5.68
      vertex 76.8 36 0
      vertex 76.8 35 0
    endloop
  endfacet
  facet normal -1 0 0
    outer loop
      vertex 76.8 36 0
      vertex 76.8 32.16 5.68
      vertex 76.8 32.16 7.68
    endloop
  endfacet
  facet normal 1 -0 0
    outer loop
      vertex 57.6 32.16 5.68
      vertex 57.6 36 0
      vertex 57.6 32.16 7.68
    endloop
  endfacet
  facet normal 1 0 0
    outer loop
      vertex 57.6 36 0
      vertex 57.6 32.16 5.68
      vertex 57.6 35 0
    endloop
  endfacet
  facet normal 0 1 -0
    outer loop
      vertex 76.8 32.16 5.68
      vertex 57.6 32.16 7.68
      vertex 76.8 32.16 7.68
    endloop
  endfacet
  facet normal 0 1 0
    outer loop
      vertex 57.6 32.16 7.68
      vertex 76.8 32.16 5.68
      vertex 57.6 32.16 5.68
    endloop
  endfacet
endsolid OpenSCAD_Model
