solid OpenSCAD_Model
  facet normal 0 0.894427 0.447214
    outer loop
      vertex 82.14 46.8 0
      vertex 54.76 41.324 10.952
      vertex 82.14 41.324 10.952
    endloop
  endfacet
  facet normal 0 0.894427 0.447214
    outer loop
      vertex 54.76 41.324 10.952
      vertex 82.14 46.8 0
      vertex 54.76 46.8 0
    endloop
  endfacet
  facet normal 0 0.894427 0.447214
    outer loop
      vertex 82.14 41.324 10.952
      vertex 6 40.8 12
      vertex 130.9 40.8 12
    endloop
  endfacet
  facet normal -0 0.894427 0.447214
    outer loop
      vertex 82.14 41.324 10.952
      vertex 130.9 40.8 12
      vertex 109.52 41.324 10.952
    endloop
  endfacet
  facet normal -0 0.894427 0.447214
    outer loop
      vertex 109.52 46.8 0
      vertex 130.9 40.8 12
      vertex 136.9 46.8 0
    endloop
  endfacet
  facet normal 4.07123e-17 0.894427 0.447214
    outer loop
      vertex 130.9 40.8 12
      vertex 109.52 46.8 0
      vertex 109.52 41.324 10.952
    endloop
  endfacet
  facet normal -0 0.894427 0.447214
    outer loop
      vertex 54.76 41.324 10.952
      vertex 6 40.8 12
      vertex 82.14 41.324 10.952
    endloop
  endfacet
  facet normal -0 0.894427 0.447214
    outer loop
      vertex 27.38 41.324 10.952
      vertex 6 40.8 12
      vertex 54.76 41.324 10.952
    endloop
  endfacet
  facet normal 2.39179e-08 0.894427 0.447214
    outer loop
      vertex 7.16142 45.4111 2.77781
      vertex 6 40.8 12
      vertex 27.38 41.324 10.952
    endloop
  endfacet
  facet normal -0.000104759 0.894432 0.447203
    outer loop
      vertex 6 40.8 12
      vertex 7.16142 45.4111 2.77781
      vertex 5.65645 41.1435 11.3129
    endloop
  endfacet
  facet normal -0 0.894428 0.447212
    outer loop
      vertex 0 46.8 0
      vertex 7.16142 45.4111 2.77781
      vertex 27.38 46.8 0
    endloop
  endfacet
  facet normal 2.21189e-07 0.894427 0.447214
    outer loop
      vertex 27.38 46.8 0
      vertex 7.16142 45.4111 2.77781
      vertex 27.38 41.324 10.952
    endloop
  endfacet
  facet normal -2.50254e-07 0.894427 0.447214
    outer loop
      vertex 6.07813 45.5066 2.5868
      vertex 0 46.8 0
      vertex 4.83069 41.9693 9.66139
    endloop
  endfacet
  facet normal -7.04846e-06 0.894421 0.447227
    outer loop
      vertex 7.16142 45.4111 2.77781
      vertex 0 46.8 0
      vertex 6.07813 45.5066 2.5868
    endloop
  endfacet
  facet normal 0 -0.894427 0.447214
    outer loop
      vertex 82.14 0 0
      vertex 109.52 5.476 10.952
      vertex 82.14 5.476 10.952
    endloop
  endfacet
  facet normal 0 -0.894427 0.447214
    outer loop
      vertex 109.52 5.476 10.952
      vertex 82.14 0 0
      vertex 109.52 0 0
    endloop
  endfacet
  facet normal 0 -0.894427 0.447214
    outer loop
      vertex 27.38 0 0
      vertex 54.76 5.476 10.952
      vertex 27.38 5.476 10.952
    endloop
  endfacet
  facet normal 0 -0.894427 0.447214
    outer loop
      vertex 54.76 5.476 10.952
      vertex 27.38 0 0
      vertex 54.76 0 0
    endloop
  endfacet
  facet normal 0 -0.894427 0.447214
    outer loop
      vertex 5.72009 5.476 10.952
      vertex 6 6 12
      vertex 5.65645 5.65645 11.3129
    endloop
  endfacet
  facet normal 0 -0.894427 0.447214
    outer loop
      vertex 6 6 12
      vertex 5.72009 5.476 10.952
      vertex 27.38 5.476 10.952
    endloop
  endfacet
  facet normal 0 -0.894427 0.447214
    outer loop
      vertex 54.76 5.476 10.952
      vertex 6 6 12
      vertex 27.38 5.476 10.952
    endloop
  endfacet
  facet normal 0 -0.894427 0.447214
    outer loop
      vertex 6 6 12
      vertex 54.76 5.476 10.952
      vertex 130.9 6 12
    endloop
  endfacet
  facet normal 0 -0.894427 0.447214
    outer loop
      vertex 82.14 5.476 10.952
      vertex 130.9 6 12
      vertex 54.76 5.476 10.952
    endloop
  endfacet
  facet normal 0 -0.894427 0.447214
    outer loop
      vertex 109.52 5.476 10.952
      vertex 130.9 6 12
      vertex 82.14 5.476 10.952
    endloop
  endfacet
  facet normal 0 -0.894427 0.447214
    outer loop
      vertex 130.9 6 12
      vertex 109.52 5.476 10.952
      vertex 131.424 5.476 10.952
    endloop
  endfacet
  facet normal -0.894427 0 0.447214
    outer loop
      vertex 5.65645 41.1435 11.3129
      vertex 6 6 12
      vertex 6 40.8 12
    endloop
  endfacet
  facet normal -0.894427 0 0.447214
    outer loop
      vertex 6 6 12
      vertex 5.65645 41.1435 11.3129
      vertex 5.65645 5.65645 11.3129
    endloop
  endfacet
  facet normal -0.894427 0 0.447213
    outer loop
      vertex 0 5.476 0
      vertex 4.83069 41.9693 9.66139
      vertex 0 46.8 0
    endloop
  endfacet
  facet normal -0.894427 0 0.447213
    outer loop
      vertex 4.83069 41.9693 9.66139
      vertex 0 5.476 0
      vertex 4.83069 5.476 9.66139
    endloop
  endfacet
  facet normal 0 0 1
    outer loop
      vertex 33.2 18.3962 12
      vertex 52.7 18.3962 12
      vertex 33.2 28.4038 12
    endloop
  endfacet
  facet normal 0 0 1
    outer loop
      vertex 52.7 18.3962 12
      vertex 33.2 18.3962 12
      vertex 36.2 13.2 12
    endloop
  endfacet
  facet normal -0 0 1
    outer loop
      vertex 27.2 28.4038 12
      vertex 33.2 18.3962 12
      vertex 33.2 28.4038 12
    endloop
  endfacet
  facet normal 0 0 1
    outer loop
      vertex 27.2 28.4038 12
      vertex 27.2 18.3962 12
      vertex 33.2 18.3962 12
    endloop
  endfacet
  facet normal 0 0 1
    outer loop
      vertex 16.2 28.4038 12
      vertex 27.2 28.4038 12
      vertex 25.3547 31.6 12
    endloop
  endfacet
  facet normal 0 0 1
    outer loop
      vertex 27.2 28.4038 12
      vertex 16.2 28.4038 12
      vertex 27.2 18.3962 12
    endloop
  endfacet
  facet normal 0 0 1
    outer loop
      vertex 16.2 28.4038 12
      vertex 25.3547 31.6 12
      vertex 18.0453 31.6 12
    endloop
  endfacet
  facet normal 0 0 1
    outer loop
      vertex 16.2 18.3962 12
      vertex 27.2 18.3962 12
      vertex 16.2 28.4038 12
    endloop
  endfacet
  facet normal 0 0 1
    outer loop
      vertex 27.2 18.3962 12
      vertex 16.2 18.3962 12
      vertex 25.3547 15.2 12
    endloop
  endfacet
  facet normal 0 0 1
    outer loop
      vertex 25.3547 15.2 12
      vertex 16.2 18.3962 12
      vertex 18.0453 15.2 12
    endloop
  endfacet
  facet normal -0 0 1
    outer loop
      vertex 10.2 28.4038 12
      vertex 16.2 18.3962 12
      vertex 16.2 28.4038 12
    endloop
  endfacet
  facet normal 0 0 1
    outer loop
      vertex 10.2 28.4038 12
      vertex 10.2 18.3962 12
      vertex 16.2 18.3962 12
    endloop
  endfacet
  facet normal 0 0 1
    outer loop
      vertex 7.2 33.6 12
      vertex 10.2 18.3962 12
      vertex 10.2 28.4038 12
    endloop
  endfacet
  facet normal 0 0 1
    outer loop
      vertex 10.2 18.3962 12
      vertex 7.2 33.6 12
      vertex 7.2 13.2 12
    endloop
  endfacet
  facet normal -0 0 1
    outer loop
      vertex 126.7 28.4038 12
      vertex 129.7 13.2 12
      vertex 129.7 33.6 12
    endloop
  endfacet
  facet normal 0 0 1
    outer loop
      vertex 126.7 28.4038 12
      vertex 126.7 18.3962 12
      vertex 129.7 13.2 12
    endloop
  endfacet
  facet normal -0 0 1
    outer loop
      vertex 120.7 28.4038 12
      vertex 126.7 18.3962 12
      vertex 126.7 28.4038 12
    endloop
  endfacet
  facet normal 0 0 1
    outer loop
      vertex 120.7 28.4038 12
      vertex 120.7 18.3962 12
      vertex 126.7 18.3962 12
    endloop
  endfacet
  facet normal 0 0 1
    outer loop
      vertex 109.7 28.4038 12
      vertex 120.7 28.4038 12
      vertex 118.855 31.6 12
    endloop
  endfacet
  facet normal 0 0 1
    outer loop
      vertex 120.7 28.4038 12
      vertex 109.7 28.4038 12
      vertex 120.7 18.3962 12
    endloop
  endfacet
  facet normal 0 0 1
    outer loop
      vertex 109.7 28.4038 12
      vertex 118.855 31.6 12
      vertex 111.545 31.6 12
    endloop
  endfacet
  facet normal 0 0 1
    outer loop
      vertex 109.7 18.3962 12
      vertex 120.7 18.3962 12
      vertex 109.7 28.4038 12
    endloop
  endfacet
  facet normal 0 0 1
    outer loop
      vertex 120.7 18.3962 12
      vertex 109.7 18.3962 12
      vertex 118.855 15.2 12
    endloop
  endfacet
  facet normal 0 0 1
    outer loop
      vertex 118.855 15.2 12
      vertex 109.7 18.3962 12
      vertex 111.545 15.2 12
    endloop
  endfacet
  facet normal -0 0 1
    outer loop
      vertex 103.7 28.4038 12
      vertex 109.7 18.3962 12
      vertex 109.7 28.4038 12
    endloop
  endfacet
  facet normal 0 0 1
    outer loop
      vertex 103.7 28.4038 12
      vertex 103.7 18.3962 12
      vertex 109.7 18.3962 12
    endloop
  endfacet
  facet normal 0 0 1
    outer loop
      vertex 92.7 28.4038 12
      vertex 103.7 28.4038 12
      vertex 101.855 31.6 12
    endloop
  endfacet
  facet normal 0 0 1
    outer loop
      vertex 103.7 28.4038 12
      vertex 92.7 28.4038 12
      vertex 103.7 18.3962 12
    endloop
  endfacet
  facet normal 0 0 1
    outer loop
      vertex 92.7 28.4038 12
      vertex 101.855 31.6 12
      vertex 94.5453 31.6 12
    endloop
  endfacet
  facet normal 0 0 1
    outer loop
      vertex 92.7 18.3962 12
      vertex 103.7 18.3962 12
      vertex 92.7 28.4038 12
    endloop
  endfacet
  facet normal 0 0 1
    outer loop
      vertex 103.7 18.3962 12
      vertex 92.7 18.3962 12
      vertex 101.855 15.2 12
    endloop
  endfacet
  facet normal 0 0 1
    outer loop
      vertex 101.855 15.2 12
      vertex 92.7 18.3962 12
      vertex 94.5453 15.2 12
    endloop
  endfacet
  facet normal -0 0 1
    outer loop
      vertex 86.7 28.4038 12
      vertex 92.7 18.3962 12
      vertex 92.7 28.4038 12
    endloop
  endfacet
  facet normal 0 0 1
    outer loop
      vertex 86.7 28.4038 12
      vertex 86.7 18.3962 12
      vertex 92.7 18.3962 12
    endloop
  endfacet
  facet normal 0 0 1
    outer loop
      vertex 75.7 28.4038 12
      vertex 86.7 28.4038 12
      vertex 84.8547 31.6 12
    endloop
  endfacet
  facet normal 0 0 1
    outer loop
      vertex 86.7 28.4038 12
      vertex 75.7 28.4038 12
      vertex 86.7 18.3962 12
    endloop
  endfacet
  facet normal 0 0 1
    outer loop
      vertex 75.7 28.4038 12
      vertex 84.8547 31.6 12
      vertex 77.5453 31.6 12
    endloop
  endfacet
  facet normal 0 0 1
    outer loop
      vertex 75.7 18.3962 12
      vertex 86.7 18.3962 12
      vertex 75.7 28.4038 12
    endloop
  endfacet
  facet normal 0 0 1
    outer loop
      vertex 86.7 18.3962 12
      vertex 75.7 18.3962 12
      vertex 84.8547 15.2 12
    endloop
  endfacet
  facet normal 0 0 1
    outer loop
      vertex 84.8547 15.2 12
      vertex 75.7 18.3962 12
      vertex 77.5453 15.2 12
    endloop
  endfacet
  facet normal -0 0 1
    outer loop
      vertex 69.7 28.4038 12
      vertex 75.7 18.3962 12
      vertex 75.7 28.4038 12
    endloop
  endfacet
  facet normal 0 0 1
    outer loop
      vertex 69.7 28.4038 12
      vertex 69.7 18.3962 12
      vertex 75.7 18.3962 12
    endloop
  endfacet
  facet normal 0 0 1
    outer loop
      vertex 58.7 28.4038 12
      vertex 69.7 28.4038 12
      vertex 67.8547 31.6 12
    endloop
  endfacet
  facet normal 0 0 1
    outer loop
      vertex 69.7 28.4038 12
      vertex 58.7 28.4038 12
      vertex 69.7 18.3962 12
    endloop
  endfacet
  facet normal 0 0 1
    outer loop
      vertex 58.7 28.4038 12
      vertex 67.8547 31.6 12
      vertex 60.5453 31.6 12
    endloop
  endfacet
  facet normal 0 0 1
    outer loop
      vertex 58.7 18.3962 12
      vertex 69.7 18.3962 12
      vertex 58.7 28.4038 12
    endloop
  endfacet
  facet normal 0 0 1
    outer loop
      vertex 69.7 18.3962 12
      vertex 58.7 18.3962 12
      vertex 67.8547 15.2 12
    endloop
  endfacet
  facet normal 0 0 1
    outer loop
      vertex 67.8547 15.2 12
      vertex 58.7 18.3962 12
      vertex 60.5453 15.2 12
    endloop
  endfacet
  facet normal -0 0 1
    outer loop
      vertex 52.7 28.4038 12
      vertex 58.7 18.3962 12
      vertex 58.7 28.4038 12
    endloop
  endfacet
  facet normal 0 0 1
    outer loop
      vertex 52.7 28.4038 12
      vertex 52.7 18.3962 12
      vertex 58.7 18.3962 12
    endloop
  endfacet
  facet normal -0 0 1
    outer loop
      vertex 36.2 33.6 12
      vertex 52.7 28.4038 12
      vertex 49.7 33.6 12
    endloop
  endfacet
  facet normal 0 0 1
    outer loop
      vertex 33.2 28.4038 12
      vertex 52.7 28.4038 12
      vertex 36.2 33.6 12
    endloop
  endfacet
  facet normal 0 0 1
    outer loop
      vertex 130.9 40.8 12
      vertex 129.7 33.6 12
      vertex 130.9 6 12
    endloop
  endfacet
  facet normal 0 0 1
    outer loop
      vertex 130.9 40.8 12
      vertex 126.7 38.7962 12
      vertex 129.7 33.6 12
    endloop
  endfacet
  facet normal 0 0 1
    outer loop
      vertex 130.9 40.8 12
      vertex 120.7 38.7962 12
      vertex 126.7 38.7962 12
    endloop
  endfacet
  facet normal 0 0 1
    outer loop
      vertex 120.7 38.7962 12
      vertex 111.545 35.6 12
      vertex 118.855 35.6 12
    endloop
  endfacet
  facet normal 0 0 1
    outer loop
      vertex 120.7 38.7962 12
      vertex 109.7 38.7962 12
      vertex 111.545 35.6 12
    endloop
  endfacet
  facet normal 0 0 1
    outer loop
      vertex 130.9 40.8 12
      vertex 109.7 38.7962 12
      vertex 120.7 38.7962 12
    endloop
  endfacet
  facet normal 0 0 1
    outer loop
      vertex 130.9 40.8 12
      vertex 103.7 38.7962 12
      vertex 109.7 38.7962 12
    endloop
  endfacet
  facet normal 0 0 1
    outer loop
      vertex 103.7 38.7962 12
      vertex 94.5453 35.6 12
      vertex 101.855 35.6 12
    endloop
  endfacet
  facet normal 0 0 1
    outer loop
      vertex 103.7 38.7962 12
      vertex 92.7 38.7962 12
      vertex 94.5453 35.6 12
    endloop
  endfacet
  facet normal 0 0 1
    outer loop
      vertex 130.9 40.8 12
      vertex 92.7 38.7962 12
      vertex 103.7 38.7962 12
    endloop
  endfacet
  facet normal 0 0 1
    outer loop
      vertex 130.9 40.8 12
      vertex 86.7 38.7962 12
      vertex 92.7 38.7962 12
    endloop
  endfacet
  facet normal 0 0 1
    outer loop
      vertex 86.7 38.7962 12
      vertex 77.5453 35.6 12
      vertex 84.8547 35.6 12
    endloop
  endfacet
  facet normal 0 0 1
    outer loop
      vertex 86.7 38.7962 12
      vertex 75.7 38.7962 12
      vertex 77.5453 35.6 12
    endloop
  endfacet
  facet normal 0 0 1
    outer loop
      vertex 130.9 40.8 12
      vertex 75.7 38.7962 12
      vertex 86.7 38.7962 12
    endloop
  endfacet
  facet normal 0 0 1
    outer loop
      vertex 130.9 40.8 12
      vertex 69.7 38.7962 12
      vertex 75.7 38.7962 12
    endloop
  endfacet
  facet normal 0 0 1
    outer loop
      vertex 69.7 38.7962 12
      vertex 60.5453 35.6 12
      vertex 67.8547 35.6 12
    endloop
  endfacet
  facet normal 0 0 1
    outer loop
      vertex 69.7 38.7962 12
      vertex 58.7 38.7962 12
      vertex 60.5453 35.6 12
    endloop
  endfacet
  facet normal 0 0 1
    outer loop
      vertex 130.9 40.8 12
      vertex 58.7 38.7962 12
      vertex 69.7 38.7962 12
    endloop
  endfacet
  facet normal -0 0 1
    outer loop
      vertex 6 40.8 12
      vertex 58.7 38.7962 12
      vertex 130.9 40.8 12
    endloop
  endfacet
  facet normal 0 0 1
    outer loop
      vertex 52.7 28.4038 12
      vertex 33.2 28.4038 12
      vertex 52.7 18.3962 12
    endloop
  endfacet
  facet normal 0 0 1
    outer loop
      vertex 52.7 38.7962 12
      vertex 36.2 33.6 12
      vertex 49.7 33.6 12
    endloop
  endfacet
  facet normal 0 0 1
    outer loop
      vertex 52.7 38.7962 12
      vertex 33.2 38.7962 12
      vertex 36.2 33.6 12
    endloop
  endfacet
  facet normal 0 0 1
    outer loop
      vertex 58.7 38.7962 12
      vertex 6 40.8 12
      vertex 52.7 38.7962 12
    endloop
  endfacet
  facet normal 0 0 1
    outer loop
      vertex 52.7 38.7962 12
      vertex 6 40.8 12
      vertex 33.2 38.7962 12
    endloop
  endfacet
  facet normal 0 0 1
    outer loop
      vertex 27.2 38.7962 12
      vertex 18.0453 35.6 12
      vertex 25.3547 35.6 12
    endloop
  endfacet
  facet normal 0 0 1
    outer loop
      vertex 27.2 38.7962 12
      vertex 16.2 38.7962 12
      vertex 18.0453 35.6 12
    endloop
  endfacet
  facet normal 0 0 1
    outer loop
      vertex 33.2 38.7962 12
      vertex 6 40.8 12
      vertex 27.2 38.7962 12
    endloop
  endfacet
  facet normal 0 0 1
    outer loop
      vertex 27.2 38.7962 12
      vertex 6 40.8 12
      vertex 16.2 38.7962 12
    endloop
  endfacet
  facet normal 0 0 1
    outer loop
      vertex 7.2 33.6 12
      vertex 6 40.8 12
      vertex 7.2 13.2 12
    endloop
  endfacet
  facet normal 0 0 1
    outer loop
      vertex 10.2 38.7962 12
      vertex 6 40.8 12
      vertex 7.2 33.6 12
    endloop
  endfacet
  facet normal 0 0 1
    outer loop
      vertex 16.2 38.7962 12
      vertex 6 40.8 12
      vertex 10.2 38.7962 12
    endloop
  endfacet
  facet normal -0 0 1
    outer loop
      vertex 129.7 13.2 12
      vertex 130.9 6 12
      vertex 129.7 33.6 12
    endloop
  endfacet
  facet normal -0 0 1
    outer loop
      vertex 126.7 8.00385 12
      vertex 130.9 6 12
      vertex 129.7 13.2 12
    endloop
  endfacet
  facet normal -0 0 1
    outer loop
      vertex 120.7 8.00385 12
      vertex 130.9 6 12
      vertex 126.7 8.00385 12
    endloop
  endfacet
  facet normal -0 0 1
    outer loop
      vertex 111.545 11.2 12
      vertex 120.7 8.00385 12
      vertex 118.855 11.2 12
    endloop
  endfacet
  facet normal 0 0 1
    outer loop
      vertex 109.7 8.00385 12
      vertex 120.7 8.00385 12
      vertex 111.545 11.2 12
    endloop
  endfacet
  facet normal -0 0 1
    outer loop
      vertex 109.7 8.00385 12
      vertex 130.9 6 12
      vertex 120.7 8.00385 12
    endloop
  endfacet
  facet normal -0 0 1
    outer loop
      vertex 103.7 8.00385 12
      vertex 130.9 6 12
      vertex 109.7 8.00385 12
    endloop
  endfacet
  facet normal -0 0 1
    outer loop
      vertex 94.5453 11.2 12
      vertex 103.7 8.00385 12
      vertex 101.855 11.2 12
    endloop
  endfacet
  facet normal 0 0 1
    outer loop
      vertex 92.7 8.00385 12
      vertex 103.7 8.00385 12
      vertex 94.5453 11.2 12
    endloop
  endfacet
  facet normal -0 0 1
    outer loop
      vertex 92.7 8.00385 12
      vertex 130.9 6 12
      vertex 103.7 8.00385 12
    endloop
  endfacet
  facet normal -0 0 1
    outer loop
      vertex 86.7 8.00385 12
      vertex 130.9 6 12
      vertex 92.7 8.00385 12
    endloop
  endfacet
  facet normal -0 0 1
    outer loop
      vertex 77.5453 11.2 12
      vertex 86.7 8.00385 12
      vertex 84.8547 11.2 12
    endloop
  endfacet
  facet normal 0 0 1
    outer loop
      vertex 75.7 8.00385 12
      vertex 86.7 8.00385 12
      vertex 77.5453 11.2 12
    endloop
  endfacet
  facet normal -0 0 1
    outer loop
      vertex 75.7 8.00385 12
      vertex 130.9 6 12
      vertex 86.7 8.00385 12
    endloop
  endfacet
  facet normal -0 0 1
    outer loop
      vertex 69.7 8.00385 12
      vertex 130.9 6 12
      vertex 75.7 8.00385 12
    endloop
  endfacet
  facet normal -0 0 1
    outer loop
      vertex 60.5453 11.2 12
      vertex 69.7 8.00385 12
      vertex 67.8547 11.2 12
    endloop
  endfacet
  facet normal 0 0 1
    outer loop
      vertex 58.7 8.00385 12
      vertex 69.7 8.00385 12
      vertex 60.5453 11.2 12
    endloop
  endfacet
  facet normal -0 0 1
    outer loop
      vertex 58.7 8.00385 12
      vertex 130.9 6 12
      vertex 69.7 8.00385 12
    endloop
  endfacet
  facet normal 0 0 1
    outer loop
      vertex 6 6 12
      vertex 58.7 8.00385 12
      vertex 52.7 8.00385 12
    endloop
  endfacet
  facet normal 0 0 1
    outer loop
      vertex 52.7 18.3962 12
      vertex 36.2 13.2 12
      vertex 49.7 13.2 12
    endloop
  endfacet
  facet normal 0 0 1
    outer loop
      vertex 49.7 13.2 12
      vertex 36.2 13.2 12
      vertex 52.7 8.00385 12
    endloop
  endfacet
  facet normal 0 0 1
    outer loop
      vertex 33.2 8.00385 12
      vertex 52.7 8.00385 12
      vertex 36.2 13.2 12
    endloop
  endfacet
  facet normal 0 0 1
    outer loop
      vertex 6 6 12
      vertex 52.7 8.00385 12
      vertex 33.2 8.00385 12
    endloop
  endfacet
  facet normal 0 0 1
    outer loop
      vertex 6 6 12
      vertex 33.2 8.00385 12
      vertex 27.2 8.00385 12
    endloop
  endfacet
  facet normal -0 0 1
    outer loop
      vertex 18.0453 11.2 12
      vertex 27.2 8.00385 12
      vertex 25.3547 11.2 12
    endloop
  endfacet
  facet normal 0 0 1
    outer loop
      vertex 16.2 8.00385 12
      vertex 27.2 8.00385 12
      vertex 18.0453 11.2 12
    endloop
  endfacet
  facet normal 0 0 1
    outer loop
      vertex 6 6 12
      vertex 27.2 8.00385 12
      vertex 16.2 8.00385 12
    endloop
  endfacet
  facet normal 0 0 1
    outer loop
      vertex 6 6 12
      vertex 16.2 8.00385 12
      vertex 10.2 8.00385 12
    endloop
  endfacet
  facet normal 0 0 1
    outer loop
      vertex 58.7 8.00385 12
      vertex 6 6 12
      vertex 130.9 6 12
    endloop
  endfacet
  facet normal 0 0 1
    outer loop
      vertex 7.2 13.2 12
      vertex 6 6 12
      vertex 10.2 8.00385 12
    endloop
  endfacet
  facet normal 0 0 1
    outer loop
      vertex 6 6 12
      vertex 7.2 13.2 12
      vertex 6 40.8 12
    endloop
  endfacet
  facet normal 0.894427 0 0.447214
    outer loop
      vertex 136.9 5.476 0
      vertex 130.9 40.8 12
      vertex 130.9 6 12
    endloop
  endfacet
  facet normal 0.894427 2.21483e-15 0.447214
    outer loop
      vertex 136.9 5.476 0
      vertex 130.9 6 12
      vertex 131.424 5.476 10.952
    endloop
  endfacet
  facet normal 0.894427 0 0.447214
    outer loop
      vertex 130.9 40.8 12
      vertex 136.9 5.476 0
      vertex 136.9 46.8 0
    endloop
  endfacet
  facet normal 0 0 -1
    outer loop
      vertex 1.25 5.476 0
      vertex 0 5.476 0
      vertex 1.25 45.55 0
    endloop
  endfacet
  facet normal 0 0 -1
    outer loop
      vertex 1.25 45.55 0
      vertex 27.38 46.8 0
      vertex 27.38 45.55 0
    endloop
  endfacet
  facet normal 0 0 -1
    outer loop
      vertex 1.25 45.55 0
      vertex 0 46.8 0
      vertex 27.38 46.8 0
    endloop
  endfacet
  facet normal 0 0 -1
    outer loop
      vertex 0 46.8 0
      vertex 1.25 45.55 0
      vertex 0 5.476 0
    endloop
  endfacet
  facet normal 0 0 -1
    outer loop
      vertex 135.65 45.55 0
      vertex 136.9 5.476 0
      vertex 135.65 5.476 0
    endloop
  endfacet
  facet normal 0 0 -1
    outer loop
      vertex 136.9 5.476 0
      vertex 135.65 45.55 0
      vertex 136.9 46.8 0
    endloop
  endfacet
  facet normal 0 0 -1
    outer loop
      vertex 109.52 46.8 0
      vertex 135.65 45.55 0
      vertex 109.52 45.55 0
    endloop
  endfacet
  facet normal 0 0 -1
    outer loop
      vertex 135.65 45.55 0
      vertex 109.52 46.8 0
      vertex 136.9 46.8 0
    endloop
  endfacet
  facet normal 0 0 -1
    outer loop
      vertex 27.38 0 0
      vertex 54.76 1.25 0
      vertex 54.76 0 0
    endloop
  endfacet
  facet normal -0 0 -1
    outer loop
      vertex 54.76 1.25 0
      vertex 27.38 0 0
      vertex 27.38 1.25 0
    endloop
  endfacet
  facet normal 0 0 -1
    outer loop
      vertex 82.14 0 0
      vertex 109.52 1.25 0
      vertex 109.52 0 0
    endloop
  endfacet
  facet normal -0 0 -1
    outer loop
      vertex 109.52 1.25 0
      vertex 82.14 0 0
      vertex 82.14 1.25 0
    endloop
  endfacet
  facet normal 0 0 -1
    outer loop
      vertex 54.76 45.55 0
      vertex 82.14 46.8 0
      vertex 82.14 45.55 0
    endloop
  endfacet
  facet normal -0 0 -1
    outer loop
      vertex 82.14 46.8 0
      vertex 54.76 45.55 0
      vertex 54.76 46.8 0
    endloop
  endfacet
  facet normal 1.25665e-06 -0.894426 -0.447215
    outer loop
      vertex 5.15658 41.6434 7.81317
      vertex 1.25 45.55 0
      vertex 6.07813 44.2566 2.5868
    endloop
  endfacet
  facet normal 0 -0.894427 -0.447214
    outer loop
      vertex 54.76 45.55 0
      vertex 82.14 41.324 8.452
      vertex 54.76 41.324 8.452
    endloop
  endfacet
  facet normal 0 -0.894427 -0.447214
    outer loop
      vertex 82.14 41.324 8.452
      vertex 54.76 45.55 0
      vertex 82.14 45.55 0
    endloop
  endfacet
  facet normal -3.28891e-08 -0.894427 -0.447214
    outer loop
      vertex 6 40.8 9.5
      vertex 7.16142 44.1611 2.77781
      vertex 27.38 41.324 8.452
    endloop
  endfacet
  facet normal 6.15333e-06 -0.894423 -0.447223
    outer loop
      vertex 1.25 45.55 0
      vertex 7.16142 44.1611 2.77781
      vertex 6.07813 44.2566 2.5868
    endloop
  endfacet
  facet normal -0 -0.894428 -0.447212
    outer loop
      vertex 27.38 45.55 0
      vertex 7.16142 44.1611 2.77781
      vertex 1.25 45.55 0
    endloop
  endfacet
  facet normal -2.21189e-07 -0.894427 -0.447214
    outer loop
      vertex 7.16142 44.1611 2.77781
      vertex 27.38 45.55 0
      vertex 27.38 41.324 8.452
    endloop
  endfacet
  facet normal -0.00169344 -0.894309 -0.447448
    outer loop
      vertex 7.16142 44.1611 2.77781
      vertex 6 40.8 9.5
      vertex 5.98235 40.8177 9.46469
    endloop
  endfacet
  facet normal 0 -0.894427 -0.447214
    outer loop
      vertex 6 40.8 9.5
      vertex 27.38 41.324 8.452
      vertex 54.76 41.324 8.452
    endloop
  endfacet
  facet normal 0 -0.894427 -0.447214
    outer loop
      vertex 6 40.8 9.5
      vertex 54.76 41.324 8.452
      vertex 130.9 40.8 9.5
    endloop
  endfacet
  facet normal -0 -0.894427 -0.447214
    outer loop
      vertex 82.14 41.324 8.452
      vertex 130.9 40.8 9.5
      vertex 54.76 41.324 8.452
    endloop
  endfacet
  facet normal -0 -0.894427 -0.447214
    outer loop
      vertex 109.52 41.324 8.452
      vertex 130.9 40.8 9.5
      vertex 82.14 41.324 8.452
    endloop
  endfacet
  facet normal -3.51696e-17 -0.894427 -0.447214
    outer loop
      vertex 109.52 45.55 0
      vertex 130.9 40.8 9.5
      vertex 109.52 41.324 8.452
    endloop
  endfacet
  facet normal 0 -0.894427 -0.447214
    outer loop
      vertex 130.9 40.8 9.5
      vertex 109.52 45.55 0
      vertex 135.65 45.55 0
    endloop
  endfacet
  facet normal 0 0.894427 -0.447214
    outer loop
      vertex 54.76 1.25 0
      vertex 27.38 5.476 8.452
      vertex 54.76 5.476 8.452
    endloop
  endfacet
  facet normal 0 0.894427 -0.447214
    outer loop
      vertex 27.38 5.476 8.452
      vertex 54.76 1.25 0
      vertex 27.38 1.25 0
    endloop
  endfacet
  facet normal 0 0.894427 -0.447214
    outer loop
      vertex 109.52 1.25 0
      vertex 82.14 5.476 8.452
      vertex 109.52 5.476 8.452
    endloop
  endfacet
  facet normal 0 0.894427 -0.447214
    outer loop
      vertex 82.14 5.476 8.452
      vertex 109.52 1.25 0
      vertex 82.14 1.25 0
    endloop
  endfacet
  facet normal 0 0.894427 -0.447214
    outer loop
      vertex 82.14 5.476 8.452
      vertex 6 6 9.5
      vertex 130.9 6 9.5
    endloop
  endfacet
  facet normal 0 0.894427 -0.447214
    outer loop
      vertex 109.52 5.476 8.452
      vertex 130.9 6 9.5
      vertex 131.424 5.476 8.452
    endloop
  endfacet
  facet normal 0 0.894427 -0.447214
    outer loop
      vertex 82.14 5.476 8.452
      vertex 130.9 6 9.5
      vertex 109.52 5.476 8.452
    endloop
  endfacet
  facet normal 0 0.894427 -0.447214
    outer loop
      vertex 54.76 5.476 8.452
      vertex 6 6 9.5
      vertex 82.14 5.476 8.452
    endloop
  endfacet
  facet normal 0 0.894427 -0.447214
    outer loop
      vertex 27.38 5.476 8.452
      vertex 6 6 9.5
      vertex 54.76 5.476 8.452
    endloop
  endfacet
  facet normal 0 0.894427 -0.447214
    outer loop
      vertex 6.16091 5.476 8.452
      vertex 6 6 9.5
      vertex 27.38 5.476 8.452
    endloop
  endfacet
  facet normal 0.000193841 0.894439 -0.44719
    outer loop
      vertex 6 6 9.5
      vertex 6.16091 5.476 8.452
      vertex 5.98235 5.98235 9.46469
    endloop
  endfacet
  facet normal 0.894478 0 -0.447112
    outer loop
      vertex 6 6 9.5
      vertex 5.98235 40.8177 9.46469
      vertex 6 40.8 9.5
    endloop
  endfacet
  facet normal 0.894478 0 -0.447112
    outer loop
      vertex 5.98235 40.8177 9.46469
      vertex 6 6 9.5
      vertex 5.98235 5.98235 9.46469
    endloop
  endfacet
  facet normal 0.894427 0 -0.447213
    outer loop
      vertex 1.25 5.476 0
      vertex 5.15658 41.6434 7.81317
      vertex 5.15658 5.476 7.81317
    endloop
  endfacet
  facet normal 0.894427 0 -0.447213
    outer loop
      vertex 5.15658 41.6434 7.81317
      vertex 1.25 5.476 0
      vertex 1.25 45.55 0
    endloop
  endfacet
  facet normal 0 0 -1
    outer loop
      vertex 33.2 28.4038 9.5
      vertex 52.7 28.4038 9.5
      vertex 33.2 18.3962 9.5
    endloop
  endfacet
  facet normal 0 0 -1
    outer loop
      vertex 52.7 28.4038 9.5
      vertex 33.2 28.4038 9.5
      vertex 36.2 33.6 9.5
    endloop
  endfacet
  facet normal 0 0 -1
    outer loop
      vertex 27.2 18.3962 9.5
      vertex 33.2 28.4038 9.5
      vertex 33.2 18.3962 9.5
    endloop
  endfacet
  facet normal 0 0 -1
    outer loop
      vertex 27.2 18.3962 9.5
      vertex 27.2 28.4038 9.5
      vertex 33.2 28.4038 9.5
    endloop
  endfacet
  facet normal 0 0 -1
    outer loop
      vertex 16.2 18.3962 9.5
      vertex 27.2 18.3962 9.5
      vertex 25.3547 15.2 9.5
    endloop
  endfacet
  facet normal 0 0 -1
    outer loop
      vertex 27.2 18.3962 9.5
      vertex 16.2 18.3962 9.5
      vertex 27.2 28.4038 9.5
    endloop
  endfacet
  facet normal 0 0 -1
    outer loop
      vertex 16.2 18.3962 9.5
      vertex 25.3547 15.2 9.5
      vertex 18.0453 15.2 9.5
    endloop
  endfacet
  facet normal 0 0 -1
    outer loop
      vertex 16.2 28.4038 9.5
      vertex 27.2 28.4038 9.5
      vertex 16.2 18.3962 9.5
    endloop
  endfacet
  facet normal 0 0 -1
    outer loop
      vertex 27.2 28.4038 9.5
      vertex 16.2 28.4038 9.5
      vertex 25.3547 31.6 9.5
    endloop
  endfacet
  facet normal -0 0 -1
    outer loop
      vertex 25.3547 31.6 9.5
      vertex 16.2 28.4038 9.5
      vertex 18.0453 31.6 9.5
    endloop
  endfacet
  facet normal 0 0 -1
    outer loop
      vertex 10.2 18.3962 9.5
      vertex 16.2 28.4038 9.5
      vertex 16.2 18.3962 9.5
    endloop
  endfacet
  facet normal 0 0 -1
    outer loop
      vertex 10.2 18.3962 9.5
      vertex 10.2 28.4038 9.5
      vertex 16.2 28.4038 9.5
    endloop
  endfacet
  facet normal 0 0 -1
    outer loop
      vertex 7.2 13.2 9.5
      vertex 10.2 28.4038 9.5
      vertex 10.2 18.3962 9.5
    endloop
  endfacet
  facet normal -0 0 -1
    outer loop
      vertex 10.2 28.4038 9.5
      vertex 7.2 13.2 9.5
      vertex 7.2 33.6 9.5
    endloop
  endfacet
  facet normal 0 0 -1
    outer loop
      vertex 126.7 18.3962 9.5
      vertex 129.7 33.6 9.5
      vertex 129.7 13.2 9.5
    endloop
  endfacet
  facet normal 0 0 -1
    outer loop
      vertex 126.7 18.3962 9.5
      vertex 126.7 28.4038 9.5
      vertex 129.7 33.6 9.5
    endloop
  endfacet
  facet normal 0 0 -1
    outer loop
      vertex 120.7 18.3962 9.5
      vertex 126.7 28.4038 9.5
      vertex 126.7 18.3962 9.5
    endloop
  endfacet
  facet normal 0 0 -1
    outer loop
      vertex 120.7 18.3962 9.5
      vertex 120.7 28.4038 9.5
      vertex 126.7 28.4038 9.5
    endloop
  endfacet
  facet normal 0 0 -1
    outer loop
      vertex 109.7 18.3962 9.5
      vertex 120.7 18.3962 9.5
      vertex 118.855 15.2 9.5
    endloop
  endfacet
  facet normal 0 0 -1
    outer loop
      vertex 120.7 18.3962 9.5
      vertex 109.7 18.3962 9.5
      vertex 120.7 28.4038 9.5
    endloop
  endfacet
  facet normal 0 0 -1
    outer loop
      vertex 109.7 18.3962 9.5
      vertex 118.855 15.2 9.5
      vertex 111.545 15.2 9.5
    endloop
  endfacet
  facet normal 0 0 -1
    outer loop
      vertex 109.7 28.4038 9.5
      vertex 120.7 28.4038 9.5
      vertex 109.7 18.3962 9.5
    endloop
  endfacet
  facet normal 0 0 -1
    outer loop
      vertex 120.7 28.4038 9.5
      vertex 109.7 28.4038 9.5
      vertex 118.855 31.6 9.5
    endloop
  endfacet
  facet normal -0 0 -1
    outer loop
      vertex 118.855 31.6 9.5
      vertex 109.7 28.4038 9.5
      vertex 111.545 31.6 9.5
    endloop
  endfacet
  facet normal 0 0 -1
    outer loop
      vertex 103.7 18.3962 9.5
      vertex 109.7 28.4038 9.5
      vertex 109.7 18.3962 9.5
    endloop
  endfacet
  facet normal 0 0 -1
    outer loop
      vertex 103.7 18.3962 9.5
      vertex 103.7 28.4038 9.5
      vertex 109.7 28.4038 9.5
    endloop
  endfacet
  facet normal 0 0 -1
    outer loop
      vertex 92.7 18.3962 9.5
      vertex 103.7 18.3962 9.5
      vertex 101.855 15.2 9.5
    endloop
  endfacet
  facet normal 0 0 -1
    outer loop
      vertex 103.7 18.3962 9.5
      vertex 92.7 18.3962 9.5
      vertex 103.7 28.4038 9.5
    endloop
  endfacet
  facet normal 0 0 -1
    outer loop
      vertex 92.7 18.3962 9.5
      vertex 101.855 15.2 9.5
      vertex 94.5453 15.2 9.5
    endloop
  endfacet
  facet normal 0 0 -1
    outer loop
      vertex 92.7 28.4038 9.5
      vertex 103.7 28.4038 9.5
      vertex 92.7 18.3962 9.5
    endloop
  endfacet
  facet normal 0 0 -1
    outer loop
      vertex 103.7 28.4038 9.5
      vertex 92.7 28.4038 9.5
      vertex 101.855 31.6 9.5
    endloop
  endfacet
  facet normal -0 0 -1
    outer loop
      vertex 101.855 31.6 9.5
      vertex 92.7 28.4038 9.5
      vertex 94.5453 31.6 9.5
    endloop
  endfacet
  facet normal 0 0 -1
    outer loop
      vertex 86.7 18.3962 9.5
      vertex 92.7 28.4038 9.5
      vertex 92.7 18.3962 9.5
    endloop
  endfacet
  facet normal 0 0 -1
    outer loop
      vertex 86.7 18.3962 9.5
      vertex 86.7 28.4038 9.5
      vertex 92.7 28.4038 9.5
    endloop
  endfacet
  facet normal 0 0 -1
    outer loop
      vertex 75.7 18.3962 9.5
      vertex 86.7 18.3962 9.5
      vertex 84.8547 15.2 9.5
    endloop
  endfacet
  facet normal 0 0 -1
    outer loop
      vertex 86.7 18.3962 9.5
      vertex 75.7 18.3962 9.5
      vertex 86.7 28.4038 9.5
    endloop
  endfacet
  facet normal 0 0 -1
    outer loop
      vertex 75.7 18.3962 9.5
      vertex 84.8547 15.2 9.5
      vertex 77.5453 15.2 9.5
    endloop
  endfacet
  facet normal 0 0 -1
    outer loop
      vertex 75.7 28.4038 9.5
      vertex 86.7 28.4038 9.5
      vertex 75.7 18.3962 9.5
    endloop
  endfacet
  facet normal 0 0 -1
    outer loop
      vertex 86.7 28.4038 9.5
      vertex 75.7 28.4038 9.5
      vertex 84.8547 31.6 9.5
    endloop
  endfacet
  facet normal -0 0 -1
    outer loop
      vertex 84.8547 31.6 9.5
      vertex 75.7 28.4038 9.5
      vertex 77.5453 31.6 9.5
    endloop
  endfacet
  facet normal 0 0 -1
    outer loop
      vertex 69.7 18.3962 9.5
      vertex 75.7 28.4038 9.5
      vertex 75.7 18.3962 9.5
    endloop
  endfacet
  facet normal 0 0 -1
    outer loop
      vertex 69.7 18.3962 9.5
      vertex 69.7 28.4038 9.5
      vertex 75.7 28.4038 9.5
    endloop
  endfacet
  facet normal 0 0 -1
    outer loop
      vertex 58.7 18.3962 9.5
      vertex 69.7 18.3962 9.5
      vertex 67.8547 15.2 9.5
    endloop
  endfacet
  facet normal 0 0 -1
    outer loop
      vertex 69.7 18.3962 9.5
      vertex 58.7 18.3962 9.5
      vertex 69.7 28.4038 9.5
    endloop
  endfacet
  facet normal 0 0 -1
    outer loop
      vertex 58.7 18.3962 9.5
      vertex 67.8547 15.2 9.5
      vertex 60.5453 15.2 9.5
    endloop
  endfacet
  facet normal 0 0 -1
    outer loop
      vertex 58.7 28.4038 9.5
      vertex 69.7 28.4038 9.5
      vertex 58.7 18.3962 9.5
    endloop
  endfacet
  facet normal 0 0 -1
    outer loop
      vertex 69.7 28.4038 9.5
      vertex 58.7 28.4038 9.5
      vertex 67.8547 31.6 9.5
    endloop
  endfacet
  facet normal -0 0 -1
    outer loop
      vertex 67.8547 31.6 9.5
      vertex 58.7 28.4038 9.5
      vertex 60.5453 31.6 9.5
    endloop
  endfacet
  facet normal 0 0 -1
    outer loop
      vertex 52.7 18.3962 9.5
      vertex 58.7 28.4038 9.5
      vertex 58.7 18.3962 9.5
    endloop
  endfacet
  facet normal 0 0 -1
    outer loop
      vertex 52.7 18.3962 9.5
      vertex 52.7 28.4038 9.5
      vertex 58.7 28.4038 9.5
    endloop
  endfacet
  facet normal 0 0 -1
    outer loop
      vertex 36.2 13.2 9.5
      vertex 52.7 18.3962 9.5
      vertex 49.7 13.2 9.5
    endloop
  endfacet
  facet normal 0 0 -1
    outer loop
      vertex 33.2 18.3962 9.5
      vertex 52.7 18.3962 9.5
      vertex 36.2 13.2 9.5
    endloop
  endfacet
  facet normal 0 0 -1
    outer loop
      vertex 130.9 6 9.5
      vertex 129.7 13.2 9.5
      vertex 130.9 40.8 9.5
    endloop
  endfacet
  facet normal 0 0 -1
    outer loop
      vertex 130.9 6 9.5
      vertex 126.7 8.00385 9.5
      vertex 129.7 13.2 9.5
    endloop
  endfacet
  facet normal 0 0 -1
    outer loop
      vertex 130.9 6 9.5
      vertex 120.7 8.00385 9.5
      vertex 126.7 8.00385 9.5
    endloop
  endfacet
  facet normal 0 0 -1
    outer loop
      vertex 120.7 8.00385 9.5
      vertex 111.545 11.2 9.5
      vertex 118.855 11.2 9.5
    endloop
  endfacet
  facet normal 0 0 -1
    outer loop
      vertex 120.7 8.00385 9.5
      vertex 109.7 8.00385 9.5
      vertex 111.545 11.2 9.5
    endloop
  endfacet
  facet normal 0 0 -1
    outer loop
      vertex 130.9 6 9.5
      vertex 109.7 8.00385 9.5
      vertex 120.7 8.00385 9.5
    endloop
  endfacet
  facet normal 0 0 -1
    outer loop
      vertex 130.9 6 9.5
      vertex 103.7 8.00385 9.5
      vertex 109.7 8.00385 9.5
    endloop
  endfacet
  facet normal 0 0 -1
    outer loop
      vertex 103.7 8.00385 9.5
      vertex 94.5453 11.2 9.5
      vertex 101.855 11.2 9.5
    endloop
  endfacet
  facet normal 0 0 -1
    outer loop
      vertex 103.7 8.00385 9.5
      vertex 92.7 8.00385 9.5
      vertex 94.5453 11.2 9.5
    endloop
  endfacet
  facet normal 0 0 -1
    outer loop
      vertex 130.9 6 9.5
      vertex 92.7 8.00385 9.5
      vertex 103.7 8.00385 9.5
    endloop
  endfacet
  facet normal 0 0 -1
    outer loop
      vertex 130.9 6 9.5
      vertex 86.7 8.00385 9.5
      vertex 92.7 8.00385 9.5
    endloop
  endfacet
  facet normal 0 0 -1
    outer loop
      vertex 86.7 8.00385 9.5
      vertex 77.5453 11.2 9.5
      vertex 84.8547 11.2 9.5
    endloop
  endfacet
  facet normal 0 0 -1
    outer loop
      vertex 86.7 8.00385 9.5
      vertex 75.7 8.00385 9.5
      vertex 77.5453 11.2 9.5
    endloop
  endfacet
  facet normal 0 0 -1
    outer loop
      vertex 130.9 6 9.5
      vertex 75.7 8.00385 9.5
      vertex 86.7 8.00385 9.5
    endloop
  endfacet
  facet normal 0 0 -1
    outer loop
      vertex 130.9 6 9.5
      vertex 69.7 8.00385 9.5
      vertex 75.7 8.00385 9.5
    endloop
  endfacet
  facet normal 0 0 -1
    outer loop
      vertex 69.7 8.00385 9.5
      vertex 60.5453 11.2 9.5
      vertex 67.8547 11.2 9.5
    endloop
  endfacet
  facet normal 0 0 -1
    outer loop
      vertex 69.7 8.00385 9.5
      vertex 58.7 8.00385 9.5
      vertex 60.5453 11.2 9.5
    endloop
  endfacet
  facet normal 0 0 -1
    outer loop
      vertex 130.9 6 9.5
      vertex 58.7 8.00385 9.5
      vertex 69.7 8.00385 9.5
    endloop
  endfacet
  facet normal 0 0 -1
    outer loop
      vertex 6 6 9.5
      vertex 58.7 8.00385 9.5
      vertex 130.9 6 9.5
    endloop
  endfacet
  facet normal 0 0 -1
    outer loop
      vertex 52.7 18.3962 9.5
      vertex 33.2 18.3962 9.5
      vertex 52.7 28.4038 9.5
    endloop
  endfacet
  facet normal 0 0 -1
    outer loop
      vertex 52.7 8.00385 9.5
      vertex 36.2 13.2 9.5
      vertex 49.7 13.2 9.5
    endloop
  endfacet
  facet normal 0 0 -1
    outer loop
      vertex 52.7 8.00385 9.5
      vertex 33.2 8.00385 9.5
      vertex 36.2 13.2 9.5
    endloop
  endfacet
  facet normal -0 0 -1
    outer loop
      vertex 58.7 8.00385 9.5
      vertex 6 6 9.5
      vertex 52.7 8.00385 9.5
    endloop
  endfacet
  facet normal -0 0 -1
    outer loop
      vertex 52.7 8.00385 9.5
      vertex 6 6 9.5
      vertex 33.2 8.00385 9.5
    endloop
  endfacet
  facet normal 0 0 -1
    outer loop
      vertex 27.2 8.00385 9.5
      vertex 18.0453 11.2 9.5
      vertex 25.3547 11.2 9.5
    endloop
  endfacet
  facet normal 0 0 -1
    outer loop
      vertex 27.2 8.00385 9.5
      vertex 16.2 8.00385 9.5
      vertex 18.0453 11.2 9.5
    endloop
  endfacet
  facet normal -0 0 -1
    outer loop
      vertex 33.2 8.00385 9.5
      vertex 6 6 9.5
      vertex 27.2 8.00385 9.5
    endloop
  endfacet
  facet normal -0 0 -1
    outer loop
      vertex 27.2 8.00385 9.5
      vertex 6 6 9.5
      vertex 16.2 8.00385 9.5
    endloop
  endfacet
  facet normal -0 0 -1
    outer loop
      vertex 7.2 13.2 9.5
      vertex 6 6 9.5
      vertex 7.2 33.6 9.5
    endloop
  endfacet
  facet normal -0 0 -1
    outer loop
      vertex 10.2 8.00385 9.5
      vertex 6 6 9.5
      vertex 7.2 13.2 9.5
    endloop
  endfacet
  facet normal -0 0 -1
    outer loop
      vertex 16.2 8.00385 9.5
      vertex 6 6 9.5
      vertex 10.2 8.00385 9.5
    endloop
  endfacet
  facet normal 0 0 -1
    outer loop
      vertex 129.7 33.6 9.5
      vertex 130.9 40.8 9.5
      vertex 129.7 13.2 9.5
    endloop
  endfacet
  facet normal 0 0 -1
    outer loop
      vertex 126.7 38.7962 9.5
      vertex 130.9 40.8 9.5
      vertex 129.7 33.6 9.5
    endloop
  endfacet
  facet normal 0 0 -1
    outer loop
      vertex 120.7 38.7962 9.5
      vertex 130.9 40.8 9.5
      vertex 126.7 38.7962 9.5
    endloop
  endfacet
  facet normal 0 0 -1
    outer loop
      vertex 111.545 35.6 9.5
      vertex 120.7 38.7962 9.5
      vertex 118.855 35.6 9.5
    endloop
  endfacet
  facet normal 0 0 -1
    outer loop
      vertex 109.7 38.7962 9.5
      vertex 120.7 38.7962 9.5
      vertex 111.545 35.6 9.5
    endloop
  endfacet
  facet normal 0 0 -1
    outer loop
      vertex 109.7 38.7962 9.5
      vertex 130.9 40.8 9.5
      vertex 120.7 38.7962 9.5
    endloop
  endfacet
  facet normal 0 0 -1
    outer loop
      vertex 103.7 38.7962 9.5
      vertex 130.9 40.8 9.5
      vertex 109.7 38.7962 9.5
    endloop
  endfacet
  facet normal 0 0 -1
    outer loop
      vertex 94.5453 35.6 9.5
      vertex 103.7 38.7962 9.5
      vertex 101.855 35.6 9.5
    endloop
  endfacet
  facet normal 0 0 -1
    outer loop
      vertex 92.7 38.7962 9.5
      vertex 103.7 38.7962 9.5
      vertex 94.5453 35.6 9.5
    endloop
  endfacet
  facet normal 0 0 -1
    outer loop
      vertex 92.7 38.7962 9.5
      vertex 130.9 40.8 9.5
      vertex 103.7 38.7962 9.5
    endloop
  endfacet
  facet normal 0 0 -1
    outer loop
      vertex 86.7 38.7962 9.5
      vertex 130.9 40.8 9.5
      vertex 92.7 38.7962 9.5
    endloop
  endfacet
  facet normal 0 0 -1
    outer loop
      vertex 77.5453 35.6 9.5
      vertex 86.7 38.7962 9.5
      vertex 84.8547 35.6 9.5
    endloop
  endfacet
  facet normal 0 0 -1
    outer loop
      vertex 75.7 38.7962 9.5
      vertex 86.7 38.7962 9.5
      vertex 77.5453 35.6 9.5
    endloop
  endfacet
  facet normal 0 0 -1
    outer loop
      vertex 75.7 38.7962 9.5
      vertex 130.9 40.8 9.5
      vertex 86.7 38.7962 9.5
    endloop
  endfacet
  facet normal 0 0 -1
    outer loop
      vertex 69.7 38.7962 9.5
      vertex 130.9 40.8 9.5
      vertex 75.7 38.7962 9.5
    endloop
  endfacet
  facet normal 0 0 -1
    outer loop
      vertex 60.5453 35.6 9.5
      vertex 69.7 38.7962 9.5
      vertex 67.8547 35.6 9.5
    endloop
  endfacet
  facet normal 0 0 -1
    outer loop
      vertex 58.7 38.7962 9.5
      vertex 69.7 38.7962 9.5
      vertex 60.5453 35.6 9.5
    endloop
  endfacet
  facet normal 0 0 -1
    outer loop
      vertex 58.7 38.7962 9.5
      vertex 130.9 40.8 9.5
      vertex 69.7 38.7962 9.5
    endloop
  endfacet
  facet normal 0 0 -1
    outer loop
      vertex 6 40.8 9.5
      vertex 58.7 38.7962 9.5
      vertex 52.7 38.7962 9.5
    endloop
  endfacet
  facet normal 0 0 -1
    outer loop
      vertex 52.7 28.4038 9.5
      vertex 36.2 33.6 9.5
      vertex 49.7 33.6 9.5
    endloop
  endfacet
  facet normal 0 0 -1
    outer loop
      vertex 49.7 33.6 9.5
      vertex 36.2 33.6 9.5
      vertex 52.7 38.7962 9.5
    endloop
  endfacet
  facet normal 0 0 -1
    outer loop
      vertex 33.2 38.7962 9.5
      vertex 52.7 38.7962 9.5
      vertex 36.2 33.6 9.5
    endloop
  endfacet
  facet normal 0 0 -1
    outer loop
      vertex 6 40.8 9.5
      vertex 52.7 38.7962 9.5
      vertex 33.2 38.7962 9.5
    endloop
  endfacet
  facet normal 0 0 -1
    outer loop
      vertex 6 40.8 9.5
      vertex 33.2 38.7962 9.5
      vertex 27.2 38.7962 9.5
    endloop
  endfacet
  facet normal 0 0 -1
    outer loop
      vertex 18.0453 35.6 9.5
      vertex 27.2 38.7962 9.5
      vertex 25.3547 35.6 9.5
    endloop
  endfacet
  facet normal 0 0 -1
    outer loop
      vertex 16.2 38.7962 9.5
      vertex 27.2 38.7962 9.5
      vertex 18.0453 35.6 9.5
    endloop
  endfacet
  facet normal 0 0 -1
    outer loop
      vertex 6 40.8 9.5
      vertex 27.2 38.7962 9.5
      vertex 16.2 38.7962 9.5
    endloop
  endfacet
  facet normal 0 0 -1
    outer loop
      vertex 6 40.8 9.5
      vertex 16.2 38.7962 9.5
      vertex 10.2 38.7962 9.5
    endloop
  endfacet
  facet normal 0 0 -1
    outer loop
      vertex 58.7 38.7962 9.5
      vertex 6 40.8 9.5
      vertex 130.9 40.8 9.5
    endloop
  endfacet
  facet normal 0 0 -1
    outer loop
      vertex 7.2 33.6 9.5
      vertex 6 40.8 9.5
      vertex 10.2 38.7962 9.5
    endloop
  endfacet
  facet normal 0 0 -1
    outer loop
      vertex 6 40.8 9.5
      vertex 7.2 33.6 9.5
      vertex 6 6 9.5
    endloop
  endfacet
  facet normal -0.894427 0 -0.447214
    outer loop
      vertex 135.65 5.476 0
      vertex 130.9 40.8 9.5
      vertex 135.65 45.55 0
    endloop
  endfacet
  facet normal -0.894427 -0 -0.447214
    outer loop
      vertex 130.9 40.8 9.5
      vertex 135.65 5.476 0
      vertex 130.9 6 9.5
    endloop
  endfacet
  facet normal -0.894427 -1.79372e-15 -0.447214
    outer loop
      vertex 130.9 6 9.5
      vertex 135.65 5.476 0
      vertex 131.424 5.476 8.452
    endloop
  endfacet
  facet normal -0.984808 0 -0.173647
    outer loop
      vertex 5.98235 40.8177 9.46469
      vertex 7.16142 45.4111 2.77781
      vertex 7.16142 44.1611 2.77781
    endloop
  endfacet
  facet normal -0.984807 -7.86757e-06 -0.173652
    outer loop
      vertex 7.16142 45.4111 2.77781
      vertex 5.98235 40.8177 9.46469
      vertex 5.65645 41.1435 11.3129
    endloop
  endfacet
  facet normal -0.984807 0 -0.173654
    outer loop
      vertex 5.98235 5.98235 9.46469
      vertex 5.65645 41.1435 11.3129
      vertex 5.98235 40.8177 9.46469
    endloop
  endfacet
  facet normal -0.984807 0 -0.173654
    outer loop
      vertex 5.98235 5.98235 9.46469
      vertex 5.65645 5.65645 11.3129
      vertex 5.65645 41.1435 11.3129
    endloop
  endfacet
  facet normal -0.984808 1.0896e-05 -0.173649
    outer loop
      vertex 5.72009 5.476 10.952
      vertex 5.98235 5.98235 9.46469
      vertex 6.16091 5.476 8.452
    endloop
  endfacet
  facet normal -0.984807 -6.0565e-06 -0.173655
    outer loop
      vertex 5.98235 5.98235 9.46469
      vertex 5.72009 5.476 10.952
      vertex 5.65645 5.65645 11.3129
    endloop
  endfacet
  facet normal 0.984808 -6.0377e-07 0.173648
    outer loop
      vertex 5.15658 41.6434 7.81317
      vertex 6.07813 45.5066 2.5868
      vertex 4.83069 41.9693 9.66139
    endloop
  endfacet
  facet normal 0.984808 0 0.173648
    outer loop
      vertex 6.07813 45.5066 2.5868
      vertex 5.15658 41.6434 7.81317
      vertex 6.07813 44.2566 2.5868
    endloop
  endfacet
  facet normal 0.984808 -0 0.173648
    outer loop
      vertex 4.83069 5.476 9.66139
      vertex 5.15658 41.6434 7.81317
      vertex 4.83069 41.9693 9.66139
    endloop
  endfacet
  facet normal 0.984808 0 0.173648
    outer loop
      vertex 5.15658 41.6434 7.81317
      vertex 4.83069 5.476 9.66139
      vertex 5.15658 5.476 7.81317
    endloop
  endfacet
  facet normal -0.173645 0 0.984808
    outer loop
      vertex 6.07813 44.2566 2.5868
      vertex 7.16142 45.4111 2.77781
      vertex 6.07813 45.5066 2.5868
    endloop
  endfacet
  facet normal -0.173645 0 0.984808
    outer loop
      vertex 7.16142 45.4111 2.77781
      vertex 6.07813 44.2566 2.5868
      vertex 7.16142 44.1611 2.77781
    endloop
  endfacet
  facet normal 0 1 -0
    outer loop
      vertex 16.2 8.00385 9.5
      vertex 10.2 8.00385 12
      vertex 16.2 8.00385 12
    endloop
  endfacet
  facet normal 0 1 0
    outer loop
      vertex 10.2 8.00385 12
      vertex 16.2 8.00385 9.5
      vertex 10.2 8.00385 9.5
    endloop
  endfacet
  facet normal 0 -1 0
    outer loop
      vertex 10.2 18.3962 9.5
      vertex 16.2 18.3962 12
      vertex 10.2 18.3962 12
    endloop
  endfacet
  facet normal 0 -1 -0
    outer loop
      vertex 16.2 18.3962 12
      vertex 10.2 18.3962 9.5
      vertex 16.2 18.3962 9.5
    endloop
  endfacet
  facet normal -0.866029 -0.499995 0
    outer loop
      vertex 18.0453 15.2 9.5
      vertex 16.2 18.3962 12
      vertex 16.2 18.3962 9.5
    endloop
  endfacet
  facet normal -0.866029 -0.499995 0
    outer loop
      vertex 16.2 18.3962 12
      vertex 18.0453 15.2 9.5
      vertex 18.0453 15.2 12
    endloop
  endfacet
  facet normal 0.866027 -0.499997 0
    outer loop
      vertex 7.2 13.2 12
      vertex 10.2 18.3962 9.5
      vertex 10.2 18.3962 12
    endloop
  endfacet
  facet normal 0.866027 -0.499997 0
    outer loop
      vertex 10.2 18.3962 9.5
      vertex 7.2 13.2 12
      vertex 7.2 13.2 9.5
    endloop
  endfacet
  facet normal 0.866025 0.5 0
    outer loop
      vertex 10.2 8.00385 12
      vertex 7.2 13.2 9.5
      vertex 7.2 13.2 12
    endloop
  endfacet
  facet normal 0.866025 0.5 0
    outer loop
      vertex 7.2 13.2 9.5
      vertex 10.2 8.00385 12
      vertex 10.2 8.00385 9.5
    endloop
  endfacet
  facet normal -0.866025 0.5 0
    outer loop
      vertex 16.2 8.00385 9.5
      vertex 18.0453 11.2 12
      vertex 18.0453 11.2 9.5
    endloop
  endfacet
  facet normal -0.866025 0.5 0
    outer loop
      vertex 18.0453 11.2 12
      vertex 16.2 8.00385 9.5
      vertex 16.2 8.00385 12
    endloop
  endfacet
  facet normal 0 -1 0
    outer loop
      vertex 27.2 18.3962 9.5
      vertex 33.2 18.3962 12
      vertex 27.2 18.3962 12
    endloop
  endfacet
  facet normal 0 -1 -0
    outer loop
      vertex 33.2 18.3962 12
      vertex 27.2 18.3962 9.5
      vertex 33.2 18.3962 9.5
    endloop
  endfacet
  facet normal -0.866027 -0.499997 0
    outer loop
      vertex 36.2 13.2 9.5
      vertex 33.2 18.3962 12
      vertex 33.2 18.3962 9.5
    endloop
  endfacet
  facet normal -0.866027 -0.499997 0
    outer loop
      vertex 33.2 18.3962 12
      vertex 36.2 13.2 9.5
      vertex 36.2 13.2 12
    endloop
  endfacet
  facet normal 0.866029 -0.499995 0
    outer loop
      vertex 25.3547 15.2 12
      vertex 27.2 18.3962 9.5
      vertex 27.2 18.3962 12
    endloop
  endfacet
  facet normal 0.866029 -0.499995 0
    outer loop
      vertex 27.2 18.3962 9.5
      vertex 25.3547 15.2 12
      vertex 25.3547 15.2 9.5
    endloop
  endfacet
  facet normal 0.866025 0.5 0
    outer loop
      vertex 27.2 8.00385 12
      vertex 25.3547 11.2 9.5
      vertex 25.3547 11.2 12
    endloop
  endfacet
  facet normal 0.866025 0.5 0
    outer loop
      vertex 25.3547 11.2 9.5
      vertex 27.2 8.00385 12
      vertex 27.2 8.00385 9.5
    endloop
  endfacet
  facet normal 0 1 -0
    outer loop
      vertex 33.2 8.00385 9.5
      vertex 27.2 8.00385 12
      vertex 33.2 8.00385 12
    endloop
  endfacet
  facet normal 0 1 0
    outer loop
      vertex 27.2 8.00385 12
      vertex 33.2 8.00385 9.5
      vertex 27.2 8.00385 9.5
    endloop
  endfacet
  facet normal -0.866025 0.5 0
    outer loop
      vertex 33.2 8.00385 9.5
      vertex 36.2 13.2 12
      vertex 36.2 13.2 9.5
    endloop
  endfacet
  facet normal -0.866025 0.5 0
    outer loop
      vertex 36.2 13.2 12
      vertex 33.2 8.00385 9.5
      vertex 33.2 8.00385 12
    endloop
  endfacet
  facet normal 0 -1 0
    outer loop
      vertex 52.7 18.3962 9.5
      vertex 58.7 18.3962 12
      vertex 52.7 18.3962 12
    endloop
  endfacet
  facet normal 0 -1 -0
    outer loop
      vertex 58.7 18.3962 12
      vertex 52.7 18.3962 9.5
      vertex 58.7 18.3962 9.5
    endloop
  endfacet
  facet normal -0.866029 -0.499995 0
    outer loop
      vertex 60.5453 15.2 9.5
      vertex 58.7 18.3962 12
      vertex 58.7 18.3962 9.5
    endloop
  endfacet
  facet normal -0.866029 -0.499995 0
    outer loop
      vertex 58.7 18.3962 12
      vertex 60.5453 15.2 9.5
      vertex 60.5453 15.2 12
    endloop
  endfacet
  facet normal 0.866027 -0.499997 0
    outer loop
      vertex 49.7 13.2 12
      vertex 52.7 18.3962 9.5
      vertex 52.7 18.3962 12
    endloop
  endfacet
  facet normal 0.866027 -0.499997 0
    outer loop
      vertex 52.7 18.3962 9.5
      vertex 49.7 13.2 12
      vertex 49.7 13.2 9.5
    endloop
  endfacet
  facet normal 0.866025 0.5 0
    outer loop
      vertex 52.7 8.00385 12
      vertex 49.7 13.2 9.5
      vertex 49.7 13.2 12
    endloop
  endfacet
  facet normal 0.866025 0.5 0
    outer loop
      vertex 49.7 13.2 9.5
      vertex 52.7 8.00385 12
      vertex 52.7 8.00385 9.5
    endloop
  endfacet
  facet normal 0 1 -0
    outer loop
      vertex 58.7 8.00385 9.5
      vertex 52.7 8.00385 12
      vertex 58.7 8.00385 12
    endloop
  endfacet
  facet normal 0 1 0
    outer loop
      vertex 52.7 8.00385 12
      vertex 58.7 8.00385 9.5
      vertex 52.7 8.00385 9.5
    endloop
  endfacet
  facet normal -0.866025 0.5 0
    outer loop
      vertex 58.7 8.00385 9.5
      vertex 60.5453 11.2 12
      vertex 60.5453 11.2 9.5
    endloop
  endfacet
  facet normal -0.866025 0.5 0
    outer loop
      vertex 60.5453 11.2 12
      vertex 58.7 8.00385 9.5
      vertex 58.7 8.00385 12
    endloop
  endfacet
  facet normal 0 1 -0
    outer loop
      vertex 75.7 8.00385 9.5
      vertex 69.7 8.00385 12
      vertex 75.7 8.00385 12
    endloop
  endfacet
  facet normal 0 1 0
    outer loop
      vertex 69.7 8.00385 12
      vertex 75.7 8.00385 9.5
      vertex 69.7 8.00385 9.5
    endloop
  endfacet
  facet normal 0 -1 0
    outer loop
      vertex 69.7 18.3962 9.5
      vertex 75.7 18.3962 12
      vertex 69.7 18.3962 12
    endloop
  endfacet
  facet normal 0 -1 -0
    outer loop
      vertex 75.7 18.3962 12
      vertex 69.7 18.3962 9.5
      vertex 75.7 18.3962 9.5
    endloop
  endfacet
  facet normal -0.866029 -0.499995 0
    outer loop
      vertex 77.5453 15.2 9.5
      vertex 75.7 18.3962 12
      vertex 75.7 18.3962 9.5
    endloop
  endfacet
  facet normal -0.866029 -0.499995 0
    outer loop
      vertex 75.7 18.3962 12
      vertex 77.5453 15.2 9.5
      vertex 77.5453 15.2 12
    endloop
  endfacet
  facet normal 0.866029 -0.499995 0
    outer loop
      vertex 67.8547 15.2 12
      vertex 69.7 18.3962 9.5
      vertex 69.7 18.3962 12
    endloop
  endfacet
  facet normal 0.866029 -0.499995 0
    outer loop
      vertex 69.7 18.3962 9.5
      vertex 67.8547 15.2 12
      vertex 67.8547 15.2 9.5
    endloop
  endfacet
  facet normal 0.866025 0.5 0
    outer loop
      vertex 69.7 8.00385 12
      vertex 67.8547 11.2 9.5
      vertex 67.8547 11.2 12
    endloop
  endfacet
  facet normal 0.866025 0.5 0
    outer loop
      vertex 67.8547 11.2 9.5
      vertex 69.7 8.00385 12
      vertex 69.7 8.00385 9.5
    endloop
  endfacet
  facet normal -0.866025 0.5 0
    outer loop
      vertex 75.7 8.00385 9.5
      vertex 77.5453 11.2 12
      vertex 77.5453 11.2 9.5
    endloop
  endfacet
  facet normal -0.866025 0.5 0
    outer loop
      vertex 77.5453 11.2 12
      vertex 75.7 8.00385 9.5
      vertex 75.7 8.00385 12
    endloop
  endfacet
  facet normal 0 1 -0
    outer loop
      vertex 92.7 8.00385 9.5
      vertex 86.7 8.00385 12
      vertex 92.7 8.00385 12
    endloop
  endfacet
  facet normal 0 1 0
    outer loop
      vertex 86.7 8.00385 12
      vertex 92.7 8.00385 9.5
      vertex 86.7 8.00385 9.5
    endloop
  endfacet
  facet normal 0 -1 0
    outer loop
      vertex 86.7 18.3962 9.5
      vertex 92.7 18.3962 12
      vertex 86.7 18.3962 12
    endloop
  endfacet
  facet normal 0 -1 -0
    outer loop
      vertex 92.7 18.3962 12
      vertex 86.7 18.3962 9.5
      vertex 92.7 18.3962 9.5
    endloop
  endfacet
  facet normal -0.866029 -0.499995 0
    outer loop
      vertex 94.5453 15.2 9.5
      vertex 92.7 18.3962 12
      vertex 92.7 18.3962 9.5
    endloop
  endfacet
  facet normal -0.866029 -0.499995 0
    outer loop
      vertex 92.7 18.3962 12
      vertex 94.5453 15.2 9.5
      vertex 94.5453 15.2 12
    endloop
  endfacet
  facet normal 0.866029 -0.499995 0
    outer loop
      vertex 84.8547 15.2 12
      vertex 86.7 18.3962 9.5
      vertex 86.7 18.3962 12
    endloop
  endfacet
  facet normal 0.866029 -0.499995 0
    outer loop
      vertex 86.7 18.3962 9.5
      vertex 84.8547 15.2 12
      vertex 84.8547 15.2 9.5
    endloop
  endfacet
  facet normal 0.866025 0.5 0
    outer loop
      vertex 86.7 8.00385 12
      vertex 84.8547 11.2 9.5
      vertex 84.8547 11.2 12
    endloop
  endfacet
  facet normal 0.866025 0.5 0
    outer loop
      vertex 84.8547 11.2 9.5
      vertex 86.7 8.00385 12
      vertex 86.7 8.00385 9.5
    endloop
  endfacet
  facet normal -0.866025 0.5 0
    outer loop
      vertex 92.7 8.00385 9.5
      vertex 94.5453 11.2 12
      vertex 94.5453 11.2 9.5
    endloop
  endfacet
  facet normal -0.866025 0.5 0
    outer loop
      vertex 94.5453 11.2 12
      vertex 92.7 8.00385 9.5
      vertex 92.7 8.00385 12
    endloop
  endfacet
  facet normal 0 1 -0
    outer loop
      vertex 109.7 8.00385 9.5
      vertex 103.7 8.00385 12
      vertex 109.7 8.00385 12
    endloop
  endfacet
  facet normal 0 1 0
    outer loop
      vertex 103.7 8.00385 12
      vertex 109.7 8.00385 9.5
      vertex 103.7 8.00385 9.5
    endloop
  endfacet
  facet normal 0 -1 0
    outer loop
      vertex 103.7 18.3962 9.5
      vertex 109.7 18.3962 12
      vertex 103.7 18.3962 12
    endloop
  endfacet
  facet normal 0 -1 -0
    outer loop
      vertex 109.7 18.3962 12
      vertex 103.7 18.3962 9.5
      vertex 109.7 18.3962 9.5
    endloop
  endfacet
  facet normal -0.866064 -0.499934 0
    outer loop
      vertex 111.545 15.2 9.5
      vertex 109.7 18.3962 12
      vertex 109.7 18.3962 9.5
    endloop
  endfacet
  facet normal -0.866064 -0.499934 0
    outer loop
      vertex 109.7 18.3962 12
      vertex 111.545 15.2 9.5
      vertex 111.545 15.2 12
    endloop
  endfacet
  facet normal 0.866064 -0.499934 0
    outer loop
      vertex 101.855 15.2 12
      vertex 103.7 18.3962 9.5
      vertex 103.7 18.3962 12
    endloop
  endfacet
  facet normal 0.866064 -0.499934 0
    outer loop
      vertex 103.7 18.3962 9.5
      vertex 101.855 15.2 12
      vertex 101.855 15.2 9.5
    endloop
  endfacet
  facet normal 0.86606 0.499939 0
    outer loop
      vertex 103.7 8.00385 12
      vertex 101.855 11.2 9.5
      vertex 101.855 11.2 12
    endloop
  endfacet
  facet normal 0.86606 0.499939 0
    outer loop
      vertex 101.855 11.2 9.5
      vertex 103.7 8.00385 12
      vertex 103.7 8.00385 9.5
    endloop
  endfacet
  facet normal -0.86606 0.499939 0
    outer loop
      vertex 109.7 8.00385 9.5
      vertex 111.545 11.2 12
      vertex 111.545 11.2 9.5
    endloop
  endfacet
  facet normal -0.86606 0.499939 0
    outer loop
      vertex 111.545 11.2 12
      vertex 109.7 8.00385 9.5
      vertex 109.7 8.00385 12
    endloop
  endfacet
  facet normal 0 -1 0
    outer loop
      vertex 120.7 18.3962 9.5
      vertex 126.7 18.3962 12
      vertex 120.7 18.3962 12
    endloop
  endfacet
  facet normal 0 -1 -0
    outer loop
      vertex 126.7 18.3962 12
      vertex 120.7 18.3962 9.5
      vertex 126.7 18.3962 9.5
    endloop
  endfacet
  facet normal -0.866027 -0.499997 0
    outer loop
      vertex 129.7 13.2 9.5
      vertex 126.7 18.3962 12
      vertex 126.7 18.3962 9.5
    endloop
  endfacet
  facet normal -0.866027 -0.499997 0
    outer loop
      vertex 126.7 18.3962 12
      vertex 129.7 13.2 9.5
      vertex 129.7 13.2 12
    endloop
  endfacet
  facet normal 0.866064 -0.499934 0
    outer loop
      vertex 118.855 15.2 12
      vertex 120.7 18.3962 9.5
      vertex 120.7 18.3962 12
    endloop
  endfacet
  facet normal 0.866064 -0.499934 0
    outer loop
      vertex 120.7 18.3962 9.5
      vertex 118.855 15.2 12
      vertex 118.855 15.2 9.5
    endloop
  endfacet
  facet normal 0.86606 0.499939 0
    outer loop
      vertex 120.7 8.00385 12
      vertex 118.855 11.2 9.5
      vertex 118.855 11.2 12
    endloop
  endfacet
  facet normal 0.86606 0.499939 0
    outer loop
      vertex 118.855 11.2 9.5
      vertex 120.7 8.00385 12
      vertex 120.7 8.00385 9.5
    endloop
  endfacet
  facet normal 0 1 -0
    outer loop
      vertex 126.7 8.00385 9.5
      vertex 120.7 8.00385 12
      vertex 126.7 8.00385 12
    endloop
  endfacet
  facet normal 0 1 0
    outer loop
      vertex 120.7 8.00385 12
      vertex 126.7 8.00385 9.5
      vertex 120.7 8.00385 9.5
    endloop
  endfacet
  facet normal -0.866025 0.5 0
    outer loop
      vertex 126.7 8.00385 9.5
      vertex 129.7 13.2 12
      vertex 129.7 13.2 9.5
    endloop
  endfacet
  facet normal -0.866025 0.5 0
    outer loop
      vertex 129.7 13.2 12
      vertex 126.7 8.00385 9.5
      vertex 126.7 8.00385 12
    endloop
  endfacet
  facet normal 0 1 -0
    outer loop
      vertex 16.2 28.4038 9.5
      vertex 10.2 28.4038 12
      vertex 16.2 28.4038 12
    endloop
  endfacet
  facet normal 0 1 0
    outer loop
      vertex 10.2 28.4038 12
      vertex 16.2 28.4038 9.5
      vertex 10.2 28.4038 9.5
    endloop
  endfacet
  facet normal -0.866029 0.499995 0
    outer loop
      vertex 16.2 28.4038 9.5
      vertex 18.0453 31.6 12
      vertex 18.0453 31.6 9.5
    endloop
  endfacet
  facet normal -0.866029 0.499995 0
    outer loop
      vertex 18.0453 31.6 12
      vertex 16.2 28.4038 9.5
      vertex 16.2 28.4038 12
    endloop
  endfacet
  facet normal 0 -1 0
    outer loop
      vertex 10.2 38.7962 9.5
      vertex 16.2 38.7962 12
      vertex 10.2 38.7962 12
    endloop
  endfacet
  facet normal 0 -1 -0
    outer loop
      vertex 16.2 38.7962 12
      vertex 10.2 38.7962 9.5
      vertex 16.2 38.7962 9.5
    endloop
  endfacet
  facet normal -0.866029 -0.499995 0
    outer loop
      vertex 18.0453 35.6 9.5
      vertex 16.2 38.7962 12
      vertex 16.2 38.7962 9.5
    endloop
  endfacet
  facet normal -0.866029 -0.499995 0
    outer loop
      vertex 16.2 38.7962 12
      vertex 18.0453 35.6 9.5
      vertex 18.0453 35.6 12
    endloop
  endfacet
  facet normal 0.866027 -0.499997 0
    outer loop
      vertex 7.2 33.6 12
      vertex 10.2 38.7962 9.5
      vertex 10.2 38.7962 12
    endloop
  endfacet
  facet normal 0.866027 -0.499997 0
    outer loop
      vertex 10.2 38.7962 9.5
      vertex 7.2 33.6 12
      vertex 7.2 33.6 9.5
    endloop
  endfacet
  facet normal 0.866027 0.499997 0
    outer loop
      vertex 10.2 28.4038 12
      vertex 7.2 33.6 9.5
      vertex 7.2 33.6 12
    endloop
  endfacet
  facet normal 0.866027 0.499997 0
    outer loop
      vertex 7.2 33.6 9.5
      vertex 10.2 28.4038 12
      vertex 10.2 28.4038 9.5
    endloop
  endfacet
  facet normal 0 1 -0
    outer loop
      vertex 33.2 28.4038 9.5
      vertex 27.2 28.4038 12
      vertex 33.2 28.4038 12
    endloop
  endfacet
  facet normal 0 1 0
    outer loop
      vertex 27.2 28.4038 12
      vertex 33.2 28.4038 9.5
      vertex 27.2 28.4038 9.5
    endloop
  endfacet
  facet normal -0.866027 0.499997 0
    outer loop
      vertex 33.2 28.4038 9.5
      vertex 36.2 33.6 12
      vertex 36.2 33.6 9.5
    endloop
  endfacet
  facet normal -0.866027 0.499997 0
    outer loop
      vertex 36.2 33.6 12
      vertex 33.2 28.4038 9.5
      vertex 33.2 28.4038 12
    endloop
  endfacet
  facet normal 0 -1 0
    outer loop
      vertex 27.2 38.7962 9.5
      vertex 33.2 38.7962 12
      vertex 27.2 38.7962 12
    endloop
  endfacet
  facet normal 0 -1 -0
    outer loop
      vertex 33.2 38.7962 12
      vertex 27.2 38.7962 9.5
      vertex 33.2 38.7962 9.5
    endloop
  endfacet
  facet normal -0.866027 -0.499997 0
    outer loop
      vertex 36.2 33.6 9.5
      vertex 33.2 38.7962 12
      vertex 33.2 38.7962 9.5
    endloop
  endfacet
  facet normal -0.866027 -0.499997 0
    outer loop
      vertex 33.2 38.7962 12
      vertex 36.2 33.6 9.5
      vertex 36.2 33.6 12
    endloop
  endfacet
  facet normal 0.866029 -0.499995 0
    outer loop
      vertex 25.3547 35.6 12
      vertex 27.2 38.7962 9.5
      vertex 27.2 38.7962 12
    endloop
  endfacet
  facet normal 0.866029 -0.499995 0
    outer loop
      vertex 27.2 38.7962 9.5
      vertex 25.3547 35.6 12
      vertex 25.3547 35.6 9.5
    endloop
  endfacet
  facet normal 0.866029 0.499995 0
    outer loop
      vertex 27.2 28.4038 12
      vertex 25.3547 31.6 9.5
      vertex 25.3547 31.6 12
    endloop
  endfacet
  facet normal 0.866029 0.499995 0
    outer loop
      vertex 25.3547 31.6 9.5
      vertex 27.2 28.4038 12
      vertex 27.2 28.4038 9.5
    endloop
  endfacet
  facet normal 0 1 -0
    outer loop
      vertex 58.7 28.4038 9.5
      vertex 52.7 28.4038 12
      vertex 58.7 28.4038 12
    endloop
  endfacet
  facet normal 0 1 0
    outer loop
      vertex 52.7 28.4038 12
      vertex 58.7 28.4038 9.5
      vertex 52.7 28.4038 9.5
    endloop
  endfacet
  facet normal -0.866029 0.499995 0
    outer loop
      vertex 58.7 28.4038 9.5
      vertex 60.5453 31.6 12
      vertex 60.5453 31.6 9.5
    endloop
  endfacet
  facet normal -0.866029 0.499995 0
    outer loop
      vertex 60.5453 31.6 12
      vertex 58.7 28.4038 9.5
      vertex 58.7 28.4038 12
    endloop
  endfacet
  facet normal 0 -1 0
    outer loop
      vertex 52.7 38.7962 9.5
      vertex 58.7 38.7962 12
      vertex 52.7 38.7962 12
    endloop
  endfacet
  facet normal 0 -1 -0
    outer loop
      vertex 58.7 38.7962 12
      vertex 52.7 38.7962 9.5
      vertex 58.7 38.7962 9.5
    endloop
  endfacet
  facet normal -0.866029 -0.499995 0
    outer loop
      vertex 60.5453 35.6 9.5
      vertex 58.7 38.7962 12
      vertex 58.7 38.7962 9.5
    endloop
  endfacet
  facet normal -0.866029 -0.499995 0
    outer loop
      vertex 58.7 38.7962 12
      vertex 60.5453 35.6 9.5
      vertex 60.5453 35.6 12
    endloop
  endfacet
  facet normal 0.866027 -0.499997 0
    outer loop
      vertex 49.7 33.6 12
      vertex 52.7 38.7962 9.5
      vertex 52.7 38.7962 12
    endloop
  endfacet
  facet normal 0.866027 -0.499997 0
    outer loop
      vertex 52.7 38.7962 9.5
      vertex 49.7 33.6 12
      vertex 49.7 33.6 9.5
    endloop
  endfacet
  facet normal 0.866027 0.499997 0
    outer loop
      vertex 52.7 28.4038 12
      vertex 49.7 33.6 9.5
      vertex 49.7 33.6 12
    endloop
  endfacet
  facet normal 0.866027 0.499997 0
    outer loop
      vertex 49.7 33.6 9.5
      vertex 52.7 28.4038 12
      vertex 52.7 28.4038 9.5
    endloop
  endfacet
  facet normal 0 1 -0
    outer loop
      vertex 75.7 28.4038 9.5
      vertex 69.7 28.4038 12
      vertex 75.7 28.4038 12
    endloop
  endfacet
  facet normal 0 1 0
    outer loop
      vertex 69.7 28.4038 12
      vertex 75.7 28.4038 9.5
      vertex 69.7 28.4038 9.5
    endloop
  endfacet
  facet normal -0.866029 0.499995 0
    outer loop
      vertex 75.7 28.4038 9.5
      vertex 77.5453 31.6 12
      vertex 77.5453 31.6 9.5
    endloop
  endfacet
  facet normal -0.866029 0.499995 0
    outer loop
      vertex 77.5453 31.6 12
      vertex 75.7 28.4038 9.5
      vertex 75.7 28.4038 12
    endloop
  endfacet
  facet normal 0 -1 0
    outer loop
      vertex 69.7 38.7962 9.5
      vertex 75.7 38.7962 12
      vertex 69.7 38.7962 12
    endloop
  endfacet
  facet normal 0 -1 -0
    outer loop
      vertex 75.7 38.7962 12
      vertex 69.7 38.7962 9.5
      vertex 75.7 38.7962 9.5
    endloop
  endfacet
  facet normal -0.866029 -0.499995 0
    outer loop
      vertex 77.5453 35.6 9.5
      vertex 75.7 38.7962 12
      vertex 75.7 38.7962 9.5
    endloop
  endfacet
  facet normal -0.866029 -0.499995 0
    outer loop
      vertex 75.7 38.7962 12
      vertex 77.5453 35.6 9.5
      vertex 77.5453 35.6 12
    endloop
  endfacet
  facet normal 0.866029 -0.499995 0
    outer loop
      vertex 67.8547 35.6 12
      vertex 69.7 38.7962 9.5
      vertex 69.7 38.7962 12
    endloop
  endfacet
  facet normal 0.866029 -0.499995 0
    outer loop
      vertex 69.7 38.7962 9.5
      vertex 67.8547 35.6 12
      vertex 67.8547 35.6 9.5
    endloop
  endfacet
  facet normal 0.866029 0.499995 0
    outer loop
      vertex 69.7 28.4038 12
      vertex 67.8547 31.6 9.5
      vertex 67.8547 31.6 12
    endloop
  endfacet
  facet normal 0.866029 0.499995 0
    outer loop
      vertex 67.8547 31.6 9.5
      vertex 69.7 28.4038 12
      vertex 69.7 28.4038 9.5
    endloop
  endfacet
  facet normal 0 1 -0
    outer loop
      vertex 92.7 28.4038 9.5
      vertex 86.7 28.4038 12
      vertex 92.7 28.4038 12
    endloop
  endfacet
  facet normal 0 1 0
    outer loop
      vertex 86.7 28.4038 12
      vertex 92.7 28.4038 9.5
      vertex 86.7 28.4038 9.5
    endloop
  endfacet
  facet normal -0.866029 0.499995 0
    outer loop
      vertex 92.7 28.4038 9.5
      vertex 94.5453 31.6 12
      vertex 94.5453 31.6 9.5
    endloop
  endfacet
  facet normal -0.866029 0.499995 0
    outer loop
      vertex 94.5453 31.6 12
      vertex 92.7 28.4038 9.5
      vertex 92.7 28.4038 12
    endloop
  endfacet
  facet normal 0 -1 0
    outer loop
      vertex 86.7 38.7962 9.5
      vertex 92.7 38.7962 12
      vertex 86.7 38.7962 12
    endloop
  endfacet
  facet normal 0 -1 -0
    outer loop
      vertex 92.7 38.7962 12
      vertex 86.7 38.7962 9.5
      vertex 92.7 38.7962 9.5
    endloop
  endfacet
  facet normal -0.866029 -0.499995 0
    outer loop
      vertex 94.5453 35.6 9.5
      vertex 92.7 38.7962 12
      vertex 92.7 38.7962 9.5
    endloop
  endfacet
  facet normal -0.866029 -0.499995 0
    outer loop
      vertex 92.7 38.7962 12
      vertex 94.5453 35.6 9.5
      vertex 94.5453 35.6 12
    endloop
  endfacet
  facet normal 0.866029 -0.499995 0
    outer loop
      vertex 84.8547 35.6 12
      vertex 86.7 38.7962 9.5
      vertex 86.7 38.7962 12
    endloop
  endfacet
  facet normal 0.866029 -0.499995 0
    outer loop
      vertex 86.7 38.7962 9.5
      vertex 84.8547 35.6 12
      vertex 84.8547 35.6 9.5
    endloop
  endfacet
  facet normal 0.866029 0.499995 0
    outer loop
      vertex 86.7 28.4038 12
      vertex 84.8547 31.6 9.5
      vertex 84.8547 31.6 12
    endloop
  endfacet
  facet normal 0.866029 0.499995 0
    outer loop
      vertex 84.8547 31.6 9.5
      vertex 86.7 28.4038 12
      vertex 86.7 28.4038 9.5
    endloop
  endfacet
  facet normal 0 1 -0
    outer loop
      vertex 109.7 28.4038 9.5
      vertex 103.7 28.4038 12
      vertex 109.7 28.4038 12
    endloop
  endfacet
  facet normal 0 1 0
    outer loop
      vertex 103.7 28.4038 12
      vertex 109.7 28.4038 9.5
      vertex 103.7 28.4038 9.5
    endloop
  endfacet
  facet normal -0.866064 0.499934 0
    outer loop
      vertex 109.7 28.4038 9.5
      vertex 111.545 31.6 12
      vertex 111.545 31.6 9.5
    endloop
  endfacet
  facet normal -0.866064 0.499934 0
    outer loop
      vertex 111.545 31.6 12
      vertex 109.7 28.4038 9.5
      vertex 109.7 28.4038 12
    endloop
  endfacet
  facet normal 0 -1 0
    outer loop
      vertex 103.7 38.7962 9.5
      vertex 109.7 38.7962 12
      vertex 103.7 38.7962 12
    endloop
  endfacet
  facet normal 0 -1 -0
    outer loop
      vertex 109.7 38.7962 12
      vertex 103.7 38.7962 9.5
      vertex 109.7 38.7962 9.5
    endloop
  endfacet
  facet normal -0.866064 -0.499934 0
    outer loop
      vertex 111.545 35.6 9.5
      vertex 109.7 38.7962 12
      vertex 109.7 38.7962 9.5
    endloop
  endfacet
  facet normal -0.866064 -0.499934 0
    outer loop
      vertex 109.7 38.7962 12
      vertex 111.545 35.6 9.5
      vertex 111.545 35.6 12
    endloop
  endfacet
  facet normal 0.866064 -0.499934 0
    outer loop
      vertex 101.855 35.6 12
      vertex 103.7 38.7962 9.5
      vertex 103.7 38.7962 12
    endloop
  endfacet
  facet normal 0.866064 -0.499934 0
    outer loop
      vertex 103.7 38.7962 9.5
      vertex 101.855 35.6 12
      vertex 101.855 35.6 9.5
    endloop
  endfacet
  facet normal 0.866064 0.499934 0
    outer loop
      vertex 103.7 28.4038 12
      vertex 101.855 31.6 9.5
      vertex 101.855 31.6 12
    endloop
  endfacet
  facet normal 0.866064 0.499934 0
    outer loop
      vertex 101.855 31.6 9.5
      vertex 103.7 28.4038 12
      vertex 103.7 28.4038 9.5
    endloop
  endfacet
  facet normal 0 1 -0
    outer loop
      vertex 126.7 28.4038 9.5
      vertex 120.7 28.4038 12
      vertex 126.7 28.4038 12
    endloop
  endfacet
  facet normal 0 1 0
    outer loop
      vertex 120.7 28.4038 12
      vertex 126.7 28.4038 9.5
      vertex 120.7 28.4038 9.5
    endloop
  endfacet
  facet normal -0.866027 0.499997 0
    outer loop
      vertex 126.7 28.4038 9.5
      vertex 129.7 33.6 12
      vertex 129.7 33.6 9.5
    endloop
  endfacet
  facet normal -0.866027 0.499997 0
    outer loop
      vertex 129.7 33.6 12
      vertex 126.7 28.4038 9.5
      vertex 126.7 28.4038 12
    endloop
  endfacet
  facet normal 0 -1 0
    outer loop
      vertex 120.7 38.7962 9.5
      vertex 126.7 38.7962 12
      vertex 120.7 38.7962 12
    endloop
  endfacet
  facet normal 0 -1 -0
    outer loop
      vertex 126.7 38.7962 12
      vertex 120.7 38.7962 9.5
      vertex 126.7 38.7962 9.5
    endloop
  endfacet
  facet normal -0.866027 -0.499997 0
    outer loop
      vertex 129.7 33.6 9.5
      vertex 126.7 38.7962 12
      vertex 126.7 38.7962 9.5
    endloop
  endfacet
  facet normal -0.866027 -0.499997 0
    outer loop
      vertex 126.7 38.7962 12
      vertex 129.7 33.6 9.5
      vertex 129.7 33.6 12
    endloop
  endfacet
  facet normal 0.866064 -0.499934 0
    outer loop
      vertex 118.855 35.6 12
      vertex 120.7 38.7962 9.5
      vertex 120.7 38.7962 12
    endloop
  endfacet
  facet normal 0.866064 -0.499934 0
    outer loop
      vertex 120.7 38.7962 9.5
      vertex 118.855 35.6 12
      vertex 118.855 35.6 9.5
    endloop
  endfacet
  facet normal 0.866064 0.499934 0
    outer loop
      vertex 120.7 28.4038 12
      vertex 118.855 31.6 9.5
      vertex 118.855 31.6 12
    endloop
  endfacet
  facet normal 0.866064 0.499934 0
    outer loop
      vertex 118.855 31.6 9.5
      vertex 120.7 28.4038 12
      vertex 120.7 28.4038 9.5
    endloop
  endfacet
  facet normal 0 -1 0
    outer loop
      vertex 18.0453 15.2 9.5
      vertex 25.3547 15.2 12
      vertex 18.0453 15.2 12
    endloop
  endfacet
  facet normal 0 -1 -0
    outer loop
      vertex 25.3547 15.2 12
      vertex 18.0453 15.2 9.5
      vertex 25.3547 15.2 9.5
    endloop
  endfacet
  facet normal 0 1 -0
    outer loop
      vertex 25.3547 11.2 9.5
      vertex 18.0453 11.2 12
      vertex 25.3547 11.2 12
    endloop
  endfacet
  facet normal 0 1 0
    outer loop
      vertex 18.0453 11.2 12
      vertex 25.3547 11.2 9.5
      vertex 18.0453 11.2 9.5
    endloop
  endfacet
  facet normal 0 -1 0
    outer loop
      vertex 18.0453 35.6 9.5
      vertex 25.3547 35.6 12
      vertex 18.0453 35.6 12
    endloop
  endfacet
  facet normal 0 -1 -0
    outer loop
      vertex 25.3547 35.6 12
      vertex 18.0453 35.6 9.5
      vertex 25.3547 35.6 9.5
    endloop
  endfacet
  facet normal 0 1 -0
    outer loop
      vertex 25.3547 31.6 9.5
      vertex 18.0453 31.6 12
      vertex 25.3547 31.6 12
    endloop
  endfacet
  facet normal 0 1 0
    outer loop
      vertex 18.0453 31.6 12
      vertex 25.3547 31.6 9.5
      vertex 18.0453 31.6 9.5
    endloop
  endfacet
  facet normal 0 -1 0
    outer loop
      vertex 60.5453 15.2 9.5
      vertex 67.8547 15.2 12
      vertex 60.5453 15.2 12
    endloop
  endfacet
  facet normal 0 -1 -0
    outer loop
      vertex 67.8547 15.2 12
      vertex 60.5453 15.2 9.5
      vertex 67.8547 15.2 9.5
    endloop
  endfacet
  facet normal 0 1 -0
    outer loop
      vertex 67.8547 11.2 9.5
      vertex 60.5453 11.2 12
      vertex 67.8547 11.2 12
    endloop
  endfacet
  facet normal 0 1 0
    outer loop
      vertex 60.5453 11.2 12
      vertex 67.8547 11.2 9.5
      vertex 60.5453 11.2 9.5
    endloop
  endfacet
  facet normal 0 -1 0
    outer loop
      vertex 77.5453 15.2 9.5
      vertex 84.8547 15.2 12
      vertex 77.5453 15.2 12
    endloop
  endfacet
  facet normal 0 -1 -0
    outer loop
      vertex 84.8547 15.2 12
      vertex 77.5453 15.2 9.5
      vertex 84.8547 15.2 9.5
    endloop
  endfacet
  facet normal 0 1 -0
    outer loop
      vertex 84.8547 11.2 9.5
      vertex 77.5453 11.2 12
      vertex 84.8547 11.2 12
    endloop
  endfacet
  facet normal 0 1 0
    outer loop
      vertex 77.5453 11.2 12
      vertex 84.8547 11.2 9.5
      vertex 77.5453 11.2 9.5
    endloop
  endfacet
  facet normal 0 -1 0
    outer loop
      vertex 94.5453 15.2 9.5
      vertex 101.855 15.2 12
      vertex 94.5453 15.2 12
    endloop
  endfacet
  facet normal 0 -1 -0
    outer loop
      vertex 101.855 15.2 12
      vertex 94.5453 15.2 9.5
      vertex 101.855 15.2 9.5
    endloop
  endfacet
  facet normal 0 1 -0
    outer loop
      vertex 101.855 11.2 9.5
      vertex 94.5453 11.2 12
      vertex 101.855 11.2 12
    endloop
  endfacet
  facet normal 0 1 0
    outer loop
      vertex 94.5453 11.2 12
      vertex 101.855 11.2 9.5
      vertex 94.5453 11.2 9.5
    endloop
  endfacet
  facet normal 0 -1 0
    outer loop
      vertex 111.545 15.2 9.5
      vertex 118.855 15.2 12
      vertex 111.545 15.2 12
    endloop
  endfacet
  facet normal 0 -1 -0
    outer loop
      vertex 118.855 15.2 12
      vertex 111.545 15.2 9.5
      vertex 118.855 15.2 9.5
    endloop
  endfacet
  facet normal 0 1 -0
    outer loop
      vertex 118.855 11.2 9.5
      vertex 111.545 11.2 12
      vertex 118.855 11.2 12
    endloop
  endfacet
  facet normal 0 1 0
    outer loop
      vertex 111.545 11.2 12
      vertex 118.855 11.2 9.5
      vertex 111.545 11.2 9.5
    endloop
  endfacet
  facet normal 0 -1 0
    outer loop
      vertex 60.5453 35.6 9.5
      vertex 67.8547 35.6 12
      vertex 60.5453 35.6 12
    endloop
  endfacet
  facet normal 0 -1 -0
    outer loop
      vertex 67.8547 35.6 12
      vertex 60.5453 35.6 9.5
      vertex 67.8547 35.6 9.5
    endloop
  endfacet
  facet normal 0 1 -0
    outer loop
      vertex 67.8547 31.6 9.5
      vertex 60.5453 31.6 12
      vertex 67.8547 31.6 12
    endloop
  endfacet
  facet normal 0 1 0
    outer loop
      vertex 60.5453 31.6 12
      vertex 67.8547 31.6 9.5
      vertex 60.5453 31.6 9.5
    endloop
  endfacet
  facet normal 0 -1 0
    outer loop
      vertex 77.5453 35.6 9.5
      vertex 84.8547 35.6 12
      vertex 77.5453 35.6 12
    endloop
  endfacet
  facet normal 0 -1 -0
    outer loop
      vertex 84.8547 35.6 12
      vertex 77.5453 35.6 9.5
      vertex 84.8547 35.6 9.5
    endloop
  endfacet
  facet normal 0 1 -0
    outer loop
      vertex 84.8547 31.6 9.5
      vertex 77.5453 31.6 12
      vertex 84.8547 31.6 12
    endloop
  endfacet
  facet normal 0 1 0
    outer loop
      vertex 77.5453 31.6 12
      vertex 84.8547 31.6 9.5
      vertex 77.5453 31.6 9.5
    endloop
  endfacet
  facet normal 0 -1 0
    outer loop
      vertex 94.5453 35.6 9.5
      vertex 101.855 35.6 12
      vertex 94.5453 35.6 12
    endloop
  endfacet
  facet normal 0 -1 -0
    outer loop
      vertex 101.855 35.6 12
      vertex 94.5453 35.6 9.5
      vertex 101.855 35.6 9.5
    endloop
  endfacet
  facet normal 0 1 -0
    outer loop
      vertex 101.855 31.6 9.5
      vertex 94.5453 31.6 12
      vertex 101.855 31.6 12
    endloop
  endfacet
  facet normal 0 1 0
    outer loop
      vertex 94.5453 31.6 12
      vertex 101.855 31.6 9.5
      vertex 94.5453 31.6 9.5
    endloop
  endfacet
  facet normal 0 -1 0
    outer loop
      vertex 111.545 35.6 9.5
      vertex 118.855 35.6 12
      vertex 111.545 35.6 12
    endloop
  endfacet
  facet normal 0 -1 -0
    outer loop
      vertex 118.855 35.6 12
      vertex 111.545 35.6 9.5
      vertex 118.855 35.6 9.5
    endloop
  endfacet
  facet normal 0 1 -0
    outer loop
      vertex 118.855 31.6 9.5
      vertex 111.545 31.6 12
      vertex 118.855 31.6 12
    endloop
  endfacet
  facet normal 0 1 0
    outer loop
      vertex 111.545 31.6 12
      vertex 118.855 31.6 9.5
      vertex 111.545 31.6 9.5
    endloop
  endfacet
  facet normal -1 0 0
    outer loop
      vertex 27.38 0 0
      vertex 27.38 5.476 8.452
      vertex 27.38 1.25 0
    endloop
  endfacet
  facet normal -1 -0 0
    outer loop
      vertex 27.38 5.476 8.452
      vertex 27.38 0 0
      vertex 27.38 5.476 10.952
    endloop
  endfacet
  facet normal 0 -1 0
    outer loop
      vertex 0 5.476 0
      vertex 5.15658 5.476 7.81317
      vertex 4.83069 5.476 9.66139
    endloop
  endfacet
  facet normal 0 -1 0
    outer loop
      vertex 5.15658 5.476 7.81317
      vertex 0 5.476 0
      vertex 1.25 5.476 0
    endloop
  endfacet
  facet normal 0 -1 0
    outer loop
      vertex 6.16091 5.476 8.452
      vertex 27.38 5.476 10.952
      vertex 5.72009 5.476 10.952
    endloop
  endfacet
  facet normal 0 -1 -0
    outer loop
      vertex 27.38 5.476 10.952
      vertex 6.16091 5.476 8.452
      vertex 27.38 5.476 8.452
    endloop
  endfacet
  facet normal -1 0 0
    outer loop
      vertex 82.14 0 0
      vertex 82.14 5.476 8.452
      vertex 82.14 1.25 0
    endloop
  endfacet
  facet normal -1 -0 0
    outer loop
      vertex 82.14 5.476 8.452
      vertex 82.14 0 0
      vertex 82.14 5.476 10.952
    endloop
  endfacet
  facet normal 1 0 0
    outer loop
      vertex 54.76 0 0
      vertex 54.76 5.476 8.452
      vertex 54.76 5.476 10.952
    endloop
  endfacet
  facet normal 1 0 0
    outer loop
      vertex 54.76 5.476 8.452
      vertex 54.76 0 0
      vertex 54.76 1.25 0
    endloop
  endfacet
  facet normal 0 -1 0
    outer loop
      vertex 54.76 5.476 8.452
      vertex 82.14 5.476 10.952
      vertex 54.76 5.476 10.952
    endloop
  endfacet
  facet normal 0 -1 -0
    outer loop
      vertex 82.14 5.476 10.952
      vertex 54.76 5.476 8.452
      vertex 82.14 5.476 8.452
    endloop
  endfacet
  facet normal 1 0 0
    outer loop
      vertex 109.52 0 0
      vertex 109.52 5.476 8.452
      vertex 109.52 5.476 10.952
    endloop
  endfacet
  facet normal 1 0 0
    outer loop
      vertex 109.52 5.476 8.452
      vertex 109.52 0 0
      vertex 109.52 1.25 0
    endloop
  endfacet
  facet normal 0 -1 0
    outer loop
      vertex 109.52 5.476 8.452
      vertex 131.424 5.476 10.952
      vertex 109.52 5.476 10.952
    endloop
  endfacet
  facet normal 0 -1 0
    outer loop
      vertex 131.424 5.476 8.452
      vertex 131.424 5.476 10.952
      vertex 109.52 5.476 8.452
    endloop
  endfacet
  facet normal 0 -1 0
    outer loop
      vertex 136.9 5.476 0
      vertex 131.424 5.476 8.452
      vertex 135.65 5.476 0
    endloop
  endfacet
  facet normal 0 -1 0
    outer loop
      vertex 131.424 5.476 8.452
      vertex 136.9 5.476 0
      vertex 131.424 5.476 10.952
    endloop
  endfacet
  facet normal -1 0 0
    outer loop
      vertex 54.76 41.324 8.452
      vertex 54.76 46.8 0
      vertex 54.76 45.55 0
    endloop
  endfacet
  facet normal -1 0 0
    outer loop
      vertex 54.76 46.8 0
      vertex 54.76 41.324 8.452
      vertex 54.76 41.324 10.952
    endloop
  endfacet
  facet normal 1 -0 0
    outer loop
      vertex 27.38 41.324 8.452
      vertex 27.38 46.8 0
      vertex 27.38 41.324 10.952
    endloop
  endfacet
  facet normal 1 0 0
    outer loop
      vertex 27.38 46.8 0
      vertex 27.38 41.324 8.452
      vertex 27.38 45.55 0
    endloop
  endfacet
  facet normal 0 1 -0
    outer loop
      vertex 54.76 41.324 8.452
      vertex 27.38 41.324 10.952
      vertex 54.76 41.324 10.952
    endloop
  endfacet
  facet normal 0 1 0
    outer loop
      vertex 27.38 41.324 10.952
      vertex 54.76 41.324 8.452
      vertex 27.38 41.324 8.452
    endloop
  endfacet
  facet normal -1 0 0
    outer loop
      vertex 109.52 41.324 8.452
      vertex 109.52 46.8 0
      vertex 109.52 45.55 0
    endloop
  endfacet
  facet normal -1 0 0
    outer loop
      vertex 109.52 46.8 0
      vertex 109.52 41.324 8.452
      vertex 109.52 41.324 10.952
    endloop
  endfacet
  facet normal 1 -0 0
    outer loop
      vertex 82.14 41.324 8.452
      vertex 82.14 46.8 0
      vertex 82.14 41.324 10.952
    endloop
  endfacet
  facet normal 1 0 0
    outer loop
      vertex 82.14 46.8 0
      vertex 82.14 41.324 8.452
      vertex 82.14 45.55 0
    endloop
  endfacet
  facet normal 0 1 -0
    outer loop
      vertex 109.52 41.324 8.452
      vertex 82.14 41.324 10.952
      vertex 109.52 41.324 10.952
    endloop
  endfacet
  facet normal 0 1 0
    outer loop
      vertex 82.14 41.324 10.952
      vertex 109.52 41.324 8.452
      vertex 82.14 41.324 8.452
    endloop
  endfacet
endsolid OpenSCAD_Model
