solid OpenSCAD_Model
  facet normal 0.707107 0.707107 0
    outer loop
      vertex 32.476 18.75 1.5
      vertex 18.75 32.476 -1.5
      vertex 18.75 32.476 1.5
    endloop
  endfacet
  facet normal 0.707107 0.707107 0
    outer loop
      vertex 18.75 32.476 -1.5
      vertex 32.476 18.75 1.5
      vertex 32.476 18.75 -1.5
    endloop
  endfacet
  facet normal 0.965926 0.258817 0
    outer loop
      vertex 37.5 0 1.5
      vertex 32.476 18.75 -1.5
      vertex 32.476 18.75 1.5
    endloop
  endfacet
  facet normal 0.965926 0.258817 0
    outer loop
      vertex 32.476 18.75 -1.5
      vertex 37.5 0 1.5
      vertex 37.5 0 -1.5
    endloop
  endfacet
  facet normal 0.258817 0.965926 -0
    outer loop
      vertex 18.75 32.476 -1.5
      vertex 0 37.5 1.5
      vertex 18.75 32.476 1.5
    endloop
  endfacet
  facet normal 0.258817 0.965926 0
    outer loop
      vertex 0 37.5 1.5
      vertex 18.75 32.476 -1.5
      vertex 0 37.5 -1.5
    endloop
  endfacet
  facet normal -0.965926 -0.258817 0
    outer loop
      vertex -32.476 -18.75 -1.5
      vertex -37.5 0 1.5
      vertex -37.5 0 -1.5
    endloop
  endfacet
  facet normal -0.965926 -0.258817 0
    outer loop
      vertex -37.5 0 1.5
      vertex -32.476 -18.75 -1.5
      vertex -32.476 -18.75 1.5
    endloop
  endfacet
  facet normal 0.965926 -0.258817 0
    outer loop
      vertex 32.476 -18.75 1.5
      vertex 37.5 0 -1.5
      vertex 37.5 0 1.5
    endloop
  endfacet
  facet normal 0.965926 -0.258817 0
    outer loop
      vertex 37.5 0 -1.5
      vertex 32.476 -18.75 1.5
      vertex 32.476 -18.75 -1.5
    endloop
  endfacet
  facet normal -0.258817 0.965926 0
    outer loop
      vertex 0 37.5 -1.5
      vertex -18.75 32.476 1.5
      vertex 0 37.5 1.5
    endloop
  endfacet
  facet normal -0.258817 0.965926 0
    outer loop
      vertex -18.75 32.476 1.5
      vertex 0 37.5 -1.5
      vertex -18.75 32.476 -1.5
    endloop
  endfacet
  facet normal 0.258817 -0.965926 0
    outer loop
      vertex 0 -37.5 -1.5
      vertex 18.75 -32.476 1.5
      vertex 0 -37.5 1.5
    endloop
  endfacet
  facet normal 0.258817 -0.965926 0
    outer loop
      vertex 18.75 -32.476 1.5
      vertex 0 -37.5 -1.5
      vertex 18.75 -32.476 -1.5
    endloop
  endfacet
  facet normal -0.707107 0.707107 0
    outer loop
      vertex -32.476 18.75 -1.5
      vertex -18.75 32.476 1.5
      vertex -18.75 32.476 -1.5
    endloop
  endfacet
  facet normal -0.707107 0.707107 0
    outer loop
      vertex -18.75 32.476 1.5
      vertex -32.476 18.75 -1.5
      vertex -32.476 18.75 1.5
    endloop
  endfacet
  facet normal 0 0 -1
    outer loop
      vertex -18.75 -32.476 -1.5
      vertex -9.375 -24.25 -1.5
      vertex 0 -37.5 -1.5
    endloop
  endfacet
  facet normal 0 0 -1
    outer loop
      vertex -32.476 -18.75 -1.5
      vertex -10.375 -24.25 -1.5
      vertex -18.75 -32.476 -1.5
    endloop
  endfacet
  facet normal -0 0 -1
    outer loop
      vertex -9.375 -24.25 -1.5
      vertex -18.75 -32.476 -1.5
      vertex -10.375 -24.25 -1.5
    endloop
  endfacet
  facet normal 0 0 -1
    outer loop
      vertex -9.375 20.75 -1.5
      vertex 9.375 20.75 -1.5
      vertex 9.375 0.5 -1.5
    endloop
  endfacet
  facet normal 0 0 -1
    outer loop
      vertex 9.375 20.75 -1.5
      vertex -9.375 20.75 -1.5
      vertex 3.5 33.3 -1.5
    endloop
  endfacet
  facet normal 0 0 -1
    outer loop
      vertex -9.375 20.75 -1.5
      vertex 9.375 0.5 -1.5
      vertex -9.375 0.5 -1.5
    endloop
  endfacet
  facet normal 0 0 -1
    outer loop
      vertex 10.375 -24.25 -1.5
      vertex 37.5 0 -1.5
      vertex 32.476 -18.75 -1.5
    endloop
  endfacet
  facet normal 0 0 -1
    outer loop
      vertex 10.375 -24.25 -1.5
      vertex 32.476 -18.75 -1.5
      vertex 18.75 -32.476 -1.5
    endloop
  endfacet
  facet normal -0 0 -1
    outer loop
      vertex 37.5 0 -1.5
      vertex 10.375 -24.25 -1.5
      vertex 10.375 20.75 -1.5
    endloop
  endfacet
  facet normal 0 0 -1
    outer loop
      vertex 37.5 0 -1.5
      vertex 10.375 20.75 -1.5
      vertex 32.476 18.75 -1.5
    endloop
  endfacet
  facet normal 0 0 -1
    outer loop
      vertex 18.75 -32.476 -1.5
      vertex 9.375 -24.25 -1.5
      vertex 10.375 -24.25 -1.5
    endloop
  endfacet
  facet normal 0 0 -1
    outer loop
      vertex 0 -37.5 -1.5
      vertex 9.375 -24.25 -1.5
      vertex 18.75 -32.476 -1.5
    endloop
  endfacet
  facet normal 0 0 -1
    outer loop
      vertex -9.375 -24.25 -1.5
      vertex 9.375 -24.25 -1.5
      vertex 0 -37.5 -1.5
    endloop
  endfacet
  facet normal 0 0 -1
    outer loop
      vertex 9.375 -24.25 -1.5
      vertex -9.375 -24.25 -1.5
      vertex 9.375 -0.5 -1.5
    endloop
  endfacet
  facet normal -0 0 -1
    outer loop
      vertex 9.375 -0.5 -1.5
      vertex -9.375 -24.25 -1.5
      vertex -9.375 -0.5 -1.5
    endloop
  endfacet
  facet normal 0 0 -1
    outer loop
      vertex 32.476 18.75 -1.5
      vertex 10.375 20.75 -1.5
      vertex 18.75 32.476 -1.5
    endloop
  endfacet
  facet normal 0 0 -1
    outer loop
      vertex 3.5 33.3 -1.5
      vertex 10.375 20.75 -1.5
      vertex 9.375 20.75 -1.5
    endloop
  endfacet
  facet normal 0 0 -1
    outer loop
      vertex 10.375 20.75 -1.5
      vertex 3.5 33.3 -1.5
      vertex 18.75 32.476 -1.5
    endloop
  endfacet
  facet normal 0 0 -1
    outer loop
      vertex 0 37.5 -1.5
      vertex 3.5 33.3 -1.5
      vertex 0 36.8 -1.5
    endloop
  endfacet
  facet normal 0 0 -1
    outer loop
      vertex 3.5 33.3 -1.5
      vertex 0 37.5 -1.5
      vertex 18.75 32.476 -1.5
    endloop
  endfacet
  facet normal 0 0 -1
    outer loop
      vertex -3.5 33.3 -1.5
      vertex 0 37.5 -1.5
      vertex 0 36.8 -1.5
    endloop
  endfacet
  facet normal -0 0 -1
    outer loop
      vertex 3.5 33.3 -1.5
      vertex -9.375 20.75 -1.5
      vertex -3.5 33.3 -1.5
    endloop
  endfacet
  facet normal 0 0 -1
    outer loop
      vertex -10.375 20.75 -1.5
      vertex -3.5 33.3 -1.5
      vertex -9.375 20.75 -1.5
    endloop
  endfacet
  facet normal -0 0 -1
    outer loop
      vertex -3.5 33.3 -1.5
      vertex -18.75 32.476 -1.5
      vertex 0 37.5 -1.5
    endloop
  endfacet
  facet normal 0 0 -1
    outer loop
      vertex -10.375 20.75 -1.5
      vertex -18.75 32.476 -1.5
      vertex -3.5 33.3 -1.5
    endloop
  endfacet
  facet normal 0 0 -1
    outer loop
      vertex -37.5 0 -1.5
      vertex -10.375 -24.25 -1.5
      vertex -32.476 -18.75 -1.5
    endloop
  endfacet
  facet normal 0 0 -1
    outer loop
      vertex -10.375 -24.25 -1.5
      vertex -37.5 0 -1.5
      vertex -10.375 20.75 -1.5
    endloop
  endfacet
  facet normal -0 0 -1
    outer loop
      vertex -10.375 20.75 -1.5
      vertex -32.476 18.75 -1.5
      vertex -18.75 32.476 -1.5
    endloop
  endfacet
  facet normal 0 0 -1
    outer loop
      vertex -10.375 20.75 -1.5
      vertex -37.5 0 -1.5
      vertex -32.476 18.75 -1.5
    endloop
  endfacet
  facet normal 0.707107 -0.707107 0
    outer loop
      vertex 18.75 -32.476 1.5
      vertex 32.476 -18.75 -1.5
      vertex 32.476 -18.75 1.5
    endloop
  endfacet
  facet normal 0.707107 -0.707107 0
    outer loop
      vertex 32.476 -18.75 -1.5
      vertex 18.75 -32.476 1.5
      vertex 18.75 -32.476 -1.5
    endloop
  endfacet
  facet normal -0.258817 -0.965926 0
    outer loop
      vertex -18.75 -32.476 -1.5
      vertex 0 -37.5 1.5
      vertex -18.75 -32.476 1.5
    endloop
  endfacet
  facet normal -0.258817 -0.965926 -0
    outer loop
      vertex 0 -37.5 1.5
      vertex -18.75 -32.476 -1.5
      vertex 0 -37.5 -1.5
    endloop
  endfacet
  facet normal -0.707107 -0.707107 0
    outer loop
      vertex -18.75 -32.476 -1.5
      vertex -32.476 -18.75 1.5
      vertex -32.476 -18.75 -1.5
    endloop
  endfacet
  facet normal -0.707107 -0.707107 0
    outer loop
      vertex -32.476 -18.75 1.5
      vertex -18.75 -32.476 -1.5
      vertex -18.75 -32.476 1.5
    endloop
  endfacet
  facet normal -0.965926 0.258817 0
    outer loop
      vertex -37.5 0 -1.5
      vertex -32.476 18.75 1.5
      vertex -32.476 18.75 -1.5
    endloop
  endfacet
  facet normal -0.965926 0.258817 0
    outer loop
      vertex -32.476 18.75 1.5
      vertex -37.5 0 -1.5
      vertex -37.5 0 1.5
    endloop
  endfacet
  facet normal 0 0 1
    outer loop
      vertex -9.375 -24.25 1.5
      vertex 9.375 -24.25 1.5
      vertex 9.375 -2 1.5
    endloop
  endfacet
  facet normal 0 0 1
    outer loop
      vertex -9.375 -24.25 1.5
      vertex 9.375 -2 1.5
      vertex -9.375 -2 1.5
    endloop
  endfacet
  facet normal 0 0 1
    outer loop
      vertex 9.375 -24.25 1.5
      vertex -9.375 -24.25 1.5
      vertex 0 -37.5 1.5
    endloop
  endfacet
  facet normal 0 0 1
    outer loop
      vertex -18.75 -32.476 1.5
      vertex -9.375 -24.25 1.5
      vertex -10.375 -24.25 1.5
    endloop
  endfacet
  facet normal 0 0 1
    outer loop
      vertex -9.375 -24.25 1.5
      vertex -18.75 -32.476 1.5
      vertex 0 -37.5 1.5
    endloop
  endfacet
  facet normal 0 0 1
    outer loop
      vertex -10.375 20.75 1.5
      vertex -18.75 -32.476 1.5
      vertex -10.375 -24.25 1.5
    endloop
  endfacet
  facet normal 0 0 1
    outer loop
      vertex -37.5 0 1.5
      vertex -10.375 20.75 1.5
      vertex -32.476 18.75 1.5
    endloop
  endfacet
  facet normal 0 0 1
    outer loop
      vertex -10.375 20.75 1.5
      vertex -32.476 -18.75 1.5
      vertex -18.75 -32.476 1.5
    endloop
  endfacet
  facet normal 0 0 1
    outer loop
      vertex -10.375 20.75 1.5
      vertex -37.5 0 1.5
      vertex -32.476 -18.75 1.5
    endloop
  endfacet
  facet normal 0 0 1
    outer loop
      vertex 10.375 20.75 1.5
      vertex 37.5 0 1.5
      vertex 32.476 18.75 1.5
    endloop
  endfacet
  facet normal -0 0 1
    outer loop
      vertex 10.375 20.75 1.5
      vertex 32.476 18.75 1.5
      vertex 18.75 32.476 1.5
    endloop
  endfacet
  facet normal 0 0 1
    outer loop
      vertex 10.375 -24.25 1.5
      vertex 37.5 0 1.5
      vertex 10.375 20.75 1.5
    endloop
  endfacet
  facet normal 0 0 1
    outer loop
      vertex 37.5 0 1.5
      vertex 10.375 -24.25 1.5
      vertex 32.476 -18.75 1.5
    endloop
  endfacet
  facet normal 0 0 1
    outer loop
      vertex 3.5 33.3 1.5
      vertex 10.375 20.75 1.5
      vertex 18.75 32.476 1.5
    endloop
  endfacet
  facet normal 0 0 1
    outer loop
      vertex -9.375 20.75 1.5
      vertex 9.375 20.75 1.5
      vertex 3.5 33.3 1.5
    endloop
  endfacet
  facet normal 0 0 1
    outer loop
      vertex 10.375 20.75 1.5
      vertex 3.5 33.3 1.5
      vertex 9.375 20.75 1.5
    endloop
  endfacet
  facet normal 0 0 1
    outer loop
      vertex 0 37.5 1.5
      vertex 3.5 33.3 1.5
      vertex 18.75 32.476 1.5
    endloop
  endfacet
  facet normal 0 0 1
    outer loop
      vertex 0 37.5 1.5
      vertex 0 36.8 1.5
      vertex 3.5 33.3 1.5
    endloop
  endfacet
  facet normal 0 0 1
    outer loop
      vertex 0 37.5 1.5
      vertex -3.5 33.3 1.5
      vertex 0 36.8 1.5
    endloop
  endfacet
  facet normal 0 0 1
    outer loop
      vertex -3.5 33.3 1.5
      vertex -10.375 20.75 1.5
      vertex -9.375 20.75 1.5
    endloop
  endfacet
  facet normal 0 0 1
    outer loop
      vertex -32.476 18.75 1.5
      vertex -10.375 20.75 1.5
      vertex -18.75 32.476 1.5
    endloop
  endfacet
  facet normal 0 0 1
    outer loop
      vertex -3.5 33.3 1.5
      vertex -18.75 32.476 1.5
      vertex -10.375 20.75 1.5
    endloop
  endfacet
  facet normal 0 0 1
    outer loop
      vertex -18.75 32.476 1.5
      vertex -3.5 33.3 1.5
      vertex 0 37.5 1.5
    endloop
  endfacet
  facet normal 0 0 1
    outer loop
      vertex 32.476 -18.75 1.5
      vertex 10.375 -24.25 1.5
      vertex 18.75 -32.476 1.5
    endloop
  endfacet
  facet normal -0 0 1
    outer loop
      vertex 9.375 -24.25 1.5
      vertex 18.75 -32.476 1.5
      vertex 10.375 -24.25 1.5
    endloop
  endfacet
  facet normal 0 0 1
    outer loop
      vertex 18.75 -32.476 1.5
      vertex 9.375 -24.25 1.5
      vertex 0 -37.5 1.5
    endloop
  endfacet
  facet normal 0 0 1
    outer loop
      vertex -9.375 20.75 1.5
      vertex 3.5 33.3 1.5
      vertex -3.5 33.3 1.5
    endloop
  endfacet
  facet normal 0 0 1
    outer loop
      vertex 9.375 20.75 1.5
      vertex -9.375 20.75 1.5
      vertex 9.375 2 1.5
    endloop
  endfacet
  facet normal 0 0 1
    outer loop
      vertex 9.375 2 1.5
      vertex -9.375 20.75 1.5
      vertex -9.375 2 1.5
    endloop
  endfacet
  facet normal 1 -0 0
    outer loop
      vertex 9.375 -2 10.5
      vertex 9.375 -0.5 1.8
      vertex 9.375 -0.5 10.5
    endloop
  endfacet
  facet normal 1 0 0
    outer loop
      vertex 9.375 -0.5 1.8
      vertex 9.375 -2 10.5
      vertex 9.375 -2 1.8
    endloop
  endfacet
  facet normal 1 0 0
    outer loop
      vertex 9.375 -2 1.5
      vertex 9.375 -0.5 1.8
      vertex 9.375 -2 1.8
    endloop
  endfacet
  facet normal 1 0 0
    outer loop
      vertex 9.375 -0.5 1.8
      vertex 9.375 -2 1.5
      vertex 9.375 -0.5 -1.5
    endloop
  endfacet
  facet normal 1 0 0
    outer loop
      vertex 9.375 -24.25 -1.5
      vertex 9.375 -2 1.5
      vertex 9.375 -24.25 1.5
    endloop
  endfacet
  facet normal 1 0 0
    outer loop
      vertex 9.375 -2 1.5
      vertex 9.375 -24.25 -1.5
      vertex 9.375 -0.5 -1.5
    endloop
  endfacet
  facet normal 1 -0 0
    outer loop
      vertex 9.375 0.5 10.5
      vertex 9.375 2 1.8
      vertex 9.375 2 10.5
    endloop
  endfacet
  facet normal 1 0 0
    outer loop
      vertex 9.375 2 1.8
      vertex 9.375 0.5 10.5
      vertex 9.375 0.5 1.8
    endloop
  endfacet
  facet normal 1 0 0
    outer loop
      vertex 9.375 2 1.8
      vertex 9.375 0.5 1.8
      vertex 9.375 2 1.5
    endloop
  endfacet
  facet normal 1 -0 0
    outer loop
      vertex 9.375 2 1.5
      vertex 9.375 20.75 -1.5
      vertex 9.375 20.75 1.5
    endloop
  endfacet
  facet normal 1 0 0
    outer loop
      vertex 9.375 2 1.5
      vertex 9.375 0.5 -1.5
      vertex 9.375 20.75 -1.5
    endloop
  endfacet
  facet normal 1 0 0
    outer loop
      vertex 9.375 0.5 -1.5
      vertex 9.375 2 1.5
      vertex 9.375 0.5 1.8
    endloop
  endfacet
  facet normal -0 0 1
    outer loop
      vertex -9.375 2 10.5
      vertex 9.375 0.5 10.5
      vertex 9.375 2 10.5
    endloop
  endfacet
  facet normal 0 0 1
    outer loop
      vertex 9.375 0.5 10.5
      vertex -9.375 2 10.5
      vertex -9.375 0.5 10.5
    endloop
  endfacet
  facet normal -1 0 0
    outer loop
      vertex -9.375 -2 1.8
      vertex -9.375 -0.5 10.5
      vertex -9.375 -0.5 1.8
    endloop
  endfacet
  facet normal -1 -0 0
    outer loop
      vertex -9.375 -0.5 10.5
      vertex -9.375 -2 1.8
      vertex -9.375 -2 10.5
    endloop
  endfacet
  facet normal -1 0 0
    outer loop
      vertex -9.375 -0.5 -1.5
      vertex -9.375 -2 1.5
      vertex -9.375 -0.5 1.8
    endloop
  endfacet
  facet normal -1 0 0
    outer loop
      vertex -9.375 -24.25 -1.5
      vertex -9.375 -2 1.5
      vertex -9.375 -0.5 -1.5
    endloop
  endfacet
  facet normal -1 -0 0
    outer loop
      vertex -9.375 -2 1.5
      vertex -9.375 -24.25 -1.5
      vertex -9.375 -24.25 1.5
    endloop
  endfacet
  facet normal -1 -0 0
    outer loop
      vertex -9.375 -0.5 1.8
      vertex -9.375 -2 1.5
      vertex -9.375 -2 1.8
    endloop
  endfacet
  facet normal -1 0 0
    outer loop
      vertex -9.375 0.5 1.8
      vertex -9.375 2 10.5
      vertex -9.375 2 1.8
    endloop
  endfacet
  facet normal -1 -0 0
    outer loop
      vertex -9.375 2 10.5
      vertex -9.375 0.5 1.8
      vertex -9.375 0.5 10.5
    endloop
  endfacet
  facet normal -1 0 0
    outer loop
      vertex -9.375 20.75 -1.5
      vertex -9.375 2 1.5
      vertex -9.375 20.75 1.5
    endloop
  endfacet
  facet normal -1 0 0
    outer loop
      vertex -9.375 0.5 -1.5
      vertex -9.375 2 1.5
      vertex -9.375 20.75 -1.5
    endloop
  endfacet
  facet normal -1 0 0
    outer loop
      vertex -9.375 0.5 1.8
      vertex -9.375 2 1.5
      vertex -9.375 0.5 -1.5
    endloop
  endfacet
  facet normal -1 0 0
    outer loop
      vertex -9.375 2 1.5
      vertex -9.375 0.5 1.8
      vertex -9.375 2 1.8
    endloop
  endfacet
  facet normal 0 1 -0
    outer loop
      vertex 9.375 2 1.8
      vertex -9.375 2 10.5
      vertex 9.375 2 10.5
    endloop
  endfacet
  facet normal 0 1 0
    outer loop
      vertex 9.375 2 1.8
      vertex -9.375 2 1.8
      vertex -9.375 2 10.5
    endloop
  endfacet
  facet normal 0 1 -0
    outer loop
      vertex 9.375 2 1.5
      vertex -9.375 2 1.8
      vertex 9.375 2 1.8
    endloop
  endfacet
  facet normal 0 1 0
    outer loop
      vertex -9.375 2 1.8
      vertex 9.375 2 1.5
      vertex -9.375 2 1.5
    endloop
  endfacet
  facet normal 0 -1 0
    outer loop
      vertex -9.375 0.5 1.8
      vertex 9.375 0.5 10.5
      vertex -9.375 0.5 10.5
    endloop
  endfacet
  facet normal 0 -1 -0
    outer loop
      vertex 9.375 0.5 10.5
      vertex -9.375 0.5 1.8
      vertex 9.375 0.5 1.8
    endloop
  endfacet
  facet normal 0 -1 0
    outer loop
      vertex -9.375 0.5 -1.5
      vertex 9.375 0.5 1.8
      vertex -9.375 0.5 1.8
    endloop
  endfacet
  facet normal 0 -1 -0
    outer loop
      vertex 9.375 0.5 1.8
      vertex -9.375 0.5 -1.5
      vertex 9.375 0.5 -1.5
    endloop
  endfacet
  facet normal -0 0 1
    outer loop
      vertex -9.375 -0.5 10.5
      vertex 9.375 -2 10.5
      vertex 9.375 -0.5 10.5
    endloop
  endfacet
  facet normal 0 0 1
    outer loop
      vertex 9.375 -2 10.5
      vertex -9.375 -0.5 10.5
      vertex -9.375 -2 10.5
    endloop
  endfacet
  facet normal 0 1 -0
    outer loop
      vertex 9.375 -0.5 1.8
      vertex -9.375 -0.5 10.5
      vertex 9.375 -0.5 10.5
    endloop
  endfacet
  facet normal 0 1 0
    outer loop
      vertex -9.375 -0.5 10.5
      vertex 9.375 -0.5 1.8
      vertex -9.375 -0.5 1.8
    endloop
  endfacet
  facet normal 0 1 -0
    outer loop
      vertex 9.375 -0.5 -1.5
      vertex -9.375 -0.5 1.8
      vertex 9.375 -0.5 1.8
    endloop
  endfacet
  facet normal 0 1 0
    outer loop
      vertex -9.375 -0.5 1.8
      vertex 9.375 -0.5 -1.5
      vertex -9.375 -0.5 -1.5
    endloop
  endfacet
  facet normal 0 -1 0
    outer loop
      vertex -9.375 -2 1.8
      vertex 9.375 -2 10.5
      vertex -9.375 -2 10.5
    endloop
  endfacet
  facet normal 0 -1 0
    outer loop
      vertex -9.375 -2 1.8
      vertex 9.375 -2 1.8
      vertex 9.375 -2 10.5
    endloop
  endfacet
  facet normal 0 -1 0
    outer loop
      vertex -9.375 -2 1.5
      vertex 9.375 -2 1.8
      vertex -9.375 -2 1.8
    endloop
  endfacet
  facet normal 0 -1 -0
    outer loop
      vertex 9.375 -2 1.8
      vertex -9.375 -2 1.5
      vertex 9.375 -2 1.5
    endloop
  endfacet
  facet normal 1 -0 0
    outer loop
      vertex -10.375 -24.25 1.5
      vertex -10.375 20.75 -1.5
      vertex -10.375 20.75 1.5
    endloop
  endfacet
  facet normal 1 0 0
    outer loop
      vertex -10.375 20.75 -1.5
      vertex -10.375 -24.25 1.5
      vertex -10.375 -24.25 -1.5
    endloop
  endfacet
  facet normal 0 -1 0
    outer loop
      vertex -10.375 20.75 -1.5
      vertex -9.375 20.75 1.5
      vertex -10.375 20.75 1.5
    endloop
  endfacet
  facet normal 0 -1 -0
    outer loop
      vertex -9.375 20.75 1.5
      vertex -10.375 20.75 -1.5
      vertex -9.375 20.75 -1.5
    endloop
  endfacet
  facet normal 0 1 -0
    outer loop
      vertex -9.375 -24.25 -1.5
      vertex -10.375 -24.25 1.5
      vertex -9.375 -24.25 1.5
    endloop
  endfacet
  facet normal 0 1 0
    outer loop
      vertex -10.375 -24.25 1.5
      vertex -9.375 -24.25 -1.5
      vertex -10.375 -24.25 -1.5
    endloop
  endfacet
  facet normal -1 0 0
    outer loop
      vertex 10.375 -24.25 -1.5
      vertex 10.375 20.75 1.5
      vertex 10.375 20.75 -1.5
    endloop
  endfacet
  facet normal -1 -0 0
    outer loop
      vertex 10.375 20.75 1.5
      vertex 10.375 -24.25 -1.5
      vertex 10.375 -24.25 1.5
    endloop
  endfacet
  facet normal 0 -1 0
    outer loop
      vertex 9.375 20.75 -1.5
      vertex 10.375 20.75 1.5
      vertex 9.375 20.75 1.5
    endloop
  endfacet
  facet normal 0 -1 -0
    outer loop
      vertex 10.375 20.75 1.5
      vertex 9.375 20.75 -1.5
      vertex 10.375 20.75 -1.5
    endloop
  endfacet
  facet normal 0 1 -0
    outer loop
      vertex 10.375 -24.25 -1.5
      vertex 9.375 -24.25 1.5
      vertex 10.375 -24.25 1.5
    endloop
  endfacet
  facet normal 0 1 0
    outer loop
      vertex 9.375 -24.25 1.5
      vertex 10.375 -24.25 -1.5
      vertex 9.375 -24.25 -1.5
    endloop
  endfacet
  facet normal 0 1 -0
    outer loop
      vertex 3.5 33.3 -1.5
      vertex -3.5 33.3 1.5
      vertex 3.5 33.3 1.5
    endloop
  endfacet
  facet normal 0 1 0
    outer loop
      vertex -3.5 33.3 1.5
      vertex 3.5 33.3 -1.5
      vertex -3.5 33.3 -1.5
    endloop
  endfacet
  facet normal -0.707107 -0.707107 0
    outer loop
      vertex 3.5 33.3 -1.5
      vertex 0 36.8 1.5
      vertex 0 36.8 -1.5
    endloop
  endfacet
  facet normal -0.707107 -0.707107 0
    outer loop
      vertex 0 36.8 1.5
      vertex 3.5 33.3 -1.5
      vertex 3.5 33.3 1.5
    endloop
  endfacet
  facet normal 0.707107 -0.707107 0
    outer loop
      vertex -3.5 33.3 1.5
      vertex 0 36.8 -1.5
      vertex 0 36.8 1.5
    endloop
  endfacet
  facet normal 0.707107 -0.707107 0
    outer loop
      vertex 0 36.8 -1.5
      vertex -3.5 33.3 1.5
      vertex -3.5 33.3 -1.5
    endloop
  endfacet
endsolid OpenSCAD_Model
