solid OpenSCAD_Model
  facet normal -0.965926 -0.258819 0
    outer loop
      vertex -5.41266 -3.125 -1.5
      vertex -6.25 0 1.5
      vertex -6.25 0 -1.5
    endloop
  endfacet
  facet normal -0.965926 -0.258819 0
    outer loop
      vertex -6.25 0 1.5
      vertex -5.41266 -3.125 -1.5
      vertex -5.41266 -3.125 1.5
    endloop
  endfacet
  facet normal 0.707107 0.707107 0
    outer loop
      vertex 5.41266 3.125 1.5
      vertex 3.125 5.41266 -1.5
      vertex 3.125 5.41266 1.5
    endloop
  endfacet
  facet normal 0.707107 0.707107 0
    outer loop
      vertex 3.125 5.41266 -1.5
      vertex 5.41266 3.125 1.5
      vertex 5.41266 3.125 -1.5
    endloop
  endfacet
  facet normal 0.965926 0.258819 0
    outer loop
      vertex 6.25 0 1.5
      vertex 5.41266 3.125 -1.5
      vertex 5.41266 3.125 1.5
    endloop
  endfacet
  facet normal 0.965926 0.258819 0
    outer loop
      vertex 5.41266 3.125 -1.5
      vertex 6.25 0 1.5
      vertex 6.25 0 -1.5
    endloop
  endfacet
  facet normal 0.258819 0.965926 -0
    outer loop
      vertex 3.125 5.41266 -1.5
      vertex 0 6.25 1.5
      vertex 3.125 5.41266 1.5
    endloop
  endfacet
  facet normal 0.258819 0.965926 0
    outer loop
      vertex 0 6.25 1.5
      vertex 3.125 5.41266 -1.5
      vertex 0 6.25 -1.5
    endloop
  endfacet
  facet normal 0.258819 -0.965926 0
    outer loop
      vertex 0 -6.25 -1.5
      vertex 3.125 -5.41266 1.5
      vertex 0 -6.25 1.5
    endloop
  endfacet
  facet normal 0.258819 -0.965926 0
    outer loop
      vertex 3.125 -5.41266 1.5
      vertex 0 -6.25 -1.5
      vertex 3.125 -5.41266 -1.5
    endloop
  endfacet
  facet normal 0.965926 -0.258819 0
    outer loop
      vertex 5.41266 -3.125 1.5
      vertex 6.25 0 -1.5
      vertex 6.25 0 1.5
    endloop
  endfacet
  facet normal 0.965926 -0.258819 0
    outer loop
      vertex 6.25 0 -1.5
      vertex 5.41266 -3.125 1.5
      vertex 5.41266 -3.125 -1.5
    endloop
  endfacet
  facet normal -0.707107 0.707107 0
    outer loop
      vertex -5.41266 3.125 -1.5
      vertex -3.125 5.41266 1.5
      vertex -3.125 5.41266 -1.5
    endloop
  endfacet
  facet normal -0.707107 0.707107 0
    outer loop
      vertex -3.125 5.41266 1.5
      vertex -5.41266 3.125 -1.5
      vertex -5.41266 3.125 1.5
    endloop
  endfacet
  facet normal -0.258819 0.965926 0
    outer loop
      vertex 0 6.25 -1.5
      vertex -3.125 5.41266 1.5
      vertex 0 6.25 1.5
    endloop
  endfacet
  facet normal -0.258819 0.965926 0
    outer loop
      vertex -3.125 5.41266 1.5
      vertex 0 6.25 -1.5
      vertex -3.125 5.41266 -1.5
    endloop
  endfacet
  facet normal -0.965926 0.258819 0
    outer loop
      vertex -6.25 0 -1.5
      vertex -5.41266 3.125 1.5
      vertex -5.41266 3.125 -1.5
    endloop
  endfacet
  facet normal -0.965926 0.258819 0
    outer loop
      vertex -5.41266 3.125 1.5
      vertex -6.25 0 -1.5
      vertex -6.25 0 1.5
    endloop
  endfacet
  facet normal 0 0 -1
    outer loop
      vertex -3.125 -5.41266 -1.5
      vertex -1.5625 -4.25 -1.5
      vertex 0 -6.25 -1.5
    endloop
  endfacet
  facet normal 0 0 -1
    outer loop
      vertex -5.41266 -3.125 -1.5
      vertex -2.5625 -4.25 -1.5
      vertex -3.125 -5.41266 -1.5
    endloop
  endfacet
  facet normal -0 0 -1
    outer loop
      vertex -1.5625 -4.25 -1.5
      vertex -3.125 -5.41266 -1.5
      vertex -2.5625 -4.25 -1.5
    endloop
  endfacet
  facet normal 0 0 -1
    outer loop
      vertex -1.5625 3.25 -1.5
      vertex 1.5625 3.25 -1.5
      vertex 1.5625 0.5 -1.5
    endloop
  endfacet
  facet normal 0 0 -1
    outer loop
      vertex 1.5625 3.25 -1.5
      vertex -1.5625 3.25 -1.5
      vertex 1 5.05 -1.5
    endloop
  endfacet
  facet normal 0 0 -1
    outer loop
      vertex -1.5625 3.25 -1.5
      vertex 1.5625 0.5 -1.5
      vertex -1.5625 0.5 -1.5
    endloop
  endfacet
  facet normal 0 0 -1
    outer loop
      vertex 2.5625 -4.25 -1.5
      vertex 6.25 0 -1.5
      vertex 5.41266 -3.125 -1.5
    endloop
  endfacet
  facet normal 0 0 -1
    outer loop
      vertex 2.5625 -4.25 -1.5
      vertex 5.41266 -3.125 -1.5
      vertex 3.125 -5.41266 -1.5
    endloop
  endfacet
  facet normal -0 0 -1
    outer loop
      vertex 6.25 0 -1.5
      vertex 2.5625 -4.25 -1.5
      vertex 2.5625 3.25 -1.5
    endloop
  endfacet
  facet normal 0 0 -1
    outer loop
      vertex 6.25 0 -1.5
      vertex 2.5625 3.25 -1.5
      vertex 5.41266 3.125 -1.5
    endloop
  endfacet
  facet normal 0 0 -1
    outer loop
      vertex 3.125 -5.41266 -1.5
      vertex 1.5625 -4.25 -1.5
      vertex 2.5625 -4.25 -1.5
    endloop
  endfacet
  facet normal 0 0 -1
    outer loop
      vertex 0 -6.25 -1.5
      vertex 1.5625 -4.25 -1.5
      vertex 3.125 -5.41266 -1.5
    endloop
  endfacet
  facet normal 0 0 -1
    outer loop
      vertex -1.5625 -4.25 -1.5
      vertex 1.5625 -4.25 -1.5
      vertex 0 -6.25 -1.5
    endloop
  endfacet
  facet normal 0 0 -1
    outer loop
      vertex 1.5625 -4.25 -1.5
      vertex -1.5625 -4.25 -1.5
      vertex 1.5625 -0.5 -1.5
    endloop
  endfacet
  facet normal -0 0 -1
    outer loop
      vertex 1.5625 -0.5 -1.5
      vertex -1.5625 -4.25 -1.5
      vertex -1.5625 -0.5 -1.5
    endloop
  endfacet
  facet normal 0 0 -1
    outer loop
      vertex 5.41266 3.125 -1.5
      vertex 2.5625 3.25 -1.5
      vertex 3.125 5.41266 -1.5
    endloop
  endfacet
  facet normal 0 0 -1
    outer loop
      vertex 1 5.05 -1.5
      vertex 2.5625 3.25 -1.5
      vertex 1.5625 3.25 -1.5
    endloop
  endfacet
  facet normal 0 0 -1
    outer loop
      vertex 2.5625 3.25 -1.5
      vertex 1 5.05 -1.5
      vertex 3.125 5.41266 -1.5
    endloop
  endfacet
  facet normal 0 0 -1
    outer loop
      vertex 0 6.25 -1.5
      vertex 1 5.05 -1.5
      vertex 0 6.05 -1.5
    endloop
  endfacet
  facet normal 0 0 -1
    outer loop
      vertex 1 5.05 -1.5
      vertex 0 6.25 -1.5
      vertex 3.125 5.41266 -1.5
    endloop
  endfacet
  facet normal 0 0 -1
    outer loop
      vertex -1 5.05 -1.5
      vertex 0 6.25 -1.5
      vertex 0 6.05 -1.5
    endloop
  endfacet
  facet normal -0 0 -1
    outer loop
      vertex 1 5.05 -1.5
      vertex -1.5625 3.25 -1.5
      vertex -1 5.05 -1.5
    endloop
  endfacet
  facet normal 0 0 -1
    outer loop
      vertex -2.5625 3.25 -1.5
      vertex -1 5.05 -1.5
      vertex -1.5625 3.25 -1.5
    endloop
  endfacet
  facet normal 0 0 -1
    outer loop
      vertex -3.125 5.41266 -1.5
      vertex -1 5.05 -1.5
      vertex -2.5625 3.25 -1.5
    endloop
  endfacet
  facet normal 0 0 -1
    outer loop
      vertex -1 5.05 -1.5
      vertex -3.125 5.41266 -1.5
      vertex 0 6.25 -1.5
    endloop
  endfacet
  facet normal 0 0 -1
    outer loop
      vertex -6.25 0 -1.5
      vertex -2.5625 -4.25 -1.5
      vertex -5.41266 -3.125 -1.5
    endloop
  endfacet
  facet normal 0 0 -1
    outer loop
      vertex -2.5625 -4.25 -1.5
      vertex -6.25 0 -1.5
      vertex -2.5625 3.25 -1.5
    endloop
  endfacet
  facet normal -0 0 -1
    outer loop
      vertex -2.5625 3.25 -1.5
      vertex -5.41266 3.125 -1.5
      vertex -3.125 5.41266 -1.5
    endloop
  endfacet
  facet normal 0 0 -1
    outer loop
      vertex -2.5625 3.25 -1.5
      vertex -6.25 0 -1.5
      vertex -5.41266 3.125 -1.5
    endloop
  endfacet
  facet normal 0.707107 -0.707107 0
    outer loop
      vertex 3.125 -5.41266 1.5
      vertex 5.41266 -3.125 -1.5
      vertex 5.41266 -3.125 1.5
    endloop
  endfacet
  facet normal 0.707107 -0.707107 0
    outer loop
      vertex 5.41266 -3.125 -1.5
      vertex 3.125 -5.41266 1.5
      vertex 3.125 -5.41266 -1.5
    endloop
  endfacet
  facet normal 0 0 1
    outer loop
      vertex -1.5625 -4.25 1.5
      vertex 1.5625 -4.25 1.5
      vertex 1.5625 -2 1.5
    endloop
  endfacet
  facet normal 0 0 1
    outer loop
      vertex -1.5625 -4.25 1.5
      vertex 1.5625 -2 1.5
      vertex -1.5625 -2 1.5
    endloop
  endfacet
  facet normal 0 0 1
    outer loop
      vertex 1.5625 -4.25 1.5
      vertex -1.5625 -4.25 1.5
      vertex 0 -6.25 1.5
    endloop
  endfacet
  facet normal 0 0 1
    outer loop
      vertex -3.125 -5.41266 1.5
      vertex -1.5625 -4.25 1.5
      vertex -2.5625 -4.25 1.5
    endloop
  endfacet
  facet normal 0 0 1
    outer loop
      vertex -1.5625 -4.25 1.5
      vertex -3.125 -5.41266 1.5
      vertex 0 -6.25 1.5
    endloop
  endfacet
  facet normal 0 0 1
    outer loop
      vertex -2.5625 3.25 1.5
      vertex -3.125 -5.41266 1.5
      vertex -2.5625 -4.25 1.5
    endloop
  endfacet
  facet normal 0 0 1
    outer loop
      vertex -6.25 0 1.5
      vertex -2.5625 3.25 1.5
      vertex -5.41266 3.125 1.5
    endloop
  endfacet
  facet normal 0 0 1
    outer loop
      vertex -2.5625 3.25 1.5
      vertex -5.41266 -3.125 1.5
      vertex -3.125 -5.41266 1.5
    endloop
  endfacet
  facet normal 0 0 1
    outer loop
      vertex -2.5625 3.25 1.5
      vertex -6.25 0 1.5
      vertex -5.41266 -3.125 1.5
    endloop
  endfacet
  facet normal 0 0 1
    outer loop
      vertex 2.5625 3.25 1.5
      vertex 6.25 0 1.5
      vertex 5.41266 3.125 1.5
    endloop
  endfacet
  facet normal -0 0 1
    outer loop
      vertex 2.5625 3.25 1.5
      vertex 5.41266 3.125 1.5
      vertex 3.125 5.41266 1.5
    endloop
  endfacet
  facet normal 0 0 1
    outer loop
      vertex 2.5625 -4.25 1.5
      vertex 6.25 0 1.5
      vertex 2.5625 3.25 1.5
    endloop
  endfacet
  facet normal 0 0 1
    outer loop
      vertex 6.25 0 1.5
      vertex 2.5625 -4.25 1.5
      vertex 5.41266 -3.125 1.5
    endloop
  endfacet
  facet normal -0 0 1
    outer loop
      vertex 1 5.05 1.5
      vertex 2.5625 3.25 1.5
      vertex 3.125 5.41266 1.5
    endloop
  endfacet
  facet normal 0 0 1
    outer loop
      vertex -1.5625 3.25 1.5
      vertex 1.5625 3.25 1.5
      vertex 1 5.05 1.5
    endloop
  endfacet
  facet normal 0 0 1
    outer loop
      vertex 2.5625 3.25 1.5
      vertex 1 5.05 1.5
      vertex 1.5625 3.25 1.5
    endloop
  endfacet
  facet normal 0 0 1
    outer loop
      vertex 0 6.25 1.5
      vertex 1 5.05 1.5
      vertex 3.125 5.41266 1.5
    endloop
  endfacet
  facet normal 0 0 1
    outer loop
      vertex 0 6.25 1.5
      vertex 0 6.05 1.5
      vertex 1 5.05 1.5
    endloop
  endfacet
  facet normal 0 0 1
    outer loop
      vertex 0 6.25 1.5
      vertex -1 5.05 1.5
      vertex 0 6.05 1.5
    endloop
  endfacet
  facet normal 0 0 1
    outer loop
      vertex -1 5.05 1.5
      vertex -2.5625 3.25 1.5
      vertex -1.5625 3.25 1.5
    endloop
  endfacet
  facet normal -0 0 1
    outer loop
      vertex -3.125 5.41266 1.5
      vertex -1 5.05 1.5
      vertex 0 6.25 1.5
    endloop
  endfacet
  facet normal 0 0 1
    outer loop
      vertex -5.41266 3.125 1.5
      vertex -2.5625 3.25 1.5
      vertex -3.125 5.41266 1.5
    endloop
  endfacet
  facet normal 0 0 1
    outer loop
      vertex -1 5.05 1.5
      vertex -3.125 5.41266 1.5
      vertex -2.5625 3.25 1.5
    endloop
  endfacet
  facet normal 0 0 1
    outer loop
      vertex 5.41266 -3.125 1.5
      vertex 2.5625 -4.25 1.5
      vertex 3.125 -5.41266 1.5
    endloop
  endfacet
  facet normal -0 0 1
    outer loop
      vertex 1.5625 -4.25 1.5
      vertex 3.125 -5.41266 1.5
      vertex 2.5625 -4.25 1.5
    endloop
  endfacet
  facet normal 0 0 1
    outer loop
      vertex 3.125 -5.41266 1.5
      vertex 1.5625 -4.25 1.5
      vertex 0 -6.25 1.5
    endloop
  endfacet
  facet normal 0 0 1
    outer loop
      vertex -1.5625 3.25 1.5
      vertex 1 5.05 1.5
      vertex -1 5.05 1.5
    endloop
  endfacet
  facet normal 0 0 1
    outer loop
      vertex 1.5625 3.25 1.5
      vertex -1.5625 3.25 1.5
      vertex 1.5625 2 1.5
    endloop
  endfacet
  facet normal 0 0 1
    outer loop
      vertex 1.5625 2 1.5
      vertex -1.5625 3.25 1.5
      vertex -1.5625 2 1.5
    endloop
  endfacet
  facet normal -0.707107 -0.707107 0
    outer loop
      vertex -3.125 -5.41266 -1.5
      vertex -5.41266 -3.125 1.5
      vertex -5.41266 -3.125 -1.5
    endloop
  endfacet
  facet normal -0.707107 -0.707107 0
    outer loop
      vertex -5.41266 -3.125 1.5
      vertex -3.125 -5.41266 -1.5
      vertex -3.125 -5.41266 1.5
    endloop
  endfacet
  facet normal -0.258819 -0.965926 0
    outer loop
      vertex -3.125 -5.41266 -1.5
      vertex 0 -6.25 1.5
      vertex -3.125 -5.41266 1.5
    endloop
  endfacet
  facet normal -0.258819 -0.965926 -0
    outer loop
      vertex 0 -6.25 1.5
      vertex -3.125 -5.41266 -1.5
      vertex 0 -6.25 -1.5
    endloop
  endfacet
  facet normal 1 -0 0
    outer loop
      vertex 1.5625 -2 10.5
      vertex 1.5625 -0.5 1.8
      vertex 1.5625 -0.5 10.5
    endloop
  endfacet
  facet normal 1 0 0
    outer loop
      vertex 1.5625 -0.5 1.8
      vertex 1.5625 -2 10.5
      vertex 1.5625 -2 1.8
    endloop
  endfacet
  facet normal 1 0 0
    outer loop
      vertex 1.5625 -2 1.5
      vertex 1.5625 -0.5 1.8
      vertex 1.5625 -2 1.8
    endloop
  endfacet
  facet normal 1 0 0
    outer loop
      vertex 1.5625 -0.5 1.8
      vertex 1.5625 -2 1.5
      vertex 1.5625 -0.5 -1.5
    endloop
  endfacet
  facet normal 1 0 0
    outer loop
      vertex 1.5625 -4.25 -1.5
      vertex 1.5625 -2 1.5
      vertex 1.5625 -4.25 1.5
    endloop
  endfacet
  facet normal 1 0 0
    outer loop
      vertex 1.5625 -2 1.5
      vertex 1.5625 -4.25 -1.5
      vertex 1.5625 -0.5 -1.5
    endloop
  endfacet
  facet normal 1 -0 0
    outer loop
      vertex 1.5625 0.5 10.5
      vertex 1.5625 2 1.8
      vertex 1.5625 2 10.5
    endloop
  endfacet
  facet normal 1 0 0
    outer loop
      vertex 1.5625 2 1.8
      vertex 1.5625 0.5 10.5
      vertex 1.5625 0.5 1.8
    endloop
  endfacet
  facet normal 1 0 0
    outer loop
      vertex 1.5625 2 1.8
      vertex 1.5625 0.5 1.8
      vertex 1.5625 2 1.5
    endloop
  endfacet
  facet normal 1 -0 0
    outer loop
      vertex 1.5625 2 1.5
      vertex 1.5625 3.25 -1.5
      vertex 1.5625 3.25 1.5
    endloop
  endfacet
  facet normal 1 0 0
    outer loop
      vertex 1.5625 0.5 -1.5
      vertex 1.5625 2 1.5
      vertex 1.5625 0.5 1.8
    endloop
  endfacet
  facet normal 1 0 0
    outer loop
      vertex 1.5625 2 1.5
      vertex 1.5625 0.5 -1.5
      vertex 1.5625 3.25 -1.5
    endloop
  endfacet
  facet normal -0 0 1
    outer loop
      vertex -1.5625 2 10.5
      vertex 1.5625 0.5 10.5
      vertex 1.5625 2 10.5
    endloop
  endfacet
  facet normal 0 0 1
    outer loop
      vertex 1.5625 0.5 10.5
      vertex -1.5625 2 10.5
      vertex -1.5625 0.5 10.5
    endloop
  endfacet
  facet normal -1 0 0
    outer loop
      vertex -1.5625 -2 1.8
      vertex -1.5625 -0.5 10.5
      vertex -1.5625 -0.5 1.8
    endloop
  endfacet
  facet normal -1 -0 0
    outer loop
      vertex -1.5625 -0.5 10.5
      vertex -1.5625 -2 1.8
      vertex -1.5625 -2 10.5
    endloop
  endfacet
  facet normal -1 0 0
    outer loop
      vertex -1.5625 -0.5 -1.5
      vertex -1.5625 -2 1.5
      vertex -1.5625 -0.5 1.8
    endloop
  endfacet
  facet normal -1 0 0
    outer loop
      vertex -1.5625 -4.25 -1.5
      vertex -1.5625 -2 1.5
      vertex -1.5625 -0.5 -1.5
    endloop
  endfacet
  facet normal -1 -0 0
    outer loop
      vertex -1.5625 -2 1.5
      vertex -1.5625 -4.25 -1.5
      vertex -1.5625 -4.25 1.5
    endloop
  endfacet
  facet normal -1 -0 0
    outer loop
      vertex -1.5625 -0.5 1.8
      vertex -1.5625 -2 1.5
      vertex -1.5625 -2 1.8
    endloop
  endfacet
  facet normal -1 0 0
    outer loop
      vertex -1.5625 0.5 1.8
      vertex -1.5625 2 10.5
      vertex -1.5625 2 1.8
    endloop
  endfacet
  facet normal -1 -0 0
    outer loop
      vertex -1.5625 2 10.5
      vertex -1.5625 0.5 1.8
      vertex -1.5625 0.5 10.5
    endloop
  endfacet
  facet normal -1 0 0
    outer loop
      vertex -1.5625 3.25 -1.5
      vertex -1.5625 2 1.5
      vertex -1.5625 3.25 1.5
    endloop
  endfacet
  facet normal -1 0 0
    outer loop
      vertex -1.5625 0.5 -1.5
      vertex -1.5625 2 1.5
      vertex -1.5625 3.25 -1.5
    endloop
  endfacet
  facet normal -1 0 0
    outer loop
      vertex -1.5625 0.5 1.8
      vertex -1.5625 2 1.5
      vertex -1.5625 0.5 -1.5
    endloop
  endfacet
  facet normal -1 0 0
    outer loop
      vertex -1.5625 2 1.5
      vertex -1.5625 0.5 1.8
      vertex -1.5625 2 1.8
    endloop
  endfacet
  facet normal 0 1 -0
    outer loop
      vertex 1.5625 2 1.8
      vertex -1.5625 2 10.5
      vertex 1.5625 2 10.5
    endloop
  endfacet
  facet normal 0 1 0
    outer loop
      vertex 1.5625 2 1.8
      vertex -1.5625 2 1.8
      vertex -1.5625 2 10.5
    endloop
  endfacet
  facet normal 0 1 -0
    outer loop
      vertex 1.5625 2 1.5
      vertex -1.5625 2 1.8
      vertex 1.5625 2 1.8
    endloop
  endfacet
  facet normal 0 1 0
    outer loop
      vertex -1.5625 2 1.8
      vertex 1.5625 2 1.5
      vertex -1.5625 2 1.5
    endloop
  endfacet
  facet normal 0 -1 0
    outer loop
      vertex -1.5625 0.5 1.8
      vertex 1.5625 0.5 10.5
      vertex -1.5625 0.5 10.5
    endloop
  endfacet
  facet normal 0 -1 -0
    outer loop
      vertex 1.5625 0.5 10.5
      vertex -1.5625 0.5 1.8
      vertex 1.5625 0.5 1.8
    endloop
  endfacet
  facet normal 0 -1 0
    outer loop
      vertex -1.5625 0.5 -1.5
      vertex 1.5625 0.5 1.8
      vertex -1.5625 0.5 1.8
    endloop
  endfacet
  facet normal 0 -1 -0
    outer loop
      vertex 1.5625 0.5 1.8
      vertex -1.5625 0.5 -1.5
      vertex 1.5625 0.5 -1.5
    endloop
  endfacet
  facet normal -0 0 1
    outer loop
      vertex -1.5625 -0.5 10.5
      vertex 1.5625 -2 10.5
      vertex 1.5625 -0.5 10.5
    endloop
  endfacet
  facet normal 0 0 1
    outer loop
      vertex 1.5625 -2 10.5
      vertex -1.5625 -0.5 10.5
      vertex -1.5625 -2 10.5
    endloop
  endfacet
  facet normal 0 1 -0
    outer loop
      vertex 1.5625 -0.5 1.8
      vertex -1.5625 -0.5 10.5
      vertex 1.5625 -0.5 10.5
    endloop
  endfacet
  facet normal 0 1 0
    outer loop
      vertex -1.5625 -0.5 10.5
      vertex 1.5625 -0.5 1.8
      vertex -1.5625 -0.5 1.8
    endloop
  endfacet
  facet normal 0 1 -0
    outer loop
      vertex 1.5625 -0.5 -1.5
      vertex -1.5625 -0.5 1.8
      vertex 1.5625 -0.5 1.8
    endloop
  endfacet
  facet normal 0 1 0
    outer loop
      vertex -1.5625 -0.5 1.8
      vertex 1.5625 -0.5 -1.5
      vertex -1.5625 -0.5 -1.5
    endloop
  endfacet
  facet normal 0 -1 0
    outer loop
      vertex -1.5625 -2 1.8
      vertex 1.5625 -2 10.5
      vertex -1.5625 -2 10.5
    endloop
  endfacet
  facet normal 0 -1 0
    outer loop
      vertex -1.5625 -2 1.8
      vertex 1.5625 -2 1.8
      vertex 1.5625 -2 10.5
    endloop
  endfacet
  facet normal 0 -1 0
    outer loop
      vertex -1.5625 -2 1.5
      vertex 1.5625 -2 1.8
      vertex -1.5625 -2 1.8
    endloop
  endfacet
  facet normal 0 -1 -0
    outer loop
      vertex 1.5625 -2 1.8
      vertex -1.5625 -2 1.5
      vertex 1.5625 -2 1.5
    endloop
  endfacet
  facet normal 1 -0 0
    outer loop
      vertex -2.5625 -4.25 1.5
      vertex -2.5625 3.25 -1.5
      vertex -2.5625 3.25 1.5
    endloop
  endfacet
  facet normal 1 0 0
    outer loop
      vertex -2.5625 3.25 -1.5
      vertex -2.5625 -4.25 1.5
      vertex -2.5625 -4.25 -1.5
    endloop
  endfacet
  facet normal 0 -1 0
    outer loop
      vertex -2.5625 3.25 -1.5
      vertex -1.5625 3.25 1.5
      vertex -2.5625 3.25 1.5
    endloop
  endfacet
  facet normal 0 -1 -0
    outer loop
      vertex -1.5625 3.25 1.5
      vertex -2.5625 3.25 -1.5
      vertex -1.5625 3.25 -1.5
    endloop
  endfacet
  facet normal 0 1 -0
    outer loop
      vertex -1.5625 -4.25 -1.5
      vertex -2.5625 -4.25 1.5
      vertex -1.5625 -4.25 1.5
    endloop
  endfacet
  facet normal 0 1 0
    outer loop
      vertex -2.5625 -4.25 1.5
      vertex -1.5625 -4.25 -1.5
      vertex -2.5625 -4.25 -1.5
    endloop
  endfacet
  facet normal -1 0 0
    outer loop
      vertex 2.5625 -4.25 -1.5
      vertex 2.5625 3.25 1.5
      vertex 2.5625 3.25 -1.5
    endloop
  endfacet
  facet normal -1 -0 0
    outer loop
      vertex 2.5625 3.25 1.5
      vertex 2.5625 -4.25 -1.5
      vertex 2.5625 -4.25 1.5
    endloop
  endfacet
  facet normal 0 -1 0
    outer loop
      vertex 1.5625 3.25 -1.5
      vertex 2.5625 3.25 1.5
      vertex 1.5625 3.25 1.5
    endloop
  endfacet
  facet normal 0 -1 -0
    outer loop
      vertex 2.5625 3.25 1.5
      vertex 1.5625 3.25 -1.5
      vertex 2.5625 3.25 -1.5
    endloop
  endfacet
  facet normal 0 1 -0
    outer loop
      vertex 2.5625 -4.25 -1.5
      vertex 1.5625 -4.25 1.5
      vertex 2.5625 -4.25 1.5
    endloop
  endfacet
  facet normal 0 1 0
    outer loop
      vertex 1.5625 -4.25 1.5
      vertex 2.5625 -4.25 -1.5
      vertex 1.5625 -4.25 -1.5
    endloop
  endfacet
  facet normal 0 1 -0
    outer loop
      vertex 1 5.05 -1.5
      vertex -1 5.05 1.5
      vertex 1 5.05 1.5
    endloop
  endfacet
  facet normal 0 1 0
    outer loop
      vertex -1 5.05 1.5
      vertex 1 5.05 -1.5
      vertex -1 5.05 -1.5
    endloop
  endfacet
  facet normal -0.707107 -0.707107 0
    outer loop
      vertex 1 5.05 -1.5
      vertex 0 6.05 1.5
      vertex 0 6.05 -1.5
    endloop
  endfacet
  facet normal -0.707107 -0.707107 0
    outer loop
      vertex 0 6.05 1.5
      vertex 1 5.05 -1.5
      vertex 1 5.05 1.5
    endloop
  endfacet
  facet normal 0.707107 -0.707107 0
    outer loop
      vertex -1 5.05 1.5
      vertex 0 6.05 -1.5
      vertex 0 6.05 1.5
    endloop
  endfacet
  facet normal 0.707107 -0.707107 0
    outer loop
      vertex 0 6.05 -1.5
      vertex -1 5.05 1.5
      vertex -1 5.05 -1.5
    endloop
  endfacet
endsolid OpenSCAD_Model
