solid OpenSCAD_Model
  facet normal -0.965925 -0.258822 0
    outer loop
      vertex -10.8253 -6.25 -1.5
      vertex -12.5 0 1.5
      vertex -12.5 0 -1.5
    endloop
  endfacet
  facet normal -0.965925 -0.258822 0
    outer loop
      vertex -12.5 0 1.5
      vertex -10.8253 -6.25 -1.5
      vertex -10.8253 -6.25 1.5
    endloop
  endfacet
  facet normal 0.707107 0.707107 0
    outer loop
      vertex 10.8253 6.25 1.5
      vertex 6.25 10.8253 -1.5
      vertex 6.25 10.8253 1.5
    endloop
  endfacet
  facet normal 0.707107 0.707107 0
    outer loop
      vertex 6.25 10.8253 -1.5
      vertex 10.8253 6.25 1.5
      vertex 10.8253 6.25 -1.5
    endloop
  endfacet
  facet normal 0.965925 0.258822 0
    outer loop
      vertex 12.5 0 1.5
      vertex 10.8253 6.25 -1.5
      vertex 10.8253 6.25 1.5
    endloop
  endfacet
  facet normal 0.965925 0.258822 0
    outer loop
      vertex 10.8253 6.25 -1.5
      vertex 12.5 0 1.5
      vertex 12.5 0 -1.5
    endloop
  endfacet
  facet normal 0.258822 0.965925 -0
    outer loop
      vertex 6.25 10.8253 -1.5
      vertex 0 12.5 1.5
      vertex 6.25 10.8253 1.5
    endloop
  endfacet
  facet normal 0.258822 0.965925 0
    outer loop
      vertex 0 12.5 1.5
      vertex 6.25 10.8253 -1.5
      vertex 0 12.5 -1.5
    endloop
  endfacet
  facet normal 0.258822 -0.965925 0
    outer loop
      vertex 0 -12.5 -1.5
      vertex 6.25 -10.8253 1.5
      vertex 0 -12.5 1.5
    endloop
  endfacet
  facet normal 0.258822 -0.965925 0
    outer loop
      vertex 6.25 -10.8253 1.5
      vertex 0 -12.5 -1.5
      vertex 6.25 -10.8253 -1.5
    endloop
  endfacet
  facet normal 0.965925 -0.258822 0
    outer loop
      vertex 10.8253 -6.25 1.5
      vertex 12.5 0 -1.5
      vertex 12.5 0 1.5
    endloop
  endfacet
  facet normal 0.965925 -0.258822 0
    outer loop
      vertex 12.5 0 -1.5
      vertex 10.8253 -6.25 1.5
      vertex 10.8253 -6.25 -1.5
    endloop
  endfacet
  facet normal -0.707107 0.707107 0
    outer loop
      vertex -10.8253 6.25 -1.5
      vertex -6.25 10.8253 1.5
      vertex -6.25 10.8253 -1.5
    endloop
  endfacet
  facet normal -0.707107 0.707107 0
    outer loop
      vertex -6.25 10.8253 1.5
      vertex -10.8253 6.25 -1.5
      vertex -10.8253 6.25 1.5
    endloop
  endfacet
  facet normal -0.258822 0.965925 0
    outer loop
      vertex 0 12.5 -1.5
      vertex -6.25 10.8253 1.5
      vertex 0 12.5 1.5
    endloop
  endfacet
  facet normal -0.258822 0.965925 0
    outer loop
      vertex -6.25 10.8253 1.5
      vertex 0 12.5 -1.5
      vertex -6.25 10.8253 -1.5
    endloop
  endfacet
  facet normal -0.965925 0.258822 0
    outer loop
      vertex -12.5 0 -1.5
      vertex -10.8253 6.25 1.5
      vertex -10.8253 6.25 -1.5
    endloop
  endfacet
  facet normal -0.965925 0.258822 0
    outer loop
      vertex -10.8253 6.25 1.5
      vertex -12.5 0 -1.5
      vertex -12.5 0 1.5
    endloop
  endfacet
  facet normal 0.707107 -0.707107 0
    outer loop
      vertex 6.25 -10.8253 1.5
      vertex 10.8253 -6.25 -1.5
      vertex 10.8253 -6.25 1.5
    endloop
  endfacet
  facet normal 0.707107 -0.707107 0
    outer loop
      vertex 10.8253 -6.25 -1.5
      vertex 6.25 -10.8253 1.5
      vertex 6.25 -10.8253 -1.5
    endloop
  endfacet
  facet normal 0 0 1
    outer loop
      vertex -3.125 -9.25 1.5
      vertex 3.125 -9.25 1.5
      vertex 3.125 -2 1.5
    endloop
  endfacet
  facet normal 0 0 1
    outer loop
      vertex -3.125 -9.25 1.5
      vertex 3.125 -2 1.5
      vertex -3.125 -2 1.5
    endloop
  endfacet
  facet normal 0 0 1
    outer loop
      vertex 3.125 -9.25 1.5
      vertex -3.125 -9.25 1.5
      vertex 0 -12.5 1.5
    endloop
  endfacet
  facet normal 0 0 1
    outer loop
      vertex -6.25 -10.8253 1.5
      vertex -3.125 -9.25 1.5
      vertex -4.125 -9.25 1.5
    endloop
  endfacet
  facet normal 0 0 1
    outer loop
      vertex -3.125 -9.25 1.5
      vertex -6.25 -10.8253 1.5
      vertex 0 -12.5 1.5
    endloop
  endfacet
  facet normal 0 0 1
    outer loop
      vertex -4.125 5.75 1.5
      vertex -6.25 -10.8253 1.5
      vertex -4.125 -9.25 1.5
    endloop
  endfacet
  facet normal 0 0 1
    outer loop
      vertex -12.5 0 1.5
      vertex -4.125 5.75 1.5
      vertex -10.8253 6.25 1.5
    endloop
  endfacet
  facet normal 0 0 1
    outer loop
      vertex -4.125 5.75 1.5
      vertex -10.8253 -6.25 1.5
      vertex -6.25 -10.8253 1.5
    endloop
  endfacet
  facet normal 0 0 1
    outer loop
      vertex -4.125 5.75 1.5
      vertex -12.5 0 1.5
      vertex -10.8253 -6.25 1.5
    endloop
  endfacet
  facet normal -0 0 1
    outer loop
      vertex 4.125 5.75 1.5
      vertex 12.5 0 1.5
      vertex 10.8253 6.25 1.5
    endloop
  endfacet
  facet normal 0 0 1
    outer loop
      vertex 4.125 5.75 1.5
      vertex 10.8253 6.25 1.5
      vertex 6.25 10.8253 1.5
    endloop
  endfacet
  facet normal 0 0 1
    outer loop
      vertex 12.5 0 1.5
      vertex 4.125 5.75 1.5
      vertex 10.8253 -6.25 1.5
    endloop
  endfacet
  facet normal 0 0 1
    outer loop
      vertex 4.125 -9.25 1.5
      vertex 10.8253 -6.25 1.5
      vertex 4.125 5.75 1.5
    endloop
  endfacet
  facet normal 0 0 1
    outer loop
      vertex 6.25 10.8253 1.5
      vertex 3.5 8.3 1.5
      vertex 4.125 5.75 1.5
    endloop
  endfacet
  facet normal -0 0 1
    outer loop
      vertex 0 11.8 1.5
      vertex 6.25 10.8253 1.5
      vertex 0 12.5 1.5
    endloop
  endfacet
  facet normal 0 0 1
    outer loop
      vertex 6.25 10.8253 1.5
      vertex 0 11.8 1.5
      vertex 3.5 8.3 1.5
    endloop
  endfacet
  facet normal 0 0 1
    outer loop
      vertex -6.25 10.8253 1.5
      vertex 0 11.8 1.5
      vertex 0 12.5 1.5
    endloop
  endfacet
  facet normal -0 0 1
    outer loop
      vertex -10.8253 6.25 1.5
      vertex -4.125 5.75 1.5
      vertex -6.25 10.8253 1.5
    endloop
  endfacet
  facet normal 0 0 1
    outer loop
      vertex -3.5 8.3 1.5
      vertex -6.25 10.8253 1.5
      vertex -4.125 5.75 1.5
    endloop
  endfacet
  facet normal 0 0 1
    outer loop
      vertex 0 11.8 1.5
      vertex -6.25 10.8253 1.5
      vertex -3.5 8.3 1.5
    endloop
  endfacet
  facet normal 0 0 1
    outer loop
      vertex 10.8253 -6.25 1.5
      vertex 4.125 -9.25 1.5
      vertex 6.25 -10.8253 1.5
    endloop
  endfacet
  facet normal -0 0 1
    outer loop
      vertex 3.125 -9.25 1.5
      vertex 6.25 -10.8253 1.5
      vertex 4.125 -9.25 1.5
    endloop
  endfacet
  facet normal 0 0 1
    outer loop
      vertex 6.25 -10.8253 1.5
      vertex 3.125 -9.25 1.5
      vertex 0 -12.5 1.5
    endloop
  endfacet
  facet normal 0 0 1
    outer loop
      vertex 3.5 8.3 1.5
      vertex 3.125 5.75 1.5
      vertex 4.125 5.75 1.5
    endloop
  endfacet
  facet normal 0 0 1
    outer loop
      vertex 3.125 5.75 1.5
      vertex -3.125 5.75 1.5
      vertex 3.125 2 1.5
    endloop
  endfacet
  facet normal 0 0 1
    outer loop
      vertex 3.5 8.3 1.5
      vertex -3.125 5.75 1.5
      vertex 3.125 5.75 1.5
    endloop
  endfacet
  facet normal -0 0 1
    outer loop
      vertex -3.5 8.3 1.5
      vertex -3.125 5.75 1.5
      vertex 3.5 8.3 1.5
    endloop
  endfacet
  facet normal 0 0 1
    outer loop
      vertex -3.125 5.75 1.5
      vertex -3.5 8.3 1.5
      vertex -4.125 5.75 1.5
    endloop
  endfacet
  facet normal 0 0 1
    outer loop
      vertex 3.125 2 1.5
      vertex -3.125 5.75 1.5
      vertex -3.125 2 1.5
    endloop
  endfacet
  facet normal 0 0 -1
    outer loop
      vertex 3.125 0.5 -1.5
      vertex -3.125 0.5 -1.5
      vertex 3.125 5.75 -1.5
    endloop
  endfacet
  facet normal 0 0 -1
    outer loop
      vertex 3.125 5.75 -1.5
      vertex 3.5 8.3 -1.5
      vertex 4.125 5.75 -1.5
    endloop
  endfacet
  facet normal 0 0 -1
    outer loop
      vertex -3.125 5.75 -1.5
      vertex 3.125 5.75 -1.5
      vertex -3.125 0.5 -1.5
    endloop
  endfacet
  facet normal 0 0 -1
    outer loop
      vertex 3.125 5.75 -1.5
      vertex -3.125 5.75 -1.5
      vertex 3.5 8.3 -1.5
    endloop
  endfacet
  facet normal 0 0 -1
    outer loop
      vertex -3.125 5.75 -1.5
      vertex -3.5 8.3 -1.5
      vertex 3.5 8.3 -1.5
    endloop
  endfacet
  facet normal 0 -0 -1
    outer loop
      vertex -3.5 8.3 -1.5
      vertex -3.125 5.75 -1.5
      vertex -4.125 5.75 -1.5
    endloop
  endfacet
  facet normal 0 0 -1
    outer loop
      vertex 4.125 5.75 -1.5
      vertex 12.5 0 -1.5
      vertex 10.8253 -6.25 -1.5
    endloop
  endfacet
  facet normal 0 0 -1
    outer loop
      vertex 4.125 -9.25 -1.5
      vertex 10.8253 -6.25 -1.5
      vertex 6.25 -10.8253 -1.5
    endloop
  endfacet
  facet normal 0 0 -1
    outer loop
      vertex 4.125 5.75 -1.5
      vertex 10.8253 -6.25 -1.5
      vertex 4.125 -9.25 -1.5
    endloop
  endfacet
  facet normal 0 0 -1
    outer loop
      vertex 12.5 0 -1.5
      vertex 4.125 5.75 -1.5
      vertex 10.8253 6.25 -1.5
    endloop
  endfacet
  facet normal 0 0 -1
    outer loop
      vertex 6.25 -10.8253 -1.5
      vertex 3.125 -9.25 -1.5
      vertex 4.125 -9.25 -1.5
    endloop
  endfacet
  facet normal 0 0 -1
    outer loop
      vertex 0 -12.5 -1.5
      vertex 3.125 -9.25 -1.5
      vertex 6.25 -10.8253 -1.5
    endloop
  endfacet
  facet normal 0 0 -1
    outer loop
      vertex -3.125 -9.25 -1.5
      vertex 3.125 -9.25 -1.5
      vertex 0 -12.5 -1.5
    endloop
  endfacet
  facet normal 0 0 -1
    outer loop
      vertex 3.125 -9.25 -1.5
      vertex -3.125 -9.25 -1.5
      vertex 3.125 -0.5 -1.5
    endloop
  endfacet
  facet normal -0 0 -1
    outer loop
      vertex 3.125 -0.5 -1.5
      vertex -3.125 -9.25 -1.5
      vertex -3.125 -0.5 -1.5
    endloop
  endfacet
  facet normal -0 0 -1
    outer loop
      vertex 10.8253 6.25 -1.5
      vertex 4.125 5.75 -1.5
      vertex 6.25 10.8253 -1.5
    endloop
  endfacet
  facet normal 0 0 -1
    outer loop
      vertex 3.5 8.3 -1.5
      vertex 6.25 10.8253 -1.5
      vertex 4.125 5.75 -1.5
    endloop
  endfacet
  facet normal 0 0 -1
    outer loop
      vertex 0 11.8 -1.5
      vertex 6.25 10.8253 -1.5
      vertex 3.5 8.3 -1.5
    endloop
  endfacet
  facet normal 0 0 -1
    outer loop
      vertex 0 11.8 -1.5
      vertex 0 12.5 -1.5
      vertex 6.25 10.8253 -1.5
    endloop
  endfacet
  facet normal 0 0 -1
    outer loop
      vertex -6.25 10.8253 -1.5
      vertex 0 11.8 -1.5
      vertex -3.5 8.3 -1.5
    endloop
  endfacet
  facet normal -0 0 -1
    outer loop
      vertex 0 11.8 -1.5
      vertex -6.25 10.8253 -1.5
      vertex 0 12.5 -1.5
    endloop
  endfacet
  facet normal 0 0 -1
    outer loop
      vertex -4.125 5.75 -1.5
      vertex -6.25 10.8253 -1.5
      vertex -3.5 8.3 -1.5
    endloop
  endfacet
  facet normal 0 0 -1
    outer loop
      vertex -4.125 -9.25 -1.5
      vertex -10.8253 -6.25 -1.5
      vertex -4.125 5.75 -1.5
    endloop
  endfacet
  facet normal 0 0 -1
    outer loop
      vertex -12.5 0 -1.5
      vertex -4.125 5.75 -1.5
      vertex -10.8253 -6.25 -1.5
    endloop
  endfacet
  facet normal 0 0 -1
    outer loop
      vertex -4.125 5.75 -1.5
      vertex -10.8253 6.25 -1.5
      vertex -6.25 10.8253 -1.5
    endloop
  endfacet
  facet normal -0 0 -1
    outer loop
      vertex -4.125 5.75 -1.5
      vertex -12.5 0 -1.5
      vertex -10.8253 6.25 -1.5
    endloop
  endfacet
  facet normal 0 0 -1
    outer loop
      vertex -6.25 -10.8253 -1.5
      vertex -3.125 -9.25 -1.5
      vertex 0 -12.5 -1.5
    endloop
  endfacet
  facet normal 0 0 -1
    outer loop
      vertex -10.8253 -6.25 -1.5
      vertex -4.125 -9.25 -1.5
      vertex -6.25 -10.8253 -1.5
    endloop
  endfacet
  facet normal -0 0 -1
    outer loop
      vertex -3.125 -9.25 -1.5
      vertex -6.25 -10.8253 -1.5
      vertex -4.125 -9.25 -1.5
    endloop
  endfacet
  facet normal -0.707107 -0.707107 0
    outer loop
      vertex -6.25 -10.8253 -1.5
      vertex -10.8253 -6.25 1.5
      vertex -10.8253 -6.25 -1.5
    endloop
  endfacet
  facet normal -0.707107 -0.707107 0
    outer loop
      vertex -10.8253 -6.25 1.5
      vertex -6.25 -10.8253 -1.5
      vertex -6.25 -10.8253 1.5
    endloop
  endfacet
  facet normal -0.258822 -0.965925 0
    outer loop
      vertex -6.25 -10.8253 -1.5
      vertex 0 -12.5 1.5
      vertex -6.25 -10.8253 1.5
    endloop
  endfacet
  facet normal -0.258822 -0.965925 -0
    outer loop
      vertex 0 -12.5 1.5
      vertex -6.25 -10.8253 -1.5
      vertex 0 -12.5 -1.5
    endloop
  endfacet
  facet normal 1 -0 0
    outer loop
      vertex 3.125 -2 10.5
      vertex 3.125 -0.5 1.8
      vertex 3.125 -0.5 10.5
    endloop
  endfacet
  facet normal 1 0 0
    outer loop
      vertex 3.125 -0.5 1.8
      vertex 3.125 -2 10.5
      vertex 3.125 -2 1.8
    endloop
  endfacet
  facet normal 1 0 0
    outer loop
      vertex 3.125 -2 1.5
      vertex 3.125 -0.5 1.8
      vertex 3.125 -2 1.8
    endloop
  endfacet
  facet normal 1 0 0
    outer loop
      vertex 3.125 -0.5 1.8
      vertex 3.125 -2 1.5
      vertex 3.125 -0.5 -1.5
    endloop
  endfacet
  facet normal 1 0 0
    outer loop
      vertex 3.125 -9.25 -1.5
      vertex 3.125 -2 1.5
      vertex 3.125 -9.25 1.5
    endloop
  endfacet
  facet normal 1 0 0
    outer loop
      vertex 3.125 -2 1.5
      vertex 3.125 -9.25 -1.5
      vertex 3.125 -0.5 -1.5
    endloop
  endfacet
  facet normal 1 -0 0
    outer loop
      vertex 3.125 0.5 10.5
      vertex 3.125 2 1.8
      vertex 3.125 2 10.5
    endloop
  endfacet
  facet normal 1 0 0
    outer loop
      vertex 3.125 2 1.8
      vertex 3.125 0.5 10.5
      vertex 3.125 0.5 1.8
    endloop
  endfacet
  facet normal 1 0 0
    outer loop
      vertex 3.125 2 1.8
      vertex 3.125 0.5 1.8
      vertex 3.125 2 1.5
    endloop
  endfacet
  facet normal 1 -0 0
    outer loop
      vertex 3.125 2 1.5
      vertex 3.125 5.75 -1.5
      vertex 3.125 5.75 1.5
    endloop
  endfacet
  facet normal 1 0 0
    outer loop
      vertex 3.125 0.5 -1.5
      vertex 3.125 2 1.5
      vertex 3.125 0.5 1.8
    endloop
  endfacet
  facet normal 1 0 0
    outer loop
      vertex 3.125 2 1.5
      vertex 3.125 0.5 -1.5
      vertex 3.125 5.75 -1.5
    endloop
  endfacet
  facet normal -0 0 1
    outer loop
      vertex -3.125 2 10.5
      vertex 3.125 0.5 10.5
      vertex 3.125 2 10.5
    endloop
  endfacet
  facet normal 0 0 1
    outer loop
      vertex 3.125 0.5 10.5
      vertex -3.125 2 10.5
      vertex -3.125 0.5 10.5
    endloop
  endfacet
  facet normal -1 0 0
    outer loop
      vertex -3.125 -2 1.8
      vertex -3.125 -0.5 10.5
      vertex -3.125 -0.5 1.8
    endloop
  endfacet
  facet normal -1 -0 0
    outer loop
      vertex -3.125 -0.5 10.5
      vertex -3.125 -2 1.8
      vertex -3.125 -2 10.5
    endloop
  endfacet
  facet normal -1 0 0
    outer loop
      vertex -3.125 -0.5 -1.5
      vertex -3.125 -2 1.5
      vertex -3.125 -0.5 1.8
    endloop
  endfacet
  facet normal -1 0 0
    outer loop
      vertex -3.125 -9.25 -1.5
      vertex -3.125 -2 1.5
      vertex -3.125 -0.5 -1.5
    endloop
  endfacet
  facet normal -1 -0 0
    outer loop
      vertex -3.125 -2 1.5
      vertex -3.125 -9.25 -1.5
      vertex -3.125 -9.25 1.5
    endloop
  endfacet
  facet normal -1 -0 0
    outer loop
      vertex -3.125 -0.5 1.8
      vertex -3.125 -2 1.5
      vertex -3.125 -2 1.8
    endloop
  endfacet
  facet normal -1 0 0
    outer loop
      vertex -3.125 0.5 1.8
      vertex -3.125 2 10.5
      vertex -3.125 2 1.8
    endloop
  endfacet
  facet normal -1 -0 0
    outer loop
      vertex -3.125 2 10.5
      vertex -3.125 0.5 1.8
      vertex -3.125 0.5 10.5
    endloop
  endfacet
  facet normal -1 0 0
    outer loop
      vertex -3.125 5.75 -1.5
      vertex -3.125 2 1.5
      vertex -3.125 5.75 1.5
    endloop
  endfacet
  facet normal -1 0 0
    outer loop
      vertex -3.125 0.5 -1.5
      vertex -3.125 2 1.5
      vertex -3.125 5.75 -1.5
    endloop
  endfacet
  facet normal -1 0 0
    outer loop
      vertex -3.125 0.5 1.8
      vertex -3.125 2 1.5
      vertex -3.125 0.5 -1.5
    endloop
  endfacet
  facet normal -1 0 0
    outer loop
      vertex -3.125 2 1.5
      vertex -3.125 0.5 1.8
      vertex -3.125 2 1.8
    endloop
  endfacet
  facet normal 0 1 -0
    outer loop
      vertex 3.125 2 1.8
      vertex -3.125 2 10.5
      vertex 3.125 2 10.5
    endloop
  endfacet
  facet normal 0 1 0
    outer loop
      vertex 3.125 2 1.8
      vertex -3.125 2 1.8
      vertex -3.125 2 10.5
    endloop
  endfacet
  facet normal 0 1 -0
    outer loop
      vertex 3.125 2 1.5
      vertex -3.125 2 1.8
      vertex 3.125 2 1.8
    endloop
  endfacet
  facet normal 0 1 0
    outer loop
      vertex -3.125 2 1.8
      vertex 3.125 2 1.5
      vertex -3.125 2 1.5
    endloop
  endfacet
  facet normal 0 -1 0
    outer loop
      vertex -3.125 0.5 1.8
      vertex 3.125 0.5 10.5
      vertex -3.125 0.5 10.5
    endloop
  endfacet
  facet normal 0 -1 -0
    outer loop
      vertex 3.125 0.5 10.5
      vertex -3.125 0.5 1.8
      vertex 3.125 0.5 1.8
    endloop
  endfacet
  facet normal 0 -1 0
    outer loop
      vertex -3.125 0.5 -1.5
      vertex 3.125 0.5 1.8
      vertex -3.125 0.5 1.8
    endloop
  endfacet
  facet normal 0 -1 -0
    outer loop
      vertex 3.125 0.5 1.8
      vertex -3.125 0.5 -1.5
      vertex 3.125 0.5 -1.5
    endloop
  endfacet
  facet normal -0 0 1
    outer loop
      vertex -3.125 -0.5 10.5
      vertex 3.125 -2 10.5
      vertex 3.125 -0.5 10.5
    endloop
  endfacet
  facet normal 0 0 1
    outer loop
      vertex 3.125 -2 10.5
      vertex -3.125 -0.5 10.5
      vertex -3.125 -2 10.5
    endloop
  endfacet
  facet normal 0 1 -0
    outer loop
      vertex 3.125 -0.5 1.8
      vertex -3.125 -0.5 10.5
      vertex 3.125 -0.5 10.5
    endloop
  endfacet
  facet normal 0 1 0
    outer loop
      vertex -3.125 -0.5 10.5
      vertex 3.125 -0.5 1.8
      vertex -3.125 -0.5 1.8
    endloop
  endfacet
  facet normal 0 1 -0
    outer loop
      vertex 3.125 -0.5 -1.5
      vertex -3.125 -0.5 1.8
      vertex 3.125 -0.5 1.8
    endloop
  endfacet
  facet normal 0 1 0
    outer loop
      vertex -3.125 -0.5 1.8
      vertex 3.125 -0.5 -1.5
      vertex -3.125 -0.5 -1.5
    endloop
  endfacet
  facet normal 0 -1 0
    outer loop
      vertex -3.125 -2 1.8
      vertex 3.125 -2 10.5
      vertex -3.125 -2 10.5
    endloop
  endfacet
  facet normal 0 -1 0
    outer loop
      vertex -3.125 -2 1.8
      vertex 3.125 -2 1.8
      vertex 3.125 -2 10.5
    endloop
  endfacet
  facet normal 0 -1 0
    outer loop
      vertex -3.125 -2 1.5
      vertex 3.125 -2 1.8
      vertex -3.125 -2 1.8
    endloop
  endfacet
  facet normal 0 -1 -0
    outer loop
      vertex 3.125 -2 1.8
      vertex -3.125 -2 1.5
      vertex 3.125 -2 1.5
    endloop
  endfacet
  facet normal 1 -0 0
    outer loop
      vertex -4.125 -9.25 1.5
      vertex -4.125 5.75 -1.5
      vertex -4.125 5.75 1.5
    endloop
  endfacet
  facet normal 1 0 0
    outer loop
      vertex -4.125 5.75 -1.5
      vertex -4.125 -9.25 1.5
      vertex -4.125 -9.25 -1.5
    endloop
  endfacet
  facet normal 0 -1 0
    outer loop
      vertex -4.125 5.75 -1.5
      vertex -3.125 5.75 1.5
      vertex -4.125 5.75 1.5
    endloop
  endfacet
  facet normal 0 -1 -0
    outer loop
      vertex -3.125 5.75 1.5
      vertex -4.125 5.75 -1.5
      vertex -3.125 5.75 -1.5
    endloop
  endfacet
  facet normal 0 1 -0
    outer loop
      vertex -3.125 -9.25 -1.5
      vertex -4.125 -9.25 1.5
      vertex -3.125 -9.25 1.5
    endloop
  endfacet
  facet normal 0 1 0
    outer loop
      vertex -4.125 -9.25 1.5
      vertex -3.125 -9.25 -1.5
      vertex -4.125 -9.25 -1.5
    endloop
  endfacet
  facet normal -1 0 0
    outer loop
      vertex 4.125 -9.25 -1.5
      vertex 4.125 5.75 1.5
      vertex 4.125 5.75 -1.5
    endloop
  endfacet
  facet normal -1 -0 0
    outer loop
      vertex 4.125 5.75 1.5
      vertex 4.125 -9.25 -1.5
      vertex 4.125 -9.25 1.5
    endloop
  endfacet
  facet normal 0 -1 0
    outer loop
      vertex 3.125 5.75 -1.5
      vertex 4.125 5.75 1.5
      vertex 3.125 5.75 1.5
    endloop
  endfacet
  facet normal 0 -1 -0
    outer loop
      vertex 4.125 5.75 1.5
      vertex 3.125 5.75 -1.5
      vertex 4.125 5.75 -1.5
    endloop
  endfacet
  facet normal 0 1 -0
    outer loop
      vertex 4.125 -9.25 -1.5
      vertex 3.125 -9.25 1.5
      vertex 4.125 -9.25 1.5
    endloop
  endfacet
  facet normal 0 1 0
    outer loop
      vertex 3.125 -9.25 1.5
      vertex 4.125 -9.25 -1.5
      vertex 3.125 -9.25 -1.5
    endloop
  endfacet
  facet normal 0 1 -0
    outer loop
      vertex 3.5 8.3 -1.5
      vertex -3.5 8.3 1.5
      vertex 3.5 8.3 1.5
    endloop
  endfacet
  facet normal 0 1 0
    outer loop
      vertex -3.5 8.3 1.5
      vertex 3.5 8.3 -1.5
      vertex -3.5 8.3 -1.5
    endloop
  endfacet
  facet normal -0.707107 -0.707107 0
    outer loop
      vertex 3.5 8.3 -1.5
      vertex 0 11.8 1.5
      vertex 0 11.8 -1.5
    endloop
  endfacet
  facet normal -0.707107 -0.707107 0
    outer loop
      vertex 0 11.8 1.5
      vertex 3.5 8.3 -1.5
      vertex 3.5 8.3 1.5
    endloop
  endfacet
  facet normal 0.707107 -0.707107 0
    outer loop
      vertex -3.5 8.3 1.5
      vertex 0 11.8 -1.5
      vertex 0 11.8 1.5
    endloop
  endfacet
  facet normal 0.707107 -0.707107 0
    outer loop
      vertex 0 11.8 -1.5
      vertex -3.5 8.3 1.5
      vertex -3.5 8.3 -1.5
    endloop
  endfacet
endsolid OpenSCAD_Model
