solid OpenSCAD_Model
  facet normal -0.965925 -0.258822 0
    outer loop
      vertex -21.6506 -12.5 -1.5
      vertex -25 0 1.5
      vertex -25 0 -1.5
    endloop
  endfacet
  facet normal -0.965925 -0.258822 0
    outer loop
      vertex -25 0 1.5
      vertex -21.6506 -12.5 -1.5
      vertex -21.6506 -12.5 1.5
    endloop
  endfacet
  facet normal 0.707107 0.707107 0
    outer loop
      vertex 21.6506 12.5 1.5
      vertex 12.5 21.6506 -1.5
      vertex 12.5 21.6506 1.5
    endloop
  endfacet
  facet normal 0.707107 0.707107 0
    outer loop
      vertex 12.5 21.6506 -1.5
      vertex 21.6506 12.5 1.5
      vertex 21.6506 12.5 -1.5
    endloop
  endfacet
  facet normal 0.965925 0.258822 0
    outer loop
      vertex 25 0 1.5
      vertex 21.6506 12.5 -1.5
      vertex 21.6506 12.5 1.5
    endloop
  endfacet
  facet normal 0.965925 0.258822 0
    outer loop
      vertex 21.6506 12.5 -1.5
      vertex 25 0 1.5
      vertex 25 0 -1.5
    endloop
  endfacet
  facet normal 0.258822 0.965925 -0
    outer loop
      vertex 12.5 21.6506 -1.5
      vertex 0 25 1.5
      vertex 12.5 21.6506 1.5
    endloop
  endfacet
  facet normal 0.258822 0.965925 0
    outer loop
      vertex 0 25 1.5
      vertex 12.5 21.6506 -1.5
      vertex 0 25 -1.5
    endloop
  endfacet
  facet normal 0.258822 -0.965925 0
    outer loop
      vertex 0 -25 -1.5
      vertex 12.5 -21.6506 1.5
      vertex 0 -25 1.5
    endloop
  endfacet
  facet normal 0.258822 -0.965925 0
    outer loop
      vertex 12.5 -21.6506 1.5
      vertex 0 -25 -1.5
      vertex 12.5 -21.6506 -1.5
    endloop
  endfacet
  facet normal 0.965925 -0.258822 0
    outer loop
      vertex 21.6506 -12.5 1.5
      vertex 25 0 -1.5
      vertex 25 0 1.5
    endloop
  endfacet
  facet normal 0.965925 -0.258822 0
    outer loop
      vertex 25 0 -1.5
      vertex 21.6506 -12.5 1.5
      vertex 21.6506 -12.5 -1.5
    endloop
  endfacet
  facet normal -0.707107 0.707107 0
    outer loop
      vertex -21.6506 12.5 -1.5
      vertex -12.5 21.6506 1.5
      vertex -12.5 21.6506 -1.5
    endloop
  endfacet
  facet normal -0.707107 0.707107 0
    outer loop
      vertex -12.5 21.6506 1.5
      vertex -21.6506 12.5 -1.5
      vertex -21.6506 12.5 1.5
    endloop
  endfacet
  facet normal -0.258822 0.965925 0
    outer loop
      vertex 0 25 -1.5
      vertex -12.5 21.6506 1.5
      vertex 0 25 1.5
    endloop
  endfacet
  facet normal -0.258822 0.965925 0
    outer loop
      vertex -12.5 21.6506 1.5
      vertex 0 25 -1.5
      vertex -12.5 21.6506 -1.5
    endloop
  endfacet
  facet normal -0.965925 0.258822 0
    outer loop
      vertex -25 0 -1.5
      vertex -21.6506 12.5 1.5
      vertex -21.6506 12.5 -1.5
    endloop
  endfacet
  facet normal -0.965925 0.258822 0
    outer loop
      vertex -21.6506 12.5 1.5
      vertex -25 0 -1.5
      vertex -25 0 1.5
    endloop
  endfacet
  facet normal 0 0 -1
    outer loop
      vertex -12.5 -21.6506 -1.5
      vertex -6.25 -16.75 -1.5
      vertex 0 -25 -1.5
    endloop
  endfacet
  facet normal 0 0 -1
    outer loop
      vertex -21.6506 -12.5 -1.5
      vertex -7.25 -16.75 -1.5
      vertex -12.5 -21.6506 -1.5
    endloop
  endfacet
  facet normal -0 0 -1
    outer loop
      vertex -6.25 -16.75 -1.5
      vertex -12.5 -21.6506 -1.5
      vertex -7.25 -16.75 -1.5
    endloop
  endfacet
  facet normal 0 0 -1
    outer loop
      vertex -6.25 13.25 -1.5
      vertex 6.25 13.25 -1.5
      vertex 6.25 0.5 -1.5
    endloop
  endfacet
  facet normal 0 0 -1
    outer loop
      vertex 6.25 13.25 -1.5
      vertex -6.25 13.25 -1.5
      vertex 3.5 20.8 -1.5
    endloop
  endfacet
  facet normal 0 0 -1
    outer loop
      vertex -6.25 13.25 -1.5
      vertex 6.25 0.5 -1.5
      vertex -6.25 0.5 -1.5
    endloop
  endfacet
  facet normal 0 0 -1
    outer loop
      vertex 7.25 -16.75 -1.5
      vertex 25 0 -1.5
      vertex 21.6506 -12.5 -1.5
    endloop
  endfacet
  facet normal 0 0 -1
    outer loop
      vertex 7.25 -16.75 -1.5
      vertex 21.6506 -12.5 -1.5
      vertex 12.5 -21.6506 -1.5
    endloop
  endfacet
  facet normal -0 0 -1
    outer loop
      vertex 25 0 -1.5
      vertex 7.25 -16.75 -1.5
      vertex 7.25 13.25 -1.5
    endloop
  endfacet
  facet normal 0 0 -1
    outer loop
      vertex 25 0 -1.5
      vertex 7.25 13.25 -1.5
      vertex 21.6506 12.5 -1.5
    endloop
  endfacet
  facet normal 0 0 -1
    outer loop
      vertex 12.5 -21.6506 -1.5
      vertex 6.25 -16.75 -1.5
      vertex 7.25 -16.75 -1.5
    endloop
  endfacet
  facet normal 0 0 -1
    outer loop
      vertex 0 -25 -1.5
      vertex 6.25 -16.75 -1.5
      vertex 12.5 -21.6506 -1.5
    endloop
  endfacet
  facet normal 0 0 -1
    outer loop
      vertex -6.25 -16.75 -1.5
      vertex 6.25 -16.75 -1.5
      vertex 0 -25 -1.5
    endloop
  endfacet
  facet normal 0 0 -1
    outer loop
      vertex 6.25 -16.75 -1.5
      vertex -6.25 -16.75 -1.5
      vertex 6.25 -0.5 -1.5
    endloop
  endfacet
  facet normal -0 0 -1
    outer loop
      vertex 6.25 -0.5 -1.5
      vertex -6.25 -16.75 -1.5
      vertex -6.25 -0.5 -1.5
    endloop
  endfacet
  facet normal 0 0 -1
    outer loop
      vertex 21.6506 12.5 -1.5
      vertex 7.25 13.25 -1.5
      vertex 12.5 21.6506 -1.5
    endloop
  endfacet
  facet normal 0 0 -1
    outer loop
      vertex 3.5 20.8 -1.5
      vertex 7.25 13.25 -1.5
      vertex 6.25 13.25 -1.5
    endloop
  endfacet
  facet normal 0 0 -1
    outer loop
      vertex 7.25 13.25 -1.5
      vertex 3.5 20.8 -1.5
      vertex 12.5 21.6506 -1.5
    endloop
  endfacet
  facet normal 0 0 -1
    outer loop
      vertex 0 25 -1.5
      vertex 3.5 20.8 -1.5
      vertex 0 24.3 -1.5
    endloop
  endfacet
  facet normal 0 0 -1
    outer loop
      vertex 3.5 20.8 -1.5
      vertex 0 25 -1.5
      vertex 12.5 21.6506 -1.5
    endloop
  endfacet
  facet normal 0 0 -1
    outer loop
      vertex -3.5 20.8 -1.5
      vertex 0 25 -1.5
      vertex 0 24.3 -1.5
    endloop
  endfacet
  facet normal -0 0 -1
    outer loop
      vertex 3.5 20.8 -1.5
      vertex -6.25 13.25 -1.5
      vertex -3.5 20.8 -1.5
    endloop
  endfacet
  facet normal 0 0 -1
    outer loop
      vertex -7.25 13.25 -1.5
      vertex -3.5 20.8 -1.5
      vertex -6.25 13.25 -1.5
    endloop
  endfacet
  facet normal 0 0 -1
    outer loop
      vertex -3.5 20.8 -1.5
      vertex -12.5 21.6506 -1.5
      vertex 0 25 -1.5
    endloop
  endfacet
  facet normal 0 0 -1
    outer loop
      vertex -7.25 13.25 -1.5
      vertex -12.5 21.6506 -1.5
      vertex -3.5 20.8 -1.5
    endloop
  endfacet
  facet normal 0 0 -1
    outer loop
      vertex -25 0 -1.5
      vertex -7.25 -16.75 -1.5
      vertex -21.6506 -12.5 -1.5
    endloop
  endfacet
  facet normal 0 0 -1
    outer loop
      vertex -7.25 -16.75 -1.5
      vertex -25 0 -1.5
      vertex -7.25 13.25 -1.5
    endloop
  endfacet
  facet normal -0 0 -1
    outer loop
      vertex -7.25 13.25 -1.5
      vertex -21.6506 12.5 -1.5
      vertex -12.5 21.6506 -1.5
    endloop
  endfacet
  facet normal 0 0 -1
    outer loop
      vertex -7.25 13.25 -1.5
      vertex -25 0 -1.5
      vertex -21.6506 12.5 -1.5
    endloop
  endfacet
  facet normal 0.707107 -0.707107 0
    outer loop
      vertex 12.5 -21.6506 1.5
      vertex 21.6506 -12.5 -1.5
      vertex 21.6506 -12.5 1.5
    endloop
  endfacet
  facet normal 0.707107 -0.707107 0
    outer loop
      vertex 21.6506 -12.5 -1.5
      vertex 12.5 -21.6506 1.5
      vertex 12.5 -21.6506 -1.5
    endloop
  endfacet
  facet normal 0 0 1
    outer loop
      vertex -6.25 -16.75 1.5
      vertex 6.25 -16.75 1.5
      vertex 6.25 -2 1.5
    endloop
  endfacet
  facet normal 0 0 1
    outer loop
      vertex -6.25 -16.75 1.5
      vertex 6.25 -2 1.5
      vertex -6.25 -2 1.5
    endloop
  endfacet
  facet normal 0 0 1
    outer loop
      vertex 6.25 -16.75 1.5
      vertex -6.25 -16.75 1.5
      vertex 0 -25 1.5
    endloop
  endfacet
  facet normal 0 0 1
    outer loop
      vertex -12.5 -21.6506 1.5
      vertex -6.25 -16.75 1.5
      vertex -7.25 -16.75 1.5
    endloop
  endfacet
  facet normal 0 0 1
    outer loop
      vertex -6.25 -16.75 1.5
      vertex -12.5 -21.6506 1.5
      vertex 0 -25 1.5
    endloop
  endfacet
  facet normal 0 0 1
    outer loop
      vertex -7.25 13.25 1.5
      vertex -12.5 -21.6506 1.5
      vertex -7.25 -16.75 1.5
    endloop
  endfacet
  facet normal 0 0 1
    outer loop
      vertex -25 0 1.5
      vertex -7.25 13.25 1.5
      vertex -21.6506 12.5 1.5
    endloop
  endfacet
  facet normal 0 0 1
    outer loop
      vertex -7.25 13.25 1.5
      vertex -21.6506 -12.5 1.5
      vertex -12.5 -21.6506 1.5
    endloop
  endfacet
  facet normal 0 0 1
    outer loop
      vertex -7.25 13.25 1.5
      vertex -25 0 1.5
      vertex -21.6506 -12.5 1.5
    endloop
  endfacet
  facet normal 0 0 1
    outer loop
      vertex 7.25 13.25 1.5
      vertex 25 0 1.5
      vertex 21.6506 12.5 1.5
    endloop
  endfacet
  facet normal -0 0 1
    outer loop
      vertex 7.25 13.25 1.5
      vertex 21.6506 12.5 1.5
      vertex 12.5 21.6506 1.5
    endloop
  endfacet
  facet normal 0 0 1
    outer loop
      vertex 7.25 -16.75 1.5
      vertex 25 0 1.5
      vertex 7.25 13.25 1.5
    endloop
  endfacet
  facet normal 0 0 1
    outer loop
      vertex 25 0 1.5
      vertex 7.25 -16.75 1.5
      vertex 21.6506 -12.5 1.5
    endloop
  endfacet
  facet normal -0 0 1
    outer loop
      vertex 3.5 20.8 1.5
      vertex 7.25 13.25 1.5
      vertex 12.5 21.6506 1.5
    endloop
  endfacet
  facet normal 0 0 1
    outer loop
      vertex -6.25 13.25 1.5
      vertex 6.25 13.25 1.5
      vertex 3.5 20.8 1.5
    endloop
  endfacet
  facet normal 0 0 1
    outer loop
      vertex 7.25 13.25 1.5
      vertex 3.5 20.8 1.5
      vertex 6.25 13.25 1.5
    endloop
  endfacet
  facet normal 0 0 1
    outer loop
      vertex 0 25 1.5
      vertex 3.5 20.8 1.5
      vertex 12.5 21.6506 1.5
    endloop
  endfacet
  facet normal 0 0 1
    outer loop
      vertex 0 25 1.5
      vertex 0 24.3 1.5
      vertex 3.5 20.8 1.5
    endloop
  endfacet
  facet normal 0 0 1
    outer loop
      vertex 0 25 1.5
      vertex -3.5 20.8 1.5
      vertex 0 24.3 1.5
    endloop
  endfacet
  facet normal 0 0 1
    outer loop
      vertex -3.5 20.8 1.5
      vertex -7.25 13.25 1.5
      vertex -6.25 13.25 1.5
    endloop
  endfacet
  facet normal 0 0 1
    outer loop
      vertex -21.6506 12.5 1.5
      vertex -7.25 13.25 1.5
      vertex -12.5 21.6506 1.5
    endloop
  endfacet
  facet normal 0 0 1
    outer loop
      vertex -3.5 20.8 1.5
      vertex -12.5 21.6506 1.5
      vertex -7.25 13.25 1.5
    endloop
  endfacet
  facet normal -0 0 1
    outer loop
      vertex -12.5 21.6506 1.5
      vertex -3.5 20.8 1.5
      vertex 0 25 1.5
    endloop
  endfacet
  facet normal 0 0 1
    outer loop
      vertex 21.6506 -12.5 1.5
      vertex 7.25 -16.75 1.5
      vertex 12.5 -21.6506 1.5
    endloop
  endfacet
  facet normal -0 0 1
    outer loop
      vertex 6.25 -16.75 1.5
      vertex 12.5 -21.6506 1.5
      vertex 7.25 -16.75 1.5
    endloop
  endfacet
  facet normal 0 0 1
    outer loop
      vertex 12.5 -21.6506 1.5
      vertex 6.25 -16.75 1.5
      vertex 0 -25 1.5
    endloop
  endfacet
  facet normal 0 0 1
    outer loop
      vertex -6.25 13.25 1.5
      vertex 3.5 20.8 1.5
      vertex -3.5 20.8 1.5
    endloop
  endfacet
  facet normal 0 0 1
    outer loop
      vertex 6.25 13.25 1.5
      vertex -6.25 13.25 1.5
      vertex 6.25 2 1.5
    endloop
  endfacet
  facet normal 0 0 1
    outer loop
      vertex 6.25 2 1.5
      vertex -6.25 13.25 1.5
      vertex -6.25 2 1.5
    endloop
  endfacet
  facet normal -0.707107 -0.707107 0
    outer loop
      vertex -12.5 -21.6506 -1.5
      vertex -21.6506 -12.5 1.5
      vertex -21.6506 -12.5 -1.5
    endloop
  endfacet
  facet normal -0.707107 -0.707107 0
    outer loop
      vertex -21.6506 -12.5 1.5
      vertex -12.5 -21.6506 -1.5
      vertex -12.5 -21.6506 1.5
    endloop
  endfacet
  facet normal -0.258822 -0.965925 0
    outer loop
      vertex -12.5 -21.6506 -1.5
      vertex 0 -25 1.5
      vertex -12.5 -21.6506 1.5
    endloop
  endfacet
  facet normal -0.258822 -0.965925 -0
    outer loop
      vertex 0 -25 1.5
      vertex -12.5 -21.6506 -1.5
      vertex 0 -25 -1.5
    endloop
  endfacet
  facet normal 1 -0 0
    outer loop
      vertex 6.25 -2 10.5
      vertex 6.25 -0.5 1.8
      vertex 6.25 -0.5 10.5
    endloop
  endfacet
  facet normal 1 0 0
    outer loop
      vertex 6.25 -0.5 1.8
      vertex 6.25 -2 10.5
      vertex 6.25 -2 1.8
    endloop
  endfacet
  facet normal 1 0 0
    outer loop
      vertex 6.25 -2 1.5
      vertex 6.25 -0.5 1.8
      vertex 6.25 -2 1.8
    endloop
  endfacet
  facet normal 1 0 0
    outer loop
      vertex 6.25 -0.5 1.8
      vertex 6.25 -2 1.5
      vertex 6.25 -0.5 -1.5
    endloop
  endfacet
  facet normal 1 0 0
    outer loop
      vertex 6.25 -16.75 -1.5
      vertex 6.25 -2 1.5
      vertex 6.25 -16.75 1.5
    endloop
  endfacet
  facet normal 1 0 0
    outer loop
      vertex 6.25 -2 1.5
      vertex 6.25 -16.75 -1.5
      vertex 6.25 -0.5 -1.5
    endloop
  endfacet
  facet normal 1 -0 0
    outer loop
      vertex 6.25 0.5 10.5
      vertex 6.25 2 1.8
      vertex 6.25 2 10.5
    endloop
  endfacet
  facet normal 1 0 0
    outer loop
      vertex 6.25 2 1.8
      vertex 6.25 0.5 10.5
      vertex 6.25 0.5 1.8
    endloop
  endfacet
  facet normal 1 0 0
    outer loop
      vertex 6.25 2 1.8
      vertex 6.25 0.5 1.8
      vertex 6.25 2 1.5
    endloop
  endfacet
  facet normal 1 -0 0
    outer loop
      vertex 6.25 2 1.5
      vertex 6.25 13.25 -1.5
      vertex 6.25 13.25 1.5
    endloop
  endfacet
  facet normal 1 0 0
    outer loop
      vertex 6.25 0.5 -1.5
      vertex 6.25 2 1.5
      vertex 6.25 0.5 1.8
    endloop
  endfacet
  facet normal 1 0 0
    outer loop
      vertex 6.25 2 1.5
      vertex 6.25 0.5 -1.5
      vertex 6.25 13.25 -1.5
    endloop
  endfacet
  facet normal -0 0 1
    outer loop
      vertex -6.25 2 10.5
      vertex 6.25 0.5 10.5
      vertex 6.25 2 10.5
    endloop
  endfacet
  facet normal 0 0 1
    outer loop
      vertex 6.25 0.5 10.5
      vertex -6.25 2 10.5
      vertex -6.25 0.5 10.5
    endloop
  endfacet
  facet normal -1 0 0
    outer loop
      vertex -6.25 -2 1.8
      vertex -6.25 -0.5 10.5
      vertex -6.25 -0.5 1.8
    endloop
  endfacet
  facet normal -1 -0 0
    outer loop
      vertex -6.25 -0.5 10.5
      vertex -6.25 -2 1.8
      vertex -6.25 -2 10.5
    endloop
  endfacet
  facet normal -1 0 0
    outer loop
      vertex -6.25 -0.5 -1.5
      vertex -6.25 -2 1.5
      vertex -6.25 -0.5 1.8
    endloop
  endfacet
  facet normal -1 0 0
    outer loop
      vertex -6.25 -16.75 -1.5
      vertex -6.25 -2 1.5
      vertex -6.25 -0.5 -1.5
    endloop
  endfacet
  facet normal -1 -0 0
    outer loop
      vertex -6.25 -2 1.5
      vertex -6.25 -16.75 -1.5
      vertex -6.25 -16.75 1.5
    endloop
  endfacet
  facet normal -1 -0 0
    outer loop
      vertex -6.25 -0.5 1.8
      vertex -6.25 -2 1.5
      vertex -6.25 -2 1.8
    endloop
  endfacet
  facet normal -1 0 0
    outer loop
      vertex -6.25 0.5 1.8
      vertex -6.25 2 10.5
      vertex -6.25 2 1.8
    endloop
  endfacet
  facet normal -1 -0 0
    outer loop
      vertex -6.25 2 10.5
      vertex -6.25 0.5 1.8
      vertex -6.25 0.5 10.5
    endloop
  endfacet
  facet normal -1 0 0
    outer loop
      vertex -6.25 13.25 -1.5
      vertex -6.25 2 1.5
      vertex -6.25 13.25 1.5
    endloop
  endfacet
  facet normal -1 0 0
    outer loop
      vertex -6.25 0.5 -1.5
      vertex -6.25 2 1.5
      vertex -6.25 13.25 -1.5
    endloop
  endfacet
  facet normal -1 0 0
    outer loop
      vertex -6.25 0.5 1.8
      vertex -6.25 2 1.5
      vertex -6.25 0.5 -1.5
    endloop
  endfacet
  facet normal -1 0 0
    outer loop
      vertex -6.25 2 1.5
      vertex -6.25 0.5 1.8
      vertex -6.25 2 1.8
    endloop
  endfacet
  facet normal 0 1 -0
    outer loop
      vertex 6.25 2 1.8
      vertex -6.25 2 10.5
      vertex 6.25 2 10.5
    endloop
  endfacet
  facet normal 0 1 0
    outer loop
      vertex 6.25 2 1.8
      vertex -6.25 2 1.8
      vertex -6.25 2 10.5
    endloop
  endfacet
  facet normal 0 1 -0
    outer loop
      vertex 6.25 2 1.5
      vertex -6.25 2 1.8
      vertex 6.25 2 1.8
    endloop
  endfacet
  facet normal 0 1 0
    outer loop
      vertex -6.25 2 1.8
      vertex 6.25 2 1.5
      vertex -6.25 2 1.5
    endloop
  endfacet
  facet normal 0 -1 0
    outer loop
      vertex -6.25 0.5 1.8
      vertex 6.25 0.5 10.5
      vertex -6.25 0.5 10.5
    endloop
  endfacet
  facet normal 0 -1 -0
    outer loop
      vertex 6.25 0.5 10.5
      vertex -6.25 0.5 1.8
      vertex 6.25 0.5 1.8
    endloop
  endfacet
  facet normal 0 -1 0
    outer loop
      vertex -6.25 0.5 -1.5
      vertex 6.25 0.5 1.8
      vertex -6.25 0.5 1.8
    endloop
  endfacet
  facet normal 0 -1 -0
    outer loop
      vertex 6.25 0.5 1.8
      vertex -6.25 0.5 -1.5
      vertex 6.25 0.5 -1.5
    endloop
  endfacet
  facet normal -0 0 1
    outer loop
      vertex -6.25 -0.5 10.5
      vertex 6.25 -2 10.5
      vertex 6.25 -0.5 10.5
    endloop
  endfacet
  facet normal 0 0 1
    outer loop
      vertex 6.25 -2 10.5
      vertex -6.25 -0.5 10.5
      vertex -6.25 -2 10.5
    endloop
  endfacet
  facet normal 0 1 -0
    outer loop
      vertex 6.25 -0.5 1.8
      vertex -6.25 -0.5 10.5
      vertex 6.25 -0.5 10.5
    endloop
  endfacet
  facet normal 0 1 0
    outer loop
      vertex -6.25 -0.5 10.5
      vertex 6.25 -0.5 1.8
      vertex -6.25 -0.5 1.8
    endloop
  endfacet
  facet normal 0 1 -0
    outer loop
      vertex 6.25 -0.5 -1.5
      vertex -6.25 -0.5 1.8
      vertex 6.25 -0.5 1.8
    endloop
  endfacet
  facet normal 0 1 0
    outer loop
      vertex -6.25 -0.5 1.8
      vertex 6.25 -0.5 -1.5
      vertex -6.25 -0.5 -1.5
    endloop
  endfacet
  facet normal 0 -1 0
    outer loop
      vertex -6.25 -2 1.8
      vertex 6.25 -2 10.5
      vertex -6.25 -2 10.5
    endloop
  endfacet
  facet normal 0 -1 0
    outer loop
      vertex -6.25 -2 1.8
      vertex 6.25 -2 1.8
      vertex 6.25 -2 10.5
    endloop
  endfacet
  facet normal 0 -1 0
    outer loop
      vertex -6.25 -2 1.5
      vertex 6.25 -2 1.8
      vertex -6.25 -2 1.8
    endloop
  endfacet
  facet normal 0 -1 -0
    outer loop
      vertex 6.25 -2 1.8
      vertex -6.25 -2 1.5
      vertex 6.25 -2 1.5
    endloop
  endfacet
  facet normal 1 -0 0
    outer loop
      vertex -7.25 -16.75 1.5
      vertex -7.25 13.25 -1.5
      vertex -7.25 13.25 1.5
    endloop
  endfacet
  facet normal 1 0 0
    outer loop
      vertex -7.25 13.25 -1.5
      vertex -7.25 -16.75 1.5
      vertex -7.25 -16.75 -1.5
    endloop
  endfacet
  facet normal 0 -1 0
    outer loop
      vertex -7.25 13.25 -1.5
      vertex -6.25 13.25 1.5
      vertex -7.25 13.25 1.5
    endloop
  endfacet
  facet normal 0 -1 -0
    outer loop
      vertex -6.25 13.25 1.5
      vertex -7.25 13.25 -1.5
      vertex -6.25 13.25 -1.5
    endloop
  endfacet
  facet normal 0 1 -0
    outer loop
      vertex -6.25 -16.75 -1.5
      vertex -7.25 -16.75 1.5
      vertex -6.25 -16.75 1.5
    endloop
  endfacet
  facet normal 0 1 0
    outer loop
      vertex -7.25 -16.75 1.5
      vertex -6.25 -16.75 -1.5
      vertex -7.25 -16.75 -1.5
    endloop
  endfacet
  facet normal -1 0 0
    outer loop
      vertex 7.25 -16.75 -1.5
      vertex 7.25 13.25 1.5
      vertex 7.25 13.25 -1.5
    endloop
  endfacet
  facet normal -1 -0 0
    outer loop
      vertex 7.25 13.25 1.5
      vertex 7.25 -16.75 -1.5
      vertex 7.25 -16.75 1.5
    endloop
  endfacet
  facet normal 0 -1 0
    outer loop
      vertex 6.25 13.25 -1.5
      vertex 7.25 13.25 1.5
      vertex 6.25 13.25 1.5
    endloop
  endfacet
  facet normal 0 -1 -0
    outer loop
      vertex 7.25 13.25 1.5
      vertex 6.25 13.25 -1.5
      vertex 7.25 13.25 -1.5
    endloop
  endfacet
  facet normal 0 1 -0
    outer loop
      vertex 7.25 -16.75 -1.5
      vertex 6.25 -16.75 1.5
      vertex 7.25 -16.75 1.5
    endloop
  endfacet
  facet normal 0 1 0
    outer loop
      vertex 6.25 -16.75 1.5
      vertex 7.25 -16.75 -1.5
      vertex 6.25 -16.75 -1.5
    endloop
  endfacet
  facet normal 0 1 -0
    outer loop
      vertex 3.5 20.8 -1.5
      vertex -3.5 20.8 1.5
      vertex 3.5 20.8 1.5
    endloop
  endfacet
  facet normal 0 1 0
    outer loop
      vertex -3.5 20.8 1.5
      vertex 3.5 20.8 -1.5
      vertex -3.5 20.8 -1.5
    endloop
  endfacet
  facet normal -0.707107 -0.707107 0
    outer loop
      vertex 3.5 20.8 -1.5
      vertex 0 24.3 1.5
      vertex 0 24.3 -1.5
    endloop
  endfacet
  facet normal -0.707107 -0.707107 0
    outer loop
      vertex 0 24.3 1.5
      vertex 3.5 20.8 -1.5
      vertex 3.5 20.8 1.5
    endloop
  endfacet
  facet normal 0.707107 -0.707107 0
    outer loop
      vertex -3.5 20.8 1.5
      vertex 0 24.3 -1.5
      vertex 0 24.3 1.5
    endloop
  endfacet
  facet normal 0.707107 -0.707107 0
    outer loop
      vertex 0 24.3 -1.5
      vertex -3.5 20.8 1.5
      vertex -3.5 20.8 -1.5
    endloop
  endfacet
endsolid OpenSCAD_Model
