solid OpenSCAD_Model
  facet normal -0.965926 -0.258818 0
    outer loop
      vertex -43.3013 -25 -1.5
      vertex -50 0 1.5
      vertex -50 0 -1.5
    endloop
  endfacet
  facet normal -0.965926 -0.258818 0
    outer loop
      vertex -50 0 1.5
      vertex -43.3013 -25 -1.5
      vertex -43.3013 -25 1.5
    endloop
  endfacet
  facet normal 0.707107 0.707107 0
    outer loop
      vertex 43.3013 25 1.5
      vertex 25 43.3013 -1.5
      vertex 25 43.3013 1.5
    endloop
  endfacet
  facet normal 0.707107 0.707107 0
    outer loop
      vertex 25 43.3013 -1.5
      vertex 43.3013 25 1.5
      vertex 43.3013 25 -1.5
    endloop
  endfacet
  facet normal 0.965926 0.258818 0
    outer loop
      vertex 50 0 1.5
      vertex 43.3013 25 -1.5
      vertex 43.3013 25 1.5
    endloop
  endfacet
  facet normal 0.965926 0.258818 0
    outer loop
      vertex 43.3013 25 -1.5
      vertex 50 0 1.5
      vertex 50 0 -1.5
    endloop
  endfacet
  facet normal 0.258818 0.965926 -0
    outer loop
      vertex 25 43.3013 -1.5
      vertex 0 50 1.5
      vertex 25 43.3013 1.5
    endloop
  endfacet
  facet normal 0.258818 0.965926 0
    outer loop
      vertex 0 50 1.5
      vertex 25 43.3013 -1.5
      vertex 0 50 -1.5
    endloop
  endfacet
  facet normal 0.258818 -0.965926 0
    outer loop
      vertex 0 -50 -1.5
      vertex 25 -43.3013 1.5
      vertex 0 -50 1.5
    endloop
  endfacet
  facet normal 0.258818 -0.965926 0
    outer loop
      vertex 25 -43.3013 1.5
      vertex 0 -50 -1.5
      vertex 25 -43.3013 -1.5
    endloop
  endfacet
  facet normal 0.965926 -0.258818 0
    outer loop
      vertex 43.3013 -25 1.5
      vertex 50 0 -1.5
      vertex 50 0 1.5
    endloop
  endfacet
  facet normal 0.965926 -0.258818 0
    outer loop
      vertex 50 0 -1.5
      vertex 43.3013 -25 1.5
      vertex 43.3013 -25 -1.5
    endloop
  endfacet
  facet normal -0.707107 0.707107 0
    outer loop
      vertex -43.3013 25 -1.5
      vertex -25 43.3013 1.5
      vertex -25 43.3013 -1.5
    endloop
  endfacet
  facet normal -0.707107 0.707107 0
    outer loop
      vertex -25 43.3013 1.5
      vertex -43.3013 25 -1.5
      vertex -43.3013 25 1.5
    endloop
  endfacet
  facet normal -0.258818 0.965926 0
    outer loop
      vertex 0 50 -1.5
      vertex -25 43.3013 1.5
      vertex 0 50 1.5
    endloop
  endfacet
  facet normal -0.258818 0.965926 0
    outer loop
      vertex -25 43.3013 1.5
      vertex 0 50 -1.5
      vertex -25 43.3013 -1.5
    endloop
  endfacet
  facet normal -0.965926 0.258818 0
    outer loop
      vertex -50 0 -1.5
      vertex -43.3013 25 1.5
      vertex -43.3013 25 -1.5
    endloop
  endfacet
  facet normal -0.965926 0.258818 0
    outer loop
      vertex -43.3013 25 1.5
      vertex -50 0 -1.5
      vertex -50 0 1.5
    endloop
  endfacet
  facet normal 0.707107 -0.707107 0
    outer loop
      vertex 25 -43.3013 1.5
      vertex 43.3013 -25 -1.5
      vertex 43.3013 -25 1.5
    endloop
  endfacet
  facet normal 0.707107 -0.707107 0
    outer loop
      vertex 43.3013 -25 -1.5
      vertex 25 -43.3013 1.5
      vertex 25 -43.3013 -1.5
    endloop
  endfacet
  facet normal 0 0 1
    outer loop
      vertex -13.5 -0.5 1.5
      vertex -13.75 -0.5 1.5
      vertex -13.5 -31.75 1.5
    endloop
  endfacet
  facet normal 0 0 1
    outer loop
      vertex -12.5 -31.75 1.5
      vertex 12.5 -31.75 1.5
      vertex 12.5 -2 1.5
    endloop
  endfacet
  facet normal 0 0 1
    outer loop
      vertex -12.5 -31.75 1.5
      vertex 12.5 -2 1.5
      vertex -12.5 -2 1.5
    endloop
  endfacet
  facet normal 0 0 1
    outer loop
      vertex 12.5 -31.75 1.5
      vertex -12.5 -31.75 1.5
      vertex 0 -50 1.5
    endloop
  endfacet
  facet normal 0 0 1
    outer loop
      vertex -25 -43.3013 1.5
      vertex -12.5 -31.75 1.5
      vertex -13.5 -31.75 1.5
    endloop
  endfacet
  facet normal 0 0 1
    outer loop
      vertex -50 0 1.5
      vertex -13.75 0.5 1.5
      vertex -43.3013 25 1.5
    endloop
  endfacet
  facet normal 0 0 1
    outer loop
      vertex -12.5 -31.75 1.5
      vertex -25 -43.3013 1.5
      vertex 0 -50 1.5
    endloop
  endfacet
  facet normal 0 0 1
    outer loop
      vertex -13.75 0.5 1.5
      vertex -50 0 1.5
      vertex -13.75 -0.5 1.5
    endloop
  endfacet
  facet normal 0 -0 1
    outer loop
      vertex -43.3013 -25 1.5
      vertex -13.75 -0.5 1.5
      vertex -50 0 1.5
    endloop
  endfacet
  facet normal 0 0 1
    outer loop
      vertex -13.5 -31.75 1.5
      vertex -43.3013 -25 1.5
      vertex -25 -43.3013 1.5
    endloop
  endfacet
  facet normal 0 0 1
    outer loop
      vertex -13.75 -0.5 1.5
      vertex -43.3013 -25 1.5
      vertex -13.5 -31.75 1.5
    endloop
  endfacet
  facet normal -0 0 1
    outer loop
      vertex 13.75 0.5 1.5
      vertex 50 0 1.5
      vertex 43.3013 25 1.5
    endloop
  endfacet
  facet normal -0 0 1
    outer loop
      vertex 13.5 28.25 1.5
      vertex 43.3013 25 1.5
      vertex 25 43.3013 1.5
    endloop
  endfacet
  facet normal 0 0 1
    outer loop
      vertex 13.75 -0.5 1.5
      vertex 50 0 1.5
      vertex 13.75 0.5 1.5
    endloop
  endfacet
  facet normal 0 0 1
    outer loop
      vertex 50 0 1.5
      vertex 13.75 -0.5 1.5
      vertex 43.3013 -25 1.5
    endloop
  endfacet
  facet normal 0 0 1
    outer loop
      vertex 43.3013 25 1.5
      vertex 13.5 28.25 1.5
      vertex 13.75 0.5 1.5
    endloop
  endfacet
  facet normal 0 0 1
    outer loop
      vertex 3.5 45.8 1.5
      vertex 13.5 28.25 1.5
      vertex 25 43.3013 1.5
    endloop
  endfacet
  facet normal 0 0 1
    outer loop
      vertex -12.5 28.25 1.5
      vertex 12.5 28.25 1.5
      vertex 3.5 45.8 1.5
    endloop
  endfacet
  facet normal 0 0 1
    outer loop
      vertex 13.5 28.25 1.5
      vertex 3.5 45.8 1.5
      vertex 12.5 28.25 1.5
    endloop
  endfacet
  facet normal 0 0 1
    outer loop
      vertex 0 50 1.5
      vertex 3.5 45.8 1.5
      vertex 25 43.3013 1.5
    endloop
  endfacet
  facet normal 0 0 1
    outer loop
      vertex 0 50 1.5
      vertex 0 49.3 1.5
      vertex 3.5 45.8 1.5
    endloop
  endfacet
  facet normal 0 0 1
    outer loop
      vertex 0 50 1.5
      vertex -3.5 45.8 1.5
      vertex 0 49.3 1.5
    endloop
  endfacet
  facet normal 0 0 1
    outer loop
      vertex -3.5 45.8 1.5
      vertex -13.5 28.25 1.5
      vertex -12.5 28.25 1.5
    endloop
  endfacet
  facet normal 0 0 1
    outer loop
      vertex -13.5 28.25 1.5
      vertex -13.75 0.5 1.5
      vertex -13.5 0.5 1.5
    endloop
  endfacet
  facet normal 0 0 1
    outer loop
      vertex -13.5 28.25 1.5
      vertex -43.3013 25 1.5
      vertex -13.75 0.5 1.5
    endloop
  endfacet
  facet normal 0 0 1
    outer loop
      vertex -43.3013 25 1.5
      vertex -13.5 28.25 1.5
      vertex -25 43.3013 1.5
    endloop
  endfacet
  facet normal 0 0 1
    outer loop
      vertex -3.5 45.8 1.5
      vertex -25 43.3013 1.5
      vertex -13.5 28.25 1.5
    endloop
  endfacet
  facet normal 0 0 1
    outer loop
      vertex -25 43.3013 1.5
      vertex -3.5 45.8 1.5
      vertex 0 50 1.5
    endloop
  endfacet
  facet normal 0 0 1
    outer loop
      vertex 13.5 -31.75 1.5
      vertex 43.3013 -25 1.5
      vertex 13.75 -0.5 1.5
    endloop
  endfacet
  facet normal 0 0 1
    outer loop
      vertex 13.5 -31.75 1.5
      vertex 13.75 -0.5 1.5
      vertex 13.5 -0.5 1.5
    endloop
  endfacet
  facet normal 0 0 1
    outer loop
      vertex 43.3013 -25 1.5
      vertex 13.5 -31.75 1.5
      vertex 25 -43.3013 1.5
    endloop
  endfacet
  facet normal -0 0 1
    outer loop
      vertex 12.5 -31.75 1.5
      vertex 25 -43.3013 1.5
      vertex 13.5 -31.75 1.5
    endloop
  endfacet
  facet normal 0 0 1
    outer loop
      vertex 25 -43.3013 1.5
      vertex 12.5 -31.75 1.5
      vertex 0 -50 1.5
    endloop
  endfacet
  facet normal 0 0 1
    outer loop
      vertex 13.75 0.5 1.5
      vertex 13.5 28.25 1.5
      vertex 13.5 0.5 1.5
    endloop
  endfacet
  facet normal 0 0 1
    outer loop
      vertex -12.5 28.25 1.5
      vertex 3.5 45.8 1.5
      vertex -3.5 45.8 1.5
    endloop
  endfacet
  facet normal 0 0 1
    outer loop
      vertex 12.5 28.25 1.5
      vertex -12.5 28.25 1.5
      vertex 12.5 2 1.5
    endloop
  endfacet
  facet normal 0 0 1
    outer loop
      vertex 12.5 2 1.5
      vertex -12.5 28.25 1.5
      vertex -12.5 2 1.5
    endloop
  endfacet
  facet normal -0.707107 -0.707107 0
    outer loop
      vertex -25 -43.3013 -1.5
      vertex -43.3013 -25 1.5
      vertex -43.3013 -25 -1.5
    endloop
  endfacet
  facet normal -0.707107 -0.707107 0
    outer loop
      vertex -43.3013 -25 1.5
      vertex -25 -43.3013 -1.5
      vertex -25 -43.3013 1.5
    endloop
  endfacet
  facet normal 0 0 -1
    outer loop
      vertex -13.5 0.5 -1.5
      vertex -13.75 0.5 -1.5
      vertex -13.5 28.25 -1.5
    endloop
  endfacet
  facet normal 0 0 -1
    outer loop
      vertex -25 -43.3013 -1.5
      vertex -12.5 -31.75 -1.5
      vertex 0 -50 -1.5
    endloop
  endfacet
  facet normal 0 0 -1
    outer loop
      vertex -13.5 -31.75 -1.5
      vertex -13.75 -0.5 -1.5
      vertex -13.5 -0.5 -1.5
    endloop
  endfacet
  facet normal 0 0 -1
    outer loop
      vertex -13.5 -31.75 -1.5
      vertex -43.3013 -25 -1.5
      vertex -13.75 -0.5 -1.5
    endloop
  endfacet
  facet normal 0 0 -1
    outer loop
      vertex -43.3013 -25 -1.5
      vertex -13.5 -31.75 -1.5
      vertex -25 -43.3013 -1.5
    endloop
  endfacet
  facet normal -0 0 -1
    outer loop
      vertex -12.5 -31.75 -1.5
      vertex -25 -43.3013 -1.5
      vertex -13.5 -31.75 -1.5
    endloop
  endfacet
  facet normal 0 0 -1
    outer loop
      vertex -12.5 28.25 -1.5
      vertex 12.5 28.25 -1.5
      vertex 12.5 0.5 -1.5
    endloop
  endfacet
  facet normal 0 0 -1
    outer loop
      vertex 12.5 28.25 -1.5
      vertex -12.5 28.25 -1.5
      vertex 3.5 45.8 -1.5
    endloop
  endfacet
  facet normal 0 0 -1
    outer loop
      vertex -12.5 28.25 -1.5
      vertex 12.5 0.5 -1.5
      vertex -12.5 0.5 -1.5
    endloop
  endfacet
  facet normal 0 0 -1
    outer loop
      vertex 13.75 -0.5 -1.5
      vertex 50 0 -1.5
      vertex 43.3013 -25 -1.5
    endloop
  endfacet
  facet normal 0 0 -1
    outer loop
      vertex 13.5 -31.75 -1.5
      vertex 43.3013 -25 -1.5
      vertex 25 -43.3013 -1.5
    endloop
  endfacet
  facet normal 0 0 -1
    outer loop
      vertex 13.75 0.5 -1.5
      vertex 50 0 -1.5
      vertex 13.75 -0.5 -1.5
    endloop
  endfacet
  facet normal 0 0 -1
    outer loop
      vertex 50 0 -1.5
      vertex 13.75 0.5 -1.5
      vertex 43.3013 25 -1.5
    endloop
  endfacet
  facet normal -0 0 -1
    outer loop
      vertex 43.3013 -25 -1.5
      vertex 13.5 -31.75 -1.5
      vertex 13.75 -0.5 -1.5
    endloop
  endfacet
  facet normal 0 0 -1
    outer loop
      vertex 25 -43.3013 -1.5
      vertex 12.5 -31.75 -1.5
      vertex 13.5 -31.75 -1.5
    endloop
  endfacet
  facet normal 0 0 -1
    outer loop
      vertex 0 -50 -1.5
      vertex 12.5 -31.75 -1.5
      vertex 25 -43.3013 -1.5
    endloop
  endfacet
  facet normal 0 0 -1
    outer loop
      vertex -12.5 -31.75 -1.5
      vertex 12.5 -31.75 -1.5
      vertex 0 -50 -1.5
    endloop
  endfacet
  facet normal 0 0 -1
    outer loop
      vertex 12.5 -31.75 -1.5
      vertex -12.5 -31.75 -1.5
      vertex 12.5 -0.5 -1.5
    endloop
  endfacet
  facet normal -0 0 -1
    outer loop
      vertex 12.5 -0.5 -1.5
      vertex -12.5 -31.75 -1.5
      vertex -12.5 -0.5 -1.5
    endloop
  endfacet
  facet normal 0 0 -1
    outer loop
      vertex 13.5 28.25 -1.5
      vertex 43.3013 25 -1.5
      vertex 13.75 0.5 -1.5
    endloop
  endfacet
  facet normal 0 0 -1
    outer loop
      vertex 13.5 28.25 -1.5
      vertex 13.75 0.5 -1.5
      vertex 13.5 0.5 -1.5
    endloop
  endfacet
  facet normal 0 0 -1
    outer loop
      vertex 43.3013 25 -1.5
      vertex 13.5 28.25 -1.5
      vertex 25 43.3013 -1.5
    endloop
  endfacet
  facet normal 0 0 -1
    outer loop
      vertex 3.5 45.8 -1.5
      vertex 13.5 28.25 -1.5
      vertex 12.5 28.25 -1.5
    endloop
  endfacet
  facet normal 0 0 -1
    outer loop
      vertex 13.5 28.25 -1.5
      vertex 3.5 45.8 -1.5
      vertex 25 43.3013 -1.5
    endloop
  endfacet
  facet normal 0 0 -1
    outer loop
      vertex 0 50 -1.5
      vertex 3.5 45.8 -1.5
      vertex 0 49.3 -1.5
    endloop
  endfacet
  facet normal 0 0 -1
    outer loop
      vertex 3.5 45.8 -1.5
      vertex 0 50 -1.5
      vertex 25 43.3013 -1.5
    endloop
  endfacet
  facet normal 0 0 -1
    outer loop
      vertex -3.5 45.8 -1.5
      vertex 0 50 -1.5
      vertex 0 49.3 -1.5
    endloop
  endfacet
  facet normal -0 0 -1
    outer loop
      vertex 3.5 45.8 -1.5
      vertex -12.5 28.25 -1.5
      vertex -3.5 45.8 -1.5
    endloop
  endfacet
  facet normal 0 0 -1
    outer loop
      vertex -13.5 28.25 -1.5
      vertex -3.5 45.8 -1.5
      vertex -12.5 28.25 -1.5
    endloop
  endfacet
  facet normal 0 0 -1
    outer loop
      vertex -50 0 -1.5
      vertex -13.75 -0.5 -1.5
      vertex -43.3013 -25 -1.5
    endloop
  endfacet
  facet normal -0 0 -1
    outer loop
      vertex -3.5 45.8 -1.5
      vertex -25 43.3013 -1.5
      vertex 0 50 -1.5
    endloop
  endfacet
  facet normal 0 0 -1
    outer loop
      vertex -13.5 28.25 -1.5
      vertex -25 43.3013 -1.5
      vertex -3.5 45.8 -1.5
    endloop
  endfacet
  facet normal 0 0 -1
    outer loop
      vertex -13.75 -0.5 -1.5
      vertex -50 0 -1.5
      vertex -13.75 0.5 -1.5
    endloop
  endfacet
  facet normal 0 -0 -1
    outer loop
      vertex -43.3013 25 -1.5
      vertex -13.75 0.5 -1.5
      vertex -50 0 -1.5
    endloop
  endfacet
  facet normal -0 0 -1
    outer loop
      vertex -13.5 28.25 -1.5
      vertex -43.3013 25 -1.5
      vertex -25 43.3013 -1.5
    endloop
  endfacet
  facet normal 0 0 -1
    outer loop
      vertex -13.75 0.5 -1.5
      vertex -43.3013 25 -1.5
      vertex -13.5 28.25 -1.5
    endloop
  endfacet
  facet normal -0 0 -1
    outer loop
      vertex 13.75 -0.5 -1.5
      vertex 13.5 -31.75 -1.5
      vertex 13.5 -0.5 -1.5
    endloop
  endfacet
  facet normal -0.258818 -0.965926 0
    outer loop
      vertex -25 -43.3013 -1.5
      vertex 0 -50 1.5
      vertex -25 -43.3013 1.5
    endloop
  endfacet
  facet normal -0.258818 -0.965926 -0
    outer loop
      vertex 0 -50 1.5
      vertex -25 -43.3013 -1.5
      vertex 0 -50 -1.5
    endloop
  endfacet
  facet normal 1 -0 0
    outer loop
      vertex 12.5 -2 10.5
      vertex 12.5 -0.5 1.8
      vertex 12.5 -0.5 10.5
    endloop
  endfacet
  facet normal 1 0 0
    outer loop
      vertex 12.5 -0.5 1.8
      vertex 12.5 -2 10.5
      vertex 12.5 -2 1.8
    endloop
  endfacet
  facet normal 1 0 0
    outer loop
      vertex 12.5 -2 1.5
      vertex 12.5 -0.5 1.8
      vertex 12.5 -2 1.8
    endloop
  endfacet
  facet normal 1 0 0
    outer loop
      vertex 12.5 -0.5 1.8
      vertex 12.5 -2 1.5
      vertex 12.5 -0.5 -1.5
    endloop
  endfacet
  facet normal 1 0 0
    outer loop
      vertex 12.5 -31.75 -1.5
      vertex 12.5 -2 1.5
      vertex 12.5 -31.75 1.5
    endloop
  endfacet
  facet normal 1 0 0
    outer loop
      vertex 12.5 -2 1.5
      vertex 12.5 -31.75 -1.5
      vertex 12.5 -0.5 -1.5
    endloop
  endfacet
  facet normal 1 -0 0
    outer loop
      vertex 12.5 0.5 10.5
      vertex 12.5 2 1.8
      vertex 12.5 2 10.5
    endloop
  endfacet
  facet normal 1 0 0
    outer loop
      vertex 12.5 2 1.8
      vertex 12.5 0.5 10.5
      vertex 12.5 0.5 1.8
    endloop
  endfacet
  facet normal 1 0 0
    outer loop
      vertex 12.5 2 1.8
      vertex 12.5 0.5 1.8
      vertex 12.5 2 1.5
    endloop
  endfacet
  facet normal 1 -0 0
    outer loop
      vertex 12.5 2 1.5
      vertex 12.5 28.25 -1.5
      vertex 12.5 28.25 1.5
    endloop
  endfacet
  facet normal 1 0 0
    outer loop
      vertex 12.5 2 1.5
      vertex 12.5 0.5 -1.5
      vertex 12.5 28.25 -1.5
    endloop
  endfacet
  facet normal 1 0 0
    outer loop
      vertex 12.5 0.5 -1.5
      vertex 12.5 2 1.5
      vertex 12.5 0.5 1.8
    endloop
  endfacet
  facet normal -0 0 1
    outer loop
      vertex -12.5 2 10.5
      vertex 12.5 0.5 10.5
      vertex 12.5 2 10.5
    endloop
  endfacet
  facet normal 0 0 1
    outer loop
      vertex 12.5 0.5 10.5
      vertex -12.5 2 10.5
      vertex -12.5 0.5 10.5
    endloop
  endfacet
  facet normal -1 0 0
    outer loop
      vertex -12.5 -2 1.8
      vertex -12.5 -0.5 10.5
      vertex -12.5 -0.5 1.8
    endloop
  endfacet
  facet normal -1 -0 0
    outer loop
      vertex -12.5 -0.5 10.5
      vertex -12.5 -2 1.8
      vertex -12.5 -2 10.5
    endloop
  endfacet
  facet normal -1 0 0
    outer loop
      vertex -12.5 -0.5 -1.5
      vertex -12.5 -2 1.5
      vertex -12.5 -0.5 1.8
    endloop
  endfacet
  facet normal -1 0 0
    outer loop
      vertex -12.5 -31.75 -1.5
      vertex -12.5 -2 1.5
      vertex -12.5 -0.5 -1.5
    endloop
  endfacet
  facet normal -1 -0 0
    outer loop
      vertex -12.5 -2 1.5
      vertex -12.5 -31.75 -1.5
      vertex -12.5 -31.75 1.5
    endloop
  endfacet
  facet normal -1 -0 0
    outer loop
      vertex -12.5 -0.5 1.8
      vertex -12.5 -2 1.5
      vertex -12.5 -2 1.8
    endloop
  endfacet
  facet normal -1 0 0
    outer loop
      vertex -12.5 0.5 1.8
      vertex -12.5 2 10.5
      vertex -12.5 2 1.8
    endloop
  endfacet
  facet normal -1 -0 0
    outer loop
      vertex -12.5 2 10.5
      vertex -12.5 0.5 1.8
      vertex -12.5 0.5 10.5
    endloop
  endfacet
  facet normal -1 0 0
    outer loop
      vertex -12.5 28.25 -1.5
      vertex -12.5 2 1.5
      vertex -12.5 28.25 1.5
    endloop
  endfacet
  facet normal -1 0 0
    outer loop
      vertex -12.5 0.5 -1.5
      vertex -12.5 2 1.5
      vertex -12.5 28.25 -1.5
    endloop
  endfacet
  facet normal -1 0 0
    outer loop
      vertex -12.5 0.5 1.8
      vertex -12.5 2 1.5
      vertex -12.5 0.5 -1.5
    endloop
  endfacet
  facet normal -1 0 0
    outer loop
      vertex -12.5 2 1.5
      vertex -12.5 0.5 1.8
      vertex -12.5 2 1.8
    endloop
  endfacet
  facet normal 0 1 -0
    outer loop
      vertex 12.5 2 1.8
      vertex -12.5 2 10.5
      vertex 12.5 2 10.5
    endloop
  endfacet
  facet normal 0 1 0
    outer loop
      vertex 12.5 2 1.8
      vertex -12.5 2 1.8
      vertex -12.5 2 10.5
    endloop
  endfacet
  facet normal 0 1 -0
    outer loop
      vertex 12.5 2 1.5
      vertex -12.5 2 1.8
      vertex 12.5 2 1.8
    endloop
  endfacet
  facet normal 0 1 0
    outer loop
      vertex -12.5 2 1.8
      vertex 12.5 2 1.5
      vertex -12.5 2 1.5
    endloop
  endfacet
  facet normal 0 -1 0
    outer loop
      vertex -12.5 0.5 1.8
      vertex 12.5 0.5 10.5
      vertex -12.5 0.5 10.5
    endloop
  endfacet
  facet normal 0 -1 -0
    outer loop
      vertex 12.5 0.5 10.5
      vertex -12.5 0.5 1.8
      vertex 12.5 0.5 1.8
    endloop
  endfacet
  facet normal 0 -1 0
    outer loop
      vertex -12.5 0.5 -1.5
      vertex 12.5 0.5 1.8
      vertex -12.5 0.5 1.8
    endloop
  endfacet
  facet normal 0 -1 -0
    outer loop
      vertex 12.5 0.5 1.8
      vertex -12.5 0.5 -1.5
      vertex 12.5 0.5 -1.5
    endloop
  endfacet
  facet normal 0 -1 0
    outer loop
      vertex -13.75 0.5 -1.5
      vertex -13.5 0.5 1.5
      vertex -13.75 0.5 1.5
    endloop
  endfacet
  facet normal 0 -1 -0
    outer loop
      vertex -13.5 0.5 1.5
      vertex -13.75 0.5 -1.5
      vertex -13.5 0.5 -1.5
    endloop
  endfacet
  facet normal 0 -1 0
    outer loop
      vertex 13.5 0.5 -1.5
      vertex 13.75 0.5 1.5
      vertex 13.5 0.5 1.5
    endloop
  endfacet
  facet normal 0 -1 -0
    outer loop
      vertex 13.75 0.5 1.5
      vertex 13.5 0.5 -1.5
      vertex 13.75 0.5 -1.5
    endloop
  endfacet
  facet normal -0 0 1
    outer loop
      vertex -12.5 -0.5 10.5
      vertex 12.5 -2 10.5
      vertex 12.5 -0.5 10.5
    endloop
  endfacet
  facet normal 0 0 1
    outer loop
      vertex 12.5 -2 10.5
      vertex -12.5 -0.5 10.5
      vertex -12.5 -2 10.5
    endloop
  endfacet
  facet normal 0 1 -0
    outer loop
      vertex 12.5 -0.5 1.8
      vertex -12.5 -0.5 10.5
      vertex 12.5 -0.5 10.5
    endloop
  endfacet
  facet normal 0 1 0
    outer loop
      vertex -12.5 -0.5 10.5
      vertex 12.5 -0.5 1.8
      vertex -12.5 -0.5 1.8
    endloop
  endfacet
  facet normal 0 1 -0
    outer loop
      vertex 12.5 -0.5 -1.5
      vertex -12.5 -0.5 1.8
      vertex 12.5 -0.5 1.8
    endloop
  endfacet
  facet normal 0 1 0
    outer loop
      vertex -12.5 -0.5 1.8
      vertex 12.5 -0.5 -1.5
      vertex -12.5 -0.5 -1.5
    endloop
  endfacet
  facet normal 0 1 -0
    outer loop
      vertex -13.5 -0.5 -1.5
      vertex -13.75 -0.5 1.5
      vertex -13.5 -0.5 1.5
    endloop
  endfacet
  facet normal 0 1 0
    outer loop
      vertex -13.75 -0.5 1.5
      vertex -13.5 -0.5 -1.5
      vertex -13.75 -0.5 -1.5
    endloop
  endfacet
  facet normal 0 1 -0
    outer loop
      vertex 13.75 -0.5 -1.5
      vertex 13.5 -0.5 1.5
      vertex 13.75 -0.5 1.5
    endloop
  endfacet
  facet normal 0 1 0
    outer loop
      vertex 13.5 -0.5 1.5
      vertex 13.75 -0.5 -1.5
      vertex 13.5 -0.5 -1.5
    endloop
  endfacet
  facet normal 0 -1 0
    outer loop
      vertex -12.5 -2 1.8
      vertex 12.5 -2 10.5
      vertex -12.5 -2 10.5
    endloop
  endfacet
  facet normal 0 -1 0
    outer loop
      vertex -12.5 -2 1.8
      vertex 12.5 -2 1.8
      vertex 12.5 -2 10.5
    endloop
  endfacet
  facet normal 0 -1 0
    outer loop
      vertex -12.5 -2 1.5
      vertex 12.5 -2 1.8
      vertex -12.5 -2 1.8
    endloop
  endfacet
  facet normal 0 -1 -0
    outer loop
      vertex 12.5 -2 1.8
      vertex -12.5 -2 1.5
      vertex 12.5 -2 1.5
    endloop
  endfacet
  facet normal -1 0 0
    outer loop
      vertex 13.75 -0.5 -1.5
      vertex 13.75 0.5 1.5
      vertex 13.75 0.5 -1.5
    endloop
  endfacet
  facet normal -1 -0 0
    outer loop
      vertex 13.75 0.5 1.5
      vertex 13.75 -0.5 -1.5
      vertex 13.75 -0.5 1.5
    endloop
  endfacet
  facet normal 1 -0 0
    outer loop
      vertex -13.75 -0.5 1.5
      vertex -13.75 0.5 -1.5
      vertex -13.75 0.5 1.5
    endloop
  endfacet
  facet normal 1 0 0
    outer loop
      vertex -13.75 0.5 -1.5
      vertex -13.75 -0.5 1.5
      vertex -13.75 -0.5 -1.5
    endloop
  endfacet
  facet normal 1 -0 0
    outer loop
      vertex -13.5 0.5 1.5
      vertex -13.5 28.25 -1.5
      vertex -13.5 28.25 1.5
    endloop
  endfacet
  facet normal 1 0 0
    outer loop
      vertex -13.5 28.25 -1.5
      vertex -13.5 0.5 1.5
      vertex -13.5 0.5 -1.5
    endloop
  endfacet
  facet normal 1 -0 0
    outer loop
      vertex -13.5 -31.75 1.5
      vertex -13.5 -0.5 -1.5
      vertex -13.5 -0.5 1.5
    endloop
  endfacet
  facet normal 1 0 0
    outer loop
      vertex -13.5 -0.5 -1.5
      vertex -13.5 -31.75 1.5
      vertex -13.5 -31.75 -1.5
    endloop
  endfacet
  facet normal 0 -1 0
    outer loop
      vertex -13.5 28.25 -1.5
      vertex -12.5 28.25 1.5
      vertex -13.5 28.25 1.5
    endloop
  endfacet
  facet normal 0 -1 -0
    outer loop
      vertex -12.5 28.25 1.5
      vertex -13.5 28.25 -1.5
      vertex -12.5 28.25 -1.5
    endloop
  endfacet
  facet normal 0 1 -0
    outer loop
      vertex -12.5 -31.75 -1.5
      vertex -13.5 -31.75 1.5
      vertex -12.5 -31.75 1.5
    endloop
  endfacet
  facet normal 0 1 0
    outer loop
      vertex -13.5 -31.75 1.5
      vertex -12.5 -31.75 -1.5
      vertex -13.5 -31.75 -1.5
    endloop
  endfacet
  facet normal -1 0 0
    outer loop
      vertex 13.5 0.5 -1.5
      vertex 13.5 28.25 1.5
      vertex 13.5 28.25 -1.5
    endloop
  endfacet
  facet normal -1 -0 0
    outer loop
      vertex 13.5 28.25 1.5
      vertex 13.5 0.5 -1.5
      vertex 13.5 0.5 1.5
    endloop
  endfacet
  facet normal -1 0 0
    outer loop
      vertex 13.5 -31.75 -1.5
      vertex 13.5 -0.5 1.5
      vertex 13.5 -0.5 -1.5
    endloop
  endfacet
  facet normal -1 -0 0
    outer loop
      vertex 13.5 -0.5 1.5
      vertex 13.5 -31.75 -1.5
      vertex 13.5 -31.75 1.5
    endloop
  endfacet
  facet normal 0 -1 0
    outer loop
      vertex 12.5 28.25 -1.5
      vertex 13.5 28.25 1.5
      vertex 12.5 28.25 1.5
    endloop
  endfacet
  facet normal 0 -1 -0
    outer loop
      vertex 13.5 28.25 1.5
      vertex 12.5 28.25 -1.5
      vertex 13.5 28.25 -1.5
    endloop
  endfacet
  facet normal 0 1 -0
    outer loop
      vertex 13.5 -31.75 -1.5
      vertex 12.5 -31.75 1.5
      vertex 13.5 -31.75 1.5
    endloop
  endfacet
  facet normal 0 1 0
    outer loop
      vertex 12.5 -31.75 1.5
      vertex 13.5 -31.75 -1.5
      vertex 12.5 -31.75 -1.5
    endloop
  endfacet
  facet normal 0 1 -0
    outer loop
      vertex 3.5 45.8 -1.5
      vertex -3.5 45.8 1.5
      vertex 3.5 45.8 1.5
    endloop
  endfacet
  facet normal 0 1 0
    outer loop
      vertex -3.5 45.8 1.5
      vertex 3.5 45.8 -1.5
      vertex -3.5 45.8 -1.5
    endloop
  endfacet
  facet normal -0.707107 -0.707107 0
    outer loop
      vertex 3.5 45.8 -1.5
      vertex 0 49.3 1.5
      vertex 0 49.3 -1.5
    endloop
  endfacet
  facet normal -0.707107 -0.707107 0
    outer loop
      vertex 0 49.3 1.5
      vertex 3.5 45.8 -1.5
      vertex 3.5 45.8 1.5
    endloop
  endfacet
  facet normal 0.707107 -0.707107 0
    outer loop
      vertex -3.5 45.8 1.5
      vertex 0 49.3 -1.5
      vertex 0 49.3 1.5
    endloop
  endfacet
  facet normal 0.707107 -0.707107 0
    outer loop
      vertex 0 49.3 -1.5
      vertex -3.5 45.8 1.5
      vertex -3.5 45.8 -1.5
    endloop
  endfacet
endsolid OpenSCAD_Model
