solid OpenSCAD_Model
  facet normal -0.965925 -0.258822 0
    outer loop
      vertex -10.8253 -6.25 -1.5
      vertex -12.5 0 1.5
      vertex -12.5 0 -1.5
    endloop
  endfacet
  facet normal -0.965925 -0.258822 0
    outer loop
      vertex -12.5 0 1.5
      vertex -10.8253 -6.25 -1.5
      vertex -10.8253 -6.25 1.5
    endloop
  endfacet
  facet normal 0.707107 0.707107 0
    outer loop
      vertex 10.8253 6.25 1.5
      vertex 6.25 10.8253 -1.5
      vertex 6.25 10.8253 1.5
    endloop
  endfacet
  facet normal 0.707107 0.707107 0
    outer loop
      vertex 6.25 10.8253 -1.5
      vertex 10.8253 6.25 1.5
      vertex 10.8253 6.25 -1.5
    endloop
  endfacet
  facet normal 0.965925 0.258822 0
    outer loop
      vertex 12.5 0 1.5
      vertex 10.8253 6.25 -1.5
      vertex 10.8253 6.25 1.5
    endloop
  endfacet
  facet normal 0.965925 0.258822 0
    outer loop
      vertex 10.8253 6.25 -1.5
      vertex 12.5 0 1.5
      vertex 12.5 0 -1.5
    endloop
  endfacet
  facet normal 0.258822 0.965925 -0
    outer loop
      vertex 6.25 10.8253 -1.5
      vertex 0 12.5 1.5
      vertex 6.25 10.8253 1.5
    endloop
  endfacet
  facet normal 0.258822 0.965925 0
    outer loop
      vertex 0 12.5 1.5
      vertex 6.25 10.8253 -1.5
      vertex 0 12.5 -1.5
    endloop
  endfacet
  facet normal 0.258822 -0.965925 0
    outer loop
      vertex 0 -12.5 -1.5
      vertex 6.25 -10.8253 1.5
      vertex 0 -12.5 1.5
    endloop
  endfacet
  facet normal 0.258822 -0.965925 0
    outer loop
      vertex 6.25 -10.8253 1.5
      vertex 0 -12.5 -1.5
      vertex 6.25 -10.8253 -1.5
    endloop
  endfacet
  facet normal 0.965925 -0.258822 0
    outer loop
      vertex 10.8253 -6.25 1.5
      vertex 12.5 0 -1.5
      vertex 12.5 0 1.5
    endloop
  endfacet
  facet normal 0.965925 -0.258822 0
    outer loop
      vertex 12.5 0 -1.5
      vertex 10.8253 -6.25 1.5
      vertex 10.8253 -6.25 -1.5
    endloop
  endfacet
  facet normal -0.707107 0.707107 0
    outer loop
      vertex -10.8253 6.25 -1.5
      vertex -6.25 10.8253 1.5
      vertex -6.25 10.8253 -1.5
    endloop
  endfacet
  facet normal -0.707107 0.707107 0
    outer loop
      vertex -6.25 10.8253 1.5
      vertex -10.8253 6.25 -1.5
      vertex -10.8253 6.25 1.5
    endloop
  endfacet
  facet normal -0.258822 0.965925 0
    outer loop
      vertex 0 12.5 -1.5
      vertex -6.25 10.8253 1.5
      vertex 0 12.5 1.5
    endloop
  endfacet
  facet normal -0.258822 0.965925 0
    outer loop
      vertex -6.25 10.8253 1.5
      vertex 0 12.5 -1.5
      vertex -6.25 10.8253 -1.5
    endloop
  endfacet
  facet normal -0.965925 0.258822 0
    outer loop
      vertex -12.5 0 -1.5
      vertex -10.8253 6.25 1.5
      vertex -10.8253 6.25 -1.5
    endloop
  endfacet
  facet normal -0.965925 0.258822 0
    outer loop
      vertex -10.8253 6.25 1.5
      vertex -12.5 0 -1.5
      vertex -12.5 0 1.5
    endloop
  endfacet
  facet normal 0 0 -1
    outer loop
      vertex 2.35349 -0.286255 -1.5
      vertex 12.5 0 -1.5
      vertex 10.8253 -6.25 -1.5
    endloop
  endfacet
  facet normal 0 0 -1
    outer loop
      vertex 1.463 -2.16876 -1.5
      vertex 10.8253 -6.25 -1.5
      vertex 6.25 -10.8253 -1.5
    endloop
  endfacet
  facet normal -0 0 -1
    outer loop
      vertex 12.5 0 -1.5
      vertex 2.35349 -0.286255 -1.5
      vertex 2.45799 0.551987 -1.5
    endloop
  endfacet
  facet normal 0 0 -1
    outer loop
      vertex 2.28824 1.4115 -1.5
      vertex 10.8253 6.25 -1.5
      vertex 2.45799 0.551987 -1.5
    endloop
  endfacet
  facet normal 0 0 -1
    outer loop
      vertex 12.5 0 -1.5
      vertex 2.45799 0.551987 -1.5
      vertex 10.8253 6.25 -1.5
    endloop
  endfacet
  facet normal 0 0 -1
    outer loop
      vertex 10.8253 -6.25 -1.5
      vertex 2.03999 -1.16701 -1.5
      vertex 2.35349 -0.286255 -1.5
    endloop
  endfacet
  facet normal 0 0 -1
    outer loop
      vertex 10.8253 -6.25 -1.5
      vertex 1.463 -2.16876 -1.5
      vertex 2.03999 -1.16701 -1.5
    endloop
  endfacet
  facet normal 0 0 -1
    outer loop
      vertex 6.25 -10.8253 -1.5
      vertex 0.567993 -3.37001 -1.5
      vertex 1.463 -2.16876 -1.5
    endloop
  endfacet
  facet normal 0 0 -1
    outer loop
      vertex -1.375 -6.08101 -1.5
      vertex 6.25 -10.8253 -1.5
      vertex 0 -12.5 -1.5
    endloop
  endfacet
  facet normal 0 0 -1
    outer loop
      vertex 6.25 -10.8253 -1.5
      vertex -0.582764 -4.89726 -1.5
      vertex 0.567993 -3.37001 -1.5
    endloop
  endfacet
  facet normal 0 0 -1
    outer loop
      vertex 6.25 -10.8253 -1.5
      vertex -1.375 -6.08101 -1.5
      vertex -0.582764 -4.89726 -1.5
    endloop
  endfacet
  facet normal 0 0 -1
    outer loop
      vertex 0 -12.5 -1.5
      vertex -1.92026 -7.14551 -1.5
      vertex -1.375 -6.08101 -1.5
    endloop
  endfacet
  facet normal 0 0 -1
    outer loop
      vertex 0 -12.5 -1.5
      vertex -2.33 -8.31699 -1.5
      vertex -1.92026 -7.14551 -1.5
    endloop
  endfacet
  facet normal 0 0 -1
    outer loop
      vertex -6.25 -10.8253 -1.5
      vertex -2.59476 -7.48825 -1.5
      vertex -2.33 -8.31699 -1.5
    endloop
  endfacet
  facet normal -0 0 -1
    outer loop
      vertex -2.59476 -7.48825 -1.5
      vertex -6.25 -10.8253 -1.5
      vertex -2.97101 -6.636 -1.5
    endloop
  endfacet
  facet normal -0 0 -1
    outer loop
      vertex -2.97101 -6.636 -1.5
      vertex -6.25 -10.8253 -1.5
      vertex -3.71301 -5.42776 -1.5
    endloop
  endfacet
  facet normal 0 0 -1
    outer loop
      vertex -6.25 -10.8253 -1.5
      vertex -2.33 -8.31699 -1.5
      vertex 0 -12.5 -1.5
    endloop
  endfacet
  facet normal 0 0 -1
    outer loop
      vertex -10.8253 -6.25 -1.5
      vertex -3.71301 -5.42776 -1.5
      vertex -6.25 -10.8253 -1.5
    endloop
  endfacet
  facet normal -0 0 -1
    outer loop
      vertex -3.71301 -5.42776 -1.5
      vertex -10.8253 -6.25 -1.5
      vertex -5.07501 -3.53101 -1.5
    endloop
  endfacet
  facet normal -0 0 -1
    outer loop
      vertex -5.07501 -3.53101 -1.5
      vertex -10.8253 -6.25 -1.5
      vertex -5.93001 -2.36301 -1.5
    endloop
  endfacet
  facet normal -0 0 -1
    outer loop
      vertex -5.93001 -2.36301 -1.5
      vertex -10.8253 -6.25 -1.5
      vertex -6.52901 -1.49826 -1.5
    endloop
  endfacet
  facet normal -0 0 -1
    outer loop
      vertex -6.52901 -1.49826 -1.5
      vertex -10.8253 -6.25 -1.5
      vertex -6.90001 -0.802002 -1.5
    endloop
  endfacet
  facet normal 0 0 -1
    outer loop
      vertex -12.5 0 -1.5
      vertex -6.90001 -0.802002 -1.5
      vertex -10.8253 -6.25 -1.5
    endloop
  endfacet
  facet normal 0 0 -1
    outer loop
      vertex -6.90001 -0.802002 -1.5
      vertex -12.5 0 -1.5
      vertex -7.09201 -0.185501 -1.5
    endloop
  endfacet
  facet normal 0 0 -1
    outer loop
      vertex 1.77899 2.12799 -1.5
      vertex 10.8253 6.25 -1.5
      vertex 2.28824 1.4115 -1.5
    endloop
  endfacet
  facet normal -0 0 -1
    outer loop
      vertex 10.8253 6.25 -1.5
      vertex 1.77899 2.12799 -1.5
      vertex 6.25 10.8253 -1.5
    endloop
  endfacet
  facet normal 0 0 -1
    outer loop
      vertex 1.03925 2.61249 -1.5
      vertex 6.25 10.8253 -1.5
      vertex 1.77899 2.12799 -1.5
    endloop
  endfacet
  facet normal 0 0 -1
    outer loop
      vertex 0 12.5 -1.5
      vertex 1.03925 2.61249 -1.5
      vertex 0.177994 2.77399 -1.5
    endloop
  endfacet
  facet normal 0 0 -1
    outer loop
      vertex 1.03925 2.61249 -1.5
      vertex 0 12.5 -1.5
      vertex 6.25 10.8253 -1.5
    endloop
  endfacet
  facet normal 0 0 -1
    outer loop
      vertex -0.617752 2.63499 -1.5
      vertex 0 12.5 -1.5
      vertex 0.177994 2.77399 -1.5
    endloop
  endfacet
  facet normal 0 0 -1
    outer loop
      vertex -4.08601 2.61949 -1.5
      vertex -0.617752 2.63499 -1.5
      vertex -1.33301 2.21799 -1.5
    endloop
  endfacet
  facet normal 0 0 -1
    outer loop
      vertex -2.77051 1.52249 -1.5
      vertex -1.33301 2.21799 -1.5
      vertex -1.91925 1.51924 -1.5
    endloop
  endfacet
  facet normal 0 0 -1
    outer loop
      vertex -2.77051 1.52249 -1.5
      vertex -1.91925 1.51924 -1.5
      vertex -2.33 0.53299 -1.5
    endloop
  endfacet
  facet normal 0 0 -1
    outer loop
      vertex -1.33301 2.21799 -1.5
      vertex -2.77051 1.52249 -1.5
      vertex -3.37001 2.213 -1.5
    endloop
  endfacet
  facet normal 0 0 -1
    outer loop
      vertex -4.08601 2.61949 -1.5
      vertex -1.33301 2.21799 -1.5
      vertex -3.37001 2.213 -1.5
    endloop
  endfacet
  facet normal 0 0 -1
    outer loop
      vertex -6.25 10.8253 -1.5
      vertex -0.617752 2.63499 -1.5
      vertex -4.08601 2.61949 -1.5
    endloop
  endfacet
  facet normal 0 0 -1
    outer loop
      vertex -6.25 10.8253 -1.5
      vertex -4.08601 2.61949 -1.5
      vertex -4.87601 2.75499 -1.5
    endloop
  endfacet
  facet normal 0 0 -1
    outer loop
      vertex -6.25 10.8253 -1.5
      vertex -4.87601 2.75499 -1.5
      vertex -5.76051 2.59224 -1.5
    endloop
  endfacet
  facet normal 0 0 -1
    outer loop
      vertex -0.617752 2.63499 -1.5
      vertex -6.25 10.8253 -1.5
      vertex 0 12.5 -1.5
    endloop
  endfacet
  facet normal 0 0 -1
    outer loop
      vertex -10.8253 6.25 -1.5
      vertex -5.76051 2.59224 -1.5
      vertex -6.496 2.10399 -1.5
    endloop
  endfacet
  facet normal 0 0 -1
    outer loop
      vertex -10.8253 6.25 -1.5
      vertex -6.496 2.10399 -1.5
      vertex -6.99101 1.36249 -1.5
    endloop
  endfacet
  facet normal 0 0 -1
    outer loop
      vertex -12.5 0 -1.5
      vertex -6.99101 1.36249 -1.5
      vertex -7.15601 0.437988 -1.5
    endloop
  endfacet
  facet normal 0 0 -1
    outer loop
      vertex -7.09201 -0.185501 -1.5
      vertex -12.5 0 -1.5
      vertex -7.15601 0.437988 -1.5
    endloop
  endfacet
  facet normal 0 0 -1
    outer loop
      vertex -5.76051 2.59224 -1.5
      vertex -10.8253 6.25 -1.5
      vertex -6.25 10.8253 -1.5
    endloop
  endfacet
  facet normal -0 0 -1
    outer loop
      vertex -6.99101 1.36249 -1.5
      vertex -12.5 0 -1.5
      vertex -10.8253 6.25 -1.5
    endloop
  endfacet
  facet normal 0.707107 -0.707107 0
    outer loop
      vertex 6.25 -10.8253 1.5
      vertex 10.8253 -6.25 -1.5
      vertex 10.8253 -6.25 1.5
    endloop
  endfacet
  facet normal 0.707107 -0.707107 0
    outer loop
      vertex 10.8253 -6.25 -1.5
      vertex 6.25 -10.8253 1.5
      vertex 6.25 -10.8253 -1.5
    endloop
  endfacet
  facet normal -0 0 1
    outer loop
      vertex 2.45799 0.551987 1.5
      vertex 12.5 0 1.5
      vertex 10.8253 6.25 1.5
    endloop
  endfacet
  facet normal 0 0 1
    outer loop
      vertex 1.77899 2.12799 1.5
      vertex 10.8253 6.25 1.5
      vertex 6.25 10.8253 1.5
    endloop
  endfacet
  facet normal 0 -0 1
    outer loop
      vertex 2.45799 0.551987 1.5
      vertex 10.8253 6.25 1.5
      vertex 2.28824 1.4115 1.5
    endloop
  endfacet
  facet normal 0 0 1
    outer loop
      vertex 12.5 0 1.5
      vertex 2.35349 -0.286255 1.5
      vertex 10.8253 -6.25 1.5
    endloop
  endfacet
  facet normal 0 0 1
    outer loop
      vertex 2.35349 -0.286255 1.5
      vertex 12.5 0 1.5
      vertex 2.45799 0.551987 1.5
    endloop
  endfacet
  facet normal 0 0 1
    outer loop
      vertex 10.8253 6.25 1.5
      vertex 1.77899 2.12799 1.5
      vertex 2.28824 1.4115 1.5
    endloop
  endfacet
  facet normal 0 0 1
    outer loop
      vertex 6.25 10.8253 1.5
      vertex 1.03925 2.61249 1.5
      vertex 1.77899 2.12799 1.5
    endloop
  endfacet
  facet normal 0 0 1
    outer loop
      vertex 0 12.5 1.5
      vertex 1.03925 2.61249 1.5
      vertex 6.25 10.8253 1.5
    endloop
  endfacet
  facet normal 0 0 1
    outer loop
      vertex 1.03925 2.61249 1.5
      vertex 0 12.5 1.5
      vertex 0.177994 2.77399 1.5
    endloop
  endfacet
  facet normal 0 0 1
    outer loop
      vertex 0 12.5 1.5
      vertex -0.617752 2.63499 1.5
      vertex 0.177994 2.77399 1.5
    endloop
  endfacet
  facet normal -0 0 1
    outer loop
      vertex -6.25 10.8253 1.5
      vertex -0.617752 2.63499 1.5
      vertex 0 12.5 1.5
    endloop
  endfacet
  facet normal 0 0 1
    outer loop
      vertex -0.617752 2.63499 1.5
      vertex -4.08601 2.61949 1.5
      vertex -1.33301 2.21799 1.5
    endloop
  endfacet
  facet normal 0 -0 1
    outer loop
      vertex -2.77051 1.52249 1.5
      vertex -1.33301 2.21799 1.5
      vertex -3.37001 2.213 1.5
    endloop
  endfacet
  facet normal 0 0 1
    outer loop
      vertex -1.91925 1.51924 1.5
      vertex -2.77051 1.52249 1.5
      vertex -2.33 0.53299 1.5
    endloop
  endfacet
  facet normal 0 0 1
    outer loop
      vertex -1.33301 2.21799 1.5
      vertex -2.77051 1.52249 1.5
      vertex -1.91925 1.51924 1.5
    endloop
  endfacet
  facet normal 0 0 1
    outer loop
      vertex -1.33301 2.21799 1.5
      vertex -4.08601 2.61949 1.5
      vertex -3.37001 2.213 1.5
    endloop
  endfacet
  facet normal 0 0 1
    outer loop
      vertex -0.617752 2.63499 1.5
      vertex -6.25 10.8253 1.5
      vertex -4.08601 2.61949 1.5
    endloop
  endfacet
  facet normal 0 0 1
    outer loop
      vertex -4.08601 2.61949 1.5
      vertex -6.25 10.8253 1.5
      vertex -4.87601 2.75499 1.5
    endloop
  endfacet
  facet normal 0 0 1
    outer loop
      vertex -4.87601 2.75499 1.5
      vertex -6.25 10.8253 1.5
      vertex -5.76051 2.59224 1.5
    endloop
  endfacet
  facet normal -0 0 1
    outer loop
      vertex -10.8253 6.25 1.5
      vertex -5.76051 2.59224 1.5
      vertex -6.25 10.8253 1.5
    endloop
  endfacet
  facet normal 0 0 1
    outer loop
      vertex -5.76051 2.59224 1.5
      vertex -10.8253 6.25 1.5
      vertex -6.496 2.10399 1.5
    endloop
  endfacet
  facet normal 0 0 1
    outer loop
      vertex -6.496 2.10399 1.5
      vertex -10.8253 6.25 1.5
      vertex -6.99101 1.36249 1.5
    endloop
  endfacet
  facet normal 0 0 1
    outer loop
      vertex -12.5 0 1.5
      vertex -6.99101 1.36249 1.5
      vertex -10.8253 6.25 1.5
    endloop
  endfacet
  facet normal -0 0 1
    outer loop
      vertex 2.03999 -1.16701 1.5
      vertex 10.8253 -6.25 1.5
      vertex 2.35349 -0.286255 1.5
    endloop
  endfacet
  facet normal -0 0 1
    outer loop
      vertex 1.463 -2.16876 1.5
      vertex 10.8253 -6.25 1.5
      vertex 2.03999 -1.16701 1.5
    endloop
  endfacet
  facet normal 0 0 1
    outer loop
      vertex 10.8253 -6.25 1.5
      vertex 1.463 -2.16876 1.5
      vertex 6.25 -10.8253 1.5
    endloop
  endfacet
  facet normal -0 0 1
    outer loop
      vertex 0.567993 -3.37001 1.5
      vertex 6.25 -10.8253 1.5
      vertex 1.463 -2.16876 1.5
    endloop
  endfacet
  facet normal -0 0 1
    outer loop
      vertex -0.582764 -4.89726 1.5
      vertex 6.25 -10.8253 1.5
      vertex 0.567993 -3.37001 1.5
    endloop
  endfacet
  facet normal -0 0 1
    outer loop
      vertex -1.375 -6.08101 1.5
      vertex 6.25 -10.8253 1.5
      vertex -0.582764 -4.89726 1.5
    endloop
  endfacet
  facet normal 0 0 1
    outer loop
      vertex 6.25 -10.8253 1.5
      vertex -1.375 -6.08101 1.5
      vertex 0 -12.5 1.5
    endloop
  endfacet
  facet normal -0 0 1
    outer loop
      vertex -1.92026 -7.14551 1.5
      vertex 0 -12.5 1.5
      vertex -1.375 -6.08101 1.5
    endloop
  endfacet
  facet normal -0 0 1
    outer loop
      vertex -2.33 -8.31699 1.5
      vertex 0 -12.5 1.5
      vertex -1.92026 -7.14551 1.5
    endloop
  endfacet
  facet normal 0 0 1
    outer loop
      vertex -6.25 -10.8253 1.5
      vertex -2.59476 -7.48825 1.5
      vertex -2.97101 -6.636 1.5
    endloop
  endfacet
  facet normal 0 0 1
    outer loop
      vertex -6.25 -10.8253 1.5
      vertex -2.97101 -6.636 1.5
      vertex -3.71301 -5.42776 1.5
    endloop
  endfacet
  facet normal 0 0 1
    outer loop
      vertex -10.8253 -6.25 1.5
      vertex -3.71301 -5.42776 1.5
      vertex -5.07501 -3.53101 1.5
    endloop
  endfacet
  facet normal 0 0 1
    outer loop
      vertex -2.59476 -7.48825 1.5
      vertex -6.25 -10.8253 1.5
      vertex -2.33 -8.31699 1.5
    endloop
  endfacet
  facet normal 0 0 1
    outer loop
      vertex -10.8253 -6.25 1.5
      vertex -5.07501 -3.53101 1.5
      vertex -5.93001 -2.36301 1.5
    endloop
  endfacet
  facet normal 0 0 1
    outer loop
      vertex -2.33 -8.31699 1.5
      vertex -6.25 -10.8253 1.5
      vertex 0 -12.5 1.5
    endloop
  endfacet
  facet normal 0 0 1
    outer loop
      vertex -10.8253 -6.25 1.5
      vertex -5.93001 -2.36301 1.5
      vertex -6.52901 -1.49826 1.5
    endloop
  endfacet
  facet normal 0 0 1
    outer loop
      vertex -10.8253 -6.25 1.5
      vertex -6.52901 -1.49826 1.5
      vertex -6.90001 -0.802002 1.5
    endloop
  endfacet
  facet normal 0 0 1
    outer loop
      vertex -12.5 0 1.5
      vertex -6.90001 -0.802002 1.5
      vertex -7.09201 -0.185501 1.5
    endloop
  endfacet
  facet normal -0 0 1
    outer loop
      vertex -12.5 0 1.5
      vertex -7.09201 -0.185501 1.5
      vertex -7.15601 0.437988 1.5
    endloop
  endfacet
  facet normal 0 0 1
    outer loop
      vertex -6.99101 1.36249 1.5
      vertex -12.5 0 1.5
      vertex -7.15601 0.437988 1.5
    endloop
  endfacet
  facet normal 0 0 1
    outer loop
      vertex -3.71301 -5.42776 1.5
      vertex -10.8253 -6.25 1.5
      vertex -6.25 -10.8253 1.5
    endloop
  endfacet
  facet normal 0 0 1
    outer loop
      vertex -6.90001 -0.802002 1.5
      vertex -12.5 0 1.5
      vertex -10.8253 -6.25 1.5
    endloop
  endfacet
  facet normal -0.707107 -0.707107 0
    outer loop
      vertex -6.25 -10.8253 -1.5
      vertex -10.8253 -6.25 1.5
      vertex -10.8253 -6.25 -1.5
    endloop
  endfacet
  facet normal -0.707107 -0.707107 0
    outer loop
      vertex -10.8253 -6.25 1.5
      vertex -6.25 -10.8253 -1.5
      vertex -6.25 -10.8253 1.5
    endloop
  endfacet
  facet normal -0.258822 -0.965925 0
    outer loop
      vertex -6.25 -10.8253 -1.5
      vertex 0 -12.5 1.5
      vertex -6.25 -10.8253 1.5
    endloop
  endfacet
  facet normal -0.258822 -0.965925 -0
    outer loop
      vertex 0 -12.5 1.5
      vertex -6.25 -10.8253 -1.5
      vertex 0 -12.5 -1.5
    endloop
  endfacet
  facet normal -0.890034 0.455895 0
    outer loop
      vertex -1.92026 -7.14551 -1.5
      vertex -1.375 -6.08101 1.5
      vertex -1.375 -6.08101 -1.5
    endloop
  endfacet
  facet normal -0.890034 0.455895 0
    outer loop
      vertex -1.375 -6.08101 1.5
      vertex -1.92026 -7.14551 -1.5
      vertex -1.92026 -7.14551 1.5
    endloop
  endfacet
  facet normal -0.831054 0.556191 0
    outer loop
      vertex -1.375 -6.08101 -1.5
      vertex -0.582764 -4.89726 1.5
      vertex -0.582764 -4.89726 -1.5
    endloop
  endfacet
  facet normal -0.831054 0.556191 0
    outer loop
      vertex -0.582764 -4.89726 1.5
      vertex -1.375 -6.08101 -1.5
      vertex -1.375 -6.08101 1.5
    endloop
  endfacet
  facet normal -0.798663 0.601779 0
    outer loop
      vertex -0.582764 -4.89726 -1.5
      vertex 0.567993 -3.37001 1.5
      vertex 0.567993 -3.37001 -1.5
    endloop
  endfacet
  facet normal -0.798663 0.601779 0
    outer loop
      vertex 0.567993 -3.37001 1.5
      vertex -0.582764 -4.89726 -1.5
      vertex -0.582764 -4.89726 1.5
    endloop
  endfacet
  facet normal -0.801896 0.597463 0
    outer loop
      vertex 0.567993 -3.37001 -1.5
      vertex 1.463 -2.16876 1.5
      vertex 1.463 -2.16876 -1.5
    endloop
  endfacet
  facet normal -0.801896 0.597463 0
    outer loop
      vertex 1.463 -2.16876 1.5
      vertex 0.567993 -3.37001 -1.5
      vertex 0.567993 -3.37001 1.5
    endloop
  endfacet
  facet normal -0.866538 0.499111 0
    outer loop
      vertex 1.463 -2.16876 -1.5
      vertex 2.03999 -1.16701 1.5
      vertex 2.03999 -1.16701 -1.5
    endloop
  endfacet
  facet normal -0.866538 0.499111 0
    outer loop
      vertex 2.03999 -1.16701 1.5
      vertex 1.463 -2.16876 -1.5
      vertex 1.463 -2.16876 1.5
    endloop
  endfacet
  facet normal -0.942099 0.335335 0
    outer loop
      vertex 2.03999 -1.16701 -1.5
      vertex 2.35349 -0.286255 1.5
      vertex 2.35349 -0.286255 -1.5
    endloop
  endfacet
  facet normal -0.942099 0.335335 0
    outer loop
      vertex 2.35349 -0.286255 1.5
      vertex 2.03999 -1.16701 -1.5
      vertex 2.03999 -1.16701 1.5
    endloop
  endfacet
  facet normal -0.992319 0.123708 0
    outer loop
      vertex 2.35349 -0.286255 -1.5
      vertex 2.45799 0.551987 1.5
      vertex 2.45799 0.551987 -1.5
    endloop
  endfacet
  facet normal -0.992319 0.123708 0
    outer loop
      vertex 2.45799 0.551987 1.5
      vertex 2.35349 -0.286255 -1.5
      vertex 2.35349 -0.286255 1.5
    endloop
  endfacet
  facet normal -0.98105 -0.193753 0
    outer loop
      vertex 2.45799 0.551987 -1.5
      vertex 2.28824 1.4115 1.5
      vertex 2.28824 1.4115 -1.5
    endloop
  endfacet
  facet normal -0.98105 -0.193753 0
    outer loop
      vertex 2.28824 1.4115 1.5
      vertex 2.45799 0.551987 -1.5
      vertex 2.45799 0.551987 1.5
    endloop
  endfacet
  facet normal -0.815092 -0.579332 0
    outer loop
      vertex 2.28824 1.4115 -1.5
      vertex 1.77899 2.12799 1.5
      vertex 1.77899 2.12799 -1.5
    endloop
  endfacet
  facet normal -0.815092 -0.579332 0
    outer loop
      vertex 1.77899 2.12799 1.5
      vertex 2.28824 1.4115 -1.5
      vertex 2.28824 1.4115 1.5
    endloop
  endfacet
  facet normal -0.547902 -0.836543 0
    outer loop
      vertex 1.03925 2.61249 -1.5
      vertex 1.77899 2.12799 1.5
      vertex 1.03925 2.61249 1.5
    endloop
  endfacet
  facet normal -0.547902 -0.836543 -0
    outer loop
      vertex 1.77899 2.12799 1.5
      vertex 1.03925 2.61249 -1.5
      vertex 1.77899 2.12799 -1.5
    endloop
  endfacet
  facet normal -0.184305 -0.982869 0
    outer loop
      vertex 0.177994 2.77399 -1.5
      vertex 1.03925 2.61249 1.5
      vertex 0.177994 2.77399 1.5
    endloop
  endfacet
  facet normal -0.184305 -0.982869 -0
    outer loop
      vertex 1.03925 2.61249 1.5
      vertex 0.177994 2.77399 -1.5
      vertex 1.03925 2.61249 -1.5
    endloop
  endfacet
  facet normal 0.172073 -0.985084 0
    outer loop
      vertex -0.617752 2.63499 -1.5
      vertex 0.177994 2.77399 1.5
      vertex -0.617752 2.63499 1.5
    endloop
  endfacet
  facet normal 0.172073 -0.985084 0
    outer loop
      vertex 0.177994 2.77399 1.5
      vertex -0.617752 2.63499 -1.5
      vertex 0.177994 2.77399 -1.5
    endloop
  endfacet
  facet normal 0.50366 -0.863902 0
    outer loop
      vertex -1.33301 2.21799 -1.5
      vertex -0.617752 2.63499 1.5
      vertex -1.33301 2.21799 1.5
    endloop
  endfacet
  facet normal 0.50366 -0.863902 0
    outer loop
      vertex -0.617752 2.63499 1.5
      vertex -1.33301 2.21799 -1.5
      vertex -0.617752 2.63499 -1.5
    endloop
  endfacet
  facet normal 0.766088 -0.642736 0
    outer loop
      vertex -1.91925 1.51924 1.5
      vertex -1.33301 2.21799 -1.5
      vertex -1.33301 2.21799 1.5
    endloop
  endfacet
  facet normal 0.766088 -0.642736 0
    outer loop
      vertex -1.33301 2.21799 -1.5
      vertex -1.91925 1.51924 1.5
      vertex -1.91925 1.51924 -1.5
    endloop
  endfacet
  facet normal 0.923139 -0.384466 0
    outer loop
      vertex -2.33 0.53299 1.5
      vertex -1.91925 1.51924 -1.5
      vertex -1.91925 1.51924 1.5
    endloop
  endfacet
  facet normal 0.923139 -0.384466 0
    outer loop
      vertex -1.91925 1.51924 -1.5
      vertex -2.33 0.53299 1.5
      vertex -2.33 0.53299 -1.5
    endloop
  endfacet
  facet normal -0.91356 -0.406703 0
    outer loop
      vertex -2.33 0.53299 -1.5
      vertex -2.77051 1.52249 1.5
      vertex -2.77051 1.52249 -1.5
    endloop
  endfacet
  facet normal -0.91356 -0.406703 0
    outer loop
      vertex -2.77051 1.52249 1.5
      vertex -2.33 0.53299 -1.5
      vertex -2.33 0.53299 1.5
    endloop
  endfacet
  facet normal -0.755116 -0.655591 0
    outer loop
      vertex -2.77051 1.52249 -1.5
      vertex -3.37001 2.213 1.5
      vertex -3.37001 2.213 -1.5
    endloop
  endfacet
  facet normal -0.755116 -0.655591 0
    outer loop
      vertex -3.37001 2.213 1.5
      vertex -2.77051 1.52249 -1.5
      vertex -2.77051 1.52249 1.5
    endloop
  endfacet
  facet normal -0.493708 -0.869628 0
    outer loop
      vertex -4.08601 2.61949 -1.5
      vertex -3.37001 2.213 1.5
      vertex -4.08601 2.61949 1.5
    endloop
  endfacet
  facet normal -0.493708 -0.869628 -0
    outer loop
      vertex -3.37001 2.213 1.5
      vertex -4.08601 2.61949 -1.5
      vertex -3.37001 2.213 -1.5
    endloop
  endfacet
  facet normal -0.16905 -0.985607 0
    outer loop
      vertex -4.87601 2.75499 -1.5
      vertex -4.08601 2.61949 1.5
      vertex -4.87601 2.75499 1.5
    endloop
  endfacet
  facet normal -0.16905 -0.985607 -0
    outer loop
      vertex -4.08601 2.61949 1.5
      vertex -4.87601 2.75499 -1.5
      vertex -4.08601 2.61949 -1.5
    endloop
  endfacet
  facet normal 0.180964 -0.98349 0
    outer loop
      vertex -5.76051 2.59224 -1.5
      vertex -4.87601 2.75499 1.5
      vertex -5.76051 2.59224 1.5
    endloop
  endfacet
  facet normal 0.180964 -0.98349 0
    outer loop
      vertex -4.87601 2.75499 1.5
      vertex -5.76051 2.59224 -1.5
      vertex -4.87601 2.75499 -1.5
    endloop
  endfacet
  facet normal 0.553071 -0.833134 0
    outer loop
      vertex -6.496 2.10399 -1.5
      vertex -5.76051 2.59224 1.5
      vertex -6.496 2.10399 1.5
    endloop
  endfacet
  facet normal 0.553071 -0.833134 0
    outer loop
      vertex -5.76051 2.59224 1.5
      vertex -6.496 2.10399 -1.5
      vertex -5.76051 2.59224 -1.5
    endloop
  endfacet
  facet normal 0.8317 -0.555226 0
    outer loop
      vertex -6.99101 1.36249 1.5
      vertex -6.496 2.10399 -1.5
      vertex -6.496 2.10399 1.5
    endloop
  endfacet
  facet normal 0.8317 -0.555226 0
    outer loop
      vertex -6.496 2.10399 -1.5
      vertex -6.99101 1.36249 1.5
      vertex -6.99101 1.36249 -1.5
    endloop
  endfacet
  facet normal 0.984444 -0.175698 0
    outer loop
      vertex -7.15601 0.437988 1.5
      vertex -6.99101 1.36249 -1.5
      vertex -6.99101 1.36249 1.5
    endloop
  endfacet
  facet normal 0.984444 -0.175698 0
    outer loop
      vertex -6.99101 1.36249 -1.5
      vertex -7.15601 0.437988 1.5
      vertex -7.15601 0.437988 -1.5
    endloop
  endfacet
  facet normal 0.994773 0.102112 0
    outer loop
      vertex -7.09201 -0.185501 1.5
      vertex -7.15601 0.437988 -1.5
      vertex -7.15601 0.437988 1.5
    endloop
  endfacet
  facet normal 0.994773 0.102112 0
    outer loop
      vertex -7.15601 0.437988 -1.5
      vertex -7.09201 -0.185501 1.5
      vertex -7.09201 -0.185501 -1.5
    endloop
  endfacet
  facet normal 0.954769 0.297349 0
    outer loop
      vertex -6.90001 -0.802002 1.5
      vertex -7.09201 -0.185501 -1.5
      vertex -7.09201 -0.185501 1.5
    endloop
  endfacet
  facet normal 0.954769 0.297349 0
    outer loop
      vertex -7.09201 -0.185501 -1.5
      vertex -6.90001 -0.802002 1.5
      vertex -6.90001 -0.802002 -1.5
    endloop
  endfacet
  facet normal 0.882531 0.470255 0
    outer loop
      vertex -6.52901 -1.49826 1.5
      vertex -6.90001 -0.802002 -1.5
      vertex -6.90001 -0.802002 1.5
    endloop
  endfacet
  facet normal 0.882531 0.470255 0
    outer loop
      vertex -6.90001 -0.802002 -1.5
      vertex -6.52901 -1.49826 1.5
      vertex -6.52901 -1.49826 -1.5
    endloop
  endfacet
  facet normal 0.822047 0.56942 0
    outer loop
      vertex -5.93001 -2.36301 1.5
      vertex -6.52901 -1.49826 -1.5
      vertex -6.52901 -1.49826 1.5
    endloop
  endfacet
  facet normal 0.822047 0.56942 0
    outer loop
      vertex -6.52901 -1.49826 -1.5
      vertex -5.93001 -2.36301 1.5
      vertex -5.93001 -2.36301 -1.5
    endloop
  endfacet
  facet normal 0.80691 0.590675 0
    outer loop
      vertex -5.07501 -3.53101 1.5
      vertex -5.93001 -2.36301 -1.5
      vertex -5.93001 -2.36301 1.5
    endloop
  endfacet
  facet normal 0.80691 0.590675 0
    outer loop
      vertex -5.93001 -2.36301 -1.5
      vertex -5.07501 -3.53101 1.5
      vertex -5.07501 -3.53101 -1.5
    endloop
  endfacet
  facet normal 0.812277 0.583272 0
    outer loop
      vertex -3.71301 -5.42776 1.5
      vertex -5.07501 -3.53101 -1.5
      vertex -5.07501 -3.53101 1.5
    endloop
  endfacet
  facet normal 0.812277 0.583272 0
    outer loop
      vertex -5.07501 -3.53101 -1.5
      vertex -3.71301 -5.42776 1.5
      vertex -3.71301 -5.42776 -1.5
    endloop
  endfacet
  facet normal 0.85214 0.523313 0
    outer loop
      vertex -2.97101 -6.636 1.5
      vertex -3.71301 -5.42776 -1.5
      vertex -3.71301 -5.42776 1.5
    endloop
  endfacet
  facet normal 0.85214 0.523313 0
    outer loop
      vertex -3.71301 -5.42776 -1.5
      vertex -2.97101 -6.636 1.5
      vertex -2.97101 -6.636 -1.5
    endloop
  endfacet
  facet normal 0.914816 0.403871 0
    outer loop
      vertex -2.59476 -7.48825 1.5
      vertex -2.97101 -6.636 -1.5
      vertex -2.97101 -6.636 1.5
    endloop
  endfacet
  facet normal 0.914816 0.403871 0
    outer loop
      vertex -2.97101 -6.636 -1.5
      vertex -2.59476 -7.48825 1.5
      vertex -2.59476 -7.48825 -1.5
    endloop
  endfacet
  facet normal 0.95257 0.30432 0
    outer loop
      vertex -2.33 -8.31699 1.5
      vertex -2.59476 -7.48825 -1.5
      vertex -2.59476 -7.48825 1.5
    endloop
  endfacet
  facet normal 0.95257 0.30432 0
    outer loop
      vertex -2.59476 -7.48825 -1.5
      vertex -2.33 -8.31699 1.5
      vertex -2.33 -8.31699 -1.5
    endloop
  endfacet
  facet normal -0.943928 0.330151 0
    outer loop
      vertex -2.33 -8.31699 -1.5
      vertex -1.92026 -7.14551 1.5
      vertex -1.92026 -7.14551 -1.5
    endloop
  endfacet
  facet normal -0.943928 0.330151 0
    outer loop
      vertex -1.92026 -7.14551 1.5
      vertex -2.33 -8.31699 -1.5
      vertex -2.33 -8.31699 1.5
    endloop
  endfacet
endsolid OpenSCAD_Model
