solid OpenSCAD_Model
  facet normal -1 0 0
    outer loop
      vertex 0.4 8.475 -1.5
      vertex 0.4 8.75 1.5
      vertex 0.4 8.75 -1.5
    endloop
  endfacet
  facet normal -1 -0 0
    outer loop
      vertex 0.4 8.75 1.5
      vertex 0.4 8.475 -1.5
      vertex 0.4 8.475 1.5
    endloop
  endfacet
  facet normal -1 0 0
    outer loop
      vertex 0.4 -8.75 -1.5
      vertex 0.4 6.375 1.5
      vertex 0.4 6.375 -1.5
    endloop
  endfacet
  facet normal -1 -0 0
    outer loop
      vertex 0.4 6.375 1.5
      vertex 0.4 -8.75 -1.5
      vertex 0.4 -8.75 1.5
    endloop
  endfacet
  facet normal 1 -0 0
    outer loop
      vertex -0.4 8.475 1.5
      vertex -0.4 8.75 -1.5
      vertex -0.4 8.75 1.5
    endloop
  endfacet
  facet normal 1 0 0
    outer loop
      vertex -0.4 8.75 -1.5
      vertex -0.4 8.475 1.5
      vertex -0.4 8.475 -1.5
    endloop
  endfacet
  facet normal 1 -0 0
    outer loop
      vertex -0.4 -8.75 1.5
      vertex -0.4 6.375 -1.5
      vertex -0.4 6.375 1.5
    endloop
  endfacet
  facet normal 1 0 0
    outer loop
      vertex -0.4 6.375 -1.5
      vertex -0.4 -8.75 1.5
      vertex -0.4 -8.75 -1.5
    endloop
  endfacet
  facet normal 0 -1 0
    outer loop
      vertex -0.4 8.75 -1.5
      vertex -0.321429 8.75 1.5
      vertex -0.4 8.75 1.5
    endloop
  endfacet
  facet normal 0 -1 -0
    outer loop
      vertex -0.321429 8.75 1.5
      vertex -0.4 8.75 -1.5
      vertex -0.321429 8.75 -1.5
    endloop
  endfacet
  facet normal 0 -1 0
    outer loop
      vertex 0.321429 8.75 -1.5
      vertex 0.4 8.75 1.5
      vertex 0.321429 8.75 1.5
    endloop
  endfacet
  facet normal 0 -1 -0
    outer loop
      vertex 0.4 8.75 1.5
      vertex 0.321429 8.75 -1.5
      vertex 0.4 8.75 -1.5
    endloop
  endfacet
  facet normal 0 1 -0
    outer loop
      vertex 0.4 -8.75 -1.5
      vertex -0.4 -8.75 1.5
      vertex 0.4 -8.75 1.5
    endloop
  endfacet
  facet normal 0 1 0
    outer loop
      vertex -0.4 -8.75 1.5
      vertex 0.4 -8.75 -1.5
      vertex -0.4 -8.75 -1.5
    endloop
  endfacet
  facet normal 0 1 -0
    outer loop
      vertex -0.4 6.375 -1.5
      vertex -1 6.375 1.5
      vertex -0.4 6.375 1.5
    endloop
  endfacet
  facet normal 0 1 0
    outer loop
      vertex -1 6.375 1.5
      vertex -0.4 6.375 -1.5
      vertex -1 6.375 -1.5
    endloop
  endfacet
  facet normal 0 1 -0
    outer loop
      vertex 1 6.375 -1.5
      vertex 0.4 6.375 1.5
      vertex 1 6.375 1.5
    endloop
  endfacet
  facet normal 0 1 0
    outer loop
      vertex 0.4 6.375 1.5
      vertex 1 6.375 -1.5
      vertex 0.4 6.375 -1.5
    endloop
  endfacet
  facet normal -0.961524 -0.274721 0
    outer loop
      vertex 0.321429 8.75 -1.5
      vertex 0 9.875 1.5
      vertex 0 9.875 -1.5
    endloop
  endfacet
  facet normal -0.961524 -0.274721 0
    outer loop
      vertex 0 9.875 1.5
      vertex 0.321429 8.75 -1.5
      vertex 0.321429 8.75 1.5
    endloop
  endfacet
  facet normal -0.961524 -0.274721 0
    outer loop
      vertex 1 6.375 -1.5
      vertex 0.4 8.475 1.5
      vertex 0.4 8.475 -1.5
    endloop
  endfacet
  facet normal -0.961524 -0.274721 0
    outer loop
      vertex 0.4 8.475 1.5
      vertex 1 6.375 -1.5
      vertex 1 6.375 1.5
    endloop
  endfacet
  facet normal 0.961524 -0.274721 0
    outer loop
      vertex -1 6.375 1.5
      vertex -0.4 8.475 -1.5
      vertex -0.4 8.475 1.5
    endloop
  endfacet
  facet normal 0.961524 -0.274721 0
    outer loop
      vertex -0.4 8.475 -1.5
      vertex -1 6.375 1.5
      vertex -1 6.375 -1.5
    endloop
  endfacet
  facet normal 0.961524 -0.274721 0
    outer loop
      vertex -0.321429 8.75 1.5
      vertex 0 9.875 -1.5
      vertex 0 9.875 1.5
    endloop
  endfacet
  facet normal 0.961524 -0.274721 0
    outer loop
      vertex 0 9.875 -1.5
      vertex -0.321429 8.75 1.5
      vertex -0.321429 8.75 -1.5
    endloop
  endfacet
  facet normal 0.707107 0.707107 0
    outer loop
      vertex 10.8253 6.25 1.5
      vertex 6.25 10.8253 -1.5
      vertex 6.25 10.8253 1.5
    endloop
  endfacet
  facet normal 0.707107 0.707107 0
    outer loop
      vertex 6.25 10.8253 -1.5
      vertex 10.8253 6.25 1.5
      vertex 10.8253 6.25 -1.5
    endloop
  endfacet
  facet normal 0.965925 0.258822 0
    outer loop
      vertex 12.5 0 1.5
      vertex 10.8253 6.25 -1.5
      vertex 10.8253 6.25 1.5
    endloop
  endfacet
  facet normal 0.965925 0.258822 0
    outer loop
      vertex 10.8253 6.25 -1.5
      vertex 12.5 0 1.5
      vertex 12.5 0 -1.5
    endloop
  endfacet
  facet normal 0.258822 0.965925 -0
    outer loop
      vertex 6.25 10.8253 -1.5
      vertex 0 12.5 1.5
      vertex 6.25 10.8253 1.5
    endloop
  endfacet
  facet normal 0.258822 0.965925 0
    outer loop
      vertex 0 12.5 1.5
      vertex 6.25 10.8253 -1.5
      vertex 0 12.5 -1.5
    endloop
  endfacet
  facet normal -0.965925 -0.258822 0
    outer loop
      vertex -10.8253 -6.25 -1.5
      vertex -12.5 0 1.5
      vertex -12.5 0 -1.5
    endloop
  endfacet
  facet normal -0.965925 -0.258822 0
    outer loop
      vertex -12.5 0 1.5
      vertex -10.8253 -6.25 -1.5
      vertex -10.8253 -6.25 1.5
    endloop
  endfacet
  facet normal 0.965925 -0.258822 0
    outer loop
      vertex 10.8253 -6.25 1.5
      vertex 12.5 0 -1.5
      vertex 12.5 0 1.5
    endloop
  endfacet
  facet normal 0.965925 -0.258822 0
    outer loop
      vertex 12.5 0 -1.5
      vertex 10.8253 -6.25 1.5
      vertex 10.8253 -6.25 -1.5
    endloop
  endfacet
  facet normal -0.258822 0.965925 0
    outer loop
      vertex 0 12.5 -1.5
      vertex -6.25 10.8253 1.5
      vertex 0 12.5 1.5
    endloop
  endfacet
  facet normal -0.258822 0.965925 0
    outer loop
      vertex -6.25 10.8253 1.5
      vertex 0 12.5 -1.5
      vertex -6.25 10.8253 -1.5
    endloop
  endfacet
  facet normal 0.258822 -0.965925 0
    outer loop
      vertex 0 -12.5 -1.5
      vertex 6.25 -10.8253 1.5
      vertex 0 -12.5 1.5
    endloop
  endfacet
  facet normal 0.258822 -0.965925 0
    outer loop
      vertex 6.25 -10.8253 1.5
      vertex 0 -12.5 -1.5
      vertex 6.25 -10.8253 -1.5
    endloop
  endfacet
  facet normal -0.965925 0.258822 0
    outer loop
      vertex -12.5 0 -1.5
      vertex -10.8253 6.25 1.5
      vertex -10.8253 6.25 -1.5
    endloop
  endfacet
  facet normal -0.965925 0.258822 0
    outer loop
      vertex -10.8253 6.25 1.5
      vertex -12.5 0 -1.5
      vertex -12.5 0 1.5
    endloop
  endfacet
  facet normal -0.707107 0.707107 0
    outer loop
      vertex -10.8253 6.25 -1.5
      vertex -6.25 10.8253 1.5
      vertex -6.25 10.8253 -1.5
    endloop
  endfacet
  facet normal -0.707107 0.707107 0
    outer loop
      vertex -6.25 10.8253 1.5
      vertex -10.8253 6.25 -1.5
      vertex -10.8253 6.25 1.5
    endloop
  endfacet
  facet normal 0 0 -1
    outer loop
      vertex -6.25 10.8253 -1.5
      vertex -0.4 8.475 -1.5
      vertex -1 6.375 -1.5
    endloop
  endfacet
  facet normal 0 0 -1
    outer loop
      vertex 1 6.375 -1.5
      vertex 12.5 0 -1.5
      vertex 10.8253 -6.25 -1.5
    endloop
  endfacet
  facet normal 0 0 -1
    outer loop
      vertex 0.4 -8.75 -1.5
      vertex 10.8253 -6.25 -1.5
      vertex 6.25 -10.8253 -1.5
    endloop
  endfacet
  facet normal 0 -0 -1
    outer loop
      vertex 1 6.375 -1.5
      vertex 10.8253 -6.25 -1.5
      vertex 0.4 -8.75 -1.5
    endloop
  endfacet
  facet normal 0 0 -1
    outer loop
      vertex 10.8253 6.25 -1.5
      vertex 1 6.375 -1.5
      vertex 6.25 10.8253 -1.5
    endloop
  endfacet
  facet normal 0 0 -1
    outer loop
      vertex 12.5 0 -1.5
      vertex 1 6.375 -1.5
      vertex 10.8253 6.25 -1.5
    endloop
  endfacet
  facet normal 0 0 -1
    outer loop
      vertex 0 -12.5 -1.5
      vertex 0.4 -8.75 -1.5
      vertex 6.25 -10.8253 -1.5
    endloop
  endfacet
  facet normal 0 0 -1
    outer loop
      vertex 0 -12.5 -1.5
      vertex -0.4 -8.75 -1.5
      vertex 0.4 -8.75 -1.5
    endloop
  endfacet
  facet normal 0 0 -1
    outer loop
      vertex -0.4 -8.75 -1.5
      vertex -1 6.375 -1.5
      vertex -0.4 6.375 -1.5
    endloop
  endfacet
  facet normal 0 0 -1
    outer loop
      vertex -10.8253 -6.25 -1.5
      vertex -0.4 -8.75 -1.5
      vertex -6.25 -10.8253 -1.5
    endloop
  endfacet
  facet normal 0 0 -1
    outer loop
      vertex -6.25 -10.8253 -1.5
      vertex -0.4 -8.75 -1.5
      vertex 0 -12.5 -1.5
    endloop
  endfacet
  facet normal 0 0 -1
    outer loop
      vertex 0.4 8.475 -1.5
      vertex 6.25 10.8253 -1.5
      vertex 1 6.375 -1.5
    endloop
  endfacet
  facet normal 0 0 -1
    outer loop
      vertex 0.4 8.75 -1.5
      vertex 6.25 10.8253 -1.5
      vertex 0.4 8.475 -1.5
    endloop
  endfacet
  facet normal 0 0 -1
    outer loop
      vertex 0 9.875 -1.5
      vertex 0.4 8.75 -1.5
      vertex 0.321429 8.75 -1.5
    endloop
  endfacet
  facet normal 0 0 -1
    outer loop
      vertex 0.4 8.75 -1.5
      vertex 0 9.875 -1.5
      vertex 6.25 10.8253 -1.5
    endloop
  endfacet
  facet normal 0 0 -1
    outer loop
      vertex 0 9.875 -1.5
      vertex 0 12.5 -1.5
      vertex 6.25 10.8253 -1.5
    endloop
  endfacet
  facet normal 0 0 -1
    outer loop
      vertex -0.4 8.75 -1.5
      vertex 0 9.875 -1.5
      vertex -0.321429 8.75 -1.5
    endloop
  endfacet
  facet normal 0 0 -1
    outer loop
      vertex -6.25 10.8253 -1.5
      vertex 0 9.875 -1.5
      vertex -0.4 8.75 -1.5
    endloop
  endfacet
  facet normal 0 0 -1
    outer loop
      vertex -0.4 8.475 -1.5
      vertex -6.25 10.8253 -1.5
      vertex -0.4 8.75 -1.5
    endloop
  endfacet
  facet normal 0 0 -1
    outer loop
      vertex -0.4 -8.75 -1.5
      vertex -10.8253 -6.25 -1.5
      vertex -1 6.375 -1.5
    endloop
  endfacet
  facet normal 0 0 -1
    outer loop
      vertex 0 9.875 -1.5
      vertex -6.25 10.8253 -1.5
      vertex 0 12.5 -1.5
    endloop
  endfacet
  facet normal 0 0 -1
    outer loop
      vertex -12.5 0 -1.5
      vertex -1 6.375 -1.5
      vertex -10.8253 -6.25 -1.5
    endloop
  endfacet
  facet normal -0 0 -1
    outer loop
      vertex -1 6.375 -1.5
      vertex -10.8253 6.25 -1.5
      vertex -6.25 10.8253 -1.5
    endloop
  endfacet
  facet normal 0 0 -1
    outer loop
      vertex -1 6.375 -1.5
      vertex -12.5 0 -1.5
      vertex -10.8253 6.25 -1.5
    endloop
  endfacet
  facet normal -0 0 -1
    outer loop
      vertex 1 6.375 -1.5
      vertex 0.4 -8.75 -1.5
      vertex 0.4 6.375 -1.5
    endloop
  endfacet
  facet normal 0.707107 -0.707107 0
    outer loop
      vertex 6.25 -10.8253 1.5
      vertex 10.8253 -6.25 -1.5
      vertex 10.8253 -6.25 1.5
    endloop
  endfacet
  facet normal 0.707107 -0.707107 0
    outer loop
      vertex 10.8253 -6.25 -1.5
      vertex 6.25 -10.8253 1.5
      vertex 6.25 -10.8253 -1.5
    endloop
  endfacet
  facet normal -0.258822 -0.965925 0
    outer loop
      vertex -6.25 -10.8253 -1.5
      vertex 0 -12.5 1.5
      vertex -6.25 -10.8253 1.5
    endloop
  endfacet
  facet normal -0.258822 -0.965925 -0
    outer loop
      vertex 0 -12.5 1.5
      vertex -6.25 -10.8253 -1.5
      vertex 0 -12.5 -1.5
    endloop
  endfacet
  facet normal -0.707107 -0.707107 0
    outer loop
      vertex -6.25 -10.8253 -1.5
      vertex -10.8253 -6.25 1.5
      vertex -10.8253 -6.25 -1.5
    endloop
  endfacet
  facet normal -0.707107 -0.707107 0
    outer loop
      vertex -10.8253 -6.25 1.5
      vertex -6.25 -10.8253 -1.5
      vertex -6.25 -10.8253 1.5
    endloop
  endfacet
  facet normal 0 0 1
    outer loop
      vertex -0.4 6.375 1.5
      vertex -1 6.375 1.5
      vertex -0.4 -8.75 1.5
    endloop
  endfacet
  facet normal 0 0 1
    outer loop
      vertex 1 6.375 1.5
      vertex 12.5 0 1.5
      vertex 10.8253 6.25 1.5
    endloop
  endfacet
  facet normal -0 0 1
    outer loop
      vertex 1 6.375 1.5
      vertex 10.8253 6.25 1.5
      vertex 6.25 10.8253 1.5
    endloop
  endfacet
  facet normal 0 0 1
    outer loop
      vertex 12.5 0 1.5
      vertex 1 6.375 1.5
      vertex 10.8253 -6.25 1.5
    endloop
  endfacet
  facet normal 0 0 1
    outer loop
      vertex 0.4 -8.75 1.5
      vertex 10.8253 -6.25 1.5
      vertex 1 6.375 1.5
    endloop
  endfacet
  facet normal 0 0 1
    outer loop
      vertex 0.4 8.475 1.5
      vertex 6.25 10.8253 1.5
      vertex 0.4 8.75 1.5
    endloop
  endfacet
  facet normal -0 0 1
    outer loop
      vertex 0 9.875 1.5
      vertex 0.4 8.75 1.5
      vertex 6.25 10.8253 1.5
    endloop
  endfacet
  facet normal 0 0 1
    outer loop
      vertex 0 9.875 1.5
      vertex 6.25 10.8253 1.5
      vertex 0 12.5 1.5
    endloop
  endfacet
  facet normal 0 0 1
    outer loop
      vertex 0.4 8.75 1.5
      vertex 0 9.875 1.5
      vertex 0.321429 8.75 1.5
    endloop
  endfacet
  facet normal -0 0 1
    outer loop
      vertex -6.25 10.8253 1.5
      vertex 0 9.875 1.5
      vertex 0 12.5 1.5
    endloop
  endfacet
  facet normal 0 0 1
    outer loop
      vertex 0 9.875 1.5
      vertex -0.4 8.75 1.5
      vertex -0.321429 8.75 1.5
    endloop
  endfacet
  facet normal 0 0 1
    outer loop
      vertex -6.25 10.8253 1.5
      vertex -0.4 8.475 1.5
      vertex -0.4 8.75 1.5
    endloop
  endfacet
  facet normal 0 0 1
    outer loop
      vertex 0 9.875 1.5
      vertex -6.25 10.8253 1.5
      vertex -0.4 8.75 1.5
    endloop
  endfacet
  facet normal 0 0 1
    outer loop
      vertex -0.4 8.475 1.5
      vertex -6.25 10.8253 1.5
      vertex -1 6.375 1.5
    endloop
  endfacet
  facet normal 0 0 1
    outer loop
      vertex 0.4 -8.75 1.5
      vertex 1 6.375 1.5
      vertex 0.4 6.375 1.5
    endloop
  endfacet
  facet normal 0 0 1
    outer loop
      vertex 10.8253 -6.25 1.5
      vertex 0.4 -8.75 1.5
      vertex 6.25 -10.8253 1.5
    endloop
  endfacet
  facet normal 0 0 1
    outer loop
      vertex 0.4 -8.75 1.5
      vertex 0 -12.5 1.5
      vertex 6.25 -10.8253 1.5
    endloop
  endfacet
  facet normal -0 0 1
    outer loop
      vertex -0.4 -8.75 1.5
      vertex 0 -12.5 1.5
      vertex 0.4 -8.75 1.5
    endloop
  endfacet
  facet normal 0 0 1
    outer loop
      vertex -10.8253 6.25 1.5
      vertex -1 6.375 1.5
      vertex -6.25 10.8253 1.5
    endloop
  endfacet
  facet normal 0 0 1
    outer loop
      vertex -12.5 0 1.5
      vertex -1 6.375 1.5
      vertex -10.8253 6.25 1.5
    endloop
  endfacet
  facet normal 0 0 1
    outer loop
      vertex -0.4 -8.75 1.5
      vertex -6.25 -10.8253 1.5
      vertex 0 -12.5 1.5
    endloop
  endfacet
  facet normal 0 -0 1
    outer loop
      vertex -10.8253 -6.25 1.5
      vertex -1 6.375 1.5
      vertex -12.5 0 1.5
    endloop
  endfacet
  facet normal 0 0 1
    outer loop
      vertex -0.4 -8.75 1.5
      vertex -10.8253 -6.25 1.5
      vertex -6.25 -10.8253 1.5
    endloop
  endfacet
  facet normal 0 0 1
    outer loop
      vertex -1 6.375 1.5
      vertex -10.8253 -6.25 1.5
      vertex -0.4 -8.75 1.5
    endloop
  endfacet
  facet normal 0 0 1
    outer loop
      vertex 6.25 10.8253 1.5
      vertex 0.4 8.475 1.5
      vertex 1 6.375 1.5
    endloop
  endfacet
endsolid OpenSCAD_Model
