solid OpenSCAD_Model
  facet normal -0.890139 0.455689 0
    outer loop
      vertex -4.31825 -7.31476 -1.5
      vertex -3.85201 -6.40401 1.5
      vertex -3.85201 -6.40401 -1.5
    endloop
  endfacet
  facet normal -0.890139 0.455689 0
    outer loop
      vertex -3.85201 -6.40401 1.5
      vertex -4.31825 -7.31476 -1.5
      vertex -4.31825 -7.31476 1.5
    endloop
  endfacet
  facet normal -0.831136 0.556069 0
    outer loop
      vertex -3.85201 -6.40401 -1.5
      vertex -3.17476 -5.39175 1.5
      vertex -3.17476 -5.39175 -1.5
    endloop
  endfacet
  facet normal -0.831136 0.556069 0
    outer loop
      vertex -3.17476 -5.39175 1.5
      vertex -3.85201 -6.40401 -1.5
      vertex -3.85201 -6.40401 1.5
    endloop
  endfacet
  facet normal -0.798914 0.601445 0
    outer loop
      vertex -3.17476 -5.39175 -1.5
      vertex -2.19101 -4.08501 1.5
      vertex -2.19101 -4.08501 -1.5
    endloop
  endfacet
  facet normal -0.798914 0.601445 0
    outer loop
      vertex -2.19101 -4.08501 1.5
      vertex -3.17476 -5.39175 -1.5
      vertex -3.17476 -5.39175 1.5
    endloop
  endfacet
  facet normal -0.801895 0.597465 0
    outer loop
      vertex -2.19101 -4.08501 -1.5
      vertex -1.42526 -3.05725 1.5
      vertex -1.42526 -3.05725 -1.5
    endloop
  endfacet
  facet normal -0.801895 0.597465 0
    outer loop
      vertex -1.42526 -3.05725 1.5
      vertex -2.19101 -4.08501 -1.5
      vertex -2.19101 -4.08501 1.5
    endloop
  endfacet
  facet normal -0.866758 0.498729 0
    outer loop
      vertex -1.42526 -3.05725 -1.5
      vertex -0.932007 -2.20001 1.5
      vertex -0.932007 -2.20001 -1.5
    endloop
  endfacet
  facet normal -0.866758 0.498729 0
    outer loop
      vertex -0.932007 -2.20001 1.5
      vertex -1.42526 -3.05725 -1.5
      vertex -1.42526 -3.05725 1.5
    endloop
  endfacet
  facet normal -0.941986 0.335653 0
    outer loop
      vertex -0.932007 -2.20001 -1.5
      vertex -0.663513 -1.4465 1.5
      vertex -0.663513 -1.4465 -1.5
    endloop
  endfacet
  facet normal -0.941986 0.335653 0
    outer loop
      vertex -0.663513 -1.4465 1.5
      vertex -0.932007 -2.20001 -1.5
      vertex -0.932007 -2.20001 1.5
    endloop
  endfacet
  facet normal -0.992287 0.123962 0
    outer loop
      vertex -0.663513 -1.4465 -1.5
      vertex -0.574005 -0.730011 1.5
      vertex -0.574005 -0.730011 -1.5
    endloop
  endfacet
  facet normal -0.992287 0.123962 0
    outer loop
      vertex -0.574005 -0.730011 1.5
      vertex -0.663513 -1.4465 -1.5
      vertex -0.663513 -1.4465 1.5
    endloop
  endfacet
  facet normal -0.981028 -0.193868 0
    outer loop
      vertex -0.574005 -0.730011 -1.5
      vertex -0.719254 0.00498962 1.5
      vertex -0.719254 0.00498962 -1.5
    endloop
  endfacet
  facet normal -0.981028 -0.193868 0
    outer loop
      vertex -0.719254 0.00498962 1.5
      vertex -0.574005 -0.730011 -1.5
      vertex -0.574005 -0.730011 1.5
    endloop
  endfacet
  facet normal -0.815056 -0.579383 0
    outer loop
      vertex -0.719254 0.00498962 -1.5
      vertex -1.15501 0.617996 1.5
      vertex -1.15501 0.617996 -1.5
    endloop
  endfacet
  facet normal -0.815056 -0.579383 0
    outer loop
      vertex -1.15501 0.617996 1.5
      vertex -0.719254 0.00498962 -1.5
      vertex -0.719254 0.00498962 1.5
    endloop
  endfacet
  facet normal -0.548211 -0.83634 0
    outer loop
      vertex -1.78775 1.03275 -1.5
      vertex -1.15501 0.617996 1.5
      vertex -1.78775 1.03275 1.5
    endloop
  endfacet
  facet normal -0.548211 -0.83634 -0
    outer loop
      vertex -1.15501 0.617996 1.5
      vertex -1.78775 1.03275 -1.5
      vertex -1.15501 0.617996 -1.5
    endloop
  endfacet
  facet normal -0.184538 -0.982825 0
    outer loop
      vertex -2.524 1.17099 -1.5
      vertex -1.78775 1.03275 1.5
      vertex -2.524 1.17099 1.5
    endloop
  endfacet
  facet normal -0.184538 -0.982825 -0
    outer loop
      vertex -1.78775 1.03275 1.5
      vertex -2.524 1.17099 -1.5
      vertex -1.78775 1.03275 -1.5
    endloop
  endfacet
  facet normal 0.17189 -0.985116 0
    outer loop
      vertex -3.20451 1.05225 -1.5
      vertex -2.524 1.17099 1.5
      vertex -3.20451 1.05225 1.5
    endloop
  endfacet
  facet normal 0.17189 -0.985116 0
    outer loop
      vertex -2.524 1.17099 1.5
      vertex -3.20451 1.05225 -1.5
      vertex -2.524 1.17099 -1.5
    endloop
  endfacet
  facet normal 0.503389 -0.86406 0
    outer loop
      vertex -3.81601 0.695999 -1.5
      vertex -3.20451 1.05225 1.5
      vertex -3.81601 0.695999 1.5
    endloop
  endfacet
  facet normal 0.503389 -0.86406 0
    outer loop
      vertex -3.20451 1.05225 1.5
      vertex -3.81601 0.695999 -1.5
      vertex -3.20451 1.05225 -1.5
    endloop
  endfacet
  facet normal 0.766068 -0.642759 0
    outer loop
      vertex -4.31776 0.0979919 1.5
      vertex -3.81601 0.695999 -1.5
      vertex -3.81601 0.695999 1.5
    endloop
  endfacet
  facet normal 0.766068 -0.642759 0
    outer loop
      vertex -3.81601 0.695999 -1.5
      vertex -4.31776 0.0979919 1.5
      vertex -4.31776 0.0979919 -1.5
    endloop
  endfacet
  facet normal 0.923238 -0.384229 0
    outer loop
      vertex -4.66901 -0.746002 1.5
      vertex -4.31776 0.0979919 -1.5
      vertex -4.31776 0.0979919 1.5
    endloop
  endfacet
  facet normal 0.923238 -0.384229 0
    outer loop
      vertex -4.31776 0.0979919 -1.5
      vertex -4.66901 -0.746002 1.5
      vertex -4.66901 -0.746002 -1.5
    endloop
  endfacet
  facet normal -0.913589 -0.406639 0
    outer loop
      vertex -4.66901 -0.746002 -1.5
      vertex -5.04601 0.100998 1.5
      vertex -5.04601 0.100998 -1.5
    endloop
  endfacet
  facet normal -0.913589 -0.406639 0
    outer loop
      vertex -5.04601 0.100998 1.5
      vertex -4.66901 -0.746002 -1.5
      vertex -4.66901 -0.746002 1.5
    endloop
  endfacet
  facet normal -0.755176 -0.655522 0
    outer loop
      vertex -5.04601 0.100998 -1.5
      vertex -5.55901 0.691986 1.5
      vertex -5.55901 0.691986 -1.5
    endloop
  endfacet
  facet normal -0.755176 -0.655522 0
    outer loop
      vertex -5.55901 0.691986 1.5
      vertex -5.04601 0.100998 -1.5
      vertex -5.04601 0.100998 1.5
    endloop
  endfacet
  facet normal -0.493664 -0.869653 0
    outer loop
      vertex -6.17076 1.03925 -1.5
      vertex -5.55901 0.691986 1.5
      vertex -6.17076 1.03925 1.5
    endloop
  endfacet
  facet normal -0.493664 -0.869653 -0
    outer loop
      vertex -5.55901 0.691986 1.5
      vertex -6.17076 1.03925 -1.5
      vertex -5.55901 0.691986 -1.5
    endloop
  endfacet
  facet normal -0.168954 -0.985624 0
    outer loop
      vertex -6.84601 1.155 -1.5
      vertex -6.17076 1.03925 1.5
      vertex -6.84601 1.155 1.5
    endloop
  endfacet
  facet normal -0.168954 -0.985624 -0
    outer loop
      vertex -6.17076 1.03925 1.5
      vertex -6.84601 1.155 -1.5
      vertex -6.17076 1.03925 -1.5
    endloop
  endfacet
  facet normal 0.180914 -0.983499 0
    outer loop
      vertex -7.60301 1.01575 -1.5
      vertex -6.84601 1.155 1.5
      vertex -7.60301 1.01575 1.5
    endloop
  endfacet
  facet normal 0.180914 -0.983499 0
    outer loop
      vertex -6.84601 1.155 1.5
      vertex -7.60301 1.01575 -1.5
      vertex -6.84601 1.155 -1.5
    endloop
  endfacet
  facet normal 0.553255 -0.833012 0
    outer loop
      vertex -8.23201 0.597992 -1.5
      vertex -7.60301 1.01575 1.5
      vertex -8.23201 0.597992 1.5
    endloop
  endfacet
  facet normal 0.553255 -0.833012 0
    outer loop
      vertex -7.60301 1.01575 1.5
      vertex -8.23201 0.597992 -1.5
      vertex -7.60301 1.01575 -1.5
    endloop
  endfacet
  facet normal 0.831948 -0.554853 0
    outer loop
      vertex -8.65501 -0.0362549 1.5
      vertex -8.23201 0.597992 -1.5
      vertex -8.23201 0.597992 1.5
    endloop
  endfacet
  facet normal 0.831948 -0.554853 0
    outer loop
      vertex -8.23201 0.597992 -1.5
      vertex -8.65501 -0.0362549 1.5
      vertex -8.65501 -0.0362549 -1.5
    endloop
  endfacet
  facet normal 0.984472 -0.175542 0
    outer loop
      vertex -8.79601 -0.827011 1.5
      vertex -8.65501 -0.0362549 -1.5
      vertex -8.65501 -0.0362549 1.5
    endloop
  endfacet
  facet normal 0.984472 -0.175542 0
    outer loop
      vertex -8.65501 -0.0362549 -1.5
      vertex -8.79601 -0.827011 1.5
      vertex -8.79601 -0.827011 -1.5
    endloop
  endfacet
  facet normal 0.994765 0.102185 0
    outer loop
      vertex -8.74126 -1.36 1.5
      vertex -8.79601 -0.827011 -1.5
      vertex -8.79601 -0.827011 1.5
    endloop
  endfacet
  facet normal 0.994765 0.102185 0
    outer loop
      vertex -8.79601 -0.827011 -1.5
      vertex -8.74126 -1.36 1.5
      vertex -8.74126 -1.36 -1.5
    endloop
  endfacet
  facet normal 0.954707 0.297548 0
    outer loop
      vertex -8.57701 -1.88701 1.5
      vertex -8.74126 -1.36 -1.5
      vertex -8.74126 -1.36 1.5
    endloop
  endfacet
  facet normal 0.954707 0.297548 0
    outer loop
      vertex -8.74126 -1.36 -1.5
      vertex -8.57701 -1.88701 1.5
      vertex -8.57701 -1.88701 -1.5
    endloop
  endfacet
  facet normal 0.882807 0.469735 0
    outer loop
      vertex -8.25975 -2.48326 1.5
      vertex -8.57701 -1.88701 -1.5
      vertex -8.57701 -1.88701 1.5
    endloop
  endfacet
  facet normal 0.882807 0.469735 0
    outer loop
      vertex -8.57701 -1.88701 -1.5
      vertex -8.25975 -2.48326 1.5
      vertex -8.25975 -2.48326 -1.5
    endloop
  endfacet
  facet normal 0.822752 0.568401 0
    outer loop
      vertex -7.748 -3.22401 1.5
      vertex -8.25975 -2.48326 -1.5
      vertex -8.25975 -2.48326 1.5
    endloop
  endfacet
  facet normal 0.822752 0.568401 0
    outer loop
      vertex -8.25975 -2.48326 -1.5
      vertex -7.748 -3.22401 1.5
      vertex -7.748 -3.22401 -1.5
    endloop
  endfacet
  facet normal 0.807025 0.590518 0
    outer loop
      vertex -7.01701 -4.22301 1.5
      vertex -7.748 -3.22401 -1.5
      vertex -7.748 -3.22401 1.5
    endloop
  endfacet
  facet normal 0.807025 0.590518 0
    outer loop
      vertex -7.748 -3.22401 -1.5
      vertex -7.01701 -4.22301 1.5
      vertex -7.01701 -4.22301 -1.5
    endloop
  endfacet
  facet normal 0.812351 0.583169 0
    outer loop
      vertex -5.85226 -5.8455 1.5
      vertex -7.01701 -4.22301 -1.5
      vertex -7.01701 -4.22301 1.5
    endloop
  endfacet
  facet normal 0.812351 0.583169 0
    outer loop
      vertex -7.01701 -4.22301 -1.5
      vertex -5.85226 -5.8455 1.5
      vertex -5.85226 -5.8455 -1.5
    endloop
  endfacet
  facet normal 0.8523 0.523053 0
    outer loop
      vertex -5.218 -6.87901 1.5
      vertex -5.85226 -5.8455 -1.5
      vertex -5.85226 -5.8455 1.5
    endloop
  endfacet
  facet normal 0.8523 0.523053 0
    outer loop
      vertex -5.85226 -5.8455 -1.5
      vertex -5.218 -6.87901 1.5
      vertex -5.218 -6.87901 -1.5
    endloop
  endfacet
  facet normal 0.914623 0.404309 0
    outer loop
      vertex -4.89575 -7.608 1.5
      vertex -5.218 -6.87901 -1.5
      vertex -5.218 -6.87901 1.5
    endloop
  endfacet
  facet normal 0.914623 0.404309 0
    outer loop
      vertex -5.218 -6.87901 -1.5
      vertex -4.89575 -7.608 1.5
      vertex -4.89575 -7.608 -1.5
    endloop
  endfacet
  facet normal 0.952477 0.304609 0
    outer loop
      vertex -4.66901 -8.31699 1.5
      vertex -4.89575 -7.608 -1.5
      vertex -4.89575 -7.608 1.5
    endloop
  endfacet
  facet normal 0.952477 0.304609 0
    outer loop
      vertex -4.89575 -7.608 -1.5
      vertex -4.66901 -8.31699 1.5
      vertex -4.66901 -8.31699 -1.5
    endloop
  endfacet
  facet normal -0.943864 0.330333 0
    outer loop
      vertex -4.66901 -8.31699 -1.5
      vertex -4.31825 -7.31476 1.5
      vertex -4.31825 -7.31476 -1.5
    endloop
  endfacet
  facet normal -0.943864 0.330333 0
    outer loop
      vertex -4.31825 -7.31476 1.5
      vertex -4.66901 -8.31699 -1.5
      vertex -4.66901 -8.31699 1.5
    endloop
  endfacet
  facet normal 0 1 -0
    outer loop
      vertex 7.93799 3.769 -1.5
      vertex 3.34 3.769 1.5
      vertex 7.93799 3.769 1.5
    endloop
  endfacet
  facet normal 0 1 0
    outer loop
      vertex 3.34 3.769 1.5
      vertex 7.93799 3.769 -1.5
      vertex 3.34 3.769 -1.5
    endloop
  endfacet
  facet normal -1 0 0
    outer loop
      vertex 7.93799 3.769 -1.5
      vertex 7.93799 5.25099 1.5
      vertex 7.93799 5.25099 -1.5
    endloop
  endfacet
  facet normal -1 -0 0
    outer loop
      vertex 7.93799 5.25099 1.5
      vertex 7.93799 3.769 -1.5
      vertex 7.93799 3.769 1.5
    endloop
  endfacet
  facet normal 0 -1 0
    outer loop
      vertex -3.063 5.25099 -1.5
      vertex 7.93799 5.25099 1.5
      vertex -3.063 5.25099 1.5
    endloop
  endfacet
  facet normal 0 -1 -0
    outer loop
      vertex 7.93799 5.25099 1.5
      vertex -3.063 5.25099 -1.5
      vertex 7.93799 5.25099 -1.5
    endloop
  endfacet
  facet normal 1 -0 0
    outer loop
      vertex -3.063 3.769 1.5
      vertex -3.063 5.25099 -1.5
      vertex -3.063 5.25099 1.5
    endloop
  endfacet
  facet normal 1 0 0
    outer loop
      vertex -3.063 5.25099 -1.5
      vertex -3.063 3.769 1.5
      vertex -3.063 3.769 -1.5
    endloop
  endfacet
  facet normal 0 1 -0
    outer loop
      vertex 1.53499 3.769 -1.5
      vertex -3.063 3.769 1.5
      vertex 1.53499 3.769 1.5
    endloop
  endfacet
  facet normal 0 1 0
    outer loop
      vertex -3.063 3.769 1.5
      vertex 1.53499 3.769 -1.5
      vertex -3.063 3.769 -1.5
    endloop
  endfacet
  facet normal 1 -0 0
    outer loop
      vertex 1.53499 -8.125 1.5
      vertex 1.53499 3.769 -1.5
      vertex 1.53499 3.769 1.5
    endloop
  endfacet
  facet normal 1 0 0
    outer loop
      vertex 1.53499 3.769 -1.5
      vertex 1.53499 -8.125 1.5
      vertex 1.53499 -8.125 -1.5
    endloop
  endfacet
  facet normal 0 1 -0
    outer loop
      vertex 3.34 -8.125 -1.5
      vertex 1.53499 -8.125 1.5
      vertex 3.34 -8.125 1.5
    endloop
  endfacet
  facet normal 0 1 0
    outer loop
      vertex 1.53499 -8.125 1.5
      vertex 3.34 -8.125 -1.5
      vertex 1.53499 -8.125 -1.5
    endloop
  endfacet
  facet normal -1 0 0
    outer loop
      vertex 3.34 -8.125 -1.5
      vertex 3.34 3.769 1.5
      vertex 3.34 3.769 -1.5
    endloop
  endfacet
  facet normal -1 -0 0
    outer loop
      vertex 3.34 3.769 1.5
      vertex 3.34 -8.125 -1.5
      vertex 3.34 -8.125 1.5
    endloop
  endfacet
  facet normal -0.965925 -0.258822 0
    outer loop
      vertex -10.8253 -6.25 -1.5
      vertex -12.5 0 1.5
      vertex -12.5 0 -1.5
    endloop
  endfacet
  facet normal -0.965925 -0.258822 0
    outer loop
      vertex -12.5 0 1.5
      vertex -10.8253 -6.25 -1.5
      vertex -10.8253 -6.25 1.5
    endloop
  endfacet
  facet normal 0.707107 0.707107 0
    outer loop
      vertex 10.8253 6.25 1.5
      vertex 6.25 10.8253 -1.5
      vertex 6.25 10.8253 1.5
    endloop
  endfacet
  facet normal 0.707107 0.707107 0
    outer loop
      vertex 6.25 10.8253 -1.5
      vertex 10.8253 6.25 1.5
      vertex 10.8253 6.25 -1.5
    endloop
  endfacet
  facet normal 0.965925 0.258822 0
    outer loop
      vertex 12.5 0 1.5
      vertex 10.8253 6.25 -1.5
      vertex 10.8253 6.25 1.5
    endloop
  endfacet
  facet normal 0.965925 0.258822 0
    outer loop
      vertex 10.8253 6.25 -1.5
      vertex 12.5 0 1.5
      vertex 12.5 0 -1.5
    endloop
  endfacet
  facet normal 0.258822 0.965925 -0
    outer loop
      vertex 6.25 10.8253 -1.5
      vertex 0 12.5 1.5
      vertex 6.25 10.8253 1.5
    endloop
  endfacet
  facet normal 0.258822 0.965925 0
    outer loop
      vertex 0 12.5 1.5
      vertex 6.25 10.8253 -1.5
      vertex 0 12.5 -1.5
    endloop
  endfacet
  facet normal 0.258822 -0.965925 0
    outer loop
      vertex 0 -12.5 -1.5
      vertex 6.25 -10.8253 1.5
      vertex 0 -12.5 1.5
    endloop
  endfacet
  facet normal 0.258822 -0.965925 0
    outer loop
      vertex 6.25 -10.8253 1.5
      vertex 0 -12.5 -1.5
      vertex 6.25 -10.8253 -1.5
    endloop
  endfacet
  facet normal 0.965925 -0.258822 0
    outer loop
      vertex 10.8253 -6.25 1.5
      vertex 12.5 0 -1.5
      vertex 12.5 0 1.5
    endloop
  endfacet
  facet normal 0.965925 -0.258822 0
    outer loop
      vertex 12.5 0 -1.5
      vertex 10.8253 -6.25 1.5
      vertex 10.8253 -6.25 -1.5
    endloop
  endfacet
  facet normal -0.707107 0.707107 0
    outer loop
      vertex -10.8253 6.25 -1.5
      vertex -6.25 10.8253 1.5
      vertex -6.25 10.8253 -1.5
    endloop
  endfacet
  facet normal -0.707107 0.707107 0
    outer loop
      vertex -6.25 10.8253 1.5
      vertex -10.8253 6.25 -1.5
      vertex -10.8253 6.25 1.5
    endloop
  endfacet
  facet normal -0.258822 0.965925 0
    outer loop
      vertex 0 12.5 -1.5
      vertex -6.25 10.8253 1.5
      vertex 0 12.5 1.5
    endloop
  endfacet
  facet normal -0.258822 0.965925 0
    outer loop
      vertex -6.25 10.8253 1.5
      vertex 0 12.5 -1.5
      vertex -6.25 10.8253 -1.5
    endloop
  endfacet
  facet normal -0.965925 0.258822 0
    outer loop
      vertex -12.5 0 -1.5
      vertex -10.8253 6.25 1.5
      vertex -10.8253 6.25 -1.5
    endloop
  endfacet
  facet normal -0.965925 0.258822 0
    outer loop
      vertex -10.8253 6.25 1.5
      vertex -12.5 0 -1.5
      vertex -12.5 0 1.5
    endloop
  endfacet
  facet normal 0 0 -1
    outer loop
      vertex 1.53499 -8.125 -1.5
      vertex -0.663513 -1.4465 -1.5
      vertex -0.574005 -0.730011 -1.5
    endloop
  endfacet
  facet normal 0 0 -1
    outer loop
      vertex 1.53499 -8.125 -1.5
      vertex -0.932007 -2.20001 -1.5
      vertex -0.663513 -1.4465 -1.5
    endloop
  endfacet
  facet normal 0 0 -1
    outer loop
      vertex 1.53499 -8.125 -1.5
      vertex -1.42526 -3.05725 -1.5
      vertex -0.932007 -2.20001 -1.5
    endloop
  endfacet
  facet normal 0 0 -1
    outer loop
      vertex 1.53499 -8.125 -1.5
      vertex -2.19101 -4.08501 -1.5
      vertex -1.42526 -3.05725 -1.5
    endloop
  endfacet
  facet normal 0 0 -1
    outer loop
      vertex 1.53499 -8.125 -1.5
      vertex -3.17476 -5.39175 -1.5
      vertex -2.19101 -4.08501 -1.5
    endloop
  endfacet
  facet normal 0 0 -1
    outer loop
      vertex 1.53499 -8.125 -1.5
      vertex -3.85201 -6.40401 -1.5
      vertex -3.17476 -5.39175 -1.5
    endloop
  endfacet
  facet normal 0 0 -1
    outer loop
      vertex 1.53499 -8.125 -1.5
      vertex -4.31825 -7.31476 -1.5
      vertex -3.85201 -6.40401 -1.5
    endloop
  endfacet
  facet normal -0 0 -1
    outer loop
      vertex 1.53499 -8.125 -1.5
      vertex -4.66901 -8.31699 -1.5
      vertex -4.31825 -7.31476 -1.5
    endloop
  endfacet
  facet normal 0 0 -1
    outer loop
      vertex -6.25 -10.8253 -1.5
      vertex -4.89575 -7.608 -1.5
      vertex -4.66901 -8.31699 -1.5
    endloop
  endfacet
  facet normal -0 0 -1
    outer loop
      vertex -4.89575 -7.608 -1.5
      vertex -6.25 -10.8253 -1.5
      vertex -5.218 -6.87901 -1.5
    endloop
  endfacet
  facet normal 0 0 -1
    outer loop
      vertex -6.25 -10.8253 -1.5
      vertex -4.66901 -8.31699 -1.5
      vertex 0 -12.5 -1.5
    endloop
  endfacet
  facet normal 0 0 -1
    outer loop
      vertex -10.8253 -6.25 -1.5
      vertex -5.218 -6.87901 -1.5
      vertex -6.25 -10.8253 -1.5
    endloop
  endfacet
  facet normal 0 0 -1
    outer loop
      vertex -5.218 -6.87901 -1.5
      vertex -10.8253 -6.25 -1.5
      vertex -5.85226 -5.8455 -1.5
    endloop
  endfacet
  facet normal -0 0 -1
    outer loop
      vertex -5.85226 -5.8455 -1.5
      vertex -10.8253 -6.25 -1.5
      vertex -7.01701 -4.22301 -1.5
    endloop
  endfacet
  facet normal -0 0 -1
    outer loop
      vertex -7.01701 -4.22301 -1.5
      vertex -10.8253 -6.25 -1.5
      vertex -7.748 -3.22401 -1.5
    endloop
  endfacet
  facet normal -0 0 -1
    outer loop
      vertex -7.748 -3.22401 -1.5
      vertex -10.8253 -6.25 -1.5
      vertex -8.25975 -2.48326 -1.5
    endloop
  endfacet
  facet normal -0 0 -1
    outer loop
      vertex -8.25975 -2.48326 -1.5
      vertex -10.8253 -6.25 -1.5
      vertex -8.57701 -1.88701 -1.5
    endloop
  endfacet
  facet normal 0 0 -1
    outer loop
      vertex -8.57701 -1.88701 -1.5
      vertex -12.5 0 -1.5
      vertex -8.74126 -1.36 -1.5
    endloop
  endfacet
  facet normal 0 0 -1
    outer loop
      vertex -12.5 0 -1.5
      vertex -8.57701 -1.88701 -1.5
      vertex -10.8253 -6.25 -1.5
    endloop
  endfacet
  facet normal 0 0 -1
    outer loop
      vertex 0 -12.5 -1.5
      vertex 3.34 -8.125 -1.5
      vertex 6.25 -10.8253 -1.5
    endloop
  endfacet
  facet normal -0 0 -1
    outer loop
      vertex 3.34 -8.125 -1.5
      vertex 0 -12.5 -1.5
      vertex 1.53499 -8.125 -1.5
    endloop
  endfacet
  facet normal 0 0 -1
    outer loop
      vertex -4.66901 -8.31699 -1.5
      vertex 1.53499 -8.125 -1.5
      vertex 0 -12.5 -1.5
    endloop
  endfacet
  facet normal 0 0 -1
    outer loop
      vertex 1.53499 -8.125 -1.5
      vertex -0.574005 -0.730011 -1.5
      vertex 1.53499 3.769 -1.5
    endloop
  endfacet
  facet normal 0 0 -1
    outer loop
      vertex -0.719254 0.00498962 -1.5
      vertex 1.53499 3.769 -1.5
      vertex -0.574005 -0.730011 -1.5
    endloop
  endfacet
  facet normal 0 0 -1
    outer loop
      vertex -1.15501 0.617996 -1.5
      vertex 1.53499 3.769 -1.5
      vertex -0.719254 0.00498962 -1.5
    endloop
  endfacet
  facet normal 0 0 -1
    outer loop
      vertex -1.78775 1.03275 -1.5
      vertex 1.53499 3.769 -1.5
      vertex -1.15501 0.617996 -1.5
    endloop
  endfacet
  facet normal 0 0 -1
    outer loop
      vertex -3.063 3.769 -1.5
      vertex -1.78775 1.03275 -1.5
      vertex -2.524 1.17099 -1.5
    endloop
  endfacet
  facet normal 0 0 -1
    outer loop
      vertex -1.78775 1.03275 -1.5
      vertex -3.063 3.769 -1.5
      vertex 1.53499 3.769 -1.5
    endloop
  endfacet
  facet normal 0 0 -1
    outer loop
      vertex -3.81601 0.695999 -1.5
      vertex -3.063 3.769 -1.5
      vertex -3.20451 1.05225 -1.5
    endloop
  endfacet
  facet normal 0 0 -1
    outer loop
      vertex -3.20451 1.05225 -1.5
      vertex -3.063 3.769 -1.5
      vertex -2.524 1.17099 -1.5
    endloop
  endfacet
  facet normal 0 0 -1
    outer loop
      vertex 7.93799 3.769 -1.5
      vertex 12.5 0 -1.5
      vertex 10.8253 -6.25 -1.5
    endloop
  endfacet
  facet normal 0 0 -1
    outer loop
      vertex 12.5 0 -1.5
      vertex 7.93799 3.769 -1.5
      vertex 10.8253 6.25 -1.5
    endloop
  endfacet
  facet normal 0 0 -1
    outer loop
      vertex 3.34 -8.125 -1.5
      vertex 10.8253 -6.25 -1.5
      vertex 6.25 -10.8253 -1.5
    endloop
  endfacet
  facet normal -0 0 -1
    outer loop
      vertex 10.8253 -6.25 -1.5
      vertex 3.34 -8.125 -1.5
      vertex 7.93799 3.769 -1.5
    endloop
  endfacet
  facet normal -0 0 -1
    outer loop
      vertex 7.93799 3.769 -1.5
      vertex 3.34 -8.125 -1.5
      vertex 3.34 3.769 -1.5
    endloop
  endfacet
  facet normal 0 0 -1
    outer loop
      vertex 7.93799 5.25099 -1.5
      vertex 10.8253 6.25 -1.5
      vertex 7.93799 3.769 -1.5
    endloop
  endfacet
  facet normal 0 0 -1
    outer loop
      vertex 7.93799 5.25099 -1.5
      vertex 6.25 10.8253 -1.5
      vertex 10.8253 6.25 -1.5
    endloop
  endfacet
  facet normal 0 0 -1
    outer loop
      vertex -3.063 5.25099 -1.5
      vertex 6.25 10.8253 -1.5
      vertex 7.93799 5.25099 -1.5
    endloop
  endfacet
  facet normal -0 0 -1
    outer loop
      vertex 6.25 10.8253 -1.5
      vertex -3.063 5.25099 -1.5
      vertex 0 12.5 -1.5
    endloop
  endfacet
  facet normal 0 0 -1
    outer loop
      vertex -5.55901 0.691986 -1.5
      vertex -3.063 3.769 -1.5
      vertex -3.81601 0.695999 -1.5
    endloop
  endfacet
  facet normal 0 0 -1
    outer loop
      vertex -5.04601 0.100998 -1.5
      vertex -3.81601 0.695999 -1.5
      vertex -4.31776 0.0979919 -1.5
    endloop
  endfacet
  facet normal 0 0 -1
    outer loop
      vertex -5.04601 0.100998 -1.5
      vertex -4.31776 0.0979919 -1.5
      vertex -4.66901 -0.746002 -1.5
    endloop
  endfacet
  facet normal 0 0 -1
    outer loop
      vertex -3.81601 0.695999 -1.5
      vertex -5.04601 0.100998 -1.5
      vertex -5.55901 0.691986 -1.5
    endloop
  endfacet
  facet normal 0 0 -1
    outer loop
      vertex -3.063 3.769 -1.5
      vertex -5.55901 0.691986 -1.5
      vertex -6.17076 1.03925 -1.5
    endloop
  endfacet
  facet normal 0 0 -1
    outer loop
      vertex -6.84601 1.155 -1.5
      vertex -3.063 3.769 -1.5
      vertex -6.17076 1.03925 -1.5
    endloop
  endfacet
  facet normal -0 0 -1
    outer loop
      vertex -3.063 3.769 -1.5
      vertex -6.84601 1.155 -1.5
      vertex -3.063 5.25099 -1.5
    endloop
  endfacet
  facet normal 0 0 -1
    outer loop
      vertex -3.063 5.25099 -1.5
      vertex -6.25 10.8253 -1.5
      vertex 0 12.5 -1.5
    endloop
  endfacet
  facet normal 0 0 -1
    outer loop
      vertex -10.8253 6.25 -1.5
      vertex -3.063 5.25099 -1.5
      vertex -6.84601 1.155 -1.5
    endloop
  endfacet
  facet normal 0 0 -1
    outer loop
      vertex -10.8253 6.25 -1.5
      vertex -6.84601 1.155 -1.5
      vertex -7.60301 1.01575 -1.5
    endloop
  endfacet
  facet normal 0 0 -1
    outer loop
      vertex -10.8253 6.25 -1.5
      vertex -7.60301 1.01575 -1.5
      vertex -8.23201 0.597992 -1.5
    endloop
  endfacet
  facet normal 0 0 -1
    outer loop
      vertex -12.5 0 -1.5
      vertex -8.23201 0.597992 -1.5
      vertex -8.65501 -0.0362549 -1.5
    endloop
  endfacet
  facet normal 0 0 -1
    outer loop
      vertex -8.74126 -1.36 -1.5
      vertex -12.5 0 -1.5
      vertex -8.79601 -0.827011 -1.5
    endloop
  endfacet
  facet normal 0 0 -1
    outer loop
      vertex -8.79601 -0.827011 -1.5
      vertex -12.5 0 -1.5
      vertex -8.65501 -0.0362549 -1.5
    endloop
  endfacet
  facet normal 0 0 -1
    outer loop
      vertex -3.063 5.25099 -1.5
      vertex -10.8253 6.25 -1.5
      vertex -6.25 10.8253 -1.5
    endloop
  endfacet
  facet normal -0 0 -1
    outer loop
      vertex -8.23201 0.597992 -1.5
      vertex -12.5 0 -1.5
      vertex -10.8253 6.25 -1.5
    endloop
  endfacet
  facet normal 0.707107 -0.707107 0
    outer loop
      vertex 6.25 -10.8253 1.5
      vertex 10.8253 -6.25 -1.5
      vertex 10.8253 -6.25 1.5
    endloop
  endfacet
  facet normal 0.707107 -0.707107 0
    outer loop
      vertex 10.8253 -6.25 -1.5
      vertex 6.25 -10.8253 1.5
      vertex 6.25 -10.8253 -1.5
    endloop
  endfacet
  facet normal -0 0 1
    outer loop
      vertex -0.663513 -1.4465 1.5
      vertex 1.53499 -8.125 1.5
      vertex 1.53499 3.769 1.5
    endloop
  endfacet
  facet normal 0 0 1
    outer loop
      vertex -0.663513 -1.4465 1.5
      vertex 1.53499 3.769 1.5
      vertex -0.574005 -0.730011 1.5
    endloop
  endfacet
  facet normal 0 0 1
    outer loop
      vertex 1.53499 3.769 1.5
      vertex -0.719254 0.00498962 1.5
      vertex -0.574005 -0.730011 1.5
    endloop
  endfacet
  facet normal 0 0 1
    outer loop
      vertex 1.53499 3.769 1.5
      vertex -1.15501 0.617996 1.5
      vertex -0.719254 0.00498962 1.5
    endloop
  endfacet
  facet normal 0 0 1
    outer loop
      vertex 1.53499 3.769 1.5
      vertex -1.78775 1.03275 1.5
      vertex -1.15501 0.617996 1.5
    endloop
  endfacet
  facet normal -0 0 1
    outer loop
      vertex -3.063 3.769 1.5
      vertex -1.78775 1.03275 1.5
      vertex 1.53499 3.769 1.5
    endloop
  endfacet
  facet normal 0 0 1
    outer loop
      vertex -1.78775 1.03275 1.5
      vertex -3.063 3.769 1.5
      vertex -2.524 1.17099 1.5
    endloop
  endfacet
  facet normal 0 0 1
    outer loop
      vertex -2.524 1.17099 1.5
      vertex -3.063 3.769 1.5
      vertex -3.20451 1.05225 1.5
    endloop
  endfacet
  facet normal -0 0 1
    outer loop
      vertex 7.93799 3.769 1.5
      vertex 12.5 0 1.5
      vertex 10.8253 6.25 1.5
    endloop
  endfacet
  facet normal 0 0 1
    outer loop
      vertex 7.93799 3.769 1.5
      vertex 10.8253 6.25 1.5
      vertex 7.93799 5.25099 1.5
    endloop
  endfacet
  facet normal 0 0 1
    outer loop
      vertex 6.25 10.8253 1.5
      vertex 7.93799 5.25099 1.5
      vertex 10.8253 6.25 1.5
    endloop
  endfacet
  facet normal 0 0 1
    outer loop
      vertex -3.063 5.25099 1.5
      vertex 6.25 10.8253 1.5
      vertex 0 12.5 1.5
    endloop
  endfacet
  facet normal 0 0 1
    outer loop
      vertex 6.25 10.8253 1.5
      vertex -3.063 5.25099 1.5
      vertex 7.93799 5.25099 1.5
    endloop
  endfacet
  facet normal 0 0 1
    outer loop
      vertex -6.84601 1.155 1.5
      vertex -3.063 3.769 1.5
      vertex -3.063 5.25099 1.5
    endloop
  endfacet
  facet normal 0 -0 1
    outer loop
      vertex -5.55901 0.691986 1.5
      vertex -3.063 3.769 1.5
      vertex -6.17076 1.03925 1.5
    endloop
  endfacet
  facet normal 0 0 1
    outer loop
      vertex -3.063 3.769 1.5
      vertex -3.81601 0.695999 1.5
      vertex -3.20451 1.05225 1.5
    endloop
  endfacet
  facet normal 0 -0 1
    outer loop
      vertex -5.04601 0.100998 1.5
      vertex -3.81601 0.695999 1.5
      vertex -5.55901 0.691986 1.5
    endloop
  endfacet
  facet normal 0 0 1
    outer loop
      vertex -4.31776 0.0979919 1.5
      vertex -5.04601 0.100998 1.5
      vertex -4.66901 -0.746002 1.5
    endloop
  endfacet
  facet normal 0 0 1
    outer loop
      vertex -3.81601 0.695999 1.5
      vertex -5.04601 0.100998 1.5
      vertex -4.31776 0.0979919 1.5
    endloop
  endfacet
  facet normal -0 0 1
    outer loop
      vertex -6.25 10.8253 1.5
      vertex -3.063 5.25099 1.5
      vertex 0 12.5 1.5
    endloop
  endfacet
  facet normal -0 0 1
    outer loop
      vertex -10.8253 6.25 1.5
      vertex -3.063 5.25099 1.5
      vertex -6.25 10.8253 1.5
    endloop
  endfacet
  facet normal 0 0 1
    outer loop
      vertex -3.063 3.769 1.5
      vertex -5.55901 0.691986 1.5
      vertex -3.81601 0.695999 1.5
    endloop
  endfacet
  facet normal 0 0 1
    outer loop
      vertex -3.063 3.769 1.5
      vertex -6.84601 1.155 1.5
      vertex -6.17076 1.03925 1.5
    endloop
  endfacet
  facet normal 0 0 1
    outer loop
      vertex -3.063 5.25099 1.5
      vertex -10.8253 6.25 1.5
      vertex -6.84601 1.155 1.5
    endloop
  endfacet
  facet normal 0 0 1
    outer loop
      vertex -6.84601 1.155 1.5
      vertex -10.8253 6.25 1.5
      vertex -7.60301 1.01575 1.5
    endloop
  endfacet
  facet normal 0 0 1
    outer loop
      vertex -7.60301 1.01575 1.5
      vertex -10.8253 6.25 1.5
      vertex -8.23201 0.597992 1.5
    endloop
  endfacet
  facet normal 0 0 1
    outer loop
      vertex -8.23201 0.597992 1.5
      vertex -12.5 0 1.5
      vertex -8.65501 -0.0362549 1.5
    endloop
  endfacet
  facet normal 0 0 1
    outer loop
      vertex -12.5 0 1.5
      vertex -8.23201 0.597992 1.5
      vertex -10.8253 6.25 1.5
    endloop
  endfacet
  facet normal 0 0 1
    outer loop
      vertex 12.5 0 1.5
      vertex 7.93799 3.769 1.5
      vertex 10.8253 -6.25 1.5
    endloop
  endfacet
  facet normal 0 0 1
    outer loop
      vertex 3.34 -8.125 1.5
      vertex 10.8253 -6.25 1.5
      vertex 7.93799 3.769 1.5
    endloop
  endfacet
  facet normal 0 0 1
    outer loop
      vertex 3.34 -8.125 1.5
      vertex 7.93799 3.769 1.5
      vertex 3.34 3.769 1.5
    endloop
  endfacet
  facet normal 0 0 1
    outer loop
      vertex 10.8253 -6.25 1.5
      vertex 3.34 -8.125 1.5
      vertex 6.25 -10.8253 1.5
    endloop
  endfacet
  facet normal 0 0 1
    outer loop
      vertex 0 -12.5 1.5
      vertex 3.34 -8.125 1.5
      vertex 1.53499 -8.125 1.5
    endloop
  endfacet
  facet normal 0 0 1
    outer loop
      vertex 3.34 -8.125 1.5
      vertex 0 -12.5 1.5
      vertex 6.25 -10.8253 1.5
    endloop
  endfacet
  facet normal -0 0 1
    outer loop
      vertex -0.932007 -2.20001 1.5
      vertex 1.53499 -8.125 1.5
      vertex -0.663513 -1.4465 1.5
    endloop
  endfacet
  facet normal -0 0 1
    outer loop
      vertex -1.42526 -3.05725 1.5
      vertex 1.53499 -8.125 1.5
      vertex -0.932007 -2.20001 1.5
    endloop
  endfacet
  facet normal -0 0 1
    outer loop
      vertex -2.19101 -4.08501 1.5
      vertex 1.53499 -8.125 1.5
      vertex -1.42526 -3.05725 1.5
    endloop
  endfacet
  facet normal -0 0 1
    outer loop
      vertex -3.17476 -5.39175 1.5
      vertex 1.53499 -8.125 1.5
      vertex -2.19101 -4.08501 1.5
    endloop
  endfacet
  facet normal -0 0 1
    outer loop
      vertex -3.85201 -6.40401 1.5
      vertex 1.53499 -8.125 1.5
      vertex -3.17476 -5.39175 1.5
    endloop
  endfacet
  facet normal -0 0 1
    outer loop
      vertex -4.31825 -7.31476 1.5
      vertex 1.53499 -8.125 1.5
      vertex -3.85201 -6.40401 1.5
    endloop
  endfacet
  facet normal 0 0 1
    outer loop
      vertex -4.66901 -8.31699 1.5
      vertex 1.53499 -8.125 1.5
      vertex -4.31825 -7.31476 1.5
    endloop
  endfacet
  facet normal 0 0 1
    outer loop
      vertex 1.53499 -8.125 1.5
      vertex -4.66901 -8.31699 1.5
      vertex 0 -12.5 1.5
    endloop
  endfacet
  facet normal 0 0 1
    outer loop
      vertex -6.25 -10.8253 1.5
      vertex -4.89575 -7.608 1.5
      vertex -5.218 -6.87901 1.5
    endloop
  endfacet
  facet normal -0 0 1
    outer loop
      vertex -10.8253 -6.25 1.5
      vertex -5.218 -6.87901 1.5
      vertex -5.85226 -5.8455 1.5
    endloop
  endfacet
  facet normal 0 0 1
    outer loop
      vertex -4.66901 -8.31699 1.5
      vertex -6.25 -10.8253 1.5
      vertex 0 -12.5 1.5
    endloop
  endfacet
  facet normal 0 0 1
    outer loop
      vertex -4.89575 -7.608 1.5
      vertex -6.25 -10.8253 1.5
      vertex -4.66901 -8.31699 1.5
    endloop
  endfacet
  facet normal 0 0 1
    outer loop
      vertex -10.8253 -6.25 1.5
      vertex -5.85226 -5.8455 1.5
      vertex -7.01701 -4.22301 1.5
    endloop
  endfacet
  facet normal 0 0 1
    outer loop
      vertex -10.8253 -6.25 1.5
      vertex -7.01701 -4.22301 1.5
      vertex -7.748 -3.22401 1.5
    endloop
  endfacet
  facet normal 0 0 1
    outer loop
      vertex -10.8253 -6.25 1.5
      vertex -7.748 -3.22401 1.5
      vertex -8.25975 -2.48326 1.5
    endloop
  endfacet
  facet normal 0 0 1
    outer loop
      vertex -10.8253 -6.25 1.5
      vertex -8.25975 -2.48326 1.5
      vertex -8.57701 -1.88701 1.5
    endloop
  endfacet
  facet normal 0 0 1
    outer loop
      vertex -12.5 0 1.5
      vertex -8.57701 -1.88701 1.5
      vertex -8.74126 -1.36 1.5
    endloop
  endfacet
  facet normal 0 0 1
    outer loop
      vertex -8.65501 -0.0362549 1.5
      vertex -12.5 0 1.5
      vertex -8.79601 -0.827011 1.5
    endloop
  endfacet
  facet normal 0 0 1
    outer loop
      vertex -8.79601 -0.827011 1.5
      vertex -12.5 0 1.5
      vertex -8.74126 -1.36 1.5
    endloop
  endfacet
  facet normal 0 0 1
    outer loop
      vertex -5.218 -6.87901 1.5
      vertex -10.8253 -6.25 1.5
      vertex -6.25 -10.8253 1.5
    endloop
  endfacet
  facet normal 0 0 1
    outer loop
      vertex -8.57701 -1.88701 1.5
      vertex -12.5 0 1.5
      vertex -10.8253 -6.25 1.5
    endloop
  endfacet
  facet normal -0.707107 -0.707107 0
    outer loop
      vertex -6.25 -10.8253 -1.5
      vertex -10.8253 -6.25 1.5
      vertex -10.8253 -6.25 -1.5
    endloop
  endfacet
  facet normal -0.707107 -0.707107 0
    outer loop
      vertex -10.8253 -6.25 1.5
      vertex -6.25 -10.8253 -1.5
      vertex -6.25 -10.8253 1.5
    endloop
  endfacet
  facet normal -0.258822 -0.965925 0
    outer loop
      vertex -6.25 -10.8253 -1.5
      vertex 0 -12.5 1.5
      vertex -6.25 -10.8253 1.5
    endloop
  endfacet
  facet normal -0.258822 -0.965925 -0
    outer loop
      vertex 0 -12.5 1.5
      vertex -6.25 -10.8253 -1.5
      vertex 0 -12.5 -1.5
    endloop
  endfacet
endsolid OpenSCAD_Model
