solid OpenSCAD_Model
  facet normal -0.92388 -0.382682 0
    outer loop
      vertex -21.0718 -21.0718 0
      vertex -29.8 0 21
      vertex -29.8 0 0
    endloop
  endfacet
  facet normal -0.92388 -0.382682 0
    outer loop
      vertex -29.8 0 21
      vertex -21.0718 -21.0718 0
      vertex -21.0718 -21.0718 21
    endloop
  endfacet
  facet normal -0.382682 -0.92388 0
    outer loop
      vertex -21.0718 -21.0718 0
      vertex 0 -29.8 21
      vertex -21.0718 -21.0718 21
    endloop
  endfacet
  facet normal -0.382682 -0.92388 -0
    outer loop
      vertex 0 -29.8 21
      vertex -21.0718 -21.0718 0
      vertex 0 -29.8 0
    endloop
  endfacet
  facet normal 0 0 1
    outer loop
      vertex 29.8 0 21
      vertex 0 -29.8 21
      vertex 21.0718 -21.0718 21
    endloop
  endfacet
  facet normal 0 0 1
    outer loop
      vertex 29.8 0 21
      vertex -21.0718 -21.0718 21
      vertex 0 -29.8 21
    endloop
  endfacet
  facet normal 0 -0 1
    outer loop
      vertex -21.0718 -21.0718 21
      vertex 29.8 0 21
      vertex -29.8 0 21
    endloop
  endfacet
  facet normal 0 0 -1
    outer loop
      vertex 0 -29.8 0
      vertex 29.8 0 0
      vertex 21.0718 -21.0718 0
    endloop
  endfacet
  facet normal 0 0 -1
    outer loop
      vertex -21.0718 -21.0718 0
      vertex 29.8 0 0
      vertex 0 -29.8 0
    endloop
  endfacet
  facet normal -0 0 -1
    outer loop
      vertex 29.8 0 0
      vertex -21.0718 -21.0718 0
      vertex -29.8 0 0
    endloop
  endfacet
  facet normal 0.92388 -0.382682 0
    outer loop
      vertex 21.0718 -21.0718 21
      vertex 29.8 0 0
      vertex 29.8 0 21
    endloop
  endfacet
  facet normal 0.92388 -0.382682 0
    outer loop
      vertex 29.8 0 0
      vertex 21.0718 -21.0718 21
      vertex 21.0718 -21.0718 0
    endloop
  endfacet
  facet normal 0.382682 -0.92388 0
    outer loop
      vertex 0 -29.8 0
      vertex 21.0718 -21.0718 21
      vertex 0 -29.8 21
    endloop
  endfacet
  facet normal 0.382682 -0.92388 0
    outer loop
      vertex 21.0718 -21.0718 21
      vertex 0 -29.8 0
      vertex 21.0718 -21.0718 0
    endloop
  endfacet
  facet normal 0 1 -0
    outer loop
      vertex 29.8 0 0
      vertex -29.8 0 21
      vertex 29.8 0 21
    endloop
  endfacet
  facet normal 0 1 0
    outer loop
      vertex -29.8 0 21
      vertex 29.8 0 0
      vertex -29.8 0 0
    endloop
  endfacet
endsolid OpenSCAD_Model
