solid OpenSCAD_Model
  facet normal 0.846415 0.488678 -0.211604
    outer loop
      vertex 70 0 0
      vertex 35 60.6218 0
      vertex 77 0 28
    endloop
  endfacet
  facet normal -0.846415 -0.488678 -0.211604
    outer loop
      vertex -35 -60.6218 0
      vertex -77 0 28
      vertex -70 0 0
    endloop
  endfacet
  facet normal -0.846415 0.488677 -0.211604
    outer loop
      vertex -35 60.6218 0
      vertex -77 0 28
      vertex -38.5 66.684 28
    endloop
  endfacet
  facet normal -0.846415 -0.488677 -0.211604
    outer loop
      vertex -38.5 -66.684 28
      vertex -77 0 28
      vertex -35 -60.6218 0
    endloop
  endfacet
  facet normal 0.846415 0.488677 -0.211604
    outer loop
      vertex 77 0 28
      vertex 35 60.6218 0
      vertex 38.5 66.684 28
    endloop
  endfacet
  facet normal 0 0 1
    outer loop
      vertex 77 0 28
      vertex 39.6786 60.3125 28
      vertex 74.5 0 28
    endloop
  endfacet
  facet normal 0 0 1
    outer loop
      vertex 38.5 66.684 28
      vertex 39.6786 60.3125 28
      vertex 77 0 28
    endloop
  endfacet
  facet normal 0 0 1
    outer loop
      vertex 38.5 66.684 28
      vertex 37.25 64.5189 28
      vertex 39.6786 60.3125 28
    endloop
  endfacet
  facet normal 0 0 1
    outer loop
      vertex 38.5 66.684 28
      vertex -37.25 64.5189 28
      vertex 37.25 64.5189 28
    endloop
  endfacet
  facet normal -0 0 1
    outer loop
      vertex -38.5 66.684 28
      vertex -37.25 64.5189 28
      vertex 38.5 66.684 28
    endloop
  endfacet
  facet normal 0 0 1
    outer loop
      vertex -38.5 66.684 28
      vertex -39.6786 60.3125 28
      vertex -37.25 64.5189 28
    endloop
  endfacet
  facet normal 0 0 1
    outer loop
      vertex -77 0 28
      vertex -39.6786 60.3125 28
      vertex -38.5 66.684 28
    endloop
  endfacet
  facet normal 0 0 1
    outer loop
      vertex -39.6786 60.3125 28
      vertex -77 0 28
      vertex -74.5 0 28
    endloop
  endfacet
  facet normal 0 0 1
    outer loop
      vertex 39.6786 -60.3125 28
      vertex 77 0 28
      vertex 74.5 0 28
    endloop
  endfacet
  facet normal -0 0 1
    outer loop
      vertex 39.6786 -60.3125 28
      vertex 38.5 -66.684 28
      vertex 77 0 28
    endloop
  endfacet
  facet normal -0 0 1
    outer loop
      vertex 37.25 -64.5189 28
      vertex 38.5 -66.684 28
      vertex 39.6786 -60.3125 28
    endloop
  endfacet
  facet normal -0 0 1
    outer loop
      vertex -37.25 -64.5189 28
      vertex 38.5 -66.684 28
      vertex 37.25 -64.5189 28
    endloop
  endfacet
  facet normal 0 0 1
    outer loop
      vertex -37.25 -64.5189 28
      vertex -38.5 -66.684 28
      vertex 38.5 -66.684 28
    endloop
  endfacet
  facet normal 0 0 1
    outer loop
      vertex -39.6786 -60.3125 28
      vertex -38.5 -66.684 28
      vertex -37.25 -64.5189 28
    endloop
  endfacet
  facet normal -0 0 1
    outer loop
      vertex -77 0 28
      vertex -39.6786 -60.3125 28
      vertex -74.5 0 28
    endloop
  endfacet
  facet normal 0 0 1
    outer loop
      vertex -39.6786 -60.3125 28
      vertex -77 0 28
      vertex -38.5 -66.684 28
    endloop
  endfacet
  facet normal 0.846415 -0.488678 -0.211604
    outer loop
      vertex 77 0 28
      vertex 35 -60.6218 0
      vertex 70 0 0
    endloop
  endfacet
  facet normal 0.846415 -0.488677 -0.211604
    outer loop
      vertex 38.5 -66.684 28
      vertex 35 -60.6218 0
      vertex 77 0 28
    endloop
  endfacet
  facet normal -0.846415 0.488678 -0.211604
    outer loop
      vertex -70 0 0
      vertex -77 0 28
      vertex -35 60.6218 0
    endloop
  endfacet
  facet normal 0 0.977355 -0.211604
    outer loop
      vertex 35 60.6218 0
      vertex -38.5 66.684 28
      vertex 38.5 66.684 28
    endloop
  endfacet
  facet normal 0 0.977355 -0.211604
    outer loop
      vertex -38.5 66.684 28
      vertex 35 60.6218 0
      vertex -35 60.6218 0
    endloop
  endfacet
  facet normal 0 -0.977355 -0.211604
    outer loop
      vertex -35 -60.6218 0
      vertex 38.5 -66.684 28
      vertex -38.5 -66.684 28
    endloop
  endfacet
  facet normal 0 -0.977355 -0.211604
    outer loop
      vertex 38.5 -66.684 28
      vertex -35 -60.6218 0
      vertex 35 -60.6218 0
    endloop
  endfacet
  facet normal 0 0 -1
    outer loop
      vertex 35 -60.6218 0
      vertex 35 60.6218 0
      vertex 70 0 0
    endloop
  endfacet
  facet normal 0 0 -1
    outer loop
      vertex -35 -60.6218 0
      vertex 35 60.6218 0
      vertex 35 -60.6218 0
    endloop
  endfacet
  facet normal 0 0 -1
    outer loop
      vertex -35 -60.6218 0
      vertex -35 60.6218 0
      vertex 35 60.6218 0
    endloop
  endfacet
  facet normal 0 -0 -1
    outer loop
      vertex -35 60.6218 0
      vertex -35 -60.6218 0
      vertex -70 0 0
    endloop
  endfacet
  facet normal -0.846414 0.488678 0.211605
    outer loop
      vertex 34 -58.8897 2
      vertex 39.6786 -60.3125 28
      vertex 68 0 2
    endloop
  endfacet
  facet normal -0.846412 0.488683 0.211605
    outer loop
      vertex 39.6786 -60.3125 28
      vertex 34 -58.8897 2
      vertex 37.25 -64.5189 28
    endloop
  endfacet
  facet normal 0 0.977355 0.211605
    outer loop
      vertex 34 -58.8897 2
      vertex -37.25 -64.5189 28
      vertex 37.25 -64.5189 28
    endloop
  endfacet
  facet normal 0 0.977355 0.211605
    outer loop
      vertex -37.25 -64.5189 28
      vertex 34 -58.8897 2
      vertex -34 -58.8897 2
    endloop
  endfacet
  facet normal -0.846415 -0.488677 0.211604
    outer loop
      vertex 68 0 2
      vertex 74.5 0 28
      vertex 39.6786 60.3125 28
    endloop
  endfacet
  facet normal -0.846412 -0.488683 0.211605
    outer loop
      vertex 34 58.8897 2
      vertex 39.6786 60.3125 28
      vertex 37.25 64.5189 28
    endloop
  endfacet
  facet normal -0.846414 -0.488678 0.211605
    outer loop
      vertex 39.6786 60.3125 28
      vertex 34 58.8897 2
      vertex 68 0 2
    endloop
  endfacet
  facet normal -0.846415 0.488677 0.211604
    outer loop
      vertex 74.5 0 28
      vertex 68 0 2
      vertex 39.6786 -60.3125 28
    endloop
  endfacet
  facet normal 0.846415 -0.488677 0.211604
    outer loop
      vertex -68 0 2
      vertex -39.6786 60.3125 28
      vertex -74.5 0 28
    endloop
  endfacet
  facet normal 0.846415 0.488677 0.211604
    outer loop
      vertex -39.6786 -60.3125 28
      vertex -68 0 2
      vertex -74.5 0 28
    endloop
  endfacet
  facet normal 0.846414 0.488678 0.211605
    outer loop
      vertex -39.6786 -60.3125 28
      vertex -34 -58.8897 2
      vertex -68 0 2
    endloop
  endfacet
  facet normal 0.846412 0.488683 0.211605
    outer loop
      vertex -34 -58.8897 2
      vertex -39.6786 -60.3125 28
      vertex -37.25 -64.5189 28
    endloop
  endfacet
  facet normal 0 -0.977355 0.211605
    outer loop
      vertex -34 58.8897 2
      vertex 37.25 64.5189 28
      vertex -37.25 64.5189 28
    endloop
  endfacet
  facet normal 0 -0.977355 0.211605
    outer loop
      vertex 37.25 64.5189 28
      vertex -34 58.8897 2
      vertex 34 58.8897 2
    endloop
  endfacet
  facet normal 0.846412 -0.488683 0.211605
    outer loop
      vertex -39.6786 60.3125 28
      vertex -34 58.8897 2
      vertex -37.25 64.5189 28
    endloop
  endfacet
  facet normal 0.846414 -0.488678 0.211605
    outer loop
      vertex -34 58.8897 2
      vertex -39.6786 60.3125 28
      vertex -68 0 2
    endloop
  endfacet
  facet normal 0 0 1
    outer loop
      vertex 34 58.8897 2
      vertex 34 -58.8897 2
      vertex 68 0 2
    endloop
  endfacet
  facet normal -0 0 1
    outer loop
      vertex -34 58.8897 2
      vertex 34 -58.8897 2
      vertex 34 58.8897 2
    endloop
  endfacet
  facet normal 0 0 1
    outer loop
      vertex -34 58.8897 2
      vertex -34 -58.8897 2
      vertex 34 -58.8897 2
    endloop
  endfacet
  facet normal 0 -0 1
    outer loop
      vertex -34 -58.8897 2
      vertex -34 58.8897 2
      vertex -68 0 2
    endloop
  endfacet
endsolid OpenSCAD_Model
