solid OpenSCAD_Model
  facet normal 0 -1 0
    outer loop
      vertex -25.55 -44.2539 0
      vertex 25.55 -44.2539 28
      vertex -25.55 -44.2539 28
    endloop
  endfacet
  facet normal 0 -1 -0
    outer loop
      vertex 25.55 -44.2539 28
      vertex -25.55 -44.2539 0
      vertex 25.55 -44.2539 0
    endloop
  endfacet
  facet normal 0.866025 -0.5 0
    outer loop
      vertex 25.55 -44.2539 28
      vertex 51.1 0 0
      vertex 51.1 0 28
    endloop
  endfacet
  facet normal 0.866025 -0.5 0
    outer loop
      vertex 51.1 0 0
      vertex 25.55 -44.2539 28
      vertex 25.55 -44.2539 0
    endloop
  endfacet
  facet normal 0 1 -0
    outer loop
      vertex 25.55 44.2539 0
      vertex -25.55 44.2539 28
      vertex 25.55 44.2539 28
    endloop
  endfacet
  facet normal 0 1 0
    outer loop
      vertex -25.55 44.2539 28
      vertex 25.55 44.2539 0
      vertex -25.55 44.2539 0
    endloop
  endfacet
  facet normal 0.866025 0.5 0
    outer loop
      vertex 51.1 0 28
      vertex 25.55 44.2539 0
      vertex 25.55 44.2539 28
    endloop
  endfacet
  facet normal 0.866025 0.5 0
    outer loop
      vertex 25.55 44.2539 0
      vertex 51.1 0 28
      vertex 51.1 0 0
    endloop
  endfacet
  facet normal -0.866025 0.5 0
    outer loop
      vertex -51.1 0 0
      vertex -25.55 44.2539 28
      vertex -25.55 44.2539 0
    endloop
  endfacet
  facet normal -0.866025 0.5 0
    outer loop
      vertex -25.55 44.2539 28
      vertex -51.1 0 0
      vertex -51.1 0 28
    endloop
  endfacet
  facet normal -0.866025 -0.5 0
    outer loop
      vertex -25.55 -44.2539 0
      vertex -51.1 0 28
      vertex -51.1 0 0
    endloop
  endfacet
  facet normal -0.866025 -0.5 0
    outer loop
      vertex -51.1 0 28
      vertex -25.55 -44.2539 0
      vertex -25.55 -44.2539 28
    endloop
  endfacet
  facet normal 0 0 1
    outer loop
      vertex 25.55 44.2539 28
      vertex 50.1 0 28
      vertex 51.1 0 28
    endloop
  endfacet
  facet normal 0 0 1
    outer loop
      vertex 25.55 44.2539 28
      vertex 25.05 43.3879 28
      vertex 50.1 0 28
    endloop
  endfacet
  facet normal 0 0 1
    outer loop
      vertex 25.55 44.2539 28
      vertex -25.05 43.3879 28
      vertex 25.05 43.3879 28
    endloop
  endfacet
  facet normal -0 0 1
    outer loop
      vertex -25.55 44.2539 28
      vertex -25.05 43.3879 28
      vertex 25.55 44.2539 28
    endloop
  endfacet
  facet normal 0 0 1
    outer loop
      vertex -25.55 44.2539 28
      vertex -50.1 0 28
      vertex -25.05 43.3879 28
    endloop
  endfacet
  facet normal 0 -0 1
    outer loop
      vertex -50.1 0 28
      vertex -25.55 44.2539 28
      vertex -51.1 0 28
    endloop
  endfacet
  facet normal -0 0 1
    outer loop
      vertex 50.1 0 28
      vertex 25.55 -44.2539 28
      vertex 51.1 0 28
    endloop
  endfacet
  facet normal -0 0 1
    outer loop
      vertex 25.05 -43.3879 28
      vertex 25.55 -44.2539 28
      vertex 50.1 0 28
    endloop
  endfacet
  facet normal -0 0 1
    outer loop
      vertex -25.05 -43.3879 28
      vertex 25.55 -44.2539 28
      vertex 25.05 -43.3879 28
    endloop
  endfacet
  facet normal 0 0 1
    outer loop
      vertex -25.05 -43.3879 28
      vertex -25.55 -44.2539 28
      vertex 25.55 -44.2539 28
    endloop
  endfacet
  facet normal 0 0 1
    outer loop
      vertex -50.1 0 28
      vertex -25.55 -44.2539 28
      vertex -25.05 -43.3879 28
    endloop
  endfacet
  facet normal 0 0 1
    outer loop
      vertex -25.55 -44.2539 28
      vertex -50.1 0 28
      vertex -51.1 0 28
    endloop
  endfacet
  facet normal 0 0 -1
    outer loop
      vertex 10 0 0
      vertex 51.1 0 0
      vertex 25.55 -44.2539 0
    endloop
  endfacet
  facet normal 0 0 -1
    outer loop
      vertex 51.1 0 0
      vertex 10 0 0
      vertex 25.55 44.2539 0
    endloop
  endfacet
  facet normal 0 0 -1
    outer loop
      vertex 25.55 -44.2539 0
      vertex 5 -8.66025 0
      vertex 10 0 0
    endloop
  endfacet
  facet normal 0 0 -1
    outer loop
      vertex 25.55 -44.2539 0
      vertex -5 -8.66025 0
      vertex 5 -8.66025 0
    endloop
  endfacet
  facet normal -0 0 -1
    outer loop
      vertex -5 -8.66025 0
      vertex -25.55 -44.2539 0
      vertex -10 0 0
    endloop
  endfacet
  facet normal 0 0 -1
    outer loop
      vertex -25.55 -44.2539 0
      vertex -5 -8.66025 0
      vertex 25.55 -44.2539 0
    endloop
  endfacet
  facet normal 0 0 -1
    outer loop
      vertex 5 8.66025 0
      vertex 25.55 44.2539 0
      vertex 10 0 0
    endloop
  endfacet
  facet normal 0 0 -1
    outer loop
      vertex -5 8.66025 0
      vertex 25.55 44.2539 0
      vertex 5 8.66025 0
    endloop
  endfacet
  facet normal 0 0 -1
    outer loop
      vertex -5 8.66025 0
      vertex -25.55 44.2539 0
      vertex 25.55 44.2539 0
    endloop
  endfacet
  facet normal 0 0 -1
    outer loop
      vertex -10 0 0
      vertex -25.55 44.2539 0
      vertex -5 8.66025 0
    endloop
  endfacet
  facet normal 0 0 -1
    outer loop
      vertex -51.1 0 0
      vertex -10 0 0
      vertex -25.55 -44.2539 0
    endloop
  endfacet
  facet normal 0 0 -1
    outer loop
      vertex -10 0 0
      vertex -51.1 0 0
      vertex -25.55 44.2539 0
    endloop
  endfacet
  facet normal 0 1 -0
    outer loop
      vertex 25.05 -43.3879 2
      vertex -25.05 -43.3879 28
      vertex 25.05 -43.3879 28
    endloop
  endfacet
  facet normal 0 1 0
    outer loop
      vertex -25.05 -43.3879 28
      vertex 25.05 -43.3879 2
      vertex -25.05 -43.3879 2
    endloop
  endfacet
  facet normal -0.866026 0.5 0
    outer loop
      vertex 25.05 -43.3879 2
      vertex 50.1 0 28
      vertex 50.1 0 2
    endloop
  endfacet
  facet normal -0.866026 0.5 0
    outer loop
      vertex 50.1 0 28
      vertex 25.05 -43.3879 2
      vertex 25.05 -43.3879 28
    endloop
  endfacet
  facet normal 0 -1 0
    outer loop
      vertex -25.05 43.3879 2
      vertex 25.05 43.3879 28
      vertex -25.05 43.3879 28
    endloop
  endfacet
  facet normal 0 -1 -0
    outer loop
      vertex 25.05 43.3879 28
      vertex -25.05 43.3879 2
      vertex 25.05 43.3879 2
    endloop
  endfacet
  facet normal -0.866026 -0.5 0
    outer loop
      vertex 50.1 0 2
      vertex 25.05 43.3879 28
      vertex 25.05 43.3879 2
    endloop
  endfacet
  facet normal -0.866026 -0.5 0
    outer loop
      vertex 25.05 43.3879 28
      vertex 50.1 0 2
      vertex 50.1 0 28
    endloop
  endfacet
  facet normal 0.866026 -0.5 0
    outer loop
      vertex -50.1 0 28
      vertex -25.05 43.3879 2
      vertex -25.05 43.3879 28
    endloop
  endfacet
  facet normal 0.866026 -0.5 0
    outer loop
      vertex -25.05 43.3879 2
      vertex -50.1 0 28
      vertex -50.1 0 2
    endloop
  endfacet
  facet normal 0.866026 0.5 0
    outer loop
      vertex -25.05 -43.3879 28
      vertex -50.1 0 2
      vertex -50.1 0 28
    endloop
  endfacet
  facet normal 0.866026 0.5 0
    outer loop
      vertex -50.1 0 2
      vertex -25.05 -43.3879 28
      vertex -25.05 -43.3879 2
    endloop
  endfacet
  facet normal 0 0 1
    outer loop
      vertex 10 0 2
      vertex 50.1 0 2
      vertex 25.05 43.3879 2
    endloop
  endfacet
  facet normal 0 0 1
    outer loop
      vertex 50.1 0 2
      vertex 10 0 2
      vertex 25.05 -43.3879 2
    endloop
  endfacet
  facet normal 0 0 1
    outer loop
      vertex 25.05 43.3879 2
      vertex 5 8.66025 2
      vertex 10 0 2
    endloop
  endfacet
  facet normal 0 0 1
    outer loop
      vertex 25.05 43.3879 2
      vertex -5 8.66025 2
      vertex 5 8.66025 2
    endloop
  endfacet
  facet normal 0 0 1
    outer loop
      vertex -5 8.66025 2
      vertex -25.05 43.3879 2
      vertex -10 0 2
    endloop
  endfacet
  facet normal -0 0 1
    outer loop
      vertex -25.05 43.3879 2
      vertex -5 8.66025 2
      vertex 25.05 43.3879 2
    endloop
  endfacet
  facet normal -0 0 1
    outer loop
      vertex 5 -8.66025 2
      vertex 25.05 -43.3879 2
      vertex 10 0 2
    endloop
  endfacet
  facet normal -0 0 1
    outer loop
      vertex -5 -8.66025 2
      vertex 25.05 -43.3879 2
      vertex 5 -8.66025 2
    endloop
  endfacet
  facet normal 0 0 1
    outer loop
      vertex -5 -8.66025 2
      vertex -25.05 -43.3879 2
      vertex 25.05 -43.3879 2
    endloop
  endfacet
  facet normal 0 0 1
    outer loop
      vertex -10 0 2
      vertex -25.05 -43.3879 2
      vertex -5 -8.66025 2
    endloop
  endfacet
  facet normal 0 0 1
    outer loop
      vertex -50.1 0 2
      vertex -10 0 2
      vertex -25.05 43.3879 2
    endloop
  endfacet
  facet normal 0 0 1
    outer loop
      vertex -10 0 2
      vertex -50.1 0 2
      vertex -25.05 -43.3879 2
    endloop
  endfacet
  facet normal 0 1 -0
    outer loop
      vertex 5 -8.66025 0
      vertex -5 -8.66025 2
      vertex 5 -8.66025 2
    endloop
  endfacet
  facet normal 0 1 0
    outer loop
      vertex -5 -8.66025 2
      vertex 5 -8.66025 0
      vertex -5 -8.66025 0
    endloop
  endfacet
  facet normal -0.866025 0.5 0
    outer loop
      vertex 5 -8.66025 0
      vertex 10 0 2
      vertex 10 0 0
    endloop
  endfacet
  facet normal -0.866025 0.5 0
    outer loop
      vertex 10 0 2
      vertex 5 -8.66025 0
      vertex 5 -8.66025 2
    endloop
  endfacet
  facet normal 0 -1 0
    outer loop
      vertex -5 8.66025 0
      vertex 5 8.66025 2
      vertex -5 8.66025 2
    endloop
  endfacet
  facet normal 0 -1 -0
    outer loop
      vertex 5 8.66025 2
      vertex -5 8.66025 0
      vertex 5 8.66025 0
    endloop
  endfacet
  facet normal -0.866025 -0.5 0
    outer loop
      vertex 10 0 0
      vertex 5 8.66025 2
      vertex 5 8.66025 0
    endloop
  endfacet
  facet normal -0.866025 -0.5 0
    outer loop
      vertex 5 8.66025 2
      vertex 10 0 0
      vertex 10 0 2
    endloop
  endfacet
  facet normal 0.866025 -0.5 0
    outer loop
      vertex -10 0 2
      vertex -5 8.66025 0
      vertex -5 8.66025 2
    endloop
  endfacet
  facet normal 0.866025 -0.5 0
    outer loop
      vertex -5 8.66025 0
      vertex -10 0 2
      vertex -10 0 0
    endloop
  endfacet
  facet normal 0.866025 0.5 0
    outer loop
      vertex -5 -8.66025 2
      vertex -10 0 0
      vertex -10 0 2
    endloop
  endfacet
  facet normal 0.866025 0.5 0
    outer loop
      vertex -10 0 0
      vertex -5 -8.66025 2
      vertex -5 -8.66025 0
    endloop
  endfacet
endsolid OpenSCAD_Model
