solid OpenSCAD_Model
  facet normal 0.866025 -0.5 0
    outer loop
      vertex 25.7 -44.1673 14
      vertex 51.2 0 0
      vertex 51.2 0 14
    endloop
  endfacet
  facet normal 0.866025 -0.5 0
    outer loop
      vertex 51.2 0 0
      vertex 25.7 -44.1673 14
      vertex 25.7 -44.1673 0
    endloop
  endfacet
  facet normal 0 1 -0
    outer loop
      vertex 25.6 44.3405 0
      vertex -25.6 44.3405 14
      vertex 25.6 44.3405 14
    endloop
  endfacet
  facet normal 0 1 0
    outer loop
      vertex -25.6 44.3405 14
      vertex 25.6 44.3405 0
      vertex -25.6 44.3405 0
    endloop
  endfacet
  facet normal 0.866025 0.5 0
    outer loop
      vertex 51.2 0 14
      vertex 25.6 44.3405 0
      vertex 25.6 44.3405 14
    endloop
  endfacet
  facet normal 0.866025 0.5 0
    outer loop
      vertex 25.6 44.3405 0
      vertex 51.2 0 14
      vertex 51.2 0 0
    endloop
  endfacet
  facet normal -0.866025 0.5 0
    outer loop
      vertex -51.2 0 0
      vertex -25.6 44.3405 14
      vertex -25.6 44.3405 0
    endloop
  endfacet
  facet normal -0.866025 0.5 0
    outer loop
      vertex -25.6 44.3405 14
      vertex -51.2 0 0
      vertex -51.2 0 14
    endloop
  endfacet
  facet normal -0.866025 -0.5 0
    outer loop
      vertex -25.7 -44.1673 0
      vertex -51.2 0 14
      vertex -51.2 0 0
    endloop
  endfacet
  facet normal -0.866025 -0.5 0
    outer loop
      vertex -51.2 0 14
      vertex -25.7 -44.1673 0
      vertex -25.7 -44.1673 14
    endloop
  endfacet
  facet normal 0 0 1
    outer loop
      vertex -51.2 -88.3346 14
      vertex -36.5161 -64.6334 14
      vertex -36.8331 -63.4504 14
    endloop
  endfacet
  facet normal 0 0 1
    outer loop
      vertex -36.5161 -64.6334 14
      vertex -51.2 -88.3346 14
      vertex -50.2 -88.3346 14
    endloop
  endfacet
  facet normal -0 0 1
    outer loop
      vertex 36.5161 -64.6334 14
      vertex 51.2 -88.3346 14
      vertex 36.8331 -63.4504 14
    endloop
  endfacet
  facet normal 0 0 1
    outer loop
      vertex 51.2 -88.3346 14
      vertex 36.5161 -64.6334 14
      vertex 50.2 -88.3346 14
    endloop
  endfacet
  facet normal -0 0 1
    outer loop
      vertex 50.2 -88.3346 14
      vertex 25.6 -132.675 14
      vertex 51.2 -88.3346 14
    endloop
  endfacet
  facet normal -0 0 1
    outer loop
      vertex 25.1 -131.809 14
      vertex 25.6 -132.675 14
      vertex 50.2 -88.3346 14
    endloop
  endfacet
  facet normal -0 0 1
    outer loop
      vertex -25.1 -131.809 14
      vertex 25.6 -132.675 14
      vertex 25.1 -131.809 14
    endloop
  endfacet
  facet normal 0 0 1
    outer loop
      vertex -25.1 -131.809 14
      vertex -25.6 -132.675 14
      vertex 25.6 -132.675 14
    endloop
  endfacet
  facet normal 0 0 1
    outer loop
      vertex -50.2 -88.3346 14
      vertex -25.6 -132.675 14
      vertex -25.1 -131.809 14
    endloop
  endfacet
  facet normal 0 0 1
    outer loop
      vertex -25.6 -132.675 14
      vertex -50.2 -88.3346 14
      vertex -51.2 -88.3346 14
    endloop
  endfacet
  facet normal 0 0 1
    outer loop
      vertex 25.6 44.3405 14
      vertex 50.2 0 14
      vertex 51.2 0 14
    endloop
  endfacet
  facet normal 0 0 1
    outer loop
      vertex 25.6 44.3405 14
      vertex 25.1 43.4745 14
      vertex 50.2 0 14
    endloop
  endfacet
  facet normal 0 0 1
    outer loop
      vertex 25.6 44.3405 14
      vertex -25.1 43.4745 14
      vertex 25.1 43.4745 14
    endloop
  endfacet
  facet normal -0 0 1
    outer loop
      vertex -25.6 44.3405 14
      vertex -25.1 43.4745 14
      vertex 25.6 44.3405 14
    endloop
  endfacet
  facet normal 0 0 1
    outer loop
      vertex -25.6 44.3405 14
      vertex -50.2 0 14
      vertex -25.1 43.4745 14
    endloop
  endfacet
  facet normal 0 -0 1
    outer loop
      vertex -50.2 0 14
      vertex -25.6 44.3405 14
      vertex -51.2 0 14
    endloop
  endfacet
  facet normal 0 0 1
    outer loop
      vertex 25.6 -43.9941 14
      vertex 51.2 0 14
      vertex 50.2 0 14
    endloop
  endfacet
  facet normal 0 0 1
    outer loop
      vertex 51.2 0 14
      vertex 25.6 -43.9941 14
      vertex 25.7 -44.1673 14
    endloop
  endfacet
  facet normal -0 0 1
    outer loop
      vertex 25.1 -43.4745 14
      vertex 25.6 -43.9941 14
      vertex 50.2 0 14
    endloop
  endfacet
  facet normal -0 0 1
    outer loop
      vertex -25.1 -43.4745 14
      vertex 25.6 -43.9941 14
      vertex 25.1 -43.4745 14
    endloop
  endfacet
  facet normal 0 0 1
    outer loop
      vertex -25.1 -43.4745 14
      vertex -25.6 -43.9941 14
      vertex 25.6 -43.9941 14
    endloop
  endfacet
  facet normal 0 0 1
    outer loop
      vertex -50.2 0 14
      vertex -25.6 -43.9941 14
      vertex -25.1 -43.4745 14
    endloop
  endfacet
  facet normal -0 0 1
    outer loop
      vertex -51.2 0 14
      vertex -25.6 -43.9941 14
      vertex -50.2 0 14
    endloop
  endfacet
  facet normal 0 0 1
    outer loop
      vertex -25.6 -43.9941 14
      vertex -51.2 0 14
      vertex -25.7 -44.1673 14
    endloop
  endfacet
  facet normal -0 0 -1
    outer loop
      vertex 51.2 -88.3346 0
      vertex 25.6 -132.675 0
      vertex 25.7 -44.1673 0
    endloop
  endfacet
  facet normal 0 0 -1
    outer loop
      vertex 10 0 0
      vertex 51.2 0 0
      vertex 25.7 -44.1673 0
    endloop
  endfacet
  facet normal 0 0 -1
    outer loop
      vertex -25.7 -44.1673 0
      vertex 25.7 -44.1673 0
      vertex 25.6 -132.675 0
    endloop
  endfacet
  facet normal 0 0 -1
    outer loop
      vertex 51.2 0 0
      vertex 10 0 0
      vertex 25.6 44.3405 0
    endloop
  endfacet
  facet normal 0 0 -1
    outer loop
      vertex 25.7 -44.1673 0
      vertex 5 -8.66025 0
      vertex 10 0 0
    endloop
  endfacet
  facet normal 0 0 -1
    outer loop
      vertex 25.7 -44.1673 0
      vertex -25.7 -44.1673 0
      vertex 5 -8.66025 0
    endloop
  endfacet
  facet normal -0 0 -1
    outer loop
      vertex 5 -8.66025 0
      vertex -25.7 -44.1673 0
      vertex -5 -8.66025 0
    endloop
  endfacet
  facet normal 0 0 -1
    outer loop
      vertex -25.7 -44.1673 0
      vertex 25.6 -132.675 0
      vertex -25.6 -132.675 0
    endloop
  endfacet
  facet normal 0 0 -1
    outer loop
      vertex -10 0 0
      vertex -51.2 0 0
      vertex -25.6 44.3405 0
    endloop
  endfacet
  facet normal 0 0 -1
    outer loop
      vertex 5 8.66025 0
      vertex 25.6 44.3405 0
      vertex 10 0 0
    endloop
  endfacet
  facet normal 0 0 -1
    outer loop
      vertex -5 8.66025 0
      vertex 25.6 44.3405 0
      vertex 5 8.66025 0
    endloop
  endfacet
  facet normal 0 0 -1
    outer loop
      vertex -5 8.66025 0
      vertex -25.6 44.3405 0
      vertex 25.6 44.3405 0
    endloop
  endfacet
  facet normal 0 0 -1
    outer loop
      vertex -10 0 0
      vertex -25.6 44.3405 0
      vertex -5 8.66025 0
    endloop
  endfacet
  facet normal -0 0 -1
    outer loop
      vertex -5 -8.66025 0
      vertex -25.7 -44.1673 0
      vertex -10 0 0
    endloop
  endfacet
  facet normal 0 0 -1
    outer loop
      vertex -51.2 0 0
      vertex -10 0 0
      vertex -25.7 -44.1673 0
    endloop
  endfacet
  facet normal 0 -0 -1
    outer loop
      vertex -25.7 -44.1673 0
      vertex -25.6 -132.675 0
      vertex -51.2 -88.3346 0
    endloop
  endfacet
  facet normal 0 1 -0
    outer loop
      vertex 25.1 -43.4745 2
      vertex -25.1 -43.4745 14
      vertex 25.1 -43.4745 14
    endloop
  endfacet
  facet normal 0 1 0
    outer loop
      vertex -25.1 -43.4745 14
      vertex 25.1 -43.4745 2
      vertex -25.1 -43.4745 2
    endloop
  endfacet
  facet normal -0.866026 0.5 0
    outer loop
      vertex 25.1 -43.4745 2
      vertex 50.2 0 14
      vertex 50.2 0 2
    endloop
  endfacet
  facet normal -0.866026 0.5 0
    outer loop
      vertex 50.2 0 14
      vertex 25.1 -43.4745 2
      vertex 25.1 -43.4745 14
    endloop
  endfacet
  facet normal 0 -1 0
    outer loop
      vertex -25.1 43.4745 2
      vertex 25.1 43.4745 14
      vertex -25.1 43.4745 14
    endloop
  endfacet
  facet normal 0 -1 -0
    outer loop
      vertex 25.1 43.4745 14
      vertex -25.1 43.4745 2
      vertex 25.1 43.4745 2
    endloop
  endfacet
  facet normal -0.866026 -0.5 0
    outer loop
      vertex 50.2 0 2
      vertex 25.1 43.4745 14
      vertex 25.1 43.4745 2
    endloop
  endfacet
  facet normal -0.866026 -0.5 0
    outer loop
      vertex 25.1 43.4745 14
      vertex 50.2 0 2
      vertex 50.2 0 14
    endloop
  endfacet
  facet normal 0.866026 -0.5 0
    outer loop
      vertex -50.2 0 14
      vertex -25.1 43.4745 2
      vertex -25.1 43.4745 14
    endloop
  endfacet
  facet normal 0.866026 -0.5 0
    outer loop
      vertex -25.1 43.4745 2
      vertex -50.2 0 14
      vertex -50.2 0 2
    endloop
  endfacet
  facet normal 0.866026 0.5 0
    outer loop
      vertex -25.1 -43.4745 14
      vertex -50.2 0 2
      vertex -50.2 0 14
    endloop
  endfacet
  facet normal 0.866026 0.5 0
    outer loop
      vertex -50.2 0 2
      vertex -25.1 -43.4745 14
      vertex -25.1 -43.4745 2
    endloop
  endfacet
  facet normal 0 0 1
    outer loop
      vertex 10 0 2
      vertex 50.2 0 2
      vertex 25.1 43.4745 2
    endloop
  endfacet
  facet normal 0 0 1
    outer loop
      vertex 50.2 0 2
      vertex 10 0 2
      vertex 25.1 -43.4745 2
    endloop
  endfacet
  facet normal 0 0 1
    outer loop
      vertex 25.1 43.4745 2
      vertex 5 8.66025 2
      vertex 10 0 2
    endloop
  endfacet
  facet normal 0 0 1
    outer loop
      vertex 25.1 43.4745 2
      vertex -5 8.66025 2
      vertex 5 8.66025 2
    endloop
  endfacet
  facet normal 0 0 1
    outer loop
      vertex -5 8.66025 2
      vertex -25.1 43.4745 2
      vertex -10 0 2
    endloop
  endfacet
  facet normal -0 0 1
    outer loop
      vertex -25.1 43.4745 2
      vertex -5 8.66025 2
      vertex 25.1 43.4745 2
    endloop
  endfacet
  facet normal -0 0 1
    outer loop
      vertex 5 -8.66025 2
      vertex 25.1 -43.4745 2
      vertex 10 0 2
    endloop
  endfacet
  facet normal -0 0 1
    outer loop
      vertex -5 -8.66025 2
      vertex 25.1 -43.4745 2
      vertex 5 -8.66025 2
    endloop
  endfacet
  facet normal 0 0 1
    outer loop
      vertex -5 -8.66025 2
      vertex -25.1 -43.4745 2
      vertex 25.1 -43.4745 2
    endloop
  endfacet
  facet normal 0 0 1
    outer loop
      vertex -10 0 2
      vertex -25.1 -43.4745 2
      vertex -5 -8.66025 2
    endloop
  endfacet
  facet normal 0 0 1
    outer loop
      vertex -50.2 0 2
      vertex -10 0 2
      vertex -25.1 43.4745 2
    endloop
  endfacet
  facet normal 0 0 1
    outer loop
      vertex -10 0 2
      vertex -50.2 0 2
      vertex -25.1 -43.4745 2
    endloop
  endfacet
  facet normal 0 1 -0
    outer loop
      vertex 5 -8.66025 0
      vertex -5 -8.66025 2
      vertex 5 -8.66025 2
    endloop
  endfacet
  facet normal 0 1 0
    outer loop
      vertex -5 -8.66025 2
      vertex 5 -8.66025 0
      vertex -5 -8.66025 0
    endloop
  endfacet
  facet normal -0.866025 0.5 0
    outer loop
      vertex 5 -8.66025 0
      vertex 10 0 2
      vertex 10 0 0
    endloop
  endfacet
  facet normal -0.866025 0.5 0
    outer loop
      vertex 10 0 2
      vertex 5 -8.66025 0
      vertex 5 -8.66025 2
    endloop
  endfacet
  facet normal 0 -1 0
    outer loop
      vertex -5 8.66025 0
      vertex 5 8.66025 2
      vertex -5 8.66025 2
    endloop
  endfacet
  facet normal 0 -1 -0
    outer loop
      vertex 5 8.66025 2
      vertex -5 8.66025 0
      vertex 5 8.66025 0
    endloop
  endfacet
  facet normal -0.866025 -0.5 0
    outer loop
      vertex 10 0 0
      vertex 5 8.66025 2
      vertex 5 8.66025 0
    endloop
  endfacet
  facet normal -0.866025 -0.5 0
    outer loop
      vertex 5 8.66025 2
      vertex 10 0 0
      vertex 10 0 2
    endloop
  endfacet
  facet normal 0.866025 -0.5 0
    outer loop
      vertex -10 0 2
      vertex -5 8.66025 0
      vertex -5 8.66025 2
    endloop
  endfacet
  facet normal 0.866025 -0.5 0
    outer loop
      vertex -5 8.66025 0
      vertex -10 0 2
      vertex -10 0 0
    endloop
  endfacet
  facet normal 0.866025 0.5 0
    outer loop
      vertex -5 -8.66025 2
      vertex -10 0 0
      vertex -10 0 2
    endloop
  endfacet
  facet normal 0.866025 0.5 0
    outer loop
      vertex -10 0 0
      vertex -5 -8.66025 2
      vertex -5 -8.66025 0
    endloop
  endfacet
  facet normal 0 -1 0
    outer loop
      vertex -25.6 -132.675 0
      vertex 25.6 -132.675 14
      vertex -25.6 -132.675 14
    endloop
  endfacet
  facet normal 0 -1 -0
    outer loop
      vertex 25.6 -132.675 14
      vertex -25.6 -132.675 0
      vertex 25.6 -132.675 0
    endloop
  endfacet
  facet normal 0.866025 -0.500001 0
    outer loop
      vertex 25.6 -132.675 14
      vertex 51.2 -88.3346 0
      vertex 51.2 -88.3346 14
    endloop
  endfacet
  facet normal 0.866025 -0.500001 0
    outer loop
      vertex 51.2 -88.3346 0
      vertex 25.6 -132.675 14
      vertex 25.6 -132.675 0
    endloop
  endfacet
  facet normal 0.866025 0.5 2.30497e-05
    outer loop
      vertex 51.2 -88.3346 14
      vertex 38.55 -66.4241 12.7431
      vertex 36.8331 -63.4504 14
    endloop
  endfacet
  facet normal 0.866026 0.499999 0
    outer loop
      vertex 38.55 -66.4241 12.7431
      vertex 51.2 -88.3346 14
      vertex 51.2 -88.3346 0.093147
    endloop
  endfacet
  facet normal 0 0 0
    outer loop
      vertex 51.2 -88.3346 0.093147
      vertex 51.2 -88.3346 14
      vertex 51.2 -88.3346 0
    endloop
  endfacet
  facet normal -0.866025 0.5 2.30497e-05
    outer loop
      vertex -38.55 -66.4241 12.7431
      vertex -51.2 -88.3346 14
      vertex -36.8331 -63.4504 14
    endloop
  endfacet
  facet normal -0.866026 0.499999 0
    outer loop
      vertex -51.2 -88.3346 14
      vertex -38.55 -66.4241 12.7431
      vertex -51.2 -88.3346 0.093147
    endloop
  endfacet
  facet normal 0 0 0
    outer loop
      vertex -51.2 -88.3346 14
      vertex -51.2 -88.3346 0.093147
      vertex -51.2 -88.3346 0
    endloop
  endfacet
  facet normal -0.866025 -0.500001 0
    outer loop
      vertex -25.6 -132.675 0
      vertex -51.2 -88.3346 14
      vertex -51.2 -88.3346 0
    endloop
  endfacet
  facet normal -0.866025 -0.500001 0
    outer loop
      vertex -51.2 -88.3346 14
      vertex -25.6 -132.675 0
      vertex -25.6 -132.675 14
    endloop
  endfacet
  facet normal 0 1 -0
    outer loop
      vertex 25.1 -131.809 2
      vertex -25.1 -131.809 14
      vertex 25.1 -131.809 14
    endloop
  endfacet
  facet normal 0 1 0
    outer loop
      vertex -25.1 -131.809 14
      vertex 25.1 -131.809 2
      vertex -25.1 -131.809 2
    endloop
  endfacet
  facet normal -0.866025 0.500001 0
    outer loop
      vertex 25.1 -131.809 2
      vertex 50.2 -88.3346 14
      vertex 50.2 -88.3346 2
    endloop
  endfacet
  facet normal -0.866025 0.500001 0
    outer loop
      vertex 50.2 -88.3346 14
      vertex 25.1 -131.809 2
      vertex 25.1 -131.809 14
    endloop
  endfacet
  facet normal -0.86603 -0.499992 -0
    outer loop
      vertex 50.2 -88.3346 14
      vertex 48.6592 -85.6658 2
      vertex 50.2 -88.3346 2
    endloop
  endfacet
  facet normal -0.866025 -0.5 -5.314e-05
    outer loop
      vertex 37.05 -65.5581 13.6092
      vertex 50.2 -88.3346 14
      vertex 36.5161 -64.6334 14
    endloop
  endfacet
  facet normal -0.866026 -0.5 -2.19087e-06
    outer loop
      vertex 48.6592 -85.6658 2
      vertex 50.2 -88.3346 14
      vertex 37.05 -65.5581 13.6092
    endloop
  endfacet
  facet normal 0.866025 -0.5 -5.314e-05
    outer loop
      vertex -50.2 -88.3346 14
      vertex -37.05 -65.5581 13.6092
      vertex -36.5161 -64.6334 14
    endloop
  endfacet
  facet normal 0.866026 -0.5 -2.19087e-06
    outer loop
      vertex -50.2 -88.3346 14
      vertex -48.6592 -85.6658 2
      vertex -37.05 -65.5581 13.6092
    endloop
  endfacet
  facet normal 0.86603 -0.499992 0
    outer loop
      vertex -48.6592 -85.6658 2
      vertex -50.2 -88.3346 14
      vertex -50.2 -88.3346 2
    endloop
  endfacet
  facet normal 0.866025 0.500001 0
    outer loop
      vertex -25.1 -131.809 14
      vertex -50.2 -88.3346 2
      vertex -50.2 -88.3346 14
    endloop
  endfacet
  facet normal 0.866025 0.500001 0
    outer loop
      vertex -50.2 -88.3346 2
      vertex -25.1 -131.809 14
      vertex -25.1 -131.809 2
    endloop
  endfacet
  facet normal 0 0 1
    outer loop
      vertex 33 -101.325 2
      vertex 50.2 -88.3346 2
      vertex 48.6592 -85.6658 2
    endloop
  endfacet
  facet normal -0 0 1
    outer loop
      vertex 33 -101.325 2
      vertex 25.1 -131.809 2
      vertex 50.2 -88.3346 2
    endloop
  endfacet
  facet normal -0 0 1
    outer loop
      vertex 0 -110.167 2
      vertex 25.1 -131.809 2
      vertex 33 -101.325 2
    endloop
  endfacet
  facet normal 0 0 1
    outer loop
      vertex 0 -110.167 2
      vertex -25.1 -131.809 2
      vertex 25.1 -131.809 2
    endloop
  endfacet
  facet normal 0 0 1
    outer loop
      vertex -33 -101.325 2
      vertex -25.1 -131.809 2
      vertex 0 -110.167 2
    endloop
  endfacet
  facet normal -0 0 1
    outer loop
      vertex -50.2 -88.3346 2
      vertex -33 -101.325 2
      vertex -48.6592 -85.6658 2
    endloop
  endfacet
  facet normal 0 0 1
    outer loop
      vertex -33 -101.325 2
      vertex -50.2 -88.3346 2
      vertex -25.1 -131.809 2
    endloop
  endfacet
  facet normal 0.444038 0.118957 0.888076
    outer loop
      vertex 0.299999 -43.9941 34.8268
      vertex 25.7 -44.1673 22.15
      vertex 25.6 -43.9941 22.1768
    endloop
  endfacet
  facet normal 0.444038 0.11896 0.888076
    outer loop
      vertex 25.7 -44.1673 22.15
      vertex 0.299999 -43.9941 34.8268
      vertex 0 -44.1673 35
    endloop
  endfacet
  facet normal -0.444038 0.118957 0.888076
    outer loop
      vertex -25.7 -44.1673 22.15
      vertex -0.299999 -43.9941 34.8268
      vertex -25.6 -43.9941 22.1768
    endloop
  endfacet
  facet normal -0.444038 0.11896 0.888076
    outer loop
      vertex -0.299999 -43.9941 34.8268
      vertex -25.7 -44.1673 22.15
      vertex 0 -44.1673 35
    endloop
  endfacet
  facet normal 0.325058 -0.325058 0.888074
    outer loop
      vertex 37.05 -65.5581 13.6092
      vertex 33 -101.325 2
      vertex 48.6592 -85.6658 2
    endloop
  endfacet
  facet normal 0.325057 -0.325058 0.888074
    outer loop
      vertex 33 -101.325 2
      vertex 37.05 -65.5581 13.6092
      vertex 0 -44.1673 35
    endloop
  endfacet
  facet normal 0.118975 -0.444039 0.888073
    outer loop
      vertex 0 -44.1673 35
      vertex 0 -110.167 2
      vertex 33 -101.325 2
    endloop
  endfacet
  facet normal -0.325036 0.32508 0.888073
    outer loop
      vertex -0.0999996 -43.9941 34.9
      vertex -0.299999 -43.9941 34.8268
      vertex 0 -44.1673 35
    endloop
  endfacet
  facet normal -0.119002 0.444036 0.888071
    outer loop
      vertex 0 -43.9941 34.9134
      vertex -0.0999996 -43.9941 34.9
      vertex 0 -44.1673 35
    endloop
  endfacet
  facet normal 0.119002 0.444036 0.888071
    outer loop
      vertex 0 -43.9941 34.9134
      vertex 0 -44.1673 35
      vertex 0.0999996 -43.9941 34.9
    endloop
  endfacet
  facet normal 0.325036 0.32508 0.888073
    outer loop
      vertex 0.0999996 -43.9941 34.9
      vertex 0 -44.1673 35
      vertex 0.299999 -43.9941 34.8268
    endloop
  endfacet
  facet normal -0.444031 -0.118984 0.888076
    outer loop
      vertex -25.7 -44.1673 22.15
      vertex -36.8331 -63.4504 14
      vertex -36.5161 -64.6334 14
    endloop
  endfacet
  facet normal -0.444037 -0.11898 0.888074
    outer loop
      vertex -36.5161 -64.6334 14
      vertex 0 -44.1673 35
      vertex -25.7 -44.1673 22.15
    endloop
  endfacet
  facet normal -0.444063 -0.118927 0.888068
    outer loop
      vertex 0 -44.1673 35
      vertex -36.5161 -64.6334 14
      vertex -37.05 -65.5581 13.6092
    endloop
  endfacet
  facet normal -0.846941 0.304878 0.435592
    outer loop
      vertex -36.8331 -63.4504 14
      vertex -25.7 -44.1673 22.15
      vertex -38.55 -66.4241 12.7431
    endloop
  endfacet
  facet normal 0.444063 -0.118927 0.888068
    outer loop
      vertex 36.5161 -64.6334 14
      vertex 0 -44.1673 35
      vertex 37.05 -65.5581 13.6092
    endloop
  endfacet
  facet normal 0.444037 -0.11898 0.888074
    outer loop
      vertex 0 -44.1673 35
      vertex 36.5161 -64.6334 14
      vertex 25.7 -44.1673 22.15
    endloop
  endfacet
  facet normal 0.444031 -0.118984 0.888076
    outer loop
      vertex 25.7 -44.1673 22.15
      vertex 36.5161 -64.6334 14
      vertex 36.8331 -63.4504 14
    endloop
  endfacet
  facet normal 0.846941 0.304878 0.435592
    outer loop
      vertex 25.7 -44.1673 22.15
      vertex 36.8331 -63.4504 14
      vertex 38.55 -66.4241 12.7431
    endloop
  endfacet
  facet normal -0.118975 -0.444039 0.888073
    outer loop
      vertex 0 -44.1673 35
      vertex -33 -101.325 2
      vertex 0 -110.167 2
    endloop
  endfacet
  facet normal -0.325057 -0.325058 0.888074
    outer loop
      vertex -37.05 -65.5581 13.6092
      vertex -33 -101.325 2
      vertex 0 -44.1673 35
    endloop
  endfacet
  facet normal -0.325058 -0.325058 0.888074
    outer loop
      vertex -33 -101.325 2
      vertex -37.05 -65.5581 13.6092
      vertex -48.6592 -85.6658 2
    endloop
  endfacet
  facet normal 0 1 0
    outer loop
      vertex 0.0999996 -43.9941 34.9
      vertex -0.0999996 -43.9941 34.9
      vertex 0 -43.9941 34.9134
    endloop
  endfacet
  facet normal 0 1 0
    outer loop
      vertex 0.299999 -43.9941 34.8268
      vertex -0.0999996 -43.9941 34.9
      vertex 0.0999996 -43.9941 34.9
    endloop
  endfacet
  facet normal 0 1 0
    outer loop
      vertex 0.299999 -43.9941 34.8268
      vertex -0.299999 -43.9941 34.8268
      vertex -0.0999996 -43.9941 34.9
    endloop
  endfacet
  facet normal 0 1 -0
    outer loop
      vertex 25.6 -43.9941 14
      vertex 0.299999 -43.9941 34.8268
      vertex 25.6 -43.9941 22.1768
    endloop
  endfacet
  facet normal 0 1 0
    outer loop
      vertex 0.299999 -43.9941 34.8268
      vertex 25.6 -43.9941 14
      vertex -0.299999 -43.9941 34.8268
    endloop
  endfacet
  facet normal 0 1 0
    outer loop
      vertex -25.6 -43.9941 14
      vertex -0.299999 -43.9941 34.8268
      vertex 25.6 -43.9941 14
    endloop
  endfacet
  facet normal 0 1 0
    outer loop
      vertex -0.299999 -43.9941 34.8268
      vertex -25.6 -43.9941 14
      vertex -25.6 -43.9941 22.1768
    endloop
  endfacet
  facet normal 0.866019 0.500011 0
    outer loop
      vertex 25.7 -44.1673 22.15
      vertex 25.6 -43.9941 14
      vertex 25.6 -43.9941 22.1768
    endloop
  endfacet
  facet normal 0.866019 0.500011 0
    outer loop
      vertex 25.7 -44.1673 22.15
      vertex 25.7 -44.1673 14
      vertex 25.6 -43.9941 14
    endloop
  endfacet
  facet normal 0.866025 0.500001 0
    outer loop
      vertex 38.55 -66.4241 12.7431
      vertex 25.7 -44.1673 14
      vertex 25.7 -44.1673 22.15
    endloop
  endfacet
  facet normal 0.866025 0.500001 0
    outer loop
      vertex 25.7 -44.1673 14
      vertex 38.55 -66.4241 12.7431
      vertex 25.7 -44.1673 0
    endloop
  endfacet
  facet normal 0.866026 0.499999 -0
    outer loop
      vertex 51.2 -88.3346 0
      vertex 38.55 -66.4241 12.7431
      vertex 51.2 -88.3346 0.093147
    endloop
  endfacet
  facet normal 0.866025 0.5 -2.16188e-06
    outer loop
      vertex 38.55 -66.4241 12.7431
      vertex 51.2 -88.3346 0
      vertex 25.7 -44.1673 0
    endloop
  endfacet
  facet normal -0.866025 0.500001 0
    outer loop
      vertex -38.55 -66.4241 12.7431
      vertex -25.7 -44.1673 14
      vertex -25.7 -44.1673 0
    endloop
  endfacet
  facet normal -0.866025 0.500001 0
    outer loop
      vertex -25.7 -44.1673 14
      vertex -38.55 -66.4241 12.7431
      vertex -25.7 -44.1673 22.15
    endloop
  endfacet
  facet normal -0.866025 0.5 -2.16188e-06
    outer loop
      vertex -51.2 -88.3346 0
      vertex -38.55 -66.4241 12.7431
      vertex -25.7 -44.1673 0
    endloop
  endfacet
  facet normal -0.866026 0.499999 0
    outer loop
      vertex -38.55 -66.4241 12.7431
      vertex -51.2 -88.3346 0
      vertex -51.2 -88.3346 0.093147
    endloop
  endfacet
  facet normal -0.866019 0.500011 0
    outer loop
      vertex -25.7 -44.1673 22.15
      vertex -25.6 -43.9941 14
      vertex -25.7 -44.1673 14
    endloop
  endfacet
  facet normal -0.866019 0.500011 0
    outer loop
      vertex -25.6 -43.9941 14
      vertex -25.7 -44.1673 22.15
      vertex -25.6 -43.9941 22.1768
    endloop
  endfacet
endsolid OpenSCAD_Model
