solid OpenSCAD_Model
  facet normal 0 -1 0
    outer loop
      vertex -25.6 48.6595 0
      vertex 25.6 48.6595 17.5
      vertex -25.6 48.6595 17.5
    endloop
  endfacet
  facet normal 0 -1 -0
    outer loop
      vertex 25.6 48.6595 17.5
      vertex -25.6 48.6595 0
      vertex 25.6 48.6595 0
    endloop
  endfacet
  facet normal 0.866025 -0.5 0
    outer loop
      vertex 25.6 48.6595 17.5
      vertex 51.2 93 0
      vertex 51.2 93 17.5
    endloop
  endfacet
  facet normal 0.866025 -0.5 0
    outer loop
      vertex 51.2 93 0
      vertex 25.6 48.6595 17.5
      vertex 25.6 48.6595 0
    endloop
  endfacet
  facet normal 0 1 -0
    outer loop
      vertex 25.6 137.34 0
      vertex -25.6 137.34 17.5
      vertex 25.6 137.34 17.5
    endloop
  endfacet
  facet normal 0 1 0
    outer loop
      vertex -25.6 137.34 17.5
      vertex 25.6 137.34 0
      vertex -25.6 137.34 0
    endloop
  endfacet
  facet normal 0.866023 0.500004 0
    outer loop
      vertex 51.2 93 17.5
      vertex 25.6 137.34 0
      vertex 25.6 137.34 17.5
    endloop
  endfacet
  facet normal 0.866023 0.500004 0
    outer loop
      vertex 25.6 137.34 0
      vertex 51.2 93 17.5
      vertex 51.2 93 0
    endloop
  endfacet
  facet normal -0.866023 0.500004 0
    outer loop
      vertex -51.2 93 0
      vertex -25.6 137.34 17.5
      vertex -25.6 137.34 0
    endloop
  endfacet
  facet normal -0.866023 0.500004 0
    outer loop
      vertex -25.6 137.34 17.5
      vertex -51.2 93 0
      vertex -51.2 93 17.5
    endloop
  endfacet
  facet normal -0.866025 -0.5 0
    outer loop
      vertex -25.6 48.6595 0
      vertex -51.2 93 17.5
      vertex -51.2 93 0
    endloop
  endfacet
  facet normal -0.866025 -0.5 0
    outer loop
      vertex -51.2 93 17.5
      vertex -25.6 48.6595 0
      vertex -25.6 48.6595 17.5
    endloop
  endfacet
  facet normal 0 0 1
    outer loop
      vertex 25.6 137.34 17.5
      vertex 50.2 93 17.5
      vertex 51.2 93 17.5
    endloop
  endfacet
  facet normal 0 0 1
    outer loop
      vertex 25.6 137.34 17.5
      vertex 25.1 136.474 17.5
      vertex 50.2 93 17.5
    endloop
  endfacet
  facet normal 0 0 1
    outer loop
      vertex 25.6 137.34 17.5
      vertex -25.1 136.474 17.5
      vertex 25.1 136.474 17.5
    endloop
  endfacet
  facet normal -0 0 1
    outer loop
      vertex -25.6 137.34 17.5
      vertex -25.1 136.474 17.5
      vertex 25.6 137.34 17.5
    endloop
  endfacet
  facet normal 0 0 1
    outer loop
      vertex -25.6 137.34 17.5
      vertex -50.2 93 17.5
      vertex -25.1 136.474 17.5
    endloop
  endfacet
  facet normal 0 -0 1
    outer loop
      vertex -50.2 93 17.5
      vertex -25.6 137.34 17.5
      vertex -51.2 93 17.5
    endloop
  endfacet
  facet normal -0 0 1
    outer loop
      vertex 50.2 93 17.5
      vertex 25.6 48.6595 17.5
      vertex 51.2 93 17.5
    endloop
  endfacet
  facet normal -0 0 1
    outer loop
      vertex 25.1 49.5255 17.5
      vertex 25.6 48.6595 17.5
      vertex 50.2 93 17.5
    endloop
  endfacet
  facet normal -0 0 1
    outer loop
      vertex -25.1 49.5255 17.5
      vertex 25.6 48.6595 17.5
      vertex 25.1 49.5255 17.5
    endloop
  endfacet
  facet normal 0 0 1
    outer loop
      vertex -25.1 49.5255 17.5
      vertex -25.6 48.6595 17.5
      vertex 25.6 48.6595 17.5
    endloop
  endfacet
  facet normal 0 0 1
    outer loop
      vertex -50.2 93 17.5
      vertex -25.6 48.6595 17.5
      vertex -25.1 49.5255 17.5
    endloop
  endfacet
  facet normal 0 0 1
    outer loop
      vertex -25.6 48.6595 17.5
      vertex -50.2 93 17.5
      vertex -51.2 93 17.5
    endloop
  endfacet
  facet normal 0 0 -1
    outer loop
      vertex 25.6 48.6595 0
      vertex 25.6 137.34 0
      vertex 51.2 93 0
    endloop
  endfacet
  facet normal 0 0 -1
    outer loop
      vertex -25.6 48.6595 0
      vertex 25.6 137.34 0
      vertex 25.6 48.6595 0
    endloop
  endfacet
  facet normal 0 0 -1
    outer loop
      vertex -25.6 48.6595 0
      vertex -25.6 137.34 0
      vertex 25.6 137.34 0
    endloop
  endfacet
  facet normal 0 -0 -1
    outer loop
      vertex -25.6 137.34 0
      vertex -25.6 48.6595 0
      vertex -51.2 93 0
    endloop
  endfacet
  facet normal 0 1 -0
    outer loop
      vertex 25.1 49.5255 2
      vertex -25.1 49.5255 17.5
      vertex 25.1 49.5255 17.5
    endloop
  endfacet
  facet normal 0 1 0
    outer loop
      vertex -25.1 49.5255 17.5
      vertex 25.1 49.5255 2
      vertex -25.1 49.5255 2
    endloop
  endfacet
  facet normal -0.866026 0.5 0
    outer loop
      vertex 25.1 49.5255 2
      vertex 50.2 93 17.5
      vertex 50.2 93 2
    endloop
  endfacet
  facet normal -0.866026 0.5 0
    outer loop
      vertex 50.2 93 17.5
      vertex 25.1 49.5255 2
      vertex 25.1 49.5255 17.5
    endloop
  endfacet
  facet normal 0 -1 0
    outer loop
      vertex -25.1 136.474 2
      vertex 25.1 136.474 17.5
      vertex -25.1 136.474 17.5
    endloop
  endfacet
  facet normal 0 -1 -0
    outer loop
      vertex 25.1 136.474 17.5
      vertex -25.1 136.474 2
      vertex 25.1 136.474 2
    endloop
  endfacet
  facet normal -0.866023 -0.500004 0
    outer loop
      vertex 50.2 93 2
      vertex 25.1 136.474 17.5
      vertex 25.1 136.474 2
    endloop
  endfacet
  facet normal -0.866023 -0.500004 0
    outer loop
      vertex 25.1 136.474 17.5
      vertex 50.2 93 2
      vertex 50.2 93 17.5
    endloop
  endfacet
  facet normal 0.866023 -0.500004 0
    outer loop
      vertex -50.2 93 17.5
      vertex -25.1 136.474 2
      vertex -25.1 136.474 17.5
    endloop
  endfacet
  facet normal 0.866023 -0.500004 0
    outer loop
      vertex -25.1 136.474 2
      vertex -50.2 93 17.5
      vertex -50.2 93 2
    endloop
  endfacet
  facet normal 0.866026 0.5 0
    outer loop
      vertex -25.1 49.5255 17.5
      vertex -50.2 93 2
      vertex -50.2 93 17.5
    endloop
  endfacet
  facet normal 0.866026 0.5 0
    outer loop
      vertex -50.2 93 2
      vertex -25.1 49.5255 17.5
      vertex -25.1 49.5255 2
    endloop
  endfacet
  facet normal 0 0 1
    outer loop
      vertex 25.1 136.474 2
      vertex 25.1 49.5255 2
      vertex 50.2 93 2
    endloop
  endfacet
  facet normal -0 0 1
    outer loop
      vertex -25.1 136.474 2
      vertex 25.1 49.5255 2
      vertex 25.1 136.474 2
    endloop
  endfacet
  facet normal 0 0 1
    outer loop
      vertex -25.1 136.474 2
      vertex -25.1 49.5255 2
      vertex 25.1 49.5255 2
    endloop
  endfacet
  facet normal 0 -0 1
    outer loop
      vertex -25.1 49.5255 2
      vertex -25.1 136.474 2
      vertex -50.2 93 2
    endloop
  endfacet
endsolid OpenSCAD_Model
