solid OpenSCAD_Model
  facet normal 0 -1 0
    outer loop
      vertex -25.55 48.7461 0
      vertex 25.55 48.7461 12
      vertex -25.55 48.7461 12
    endloop
  endfacet
  facet normal 0 -1 -0
    outer loop
      vertex 25.55 48.7461 12
      vertex -25.55 48.7461 0
      vertex 25.55 48.7461 0
    endloop
  endfacet
  facet normal 0.866025 -0.5 0
    outer loop
      vertex 25.55 48.7461 12
      vertex 51.1 93 0
      vertex 51.1 93 12
    endloop
  endfacet
  facet normal 0.866025 -0.5 0
    outer loop
      vertex 51.1 93 0
      vertex 25.55 48.7461 12
      vertex 25.55 48.7461 0
    endloop
  endfacet
  facet normal 0 1 -0
    outer loop
      vertex 25.55 137.254 0
      vertex -25.55 137.254 12
      vertex 25.55 137.254 12
    endloop
  endfacet
  facet normal 0 1 0
    outer loop
      vertex -25.55 137.254 12
      vertex 25.55 137.254 0
      vertex -25.55 137.254 0
    endloop
  endfacet
  facet normal 0.866026 0.499999 0
    outer loop
      vertex 51.1 93 12
      vertex 25.55 137.254 0
      vertex 25.55 137.254 12
    endloop
  endfacet
  facet normal 0.866026 0.499999 0
    outer loop
      vertex 25.55 137.254 0
      vertex 51.1 93 12
      vertex 51.1 93 0
    endloop
  endfacet
  facet normal -0.866026 0.499999 0
    outer loop
      vertex -51.1 93 0
      vertex -25.55 137.254 12
      vertex -25.55 137.254 0
    endloop
  endfacet
  facet normal -0.866026 0.499999 0
    outer loop
      vertex -25.55 137.254 12
      vertex -51.1 93 0
      vertex -51.1 93 12
    endloop
  endfacet
  facet normal -0.866025 -0.5 0
    outer loop
      vertex -25.55 48.7461 0
      vertex -51.1 93 12
      vertex -51.1 93 0
    endloop
  endfacet
  facet normal -0.866025 -0.5 0
    outer loop
      vertex -51.1 93 12
      vertex -25.55 48.7461 0
      vertex -25.55 48.7461 12
    endloop
  endfacet
  facet normal 0 0 1
    outer loop
      vertex 25.55 137.254 12
      vertex 50.2 93 12
      vertex 51.1 93 12
    endloop
  endfacet
  facet normal 0 0 1
    outer loop
      vertex 25.55 137.254 12
      vertex 25.1 136.474 12
      vertex 50.2 93 12
    endloop
  endfacet
  facet normal 0 0 1
    outer loop
      vertex 25.55 137.254 12
      vertex -25.1 136.474 12
      vertex 25.1 136.474 12
    endloop
  endfacet
  facet normal -0 0 1
    outer loop
      vertex -25.55 137.254 12
      vertex -25.1 136.474 12
      vertex 25.55 137.254 12
    endloop
  endfacet
  facet normal 0 0 1
    outer loop
      vertex -25.55 137.254 12
      vertex -50.2 93 12
      vertex -25.1 136.474 12
    endloop
  endfacet
  facet normal 0 -0 1
    outer loop
      vertex -50.2 93 12
      vertex -25.55 137.254 12
      vertex -51.1 93 12
    endloop
  endfacet
  facet normal -0 0 1
    outer loop
      vertex 50.2 93 12
      vertex 25.55 48.7461 12
      vertex 51.1 93 12
    endloop
  endfacet
  facet normal -0 0 1
    outer loop
      vertex 25.1 49.5255 12
      vertex 25.55 48.7461 12
      vertex 50.2 93 12
    endloop
  endfacet
  facet normal -0 0 1
    outer loop
      vertex -25.1 49.5255 12
      vertex 25.55 48.7461 12
      vertex 25.1 49.5255 12
    endloop
  endfacet
  facet normal 0 0 1
    outer loop
      vertex -25.1 49.5255 12
      vertex -25.55 48.7461 12
      vertex 25.55 48.7461 12
    endloop
  endfacet
  facet normal 0 0 1
    outer loop
      vertex -50.2 93 12
      vertex -25.55 48.7461 12
      vertex -25.1 49.5255 12
    endloop
  endfacet
  facet normal 0 0 1
    outer loop
      vertex -25.55 48.7461 12
      vertex -50.2 93 12
      vertex -51.1 93 12
    endloop
  endfacet
  facet normal 0 0 -1
    outer loop
      vertex 1 93 0
      vertex 51.1 93 0
      vertex 25.55 48.7461 0
    endloop
  endfacet
  facet normal 0 0 -1
    outer loop
      vertex 51.1 93 0
      vertex 1 93 0
      vertex 25.55 137.254 0
    endloop
  endfacet
  facet normal 0 0 -1
    outer loop
      vertex 25.55 48.7461 0
      vertex 0.5 92.134 0
      vertex 1 93 0
    endloop
  endfacet
  facet normal 0 0 -1
    outer loop
      vertex 25.55 48.7461 0
      vertex -0.5 92.134 0
      vertex 0.5 92.134 0
    endloop
  endfacet
  facet normal -0 0 -1
    outer loop
      vertex -0.5 92.134 0
      vertex -25.55 48.7461 0
      vertex -1 93 0
    endloop
  endfacet
  facet normal 0 0 -1
    outer loop
      vertex -25.55 48.7461 0
      vertex -0.5 92.134 0
      vertex 25.55 48.7461 0
    endloop
  endfacet
  facet normal 0 0 -1
    outer loop
      vertex 0.5 93.866 0
      vertex 25.55 137.254 0
      vertex 1 93 0
    endloop
  endfacet
  facet normal 0 0 -1
    outer loop
      vertex -0.5 93.866 0
      vertex 25.55 137.254 0
      vertex 0.5 93.866 0
    endloop
  endfacet
  facet normal 0 0 -1
    outer loop
      vertex -0.5 93.866 0
      vertex -25.55 137.254 0
      vertex 25.55 137.254 0
    endloop
  endfacet
  facet normal 0 0 -1
    outer loop
      vertex -1 93 0
      vertex -25.55 137.254 0
      vertex -0.5 93.866 0
    endloop
  endfacet
  facet normal 0 0 -1
    outer loop
      vertex -51.1 93 0
      vertex -1 93 0
      vertex -25.55 48.7461 0
    endloop
  endfacet
  facet normal 0 0 -1
    outer loop
      vertex -1 93 0
      vertex -51.1 93 0
      vertex -25.55 137.254 0
    endloop
  endfacet
  facet normal 0 1 -0
    outer loop
      vertex 25.1 49.5255 1.8
      vertex -25.1 49.5255 12
      vertex 25.1 49.5255 12
    endloop
  endfacet
  facet normal 0 1 0
    outer loop
      vertex -25.1 49.5255 12
      vertex 25.1 49.5255 1.8
      vertex -25.1 49.5255 1.8
    endloop
  endfacet
  facet normal -0.866026 0.5 0
    outer loop
      vertex 25.1 49.5255 1.8
      vertex 50.2 93 12
      vertex 50.2 93 1.8
    endloop
  endfacet
  facet normal -0.866026 0.5 0
    outer loop
      vertex 50.2 93 12
      vertex 25.1 49.5255 1.8
      vertex 25.1 49.5255 12
    endloop
  endfacet
  facet normal 0 -1 0
    outer loop
      vertex -25.1 136.474 1.8
      vertex 25.1 136.474 12
      vertex -25.1 136.474 12
    endloop
  endfacet
  facet normal 0 -1 -0
    outer loop
      vertex 25.1 136.474 12
      vertex -25.1 136.474 1.8
      vertex 25.1 136.474 1.8
    endloop
  endfacet
  facet normal -0.866023 -0.500004 0
    outer loop
      vertex 50.2 93 1.8
      vertex 25.1 136.474 12
      vertex 25.1 136.474 1.8
    endloop
  endfacet
  facet normal -0.866023 -0.500004 0
    outer loop
      vertex 25.1 136.474 12
      vertex 50.2 93 1.8
      vertex 50.2 93 12
    endloop
  endfacet
  facet normal 0.866023 -0.500004 0
    outer loop
      vertex -50.2 93 12
      vertex -25.1 136.474 1.8
      vertex -25.1 136.474 12
    endloop
  endfacet
  facet normal 0.866023 -0.500004 0
    outer loop
      vertex -25.1 136.474 1.8
      vertex -50.2 93 12
      vertex -50.2 93 1.8
    endloop
  endfacet
  facet normal 0.866026 0.5 0
    outer loop
      vertex -25.1 49.5255 12
      vertex -50.2 93 1.8
      vertex -50.2 93 12
    endloop
  endfacet
  facet normal 0.866026 0.5 0
    outer loop
      vertex -50.2 93 1.8
      vertex -25.1 49.5255 12
      vertex -25.1 49.5255 1.8
    endloop
  endfacet
  facet normal 0 0 1
    outer loop
      vertex 1 93 1.8
      vertex 50.2 93 1.8
      vertex 25.1 136.474 1.8
    endloop
  endfacet
  facet normal 0 0 1
    outer loop
      vertex 50.2 93 1.8
      vertex 1 93 1.8
      vertex 25.1 49.5255 1.8
    endloop
  endfacet
  facet normal 0 0 1
    outer loop
      vertex 25.1 136.474 1.8
      vertex 0.5 93.866 1.8
      vertex 1 93 1.8
    endloop
  endfacet
  facet normal 0 0 1
    outer loop
      vertex 25.1 136.474 1.8
      vertex -0.5 93.866 1.8
      vertex 0.5 93.866 1.8
    endloop
  endfacet
  facet normal 0 0 1
    outer loop
      vertex -0.5 93.866 1.8
      vertex -25.1 136.474 1.8
      vertex -1 93 1.8
    endloop
  endfacet
  facet normal -0 0 1
    outer loop
      vertex -25.1 136.474 1.8
      vertex -0.5 93.866 1.8
      vertex 25.1 136.474 1.8
    endloop
  endfacet
  facet normal -0 0 1
    outer loop
      vertex 0.5 92.134 1.8
      vertex 25.1 49.5255 1.8
      vertex 1 93 1.8
    endloop
  endfacet
  facet normal -0 0 1
    outer loop
      vertex -0.5 92.134 1.8
      vertex 25.1 49.5255 1.8
      vertex 0.5 92.134 1.8
    endloop
  endfacet
  facet normal 0 0 1
    outer loop
      vertex -0.5 92.134 1.8
      vertex -25.1 49.5255 1.8
      vertex 25.1 49.5255 1.8
    endloop
  endfacet
  facet normal 0 0 1
    outer loop
      vertex -1 93 1.8
      vertex -25.1 49.5255 1.8
      vertex -0.5 92.134 1.8
    endloop
  endfacet
  facet normal 0 0 1
    outer loop
      vertex -50.2 93 1.8
      vertex -1 93 1.8
      vertex -25.1 136.474 1.8
    endloop
  endfacet
  facet normal 0 0 1
    outer loop
      vertex -1 93 1.8
      vertex -50.2 93 1.8
      vertex -25.1 49.5255 1.8
    endloop
  endfacet
  facet normal 0 1 -0
    outer loop
      vertex 0.5 92.134 0
      vertex -0.5 92.134 1.8
      vertex 0.5 92.134 1.8
    endloop
  endfacet
  facet normal 0 1 0
    outer loop
      vertex -0.5 92.134 1.8
      vertex 0.5 92.134 0
      vertex -0.5 92.134 0
    endloop
  endfacet
  facet normal -0.866019 0.500011 0
    outer loop
      vertex 0.5 92.134 0
      vertex 1 93 1.8
      vertex 1 93 0
    endloop
  endfacet
  facet normal -0.866019 0.500011 0
    outer loop
      vertex 1 93 1.8
      vertex 0.5 92.134 0
      vertex 0.5 92.134 1.8
    endloop
  endfacet
  facet normal 0 -1 0
    outer loop
      vertex -0.5 93.866 0
      vertex 0.5 93.866 1.8
      vertex -0.5 93.866 1.8
    endloop
  endfacet
  facet normal 0 -1 -0
    outer loop
      vertex 0.5 93.866 1.8
      vertex -0.5 93.866 0
      vertex 0.5 93.866 0
    endloop
  endfacet
  facet normal -0.866019 -0.500011 0
    outer loop
      vertex 1 93 0
      vertex 0.5 93.866 1.8
      vertex 0.5 93.866 0
    endloop
  endfacet
  facet normal -0.866019 -0.500011 0
    outer loop
      vertex 0.5 93.866 1.8
      vertex 1 93 0
      vertex 1 93 1.8
    endloop
  endfacet
  facet normal 0.866019 -0.500011 0
    outer loop
      vertex -1 93 1.8
      vertex -0.5 93.866 0
      vertex -0.5 93.866 1.8
    endloop
  endfacet
  facet normal 0.866019 -0.500011 0
    outer loop
      vertex -0.5 93.866 0
      vertex -1 93 1.8
      vertex -1 93 0
    endloop
  endfacet
  facet normal 0.866019 0.500011 0
    outer loop
      vertex -0.5 92.134 1.8
      vertex -1 93 0
      vertex -1 93 1.8
    endloop
  endfacet
  facet normal 0.866019 0.500011 0
    outer loop
      vertex -1 93 0
      vertex -0.5 92.134 1.8
      vertex -0.5 92.134 0
    endloop
  endfacet
  facet normal 0 -1 0
    outer loop
      vertex -25 -43.3013 0
      vertex 25 -43.3013 56
      vertex -25 -43.3013 56
    endloop
  endfacet
  facet normal 0 -1 -0
    outer loop
      vertex 25 -43.3013 56
      vertex -25 -43.3013 0
      vertex 25 -43.3013 0
    endloop
  endfacet
  facet normal 0.866026 -0.5 0
    outer loop
      vertex 25 -43.3013 56
      vertex 50 0 0
      vertex 50 0 56
    endloop
  endfacet
  facet normal 0.866026 -0.5 0
    outer loop
      vertex 50 0 0
      vertex 25 -43.3013 56
      vertex 25 -43.3013 0
    endloop
  endfacet
  facet normal 0 1 -0
    outer loop
      vertex 25 43.3013 0
      vertex -25 43.3013 56
      vertex 25 43.3013 56
    endloop
  endfacet
  facet normal 0 1 0
    outer loop
      vertex -25 43.3013 56
      vertex 25 43.3013 0
      vertex -25 43.3013 0
    endloop
  endfacet
  facet normal 0.866026 0.5 0
    outer loop
      vertex 50 0 56
      vertex 25 43.3013 0
      vertex 25 43.3013 56
    endloop
  endfacet
  facet normal 0.866026 0.5 0
    outer loop
      vertex 25 43.3013 0
      vertex 50 0 56
      vertex 50 0 0
    endloop
  endfacet
  facet normal -0.866026 0.5 0
    outer loop
      vertex -50 0 0
      vertex -25 43.3013 56
      vertex -25 43.3013 0
    endloop
  endfacet
  facet normal -0.866026 0.5 0
    outer loop
      vertex -25 43.3013 56
      vertex -50 0 0
      vertex -50 0 56
    endloop
  endfacet
  facet normal -0.866026 -0.5 0
    outer loop
      vertex -25 -43.3013 0
      vertex -50 0 56
      vertex -50 0 0
    endloop
  endfacet
  facet normal -0.866026 -0.5 0
    outer loop
      vertex -50 0 56
      vertex -25 -43.3013 0
      vertex -25 -43.3013 56
    endloop
  endfacet
  facet normal 0 0 1
    outer loop
      vertex 25 43.3013 56
      vertex 49.1 0 56
      vertex 50 0 56
    endloop
  endfacet
  facet normal 0 0 1
    outer loop
      vertex 25 43.3013 56
      vertex 24.55 42.5218 56
      vertex 49.1 0 56
    endloop
  endfacet
  facet normal 0 0 1
    outer loop
      vertex 25 43.3013 56
      vertex -24.55 42.5218 56
      vertex 24.55 42.5218 56
    endloop
  endfacet
  facet normal -0 0 1
    outer loop
      vertex -25 43.3013 56
      vertex -24.55 42.5218 56
      vertex 25 43.3013 56
    endloop
  endfacet
  facet normal 0 0 1
    outer loop
      vertex -25 43.3013 56
      vertex -49.1 0 56
      vertex -24.55 42.5218 56
    endloop
  endfacet
  facet normal 0 -0 1
    outer loop
      vertex -49.1 0 56
      vertex -25 43.3013 56
      vertex -50 0 56
    endloop
  endfacet
  facet normal -0 0 1
    outer loop
      vertex 49.1 0 56
      vertex 25 -43.3013 56
      vertex 50 0 56
    endloop
  endfacet
  facet normal -0 0 1
    outer loop
      vertex 24.55 -42.5218 56
      vertex 25 -43.3013 56
      vertex 49.1 0 56
    endloop
  endfacet
  facet normal -0 0 1
    outer loop
      vertex -24.55 -42.5218 56
      vertex 25 -43.3013 56
      vertex 24.55 -42.5218 56
    endloop
  endfacet
  facet normal 0 0 1
    outer loop
      vertex -24.55 -42.5218 56
      vertex -25 -43.3013 56
      vertex 25 -43.3013 56
    endloop
  endfacet
  facet normal 0 0 1
    outer loop
      vertex -49.1 0 56
      vertex -25 -43.3013 56
      vertex -24.55 -42.5218 56
    endloop
  endfacet
  facet normal 0 0 1
    outer loop
      vertex -25 -43.3013 56
      vertex -49.1 0 56
      vertex -50 0 56
    endloop
  endfacet
  facet normal 0 0 -1
    outer loop
      vertex 25 -43.3013 0
      vertex 25 43.3013 0
      vertex 50 0 0
    endloop
  endfacet
  facet normal 0 0 -1
    outer loop
      vertex -25 -43.3013 0
      vertex 25 43.3013 0
      vertex 25 -43.3013 0
    endloop
  endfacet
  facet normal 0 0 -1
    outer loop
      vertex -25 -43.3013 0
      vertex -25 43.3013 0
      vertex 25 43.3013 0
    endloop
  endfacet
  facet normal 0 -0 -1
    outer loop
      vertex -25 43.3013 0
      vertex -25 -43.3013 0
      vertex -50 0 0
    endloop
  endfacet
  facet normal 0 1 -0
    outer loop
      vertex 24.55 -42.5218 1.8
      vertex -24.55 -42.5218 56
      vertex 24.55 -42.5218 56
    endloop
  endfacet
  facet normal 0 1 0
    outer loop
      vertex -24.55 -42.5218 56
      vertex 24.55 -42.5218 1.8
      vertex -24.55 -42.5218 1.8
    endloop
  endfacet
  facet normal -0.866025 0.5 0
    outer loop
      vertex 24.55 -42.5218 1.8
      vertex 49.1 0 56
      vertex 49.1 0 1.8
    endloop
  endfacet
  facet normal -0.866025 0.5 0
    outer loop
      vertex 49.1 0 56
      vertex 24.55 -42.5218 1.8
      vertex 24.55 -42.5218 56
    endloop
  endfacet
  facet normal 0 -1 0
    outer loop
      vertex -24.55 42.5218 1.8
      vertex 24.55 42.5218 56
      vertex -24.55 42.5218 56
    endloop
  endfacet
  facet normal 0 -1 -0
    outer loop
      vertex 24.55 42.5218 56
      vertex -24.55 42.5218 1.8
      vertex 24.55 42.5218 1.8
    endloop
  endfacet
  facet normal -0.866025 -0.5 0
    outer loop
      vertex 49.1 0 1.8
      vertex 24.55 42.5218 56
      vertex 24.55 42.5218 1.8
    endloop
  endfacet
  facet normal -0.866025 -0.5 0
    outer loop
      vertex 24.55 42.5218 56
      vertex 49.1 0 1.8
      vertex 49.1 0 56
    endloop
  endfacet
  facet normal 0.866025 -0.5 0
    outer loop
      vertex -49.1 0 56
      vertex -24.55 42.5218 1.8
      vertex -24.55 42.5218 56
    endloop
  endfacet
  facet normal 0.866025 -0.5 0
    outer loop
      vertex -24.55 42.5218 1.8
      vertex -49.1 0 56
      vertex -49.1 0 1.8
    endloop
  endfacet
  facet normal 0.866025 0.5 0
    outer loop
      vertex -24.55 -42.5218 56
      vertex -49.1 0 1.8
      vertex -49.1 0 56
    endloop
  endfacet
  facet normal 0.866025 0.5 0
    outer loop
      vertex -49.1 0 1.8
      vertex -24.55 -42.5218 56
      vertex -24.55 -42.5218 1.8
    endloop
  endfacet
  facet normal 0 0 1
    outer loop
      vertex 24.55 42.5218 1.8
      vertex 24.55 -42.5218 1.8
      vertex 49.1 0 1.8
    endloop
  endfacet
  facet normal -0 0 1
    outer loop
      vertex -24.55 42.5218 1.8
      vertex 24.55 -42.5218 1.8
      vertex 24.55 42.5218 1.8
    endloop
  endfacet
  facet normal 0 0 1
    outer loop
      vertex -24.55 42.5218 1.8
      vertex -24.55 -42.5218 1.8
      vertex 24.55 -42.5218 1.8
    endloop
  endfacet
  facet normal 0 -0 1
    outer loop
      vertex -24.55 -42.5218 1.8
      vertex -24.55 42.5218 1.8
      vertex -49.1 0 1.8
    endloop
  endfacet
endsolid OpenSCAD_Model
