solid OpenSCAD_Model
  facet normal 0 -1 0
    outer loop
      vertex -25 -43.3013 0
      vertex 25 -43.3013 56
      vertex -25 -43.3013 56
    endloop
  endfacet
  facet normal 0 -1 -0
    outer loop
      vertex 25 -43.3013 56
      vertex -25 -43.3013 0
      vertex 25 -43.3013 0
    endloop
  endfacet
  facet normal 0.866026 -0.5 0
    outer loop
      vertex 25 -43.3013 56
      vertex 50 0 0
      vertex 50 0 56
    endloop
  endfacet
  facet normal 0.866026 -0.5 0
    outer loop
      vertex 50 0 0
      vertex 25 -43.3013 56
      vertex 25 -43.3013 0
    endloop
  endfacet
  facet normal 0 1 -0
    outer loop
      vertex 25 43.3013 0
      vertex -25 43.3013 56
      vertex 25 43.3013 56
    endloop
  endfacet
  facet normal 0 1 0
    outer loop
      vertex -25 43.3013 56
      vertex 25 43.3013 0
      vertex -25 43.3013 0
    endloop
  endfacet
  facet normal 0.866026 0.5 0
    outer loop
      vertex 50 0 56
      vertex 25 43.3013 0
      vertex 25 43.3013 56
    endloop
  endfacet
  facet normal 0.866026 0.5 0
    outer loop
      vertex 25 43.3013 0
      vertex 50 0 56
      vertex 50 0 0
    endloop
  endfacet
  facet normal -0.866026 0.5 0
    outer loop
      vertex -50 0 0
      vertex -25 43.3013 56
      vertex -25 43.3013 0
    endloop
  endfacet
  facet normal -0.866026 0.5 0
    outer loop
      vertex -25 43.3013 56
      vertex -50 0 0
      vertex -50 0 56
    endloop
  endfacet
  facet normal -0.866026 -0.5 0
    outer loop
      vertex -25 -43.3013 0
      vertex -50 0 56
      vertex -50 0 0
    endloop
  endfacet
  facet normal -0.866026 -0.5 0
    outer loop
      vertex -50 0 56
      vertex -25 -43.3013 0
      vertex -25 -43.3013 56
    endloop
  endfacet
  facet normal 0 0 1
    outer loop
      vertex 25 43.3013 56
      vertex 49 0 56
      vertex 50 0 56
    endloop
  endfacet
  facet normal 0 0 1
    outer loop
      vertex 25 43.3013 56
      vertex 24.5 42.4352 56
      vertex 49 0 56
    endloop
  endfacet
  facet normal 0 0 1
    outer loop
      vertex 25 43.3013 56
      vertex -24.5 42.4352 56
      vertex 24.5 42.4352 56
    endloop
  endfacet
  facet normal -0 0 1
    outer loop
      vertex -25 43.3013 56
      vertex -24.5 42.4352 56
      vertex 25 43.3013 56
    endloop
  endfacet
  facet normal 0 0 1
    outer loop
      vertex -25 43.3013 56
      vertex -49 0 56
      vertex -24.5 42.4352 56
    endloop
  endfacet
  facet normal 0 -0 1
    outer loop
      vertex -49 0 56
      vertex -25 43.3013 56
      vertex -50 0 56
    endloop
  endfacet
  facet normal -0 0 1
    outer loop
      vertex 49 0 56
      vertex 25 -43.3013 56
      vertex 50 0 56
    endloop
  endfacet
  facet normal -0 0 1
    outer loop
      vertex 24.5 -42.4352 56
      vertex 25 -43.3013 56
      vertex 49 0 56
    endloop
  endfacet
  facet normal -0 0 1
    outer loop
      vertex -24.5 -42.4352 56
      vertex 25 -43.3013 56
      vertex 24.5 -42.4352 56
    endloop
  endfacet
  facet normal 0 0 1
    outer loop
      vertex -24.5 -42.4352 56
      vertex -25 -43.3013 56
      vertex 25 -43.3013 56
    endloop
  endfacet
  facet normal 0 0 1
    outer loop
      vertex -49 0 56
      vertex -25 -43.3013 56
      vertex -24.5 -42.4352 56
    endloop
  endfacet
  facet normal 0 0 1
    outer loop
      vertex -25 -43.3013 56
      vertex -49 0 56
      vertex -50 0 56
    endloop
  endfacet
  facet normal 0 0 -1
    outer loop
      vertex 25 -43.3013 0
      vertex 25 43.3013 0
      vertex 50 0 0
    endloop
  endfacet
  facet normal 0 0 -1
    outer loop
      vertex -25 -43.3013 0
      vertex 25 43.3013 0
      vertex 25 -43.3013 0
    endloop
  endfacet
  facet normal 0 0 -1
    outer loop
      vertex -25 -43.3013 0
      vertex -25 43.3013 0
      vertex 25 43.3013 0
    endloop
  endfacet
  facet normal 0 -0 -1
    outer loop
      vertex -25 43.3013 0
      vertex -25 -43.3013 0
      vertex -50 0 0
    endloop
  endfacet
  facet normal 0 1 -0
    outer loop
      vertex 24.5 -42.4352 2
      vertex -24.5 -42.4352 56
      vertex 24.5 -42.4352 56
    endloop
  endfacet
  facet normal 0 1 0
    outer loop
      vertex -24.5 -42.4352 56
      vertex 24.5 -42.4352 2
      vertex -24.5 -42.4352 2
    endloop
  endfacet
  facet normal -0.866025 0.5 0
    outer loop
      vertex 24.5 -42.4352 2
      vertex 49 0 56
      vertex 49 0 2
    endloop
  endfacet
  facet normal -0.866025 0.5 0
    outer loop
      vertex 49 0 56
      vertex 24.5 -42.4352 2
      vertex 24.5 -42.4352 56
    endloop
  endfacet
  facet normal 0 -1 0
    outer loop
      vertex -24.5 42.4352 2
      vertex 24.5 42.4352 56
      vertex -24.5 42.4352 56
    endloop
  endfacet
  facet normal 0 -1 -0
    outer loop
      vertex 24.5 42.4352 56
      vertex -24.5 42.4352 2
      vertex 24.5 42.4352 2
    endloop
  endfacet
  facet normal -0.866025 -0.5 0
    outer loop
      vertex 49 0 2
      vertex 24.5 42.4352 56
      vertex 24.5 42.4352 2
    endloop
  endfacet
  facet normal -0.866025 -0.5 0
    outer loop
      vertex 24.5 42.4352 56
      vertex 49 0 2
      vertex 49 0 56
    endloop
  endfacet
  facet normal 0.866025 -0.5 0
    outer loop
      vertex -49 0 56
      vertex -24.5 42.4352 2
      vertex -24.5 42.4352 56
    endloop
  endfacet
  facet normal 0.866025 -0.5 0
    outer loop
      vertex -24.5 42.4352 2
      vertex -49 0 56
      vertex -49 0 2
    endloop
  endfacet
  facet normal 0.866025 0.5 0
    outer loop
      vertex -24.5 -42.4352 56
      vertex -49 0 2
      vertex -49 0 56
    endloop
  endfacet
  facet normal 0.866025 0.5 0
    outer loop
      vertex -49 0 2
      vertex -24.5 -42.4352 56
      vertex -24.5 -42.4352 2
    endloop
  endfacet
  facet normal 0 0 1
    outer loop
      vertex 24.5 42.4352 2
      vertex 24.5 -42.4352 2
      vertex 49 0 2
    endloop
  endfacet
  facet normal -0 0 1
    outer loop
      vertex -24.5 42.4352 2
      vertex 24.5 -42.4352 2
      vertex 24.5 42.4352 2
    endloop
  endfacet
  facet normal 0 0 1
    outer loop
      vertex -24.5 42.4352 2
      vertex -24.5 -42.4352 2
      vertex 24.5 -42.4352 2
    endloop
  endfacet
  facet normal 0 -0 1
    outer loop
      vertex -24.5 -42.4352 2
      vertex -24.5 42.4352 2
      vertex -49 0 2
    endloop
  endfacet
endsolid OpenSCAD_Model
