solid OpenSCAD_Model
  facet normal 0 -1 0
    outer loop
      vertex -25 -43.3013 0
      vertex 25 -43.3013 28
      vertex -25 -43.3013 28
    endloop
  endfacet
  facet normal 0 -1 -0
    outer loop
      vertex 25 -43.3013 28
      vertex -25 -43.3013 0
      vertex 25 -43.3013 0
    endloop
  endfacet
  facet normal 0.866026 -0.5 0
    outer loop
      vertex 25 -43.3013 28
      vertex 50 0 0
      vertex 50 0 28
    endloop
  endfacet
  facet normal 0.866026 -0.5 0
    outer loop
      vertex 50 0 0
      vertex 25 -43.3013 28
      vertex 25 -43.3013 0
    endloop
  endfacet
  facet normal 0 1 -0
    outer loop
      vertex 25 43.3013 0
      vertex -25 43.3013 28
      vertex 25 43.3013 28
    endloop
  endfacet
  facet normal 0 1 0
    outer loop
      vertex -25 43.3013 28
      vertex 25 43.3013 0
      vertex -25 43.3013 0
    endloop
  endfacet
  facet normal 0.866026 0.5 0
    outer loop
      vertex 50 0 28
      vertex 25 43.3013 0
      vertex 25 43.3013 28
    endloop
  endfacet
  facet normal 0.866026 0.5 0
    outer loop
      vertex 25 43.3013 0
      vertex 50 0 28
      vertex 50 0 0
    endloop
  endfacet
  facet normal -0.866026 0.5 0
    outer loop
      vertex -50 0 0
      vertex -25 43.3013 28
      vertex -25 43.3013 0
    endloop
  endfacet
  facet normal -0.866026 0.5 0
    outer loop
      vertex -25 43.3013 28
      vertex -50 0 0
      vertex -50 0 28
    endloop
  endfacet
  facet normal -0.866026 -0.5 0
    outer loop
      vertex -25 -43.3013 0
      vertex -50 0 28
      vertex -50 0 0
    endloop
  endfacet
  facet normal -0.866026 -0.5 0
    outer loop
      vertex -50 0 28
      vertex -25 -43.3013 0
      vertex -25 -43.3013 28
    endloop
  endfacet
  facet normal 0 0 1
    outer loop
      vertex 25 43.3013 28
      vertex 49.1 0 28
      vertex 50 0 28
    endloop
  endfacet
  facet normal 0 0 1
    outer loop
      vertex 25 43.3013 28
      vertex 24.55 42.5218 28
      vertex 49.1 0 28
    endloop
  endfacet
  facet normal 0 0 1
    outer loop
      vertex 25 43.3013 28
      vertex -24.55 42.5218 28
      vertex 24.55 42.5218 28
    endloop
  endfacet
  facet normal -0 0 1
    outer loop
      vertex -25 43.3013 28
      vertex -24.55 42.5218 28
      vertex 25 43.3013 28
    endloop
  endfacet
  facet normal 0 0 1
    outer loop
      vertex -25 43.3013 28
      vertex -49.1 0 28
      vertex -24.55 42.5218 28
    endloop
  endfacet
  facet normal 0 -0 1
    outer loop
      vertex -49.1 0 28
      vertex -25 43.3013 28
      vertex -50 0 28
    endloop
  endfacet
  facet normal -0 0 1
    outer loop
      vertex 49.1 0 28
      vertex 25 -43.3013 28
      vertex 50 0 28
    endloop
  endfacet
  facet normal -0 0 1
    outer loop
      vertex 24.55 -42.5218 28
      vertex 25 -43.3013 28
      vertex 49.1 0 28
    endloop
  endfacet
  facet normal -0 0 1
    outer loop
      vertex -24.55 -42.5218 28
      vertex 25 -43.3013 28
      vertex 24.55 -42.5218 28
    endloop
  endfacet
  facet normal 0 0 1
    outer loop
      vertex -24.55 -42.5218 28
      vertex -25 -43.3013 28
      vertex 25 -43.3013 28
    endloop
  endfacet
  facet normal 0 0 1
    outer loop
      vertex -49.1 0 28
      vertex -25 -43.3013 28
      vertex -24.55 -42.5218 28
    endloop
  endfacet
  facet normal 0 0 1
    outer loop
      vertex -25 -43.3013 28
      vertex -49.1 0 28
      vertex -50 0 28
    endloop
  endfacet
  facet normal 0 0 -1
    outer loop
      vertex 25 -43.3013 0
      vertex 25 43.3013 0
      vertex 50 0 0
    endloop
  endfacet
  facet normal 0 0 -1
    outer loop
      vertex -25 -43.3013 0
      vertex 25 43.3013 0
      vertex 25 -43.3013 0
    endloop
  endfacet
  facet normal 0 0 -1
    outer loop
      vertex -25 -43.3013 0
      vertex -25 43.3013 0
      vertex 25 43.3013 0
    endloop
  endfacet
  facet normal 0 -0 -1
    outer loop
      vertex -25 43.3013 0
      vertex -25 -43.3013 0
      vertex -50 0 0
    endloop
  endfacet
  facet normal 0 1 -0
    outer loop
      vertex 24.55 -42.5218 1.8
      vertex -24.55 -42.5218 28
      vertex 24.55 -42.5218 28
    endloop
  endfacet
  facet normal 0 1 0
    outer loop
      vertex -24.55 -42.5218 28
      vertex 24.55 -42.5218 1.8
      vertex -24.55 -42.5218 1.8
    endloop
  endfacet
  facet normal -0.866025 0.5 0
    outer loop
      vertex 24.55 -42.5218 1.8
      vertex 49.1 0 28
      vertex 49.1 0 1.8
    endloop
  endfacet
  facet normal -0.866025 0.5 0
    outer loop
      vertex 49.1 0 28
      vertex 24.55 -42.5218 1.8
      vertex 24.55 -42.5218 28
    endloop
  endfacet
  facet normal 0 -1 0
    outer loop
      vertex -24.55 42.5218 1.8
      vertex 24.55 42.5218 28
      vertex -24.55 42.5218 28
    endloop
  endfacet
  facet normal 0 -1 -0
    outer loop
      vertex 24.55 42.5218 28
      vertex -24.55 42.5218 1.8
      vertex 24.55 42.5218 1.8
    endloop
  endfacet
  facet normal -0.866025 -0.5 0
    outer loop
      vertex 49.1 0 1.8
      vertex 24.55 42.5218 28
      vertex 24.55 42.5218 1.8
    endloop
  endfacet
  facet normal -0.866025 -0.5 0
    outer loop
      vertex 24.55 42.5218 28
      vertex 49.1 0 1.8
      vertex 49.1 0 28
    endloop
  endfacet
  facet normal 0.866025 -0.5 0
    outer loop
      vertex -49.1 0 28
      vertex -24.55 42.5218 1.8
      vertex -24.55 42.5218 28
    endloop
  endfacet
  facet normal 0.866025 -0.5 0
    outer loop
      vertex -24.55 42.5218 1.8
      vertex -49.1 0 28
      vertex -49.1 0 1.8
    endloop
  endfacet
  facet normal 0.866025 0.5 0
    outer loop
      vertex -24.55 -42.5218 28
      vertex -49.1 0 1.8
      vertex -49.1 0 28
    endloop
  endfacet
  facet normal 0.866025 0.5 0
    outer loop
      vertex -49.1 0 1.8
      vertex -24.55 -42.5218 28
      vertex -24.55 -42.5218 1.8
    endloop
  endfacet
  facet normal 0 0 1
    outer loop
      vertex 24.55 42.5218 1.8
      vertex 24.55 -42.5218 1.8
      vertex 49.1 0 1.8
    endloop
  endfacet
  facet normal -0 0 1
    outer loop
      vertex -24.55 42.5218 1.8
      vertex 24.55 -42.5218 1.8
      vertex 24.55 42.5218 1.8
    endloop
  endfacet
  facet normal 0 0 1
    outer loop
      vertex -24.55 42.5218 1.8
      vertex -24.55 -42.5218 1.8
      vertex 24.55 -42.5218 1.8
    endloop
  endfacet
  facet normal 0 -0 1
    outer loop
      vertex -24.55 -42.5218 1.8
      vertex -24.55 42.5218 1.8
      vertex -49.1 0 1.8
    endloop
  endfacet
endsolid OpenSCAD_Model
