solid OpenSCAD_Model
  facet normal 1 -0 0
    outer loop
      vertex -0.42 -5 14
      vertex -0.42 5 4
      vertex -0.42 5 14
    endloop
  endfacet
  facet normal 1 0 0
    outer loop
      vertex -0.42 5 4
      vertex -0.42 -5 14
      vertex -0.42 -5 4
    endloop
  endfacet
  facet normal -0 0 1
    outer loop
      vertex -7.42 5 14
      vertex -7.27822 -5 14
      vertex -7.27822 5 14
    endloop
  endfacet
  facet normal 0 0 1
    outer loop
      vertex -7.27822 -5 14
      vertex -7.42 5 14
      vertex -7.42 -5 14
    endloop
  endfacet
  facet normal 0 0 -1
    outer loop
      vertex 8.75 -15.1554 0
      vertex 8.75 15.1554 0
      vertex 17.5 0 0
    endloop
  endfacet
  facet normal 0 0 -1
    outer loop
      vertex -8.75 -15.1554 0
      vertex 8.75 15.1554 0
      vertex 8.75 -15.1554 0
    endloop
  endfacet
  facet normal 0 0 -1
    outer loop
      vertex -8.75 -15.1554 0
      vertex -8.75 15.1554 0
      vertex 8.75 15.1554 0
    endloop
  endfacet
  facet normal 0 -0 -1
    outer loop
      vertex -8.75 15.1554 0
      vertex -8.75 -15.1554 0
      vertex -17.5 0 0
    endloop
  endfacet
  facet normal -1 0 0
    outer loop
      vertex -7.42 -5 4
      vertex -7.42 5 14
      vertex -7.42 5 4
    endloop
  endfacet
  facet normal -1 -0 0
    outer loop
      vertex -7.42 5 14
      vertex -7.42 -5 4
      vertex -7.42 -5 14
    endloop
  endfacet
  facet normal 0 1 0
    outer loop
      vertex -7.27822 5 14
      vertex -4.4181 5 17.4644
      vertex -2.46605 5 17.1837
    endloop
  endfacet
  facet normal 0 1 0
    outer loop
      vertex -7.27822 5 14
      vertex -2.46605 5 17.1837
      vertex -0.975614 5 15.8922
    endloop
  endfacet
  facet normal 0 1 0
    outer loop
      vertex -4.4181 5 17.4644
      vertex -7.27822 5 14
      vertex -6.21201 5 16.6451
    endloop
  endfacet
  facet normal 0 1 0
    outer loop
      vertex -7.27822 5 14
      vertex -0.975614 5 15.8922
      vertex -0.42 5 14
    endloop
  endfacet
  facet normal 0 1 0
    outer loop
      vertex -6.21201 5 16.6451
      vertex -7.27822 5 14
      vertex -7.27822 5 14.9861
    endloop
  endfacet
  facet normal 0 1 -0
    outer loop
      vertex -0.42 5 4
      vertex -7.27822 5 14
      vertex -0.42 5 14
    endloop
  endfacet
  facet normal 0 1 0
    outer loop
      vertex -7.42 5 4
      vertex -7.27822 5 14
      vertex -0.42 5 4
    endloop
  endfacet
  facet normal 0 1 0
    outer loop
      vertex -7.27822 5 14
      vertex -7.42 5 4
      vertex -7.42 5 14
    endloop
  endfacet
  facet normal 0 -1 0
    outer loop
      vertex -7.42 -5 4
      vertex -7.27822 -5 14
      vertex -7.42 -5 14
    endloop
  endfacet
  facet normal 0 -1 0
    outer loop
      vertex -0.42 -5 4
      vertex -7.27822 -5 14
      vertex -7.42 -5 4
    endloop
  endfacet
  facet normal 0 -1 0
    outer loop
      vertex -7.27822 -5 14
      vertex -0.42 -5 4
      vertex -0.42 -5 14
    endloop
  endfacet
  facet normal 0 -1 0
    outer loop
      vertex -7.27822 -5 14
      vertex -4.4181 -5 17.4644
      vertex -6.21201 -5 16.6451
    endloop
  endfacet
  facet normal 0 -1 -0
    outer loop
      vertex -4.4181 -5 17.4644
      vertex -7.27822 -5 14
      vertex -2.46605 -5 17.1837
    endloop
  endfacet
  facet normal 0 -1 0
    outer loop
      vertex -7.27822 -5 14
      vertex -6.21201 -5 16.6451
      vertex -7.27822 -5 14.9861
    endloop
  endfacet
  facet normal 0 -1 -0
    outer loop
      vertex -2.46605 -5 17.1837
      vertex -7.27822 -5 14
      vertex -0.975614 -5 15.8922
    endloop
  endfacet
  facet normal 0 -1 -0
    outer loop
      vertex -0.975614 -5 15.8922
      vertex -7.27822 -5 14
      vertex -0.42 -5 14
    endloop
  endfacet
  facet normal -1 0 0
    outer loop
      vertex -7.27822 -5 14
      vertex -7.27822 5 14.9861
      vertex -7.27822 5 14
    endloop
  endfacet
  facet normal -1 -0 0
    outer loop
      vertex -7.27822 5 14.9861
      vertex -7.27822 -5 14
      vertex -7.27822 -5 14.9861
    endloop
  endfacet
  facet normal 0.959491 -0 0.281739
    outer loop
      vertex -0.975614 -5 15.8922
      vertex -0.42 5 14
      vertex -0.975614 5 15.8922
    endloop
  endfacet
  facet normal 0.959491 0 0.281739
    outer loop
      vertex -0.42 5 14
      vertex -0.975614 -5 15.8922
      vertex -0.42 -5 14
    endloop
  endfacet
  facet normal -0.841245 0 0.540654
    outer loop
      vertex -7.27822 -5 14.9861
      vertex -6.21201 5 16.6451
      vertex -7.27822 5 14.9861
    endloop
  endfacet
  facet normal -0.841245 0 0.540654
    outer loop
      vertex -6.21201 5 16.6451
      vertex -7.27822 -5 14.9861
      vertex -6.21201 -5 16.6451
    endloop
  endfacet
  facet normal 0.654869 0 0.755742
    outer loop
      vertex -2.46605 5 17.1837
      vertex -0.975614 -5 15.8922
      vertex -0.975614 5 15.8922
    endloop
  endfacet
  facet normal 0.654869 0 0.755742
    outer loop
      vertex -0.975614 -5 15.8922
      vertex -2.46605 5 17.1837
      vertex -2.46605 -5 17.1837
    endloop
  endfacet
  facet normal -0.415435 0 0.909623
    outer loop
      vertex -6.21201 5 16.6451
      vertex -4.4181 -5 17.4644
      vertex -4.4181 5 17.4644
    endloop
  endfacet
  facet normal -0.415435 0 0.909623
    outer loop
      vertex -4.4181 -5 17.4644
      vertex -6.21201 5 16.6451
      vertex -6.21201 -5 16.6451
    endloop
  endfacet
  facet normal 0.142334 0 0.989819
    outer loop
      vertex -4.4181 5 17.4644
      vertex -2.46605 -5 17.1837
      vertex -2.46605 5 17.1837
    endloop
  endfacet
  facet normal 0.142334 0 0.989819
    outer loop
      vertex -2.46605 -5 17.1837
      vertex -4.4181 5 17.4644
      vertex -4.4181 -5 17.4644
    endloop
  endfacet
  facet normal 1 -0 0
    outer loop
      vertex 7.42 -5 14
      vertex 7.42 5 4
      vertex 7.42 5 14
    endloop
  endfacet
  facet normal 1 0 0
    outer loop
      vertex 7.42 5 4
      vertex 7.42 -5 14
      vertex 7.42 -5 4
    endloop
  endfacet
  facet normal -0 0 1
    outer loop
      vertex 0.42 5 14
      vertex 0.561775 -5 14
      vertex 0.561775 5 14
    endloop
  endfacet
  facet normal 0 0 1
    outer loop
      vertex 0.561775 -5 14
      vertex 0.42 5 14
      vertex 0.42 -5 14
    endloop
  endfacet
  facet normal -1 0 0
    outer loop
      vertex 0.42 -5 4
      vertex 0.42 5 14
      vertex 0.42 5 4
    endloop
  endfacet
  facet normal -1 -0 0
    outer loop
      vertex 0.42 5 14
      vertex 0.42 -5 4
      vertex 0.42 -5 14
    endloop
  endfacet
  facet normal 0 1 0
    outer loop
      vertex 0.561775 5 14
      vertex 3.4219 5 17.4644
      vertex 5.37395 5 17.1837
    endloop
  endfacet
  facet normal 0 1 0
    outer loop
      vertex 0.561775 5 14
      vertex 5.37395 5 17.1837
      vertex 6.86439 5 15.8922
    endloop
  endfacet
  facet normal 0 1 0
    outer loop
      vertex 3.4219 5 17.4644
      vertex 0.561775 5 14
      vertex 1.62799 5 16.6451
    endloop
  endfacet
  facet normal 0 1 0
    outer loop
      vertex 0.561775 5 14
      vertex 6.86439 5 15.8922
      vertex 7.42 5 14
    endloop
  endfacet
  facet normal 0 1 0
    outer loop
      vertex 1.62799 5 16.6451
      vertex 0.561775 5 14
      vertex 0.561775 5 14.9861
    endloop
  endfacet
  facet normal 0 1 -0
    outer loop
      vertex 7.42 5 4
      vertex 0.561775 5 14
      vertex 7.42 5 14
    endloop
  endfacet
  facet normal 0 1 0
    outer loop
      vertex 0.42 5 4
      vertex 0.561775 5 14
      vertex 7.42 5 4
    endloop
  endfacet
  facet normal 0 1 0
    outer loop
      vertex 0.561775 5 14
      vertex 0.42 5 4
      vertex 0.42 5 14
    endloop
  endfacet
  facet normal 0 -1 0
    outer loop
      vertex 0.42 -5 4
      vertex 0.561775 -5 14
      vertex 0.42 -5 14
    endloop
  endfacet
  facet normal 0 -1 0
    outer loop
      vertex 7.42 -5 4
      vertex 0.561775 -5 14
      vertex 0.42 -5 4
    endloop
  endfacet
  facet normal 0 -1 0
    outer loop
      vertex 0.561775 -5 14
      vertex 7.42 -5 4
      vertex 7.42 -5 14
    endloop
  endfacet
  facet normal 0 -1 0
    outer loop
      vertex 0.561775 -5 14
      vertex 3.4219 -5 17.4644
      vertex 1.62799 -5 16.6451
    endloop
  endfacet
  facet normal 0 -1 -0
    outer loop
      vertex 3.4219 -5 17.4644
      vertex 0.561775 -5 14
      vertex 5.37395 -5 17.1837
    endloop
  endfacet
  facet normal 0 -1 0
    outer loop
      vertex 0.561775 -5 14
      vertex 1.62799 -5 16.6451
      vertex 0.561775 -5 14.9861
    endloop
  endfacet
  facet normal 0 -1 -0
    outer loop
      vertex 5.37395 -5 17.1837
      vertex 0.561775 -5 14
      vertex 6.86439 -5 15.8922
    endloop
  endfacet
  facet normal 0 -1 -0
    outer loop
      vertex 6.86439 -5 15.8922
      vertex 0.561775 -5 14
      vertex 7.42 -5 14
    endloop
  endfacet
  facet normal -1 0 0
    outer loop
      vertex 0.561775 -5 14
      vertex 0.561775 5 14.9861
      vertex 0.561775 5 14
    endloop
  endfacet
  facet normal -1 -0 0
    outer loop
      vertex 0.561775 5 14.9861
      vertex 0.561775 -5 14
      vertex 0.561775 -5 14.9861
    endloop
  endfacet
  facet normal 0.959492 -0 0.281737
    outer loop
      vertex 6.86439 -5 15.8922
      vertex 7.42 5 14
      vertex 6.86439 5 15.8922
    endloop
  endfacet
  facet normal 0.959492 0 0.281737
    outer loop
      vertex 7.42 5 14
      vertex 6.86439 -5 15.8922
      vertex 7.42 -5 14
    endloop
  endfacet
  facet normal -0.841244 0 0.540655
    outer loop
      vertex 0.561775 -5 14.9861
      vertex 1.62799 5 16.6451
      vertex 0.561775 5 14.9861
    endloop
  endfacet
  facet normal -0.841244 0 0.540655
    outer loop
      vertex 1.62799 5 16.6451
      vertex 0.561775 -5 14.9861
      vertex 1.62799 -5 16.6451
    endloop
  endfacet
  facet normal 0.654868 0 0.755743
    outer loop
      vertex 5.37395 5 17.1837
      vertex 6.86439 -5 15.8922
      vertex 6.86439 5 15.8922
    endloop
  endfacet
  facet normal 0.654868 0 0.755743
    outer loop
      vertex 6.86439 -5 15.8922
      vertex 5.37395 5 17.1837
      vertex 5.37395 -5 17.1837
    endloop
  endfacet
  facet normal -0.415435 0 0.909623
    outer loop
      vertex 1.62799 5 16.6451
      vertex 3.4219 -5 17.4644
      vertex 3.4219 5 17.4644
    endloop
  endfacet
  facet normal -0.415435 0 0.909623
    outer loop
      vertex 3.4219 -5 17.4644
      vertex 1.62799 5 16.6451
      vertex 1.62799 -5 16.6451
    endloop
  endfacet
  facet normal 0.142334 0 0.989819
    outer loop
      vertex 3.4219 5 17.4644
      vertex 5.37395 -5 17.1837
      vertex 5.37395 5 17.1837
    endloop
  endfacet
  facet normal 0.142334 0 0.989819
    outer loop
      vertex 5.37395 -5 17.1837
      vertex 3.4219 5 17.4644
      vertex 3.4219 -5 17.4644
    endloop
  endfacet
  facet normal 0 -1 0
    outer loop
      vertex -8.75 -15.1554 0
      vertex 8.75 -15.1554 4
      vertex -8.75 -15.1554 4
    endloop
  endfacet
  facet normal 0 -1 -0
    outer loop
      vertex 8.75 -15.1554 4
      vertex -8.75 -15.1554 0
      vertex 8.75 -15.1554 0
    endloop
  endfacet
  facet normal 0.866025 -0.500001 0
    outer loop
      vertex 8.75 -15.1554 4
      vertex 17.5 0 0
      vertex 17.5 0 4
    endloop
  endfacet
  facet normal 0.866025 -0.500001 0
    outer loop
      vertex 17.5 0 0
      vertex 8.75 -15.1554 4
      vertex 8.75 -15.1554 0
    endloop
  endfacet
  facet normal 0 1 -0
    outer loop
      vertex 8.75 15.1554 0
      vertex -8.75 15.1554 4
      vertex 8.75 15.1554 4
    endloop
  endfacet
  facet normal 0 1 0
    outer loop
      vertex -8.75 15.1554 4
      vertex 8.75 15.1554 0
      vertex -8.75 15.1554 0
    endloop
  endfacet
  facet normal 0.866025 0.500001 0
    outer loop
      vertex 17.5 0 4
      vertex 8.75 15.1554 0
      vertex 8.75 15.1554 4
    endloop
  endfacet
  facet normal 0.866025 0.500001 0
    outer loop
      vertex 8.75 15.1554 0
      vertex 17.5 0 4
      vertex 17.5 0 0
    endloop
  endfacet
  facet normal -0.866025 0.500001 0
    outer loop
      vertex -17.5 0 0
      vertex -8.75 15.1554 4
      vertex -8.75 15.1554 0
    endloop
  endfacet
  facet normal -0.866025 0.500001 0
    outer loop
      vertex -8.75 15.1554 4
      vertex -17.5 0 0
      vertex -17.5 0 4
    endloop
  endfacet
  facet normal -0.866025 -0.500001 0
    outer loop
      vertex -8.75 -15.1554 0
      vertex -17.5 0 4
      vertex -17.5 0 0
    endloop
  endfacet
  facet normal -0.866025 -0.500001 0
    outer loop
      vertex -17.5 0 4
      vertex -8.75 -15.1554 0
      vertex -8.75 -15.1554 4
    endloop
  endfacet
  facet normal -0 0 1
    outer loop
      vertex 7.42 5 4
      vertex 17.5 0 4
      vertex 8.75 15.1554 4
    endloop
  endfacet
  facet normal 0 0 1
    outer loop
      vertex 7.42 -5 4
      vertex 17.5 0 4
      vertex 7.42 5 4
    endloop
  endfacet
  facet normal 0 0 1
    outer loop
      vertex 8.75 15.1554 4
      vertex 0.42 5 4
      vertex 7.42 5 4
    endloop
  endfacet
  facet normal 0 0 1
    outer loop
      vertex 0.42 5 4
      vertex -0.42 5 4
      vertex 0.42 -5 4
    endloop
  endfacet
  facet normal 0 0 1
    outer loop
      vertex 8.75 15.1554 4
      vertex -0.42 5 4
      vertex 0.42 5 4
    endloop
  endfacet
  facet normal -0 0 1
    outer loop
      vertex -8.75 15.1554 4
      vertex -0.42 5 4
      vertex 8.75 15.1554 4
    endloop
  endfacet
  facet normal 0 0 1
    outer loop
      vertex -17.5 0 4
      vertex -7.42 5 4
      vertex -8.75 15.1554 4
    endloop
  endfacet
  facet normal 0 0 1
    outer loop
      vertex -0.42 5 4
      vertex -8.75 15.1554 4
      vertex -7.42 5 4
    endloop
  endfacet
  facet normal 0 0 1
    outer loop
      vertex 17.5 0 4
      vertex 7.42 -5 4
      vertex 8.75 -15.1554 4
    endloop
  endfacet
  facet normal -0 0 1
    outer loop
      vertex 0.42 -5 4
      vertex 8.75 -15.1554 4
      vertex 7.42 -5 4
    endloop
  endfacet
  facet normal 0 0 1
    outer loop
      vertex -0.42 -5 4
      vertex 0.42 -5 4
      vertex -0.42 5 4
    endloop
  endfacet
  facet normal -0 0 1
    outer loop
      vertex -0.42 -5 4
      vertex 8.75 -15.1554 4
      vertex 0.42 -5 4
    endloop
  endfacet
  facet normal 0 0 1
    outer loop
      vertex -8.75 -15.1554 4
      vertex -0.42 -5 4
      vertex -7.42 -5 4
    endloop
  endfacet
  facet normal 0 0 1
    outer loop
      vertex -0.42 -5 4
      vertex -8.75 -15.1554 4
      vertex 8.75 -15.1554 4
    endloop
  endfacet
  facet normal 0 0 1
    outer loop
      vertex -7.42 5 4
      vertex -17.5 0 4
      vertex -7.42 -5 4
    endloop
  endfacet
  facet normal 0 0 1
    outer loop
      vertex -7.42 -5 4
      vertex -17.5 0 4
      vertex -8.75 -15.1554 4
    endloop
  endfacet
endsolid OpenSCAD_Model
