solid OpenSCAD_Model
  facet normal -0.707107 0 0.707107
    outer loop
      vertex -21.2132 -27 0
      vertex -0.419999 -13 20.7932
      vertex -21.2132 -13 0
    endloop
  endfacet
  facet normal -0.707107 0 0.707107
    outer loop
      vertex -0.419999 -13 20.7932
      vertex -21.2132 -27 0
      vertex -0.419999 -27 20.7932
    endloop
  endfacet
  facet normal 0 -1 -0
    outer loop
      vertex -0.419999 -27 2
      vertex -21.2132 -27 0
      vertex 0.419999 -27 2
    endloop
  endfacet
  facet normal 0 -1 0
    outer loop
      vertex -21.2132 -27 0
      vertex -0.419999 -27 2
      vertex -0.419999 -27 20.7932
    endloop
  endfacet
  facet normal 0 -1 0
    outer loop
      vertex 0.419999 -27 2
      vertex 21.2132 -27 0
      vertex 0.419999 -27 20.7932
    endloop
  endfacet
  facet normal 0 -1 0
    outer loop
      vertex 21.2132 -27 0
      vertex 0.419999 -27 2
      vertex -21.2132 -27 0
    endloop
  endfacet
  facet normal 0 1 0
    outer loop
      vertex 21.2132 -13 0
      vertex 15 -13 2
      vertex 0.419999 -13 20.7932
    endloop
  endfacet
  facet normal 0 1 0
    outer loop
      vertex 15 -13 2
      vertex 21.2132 -13 0
      vertex 15 -13 0
    endloop
  endfacet
  facet normal 0 1 0
    outer loop
      vertex 0.419999 -13 20.7932
      vertex 15 -13 2
      vertex 0.419999 -13 2
    endloop
  endfacet
  facet normal 0 1 0
    outer loop
      vertex -15 -13 2
      vertex -0.419999 -13 20.7932
      vertex -0.419999 -13 2
    endloop
  endfacet
  facet normal 0 1 -0
    outer loop
      vertex -15 -13 2
      vertex -21.2132 -13 0
      vertex -0.419999 -13 20.7932
    endloop
  endfacet
  facet normal 0 1 0
    outer loop
      vertex -21.2132 -13 0
      vertex -15 -13 2
      vertex -15 -13 0
    endloop
  endfacet
  facet normal 0.707107 -0 0.707107
    outer loop
      vertex 0.419999 -27 20.7932
      vertex 21.2132 -13 0
      vertex 0.419999 -13 20.7932
    endloop
  endfacet
  facet normal 0.707107 0 0.707107
    outer loop
      vertex 21.2132 -13 0
      vertex 0.419999 -27 20.7932
      vertex 21.2132 -27 0
    endloop
  endfacet
  facet normal 0 0 -1
    outer loop
      vertex -15 13 0
      vertex -21.2132 13 0
      vertex -15 20 0
    endloop
  endfacet
  facet normal 0 0 -1
    outer loop
      vertex 15 20 0
      vertex 21.2132 13 0
      vertex 15 13 0
    endloop
  endfacet
  facet normal 0 0 -1
    outer loop
      vertex 21.2132 13 0
      vertex 15 20 0
      vertex 21.2132 27 0
    endloop
  endfacet
  facet normal 0 0 -1
    outer loop
      vertex -15 20 0
      vertex 21.2132 27 0
      vertex 15 20 0
    endloop
  endfacet
  facet normal 0 0 -1
    outer loop
      vertex -15 20 0
      vertex -21.2132 27 0
      vertex 21.2132 27 0
    endloop
  endfacet
  facet normal 0 0 -1
    outer loop
      vertex -21.2132 27 0
      vertex -15 20 0
      vertex -21.2132 13 0
    endloop
  endfacet
  facet normal 0 0 -1
    outer loop
      vertex -15 -13 0
      vertex 15 -13 0
      vertex 15 -20 0
    endloop
  endfacet
  facet normal 0 0 -1
    outer loop
      vertex 15 -13 0
      vertex -15 -13 0
      vertex 15 13 0
    endloop
  endfacet
  facet normal 0 0 -1
    outer loop
      vertex -15 -13 0
      vertex 15 -20 0
      vertex -15 -20 0
    endloop
  endfacet
  facet normal 0 0 -1
    outer loop
      vertex -15 13 0
      vertex 15 13 0
      vertex -15 -13 0
    endloop
  endfacet
  facet normal 0 0 -1
    outer loop
      vertex 15 13 0
      vertex -15 13 0
      vertex 15 20 0
    endloop
  endfacet
  facet normal -0 0 -1
    outer loop
      vertex 15 20 0
      vertex -15 13 0
      vertex -15 20 0
    endloop
  endfacet
  facet normal 0 0 -1
    outer loop
      vertex 21.2132 -27 0
      vertex 15 -20 0
      vertex 21.2132 -13 0
    endloop
  endfacet
  facet normal 0 0 -1
    outer loop
      vertex 21.2132 -27 0
      vertex -15 -20 0
      vertex 15 -20 0
    endloop
  endfacet
  facet normal 0 0 -1
    outer loop
      vertex -21.2132 -27 0
      vertex -15 -20 0
      vertex 21.2132 -27 0
    endloop
  endfacet
  facet normal 0 0 -1
    outer loop
      vertex -21.2132 -13 0
      vertex -15 -20 0
      vertex -21.2132 -27 0
    endloop
  endfacet
  facet normal 0 0 -1
    outer loop
      vertex -15 -20 0
      vertex -21.2132 -13 0
      vertex -15 -13 0
    endloop
  endfacet
  facet normal -0 0 -1
    outer loop
      vertex 21.2132 -13 0
      vertex 15 -20 0
      vertex 15 -13 0
    endloop
  endfacet
  facet normal -0.707107 0 0.707107
    outer loop
      vertex -21.2132 13 0
      vertex -0.419999 27 20.7932
      vertex -21.2132 27 0
    endloop
  endfacet
  facet normal -0.707107 0 0.707107
    outer loop
      vertex -0.419999 27 20.7932
      vertex -21.2132 13 0
      vertex -0.419999 13 20.7932
    endloop
  endfacet
  facet normal 0 -1 0
    outer loop
      vertex 15 13 2
      vertex 0.419999 13 20.7932
      vertex 0.419999 13 2
    endloop
  endfacet
  facet normal 0 -1 0
    outer loop
      vertex 15 13 2
      vertex 21.2132 13 0
      vertex 0.419999 13 20.7932
    endloop
  endfacet
  facet normal 0 -1 0
    outer loop
      vertex 21.2132 13 0
      vertex 15 13 2
      vertex 15 13 0
    endloop
  endfacet
  facet normal 0 -1 0
    outer loop
      vertex -21.2132 13 0
      vertex -15 13 2
      vertex -0.419999 13 20.7932
    endloop
  endfacet
  facet normal 0 -1 -0
    outer loop
      vertex -15 13 2
      vertex -21.2132 13 0
      vertex -15 13 0
    endloop
  endfacet
  facet normal 0 -1 -0
    outer loop
      vertex -0.419999 13 20.7932
      vertex -15 13 2
      vertex -0.419999 13 2
    endloop
  endfacet
  facet normal 0 1 0
    outer loop
      vertex 0.419999 27 2
      vertex 21.2132 27 0
      vertex -0.419999 27 2
    endloop
  endfacet
  facet normal 0 1 0
    outer loop
      vertex 21.2132 27 0
      vertex 0.419999 27 2
      vertex 0.419999 27 20.7932
    endloop
  endfacet
  facet normal 0 1 -0
    outer loop
      vertex -0.419999 27 2
      vertex -21.2132 27 0
      vertex -0.419999 27 20.7932
    endloop
  endfacet
  facet normal 0 1 0
    outer loop
      vertex -21.2132 27 0
      vertex -0.419999 27 2
      vertex 21.2132 27 0
    endloop
  endfacet
  facet normal 0.707107 -0 0.707107
    outer loop
      vertex 0.419999 13 20.7932
      vertex 21.2132 27 0
      vertex 0.419999 27 20.7932
    endloop
  endfacet
  facet normal 0.707107 0 0.707107
    outer loop
      vertex 21.2132 27 0
      vertex 0.419999 13 20.7932
      vertex 21.2132 13 0
    endloop
  endfacet
  facet normal 1 -0 0
    outer loop
      vertex 15 -13 2
      vertex 15 13 0
      vertex 15 13 2
    endloop
  endfacet
  facet normal 1 0 0
    outer loop
      vertex 15 13 0
      vertex 15 -13 2
      vertex 15 -13 0
    endloop
  endfacet
  facet normal -0 0 1
    outer loop
      vertex -15 13 2
      vertex -0.419999 -13 2
      vertex -0.419999 13 2
    endloop
  endfacet
  facet normal 0 0 1
    outer loop
      vertex -0.419999 -13 2
      vertex -15 13 2
      vertex -15 -13 2
    endloop
  endfacet
  facet normal -0 0 1
    outer loop
      vertex 0.419999 13 2
      vertex 15 -13 2
      vertex 15 13 2
    endloop
  endfacet
  facet normal 0 0 1
    outer loop
      vertex 15 -13 2
      vertex 0.419999 13 2
      vertex 0.419999 -13 2
    endloop
  endfacet
  facet normal 0 0 1
    outer loop
      vertex -0.419999 13 2
      vertex 0.419999 13 2
      vertex 0.419999 27 2
    endloop
  endfacet
  facet normal 0 0 1
    outer loop
      vertex 0.419999 13 2
      vertex -0.419999 13 2
      vertex 0.419999 -13 2
    endloop
  endfacet
  facet normal 0 0 1
    outer loop
      vertex -0.419999 13 2
      vertex 0.419999 27 2
      vertex -0.419999 27 2
    endloop
  endfacet
  facet normal 0 0 1
    outer loop
      vertex -0.419999 -13 2
      vertex 0.419999 -13 2
      vertex -0.419999 13 2
    endloop
  endfacet
  facet normal 0 0 1
    outer loop
      vertex 0.419999 -13 2
      vertex -0.419999 -13 2
      vertex 0.419999 -27 2
    endloop
  endfacet
  facet normal 0 0 1
    outer loop
      vertex 0.419999 -27 2
      vertex -0.419999 -13 2
      vertex -0.419999 -27 2
    endloop
  endfacet
  facet normal -1 0 0
    outer loop
      vertex -15 -13 0
      vertex -15 13 2
      vertex -15 13 0
    endloop
  endfacet
  facet normal -1 -0 0
    outer loop
      vertex -15 13 2
      vertex -15 -13 0
      vertex -15 -13 2
    endloop
  endfacet
  facet normal -1 0 0
    outer loop
      vertex 0.419999 -27 2
      vertex 0.419999 -13 20.7932
      vertex 0.419999 -13 2
    endloop
  endfacet
  facet normal -1 -0 0
    outer loop
      vertex 0.419999 -13 20.7932
      vertex 0.419999 -27 2
      vertex 0.419999 -27 20.7932
    endloop
  endfacet
  facet normal -1 0 0
    outer loop
      vertex 0.419999 13 2
      vertex 0.419999 27 20.7932
      vertex 0.419999 27 2
    endloop
  endfacet
  facet normal -1 -0 0
    outer loop
      vertex 0.419999 27 20.7932
      vertex 0.419999 13 2
      vertex 0.419999 13 20.7932
    endloop
  endfacet
  facet normal 1 -0 0
    outer loop
      vertex -0.419999 -27 20.7932
      vertex -0.419999 -13 2
      vertex -0.419999 -13 20.7932
    endloop
  endfacet
  facet normal 1 0 0
    outer loop
      vertex -0.419999 -13 2
      vertex -0.419999 -27 20.7932
      vertex -0.419999 -27 2
    endloop
  endfacet
  facet normal 1 -0 0
    outer loop
      vertex -0.419999 13 20.7932
      vertex -0.419999 27 2
      vertex -0.419999 27 20.7932
    endloop
  endfacet
  facet normal 1 0 0
    outer loop
      vertex -0.419999 27 2
      vertex -0.419999 13 20.7932
      vertex -0.419999 13 2
    endloop
  endfacet
endsolid OpenSCAD_Model
