solid OpenSCAD_Model
  facet normal -0 0 1
    outer loop
      vertex -15 31.9 0.5
      vertex 15 -31.9 0.5
      vertex 15 31.9 0.5
    endloop
  endfacet
  facet normal 0 0 1
    outer loop
      vertex 15 -31.9 0.5
      vertex -15 31.9 0.5
      vertex -15 -31.9 0.5
    endloop
  endfacet
  facet normal 0 0 1
    outer loop
      vertex 15 31.9 0.5
      vertex 94.1 38.7 0.5
      vertex 15 38.2 0.5
    endloop
  endfacet
  facet normal 0 0 1
    outer loop
      vertex 94.1 38.7 0.5
      vertex -15 38.2 0.5
      vertex 15 38.2 0.5
    endloop
  endfacet
  facet normal 0 0 1
    outer loop
      vertex -94.1 38.7 0.5
      vertex -15 31.9 0.5
      vertex -15 38.2 0.5
    endloop
  endfacet
  facet normal 0 0 1
    outer loop
      vertex -15 31.9 0.5
      vertex -94.1 38.7 0.5
      vertex -15 -31.9 0.5
    endloop
  endfacet
  facet normal 0 0 1
    outer loop
      vertex -94.1 -38.7 0.5
      vertex -15 -31.9 0.5
      vertex -94.1 38.7 0.5
    endloop
  endfacet
  facet normal -0 0 1
    outer loop
      vertex -94.1 38.7 0.5
      vertex -15 38.2 0.5
      vertex 94.1 38.7 0.5
    endloop
  endfacet
  facet normal 0 0 1
    outer loop
      vertex 94.1 38.7 0.5
      vertex 15 31.9 0.5
      vertex 94.1 -38.7 0.5
    endloop
  endfacet
  facet normal -0 0 1
    outer loop
      vertex 15 -31.9 0.5
      vertex 94.1 -38.7 0.5
      vertex 15 31.9 0.5
    endloop
  endfacet
  facet normal -0 0 1
    outer loop
      vertex 15 -38.2 0.5
      vertex 94.1 -38.7 0.5
      vertex 15 -31.9 0.5
    endloop
  endfacet
  facet normal -0 0 1
    outer loop
      vertex -15 -38.2 0.5
      vertex 94.1 -38.7 0.5
      vertex 15 -38.2 0.5
    endloop
  endfacet
  facet normal 0 0 1
    outer loop
      vertex -15 -38.2 0.5
      vertex -94.1 -38.7 0.5
      vertex 94.1 -38.7 0.5
    endloop
  endfacet
  facet normal 0 0 1
    outer loop
      vertex -15 -31.9 0.5
      vertex -94.1 -38.7 0.5
      vertex -15 -38.2 0.5
    endloop
  endfacet
  facet normal 0 0 -1
    outer loop
      vertex -15 -31.9 -0.5
      vertex 15 31.9 -0.5
      vertex 15 -31.9 -0.5
    endloop
  endfacet
  facet normal -0 0 -1
    outer loop
      vertex 15 31.9 -0.5
      vertex -15 -31.9 -0.5
      vertex -15 31.9 -0.5
    endloop
  endfacet
  facet normal 0 0 -1
    outer loop
      vertex 15 -31.9 -0.5
      vertex 95.1 -39.7 -0.5
      vertex 15 -38.2 -0.5
    endloop
  endfacet
  facet normal 0 0 -1
    outer loop
      vertex 95.1 -39.7 -0.5
      vertex -15 -38.2 -0.5
      vertex 15 -38.2 -0.5
    endloop
  endfacet
  facet normal 0 0 -1
    outer loop
      vertex -95.1 -39.7 -0.5
      vertex -15 -31.9 -0.5
      vertex -15 -38.2 -0.5
    endloop
  endfacet
  facet normal -0 0 -1
    outer loop
      vertex -15 -31.9 -0.5
      vertex -95.1 -39.7 -0.5
      vertex -15 31.9 -0.5
    endloop
  endfacet
  facet normal 0 0 -1
    outer loop
      vertex -95.1 39.7 -0.5
      vertex -15 31.9 -0.5
      vertex -95.1 -39.7 -0.5
    endloop
  endfacet
  facet normal 0 0 -1
    outer loop
      vertex -95.1 -39.7 -0.5
      vertex -15 -38.2 -0.5
      vertex 95.1 -39.7 -0.5
    endloop
  endfacet
  facet normal 0 0 -1
    outer loop
      vertex 95.1 -39.7 -0.5
      vertex 15 -31.9 -0.5
      vertex 95.1 39.7 -0.5
    endloop
  endfacet
  facet normal 0 0 -1
    outer loop
      vertex 15 31.9 -0.5
      vertex 95.1 39.7 -0.5
      vertex 15 -31.9 -0.5
    endloop
  endfacet
  facet normal 0 0 -1
    outer loop
      vertex 15 38.2 -0.5
      vertex 95.1 39.7 -0.5
      vertex 15 31.9 -0.5
    endloop
  endfacet
  facet normal 0 0 -1
    outer loop
      vertex -15 38.2 -0.5
      vertex 95.1 39.7 -0.5
      vertex 15 38.2 -0.5
    endloop
  endfacet
  facet normal 0 0 -1
    outer loop
      vertex -15 38.2 -0.5
      vertex -95.1 39.7 -0.5
      vertex 95.1 39.7 -0.5
    endloop
  endfacet
  facet normal 0 0 -1
    outer loop
      vertex -15 31.9 -0.5
      vertex -95.1 39.7 -0.5
      vertex -15 38.2 -0.5
    endloop
  endfacet
  facet normal 0 0 1
    outer loop
      vertex 95.1 39.7 48.5
      vertex 94.1 38.7 48.5
      vertex 95.1 -39.7 48.5
    endloop
  endfacet
  facet normal -0 0 1
    outer loop
      vertex 14.9474 39.7 48.5
      vertex 94.1 38.7 48.5
      vertex 95.1 39.7 48.5
    endloop
  endfacet
  facet normal 0 0 1
    outer loop
      vertex 94.1 38.7 48.5
      vertex 14.9474 39.7 48.5
      vertex 14.9474 38.7 48.5
    endloop
  endfacet
  facet normal -0 0 1
    outer loop
      vertex 94.1 -38.7 48.5
      vertex 95.1 -39.7 48.5
      vertex 94.1 38.7 48.5
    endloop
  endfacet
  facet normal 0 0 1
    outer loop
      vertex 14.9474 -39.7 48.5
      vertex 94.1 -38.7 48.5
      vertex 14.9474 -38.7 48.5
    endloop
  endfacet
  facet normal 0 0 1
    outer loop
      vertex 94.1 -38.7 48.5
      vertex 14.9474 -39.7 48.5
      vertex 95.1 -39.7 48.5
    endloop
  endfacet
  facet normal 0 0 1
    outer loop
      vertex -14.9474 39.7 48.5
      vertex -94.1 38.7 48.5
      vertex -14.9474 38.7 48.5
    endloop
  endfacet
  facet normal 0 0 1
    outer loop
      vertex -94.1 38.7 48.5
      vertex -95.1 39.7 48.5
      vertex -94.1 -38.7 48.5
    endloop
  endfacet
  facet normal -0 0 1
    outer loop
      vertex -95.1 39.7 48.5
      vertex -94.1 38.7 48.5
      vertex -14.9474 39.7 48.5
    endloop
  endfacet
  facet normal -0 0 1
    outer loop
      vertex -94.1 -38.7 48.5
      vertex -14.9474 -39.7 48.5
      vertex -14.9474 -38.7 48.5
    endloop
  endfacet
  facet normal 0 0 1
    outer loop
      vertex -94.1 -38.7 48.5
      vertex -95.1 -39.7 48.5
      vertex -14.9474 -39.7 48.5
    endloop
  endfacet
  facet normal 0 0 1
    outer loop
      vertex -95.1 -39.7 48.5
      vertex -94.1 -38.7 48.5
      vertex -95.1 39.7 48.5
    endloop
  endfacet
  facet normal 0 1 0
    outer loop
      vertex 95.1 39.7 48.5
      vertex 14.6722 39.7 45.8813
      vertex 14.9474 39.7 48.5
    endloop
  endfacet
  facet normal 0 1 0
    outer loop
      vertex 95.1 39.7 48.5
      vertex 13.7032 39.7 42.8989
      vertex 14.6722 39.7 45.8813
    endloop
  endfacet
  facet normal 0 1 -0
    outer loop
      vertex 95.1 39.7 -0.5
      vertex 13.7032 39.7 42.8989
      vertex 95.1 39.7 48.5
    endloop
  endfacet
  facet normal 0 1 0
    outer loop
      vertex 13.7032 39.7 42.8989
      vertex 95.1 39.7 -0.5
      vertex 12.1353 39.7 40.1832
    endloop
  endfacet
  facet normal 0 1 0
    outer loop
      vertex 12.1353 39.7 40.1832
      vertex 95.1 39.7 -0.5
      vertex 10.037 39.7 37.8528
    endloop
  endfacet
  facet normal 0 1 0
    outer loop
      vertex 10.037 39.7 37.8528
      vertex 95.1 39.7 -0.5
      vertex 7.5 39.7 36.0096
    endloop
  endfacet
  facet normal 0 1 0
    outer loop
      vertex 7.5 39.7 36.0096
      vertex 95.1 39.7 -0.5
      vertex 4.63525 39.7 34.7342
    endloop
  endfacet
  facet normal 0 1 0
    outer loop
      vertex 1.56793 39.7 34.0822
      vertex 95.1 39.7 -0.5
      vertex -1.56793 39.7 34.0822
    endloop
  endfacet
  facet normal 0 1 0
    outer loop
      vertex 4.63525 39.7 34.7342
      vertex 95.1 39.7 -0.5
      vertex 1.56793 39.7 34.0822
    endloop
  endfacet
  facet normal 0 1 0
    outer loop
      vertex -14.6722 39.7 45.8813
      vertex -95.1 39.7 48.5
      vertex -14.9474 39.7 48.5
    endloop
  endfacet
  facet normal 0 1 0
    outer loop
      vertex -13.7032 39.7 42.8989
      vertex -95.1 39.7 48.5
      vertex -14.6722 39.7 45.8813
    endloop
  endfacet
  facet normal 0 1 0
    outer loop
      vertex -95.1 39.7 -0.5
      vertex -13.7032 39.7 42.8989
      vertex -12.1353 39.7 40.1832
    endloop
  endfacet
  facet normal 0 1 0
    outer loop
      vertex -95.1 39.7 -0.5
      vertex -12.1353 39.7 40.1832
      vertex -10.037 39.7 37.8528
    endloop
  endfacet
  facet normal 0 1 0
    outer loop
      vertex -95.1 39.7 -0.5
      vertex -10.037 39.7 37.8528
      vertex -7.5 39.7 36.0096
    endloop
  endfacet
  facet normal 0 1 0
    outer loop
      vertex -95.1 39.7 -0.5
      vertex -7.5 39.7 36.0096
      vertex -4.63525 39.7 34.7342
    endloop
  endfacet
  facet normal 0 1 0
    outer loop
      vertex -95.1 39.7 -0.5
      vertex -4.63525 39.7 34.7342
      vertex -1.56793 39.7 34.0822
    endloop
  endfacet
  facet normal 0 1 0
    outer loop
      vertex -95.1 39.7 -0.5
      vertex -1.56793 39.7 34.0822
      vertex 95.1 39.7 -0.5
    endloop
  endfacet
  facet normal 0 1 0
    outer loop
      vertex -13.7032 39.7 42.8989
      vertex -95.1 39.7 -0.5
      vertex -95.1 39.7 48.5
    endloop
  endfacet
  facet normal 0 -1 0
    outer loop
      vertex -94.1 38.7 48.5
      vertex -14.6722 38.7 45.8813
      vertex -14.9474 38.7 48.5
    endloop
  endfacet
  facet normal 0 -1 0
    outer loop
      vertex -94.1 38.7 48.5
      vertex -13.7032 38.7 42.8989
      vertex -14.6722 38.7 45.8813
    endloop
  endfacet
  facet normal 0 -1 0
    outer loop
      vertex -94.1 38.7 0.5
      vertex -13.7032 38.7 42.8989
      vertex -94.1 38.7 48.5
    endloop
  endfacet
  facet normal 0 -1 -0
    outer loop
      vertex -13.7032 38.7 42.8989
      vertex -94.1 38.7 0.5
      vertex -12.1353 38.7 40.1832
    endloop
  endfacet
  facet normal 0 -1 -0
    outer loop
      vertex -12.1353 38.7 40.1832
      vertex -94.1 38.7 0.5
      vertex -10.037 38.7 37.8528
    endloop
  endfacet
  facet normal 0 -1 -0
    outer loop
      vertex -10.037 38.7 37.8528
      vertex -94.1 38.7 0.5
      vertex -7.5 38.7 36.0096
    endloop
  endfacet
  facet normal 0 -1 -0
    outer loop
      vertex -7.5 38.7 36.0096
      vertex -94.1 38.7 0.5
      vertex -4.63525 38.7 34.7342
    endloop
  endfacet
  facet normal 0 -1 -0
    outer loop
      vertex -1.56793 38.7 34.0822
      vertex -94.1 38.7 0.5
      vertex 1.56793 38.7 34.0822
    endloop
  endfacet
  facet normal 0 -1 -0
    outer loop
      vertex -4.63525 38.7 34.7342
      vertex -94.1 38.7 0.5
      vertex -1.56793 38.7 34.0822
    endloop
  endfacet
  facet normal 0 -1 0
    outer loop
      vertex 14.6722 38.7 45.8813
      vertex 94.1 38.7 48.5
      vertex 14.9474 38.7 48.5
    endloop
  endfacet
  facet normal 0 -1 0
    outer loop
      vertex 13.7032 38.7 42.8989
      vertex 94.1 38.7 48.5
      vertex 14.6722 38.7 45.8813
    endloop
  endfacet
  facet normal 0 -1 0
    outer loop
      vertex 94.1 38.7 0.5
      vertex 13.7032 38.7 42.8989
      vertex 12.1353 38.7 40.1832
    endloop
  endfacet
  facet normal 0 -1 0
    outer loop
      vertex 94.1 38.7 0.5
      vertex 12.1353 38.7 40.1832
      vertex 10.037 38.7 37.8528
    endloop
  endfacet
  facet normal 0 -1 0
    outer loop
      vertex 94.1 38.7 0.5
      vertex 10.037 38.7 37.8528
      vertex 7.5 38.7 36.0096
    endloop
  endfacet
  facet normal 0 -1 0
    outer loop
      vertex 94.1 38.7 0.5
      vertex 7.5 38.7 36.0096
      vertex 4.63525 38.7 34.7342
    endloop
  endfacet
  facet normal 0 -1 0
    outer loop
      vertex 94.1 38.7 0.5
      vertex 4.63525 38.7 34.7342
      vertex 1.56793 38.7 34.0822
    endloop
  endfacet
  facet normal 0 -1 0
    outer loop
      vertex 94.1 38.7 0.5
      vertex 1.56793 38.7 34.0822
      vertex -94.1 38.7 0.5
    endloop
  endfacet
  facet normal 0 -1 0
    outer loop
      vertex 13.7032 38.7 42.8989
      vertex 94.1 38.7 0.5
      vertex 94.1 38.7 48.5
    endloop
  endfacet
  facet normal 0 1 0
    outer loop
      vertex 94.1 -38.7 48.5
      vertex 14.6722 -38.7 45.8813
      vertex 14.9474 -38.7 48.5
    endloop
  endfacet
  facet normal 0 1 0
    outer loop
      vertex 94.1 -38.7 48.5
      vertex 13.7032 -38.7 42.8989
      vertex 14.6722 -38.7 45.8813
    endloop
  endfacet
  facet normal 0 1 -0
    outer loop
      vertex 94.1 -38.7 0.5
      vertex 13.7032 -38.7 42.8989
      vertex 94.1 -38.7 48.5
    endloop
  endfacet
  facet normal 0 1 0
    outer loop
      vertex 13.7032 -38.7 42.8989
      vertex 94.1 -38.7 0.5
      vertex 12.1353 -38.7 40.1832
    endloop
  endfacet
  facet normal 0 1 0
    outer loop
      vertex 12.1353 -38.7 40.1832
      vertex 94.1 -38.7 0.5
      vertex 10.037 -38.7 37.8528
    endloop
  endfacet
  facet normal 0 1 0
    outer loop
      vertex 10.037 -38.7 37.8528
      vertex 94.1 -38.7 0.5
      vertex 7.5 -38.7 36.0096
    endloop
  endfacet
  facet normal 0 1 0
    outer loop
      vertex 7.5 -38.7 36.0096
      vertex 94.1 -38.7 0.5
      vertex 4.63525 -38.7 34.7342
    endloop
  endfacet
  facet normal 0 1 0
    outer loop
      vertex 1.56793 -38.7 34.0822
      vertex 94.1 -38.7 0.5
      vertex -1.56793 -38.7 34.0822
    endloop
  endfacet
  facet normal 0 1 0
    outer loop
      vertex 4.63525 -38.7 34.7342
      vertex 94.1 -38.7 0.5
      vertex 1.56793 -38.7 34.0822
    endloop
  endfacet
  facet normal 0 1 0
    outer loop
      vertex -14.6722 -38.7 45.8813
      vertex -94.1 -38.7 48.5
      vertex -14.9474 -38.7 48.5
    endloop
  endfacet
  facet normal 0 1 0
    outer loop
      vertex -13.7032 -38.7 42.8989
      vertex -94.1 -38.7 48.5
      vertex -14.6722 -38.7 45.8813
    endloop
  endfacet
  facet normal 0 1 0
    outer loop
      vertex -94.1 -38.7 0.5
      vertex -13.7032 -38.7 42.8989
      vertex -12.1353 -38.7 40.1832
    endloop
  endfacet
  facet normal 0 1 0
    outer loop
      vertex -94.1 -38.7 0.5
      vertex -12.1353 -38.7 40.1832
      vertex -10.037 -38.7 37.8528
    endloop
  endfacet
  facet normal 0 1 0
    outer loop
      vertex -94.1 -38.7 0.5
      vertex -10.037 -38.7 37.8528
      vertex -7.5 -38.7 36.0096
    endloop
  endfacet
  facet normal 0 1 0
    outer loop
      vertex -94.1 -38.7 0.5
      vertex -7.5 -38.7 36.0096
      vertex -4.63525 -38.7 34.7342
    endloop
  endfacet
  facet normal 0 1 0
    outer loop
      vertex -94.1 -38.7 0.5
      vertex -4.63525 -38.7 34.7342
      vertex -1.56793 -38.7 34.0822
    endloop
  endfacet
  facet normal 0 1 0
    outer loop
      vertex -94.1 -38.7 0.5
      vertex -1.56793 -38.7 34.0822
      vertex 94.1 -38.7 0.5
    endloop
  endfacet
  facet normal 0 1 0
    outer loop
      vertex -13.7032 -38.7 42.8989
      vertex -94.1 -38.7 0.5
      vertex -94.1 -38.7 48.5
    endloop
  endfacet
  facet normal 0 -1 0
    outer loop
      vertex -95.1 -39.7 48.5
      vertex -14.6722 -39.7 45.8813
      vertex -14.9474 -39.7 48.5
    endloop
  endfacet
  facet normal 0 -1 0
    outer loop
      vertex -95.1 -39.7 48.5
      vertex -13.7032 -39.7 42.8989
      vertex -14.6722 -39.7 45.8813
    endloop
  endfacet
  facet normal 0 -1 0
    outer loop
      vertex -95.1 -39.7 -0.5
      vertex -13.7032 -39.7 42.8989
      vertex -95.1 -39.7 48.5
    endloop
  endfacet
  facet normal 0 -1 -0
    outer loop
      vertex -13.7032 -39.7 42.8989
      vertex -95.1 -39.7 -0.5
      vertex -12.1353 -39.7 40.1832
    endloop
  endfacet
  facet normal 0 -1 -0
    outer loop
      vertex -12.1353 -39.7 40.1832
      vertex -95.1 -39.7 -0.5
      vertex -10.037 -39.7 37.8528
    endloop
  endfacet
  facet normal 0 -1 -0
    outer loop
      vertex -10.037 -39.7 37.8528
      vertex -95.1 -39.7 -0.5
      vertex -7.5 -39.7 36.0096
    endloop
  endfacet
  facet normal 0 -1 -0
    outer loop
      vertex -7.5 -39.7 36.0096
      vertex -95.1 -39.7 -0.5
      vertex -4.63525 -39.7 34.7342
    endloop
  endfacet
  facet normal 0 -1 -0
    outer loop
      vertex -1.56793 -39.7 34.0822
      vertex -95.1 -39.7 -0.5
      vertex 1.56793 -39.7 34.0822
    endloop
  endfacet
  facet normal 0 -1 -0
    outer loop
      vertex -4.63525 -39.7 34.7342
      vertex -95.1 -39.7 -0.5
      vertex -1.56793 -39.7 34.0822
    endloop
  endfacet
  facet normal 0 -1 0
    outer loop
      vertex 14.6722 -39.7 45.8813
      vertex 95.1 -39.7 48.5
      vertex 14.9474 -39.7 48.5
    endloop
  endfacet
  facet normal 0 -1 0
    outer loop
      vertex 13.7032 -39.7 42.8989
      vertex 95.1 -39.7 48.5
      vertex 14.6722 -39.7 45.8813
    endloop
  endfacet
  facet normal 0 -1 0
    outer loop
      vertex 95.1 -39.7 -0.5
      vertex 13.7032 -39.7 42.8989
      vertex 12.1353 -39.7 40.1832
    endloop
  endfacet
  facet normal 0 -1 0
    outer loop
      vertex 95.1 -39.7 -0.5
      vertex 12.1353 -39.7 40.1832
      vertex 10.037 -39.7 37.8528
    endloop
  endfacet
  facet normal 0 -1 0
    outer loop
      vertex 95.1 -39.7 -0.5
      vertex 10.037 -39.7 37.8528
      vertex 7.5 -39.7 36.0096
    endloop
  endfacet
  facet normal 0 -1 0
    outer loop
      vertex 95.1 -39.7 -0.5
      vertex 7.5 -39.7 36.0096
      vertex 4.63525 -39.7 34.7342
    endloop
  endfacet
  facet normal 0 -1 0
    outer loop
      vertex 95.1 -39.7 -0.5
      vertex 4.63525 -39.7 34.7342
      vertex 1.56793 -39.7 34.0822
    endloop
  endfacet
  facet normal 0 -1 0
    outer loop
      vertex 95.1 -39.7 -0.5
      vertex 1.56793 -39.7 34.0822
      vertex -95.1 -39.7 -0.5
    endloop
  endfacet
  facet normal 0 -1 0
    outer loop
      vertex 13.7032 -39.7 42.8989
      vertex 95.1 -39.7 -0.5
      vertex 95.1 -39.7 48.5
    endloop
  endfacet
  facet normal 1 -0 0
    outer loop
      vertex -94.1 -38.7 48.5
      vertex -94.1 38.7 0.5
      vertex -94.1 38.7 48.5
    endloop
  endfacet
  facet normal 1 0 0
    outer loop
      vertex -94.1 38.7 0.5
      vertex -94.1 -38.7 48.5
      vertex -94.1 -38.7 0.5
    endloop
  endfacet
  facet normal -1 0 0
    outer loop
      vertex -95.1 -39.7 -0.5
      vertex -95.1 39.7 48.5
      vertex -95.1 39.7 -0.5
    endloop
  endfacet
  facet normal -1 -0 0
    outer loop
      vertex -95.1 39.7 48.5
      vertex -95.1 -39.7 -0.5
      vertex -95.1 -39.7 48.5
    endloop
  endfacet
  facet normal 1 -0 0
    outer loop
      vertex 95.1 -39.7 48.5
      vertex 95.1 39.7 -0.5
      vertex 95.1 39.7 48.5
    endloop
  endfacet
  facet normal 1 0 0
    outer loop
      vertex 95.1 39.7 -0.5
      vertex 95.1 -39.7 48.5
      vertex 95.1 -39.7 -0.5
    endloop
  endfacet
  facet normal -1 0 0
    outer loop
      vertex 94.1 -38.7 0.5
      vertex 94.1 38.7 48.5
      vertex 94.1 38.7 0.5
    endloop
  endfacet
  facet normal -1 -0 0
    outer loop
      vertex 94.1 38.7 48.5
      vertex 94.1 -38.7 0.5
      vertex 94.1 -38.7 48.5
    endloop
  endfacet
  facet normal -0.406718 0 0.913554
    outer loop
      vertex 4.63525 39.7 34.7342
      vertex 7.5 38.7 36.0096
      vertex 7.5 39.7 36.0096
    endloop
  endfacet
  facet normal -0.406718 0 0.913554
    outer loop
      vertex 7.5 38.7 36.0096
      vertex 4.63525 39.7 34.7342
      vertex 4.63525 38.7 34.7342
    endloop
  endfacet
  facet normal -0.406718 0 0.913554
    outer loop
      vertex 4.63525 -38.7 34.7342
      vertex 7.5 -39.7 36.0096
      vertex 7.5 -38.7 36.0096
    endloop
  endfacet
  facet normal -0.406718 0 0.913554
    outer loop
      vertex 7.5 -39.7 36.0096
      vertex 4.63525 -38.7 34.7342
      vertex 4.63525 -39.7 34.7342
    endloop
  endfacet
  facet normal -0 0 1
    outer loop
      vertex -1.56793 39.7 34.0822
      vertex 1.56793 38.7 34.0822
      vertex 1.56793 39.7 34.0822
    endloop
  endfacet
  facet normal 0 0 1
    outer loop
      vertex 1.56793 38.7 34.0822
      vertex -1.56793 39.7 34.0822
      vertex -1.56793 38.7 34.0822
    endloop
  endfacet
  facet normal -0 0 1
    outer loop
      vertex -1.56793 -38.7 34.0822
      vertex 1.56793 -39.7 34.0822
      vertex 1.56793 -38.7 34.0822
    endloop
  endfacet
  facet normal 0 0 1
    outer loop
      vertex 1.56793 -39.7 34.0822
      vertex -1.56793 -38.7 34.0822
      vertex -1.56793 -39.7 34.0822
    endloop
  endfacet
  facet normal -0.743145 0 0.66913
    outer loop
      vertex 10.037 38.7 37.8528
      vertex 12.1353 39.7 40.1832
      vertex 10.037 39.7 37.8528
    endloop
  endfacet
  facet normal -0.743145 0 0.66913
    outer loop
      vertex 12.1353 39.7 40.1832
      vertex 10.037 38.7 37.8528
      vertex 12.1353 38.7 40.1832
    endloop
  endfacet
  facet normal -0.743145 0 0.66913
    outer loop
      vertex 10.037 -39.7 37.8528
      vertex 12.1353 -38.7 40.1832
      vertex 10.037 -38.7 37.8528
    endloop
  endfacet
  facet normal -0.743145 0 0.66913
    outer loop
      vertex 12.1353 -38.7 40.1832
      vertex 10.037 -39.7 37.8528
      vertex 12.1353 -39.7 40.1832
    endloop
  endfacet
  facet normal -0.994523 0 0.104515
    outer loop
      vertex 14.6722 38.7 45.8813
      vertex 14.9474 39.7 48.5
      vertex 14.6722 39.7 45.8813
    endloop
  endfacet
  facet normal -0.994523 0 0.104515
    outer loop
      vertex 14.9474 39.7 48.5
      vertex 14.6722 38.7 45.8813
      vertex 14.9474 38.7 48.5
    endloop
  endfacet
  facet normal -0.994523 0 0.104515
    outer loop
      vertex 14.6722 -39.7 45.8813
      vertex 14.9474 -38.7 48.5
      vertex 14.6722 -38.7 45.8813
    endloop
  endfacet
  facet normal -0.994523 0 0.104515
    outer loop
      vertex 14.9474 -38.7 48.5
      vertex 14.6722 -39.7 45.8813
      vertex 14.9474 -39.7 48.5
    endloop
  endfacet
  facet normal -0.95106 0 0.309005
    outer loop
      vertex 13.7032 38.7 42.8989
      vertex 14.6722 39.7 45.8813
      vertex 13.7032 39.7 42.8989
    endloop
  endfacet
  facet normal -0.95106 0 0.309005
    outer loop
      vertex 14.6722 39.7 45.8813
      vertex 13.7032 38.7 42.8989
      vertex 14.6722 38.7 45.8813
    endloop
  endfacet
  facet normal -0.95106 0 0.309005
    outer loop
      vertex 13.7032 -39.7 42.8989
      vertex 14.6722 -38.7 45.8813
      vertex 13.7032 -38.7 42.8989
    endloop
  endfacet
  facet normal -0.95106 0 0.309005
    outer loop
      vertex 14.6722 -38.7 45.8813
      vertex 13.7032 -39.7 42.8989
      vertex 14.6722 -39.7 45.8813
    endloop
  endfacet
  facet normal 0.406718 0 0.913554
    outer loop
      vertex -7.5 39.7 36.0096
      vertex -4.63525 38.7 34.7342
      vertex -4.63525 39.7 34.7342
    endloop
  endfacet
  facet normal 0.406718 0 0.913554
    outer loop
      vertex -4.63525 38.7 34.7342
      vertex -7.5 39.7 36.0096
      vertex -7.5 38.7 36.0096
    endloop
  endfacet
  facet normal 0.406718 0 0.913554
    outer loop
      vertex -7.5 -38.7 36.0096
      vertex -4.63525 -39.7 34.7342
      vertex -4.63525 -38.7 34.7342
    endloop
  endfacet
  facet normal 0.406718 0 0.913554
    outer loop
      vertex -4.63525 -39.7 34.7342
      vertex -7.5 -38.7 36.0096
      vertex -7.5 -39.7 36.0096
    endloop
  endfacet
  facet normal 0.95106 -0 0.309005
    outer loop
      vertex -14.6722 38.7 45.8813
      vertex -13.7032 39.7 42.8989
      vertex -14.6722 39.7 45.8813
    endloop
  endfacet
  facet normal 0.95106 0 0.309005
    outer loop
      vertex -13.7032 39.7 42.8989
      vertex -14.6722 38.7 45.8813
      vertex -13.7032 38.7 42.8989
    endloop
  endfacet
  facet normal 0.95106 -0 0.309005
    outer loop
      vertex -14.6722 -39.7 45.8813
      vertex -13.7032 -38.7 42.8989
      vertex -14.6722 -38.7 45.8813
    endloop
  endfacet
  facet normal 0.95106 0 0.309005
    outer loop
      vertex -13.7032 -38.7 42.8989
      vertex -14.6722 -39.7 45.8813
      vertex -13.7032 -39.7 42.8989
    endloop
  endfacet
  facet normal 0.207918 0 0.978146
    outer loop
      vertex -4.63525 39.7 34.7342
      vertex -1.56793 38.7 34.0822
      vertex -1.56793 39.7 34.0822
    endloop
  endfacet
  facet normal 0.207918 0 0.978146
    outer loop
      vertex -1.56793 38.7 34.0822
      vertex -4.63525 39.7 34.7342
      vertex -4.63525 38.7 34.7342
    endloop
  endfacet
  facet normal 0.207918 0 0.978146
    outer loop
      vertex -4.63525 -38.7 34.7342
      vertex -1.56793 -39.7 34.0822
      vertex -1.56793 -38.7 34.0822
    endloop
  endfacet
  facet normal 0.207918 0 0.978146
    outer loop
      vertex -1.56793 -39.7 34.0822
      vertex -4.63525 -38.7 34.7342
      vertex -4.63525 -39.7 34.7342
    endloop
  endfacet
  facet normal 0.587777 0 0.809023
    outer loop
      vertex -10.037 39.7 37.8528
      vertex -7.5 38.7 36.0096
      vertex -7.5 39.7 36.0096
    endloop
  endfacet
  facet normal 0.587777 0 0.809023
    outer loop
      vertex -7.5 38.7 36.0096
      vertex -10.037 39.7 37.8528
      vertex -10.037 38.7 37.8528
    endloop
  endfacet
  facet normal 0.587777 0 0.809023
    outer loop
      vertex -10.037 -38.7 37.8528
      vertex -7.5 -39.7 36.0096
      vertex -7.5 -38.7 36.0096
    endloop
  endfacet
  facet normal 0.587777 0 0.809023
    outer loop
      vertex -7.5 -39.7 36.0096
      vertex -10.037 -38.7 37.8528
      vertex -10.037 -39.7 37.8528
    endloop
  endfacet
  facet normal 0.743145 -0 0.66913
    outer loop
      vertex -12.1353 38.7 40.1832
      vertex -10.037 39.7 37.8528
      vertex -12.1353 39.7 40.1832
    endloop
  endfacet
  facet normal 0.743145 0 0.66913
    outer loop
      vertex -10.037 39.7 37.8528
      vertex -12.1353 38.7 40.1832
      vertex -10.037 38.7 37.8528
    endloop
  endfacet
  facet normal 0.743145 -0 0.66913
    outer loop
      vertex -12.1353 -39.7 40.1832
      vertex -10.037 -38.7 37.8528
      vertex -12.1353 -38.7 40.1832
    endloop
  endfacet
  facet normal 0.743145 0 0.66913
    outer loop
      vertex -10.037 -38.7 37.8528
      vertex -12.1353 -39.7 40.1832
      vertex -10.037 -39.7 37.8528
    endloop
  endfacet
  facet normal -0.207918 0 0.978146
    outer loop
      vertex 1.56793 39.7 34.0822
      vertex 4.63525 38.7 34.7342
      vertex 4.63525 39.7 34.7342
    endloop
  endfacet
  facet normal -0.207918 0 0.978146
    outer loop
      vertex 4.63525 38.7 34.7342
      vertex 1.56793 39.7 34.0822
      vertex 1.56793 38.7 34.0822
    endloop
  endfacet
  facet normal -0.207918 0 0.978146
    outer loop
      vertex 1.56793 -38.7 34.0822
      vertex 4.63525 -39.7 34.7342
      vertex 4.63525 -38.7 34.7342
    endloop
  endfacet
  facet normal -0.207918 0 0.978146
    outer loop
      vertex 4.63525 -39.7 34.7342
      vertex 1.56793 -38.7 34.0822
      vertex 1.56793 -39.7 34.0822
    endloop
  endfacet
  facet normal -0.587777 0 0.809023
    outer loop
      vertex 7.5 39.7 36.0096
      vertex 10.037 38.7 37.8528
      vertex 10.037 39.7 37.8528
    endloop
  endfacet
  facet normal -0.587777 0 0.809023
    outer loop
      vertex 10.037 38.7 37.8528
      vertex 7.5 39.7 36.0096
      vertex 7.5 38.7 36.0096
    endloop
  endfacet
  facet normal -0.587777 0 0.809023
    outer loop
      vertex 7.5 -38.7 36.0096
      vertex 10.037 -39.7 37.8528
      vertex 10.037 -38.7 37.8528
    endloop
  endfacet
  facet normal -0.587777 0 0.809023
    outer loop
      vertex 10.037 -39.7 37.8528
      vertex 7.5 -38.7 36.0096
      vertex 7.5 -39.7 36.0096
    endloop
  endfacet
  facet normal -0.866027 0 0.499998
    outer loop
      vertex 12.1353 38.7 40.1832
      vertex 13.7032 39.7 42.8989
      vertex 12.1353 39.7 40.1832
    endloop
  endfacet
  facet normal -0.866027 0 0.499998
    outer loop
      vertex 13.7032 39.7 42.8989
      vertex 12.1353 38.7 40.1832
      vertex 13.7032 38.7 42.8989
    endloop
  endfacet
  facet normal -0.866027 0 0.499998
    outer loop
      vertex 12.1353 -39.7 40.1832
      vertex 13.7032 -38.7 42.8989
      vertex 12.1353 -38.7 40.1832
    endloop
  endfacet
  facet normal -0.866027 0 0.499998
    outer loop
      vertex 13.7032 -38.7 42.8989
      vertex 12.1353 -39.7 40.1832
      vertex 13.7032 -39.7 42.8989
    endloop
  endfacet
  facet normal 0.866027 -0 0.499998
    outer loop
      vertex -13.7032 38.7 42.8989
      vertex -12.1353 39.7 40.1832
      vertex -13.7032 39.7 42.8989
    endloop
  endfacet
  facet normal 0.866027 0 0.499998
    outer loop
      vertex -12.1353 39.7 40.1832
      vertex -13.7032 38.7 42.8989
      vertex -12.1353 38.7 40.1832
    endloop
  endfacet
  facet normal 0.866027 -0 0.499998
    outer loop
      vertex -13.7032 -39.7 42.8989
      vertex -12.1353 -38.7 40.1832
      vertex -13.7032 -38.7 42.8989
    endloop
  endfacet
  facet normal 0.866027 0 0.499998
    outer loop
      vertex -12.1353 -38.7 40.1832
      vertex -13.7032 -39.7 42.8989
      vertex -12.1353 -39.7 40.1832
    endloop
  endfacet
  facet normal 0.994523 -0 0.104515
    outer loop
      vertex -14.9474 38.7 48.5
      vertex -14.6722 39.7 45.8813
      vertex -14.9474 39.7 48.5
    endloop
  endfacet
  facet normal 0.994523 0 0.104515
    outer loop
      vertex -14.6722 39.7 45.8813
      vertex -14.9474 38.7 48.5
      vertex -14.6722 38.7 45.8813
    endloop
  endfacet
  facet normal 0.994523 -0 0.104515
    outer loop
      vertex -14.9474 -39.7 48.5
      vertex -14.6722 -38.7 45.8813
      vertex -14.9474 -38.7 48.5
    endloop
  endfacet
  facet normal 0.994523 0 0.104515
    outer loop
      vertex -14.6722 -38.7 45.8813
      vertex -14.9474 -39.7 48.5
      vertex -14.6722 -39.7 45.8813
    endloop
  endfacet
  facet normal -1 0 0
    outer loop
      vertex 15 -38.2 -0.5
      vertex 15 -31.9 0.5
      vertex 15 -31.9 -0.5
    endloop
  endfacet
  facet normal -1 -0 0
    outer loop
      vertex 15 -31.9 0.5
      vertex 15 -38.2 -0.5
      vertex 15 -38.2 0.5
    endloop
  endfacet
  facet normal 1 -0 0
    outer loop
      vertex -15 -38.2 0.5
      vertex -15 -31.9 -0.5
      vertex -15 -31.9 0.5
    endloop
  endfacet
  facet normal 1 0 0
    outer loop
      vertex -15 -31.9 -0.5
      vertex -15 -38.2 0.5
      vertex -15 -38.2 -0.5
    endloop
  endfacet
  facet normal 0 -1 0
    outer loop
      vertex -15 -31.9 -0.5
      vertex 15 -31.9 0.5
      vertex -15 -31.9 0.5
    endloop
  endfacet
  facet normal 0 -1 -0
    outer loop
      vertex 15 -31.9 0.5
      vertex -15 -31.9 -0.5
      vertex 15 -31.9 -0.5
    endloop
  endfacet
  facet normal 0 1 -0
    outer loop
      vertex 15 -38.2 -0.5
      vertex -15 -38.2 0.5
      vertex 15 -38.2 0.5
    endloop
  endfacet
  facet normal 0 1 0
    outer loop
      vertex -15 -38.2 0.5
      vertex 15 -38.2 -0.5
      vertex -15 -38.2 -0.5
    endloop
  endfacet
  facet normal -1 0 0
    outer loop
      vertex 15 31.9 -0.5
      vertex 15 38.2 0.5
      vertex 15 38.2 -0.5
    endloop
  endfacet
  facet normal -1 -0 0
    outer loop
      vertex 15 38.2 0.5
      vertex 15 31.9 -0.5
      vertex 15 31.9 0.5
    endloop
  endfacet
  facet normal 1 -0 0
    outer loop
      vertex -15 31.9 0.5
      vertex -15 38.2 -0.5
      vertex -15 38.2 0.5
    endloop
  endfacet
  facet normal 1 0 0
    outer loop
      vertex -15 38.2 -0.5
      vertex -15 31.9 0.5
      vertex -15 31.9 -0.5
    endloop
  endfacet
  facet normal 0 -1 0
    outer loop
      vertex -15 38.2 -0.5
      vertex 15 38.2 0.5
      vertex -15 38.2 0.5
    endloop
  endfacet
  facet normal 0 -1 -0
    outer loop
      vertex 15 38.2 0.5
      vertex -15 38.2 -0.5
      vertex 15 38.2 -0.5
    endloop
  endfacet
  facet normal 0 1 -0
    outer loop
      vertex 15 31.9 -0.5
      vertex -15 31.9 0.5
      vertex 15 31.9 0.5
    endloop
  endfacet
  facet normal 0 1 0
    outer loop
      vertex -15 31.9 0.5
      vertex 15 31.9 -0.5
      vertex -15 31.9 -0.5
    endloop
  endfacet
endsolid OpenSCAD_Model
