solid OpenSCAD_Model
  facet normal -0 0 1
    outer loop
      vertex -15 31.3 0.799999
      vertex 15 -31.3 0.799999
      vertex 15 31.3 0.799999
    endloop
  endfacet
  facet normal 0 0 1
    outer loop
      vertex 15 -31.3 0.799999
      vertex -15 31.3 0.799999
      vertex -15 -31.3 0.799999
    endloop
  endfacet
  facet normal 0 0 1
    outer loop
      vertex 15 31.3 0.799999
      vertex 93.8 38.4 0.799999
      vertex 15 37.6 0.799999
    endloop
  endfacet
  facet normal 0 0 1
    outer loop
      vertex 93.8 38.4 0.799999
      vertex -15 37.6 0.799999
      vertex 15 37.6 0.799999
    endloop
  endfacet
  facet normal 0 0 1
    outer loop
      vertex -93.8 38.4 0.799999
      vertex -15 31.3 0.799999
      vertex -15 37.6 0.799999
    endloop
  endfacet
  facet normal 0 0 1
    outer loop
      vertex -15 31.3 0.799999
      vertex -93.8 38.4 0.799999
      vertex -15 -31.3 0.799999
    endloop
  endfacet
  facet normal 0 0 1
    outer loop
      vertex -93.8 -38.4 0.799999
      vertex -15 -31.3 0.799999
      vertex -93.8 38.4 0.799999
    endloop
  endfacet
  facet normal -0 0 1
    outer loop
      vertex -93.8 38.4 0.799999
      vertex -15 37.6 0.799999
      vertex 93.8 38.4 0.799999
    endloop
  endfacet
  facet normal 0 0 1
    outer loop
      vertex 93.8 38.4 0.799999
      vertex 15 31.3 0.799999
      vertex 93.8 -38.4 0.799999
    endloop
  endfacet
  facet normal -0 0 1
    outer loop
      vertex 15 -31.3 0.799999
      vertex 93.8 -38.4 0.799999
      vertex 15 31.3 0.799999
    endloop
  endfacet
  facet normal -0 0 1
    outer loop
      vertex 15 -37.6 0.799999
      vertex 93.8 -38.4 0.799999
      vertex 15 -31.3 0.799999
    endloop
  endfacet
  facet normal -0 0 1
    outer loop
      vertex -15 -37.6 0.799999
      vertex 93.8 -38.4 0.799999
      vertex 15 -37.6 0.799999
    endloop
  endfacet
  facet normal 0 0 1
    outer loop
      vertex -15 -37.6 0.799999
      vertex -93.8 -38.4 0.799999
      vertex 93.8 -38.4 0.799999
    endloop
  endfacet
  facet normal 0 0 1
    outer loop
      vertex -15 -31.3 0.799999
      vertex -93.8 -38.4 0.799999
      vertex -15 -37.6 0.799999
    endloop
  endfacet
  facet normal 0 0 -1
    outer loop
      vertex -15 -31.3 -0.799999
      vertex 15 31.3 -0.799999
      vertex 15 -31.3 -0.799999
    endloop
  endfacet
  facet normal -0 0 -1
    outer loop
      vertex 15 31.3 -0.799999
      vertex -15 -31.3 -0.799999
      vertex -15 31.3 -0.799999
    endloop
  endfacet
  facet normal 0 0 -1
    outer loop
      vertex 15 -31.3 -0.799999
      vertex 95.4 -40 -0.799999
      vertex 15 -37.6 -0.799999
    endloop
  endfacet
  facet normal 0 0 -1
    outer loop
      vertex 95.4 -40 -0.799999
      vertex -15 -37.6 -0.799999
      vertex 15 -37.6 -0.799999
    endloop
  endfacet
  facet normal 0 0 -1
    outer loop
      vertex -95.4 -40 -0.799999
      vertex -15 -31.3 -0.799999
      vertex -15 -37.6 -0.799999
    endloop
  endfacet
  facet normal -0 0 -1
    outer loop
      vertex -15 -31.3 -0.799999
      vertex -95.4 -40 -0.799999
      vertex -15 31.3 -0.799999
    endloop
  endfacet
  facet normal 0 0 -1
    outer loop
      vertex -95.4 40 -0.799999
      vertex -15 31.3 -0.799999
      vertex -95.4 -40 -0.799999
    endloop
  endfacet
  facet normal 0 0 -1
    outer loop
      vertex -95.4 -40 -0.799999
      vertex -15 -37.6 -0.799999
      vertex 95.4 -40 -0.799999
    endloop
  endfacet
  facet normal 0 0 -1
    outer loop
      vertex 95.4 -40 -0.799999
      vertex 15 -31.3 -0.799999
      vertex 95.4 40 -0.799999
    endloop
  endfacet
  facet normal 0 0 -1
    outer loop
      vertex 15 31.3 -0.799999
      vertex 95.4 40 -0.799999
      vertex 15 -31.3 -0.799999
    endloop
  endfacet
  facet normal 0 0 -1
    outer loop
      vertex 15 37.6 -0.799999
      vertex 95.4 40 -0.799999
      vertex 15 31.3 -0.799999
    endloop
  endfacet
  facet normal 0 0 -1
    outer loop
      vertex -15 37.6 -0.799999
      vertex 95.4 40 -0.799999
      vertex 15 37.6 -0.799999
    endloop
  endfacet
  facet normal 0 0 -1
    outer loop
      vertex -15 37.6 -0.799999
      vertex -95.4 40 -0.799999
      vertex 95.4 40 -0.799999
    endloop
  endfacet
  facet normal 0 0 -1
    outer loop
      vertex -15 31.3 -0.799999
      vertex -95.4 40 -0.799999
      vertex -15 37.6 -0.799999
    endloop
  endfacet
  facet normal 0 0 1
    outer loop
      vertex 95.4 40 48.2
      vertex 93.8 38.4 48.2
      vertex 95.4 -40 48.2
    endloop
  endfacet
  facet normal -0 0 1
    outer loop
      vertex 14.9159 40 48.2
      vertex 93.8 38.4 48.2
      vertex 95.4 40 48.2
    endloop
  endfacet
  facet normal 0 0 1
    outer loop
      vertex 93.8 38.4 48.2
      vertex 14.9159 40 48.2
      vertex 14.9159 38.4 48.2
    endloop
  endfacet
  facet normal -0 0 1
    outer loop
      vertex 93.8 -38.4 48.2
      vertex 95.4 -40 48.2
      vertex 93.8 38.4 48.2
    endloop
  endfacet
  facet normal 0 0 1
    outer loop
      vertex 14.9159 -40 48.2
      vertex 93.8 -38.4 48.2
      vertex 14.9159 -38.4 48.2
    endloop
  endfacet
  facet normal 0 0 1
    outer loop
      vertex 93.8 -38.4 48.2
      vertex 14.9159 -40 48.2
      vertex 95.4 -40 48.2
    endloop
  endfacet
  facet normal 0 0 1
    outer loop
      vertex -14.9159 40 48.2
      vertex -93.8 38.4 48.2
      vertex -14.9159 38.4 48.2
    endloop
  endfacet
  facet normal 0 0 1
    outer loop
      vertex -93.8 38.4 48.2
      vertex -95.4 40 48.2
      vertex -93.8 -38.4 48.2
    endloop
  endfacet
  facet normal -0 0 1
    outer loop
      vertex -95.4 40 48.2
      vertex -93.8 38.4 48.2
      vertex -14.9159 40 48.2
    endloop
  endfacet
  facet normal -0 0 1
    outer loop
      vertex -93.8 -38.4 48.2
      vertex -14.9159 -40 48.2
      vertex -14.9159 -38.4 48.2
    endloop
  endfacet
  facet normal 0 0 1
    outer loop
      vertex -93.8 -38.4 48.2
      vertex -95.4 -40 48.2
      vertex -14.9159 -40 48.2
    endloop
  endfacet
  facet normal 0 0 1
    outer loop
      vertex -95.4 -40 48.2
      vertex -93.8 -38.4 48.2
      vertex -95.4 40 48.2
    endloop
  endfacet
  facet normal 0 1 0
    outer loop
      vertex 95.4 40 48.2
      vertex 14.6722 40 45.8813
      vertex 14.9159 40 48.2
    endloop
  endfacet
  facet normal 0 1 0
    outer loop
      vertex 95.4 40 48.2
      vertex 13.7032 40 42.8989
      vertex 14.6722 40 45.8813
    endloop
  endfacet
  facet normal 0 1 -0
    outer loop
      vertex 95.4 40 -0.799999
      vertex 13.7032 40 42.8989
      vertex 95.4 40 48.2
    endloop
  endfacet
  facet normal 0 1 0
    outer loop
      vertex 13.7032 40 42.8989
      vertex 95.4 40 -0.799999
      vertex 12.1353 40 40.1832
    endloop
  endfacet
  facet normal 0 1 0
    outer loop
      vertex 12.1353 40 40.1832
      vertex 95.4 40 -0.799999
      vertex 10.037 40 37.8528
    endloop
  endfacet
  facet normal 0 1 0
    outer loop
      vertex 10.037 40 37.8528
      vertex 95.4 40 -0.799999
      vertex 7.5 40 36.0096
    endloop
  endfacet
  facet normal 0 1 0
    outer loop
      vertex 7.5 40 36.0096
      vertex 95.4 40 -0.799999
      vertex 4.63525 40 34.7342
    endloop
  endfacet
  facet normal 0 1 0
    outer loop
      vertex 1.56793 40 34.0822
      vertex 95.4 40 -0.799999
      vertex -1.56793 40 34.0822
    endloop
  endfacet
  facet normal 0 1 0
    outer loop
      vertex 4.63525 40 34.7342
      vertex 95.4 40 -0.799999
      vertex 1.56793 40 34.0822
    endloop
  endfacet
  facet normal 0 1 0
    outer loop
      vertex -14.6722 40 45.8813
      vertex -95.4 40 48.2
      vertex -14.9159 40 48.2
    endloop
  endfacet
  facet normal 0 1 0
    outer loop
      vertex -13.7032 40 42.8989
      vertex -95.4 40 48.2
      vertex -14.6722 40 45.8813
    endloop
  endfacet
  facet normal 0 1 0
    outer loop
      vertex -95.4 40 -0.799999
      vertex -13.7032 40 42.8989
      vertex -12.1353 40 40.1832
    endloop
  endfacet
  facet normal 0 1 0
    outer loop
      vertex -95.4 40 -0.799999
      vertex -12.1353 40 40.1832
      vertex -10.037 40 37.8528
    endloop
  endfacet
  facet normal 0 1 0
    outer loop
      vertex -95.4 40 -0.799999
      vertex -10.037 40 37.8528
      vertex -7.5 40 36.0096
    endloop
  endfacet
  facet normal 0 1 0
    outer loop
      vertex -95.4 40 -0.799999
      vertex -7.5 40 36.0096
      vertex -4.63525 40 34.7342
    endloop
  endfacet
  facet normal 0 1 0
    outer loop
      vertex -95.4 40 -0.799999
      vertex -4.63525 40 34.7342
      vertex -1.56793 40 34.0822
    endloop
  endfacet
  facet normal 0 1 0
    outer loop
      vertex -95.4 40 -0.799999
      vertex -1.56793 40 34.0822
      vertex 95.4 40 -0.799999
    endloop
  endfacet
  facet normal 0 1 0
    outer loop
      vertex -13.7032 40 42.8989
      vertex -95.4 40 -0.799999
      vertex -95.4 40 48.2
    endloop
  endfacet
  facet normal 0 -1 0
    outer loop
      vertex -93.8 38.4 48.2
      vertex -14.6722 38.4 45.8813
      vertex -14.9159 38.4 48.2
    endloop
  endfacet
  facet normal 0 -1 0
    outer loop
      vertex -93.8 38.4 48.2
      vertex -13.7032 38.4 42.8989
      vertex -14.6722 38.4 45.8813
    endloop
  endfacet
  facet normal 0 -1 0
    outer loop
      vertex -93.8 38.4 4.8
      vertex -13.7032 38.4 42.8989
      vertex -93.8 38.4 48.2
    endloop
  endfacet
  facet normal 0 -1 -0
    outer loop
      vertex -13.7032 38.4 42.8989
      vertex -93.8 38.4 4.8
      vertex -12.1353 38.4 40.1832
    endloop
  endfacet
  facet normal 0 -1 -0
    outer loop
      vertex -12.1353 38.4 40.1832
      vertex -93.8 38.4 4.8
      vertex -10.037 38.4 37.8528
    endloop
  endfacet
  facet normal 0 -1 -0
    outer loop
      vertex -10.037 38.4 37.8528
      vertex -93.8 38.4 4.8
      vertex -7.5 38.4 36.0096
    endloop
  endfacet
  facet normal 0 -1 -0
    outer loop
      vertex -7.5 38.4 36.0096
      vertex -93.8 38.4 4.8
      vertex -4.63525 38.4 34.7342
    endloop
  endfacet
  facet normal 0 -1 -0
    outer loop
      vertex -1.56793 38.4 34.0822
      vertex -93.8 38.4 4.8
      vertex 1.56793 38.4 34.0822
    endloop
  endfacet
  facet normal 0 -1 -0
    outer loop
      vertex -4.63525 38.4 34.7342
      vertex -93.8 38.4 4.8
      vertex -1.56793 38.4 34.0822
    endloop
  endfacet
  facet normal 0 -1 0
    outer loop
      vertex 14.6722 38.4 45.8813
      vertex 93.8 38.4 48.2
      vertex 14.9159 38.4 48.2
    endloop
  endfacet
  facet normal 0 -1 0
    outer loop
      vertex 13.7032 38.4 42.8989
      vertex 93.8 38.4 48.2
      vertex 14.6722 38.4 45.8813
    endloop
  endfacet
  facet normal 0 -1 0
    outer loop
      vertex 93.8 38.4 4.8
      vertex 13.7032 38.4 42.8989
      vertex 12.1353 38.4 40.1832
    endloop
  endfacet
  facet normal 0 -1 0
    outer loop
      vertex 93.8 38.4 4.8
      vertex 12.1353 38.4 40.1832
      vertex 10.037 38.4 37.8528
    endloop
  endfacet
  facet normal 0 -1 0
    outer loop
      vertex 93.8 38.4 4.8
      vertex 10.037 38.4 37.8528
      vertex 7.5 38.4 36.0096
    endloop
  endfacet
  facet normal 0 -1 0
    outer loop
      vertex 93.8 38.4 4.8
      vertex 7.5 38.4 36.0096
      vertex 4.63525 38.4 34.7342
    endloop
  endfacet
  facet normal 0 -1 0
    outer loop
      vertex 93.8 38.4 4.8
      vertex 4.63525 38.4 34.7342
      vertex 1.56793 38.4 34.0822
    endloop
  endfacet
  facet normal 0 -1 0
    outer loop
      vertex 93.8 38.4 4.8
      vertex 1.56793 38.4 34.0822
      vertex -93.8 38.4 4.8
    endloop
  endfacet
  facet normal 0 -1 0
    outer loop
      vertex 13.7032 38.4 42.8989
      vertex 93.8 38.4 4.8
      vertex 93.8 38.4 48.2
    endloop
  endfacet
  facet normal 0 -1 0
    outer loop
      vertex -93.8 38.4 0.799999
      vertex 93.8 38.4 1.6
      vertex -93.8 38.4 1.6
    endloop
  endfacet
  facet normal 0 -1 -0
    outer loop
      vertex 93.8 38.4 1.6
      vertex -93.8 38.4 0.799999
      vertex 93.8 38.4 0.799999
    endloop
  endfacet
  facet normal 0 1 0
    outer loop
      vertex 93.8 -38.4 48.2
      vertex 14.6722 -38.4 45.8813
      vertex 14.9159 -38.4 48.2
    endloop
  endfacet
  facet normal 0 1 0
    outer loop
      vertex 93.8 -38.4 48.2
      vertex 13.7032 -38.4 42.8989
      vertex 14.6722 -38.4 45.8813
    endloop
  endfacet
  facet normal 0 1 -0
    outer loop
      vertex 93.8 -38.4 4.8
      vertex 13.7032 -38.4 42.8989
      vertex 93.8 -38.4 48.2
    endloop
  endfacet
  facet normal 0 1 0
    outer loop
      vertex 13.7032 -38.4 42.8989
      vertex 93.8 -38.4 4.8
      vertex 12.1353 -38.4 40.1832
    endloop
  endfacet
  facet normal 0 1 0
    outer loop
      vertex 12.1353 -38.4 40.1832
      vertex 93.8 -38.4 4.8
      vertex 10.037 -38.4 37.8528
    endloop
  endfacet
  facet normal 0 1 0
    outer loop
      vertex 10.037 -38.4 37.8528
      vertex 93.8 -38.4 4.8
      vertex 7.5 -38.4 36.0096
    endloop
  endfacet
  facet normal 0 1 0
    outer loop
      vertex 7.5 -38.4 36.0096
      vertex 93.8 -38.4 4.8
      vertex 4.63525 -38.4 34.7342
    endloop
  endfacet
  facet normal 0 1 0
    outer loop
      vertex 1.56793 -38.4 34.0822
      vertex 93.8 -38.4 4.8
      vertex -1.56793 -38.4 34.0822
    endloop
  endfacet
  facet normal 0 1 0
    outer loop
      vertex 4.63525 -38.4 34.7342
      vertex 93.8 -38.4 4.8
      vertex 1.56793 -38.4 34.0822
    endloop
  endfacet
  facet normal 0 1 0
    outer loop
      vertex -14.6722 -38.4 45.8813
      vertex -93.8 -38.4 48.2
      vertex -14.9159 -38.4 48.2
    endloop
  endfacet
  facet normal 0 1 0
    outer loop
      vertex -13.7032 -38.4 42.8989
      vertex -93.8 -38.4 48.2
      vertex -14.6722 -38.4 45.8813
    endloop
  endfacet
  facet normal 0 1 0
    outer loop
      vertex -93.8 -38.4 4.8
      vertex -13.7032 -38.4 42.8989
      vertex -12.1353 -38.4 40.1832
    endloop
  endfacet
  facet normal 0 1 0
    outer loop
      vertex -93.8 -38.4 4.8
      vertex -12.1353 -38.4 40.1832
      vertex -10.037 -38.4 37.8528
    endloop
  endfacet
  facet normal 0 1 0
    outer loop
      vertex -93.8 -38.4 4.8
      vertex -10.037 -38.4 37.8528
      vertex -7.5 -38.4 36.0096
    endloop
  endfacet
  facet normal 0 1 0
    outer loop
      vertex -93.8 -38.4 4.8
      vertex -7.5 -38.4 36.0096
      vertex -4.63525 -38.4 34.7342
    endloop
  endfacet
  facet normal 0 1 0
    outer loop
      vertex -93.8 -38.4 4.8
      vertex -4.63525 -38.4 34.7342
      vertex -1.56793 -38.4 34.0822
    endloop
  endfacet
  facet normal 0 1 0
    outer loop
      vertex -93.8 -38.4 4.8
      vertex -1.56793 -38.4 34.0822
      vertex 93.8 -38.4 4.8
    endloop
  endfacet
  facet normal 0 1 0
    outer loop
      vertex -13.7032 -38.4 42.8989
      vertex -93.8 -38.4 4.8
      vertex -93.8 -38.4 48.2
    endloop
  endfacet
  facet normal 0 1 -0
    outer loop
      vertex 93.8 -38.4 0.799999
      vertex -93.8 -38.4 1.6
      vertex 93.8 -38.4 1.6
    endloop
  endfacet
  facet normal 0 1 0
    outer loop
      vertex -93.8 -38.4 1.6
      vertex 93.8 -38.4 0.799999
      vertex -93.8 -38.4 0.799999
    endloop
  endfacet
  facet normal 0 -1 0
    outer loop
      vertex -95.4 -40 48.2
      vertex -14.6722 -40 45.8813
      vertex -14.9159 -40 48.2
    endloop
  endfacet
  facet normal 0 -1 0
    outer loop
      vertex -95.4 -40 48.2
      vertex -13.7032 -40 42.8989
      vertex -14.6722 -40 45.8813
    endloop
  endfacet
  facet normal 0 -1 0
    outer loop
      vertex -95.4 -40 -0.799999
      vertex -13.7032 -40 42.8989
      vertex -95.4 -40 48.2
    endloop
  endfacet
  facet normal 0 -1 -0
    outer loop
      vertex -13.7032 -40 42.8989
      vertex -95.4 -40 -0.799999
      vertex -12.1353 -40 40.1832
    endloop
  endfacet
  facet normal 0 -1 -0
    outer loop
      vertex -12.1353 -40 40.1832
      vertex -95.4 -40 -0.799999
      vertex -10.037 -40 37.8528
    endloop
  endfacet
  facet normal 0 -1 -0
    outer loop
      vertex -10.037 -40 37.8528
      vertex -95.4 -40 -0.799999
      vertex -7.5 -40 36.0096
    endloop
  endfacet
  facet normal 0 -1 -0
    outer loop
      vertex -7.5 -40 36.0096
      vertex -95.4 -40 -0.799999
      vertex -4.63525 -40 34.7342
    endloop
  endfacet
  facet normal 0 -1 -0
    outer loop
      vertex -1.56793 -40 34.0822
      vertex -95.4 -40 -0.799999
      vertex 1.56793 -40 34.0822
    endloop
  endfacet
  facet normal 0 -1 -0
    outer loop
      vertex -4.63525 -40 34.7342
      vertex -95.4 -40 -0.799999
      vertex -1.56793 -40 34.0822
    endloop
  endfacet
  facet normal 0 -1 0
    outer loop
      vertex 14.6722 -40 45.8813
      vertex 95.4 -40 48.2
      vertex 14.9159 -40 48.2
    endloop
  endfacet
  facet normal 0 -1 0
    outer loop
      vertex 13.7032 -40 42.8989
      vertex 95.4 -40 48.2
      vertex 14.6722 -40 45.8813
    endloop
  endfacet
  facet normal 0 -1 0
    outer loop
      vertex 95.4 -40 -0.799999
      vertex 13.7032 -40 42.8989
      vertex 12.1353 -40 40.1832
    endloop
  endfacet
  facet normal 0 -1 0
    outer loop
      vertex 95.4 -40 -0.799999
      vertex 12.1353 -40 40.1832
      vertex 10.037 -40 37.8528
    endloop
  endfacet
  facet normal 0 -1 0
    outer loop
      vertex 95.4 -40 -0.799999
      vertex 10.037 -40 37.8528
      vertex 7.5 -40 36.0096
    endloop
  endfacet
  facet normal 0 -1 0
    outer loop
      vertex 95.4 -40 -0.799999
      vertex 7.5 -40 36.0096
      vertex 4.63525 -40 34.7342
    endloop
  endfacet
  facet normal 0 -1 0
    outer loop
      vertex 95.4 -40 -0.799999
      vertex 4.63525 -40 34.7342
      vertex 1.56793 -40 34.0822
    endloop
  endfacet
  facet normal 0 -1 0
    outer loop
      vertex 95.4 -40 -0.799999
      vertex 1.56793 -40 34.0822
      vertex -95.4 -40 -0.799999
    endloop
  endfacet
  facet normal 0 -1 0
    outer loop
      vertex 13.7032 -40 42.8989
      vertex 95.4 -40 -0.799999
      vertex 95.4 -40 48.2
    endloop
  endfacet
  facet normal 1 -0 0
    outer loop
      vertex -93.8 -38.4 48.2
      vertex -93.8 38.4 4.8
      vertex -93.8 38.4 48.2
    endloop
  endfacet
  facet normal 1 0 0
    outer loop
      vertex -93.8 38.4 4.8
      vertex -93.8 -38.4 48.2
      vertex -93.8 -38.4 4.8
    endloop
  endfacet
  facet normal 1 -0 0
    outer loop
      vertex -93.8 -38.4 1.6
      vertex -93.8 38.4 0.799999
      vertex -93.8 38.4 1.6
    endloop
  endfacet
  facet normal 1 0 0
    outer loop
      vertex -93.8 38.4 0.799999
      vertex -93.8 -38.4 1.6
      vertex -93.8 -38.4 0.799999
    endloop
  endfacet
  facet normal -1 0 0
    outer loop
      vertex -95.4 -40 -0.799999
      vertex -95.4 40 48.2
      vertex -95.4 40 -0.799999
    endloop
  endfacet
  facet normal -1 -0 0
    outer loop
      vertex -95.4 40 48.2
      vertex -95.4 -40 -0.799999
      vertex -95.4 -40 48.2
    endloop
  endfacet
  facet normal 1 -0 0
    outer loop
      vertex 95.4 -40 48.2
      vertex 95.4 40 -0.799999
      vertex 95.4 40 48.2
    endloop
  endfacet
  facet normal 1 0 0
    outer loop
      vertex 95.4 40 -0.799999
      vertex 95.4 -40 48.2
      vertex 95.4 -40 -0.799999
    endloop
  endfacet
  facet normal -1 0 0
    outer loop
      vertex 93.8 -38.4 4.8
      vertex 93.8 38.4 48.2
      vertex 93.8 38.4 4.8
    endloop
  endfacet
  facet normal -1 -0 0
    outer loop
      vertex 93.8 38.4 48.2
      vertex 93.8 -38.4 4.8
      vertex 93.8 -38.4 48.2
    endloop
  endfacet
  facet normal -1 0 0
    outer loop
      vertex 93.8 -38.4 0.799999
      vertex 93.8 38.4 1.6
      vertex 93.8 38.4 0.799999
    endloop
  endfacet
  facet normal -1 -0 0
    outer loop
      vertex 93.8 38.4 1.6
      vertex 93.8 -38.4 0.799999
      vertex 93.8 -38.4 1.6
    endloop
  endfacet
  facet normal 0 0 1
    outer loop
      vertex 93.8 38.4 4.8
      vertex 92.68 37.6 4.8
      vertex 93.8 -38.4 4.8
    endloop
  endfacet
  facet normal 0 0 1
    outer loop
      vertex 93.8 38.4 4.8
      vertex 15 37.6 4.8
      vertex 92.68 37.6 4.8
    endloop
  endfacet
  facet normal 0 0 1
    outer loop
      vertex 93.8 38.4 4.8
      vertex -15 37.6 4.8
      vertex 15 37.6 4.8
    endloop
  endfacet
  facet normal -0 0 1
    outer loop
      vertex -93.8 38.4 4.8
      vertex -15 37.6 4.8
      vertex 93.8 38.4 4.8
    endloop
  endfacet
  facet normal 0 0 1
    outer loop
      vertex -92.68 37.6 4.8
      vertex -93.8 38.4 4.8
      vertex -92.68 -37.6 4.8
    endloop
  endfacet
  facet normal 0 0 1
    outer loop
      vertex -15 37.6 4.8
      vertex -93.8 38.4 4.8
      vertex -92.68 37.6 4.8
    endloop
  endfacet
  facet normal -0 0 1
    outer loop
      vertex 92.68 -37.6 4.8
      vertex 93.8 -38.4 4.8
      vertex 92.68 37.6 4.8
    endloop
  endfacet
  facet normal -0 0 1
    outer loop
      vertex 15 -37.6 4.8
      vertex 93.8 -38.4 4.8
      vertex 92.68 -37.6 4.8
    endloop
  endfacet
  facet normal -0 0 1
    outer loop
      vertex -15 -37.6 4.8
      vertex 93.8 -38.4 4.8
      vertex 15 -37.6 4.8
    endloop
  endfacet
  facet normal 0 0 1
    outer loop
      vertex -93.8 -38.4 4.8
      vertex -15 -37.6 4.8
      vertex -92.68 -37.6 4.8
    endloop
  endfacet
  facet normal 0 0 1
    outer loop
      vertex -15 -37.6 4.8
      vertex -93.8 -38.4 4.8
      vertex 93.8 -38.4 4.8
    endloop
  endfacet
  facet normal 0 0 1
    outer loop
      vertex -93.8 -38.4 4.8
      vertex -92.68 -37.6 4.8
      vertex -93.8 38.4 4.8
    endloop
  endfacet
  facet normal 0 0 -1
    outer loop
      vertex 93.8 -38.4 1.6
      vertex 92.68 -37.6 1.6
      vertex 93.8 38.4 1.6
    endloop
  endfacet
  facet normal 0 0 -1
    outer loop
      vertex 93.8 -38.4 1.6
      vertex 15 -37.6 1.6
      vertex 92.68 -37.6 1.6
    endloop
  endfacet
  facet normal 0 0 -1
    outer loop
      vertex 93.8 -38.4 1.6
      vertex -15 -37.6 1.6
      vertex 15 -37.6 1.6
    endloop
  endfacet
  facet normal 0 0 -1
    outer loop
      vertex -93.8 -38.4 1.6
      vertex -15 -37.6 1.6
      vertex 93.8 -38.4 1.6
    endloop
  endfacet
  facet normal -0 0 -1
    outer loop
      vertex -92.68 -37.6 1.6
      vertex -93.8 -38.4 1.6
      vertex -92.68 37.6 1.6
    endloop
  endfacet
  facet normal -0 0 -1
    outer loop
      vertex -15 -37.6 1.6
      vertex -93.8 -38.4 1.6
      vertex -92.68 -37.6 1.6
    endloop
  endfacet
  facet normal 0 0 -1
    outer loop
      vertex 92.68 37.6 1.6
      vertex 93.8 38.4 1.6
      vertex 92.68 -37.6 1.6
    endloop
  endfacet
  facet normal 0 0 -1
    outer loop
      vertex 15 37.6 1.6
      vertex 93.8 38.4 1.6
      vertex 92.68 37.6 1.6
    endloop
  endfacet
  facet normal 0 0 -1
    outer loop
      vertex -15 37.6 1.6
      vertex 93.8 38.4 1.6
      vertex 15 37.6 1.6
    endloop
  endfacet
  facet normal 0 0 -1
    outer loop
      vertex -93.8 38.4 1.6
      vertex -15 37.6 1.6
      vertex -92.68 37.6 1.6
    endloop
  endfacet
  facet normal 0 0 -1
    outer loop
      vertex -15 37.6 1.6
      vertex -93.8 38.4 1.6
      vertex 93.8 38.4 1.6
    endloop
  endfacet
  facet normal 0 0 -1
    outer loop
      vertex -93.8 38.4 1.6
      vertex -92.68 37.6 1.6
      vertex -93.8 -38.4 1.6
    endloop
  endfacet
  facet normal 0 -1 0
    outer loop
      vertex -92.68 37.6 1.6
      vertex -15 37.6 4.8
      vertex -92.68 37.6 4.8
    endloop
  endfacet
  facet normal 0 -1 -0
    outer loop
      vertex -15 37.6 4.8
      vertex -92.68 37.6 1.6
      vertex -15 37.6 1.6
    endloop
  endfacet
  facet normal 0 -1 0
    outer loop
      vertex 15 37.6 1.6
      vertex 92.68 37.6 4.8
      vertex 15 37.6 4.8
    endloop
  endfacet
  facet normal 0 -1 -0
    outer loop
      vertex 92.68 37.6 4.8
      vertex 15 37.6 1.6
      vertex 92.68 37.6 1.6
    endloop
  endfacet
  facet normal 0 -1 0
    outer loop
      vertex -15 37.6 1.6
      vertex 15 37.6 4.8
      vertex -15 37.6 4.8
    endloop
  endfacet
  facet normal 0 -1 -0
    outer loop
      vertex 15 37.6 4.8
      vertex -15 37.6 1.6
      vertex 15 37.6 1.6
    endloop
  endfacet
  facet normal 0 -1 0
    outer loop
      vertex -15 37.6 -0.799999
      vertex 15 37.6 0.799999
      vertex -15 37.6 0.799999
    endloop
  endfacet
  facet normal 0 -1 -0
    outer loop
      vertex 15 37.6 0.799999
      vertex -15 37.6 -0.799999
      vertex 15 37.6 -0.799999
    endloop
  endfacet
  facet normal 0 1 -0
    outer loop
      vertex -15 -37.6 1.6
      vertex -92.68 -37.6 4.8
      vertex -15 -37.6 4.8
    endloop
  endfacet
  facet normal 0 1 0
    outer loop
      vertex -92.68 -37.6 4.8
      vertex -15 -37.6 1.6
      vertex -92.68 -37.6 1.6
    endloop
  endfacet
  facet normal 0 1 -0
    outer loop
      vertex 92.68 -37.6 1.6
      vertex 15 -37.6 4.8
      vertex 92.68 -37.6 4.8
    endloop
  endfacet
  facet normal 0 1 0
    outer loop
      vertex 15 -37.6 4.8
      vertex 92.68 -37.6 1.6
      vertex 15 -37.6 1.6
    endloop
  endfacet
  facet normal 0 1 -0
    outer loop
      vertex 15 -37.6 1.6
      vertex -15 -37.6 4.8
      vertex 15 -37.6 4.8
    endloop
  endfacet
  facet normal 0 1 0
    outer loop
      vertex -15 -37.6 4.8
      vertex 15 -37.6 1.6
      vertex -15 -37.6 1.6
    endloop
  endfacet
  facet normal 0 1 -0
    outer loop
      vertex 15 -37.6 -0.799999
      vertex -15 -37.6 0.799999
      vertex 15 -37.6 0.799999
    endloop
  endfacet
  facet normal 0 1 0
    outer loop
      vertex -15 -37.6 0.799999
      vertex 15 -37.6 -0.799999
      vertex -15 -37.6 -0.799999
    endloop
  endfacet
  facet normal 1 -0 0
    outer loop
      vertex -92.68 -37.6 4.8
      vertex -92.68 37.6 1.6
      vertex -92.68 37.6 4.8
    endloop
  endfacet
  facet normal 1 0 0
    outer loop
      vertex -92.68 37.6 1.6
      vertex -92.68 -37.6 4.8
      vertex -92.68 -37.6 1.6
    endloop
  endfacet
  facet normal -1 0 0
    outer loop
      vertex 92.68 -37.6 1.6
      vertex 92.68 37.6 4.8
      vertex 92.68 37.6 1.6
    endloop
  endfacet
  facet normal -1 -0 0
    outer loop
      vertex 92.68 37.6 4.8
      vertex 92.68 -37.6 1.6
      vertex 92.68 -37.6 4.8
    endloop
  endfacet
  facet normal -0.406718 0 0.913554
    outer loop
      vertex 4.63525 40 34.7342
      vertex 7.5 38.4 36.0096
      vertex 7.5 40 36.0096
    endloop
  endfacet
  facet normal -0.406718 0 0.913554
    outer loop
      vertex 7.5 38.4 36.0096
      vertex 4.63525 40 34.7342
      vertex 4.63525 38.4 34.7342
    endloop
  endfacet
  facet normal -0.406718 0 0.913554
    outer loop
      vertex 4.63525 -38.4 34.7342
      vertex 7.5 -40 36.0096
      vertex 7.5 -38.4 36.0096
    endloop
  endfacet
  facet normal -0.406718 0 0.913554
    outer loop
      vertex 7.5 -40 36.0096
      vertex 4.63525 -38.4 34.7342
      vertex 4.63525 -40 34.7342
    endloop
  endfacet
  facet normal -0 0 1
    outer loop
      vertex -1.56793 40 34.0822
      vertex 1.56793 38.4 34.0822
      vertex 1.56793 40 34.0822
    endloop
  endfacet
  facet normal 0 0 1
    outer loop
      vertex 1.56793 38.4 34.0822
      vertex -1.56793 40 34.0822
      vertex -1.56793 38.4 34.0822
    endloop
  endfacet
  facet normal -0 0 1
    outer loop
      vertex -1.56793 -38.4 34.0822
      vertex 1.56793 -40 34.0822
      vertex 1.56793 -38.4 34.0822
    endloop
  endfacet
  facet normal 0 0 1
    outer loop
      vertex 1.56793 -40 34.0822
      vertex -1.56793 -38.4 34.0822
      vertex -1.56793 -40 34.0822
    endloop
  endfacet
  facet normal -0.743145 0 0.66913
    outer loop
      vertex 10.037 38.4 37.8528
      vertex 12.1353 40 40.1832
      vertex 10.037 40 37.8528
    endloop
  endfacet
  facet normal -0.743145 0 0.66913
    outer loop
      vertex 12.1353 40 40.1832
      vertex 10.037 38.4 37.8528
      vertex 12.1353 38.4 40.1832
    endloop
  endfacet
  facet normal -0.743145 0 0.66913
    outer loop
      vertex 10.037 -40 37.8528
      vertex 12.1353 -38.4 40.1832
      vertex 10.037 -38.4 37.8528
    endloop
  endfacet
  facet normal -0.743145 0 0.66913
    outer loop
      vertex 12.1353 -38.4 40.1832
      vertex 10.037 -40 37.8528
      vertex 12.1353 -40 40.1832
    endloop
  endfacet
  facet normal -0.994522 0 0.104526
    outer loop
      vertex 14.6722 38.4 45.8813
      vertex 14.9159 40 48.2
      vertex 14.6722 40 45.8813
    endloop
  endfacet
  facet normal -0.994522 0 0.104526
    outer loop
      vertex 14.9159 40 48.2
      vertex 14.6722 38.4 45.8813
      vertex 14.9159 38.4 48.2
    endloop
  endfacet
  facet normal -0.994522 0 0.104526
    outer loop
      vertex 14.6722 -40 45.8813
      vertex 14.9159 -38.4 48.2
      vertex 14.6722 -38.4 45.8813
    endloop
  endfacet
  facet normal -0.994522 0 0.104526
    outer loop
      vertex 14.9159 -38.4 48.2
      vertex 14.6722 -40 45.8813
      vertex 14.9159 -40 48.2
    endloop
  endfacet
  facet normal -0.95106 0 0.309005
    outer loop
      vertex 13.7032 38.4 42.8989
      vertex 14.6722 40 45.8813
      vertex 13.7032 40 42.8989
    endloop
  endfacet
  facet normal -0.95106 0 0.309005
    outer loop
      vertex 14.6722 40 45.8813
      vertex 13.7032 38.4 42.8989
      vertex 14.6722 38.4 45.8813
    endloop
  endfacet
  facet normal -0.95106 0 0.309005
    outer loop
      vertex 13.7032 -40 42.8989
      vertex 14.6722 -38.4 45.8813
      vertex 13.7032 -38.4 42.8989
    endloop
  endfacet
  facet normal -0.95106 0 0.309005
    outer loop
      vertex 14.6722 -38.4 45.8813
      vertex 13.7032 -40 42.8989
      vertex 14.6722 -40 45.8813
    endloop
  endfacet
  facet normal 0.406718 0 0.913554
    outer loop
      vertex -7.5 40 36.0096
      vertex -4.63525 38.4 34.7342
      vertex -4.63525 40 34.7342
    endloop
  endfacet
  facet normal 0.406718 0 0.913554
    outer loop
      vertex -4.63525 38.4 34.7342
      vertex -7.5 40 36.0096
      vertex -7.5 38.4 36.0096
    endloop
  endfacet
  facet normal 0.406718 0 0.913554
    outer loop
      vertex -7.5 -38.4 36.0096
      vertex -4.63525 -40 34.7342
      vertex -4.63525 -38.4 34.7342
    endloop
  endfacet
  facet normal 0.406718 0 0.913554
    outer loop
      vertex -4.63525 -40 34.7342
      vertex -7.5 -38.4 36.0096
      vertex -7.5 -40 36.0096
    endloop
  endfacet
  facet normal 0.95106 -0 0.309005
    outer loop
      vertex -14.6722 38.4 45.8813
      vertex -13.7032 40 42.8989
      vertex -14.6722 40 45.8813
    endloop
  endfacet
  facet normal 0.95106 0 0.309005
    outer loop
      vertex -13.7032 40 42.8989
      vertex -14.6722 38.4 45.8813
      vertex -13.7032 38.4 42.8989
    endloop
  endfacet
  facet normal 0.95106 -0 0.309005
    outer loop
      vertex -14.6722 -40 45.8813
      vertex -13.7032 -38.4 42.8989
      vertex -14.6722 -38.4 45.8813
    endloop
  endfacet
  facet normal 0.95106 0 0.309005
    outer loop
      vertex -13.7032 -38.4 42.8989
      vertex -14.6722 -40 45.8813
      vertex -13.7032 -40 42.8989
    endloop
  endfacet
  facet normal 0.207918 0 0.978146
    outer loop
      vertex -4.63525 40 34.7342
      vertex -1.56793 38.4 34.0822
      vertex -1.56793 40 34.0822
    endloop
  endfacet
  facet normal 0.207918 0 0.978146
    outer loop
      vertex -1.56793 38.4 34.0822
      vertex -4.63525 40 34.7342
      vertex -4.63525 38.4 34.7342
    endloop
  endfacet
  facet normal 0.207918 0 0.978146
    outer loop
      vertex -4.63525 -38.4 34.7342
      vertex -1.56793 -40 34.0822
      vertex -1.56793 -38.4 34.0822
    endloop
  endfacet
  facet normal 0.207918 0 0.978146
    outer loop
      vertex -1.56793 -40 34.0822
      vertex -4.63525 -38.4 34.7342
      vertex -4.63525 -40 34.7342
    endloop
  endfacet
  facet normal 0.587777 0 0.809023
    outer loop
      vertex -10.037 40 37.8528
      vertex -7.5 38.4 36.0096
      vertex -7.5 40 36.0096
    endloop
  endfacet
  facet normal 0.587777 0 0.809023
    outer loop
      vertex -7.5 38.4 36.0096
      vertex -10.037 40 37.8528
      vertex -10.037 38.4 37.8528
    endloop
  endfacet
  facet normal 0.587777 0 0.809023
    outer loop
      vertex -10.037 -38.4 37.8528
      vertex -7.5 -40 36.0096
      vertex -7.5 -38.4 36.0096
    endloop
  endfacet
  facet normal 0.587777 0 0.809023
    outer loop
      vertex -7.5 -40 36.0096
      vertex -10.037 -38.4 37.8528
      vertex -10.037 -40 37.8528
    endloop
  endfacet
  facet normal 0.743145 -0 0.66913
    outer loop
      vertex -12.1353 38.4 40.1832
      vertex -10.037 40 37.8528
      vertex -12.1353 40 40.1832
    endloop
  endfacet
  facet normal 0.743145 0 0.66913
    outer loop
      vertex -10.037 40 37.8528
      vertex -12.1353 38.4 40.1832
      vertex -10.037 38.4 37.8528
    endloop
  endfacet
  facet normal 0.743145 -0 0.66913
    outer loop
      vertex -12.1353 -40 40.1832
      vertex -10.037 -38.4 37.8528
      vertex -12.1353 -38.4 40.1832
    endloop
  endfacet
  facet normal 0.743145 0 0.66913
    outer loop
      vertex -10.037 -38.4 37.8528
      vertex -12.1353 -40 40.1832
      vertex -10.037 -40 37.8528
    endloop
  endfacet
  facet normal -0.207918 0 0.978146
    outer loop
      vertex 1.56793 40 34.0822
      vertex 4.63525 38.4 34.7342
      vertex 4.63525 40 34.7342
    endloop
  endfacet
  facet normal -0.207918 0 0.978146
    outer loop
      vertex 4.63525 38.4 34.7342
      vertex 1.56793 40 34.0822
      vertex 1.56793 38.4 34.0822
    endloop
  endfacet
  facet normal -0.207918 0 0.978146
    outer loop
      vertex 1.56793 -38.4 34.0822
      vertex 4.63525 -40 34.7342
      vertex 4.63525 -38.4 34.7342
    endloop
  endfacet
  facet normal -0.207918 0 0.978146
    outer loop
      vertex 4.63525 -40 34.7342
      vertex 1.56793 -38.4 34.0822
      vertex 1.56793 -40 34.0822
    endloop
  endfacet
  facet normal -0.587777 0 0.809023
    outer loop
      vertex 7.5 40 36.0096
      vertex 10.037 38.4 37.8528
      vertex 10.037 40 37.8528
    endloop
  endfacet
  facet normal -0.587777 0 0.809023
    outer loop
      vertex 10.037 38.4 37.8528
      vertex 7.5 40 36.0096
      vertex 7.5 38.4 36.0096
    endloop
  endfacet
  facet normal -0.587777 0 0.809023
    outer loop
      vertex 7.5 -38.4 36.0096
      vertex 10.037 -40 37.8528
      vertex 10.037 -38.4 37.8528
    endloop
  endfacet
  facet normal -0.587777 0 0.809023
    outer loop
      vertex 10.037 -40 37.8528
      vertex 7.5 -38.4 36.0096
      vertex 7.5 -40 36.0096
    endloop
  endfacet
  facet normal -0.866027 0 0.499998
    outer loop
      vertex 12.1353 38.4 40.1832
      vertex 13.7032 40 42.8989
      vertex 12.1353 40 40.1832
    endloop
  endfacet
  facet normal -0.866027 0 0.499998
    outer loop
      vertex 13.7032 40 42.8989
      vertex 12.1353 38.4 40.1832
      vertex 13.7032 38.4 42.8989
    endloop
  endfacet
  facet normal -0.866027 0 0.499998
    outer loop
      vertex 12.1353 -40 40.1832
      vertex 13.7032 -38.4 42.8989
      vertex 12.1353 -38.4 40.1832
    endloop
  endfacet
  facet normal -0.866027 0 0.499998
    outer loop
      vertex 13.7032 -38.4 42.8989
      vertex 12.1353 -40 40.1832
      vertex 13.7032 -40 42.8989
    endloop
  endfacet
  facet normal 0.866027 -0 0.499998
    outer loop
      vertex -13.7032 38.4 42.8989
      vertex -12.1353 40 40.1832
      vertex -13.7032 40 42.8989
    endloop
  endfacet
  facet normal 0.866027 0 0.499998
    outer loop
      vertex -12.1353 40 40.1832
      vertex -13.7032 38.4 42.8989
      vertex -12.1353 38.4 40.1832
    endloop
  endfacet
  facet normal 0.866027 -0 0.499998
    outer loop
      vertex -13.7032 -40 42.8989
      vertex -12.1353 -38.4 40.1832
      vertex -13.7032 -38.4 42.8989
    endloop
  endfacet
  facet normal 0.866027 0 0.499998
    outer loop
      vertex -12.1353 -38.4 40.1832
      vertex -13.7032 -40 42.8989
      vertex -12.1353 -40 40.1832
    endloop
  endfacet
  facet normal 0.994522 -0 0.104526
    outer loop
      vertex -14.9159 38.4 48.2
      vertex -14.6722 40 45.8813
      vertex -14.9159 40 48.2
    endloop
  endfacet
  facet normal 0.994522 0 0.104526
    outer loop
      vertex -14.6722 40 45.8813
      vertex -14.9159 38.4 48.2
      vertex -14.6722 38.4 45.8813
    endloop
  endfacet
  facet normal 0.994522 -0 0.104526
    outer loop
      vertex -14.9159 -40 48.2
      vertex -14.6722 -38.4 45.8813
      vertex -14.9159 -38.4 48.2
    endloop
  endfacet
  facet normal 0.994522 0 0.104526
    outer loop
      vertex -14.6722 -38.4 45.8813
      vertex -14.9159 -40 48.2
      vertex -14.6722 -40 45.8813
    endloop
  endfacet
  facet normal -1 0 0
    outer loop
      vertex 15 -37.6 -0.799999
      vertex 15 -31.3 0.799999
      vertex 15 -31.3 -0.799999
    endloop
  endfacet
  facet normal -1 -0 0
    outer loop
      vertex 15 -31.3 0.799999
      vertex 15 -37.6 -0.799999
      vertex 15 -37.6 0.799999
    endloop
  endfacet
  facet normal 1 -0 0
    outer loop
      vertex -15 -37.6 0.799999
      vertex -15 -31.3 -0.799999
      vertex -15 -31.3 0.799999
    endloop
  endfacet
  facet normal 1 0 0
    outer loop
      vertex -15 -31.3 -0.799999
      vertex -15 -37.6 0.799999
      vertex -15 -37.6 -0.799999
    endloop
  endfacet
  facet normal 0 -1 0
    outer loop
      vertex -15 -31.3 -0.799999
      vertex 15 -31.3 0.799999
      vertex -15 -31.3 0.799999
    endloop
  endfacet
  facet normal 0 -1 -0
    outer loop
      vertex 15 -31.3 0.799999
      vertex -15 -31.3 -0.799999
      vertex 15 -31.3 -0.799999
    endloop
  endfacet
  facet normal -1 0 0
    outer loop
      vertex 15 31.3 -0.799999
      vertex 15 37.6 0.799999
      vertex 15 37.6 -0.799999
    endloop
  endfacet
  facet normal -1 -0 0
    outer loop
      vertex 15 37.6 0.799999
      vertex 15 31.3 -0.799999
      vertex 15 31.3 0.799999
    endloop
  endfacet
  facet normal 1 -0 0
    outer loop
      vertex -15 31.3 0.799999
      vertex -15 37.6 -0.799999
      vertex -15 37.6 0.799999
    endloop
  endfacet
  facet normal 1 0 0
    outer loop
      vertex -15 37.6 -0.799999
      vertex -15 31.3 0.799999
      vertex -15 31.3 -0.799999
    endloop
  endfacet
  facet normal 0 1 -0
    outer loop
      vertex 15 31.3 -0.799999
      vertex -15 31.3 0.799999
      vertex 15 31.3 0.799999
    endloop
  endfacet
  facet normal 0 1 0
    outer loop
      vertex -15 31.3 0.799999
      vertex 15 31.3 -0.799999
      vertex -15 31.3 -0.799999
    endloop
  endfacet
endsolid OpenSCAD_Model
