solid OpenSCAD_Model
  facet normal -0 0 1
    outer loop
      vertex -15 29.5 1
      vertex 15 -29.5 1
      vertex 15 29.5 1
    endloop
  endfacet
  facet normal 0 0 1
    outer loop
      vertex 15 -29.5 1
      vertex -15 29.5 1
      vertex -15 -29.5 1
    endloop
  endfacet
  facet normal 0 0 1
    outer loop
      vertex 15 29.5 1
      vertex 92.5 37.5 1
      vertex 15 36.5 1
    endloop
  endfacet
  facet normal 0 0 1
    outer loop
      vertex 92.5 37.5 1
      vertex -15 36.5 1
      vertex 15 36.5 1
    endloop
  endfacet
  facet normal 0 0 1
    outer loop
      vertex -92.5 37.5 1
      vertex -15 29.5 1
      vertex -15 36.5 1
    endloop
  endfacet
  facet normal 0 0 1
    outer loop
      vertex -15 29.5 1
      vertex -92.5 37.5 1
      vertex -15 -29.5 1
    endloop
  endfacet
  facet normal 0 0 1
    outer loop
      vertex -92.5 -37.5 1
      vertex -15 -29.5 1
      vertex -92.5 37.5 1
    endloop
  endfacet
  facet normal -0 0 1
    outer loop
      vertex -92.5 37.5 1
      vertex -15 36.5 1
      vertex 92.5 37.5 1
    endloop
  endfacet
  facet normal 0 0 1
    outer loop
      vertex 92.5 37.5 1
      vertex 15 29.5 1
      vertex 92.5 -37.5 1
    endloop
  endfacet
  facet normal -0 0 1
    outer loop
      vertex 15 -29.5 1
      vertex 92.5 -37.5 1
      vertex 15 29.5 1
    endloop
  endfacet
  facet normal -0 0 1
    outer loop
      vertex 15 -36.5 1
      vertex 92.5 -37.5 1
      vertex 15 -29.5 1
    endloop
  endfacet
  facet normal -0 0 1
    outer loop
      vertex -15 -36.5 1
      vertex 92.5 -37.5 1
      vertex 15 -36.5 1
    endloop
  endfacet
  facet normal 0 0 1
    outer loop
      vertex -15 -36.5 1
      vertex -92.5 -37.5 1
      vertex 92.5 -37.5 1
    endloop
  endfacet
  facet normal 0 0 1
    outer loop
      vertex -15 -29.5 1
      vertex -92.5 -37.5 1
      vertex -15 -36.5 1
    endloop
  endfacet
  facet normal 0 0 -1
    outer loop
      vertex -15 -29.5 -1
      vertex 15 29.5 -1
      vertex 15 -29.5 -1
    endloop
  endfacet
  facet normal -0 0 -1
    outer loop
      vertex 15 29.5 -1
      vertex -15 -29.5 -1
      vertex -15 29.5 -1
    endloop
  endfacet
  facet normal 0 0 -1
    outer loop
      vertex 15 -29.5 -1
      vertex 94.5 -39.5 -1
      vertex 15 -36.5 -1
    endloop
  endfacet
  facet normal 0 0 -1
    outer loop
      vertex 94.5 -39.5 -1
      vertex -15 -36.5 -1
      vertex 15 -36.5 -1
    endloop
  endfacet
  facet normal 0 0 -1
    outer loop
      vertex -94.5 -39.5 -1
      vertex -15 -29.5 -1
      vertex -15 -36.5 -1
    endloop
  endfacet
  facet normal -0 0 -1
    outer loop
      vertex -15 -29.5 -1
      vertex -94.5 -39.5 -1
      vertex -15 29.5 -1
    endloop
  endfacet
  facet normal 0 0 -1
    outer loop
      vertex -94.5 39.5 -1
      vertex -15 29.5 -1
      vertex -94.5 -39.5 -1
    endloop
  endfacet
  facet normal 0 0 -1
    outer loop
      vertex -94.5 -39.5 -1
      vertex -15 -36.5 -1
      vertex 94.5 -39.5 -1
    endloop
  endfacet
  facet normal 0 0 -1
    outer loop
      vertex 94.5 -39.5 -1
      vertex 15 -29.5 -1
      vertex 94.5 39.5 -1
    endloop
  endfacet
  facet normal 0 0 -1
    outer loop
      vertex 15 29.5 -1
      vertex 94.5 39.5 -1
      vertex 15 -29.5 -1
    endloop
  endfacet
  facet normal 0 0 -1
    outer loop
      vertex 15 36.5 -1
      vertex 94.5 39.5 -1
      vertex 15 29.5 -1
    endloop
  endfacet
  facet normal 0 0 -1
    outer loop
      vertex -15 36.5 -1
      vertex 94.5 39.5 -1
      vertex 15 36.5 -1
    endloop
  endfacet
  facet normal 0 0 -1
    outer loop
      vertex -15 36.5 -1
      vertex -94.5 39.5 -1
      vertex 94.5 39.5 -1
    endloop
  endfacet
  facet normal 0 0 -1
    outer loop
      vertex -15 29.5 -1
      vertex -94.5 39.5 -1
      vertex -15 36.5 -1
    endloop
  endfacet
  facet normal 0 0 1
    outer loop
      vertex 94.5 39.5 41
      vertex 92.5 37.5 41
      vertex 94.5 -39.5 41
    endloop
  endfacet
  facet normal -0 0 1
    outer loop
      vertex 14.8949 39.5 41
      vertex 92.5 37.5 41
      vertex 94.5 39.5 41
    endloop
  endfacet
  facet normal 0 0 1
    outer loop
      vertex 92.5 37.5 41
      vertex 14.8949 39.5 41
      vertex 14.8949 37.5 41
    endloop
  endfacet
  facet normal -0 0 1
    outer loop
      vertex 92.5 -37.5 41
      vertex 94.5 -39.5 41
      vertex 92.5 37.5 41
    endloop
  endfacet
  facet normal 0 0 1
    outer loop
      vertex 14.8949 -39.5 41
      vertex 92.5 -37.5 41
      vertex 14.8949 -37.5 41
    endloop
  endfacet
  facet normal 0 0 1
    outer loop
      vertex 92.5 -37.5 41
      vertex 14.8949 -39.5 41
      vertex 94.5 -39.5 41
    endloop
  endfacet
  facet normal 0 0 1
    outer loop
      vertex -14.8949 39.5 41
      vertex -92.5 37.5 41
      vertex -14.8949 37.5 41
    endloop
  endfacet
  facet normal 0 0 1
    outer loop
      vertex -92.5 37.5 41
      vertex -94.5 39.5 41
      vertex -92.5 -37.5 41
    endloop
  endfacet
  facet normal -0 0 1
    outer loop
      vertex -94.5 39.5 41
      vertex -92.5 37.5 41
      vertex -14.8949 39.5 41
    endloop
  endfacet
  facet normal -0 0 1
    outer loop
      vertex -92.5 -37.5 41
      vertex -14.8949 -39.5 41
      vertex -14.8949 -37.5 41
    endloop
  endfacet
  facet normal 0 0 1
    outer loop
      vertex -92.5 -37.5 41
      vertex -94.5 -39.5 41
      vertex -14.8949 -39.5 41
    endloop
  endfacet
  facet normal 0 0 1
    outer loop
      vertex -94.5 -39.5 41
      vertex -92.5 -37.5 41
      vertex -94.5 39.5 41
    endloop
  endfacet
  facet normal 0 1 0
    outer loop
      vertex 94.5 39.5 41
      vertex 14.6722 39.5 38.8813
      vertex 14.8949 39.5 41
    endloop
  endfacet
  facet normal 0 1 0
    outer loop
      vertex 94.5 39.5 41
      vertex 13.7032 39.5 35.8989
      vertex 14.6722 39.5 38.8813
    endloop
  endfacet
  facet normal 0 1 -0
    outer loop
      vertex 94.5 39.5 -1
      vertex 13.7032 39.5 35.8989
      vertex 94.5 39.5 41
    endloop
  endfacet
  facet normal 0 1 0
    outer loop
      vertex 13.7032 39.5 35.8989
      vertex 94.5 39.5 -1
      vertex 12.1353 39.5 33.1832
    endloop
  endfacet
  facet normal 0 1 0
    outer loop
      vertex 12.1353 39.5 33.1832
      vertex 94.5 39.5 -1
      vertex 10.037 39.5 30.8528
    endloop
  endfacet
  facet normal 0 1 0
    outer loop
      vertex 10.037 39.5 30.8528
      vertex 94.5 39.5 -1
      vertex 7.5 39.5 29.0096
    endloop
  endfacet
  facet normal 0 1 0
    outer loop
      vertex 7.5 39.5 29.0096
      vertex 94.5 39.5 -1
      vertex 4.63525 39.5 27.7342
    endloop
  endfacet
  facet normal 0 1 0
    outer loop
      vertex 1.56793 39.5 27.0822
      vertex 94.5 39.5 -1
      vertex -1.56793 39.5 27.0822
    endloop
  endfacet
  facet normal 0 1 0
    outer loop
      vertex 4.63525 39.5 27.7342
      vertex 94.5 39.5 -1
      vertex 1.56793 39.5 27.0822
    endloop
  endfacet
  facet normal 0 1 0
    outer loop
      vertex -14.6722 39.5 38.8813
      vertex -94.5 39.5 41
      vertex -14.8949 39.5 41
    endloop
  endfacet
  facet normal 0 1 0
    outer loop
      vertex -13.7032 39.5 35.8989
      vertex -94.5 39.5 41
      vertex -14.6722 39.5 38.8813
    endloop
  endfacet
  facet normal 0 1 0
    outer loop
      vertex -94.5 39.5 -1
      vertex -13.7032 39.5 35.8989
      vertex -12.1353 39.5 33.1832
    endloop
  endfacet
  facet normal 0 1 0
    outer loop
      vertex -94.5 39.5 -1
      vertex -12.1353 39.5 33.1832
      vertex -10.037 39.5 30.8528
    endloop
  endfacet
  facet normal 0 1 0
    outer loop
      vertex -94.5 39.5 -1
      vertex -10.037 39.5 30.8528
      vertex -7.5 39.5 29.0096
    endloop
  endfacet
  facet normal 0 1 0
    outer loop
      vertex -94.5 39.5 -1
      vertex -7.5 39.5 29.0096
      vertex -4.63525 39.5 27.7342
    endloop
  endfacet
  facet normal 0 1 0
    outer loop
      vertex -94.5 39.5 -1
      vertex -4.63525 39.5 27.7342
      vertex -1.56793 39.5 27.0822
    endloop
  endfacet
  facet normal 0 1 0
    outer loop
      vertex -94.5 39.5 -1
      vertex -1.56793 39.5 27.0822
      vertex 94.5 39.5 -1
    endloop
  endfacet
  facet normal 0 1 0
    outer loop
      vertex -13.7032 39.5 35.8989
      vertex -94.5 39.5 -1
      vertex -94.5 39.5 41
    endloop
  endfacet
  facet normal 0 -1 0
    outer loop
      vertex -92.5 37.5 41
      vertex -14.6722 37.5 38.8813
      vertex -14.8949 37.5 41
    endloop
  endfacet
  facet normal 0 -1 0
    outer loop
      vertex -92.5 37.5 41
      vertex -13.7032 37.5 35.8989
      vertex -14.6722 37.5 38.8813
    endloop
  endfacet
  facet normal 0 -1 0
    outer loop
      vertex -92.5 37.5 1
      vertex -13.7032 37.5 35.8989
      vertex -92.5 37.5 41
    endloop
  endfacet
  facet normal 0 -1 -0
    outer loop
      vertex -13.7032 37.5 35.8989
      vertex -92.5 37.5 1
      vertex -12.1353 37.5 33.1832
    endloop
  endfacet
  facet normal 0 -1 -0
    outer loop
      vertex -12.1353 37.5 33.1832
      vertex -92.5 37.5 1
      vertex -10.037 37.5 30.8528
    endloop
  endfacet
  facet normal 0 -1 -0
    outer loop
      vertex -10.037 37.5 30.8528
      vertex -92.5 37.5 1
      vertex -7.5 37.5 29.0096
    endloop
  endfacet
  facet normal 0 -1 -0
    outer loop
      vertex -7.5 37.5 29.0096
      vertex -92.5 37.5 1
      vertex -4.63525 37.5 27.7342
    endloop
  endfacet
  facet normal 0 -1 -0
    outer loop
      vertex -1.56793 37.5 27.0822
      vertex -92.5 37.5 1
      vertex 1.56793 37.5 27.0822
    endloop
  endfacet
  facet normal 0 -1 -0
    outer loop
      vertex -4.63525 37.5 27.7342
      vertex -92.5 37.5 1
      vertex -1.56793 37.5 27.0822
    endloop
  endfacet
  facet normal 0 -1 0
    outer loop
      vertex 14.6722 37.5 38.8813
      vertex 92.5 37.5 41
      vertex 14.8949 37.5 41
    endloop
  endfacet
  facet normal 0 -1 0
    outer loop
      vertex 13.7032 37.5 35.8989
      vertex 92.5 37.5 41
      vertex 14.6722 37.5 38.8813
    endloop
  endfacet
  facet normal 0 -1 0
    outer loop
      vertex 92.5 37.5 1
      vertex 13.7032 37.5 35.8989
      vertex 12.1353 37.5 33.1832
    endloop
  endfacet
  facet normal 0 -1 0
    outer loop
      vertex 92.5 37.5 1
      vertex 12.1353 37.5 33.1832
      vertex 10.037 37.5 30.8528
    endloop
  endfacet
  facet normal 0 -1 0
    outer loop
      vertex 92.5 37.5 1
      vertex 10.037 37.5 30.8528
      vertex 7.5 37.5 29.0096
    endloop
  endfacet
  facet normal 0 -1 0
    outer loop
      vertex 92.5 37.5 1
      vertex 7.5 37.5 29.0096
      vertex 4.63525 37.5 27.7342
    endloop
  endfacet
  facet normal 0 -1 0
    outer loop
      vertex 92.5 37.5 1
      vertex 4.63525 37.5 27.7342
      vertex 1.56793 37.5 27.0822
    endloop
  endfacet
  facet normal 0 -1 0
    outer loop
      vertex 92.5 37.5 1
      vertex 1.56793 37.5 27.0822
      vertex -92.5 37.5 1
    endloop
  endfacet
  facet normal 0 -1 0
    outer loop
      vertex 13.7032 37.5 35.8989
      vertex 92.5 37.5 1
      vertex 92.5 37.5 41
    endloop
  endfacet
  facet normal 0 1 0
    outer loop
      vertex 92.5 -37.5 41
      vertex 14.6722 -37.5 38.8813
      vertex 14.8949 -37.5 41
    endloop
  endfacet
  facet normal 0 1 0
    outer loop
      vertex 92.5 -37.5 41
      vertex 13.7032 -37.5 35.8989
      vertex 14.6722 -37.5 38.8813
    endloop
  endfacet
  facet normal 0 1 -0
    outer loop
      vertex 92.5 -37.5 1
      vertex 13.7032 -37.5 35.8989
      vertex 92.5 -37.5 41
    endloop
  endfacet
  facet normal 0 1 0
    outer loop
      vertex 13.7032 -37.5 35.8989
      vertex 92.5 -37.5 1
      vertex 12.1353 -37.5 33.1832
    endloop
  endfacet
  facet normal 0 1 0
    outer loop
      vertex 12.1353 -37.5 33.1832
      vertex 92.5 -37.5 1
      vertex 10.037 -37.5 30.8528
    endloop
  endfacet
  facet normal 0 1 0
    outer loop
      vertex 10.037 -37.5 30.8528
      vertex 92.5 -37.5 1
      vertex 7.5 -37.5 29.0096
    endloop
  endfacet
  facet normal 0 1 0
    outer loop
      vertex 7.5 -37.5 29.0096
      vertex 92.5 -37.5 1
      vertex 4.63525 -37.5 27.7342
    endloop
  endfacet
  facet normal 0 1 0
    outer loop
      vertex 1.56793 -37.5 27.0822
      vertex 92.5 -37.5 1
      vertex -1.56793 -37.5 27.0822
    endloop
  endfacet
  facet normal 0 1 0
    outer loop
      vertex 4.63525 -37.5 27.7342
      vertex 92.5 -37.5 1
      vertex 1.56793 -37.5 27.0822
    endloop
  endfacet
  facet normal 0 1 0
    outer loop
      vertex -14.6722 -37.5 38.8813
      vertex -92.5 -37.5 41
      vertex -14.8949 -37.5 41
    endloop
  endfacet
  facet normal 0 1 0
    outer loop
      vertex -13.7032 -37.5 35.8989
      vertex -92.5 -37.5 41
      vertex -14.6722 -37.5 38.8813
    endloop
  endfacet
  facet normal 0 1 0
    outer loop
      vertex -92.5 -37.5 1
      vertex -13.7032 -37.5 35.8989
      vertex -12.1353 -37.5 33.1832
    endloop
  endfacet
  facet normal 0 1 0
    outer loop
      vertex -92.5 -37.5 1
      vertex -12.1353 -37.5 33.1832
      vertex -10.037 -37.5 30.8528
    endloop
  endfacet
  facet normal 0 1 0
    outer loop
      vertex -92.5 -37.5 1
      vertex -10.037 -37.5 30.8528
      vertex -7.5 -37.5 29.0096
    endloop
  endfacet
  facet normal 0 1 0
    outer loop
      vertex -92.5 -37.5 1
      vertex -7.5 -37.5 29.0096
      vertex -4.63525 -37.5 27.7342
    endloop
  endfacet
  facet normal 0 1 0
    outer loop
      vertex -92.5 -37.5 1
      vertex -4.63525 -37.5 27.7342
      vertex -1.56793 -37.5 27.0822
    endloop
  endfacet
  facet normal 0 1 0
    outer loop
      vertex -92.5 -37.5 1
      vertex -1.56793 -37.5 27.0822
      vertex 92.5 -37.5 1
    endloop
  endfacet
  facet normal 0 1 0
    outer loop
      vertex -13.7032 -37.5 35.8989
      vertex -92.5 -37.5 1
      vertex -92.5 -37.5 41
    endloop
  endfacet
  facet normal 0 -1 0
    outer loop
      vertex -94.5 -39.5 41
      vertex -14.6722 -39.5 38.8813
      vertex -14.8949 -39.5 41
    endloop
  endfacet
  facet normal 0 -1 0
    outer loop
      vertex -94.5 -39.5 41
      vertex -13.7032 -39.5 35.8989
      vertex -14.6722 -39.5 38.8813
    endloop
  endfacet
  facet normal 0 -1 0
    outer loop
      vertex -94.5 -39.5 -1
      vertex -13.7032 -39.5 35.8989
      vertex -94.5 -39.5 41
    endloop
  endfacet
  facet normal 0 -1 -0
    outer loop
      vertex -13.7032 -39.5 35.8989
      vertex -94.5 -39.5 -1
      vertex -12.1353 -39.5 33.1832
    endloop
  endfacet
  facet normal 0 -1 -0
    outer loop
      vertex -12.1353 -39.5 33.1832
      vertex -94.5 -39.5 -1
      vertex -10.037 -39.5 30.8528
    endloop
  endfacet
  facet normal 0 -1 -0
    outer loop
      vertex -10.037 -39.5 30.8528
      vertex -94.5 -39.5 -1
      vertex -7.5 -39.5 29.0096
    endloop
  endfacet
  facet normal 0 -1 -0
    outer loop
      vertex -7.5 -39.5 29.0096
      vertex -94.5 -39.5 -1
      vertex -4.63525 -39.5 27.7342
    endloop
  endfacet
  facet normal 0 -1 -0
    outer loop
      vertex -1.56793 -39.5 27.0822
      vertex -94.5 -39.5 -1
      vertex 1.56793 -39.5 27.0822
    endloop
  endfacet
  facet normal 0 -1 -0
    outer loop
      vertex -4.63525 -39.5 27.7342
      vertex -94.5 -39.5 -1
      vertex -1.56793 -39.5 27.0822
    endloop
  endfacet
  facet normal 0 -1 0
    outer loop
      vertex 14.6722 -39.5 38.8813
      vertex 94.5 -39.5 41
      vertex 14.8949 -39.5 41
    endloop
  endfacet
  facet normal 0 -1 0
    outer loop
      vertex 13.7032 -39.5 35.8989
      vertex 94.5 -39.5 41
      vertex 14.6722 -39.5 38.8813
    endloop
  endfacet
  facet normal 0 -1 0
    outer loop
      vertex 94.5 -39.5 -1
      vertex 13.7032 -39.5 35.8989
      vertex 12.1353 -39.5 33.1832
    endloop
  endfacet
  facet normal 0 -1 0
    outer loop
      vertex 94.5 -39.5 -1
      vertex 12.1353 -39.5 33.1832
      vertex 10.037 -39.5 30.8528
    endloop
  endfacet
  facet normal 0 -1 0
    outer loop
      vertex 94.5 -39.5 -1
      vertex 10.037 -39.5 30.8528
      vertex 7.5 -39.5 29.0096
    endloop
  endfacet
  facet normal 0 -1 0
    outer loop
      vertex 94.5 -39.5 -1
      vertex 7.5 -39.5 29.0096
      vertex 4.63525 -39.5 27.7342
    endloop
  endfacet
  facet normal 0 -1 0
    outer loop
      vertex 94.5 -39.5 -1
      vertex 4.63525 -39.5 27.7342
      vertex 1.56793 -39.5 27.0822
    endloop
  endfacet
  facet normal 0 -1 0
    outer loop
      vertex 94.5 -39.5 -1
      vertex 1.56793 -39.5 27.0822
      vertex -94.5 -39.5 -1
    endloop
  endfacet
  facet normal 0 -1 0
    outer loop
      vertex 13.7032 -39.5 35.8989
      vertex 94.5 -39.5 -1
      vertex 94.5 -39.5 41
    endloop
  endfacet
  facet normal 1 -0 0
    outer loop
      vertex -92.5 -37.5 41
      vertex -92.5 37.5 1
      vertex -92.5 37.5 41
    endloop
  endfacet
  facet normal 1 0 0
    outer loop
      vertex -92.5 37.5 1
      vertex -92.5 -37.5 41
      vertex -92.5 -37.5 1
    endloop
  endfacet
  facet normal -1 0 0
    outer loop
      vertex -94.5 -39.5 -1
      vertex -94.5 39.5 41
      vertex -94.5 39.5 -1
    endloop
  endfacet
  facet normal -1 -0 0
    outer loop
      vertex -94.5 39.5 41
      vertex -94.5 -39.5 -1
      vertex -94.5 -39.5 41
    endloop
  endfacet
  facet normal 1 -0 0
    outer loop
      vertex 94.5 -39.5 41
      vertex 94.5 39.5 -1
      vertex 94.5 39.5 41
    endloop
  endfacet
  facet normal 1 0 0
    outer loop
      vertex 94.5 39.5 -1
      vertex 94.5 -39.5 41
      vertex 94.5 -39.5 -1
    endloop
  endfacet
  facet normal -1 0 0
    outer loop
      vertex 92.5 -37.5 1
      vertex 92.5 37.5 41
      vertex 92.5 37.5 1
    endloop
  endfacet
  facet normal -1 -0 0
    outer loop
      vertex 92.5 37.5 41
      vertex 92.5 -37.5 1
      vertex 92.5 -37.5 41
    endloop
  endfacet
  facet normal -0.406718 0 0.913554
    outer loop
      vertex 4.63525 39.5 27.7342
      vertex 7.5 37.5 29.0096
      vertex 7.5 39.5 29.0096
    endloop
  endfacet
  facet normal -0.406718 0 0.913554
    outer loop
      vertex 7.5 37.5 29.0096
      vertex 4.63525 39.5 27.7342
      vertex 4.63525 37.5 27.7342
    endloop
  endfacet
  facet normal -0.406718 0 0.913554
    outer loop
      vertex 4.63525 -37.5 27.7342
      vertex 7.5 -39.5 29.0096
      vertex 7.5 -37.5 29.0096
    endloop
  endfacet
  facet normal -0.406718 0 0.913554
    outer loop
      vertex 7.5 -39.5 29.0096
      vertex 4.63525 -37.5 27.7342
      vertex 4.63525 -39.5 27.7342
    endloop
  endfacet
  facet normal -0 0 1
    outer loop
      vertex -1.56793 39.5 27.0822
      vertex 1.56793 37.5 27.0822
      vertex 1.56793 39.5 27.0822
    endloop
  endfacet
  facet normal 0 0 1
    outer loop
      vertex 1.56793 37.5 27.0822
      vertex -1.56793 39.5 27.0822
      vertex -1.56793 37.5 27.0822
    endloop
  endfacet
  facet normal -0 0 1
    outer loop
      vertex -1.56793 -37.5 27.0822
      vertex 1.56793 -39.5 27.0822
      vertex 1.56793 -37.5 27.0822
    endloop
  endfacet
  facet normal 0 0 1
    outer loop
      vertex 1.56793 -39.5 27.0822
      vertex -1.56793 -37.5 27.0822
      vertex -1.56793 -39.5 27.0822
    endloop
  endfacet
  facet normal -0.743145 0 0.66913
    outer loop
      vertex 10.037 37.5 30.8528
      vertex 12.1353 39.5 33.1832
      vertex 10.037 39.5 30.8528
    endloop
  endfacet
  facet normal -0.743145 0 0.66913
    outer loop
      vertex 12.1353 39.5 33.1832
      vertex 10.037 37.5 30.8528
      vertex 12.1353 37.5 33.1832
    endloop
  endfacet
  facet normal -0.743145 0 0.66913
    outer loop
      vertex 10.037 -39.5 30.8528
      vertex 12.1353 -37.5 33.1832
      vertex 10.037 -37.5 30.8528
    endloop
  endfacet
  facet normal -0.743145 0 0.66913
    outer loop
      vertex 12.1353 -37.5 33.1832
      vertex 10.037 -39.5 30.8528
      vertex 12.1353 -39.5 33.1832
    endloop
  endfacet
  facet normal -0.994521 0 0.104536
    outer loop
      vertex 14.6722 37.5 38.8813
      vertex 14.8949 39.5 41
      vertex 14.6722 39.5 38.8813
    endloop
  endfacet
  facet normal -0.994521 0 0.104536
    outer loop
      vertex 14.8949 39.5 41
      vertex 14.6722 37.5 38.8813
      vertex 14.8949 37.5 41
    endloop
  endfacet
  facet normal -0.994521 0 0.104536
    outer loop
      vertex 14.6722 -39.5 38.8813
      vertex 14.8949 -37.5 41
      vertex 14.6722 -37.5 38.8813
    endloop
  endfacet
  facet normal -0.994521 0 0.104536
    outer loop
      vertex 14.8949 -37.5 41
      vertex 14.6722 -39.5 38.8813
      vertex 14.8949 -39.5 41
    endloop
  endfacet
  facet normal -0.95106 0 0.309005
    outer loop
      vertex 13.7032 37.5 35.8989
      vertex 14.6722 39.5 38.8813
      vertex 13.7032 39.5 35.8989
    endloop
  endfacet
  facet normal -0.95106 0 0.309005
    outer loop
      vertex 14.6722 39.5 38.8813
      vertex 13.7032 37.5 35.8989
      vertex 14.6722 37.5 38.8813
    endloop
  endfacet
  facet normal -0.95106 0 0.309005
    outer loop
      vertex 13.7032 -39.5 35.8989
      vertex 14.6722 -37.5 38.8813
      vertex 13.7032 -37.5 35.8989
    endloop
  endfacet
  facet normal -0.95106 0 0.309005
    outer loop
      vertex 14.6722 -37.5 38.8813
      vertex 13.7032 -39.5 35.8989
      vertex 14.6722 -39.5 38.8813
    endloop
  endfacet
  facet normal 0.406718 0 0.913554
    outer loop
      vertex -7.5 39.5 29.0096
      vertex -4.63525 37.5 27.7342
      vertex -4.63525 39.5 27.7342
    endloop
  endfacet
  facet normal 0.406718 0 0.913554
    outer loop
      vertex -4.63525 37.5 27.7342
      vertex -7.5 39.5 29.0096
      vertex -7.5 37.5 29.0096
    endloop
  endfacet
  facet normal 0.406718 0 0.913554
    outer loop
      vertex -7.5 -37.5 29.0096
      vertex -4.63525 -39.5 27.7342
      vertex -4.63525 -37.5 27.7342
    endloop
  endfacet
  facet normal 0.406718 0 0.913554
    outer loop
      vertex -4.63525 -39.5 27.7342
      vertex -7.5 -37.5 29.0096
      vertex -7.5 -39.5 29.0096
    endloop
  endfacet
  facet normal 0.95106 -0 0.309005
    outer loop
      vertex -14.6722 37.5 38.8813
      vertex -13.7032 39.5 35.8989
      vertex -14.6722 39.5 38.8813
    endloop
  endfacet
  facet normal 0.95106 0 0.309005
    outer loop
      vertex -13.7032 39.5 35.8989
      vertex -14.6722 37.5 38.8813
      vertex -13.7032 37.5 35.8989
    endloop
  endfacet
  facet normal 0.95106 -0 0.309005
    outer loop
      vertex -14.6722 -39.5 38.8813
      vertex -13.7032 -37.5 35.8989
      vertex -14.6722 -37.5 38.8813
    endloop
  endfacet
  facet normal 0.95106 0 0.309005
    outer loop
      vertex -13.7032 -37.5 35.8989
      vertex -14.6722 -39.5 38.8813
      vertex -13.7032 -39.5 35.8989
    endloop
  endfacet
  facet normal 0.207918 0 0.978146
    outer loop
      vertex -4.63525 39.5 27.7342
      vertex -1.56793 37.5 27.0822
      vertex -1.56793 39.5 27.0822
    endloop
  endfacet
  facet normal 0.207918 0 0.978146
    outer loop
      vertex -1.56793 37.5 27.0822
      vertex -4.63525 39.5 27.7342
      vertex -4.63525 37.5 27.7342
    endloop
  endfacet
  facet normal 0.207918 0 0.978146
    outer loop
      vertex -4.63525 -37.5 27.7342
      vertex -1.56793 -39.5 27.0822
      vertex -1.56793 -37.5 27.0822
    endloop
  endfacet
  facet normal 0.207918 0 0.978146
    outer loop
      vertex -1.56793 -39.5 27.0822
      vertex -4.63525 -37.5 27.7342
      vertex -4.63525 -39.5 27.7342
    endloop
  endfacet
  facet normal 0.587777 0 0.809023
    outer loop
      vertex -10.037 39.5 30.8528
      vertex -7.5 37.5 29.0096
      vertex -7.5 39.5 29.0096
    endloop
  endfacet
  facet normal 0.587777 0 0.809023
    outer loop
      vertex -7.5 37.5 29.0096
      vertex -10.037 39.5 30.8528
      vertex -10.037 37.5 30.8528
    endloop
  endfacet
  facet normal 0.587777 0 0.809023
    outer loop
      vertex -10.037 -37.5 30.8528
      vertex -7.5 -39.5 29.0096
      vertex -7.5 -37.5 29.0096
    endloop
  endfacet
  facet normal 0.587777 0 0.809023
    outer loop
      vertex -7.5 -39.5 29.0096
      vertex -10.037 -37.5 30.8528
      vertex -10.037 -39.5 30.8528
    endloop
  endfacet
  facet normal 0.743145 -0 0.66913
    outer loop
      vertex -12.1353 37.5 33.1832
      vertex -10.037 39.5 30.8528
      vertex -12.1353 39.5 33.1832
    endloop
  endfacet
  facet normal 0.743145 0 0.66913
    outer loop
      vertex -10.037 39.5 30.8528
      vertex -12.1353 37.5 33.1832
      vertex -10.037 37.5 30.8528
    endloop
  endfacet
  facet normal 0.743145 -0 0.66913
    outer loop
      vertex -12.1353 -39.5 33.1832
      vertex -10.037 -37.5 30.8528
      vertex -12.1353 -37.5 33.1832
    endloop
  endfacet
  facet normal 0.743145 0 0.66913
    outer loop
      vertex -10.037 -37.5 30.8528
      vertex -12.1353 -39.5 33.1832
      vertex -10.037 -39.5 30.8528
    endloop
  endfacet
  facet normal -0.207918 0 0.978146
    outer loop
      vertex 1.56793 39.5 27.0822
      vertex 4.63525 37.5 27.7342
      vertex 4.63525 39.5 27.7342
    endloop
  endfacet
  facet normal -0.207918 0 0.978146
    outer loop
      vertex 4.63525 37.5 27.7342
      vertex 1.56793 39.5 27.0822
      vertex 1.56793 37.5 27.0822
    endloop
  endfacet
  facet normal -0.207918 0 0.978146
    outer loop
      vertex 1.56793 -37.5 27.0822
      vertex 4.63525 -39.5 27.7342
      vertex 4.63525 -37.5 27.7342
    endloop
  endfacet
  facet normal -0.207918 0 0.978146
    outer loop
      vertex 4.63525 -39.5 27.7342
      vertex 1.56793 -37.5 27.0822
      vertex 1.56793 -39.5 27.0822
    endloop
  endfacet
  facet normal -0.587777 0 0.809023
    outer loop
      vertex 7.5 39.5 29.0096
      vertex 10.037 37.5 30.8528
      vertex 10.037 39.5 30.8528
    endloop
  endfacet
  facet normal -0.587777 0 0.809023
    outer loop
      vertex 10.037 37.5 30.8528
      vertex 7.5 39.5 29.0096
      vertex 7.5 37.5 29.0096
    endloop
  endfacet
  facet normal -0.587777 0 0.809023
    outer loop
      vertex 7.5 -37.5 29.0096
      vertex 10.037 -39.5 30.8528
      vertex 10.037 -37.5 30.8528
    endloop
  endfacet
  facet normal -0.587777 0 0.809023
    outer loop
      vertex 10.037 -39.5 30.8528
      vertex 7.5 -37.5 29.0096
      vertex 7.5 -39.5 29.0096
    endloop
  endfacet
  facet normal -0.866027 0 0.499998
    outer loop
      vertex 12.1353 37.5 33.1832
      vertex 13.7032 39.5 35.8989
      vertex 12.1353 39.5 33.1832
    endloop
  endfacet
  facet normal -0.866027 0 0.499998
    outer loop
      vertex 13.7032 39.5 35.8989
      vertex 12.1353 37.5 33.1832
      vertex 13.7032 37.5 35.8989
    endloop
  endfacet
  facet normal -0.866027 0 0.499998
    outer loop
      vertex 12.1353 -39.5 33.1832
      vertex 13.7032 -37.5 35.8989
      vertex 12.1353 -37.5 33.1832
    endloop
  endfacet
  facet normal -0.866027 0 0.499998
    outer loop
      vertex 13.7032 -37.5 35.8989
      vertex 12.1353 -39.5 33.1832
      vertex 13.7032 -39.5 35.8989
    endloop
  endfacet
  facet normal 0.866027 -0 0.499998
    outer loop
      vertex -13.7032 37.5 35.8989
      vertex -12.1353 39.5 33.1832
      vertex -13.7032 39.5 35.8989
    endloop
  endfacet
  facet normal 0.866027 0 0.499998
    outer loop
      vertex -12.1353 39.5 33.1832
      vertex -13.7032 37.5 35.8989
      vertex -12.1353 37.5 33.1832
    endloop
  endfacet
  facet normal 0.866027 -0 0.499998
    outer loop
      vertex -13.7032 -39.5 35.8989
      vertex -12.1353 -37.5 33.1832
      vertex -13.7032 -37.5 35.8989
    endloop
  endfacet
  facet normal 0.866027 0 0.499998
    outer loop
      vertex -12.1353 -37.5 33.1832
      vertex -13.7032 -39.5 35.8989
      vertex -12.1353 -39.5 33.1832
    endloop
  endfacet
  facet normal 0.994521 -0 0.104536
    outer loop
      vertex -14.8949 37.5 41
      vertex -14.6722 39.5 38.8813
      vertex -14.8949 39.5 41
    endloop
  endfacet
  facet normal 0.994521 0 0.104536
    outer loop
      vertex -14.6722 39.5 38.8813
      vertex -14.8949 37.5 41
      vertex -14.6722 37.5 38.8813
    endloop
  endfacet
  facet normal 0.994521 -0 0.104536
    outer loop
      vertex -14.8949 -39.5 41
      vertex -14.6722 -37.5 38.8813
      vertex -14.8949 -37.5 41
    endloop
  endfacet
  facet normal 0.994521 0 0.104536
    outer loop
      vertex -14.6722 -37.5 38.8813
      vertex -14.8949 -39.5 41
      vertex -14.6722 -39.5 38.8813
    endloop
  endfacet
  facet normal -1 0 0
    outer loop
      vertex 15 -36.5 -1
      vertex 15 -29.5 1
      vertex 15 -29.5 -1
    endloop
  endfacet
  facet normal -1 -0 0
    outer loop
      vertex 15 -29.5 1
      vertex 15 -36.5 -1
      vertex 15 -36.5 1
    endloop
  endfacet
  facet normal 1 -0 0
    outer loop
      vertex -15 -36.5 1
      vertex -15 -29.5 -1
      vertex -15 -29.5 1
    endloop
  endfacet
  facet normal 1 0 0
    outer loop
      vertex -15 -29.5 -1
      vertex -15 -36.5 1
      vertex -15 -36.5 -1
    endloop
  endfacet
  facet normal 0 -1 0
    outer loop
      vertex -15 -29.5 -1
      vertex 15 -29.5 1
      vertex -15 -29.5 1
    endloop
  endfacet
  facet normal 0 -1 -0
    outer loop
      vertex 15 -29.5 1
      vertex -15 -29.5 -1
      vertex 15 -29.5 -1
    endloop
  endfacet
  facet normal 0 1 -0
    outer loop
      vertex 15 -36.5 -1
      vertex -15 -36.5 1
      vertex 15 -36.5 1
    endloop
  endfacet
  facet normal 0 1 0
    outer loop
      vertex -15 -36.5 1
      vertex 15 -36.5 -1
      vertex -15 -36.5 -1
    endloop
  endfacet
  facet normal -1 0 0
    outer loop
      vertex 15 29.5 -1
      vertex 15 36.5 1
      vertex 15 36.5 -1
    endloop
  endfacet
  facet normal -1 -0 0
    outer loop
      vertex 15 36.5 1
      vertex 15 29.5 -1
      vertex 15 29.5 1
    endloop
  endfacet
  facet normal 1 -0 0
    outer loop
      vertex -15 29.5 1
      vertex -15 36.5 -1
      vertex -15 36.5 1
    endloop
  endfacet
  facet normal 1 0 0
    outer loop
      vertex -15 36.5 -1
      vertex -15 29.5 1
      vertex -15 29.5 -1
    endloop
  endfacet
  facet normal 0 -1 0
    outer loop
      vertex -15 36.5 -1
      vertex 15 36.5 1
      vertex -15 36.5 1
    endloop
  endfacet
  facet normal 0 -1 -0
    outer loop
      vertex 15 36.5 1
      vertex -15 36.5 -1
      vertex 15 36.5 -1
    endloop
  endfacet
  facet normal 0 1 -0
    outer loop
      vertex 15 29.5 -1
      vertex -15 29.5 1
      vertex 15 29.5 1
    endloop
  endfacet
  facet normal 0 1 0
    outer loop
      vertex -15 29.5 1
      vertex 15 29.5 -1
      vertex -15 29.5 -1
    endloop
  endfacet
endsolid OpenSCAD_Model
